%TF.GenerationSoftware,KiCad,Pcbnew,(6.0.9)*%
%TF.CreationDate,2023-03-10T16:48:29-06:00*%
%TF.ProjectId,Number Pad,4e756d62-6572-4205-9061-642e6b696361,rev?*%
%TF.SameCoordinates,Original*%
%TF.FileFunction,Drillmap*%
%TF.FilePolarity,Positive*%
%FSLAX45Y45*%
G04 Gerber Fmt 4.5, Leading zero omitted, Abs format (unit mm)*
G04 Created by KiCad (PCBNEW (6.0.9)) date 2023-03-10 16:48:29*
%MOMM*%
%LPD*%
G01*
G04 APERTURE LIST*
%ADD10C,0.150000*%
%ADD11C,0.100000*%
%ADD12C,0.200000*%
%ADD13C,0.175000*%
%ADD14C,0.398780*%
G04 APERTURE END LIST*
D10*
X13096875Y-1746250D02*
G75*
G03*
X12858750Y-1508125I-238125J0D01*
G01*
D11*
X2857500Y-1905000D02*
G75*
G03*
X2857500Y-1905000I-79375J0D01*
G01*
X7937500Y-3413125D02*
G75*
G03*
X7937500Y-3413125I-79375J0D01*
G01*
D10*
X2381250Y-10795000D02*
X2381250Y-1746250D01*
X2381250Y-10795000D02*
G75*
G03*
X2619375Y-11033125I238125J0D01*
G01*
X2628997Y-1508319D02*
G75*
G03*
X2381250Y-1746250I-9622J-237931D01*
G01*
X13096875Y-10795000D02*
X13096875Y-1746250D01*
D11*
X2857500Y-10636250D02*
G75*
G03*
X2857500Y-10636250I-79375J0D01*
G01*
D10*
X2629005Y-1508125D02*
X12858750Y-1508125D01*
D11*
X12779375Y-8096250D02*
G75*
G03*
X12779375Y-8096250I-79375J0D01*
G01*
X2857500Y-4365625D02*
G75*
G03*
X2857500Y-4365625I-79375J0D01*
G01*
X2857500Y-8175625D02*
G75*
G03*
X2857500Y-8175625I-79375J0D01*
G01*
X7937500Y-9128125D02*
G75*
G03*
X7937500Y-9128125I-79375J0D01*
G01*
D10*
X12858750Y-11033125D02*
G75*
G03*
X13096875Y-10795000I0J238125D01*
G01*
D11*
X12779375Y-10636250D02*
G75*
G03*
X12779375Y-10636250I-79375J0D01*
G01*
D10*
X2619375Y-11033125D02*
X12858750Y-11033125D01*
D11*
X12779375Y-4365625D02*
G75*
G03*
X12779375Y-4365625I-79375J0D01*
G01*
X12779375Y-1905000D02*
G75*
G03*
X12779375Y-1905000I-79375J0D01*
G01*
D12*
D13*
X4405125Y-2373125D02*
X4580125Y-2548125D01*
X4580125Y-2373125D02*
X4405125Y-2548125D01*
X4405125Y-4278125D02*
X4580125Y-4453125D01*
X4580125Y-4278125D02*
X4405125Y-4453125D01*
X4405125Y-6183125D02*
X4580125Y-6358125D01*
X4580125Y-6183125D02*
X4405125Y-6358125D01*
X4405125Y-8088125D02*
X4580125Y-8263125D01*
X4580125Y-8088125D02*
X4405125Y-8263125D01*
X4405125Y-9993125D02*
X4580125Y-10168125D01*
X4580125Y-9993125D02*
X4405125Y-10168125D01*
X5421125Y-2373125D02*
X5596125Y-2548125D01*
X5596125Y-2373125D02*
X5421125Y-2548125D01*
X5421125Y-4278125D02*
X5596125Y-4453125D01*
X5596125Y-4278125D02*
X5421125Y-4453125D01*
X5421125Y-6183125D02*
X5596125Y-6358125D01*
X5596125Y-6183125D02*
X5421125Y-6358125D01*
X5421125Y-8088125D02*
X5596125Y-8263125D01*
X5596125Y-8088125D02*
X5421125Y-8263125D01*
X5421125Y-9993125D02*
X5596125Y-10168125D01*
X5596125Y-9993125D02*
X5421125Y-10168125D01*
X6310125Y-2373125D02*
X6485125Y-2548125D01*
X6485125Y-2373125D02*
X6310125Y-2548125D01*
X6310125Y-4278125D02*
X6485125Y-4453125D01*
X6485125Y-4278125D02*
X6310125Y-4453125D01*
X6310125Y-6183125D02*
X6485125Y-6358125D01*
X6485125Y-6183125D02*
X6310125Y-6358125D01*
X6310125Y-8088125D02*
X6485125Y-8263125D01*
X6485125Y-8088125D02*
X6310125Y-8263125D01*
X6310125Y-9993125D02*
X6485125Y-10168125D01*
X6485125Y-9993125D02*
X6310125Y-10168125D01*
X7326125Y-2373125D02*
X7501125Y-2548125D01*
X7501125Y-2373125D02*
X7326125Y-2548125D01*
X7326125Y-4278125D02*
X7501125Y-4453125D01*
X7501125Y-4278125D02*
X7326125Y-4453125D01*
X7326125Y-6183125D02*
X7501125Y-6358125D01*
X7501125Y-6183125D02*
X7326125Y-6358125D01*
X7326125Y-8088125D02*
X7501125Y-8263125D01*
X7501125Y-8088125D02*
X7326125Y-8263125D01*
X7326125Y-9993125D02*
X7501125Y-10168125D01*
X7501125Y-9993125D02*
X7326125Y-10168125D01*
X8215125Y-2373125D02*
X8390125Y-2548125D01*
X8390125Y-2373125D02*
X8215125Y-2548125D01*
X8215125Y-4278125D02*
X8390125Y-4453125D01*
X8390125Y-4278125D02*
X8215125Y-4453125D01*
X8215125Y-6183125D02*
X8390125Y-6358125D01*
X8390125Y-6183125D02*
X8215125Y-6358125D01*
X8215125Y-8088125D02*
X8390125Y-8263125D01*
X8390125Y-8088125D02*
X8215125Y-8263125D01*
X8215125Y-9993125D02*
X8390125Y-10168125D01*
X8390125Y-9993125D02*
X8215125Y-10168125D01*
X9231125Y-2373125D02*
X9406125Y-2548125D01*
X9406125Y-2373125D02*
X9231125Y-2548125D01*
X9231125Y-4278125D02*
X9406125Y-4453125D01*
X9406125Y-4278125D02*
X9231125Y-4453125D01*
X9231125Y-6183125D02*
X9406125Y-6358125D01*
X9406125Y-6183125D02*
X9231125Y-6358125D01*
X9231125Y-8088125D02*
X9406125Y-8263125D01*
X9406125Y-8088125D02*
X9231125Y-8263125D01*
X9231125Y-9993125D02*
X9406125Y-10168125D01*
X9406125Y-9993125D02*
X9231125Y-10168125D01*
X10120125Y-2373125D02*
X10295125Y-2548125D01*
X10295125Y-2373125D02*
X10120125Y-2548125D01*
X10120125Y-4278125D02*
X10295125Y-4453125D01*
X10295125Y-4278125D02*
X10120125Y-4453125D01*
X10120125Y-6183125D02*
X10295125Y-6358125D01*
X10295125Y-6183125D02*
X10120125Y-6358125D01*
X10120125Y-8088125D02*
X10295125Y-8263125D01*
X10295125Y-8088125D02*
X10120125Y-8263125D01*
X10120125Y-9993125D02*
X10295125Y-10168125D01*
X10295125Y-9993125D02*
X10120125Y-10168125D01*
X11136125Y-2373125D02*
X11311125Y-2548125D01*
X11311125Y-2373125D02*
X11136125Y-2548125D01*
X11136125Y-4278125D02*
X11311125Y-4453125D01*
X11311125Y-4278125D02*
X11136125Y-4453125D01*
X11136125Y-6183125D02*
X11311125Y-6358125D01*
X11311125Y-6183125D02*
X11136125Y-6358125D01*
X11136125Y-8088125D02*
X11311125Y-8263125D01*
X11311125Y-8088125D02*
X11136125Y-8263125D01*
X11136125Y-9993125D02*
X11311125Y-10168125D01*
X11311125Y-9993125D02*
X11136125Y-10168125D01*
D14*
X5200015Y-2460625D02*
G75*
G03*
X5200015Y-2460625I-199390J0D01*
G01*
X5200015Y-4365625D02*
G75*
G03*
X5200015Y-4365625I-199390J0D01*
G01*
X5200015Y-6270625D02*
G75*
G03*
X5200015Y-6270625I-199390J0D01*
G01*
X5200015Y-8175625D02*
G75*
G03*
X5200015Y-8175625I-199390J0D01*
G01*
X5200015Y-10080625D02*
G75*
G03*
X5200015Y-10080625I-199390J0D01*
G01*
X7105015Y-2460625D02*
G75*
G03*
X7105015Y-2460625I-199390J0D01*
G01*
X7105015Y-4365625D02*
G75*
G03*
X7105015Y-4365625I-199390J0D01*
G01*
X7105015Y-6270625D02*
G75*
G03*
X7105015Y-6270625I-199390J0D01*
G01*
X7105015Y-8175625D02*
G75*
G03*
X7105015Y-8175625I-199390J0D01*
G01*
X7105015Y-10080625D02*
G75*
G03*
X7105015Y-10080625I-199390J0D01*
G01*
X9010015Y-2460625D02*
G75*
G03*
X9010015Y-2460625I-199390J0D01*
G01*
X9010015Y-4365625D02*
G75*
G03*
X9010015Y-4365625I-199390J0D01*
G01*
X9010015Y-6270625D02*
G75*
G03*
X9010015Y-6270625I-199390J0D01*
G01*
X9010015Y-8175625D02*
G75*
G03*
X9010015Y-8175625I-199390J0D01*
G01*
X9010015Y-10080625D02*
G75*
G03*
X9010015Y-10080625I-199390J0D01*
G01*
X10915015Y-2460625D02*
G75*
G03*
X10915015Y-2460625I-199390J0D01*
G01*
X10915015Y-4365625D02*
G75*
G03*
X10915015Y-4365625I-199390J0D01*
G01*
X10915015Y-6270625D02*
G75*
G03*
X10915015Y-6270625I-199390J0D01*
G01*
X10915015Y-8175625D02*
G75*
G03*
X10915015Y-8175625I-199390J0D01*
G01*
X10915015Y-10080625D02*
G75*
G03*
X10915015Y-10080625I-199390J0D01*
G01*
D12*
X2631369Y-11351101D02*
X2631369Y-11151101D01*
X2678988Y-11151101D01*
X2707560Y-11160625D01*
X2726607Y-11179673D01*
X2736131Y-11198720D01*
X2745655Y-11236815D01*
X2745655Y-11265387D01*
X2736131Y-11303482D01*
X2726607Y-11322530D01*
X2707560Y-11341577D01*
X2678988Y-11351101D01*
X2631369Y-11351101D01*
X2831369Y-11351101D02*
X2831369Y-11217768D01*
X2831369Y-11255863D02*
X2840893Y-11236815D01*
X2850417Y-11227292D01*
X2869464Y-11217768D01*
X2888512Y-11217768D01*
X2955178Y-11351101D02*
X2955178Y-11217768D01*
X2955178Y-11151101D02*
X2945655Y-11160625D01*
X2955178Y-11170149D01*
X2964702Y-11160625D01*
X2955178Y-11151101D01*
X2955178Y-11170149D01*
X3078988Y-11351101D02*
X3059940Y-11341577D01*
X3050417Y-11322530D01*
X3050417Y-11151101D01*
X3183750Y-11351101D02*
X3164702Y-11341577D01*
X3155178Y-11322530D01*
X3155178Y-11151101D01*
X3412321Y-11351101D02*
X3412321Y-11151101D01*
X3478988Y-11293958D01*
X3545655Y-11151101D01*
X3545655Y-11351101D01*
X3726607Y-11351101D02*
X3726607Y-11246339D01*
X3717083Y-11227292D01*
X3698036Y-11217768D01*
X3659940Y-11217768D01*
X3640893Y-11227292D01*
X3726607Y-11341577D02*
X3707559Y-11351101D01*
X3659940Y-11351101D01*
X3640893Y-11341577D01*
X3631369Y-11322530D01*
X3631369Y-11303482D01*
X3640893Y-11284434D01*
X3659940Y-11274911D01*
X3707559Y-11274911D01*
X3726607Y-11265387D01*
X3821845Y-11217768D02*
X3821845Y-11417768D01*
X3821845Y-11227292D02*
X3840893Y-11217768D01*
X3878988Y-11217768D01*
X3898036Y-11227292D01*
X3907559Y-11236815D01*
X3917083Y-11255863D01*
X3917083Y-11313006D01*
X3907559Y-11332053D01*
X3898036Y-11341577D01*
X3878988Y-11351101D01*
X3840893Y-11351101D01*
X3821845Y-11341577D01*
X4002798Y-11332053D02*
X4012321Y-11341577D01*
X4002798Y-11351101D01*
X3993274Y-11341577D01*
X4002798Y-11332053D01*
X4002798Y-11351101D01*
X4002798Y-11227292D02*
X4012321Y-11236815D01*
X4002798Y-11246339D01*
X3993274Y-11236815D01*
X4002798Y-11227292D01*
X4002798Y-11246339D01*
D13*
X2198750Y-11593125D02*
X2373750Y-11768125D01*
X2373750Y-11593125D02*
X2198750Y-11768125D01*
D12*
X2736131Y-11771101D02*
X2621845Y-11771101D01*
X2678988Y-11771101D02*
X2678988Y-11571101D01*
X2659940Y-11599673D01*
X2640893Y-11618720D01*
X2621845Y-11628244D01*
X2821845Y-11752053D02*
X2831369Y-11761577D01*
X2821845Y-11771101D01*
X2812321Y-11761577D01*
X2821845Y-11752053D01*
X2821845Y-11771101D01*
X2898036Y-11571101D02*
X3031369Y-11571101D01*
X2945655Y-11771101D01*
X3202798Y-11571101D02*
X3107559Y-11571101D01*
X3098036Y-11666339D01*
X3107559Y-11656815D01*
X3126607Y-11647292D01*
X3174226Y-11647292D01*
X3193274Y-11656815D01*
X3202798Y-11666339D01*
X3212321Y-11685387D01*
X3212321Y-11733006D01*
X3202798Y-11752053D01*
X3193274Y-11761577D01*
X3174226Y-11771101D01*
X3126607Y-11771101D01*
X3107559Y-11761577D01*
X3098036Y-11752053D01*
X3336131Y-11571101D02*
X3355178Y-11571101D01*
X3374226Y-11580625D01*
X3383750Y-11590149D01*
X3393274Y-11609196D01*
X3402798Y-11647292D01*
X3402798Y-11694911D01*
X3393274Y-11733006D01*
X3383750Y-11752053D01*
X3374226Y-11761577D01*
X3355178Y-11771101D01*
X3336131Y-11771101D01*
X3317083Y-11761577D01*
X3307559Y-11752053D01*
X3298036Y-11733006D01*
X3288512Y-11694911D01*
X3288512Y-11647292D01*
X3298036Y-11609196D01*
X3307559Y-11590149D01*
X3317083Y-11580625D01*
X3336131Y-11571101D01*
X3488512Y-11771101D02*
X3488512Y-11637768D01*
X3488512Y-11656815D02*
X3498036Y-11647292D01*
X3517083Y-11637768D01*
X3545655Y-11637768D01*
X3564702Y-11647292D01*
X3574226Y-11666339D01*
X3574226Y-11771101D01*
X3574226Y-11666339D02*
X3583750Y-11647292D01*
X3602798Y-11637768D01*
X3631369Y-11637768D01*
X3650417Y-11647292D01*
X3659940Y-11666339D01*
X3659940Y-11771101D01*
X3755178Y-11771101D02*
X3755178Y-11637768D01*
X3755178Y-11656815D02*
X3764702Y-11647292D01*
X3783750Y-11637768D01*
X3812321Y-11637768D01*
X3831369Y-11647292D01*
X3840893Y-11666339D01*
X3840893Y-11771101D01*
X3840893Y-11666339D02*
X3850417Y-11647292D01*
X3869464Y-11637768D01*
X3898036Y-11637768D01*
X3917083Y-11647292D01*
X3926607Y-11666339D01*
X3926607Y-11771101D01*
X4317083Y-11561577D02*
X4145655Y-11818720D01*
X4574226Y-11571101D02*
X4593274Y-11571101D01*
X4612321Y-11580625D01*
X4621845Y-11590149D01*
X4631369Y-11609196D01*
X4640893Y-11647292D01*
X4640893Y-11694911D01*
X4631369Y-11733006D01*
X4621845Y-11752053D01*
X4612321Y-11761577D01*
X4593274Y-11771101D01*
X4574226Y-11771101D01*
X4555179Y-11761577D01*
X4545655Y-11752053D01*
X4536131Y-11733006D01*
X4526607Y-11694911D01*
X4526607Y-11647292D01*
X4536131Y-11609196D01*
X4545655Y-11590149D01*
X4555179Y-11580625D01*
X4574226Y-11571101D01*
X4726607Y-11752053D02*
X4736131Y-11761577D01*
X4726607Y-11771101D01*
X4717083Y-11761577D01*
X4726607Y-11752053D01*
X4726607Y-11771101D01*
X4859940Y-11571101D02*
X4878988Y-11571101D01*
X4898036Y-11580625D01*
X4907560Y-11590149D01*
X4917083Y-11609196D01*
X4926607Y-11647292D01*
X4926607Y-11694911D01*
X4917083Y-11733006D01*
X4907560Y-11752053D01*
X4898036Y-11761577D01*
X4878988Y-11771101D01*
X4859940Y-11771101D01*
X4840893Y-11761577D01*
X4831369Y-11752053D01*
X4821845Y-11733006D01*
X4812321Y-11694911D01*
X4812321Y-11647292D01*
X4821845Y-11609196D01*
X4831369Y-11590149D01*
X4840893Y-11580625D01*
X4859940Y-11571101D01*
X5098036Y-11571101D02*
X5059940Y-11571101D01*
X5040893Y-11580625D01*
X5031369Y-11590149D01*
X5012321Y-11618720D01*
X5002798Y-11656815D01*
X5002798Y-11733006D01*
X5012321Y-11752053D01*
X5021845Y-11761577D01*
X5040893Y-11771101D01*
X5078988Y-11771101D01*
X5098036Y-11761577D01*
X5107560Y-11752053D01*
X5117083Y-11733006D01*
X5117083Y-11685387D01*
X5107560Y-11666339D01*
X5098036Y-11656815D01*
X5078988Y-11647292D01*
X5040893Y-11647292D01*
X5021845Y-11656815D01*
X5012321Y-11666339D01*
X5002798Y-11685387D01*
X5231369Y-11656815D02*
X5212321Y-11647292D01*
X5202798Y-11637768D01*
X5193274Y-11618720D01*
X5193274Y-11609196D01*
X5202798Y-11590149D01*
X5212321Y-11580625D01*
X5231369Y-11571101D01*
X5269464Y-11571101D01*
X5288512Y-11580625D01*
X5298036Y-11590149D01*
X5307560Y-11609196D01*
X5307560Y-11618720D01*
X5298036Y-11637768D01*
X5288512Y-11647292D01*
X5269464Y-11656815D01*
X5231369Y-11656815D01*
X5212321Y-11666339D01*
X5202798Y-11675863D01*
X5193274Y-11694911D01*
X5193274Y-11733006D01*
X5202798Y-11752053D01*
X5212321Y-11761577D01*
X5231369Y-11771101D01*
X5269464Y-11771101D01*
X5288512Y-11761577D01*
X5298036Y-11752053D01*
X5307560Y-11733006D01*
X5307560Y-11694911D01*
X5298036Y-11675863D01*
X5288512Y-11666339D01*
X5269464Y-11656815D01*
X5402798Y-11771101D02*
X5440893Y-11771101D01*
X5459940Y-11761577D01*
X5469464Y-11752053D01*
X5488512Y-11723482D01*
X5498036Y-11685387D01*
X5498036Y-11609196D01*
X5488512Y-11590149D01*
X5478988Y-11580625D01*
X5459940Y-11571101D01*
X5421845Y-11571101D01*
X5402798Y-11580625D01*
X5393274Y-11590149D01*
X5383750Y-11609196D01*
X5383750Y-11656815D01*
X5393274Y-11675863D01*
X5402798Y-11685387D01*
X5421845Y-11694911D01*
X5459940Y-11694911D01*
X5478988Y-11685387D01*
X5488512Y-11675863D01*
X5498036Y-11656815D01*
X5574226Y-11571101D02*
X5574226Y-11609196D01*
X5650417Y-11571101D02*
X5650417Y-11609196D01*
X5945655Y-11847292D02*
X5936131Y-11837768D01*
X5917083Y-11809196D01*
X5907559Y-11790149D01*
X5898036Y-11761577D01*
X5888512Y-11713958D01*
X5888512Y-11675863D01*
X5898036Y-11628244D01*
X5907559Y-11599673D01*
X5917083Y-11580625D01*
X5936131Y-11552053D01*
X5945655Y-11542530D01*
X6107559Y-11637768D02*
X6107559Y-11771101D01*
X6059940Y-11561577D02*
X6012321Y-11704434D01*
X6136131Y-11704434D01*
X6250417Y-11571101D02*
X6269464Y-11571101D01*
X6288512Y-11580625D01*
X6298036Y-11590149D01*
X6307559Y-11609196D01*
X6317083Y-11647292D01*
X6317083Y-11694911D01*
X6307559Y-11733006D01*
X6298036Y-11752053D01*
X6288512Y-11761577D01*
X6269464Y-11771101D01*
X6250417Y-11771101D01*
X6231369Y-11761577D01*
X6221845Y-11752053D01*
X6212321Y-11733006D01*
X6202798Y-11694911D01*
X6202798Y-11647292D01*
X6212321Y-11609196D01*
X6221845Y-11590149D01*
X6231369Y-11580625D01*
X6250417Y-11571101D01*
X6555178Y-11771101D02*
X6555178Y-11571101D01*
X6640893Y-11771101D02*
X6640893Y-11666339D01*
X6631369Y-11647292D01*
X6612321Y-11637768D01*
X6583750Y-11637768D01*
X6564702Y-11647292D01*
X6555178Y-11656815D01*
X6764702Y-11771101D02*
X6745655Y-11761577D01*
X6736131Y-11752053D01*
X6726607Y-11733006D01*
X6726607Y-11675863D01*
X6736131Y-11656815D01*
X6745655Y-11647292D01*
X6764702Y-11637768D01*
X6793274Y-11637768D01*
X6812321Y-11647292D01*
X6821845Y-11656815D01*
X6831369Y-11675863D01*
X6831369Y-11733006D01*
X6821845Y-11752053D01*
X6812321Y-11761577D01*
X6793274Y-11771101D01*
X6764702Y-11771101D01*
X6945655Y-11771101D02*
X6926607Y-11761577D01*
X6917083Y-11742530D01*
X6917083Y-11571101D01*
X7098036Y-11761577D02*
X7078988Y-11771101D01*
X7040893Y-11771101D01*
X7021845Y-11761577D01*
X7012321Y-11742530D01*
X7012321Y-11666339D01*
X7021845Y-11647292D01*
X7040893Y-11637768D01*
X7078988Y-11637768D01*
X7098036Y-11647292D01*
X7107559Y-11666339D01*
X7107559Y-11685387D01*
X7012321Y-11704434D01*
X7183750Y-11761577D02*
X7202798Y-11771101D01*
X7240893Y-11771101D01*
X7259940Y-11761577D01*
X7269464Y-11742530D01*
X7269464Y-11733006D01*
X7259940Y-11713958D01*
X7240893Y-11704434D01*
X7212321Y-11704434D01*
X7193274Y-11694911D01*
X7183750Y-11675863D01*
X7183750Y-11666339D01*
X7193274Y-11647292D01*
X7212321Y-11637768D01*
X7240893Y-11637768D01*
X7259940Y-11647292D01*
X7336131Y-11847292D02*
X7345655Y-11837768D01*
X7364702Y-11809196D01*
X7374226Y-11790149D01*
X7383750Y-11761577D01*
X7393274Y-11713958D01*
X7393274Y-11675863D01*
X7383750Y-11628244D01*
X7374226Y-11599673D01*
X7364702Y-11580625D01*
X7345655Y-11552053D01*
X7336131Y-11542530D01*
X7698036Y-11847292D02*
X7688512Y-11837768D01*
X7669464Y-11809196D01*
X7659940Y-11790149D01*
X7650417Y-11761577D01*
X7640893Y-11713958D01*
X7640893Y-11675863D01*
X7650417Y-11628244D01*
X7659940Y-11599673D01*
X7669464Y-11580625D01*
X7688512Y-11552053D01*
X7698036Y-11542530D01*
X7774226Y-11637768D02*
X7774226Y-11771101D01*
X7774226Y-11656815D02*
X7783750Y-11647292D01*
X7802798Y-11637768D01*
X7831369Y-11637768D01*
X7850417Y-11647292D01*
X7859940Y-11666339D01*
X7859940Y-11771101D01*
X7983750Y-11771101D02*
X7964702Y-11761577D01*
X7955178Y-11752053D01*
X7945655Y-11733006D01*
X7945655Y-11675863D01*
X7955178Y-11656815D01*
X7964702Y-11647292D01*
X7983750Y-11637768D01*
X8012321Y-11637768D01*
X8031369Y-11647292D01*
X8040893Y-11656815D01*
X8050417Y-11675863D01*
X8050417Y-11733006D01*
X8040893Y-11752053D01*
X8031369Y-11761577D01*
X8012321Y-11771101D01*
X7983750Y-11771101D01*
X8107559Y-11637768D02*
X8183750Y-11637768D01*
X8136131Y-11571101D02*
X8136131Y-11742530D01*
X8145655Y-11761577D01*
X8164702Y-11771101D01*
X8183750Y-11771101D01*
X8402798Y-11637768D02*
X8402798Y-11837768D01*
X8402798Y-11647292D02*
X8421845Y-11637768D01*
X8459940Y-11637768D01*
X8478988Y-11647292D01*
X8488512Y-11656815D01*
X8498036Y-11675863D01*
X8498036Y-11733006D01*
X8488512Y-11752053D01*
X8478988Y-11761577D01*
X8459940Y-11771101D01*
X8421845Y-11771101D01*
X8402798Y-11761577D01*
X8612321Y-11771101D02*
X8593274Y-11761577D01*
X8583750Y-11742530D01*
X8583750Y-11571101D01*
X8774226Y-11771101D02*
X8774226Y-11666339D01*
X8764702Y-11647292D01*
X8745655Y-11637768D01*
X8707560Y-11637768D01*
X8688512Y-11647292D01*
X8774226Y-11761577D02*
X8755179Y-11771101D01*
X8707560Y-11771101D01*
X8688512Y-11761577D01*
X8678988Y-11742530D01*
X8678988Y-11723482D01*
X8688512Y-11704434D01*
X8707560Y-11694911D01*
X8755179Y-11694911D01*
X8774226Y-11685387D01*
X8840893Y-11637768D02*
X8917083Y-11637768D01*
X8869464Y-11571101D02*
X8869464Y-11742530D01*
X8878988Y-11761577D01*
X8898036Y-11771101D01*
X8917083Y-11771101D01*
X9059940Y-11761577D02*
X9040893Y-11771101D01*
X9002798Y-11771101D01*
X8983750Y-11761577D01*
X8974226Y-11742530D01*
X8974226Y-11666339D01*
X8983750Y-11647292D01*
X9002798Y-11637768D01*
X9040893Y-11637768D01*
X9059940Y-11647292D01*
X9069464Y-11666339D01*
X9069464Y-11685387D01*
X8974226Y-11704434D01*
X9240893Y-11771101D02*
X9240893Y-11571101D01*
X9240893Y-11761577D02*
X9221845Y-11771101D01*
X9183750Y-11771101D01*
X9164702Y-11761577D01*
X9155179Y-11752053D01*
X9145655Y-11733006D01*
X9145655Y-11675863D01*
X9155179Y-11656815D01*
X9164702Y-11647292D01*
X9183750Y-11637768D01*
X9221845Y-11637768D01*
X9240893Y-11647292D01*
X9317083Y-11847292D02*
X9326607Y-11837768D01*
X9345655Y-11809196D01*
X9355179Y-11790149D01*
X9364702Y-11761577D01*
X9374226Y-11713958D01*
X9374226Y-11675863D01*
X9364702Y-11628244D01*
X9355179Y-11599673D01*
X9345655Y-11580625D01*
X9326607Y-11552053D01*
X9317083Y-11542530D01*
X2373750Y-11975625D02*
G75*
G03*
X2373750Y-11975625I-100000J0D01*
G01*
X2612321Y-11866101D02*
X2736131Y-11866101D01*
X2669464Y-11942292D01*
X2698036Y-11942292D01*
X2717083Y-11951815D01*
X2726607Y-11961339D01*
X2736131Y-11980387D01*
X2736131Y-12028006D01*
X2726607Y-12047053D01*
X2717083Y-12056577D01*
X2698036Y-12066101D01*
X2640893Y-12066101D01*
X2621845Y-12056577D01*
X2612321Y-12047053D01*
X2821845Y-12047053D02*
X2831369Y-12056577D01*
X2821845Y-12066101D01*
X2812321Y-12056577D01*
X2821845Y-12047053D01*
X2821845Y-12066101D01*
X2926607Y-12066101D02*
X2964702Y-12066101D01*
X2983750Y-12056577D01*
X2993274Y-12047053D01*
X3012321Y-12018482D01*
X3021845Y-11980387D01*
X3021845Y-11904196D01*
X3012321Y-11885149D01*
X3002798Y-11875625D01*
X2983750Y-11866101D01*
X2945655Y-11866101D01*
X2926607Y-11875625D01*
X2917083Y-11885149D01*
X2907559Y-11904196D01*
X2907559Y-11951815D01*
X2917083Y-11970863D01*
X2926607Y-11980387D01*
X2945655Y-11989911D01*
X2983750Y-11989911D01*
X3002798Y-11980387D01*
X3012321Y-11970863D01*
X3021845Y-11951815D01*
X3136131Y-11951815D02*
X3117083Y-11942292D01*
X3107559Y-11932768D01*
X3098036Y-11913720D01*
X3098036Y-11904196D01*
X3107559Y-11885149D01*
X3117083Y-11875625D01*
X3136131Y-11866101D01*
X3174226Y-11866101D01*
X3193274Y-11875625D01*
X3202798Y-11885149D01*
X3212321Y-11904196D01*
X3212321Y-11913720D01*
X3202798Y-11932768D01*
X3193274Y-11942292D01*
X3174226Y-11951815D01*
X3136131Y-11951815D01*
X3117083Y-11961339D01*
X3107559Y-11970863D01*
X3098036Y-11989911D01*
X3098036Y-12028006D01*
X3107559Y-12047053D01*
X3117083Y-12056577D01*
X3136131Y-12066101D01*
X3174226Y-12066101D01*
X3193274Y-12056577D01*
X3202798Y-12047053D01*
X3212321Y-12028006D01*
X3212321Y-11989911D01*
X3202798Y-11970863D01*
X3193274Y-11961339D01*
X3174226Y-11951815D01*
X3326607Y-11951815D02*
X3307559Y-11942292D01*
X3298036Y-11932768D01*
X3288512Y-11913720D01*
X3288512Y-11904196D01*
X3298036Y-11885149D01*
X3307559Y-11875625D01*
X3326607Y-11866101D01*
X3364702Y-11866101D01*
X3383750Y-11875625D01*
X3393274Y-11885149D01*
X3402798Y-11904196D01*
X3402798Y-11913720D01*
X3393274Y-11932768D01*
X3383750Y-11942292D01*
X3364702Y-11951815D01*
X3326607Y-11951815D01*
X3307559Y-11961339D01*
X3298036Y-11970863D01*
X3288512Y-11989911D01*
X3288512Y-12028006D01*
X3298036Y-12047053D01*
X3307559Y-12056577D01*
X3326607Y-12066101D01*
X3364702Y-12066101D01*
X3383750Y-12056577D01*
X3393274Y-12047053D01*
X3402798Y-12028006D01*
X3402798Y-11989911D01*
X3393274Y-11970863D01*
X3383750Y-11961339D01*
X3364702Y-11951815D01*
X3488512Y-12066101D02*
X3488512Y-11932768D01*
X3488512Y-11951815D02*
X3498036Y-11942292D01*
X3517083Y-11932768D01*
X3545655Y-11932768D01*
X3564702Y-11942292D01*
X3574226Y-11961339D01*
X3574226Y-12066101D01*
X3574226Y-11961339D02*
X3583750Y-11942292D01*
X3602798Y-11932768D01*
X3631369Y-11932768D01*
X3650417Y-11942292D01*
X3659940Y-11961339D01*
X3659940Y-12066101D01*
X3755178Y-12066101D02*
X3755178Y-11932768D01*
X3755178Y-11951815D02*
X3764702Y-11942292D01*
X3783750Y-11932768D01*
X3812321Y-11932768D01*
X3831369Y-11942292D01*
X3840893Y-11961339D01*
X3840893Y-12066101D01*
X3840893Y-11961339D02*
X3850417Y-11942292D01*
X3869464Y-11932768D01*
X3898036Y-11932768D01*
X3917083Y-11942292D01*
X3926607Y-11961339D01*
X3926607Y-12066101D01*
X4317083Y-11856577D02*
X4145655Y-12113720D01*
X4574226Y-11866101D02*
X4593274Y-11866101D01*
X4612321Y-11875625D01*
X4621845Y-11885149D01*
X4631369Y-11904196D01*
X4640893Y-11942292D01*
X4640893Y-11989911D01*
X4631369Y-12028006D01*
X4621845Y-12047053D01*
X4612321Y-12056577D01*
X4593274Y-12066101D01*
X4574226Y-12066101D01*
X4555179Y-12056577D01*
X4545655Y-12047053D01*
X4536131Y-12028006D01*
X4526607Y-11989911D01*
X4526607Y-11942292D01*
X4536131Y-11904196D01*
X4545655Y-11885149D01*
X4555179Y-11875625D01*
X4574226Y-11866101D01*
X4726607Y-12047053D02*
X4736131Y-12056577D01*
X4726607Y-12066101D01*
X4717083Y-12056577D01*
X4726607Y-12047053D01*
X4726607Y-12066101D01*
X4926607Y-12066101D02*
X4812321Y-12066101D01*
X4869464Y-12066101D02*
X4869464Y-11866101D01*
X4850417Y-11894673D01*
X4831369Y-11913720D01*
X4812321Y-11923244D01*
X5107560Y-11866101D02*
X5012321Y-11866101D01*
X5002798Y-11961339D01*
X5012321Y-11951815D01*
X5031369Y-11942292D01*
X5078988Y-11942292D01*
X5098036Y-11951815D01*
X5107560Y-11961339D01*
X5117083Y-11980387D01*
X5117083Y-12028006D01*
X5107560Y-12047053D01*
X5098036Y-12056577D01*
X5078988Y-12066101D01*
X5031369Y-12066101D01*
X5012321Y-12056577D01*
X5002798Y-12047053D01*
X5183750Y-11866101D02*
X5317083Y-11866101D01*
X5231369Y-12066101D01*
X5431369Y-11866101D02*
X5450417Y-11866101D01*
X5469464Y-11875625D01*
X5478988Y-11885149D01*
X5488512Y-11904196D01*
X5498036Y-11942292D01*
X5498036Y-11989911D01*
X5488512Y-12028006D01*
X5478988Y-12047053D01*
X5469464Y-12056577D01*
X5450417Y-12066101D01*
X5431369Y-12066101D01*
X5412321Y-12056577D01*
X5402798Y-12047053D01*
X5393274Y-12028006D01*
X5383750Y-11989911D01*
X5383750Y-11942292D01*
X5393274Y-11904196D01*
X5402798Y-11885149D01*
X5412321Y-11875625D01*
X5431369Y-11866101D01*
X5574226Y-11866101D02*
X5574226Y-11904196D01*
X5650417Y-11866101D02*
X5650417Y-11904196D01*
X5945655Y-12142292D02*
X5936131Y-12132768D01*
X5917083Y-12104196D01*
X5907559Y-12085149D01*
X5898036Y-12056577D01*
X5888512Y-12008958D01*
X5888512Y-11970863D01*
X5898036Y-11923244D01*
X5907559Y-11894673D01*
X5917083Y-11875625D01*
X5936131Y-11847053D01*
X5945655Y-11837530D01*
X6012321Y-11885149D02*
X6021845Y-11875625D01*
X6040893Y-11866101D01*
X6088512Y-11866101D01*
X6107559Y-11875625D01*
X6117083Y-11885149D01*
X6126607Y-11904196D01*
X6126607Y-11923244D01*
X6117083Y-11951815D01*
X6002798Y-12066101D01*
X6126607Y-12066101D01*
X6250417Y-11866101D02*
X6269464Y-11866101D01*
X6288512Y-11875625D01*
X6298036Y-11885149D01*
X6307559Y-11904196D01*
X6317083Y-11942292D01*
X6317083Y-11989911D01*
X6307559Y-12028006D01*
X6298036Y-12047053D01*
X6288512Y-12056577D01*
X6269464Y-12066101D01*
X6250417Y-12066101D01*
X6231369Y-12056577D01*
X6221845Y-12047053D01*
X6212321Y-12028006D01*
X6202798Y-11989911D01*
X6202798Y-11942292D01*
X6212321Y-11904196D01*
X6221845Y-11885149D01*
X6231369Y-11875625D01*
X6250417Y-11866101D01*
X6555178Y-12066101D02*
X6555178Y-11866101D01*
X6640893Y-12066101D02*
X6640893Y-11961339D01*
X6631369Y-11942292D01*
X6612321Y-11932768D01*
X6583750Y-11932768D01*
X6564702Y-11942292D01*
X6555178Y-11951815D01*
X6764702Y-12066101D02*
X6745655Y-12056577D01*
X6736131Y-12047053D01*
X6726607Y-12028006D01*
X6726607Y-11970863D01*
X6736131Y-11951815D01*
X6745655Y-11942292D01*
X6764702Y-11932768D01*
X6793274Y-11932768D01*
X6812321Y-11942292D01*
X6821845Y-11951815D01*
X6831369Y-11970863D01*
X6831369Y-12028006D01*
X6821845Y-12047053D01*
X6812321Y-12056577D01*
X6793274Y-12066101D01*
X6764702Y-12066101D01*
X6945655Y-12066101D02*
X6926607Y-12056577D01*
X6917083Y-12037530D01*
X6917083Y-11866101D01*
X7098036Y-12056577D02*
X7078988Y-12066101D01*
X7040893Y-12066101D01*
X7021845Y-12056577D01*
X7012321Y-12037530D01*
X7012321Y-11961339D01*
X7021845Y-11942292D01*
X7040893Y-11932768D01*
X7078988Y-11932768D01*
X7098036Y-11942292D01*
X7107559Y-11961339D01*
X7107559Y-11980387D01*
X7012321Y-11999434D01*
X7183750Y-12056577D02*
X7202798Y-12066101D01*
X7240893Y-12066101D01*
X7259940Y-12056577D01*
X7269464Y-12037530D01*
X7269464Y-12028006D01*
X7259940Y-12008958D01*
X7240893Y-11999434D01*
X7212321Y-11999434D01*
X7193274Y-11989911D01*
X7183750Y-11970863D01*
X7183750Y-11961339D01*
X7193274Y-11942292D01*
X7212321Y-11932768D01*
X7240893Y-11932768D01*
X7259940Y-11942292D01*
X7336131Y-12142292D02*
X7345655Y-12132768D01*
X7364702Y-12104196D01*
X7374226Y-12085149D01*
X7383750Y-12056577D01*
X7393274Y-12008958D01*
X7393274Y-11970863D01*
X7383750Y-11923244D01*
X7374226Y-11894673D01*
X7364702Y-11875625D01*
X7345655Y-11847053D01*
X7336131Y-11837530D01*
X7698036Y-12142292D02*
X7688512Y-12132768D01*
X7669464Y-12104196D01*
X7659940Y-12085149D01*
X7650417Y-12056577D01*
X7640893Y-12008958D01*
X7640893Y-11970863D01*
X7650417Y-11923244D01*
X7659940Y-11894673D01*
X7669464Y-11875625D01*
X7688512Y-11847053D01*
X7698036Y-11837530D01*
X7774226Y-11932768D02*
X7774226Y-12066101D01*
X7774226Y-11951815D02*
X7783750Y-11942292D01*
X7802798Y-11932768D01*
X7831369Y-11932768D01*
X7850417Y-11942292D01*
X7859940Y-11961339D01*
X7859940Y-12066101D01*
X7983750Y-12066101D02*
X7964702Y-12056577D01*
X7955178Y-12047053D01*
X7945655Y-12028006D01*
X7945655Y-11970863D01*
X7955178Y-11951815D01*
X7964702Y-11942292D01*
X7983750Y-11932768D01*
X8012321Y-11932768D01*
X8031369Y-11942292D01*
X8040893Y-11951815D01*
X8050417Y-11970863D01*
X8050417Y-12028006D01*
X8040893Y-12047053D01*
X8031369Y-12056577D01*
X8012321Y-12066101D01*
X7983750Y-12066101D01*
X8107559Y-11932768D02*
X8183750Y-11932768D01*
X8136131Y-11866101D02*
X8136131Y-12037530D01*
X8145655Y-12056577D01*
X8164702Y-12066101D01*
X8183750Y-12066101D01*
X8402798Y-11932768D02*
X8402798Y-12132768D01*
X8402798Y-11942292D02*
X8421845Y-11932768D01*
X8459940Y-11932768D01*
X8478988Y-11942292D01*
X8488512Y-11951815D01*
X8498036Y-11970863D01*
X8498036Y-12028006D01*
X8488512Y-12047053D01*
X8478988Y-12056577D01*
X8459940Y-12066101D01*
X8421845Y-12066101D01*
X8402798Y-12056577D01*
X8612321Y-12066101D02*
X8593274Y-12056577D01*
X8583750Y-12037530D01*
X8583750Y-11866101D01*
X8774226Y-12066101D02*
X8774226Y-11961339D01*
X8764702Y-11942292D01*
X8745655Y-11932768D01*
X8707560Y-11932768D01*
X8688512Y-11942292D01*
X8774226Y-12056577D02*
X8755179Y-12066101D01*
X8707560Y-12066101D01*
X8688512Y-12056577D01*
X8678988Y-12037530D01*
X8678988Y-12018482D01*
X8688512Y-11999434D01*
X8707560Y-11989911D01*
X8755179Y-11989911D01*
X8774226Y-11980387D01*
X8840893Y-11932768D02*
X8917083Y-11932768D01*
X8869464Y-11866101D02*
X8869464Y-12037530D01*
X8878988Y-12056577D01*
X8898036Y-12066101D01*
X8917083Y-12066101D01*
X9059940Y-12056577D02*
X9040893Y-12066101D01*
X9002798Y-12066101D01*
X8983750Y-12056577D01*
X8974226Y-12037530D01*
X8974226Y-11961339D01*
X8983750Y-11942292D01*
X9002798Y-11932768D01*
X9040893Y-11932768D01*
X9059940Y-11942292D01*
X9069464Y-11961339D01*
X9069464Y-11980387D01*
X8974226Y-11999434D01*
X9240893Y-12066101D02*
X9240893Y-11866101D01*
X9240893Y-12056577D02*
X9221845Y-12066101D01*
X9183750Y-12066101D01*
X9164702Y-12056577D01*
X9155179Y-12047053D01*
X9145655Y-12028006D01*
X9145655Y-11970863D01*
X9155179Y-11951815D01*
X9164702Y-11942292D01*
X9183750Y-11932768D01*
X9221845Y-11932768D01*
X9240893Y-11942292D01*
X9317083Y-12142292D02*
X9326607Y-12132768D01*
X9345655Y-12104196D01*
X9355179Y-12085149D01*
X9364702Y-12056577D01*
X9374226Y-12008958D01*
X9374226Y-11970863D01*
X9364702Y-11923244D01*
X9355179Y-11894673D01*
X9345655Y-11875625D01*
X9326607Y-11847053D01*
X9317083Y-11837530D01*
M02*
