M48
; DRILL file {KiCad (6.0.9)} date Sun Apr  2 22:42:09 2023
; FORMAT={-:-/ absolute / metric / decimal}
; #@! TF.CreationDate,2023-04-02T22:42:09-05:00
; #@! TF.GenerationSoftware,Kicad,Pcbnew,(6.0.9)
; #@! TF.FileFunction,NonPlated,1,2,NPTH
FMAT,2
METRIC
; #@! TA.AperFunction,NonPlated,NPTH,ComponentDrill
T1C1.750
; #@! TA.AperFunction,NonPlated,NPTH,ComponentDrill
T2C3.988
%
G90
G05
T1
X44.926Y-24.606
X44.926Y-43.656
X44.926Y-62.706
X44.926Y-81.756
X44.926Y-100.806
X55.086Y-24.606
X55.086Y-43.656
X55.086Y-62.706
X55.086Y-81.756
X55.086Y-100.806
X63.976Y-24.606
X63.976Y-43.656
X63.976Y-62.706
X63.976Y-81.756
X63.976Y-100.806
X74.136Y-24.606
X74.136Y-43.656
X74.136Y-62.706
X74.136Y-81.756
X74.136Y-100.806
X83.026Y-24.606
X83.026Y-43.656
X83.026Y-62.706
X83.026Y-81.756
X83.026Y-100.806
X93.186Y-24.606
X93.186Y-43.656
X93.186Y-62.706
X93.186Y-81.756
X93.186Y-100.806
X102.076Y-24.606
X102.076Y-43.656
X102.076Y-62.706
X102.076Y-81.756
X102.076Y-100.806
X112.236Y-24.606
X112.236Y-43.656
X112.236Y-62.706
X112.236Y-81.756
X112.236Y-100.806
T2
X50.006Y-24.606
X50.006Y-43.656
X50.006Y-62.706
X50.006Y-81.756
X50.006Y-100.806
X69.056Y-24.606
X69.056Y-43.656
X69.056Y-62.706
X69.056Y-81.756
X69.056Y-100.806
X88.106Y-24.606
X88.106Y-43.656
X88.106Y-62.706
X88.106Y-81.756
X88.106Y-100.806
X107.156Y-24.606
X107.156Y-43.656
X107.156Y-62.706
X107.156Y-81.756
X107.156Y-100.806
T0
M30
