G04 #@! TF.GenerationSoftware,KiCad,Pcbnew,(6.0.9)*
G04 #@! TF.CreationDate,2023-04-02T22:42:07-05:00*
G04 #@! TF.ProjectId,Number Pad,4e756d62-6572-4205-9061-642e6b696361,rev?*
G04 #@! TF.SameCoordinates,Original*
G04 #@! TF.FileFunction,Paste,Top*
G04 #@! TF.FilePolarity,Positive*
%FSLAX46Y46*%
G04 Gerber Fmt 4.6, Leading zero omitted, Abs format (unit mm)*
G04 Created by KiCad (PCBNEW (6.0.9)) date 2023-04-02 22:42:07*
%MOMM*%
%LPD*%
G01*
G04 APERTURE LIST*
%ADD10R,1.200000X0.900000*%
G04 APERTURE END LIST*
D10*
X76993750Y-26256250D03*
X76993750Y-22956250D03*
X115093750Y-102456250D03*
X115093750Y-99156250D03*
X76993750Y-64356250D03*
X76993750Y-61056250D03*
X57943750Y-64356250D03*
X57943750Y-61056250D03*
X57943750Y-83406250D03*
X57943750Y-80106250D03*
X96043750Y-102456250D03*
X96043750Y-99156250D03*
X115093750Y-26256250D03*
X115093750Y-22956250D03*
X115093750Y-83406250D03*
X115093750Y-80106250D03*
X115093750Y-45306250D03*
X115093750Y-42006250D03*
X76993750Y-102456250D03*
X76993750Y-99156250D03*
X115093750Y-64356250D03*
X115093750Y-61056250D03*
X96043750Y-83406250D03*
X96043750Y-80106250D03*
X96043750Y-64356250D03*
X96043750Y-61056250D03*
X76993750Y-83406250D03*
X76993750Y-80106250D03*
X57943750Y-102456250D03*
X57943750Y-99156250D03*
X96043750Y-45306250D03*
X96043750Y-42006250D03*
X57943750Y-26256250D03*
X57943750Y-22956250D03*
X57943750Y-45306250D03*
X57943750Y-42006250D03*
X96043750Y-26256250D03*
X96043750Y-22956250D03*
X76993750Y-45306250D03*
X76993750Y-42006250D03*
M02*
