%TF.GenerationSoftware,KiCad,Pcbnew,(6.0.9)*%
%TF.CreationDate,2022-12-29T20:33:01-06:00*%
%TF.ProjectId,Number Pad,4e756d62-6572-4205-9061-642e6b696361,rev?*%
%TF.SameCoordinates,Original*%
%TF.FileFunction,Drillmap*%
%TF.FilePolarity,Positive*%
%FSLAX45Y45*%
G04 Gerber Fmt 4.5, Leading zero omitted, Abs format (unit mm)*
G04 Created by KiCad (PCBNEW (6.0.9)) date 2022-12-29 20:33:01*
%MOMM*%
%LPD*%
G01*
G04 APERTURE LIST*
%ADD10C,0.150000*%
%ADD11C,0.200000*%
%ADD12C,0.040000*%
%ADD13C,0.147000*%
G04 APERTURE END LIST*
D10*
X12382495Y-1746250D02*
G75*
G03*
X12144375Y-1508125I-238125J0D01*
G01*
X3333750Y-1508125D02*
X12144375Y-1508125D01*
X3333750Y-1508125D02*
G75*
G03*
X3095625Y-1746250I0J-238125D01*
G01*
X3095625Y-10795000D02*
G75*
G03*
X3333750Y-11033125I238125J0D01*
G01*
X12382500Y-1746250D02*
X12382500Y-10795000D01*
X3333750Y-11033125D02*
X12144375Y-11033125D01*
X12144375Y-11033130D02*
G75*
G03*
X12382500Y-10795000I-5J238130D01*
G01*
X3095625Y-1746250D02*
X3095625Y-10795000D01*
D11*
D12*
X3278800Y-7673875D02*
X3318800Y-7713875D01*
X3318800Y-7673875D02*
X3278800Y-7713875D01*
X3409000Y-5606100D02*
X3449000Y-5646100D01*
X3449000Y-5606100D02*
X3409000Y-5646100D01*
X3421700Y-7498400D02*
X3461700Y-7538400D01*
X3461700Y-7498400D02*
X3421700Y-7538400D01*
X3510600Y-7685150D02*
X3550600Y-7725150D01*
X3550600Y-7685150D02*
X3510600Y-7725150D01*
X3574100Y-5695000D02*
X3614100Y-5735000D01*
X3614100Y-5695000D02*
X3574100Y-5735000D01*
X3596300Y-5362475D02*
X3636300Y-5402475D01*
X3636300Y-5362475D02*
X3596300Y-5402475D01*
X3614675Y-7198300D02*
X3654675Y-7238300D01*
X3654675Y-7198300D02*
X3614675Y-7238300D01*
X3755600Y-5851200D02*
X3795600Y-5891200D01*
X3795600Y-5851200D02*
X3755600Y-5891200D01*
X3828100Y-7079300D02*
X3868100Y-7119300D01*
X3868100Y-7079300D02*
X3828100Y-7119300D01*
X3844550Y-5928175D02*
X3884550Y-5968175D01*
X3884550Y-5928175D02*
X3844550Y-5968175D01*
X3917000Y-6973075D02*
X3957000Y-7013075D01*
X3957000Y-6973075D02*
X3917000Y-7013075D01*
X3940900Y-5809300D02*
X3980900Y-5849300D01*
X3980900Y-5809300D02*
X3940900Y-5849300D01*
X4005900Y-6888800D02*
X4045900Y-6928800D01*
X4045900Y-6888800D02*
X4005900Y-6928800D01*
X4013350Y-5928175D02*
X4053350Y-5968175D01*
X4053350Y-5928175D02*
X4013350Y-5968175D01*
X4082100Y-6787200D02*
X4122100Y-6827200D01*
X4122100Y-6787200D02*
X4082100Y-6827200D01*
X4111250Y-5834700D02*
X4151250Y-5874700D01*
X4151250Y-5834700D02*
X4111250Y-5874700D01*
X4158300Y-6698300D02*
X4198300Y-6738300D01*
X4198300Y-6698300D02*
X4158300Y-6738300D01*
X4183700Y-5923600D02*
X4223700Y-5963600D01*
X4223700Y-5923600D02*
X4183700Y-5963600D01*
X4234500Y-8527100D02*
X4274500Y-8567100D01*
X4274500Y-8527100D02*
X4234500Y-8567100D01*
X4250950Y-4602800D02*
X4290950Y-4642800D01*
X4290950Y-4602800D02*
X4250950Y-4642800D01*
X4259900Y-6025200D02*
X4299900Y-6065200D01*
X4299900Y-6025200D02*
X4259900Y-6065200D01*
X4345625Y-6131250D02*
X4385625Y-6171250D01*
X4385625Y-6131250D02*
X4345625Y-6171250D01*
X4425000Y-6901500D02*
X4465000Y-6941500D01*
X4465000Y-6901500D02*
X4425000Y-6941500D01*
X4437700Y-5220796D02*
X4477700Y-5260796D01*
X4477700Y-5220796D02*
X4437700Y-5260796D01*
X4444480Y-6405770D02*
X4484480Y-6445770D01*
X4484480Y-6405770D02*
X4444480Y-6445770D01*
X4450155Y-5368550D02*
X4490155Y-5408550D01*
X4490155Y-5368550D02*
X4450155Y-5408550D01*
X4451527Y-5516073D02*
X4491527Y-5556073D01*
X4491527Y-5516073D02*
X4451527Y-5556073D01*
X4488500Y-2850200D02*
X4528500Y-2890200D01*
X4528500Y-2850200D02*
X4488500Y-2890200D01*
X4501200Y-6799900D02*
X4541200Y-6839900D01*
X4541200Y-6799900D02*
X4501200Y-6839900D01*
X4513900Y-6990400D02*
X4553900Y-7030400D01*
X4553900Y-6990400D02*
X4513900Y-7030400D01*
X4526600Y-5293246D02*
X4566600Y-5333246D01*
X4566600Y-5293246D02*
X4526600Y-5333246D01*
X4526600Y-5593400D02*
X4566600Y-5633400D01*
X4566600Y-5593400D02*
X4526600Y-5633400D01*
X4527175Y-5441000D02*
X4567175Y-5481000D01*
X4567175Y-5441000D02*
X4527175Y-5481000D01*
X4672075Y-5288600D02*
X4712075Y-5328600D01*
X4712075Y-5288600D02*
X4672075Y-5328600D01*
X4677882Y-5439675D02*
X4717882Y-5479675D01*
X4717882Y-5439675D02*
X4677882Y-5479675D01*
X4679000Y-5593400D02*
X4719000Y-5633400D01*
X4719000Y-5593400D02*
X4679000Y-5633400D01*
X4679000Y-6990400D02*
X4719000Y-7030400D01*
X4719000Y-6990400D02*
X4679000Y-7030400D01*
X4691700Y-4602800D02*
X4731700Y-4642800D01*
X4731700Y-4602800D02*
X4691700Y-4642800D01*
X4717100Y-2850200D02*
X4757100Y-2890200D01*
X4757100Y-2850200D02*
X4717100Y-2890200D01*
X4729800Y-8539800D02*
X4769800Y-8579800D01*
X4769800Y-8539800D02*
X4729800Y-8579800D01*
X4742329Y-5516073D02*
X4782329Y-5556073D01*
X4782329Y-5516073D02*
X4742329Y-5556073D01*
X4742500Y-6409375D02*
X4782500Y-6449375D01*
X4782500Y-6409375D02*
X4742500Y-6449375D01*
X4742500Y-6568125D02*
X4782500Y-6608125D01*
X4782500Y-6568125D02*
X4742500Y-6608125D01*
X4742500Y-6668075D02*
X4782500Y-6708075D01*
X4782500Y-6668075D02*
X4742500Y-6708075D01*
X4745093Y-5365696D02*
X4785093Y-5405696D01*
X4785093Y-5365696D02*
X4745093Y-5405696D01*
X4767900Y-5216150D02*
X4807900Y-5256150D01*
X4807900Y-5216150D02*
X4767900Y-5256150D01*
X4767900Y-6901500D02*
X4807900Y-6941500D01*
X4807900Y-6901500D02*
X4767900Y-6941500D01*
X4767900Y-7079300D02*
X4807900Y-7119300D01*
X4807900Y-7079300D02*
X4767900Y-7119300D01*
X4856800Y-6825300D02*
X4896800Y-6865300D01*
X4896800Y-6825300D02*
X4856800Y-6865300D01*
X5263200Y-6393500D02*
X5303200Y-6433500D01*
X5303200Y-6393500D02*
X5263200Y-6433500D01*
X5536250Y-6488750D02*
X5576250Y-6528750D01*
X5576250Y-6488750D02*
X5536250Y-6528750D01*
X5695000Y-6568125D02*
X5735000Y-6608125D01*
X5735000Y-6568125D02*
X5695000Y-6608125D01*
X5933125Y-6488750D02*
X5973125Y-6528750D01*
X5973125Y-6488750D02*
X5933125Y-6528750D01*
X6012500Y-6568125D02*
X6052500Y-6608125D01*
X6052500Y-6568125D02*
X6012500Y-6608125D01*
X6250625Y-6568125D02*
X6290625Y-6608125D01*
X6290625Y-6568125D02*
X6250625Y-6608125D01*
X6330000Y-2837500D02*
X6370000Y-2877500D01*
X6370000Y-2837500D02*
X6330000Y-2877500D01*
X6330000Y-4742500D02*
X6370000Y-4782500D01*
X6370000Y-4742500D02*
X6330000Y-4782500D01*
X6330000Y-5216150D02*
X6370000Y-5256150D01*
X6370000Y-5216150D02*
X6330000Y-5256150D01*
X6330000Y-6647500D02*
X6370000Y-6687500D01*
X6370000Y-6647500D02*
X6330000Y-6687500D01*
X6330000Y-6825300D02*
X6370000Y-6865300D01*
X6370000Y-6825300D02*
X6330000Y-6865300D01*
X6330000Y-8552500D02*
X6370000Y-8592500D01*
X6370000Y-8552500D02*
X6330000Y-8592500D01*
X6342700Y-5368550D02*
X6382700Y-5408550D01*
X6382700Y-5368550D02*
X6342700Y-5408550D01*
X6342700Y-5517200D02*
X6382700Y-5557200D01*
X6382700Y-5517200D02*
X6342700Y-5557200D01*
X6368100Y-7079300D02*
X6408100Y-7119300D01*
X6408100Y-7079300D02*
X6368100Y-7119300D01*
X6393500Y-6914200D02*
X6433500Y-6954200D01*
X6433500Y-6914200D02*
X6393500Y-6954200D01*
X6409375Y-6488750D02*
X6449375Y-6528750D01*
X6449375Y-6488750D02*
X6409375Y-6528750D01*
X6431600Y-4831400D02*
X6471600Y-4871400D01*
X6471600Y-4831400D02*
X6431600Y-4871400D01*
X6431600Y-5292350D02*
X6471600Y-5332350D01*
X6471600Y-5292350D02*
X6431600Y-5332350D01*
X6431600Y-5441000D02*
X6471600Y-5481000D01*
X6471600Y-5441000D02*
X6431600Y-5481000D01*
X6432175Y-5593400D02*
X6472175Y-5633400D01*
X6472175Y-5593400D02*
X6432175Y-5633400D01*
X6432175Y-6736400D02*
X6472175Y-6776400D01*
X6472175Y-6736400D02*
X6432175Y-6776400D01*
X6577075Y-5441000D02*
X6617075Y-5481000D01*
X6617075Y-5441000D02*
X6577075Y-5481000D01*
X6577075Y-5593400D02*
X6617075Y-5633400D01*
X6617075Y-5593400D02*
X6577075Y-5633400D01*
X6577075Y-6488750D02*
X6617075Y-6528750D01*
X6617075Y-6488750D02*
X6577075Y-6528750D01*
X6584000Y-4831400D02*
X6624000Y-4871400D01*
X6624000Y-4831400D02*
X6584000Y-4871400D01*
X6584000Y-6914200D02*
X6624000Y-6954200D01*
X6624000Y-6914200D02*
X6584000Y-6954200D01*
X6585062Y-5286752D02*
X6625062Y-5326752D01*
X6625062Y-5286752D02*
X6585062Y-5326752D01*
X6622100Y-7092000D02*
X6662100Y-7132000D01*
X6662100Y-7092000D02*
X6622100Y-7132000D01*
X6647500Y-2837500D02*
X6687500Y-2877500D01*
X6687500Y-2837500D02*
X6647500Y-2877500D01*
X6647500Y-4742500D02*
X6687500Y-4782500D01*
X6687500Y-4742500D02*
X6647500Y-4782500D01*
X6647500Y-5364800D02*
X6687500Y-5404800D01*
X6687500Y-5364800D02*
X6647500Y-5404800D01*
X6647500Y-6647500D02*
X6687500Y-6687500D01*
X6687500Y-6647500D02*
X6647500Y-6687500D01*
X6647500Y-8552500D02*
X6687500Y-8592500D01*
X6687500Y-8552500D02*
X6647500Y-8592500D01*
X6660200Y-5517200D02*
X6700200Y-5557200D01*
X6700200Y-5517200D02*
X6660200Y-5557200D01*
X6660200Y-6825300D02*
X6700200Y-6865300D01*
X6700200Y-6825300D02*
X6660200Y-6865300D01*
X6672900Y-5212400D02*
X6712900Y-5252400D01*
X6712900Y-5212400D02*
X6672900Y-5252400D01*
X6711487Y-6724284D02*
X6751487Y-6764284D01*
X6751487Y-6724284D02*
X6711487Y-6764284D01*
X6726875Y-6568125D02*
X6766875Y-6608125D01*
X6766875Y-6568125D02*
X6726875Y-6608125D01*
X7440625Y-6575050D02*
X7480625Y-6615050D01*
X7480625Y-6575050D02*
X7440625Y-6615050D01*
X7520625Y-6488750D02*
X7560625Y-6528750D01*
X7560625Y-6488750D02*
X7520625Y-6528750D01*
X7838125Y-6488750D02*
X7878125Y-6528750D01*
X7878125Y-6488750D02*
X7838125Y-6528750D01*
X7917500Y-6568125D02*
X7957500Y-6608125D01*
X7957500Y-6568125D02*
X7917500Y-6608125D01*
X8155625Y-6568125D02*
X8195625Y-6608125D01*
X8195625Y-6568125D02*
X8155625Y-6608125D01*
X8158800Y-6723700D02*
X8198800Y-6763700D01*
X8198800Y-6723700D02*
X8158800Y-6763700D01*
X8222300Y-4907600D02*
X8262300Y-4947600D01*
X8262300Y-4907600D02*
X8222300Y-4947600D01*
X8235000Y-2837500D02*
X8275000Y-2877500D01*
X8275000Y-2837500D02*
X8235000Y-2877500D01*
X8235000Y-4742500D02*
X8275000Y-4782500D01*
X8275000Y-4742500D02*
X8235000Y-4782500D01*
X8235000Y-6647500D02*
X8275000Y-6687500D01*
X8275000Y-6647500D02*
X8235000Y-6687500D01*
X8235000Y-8552500D02*
X8275000Y-8592500D01*
X8275000Y-8552500D02*
X8235000Y-8592500D01*
X8247700Y-5517200D02*
X8287700Y-5557200D01*
X8287700Y-5517200D02*
X8247700Y-5557200D01*
X8250866Y-5364800D02*
X8290866Y-5404800D01*
X8290866Y-5364800D02*
X8250866Y-5404800D01*
X8260400Y-5212400D02*
X8300400Y-5252400D01*
X8300400Y-5212400D02*
X8260400Y-5252400D01*
X8298500Y-7092000D02*
X8338500Y-7132000D01*
X8338500Y-7092000D02*
X8298500Y-7132000D01*
X8314375Y-6488750D02*
X8354375Y-6528750D01*
X8354375Y-6488750D02*
X8314375Y-6528750D01*
X8323900Y-5441000D02*
X8363900Y-5481000D01*
X8363900Y-5441000D02*
X8323900Y-5481000D01*
X8323900Y-6812600D02*
X8363900Y-6852600D01*
X8363900Y-6812600D02*
X8323900Y-6852600D01*
X8336600Y-4831400D02*
X8376600Y-4871400D01*
X8376600Y-4831400D02*
X8336600Y-4871400D01*
X8336600Y-5288600D02*
X8376600Y-5328600D01*
X8376600Y-5288600D02*
X8336600Y-5328600D01*
X8336600Y-5593400D02*
X8376600Y-5633400D01*
X8376600Y-5593400D02*
X8336600Y-5633400D01*
X8482075Y-4831400D02*
X8522075Y-4871400D01*
X8522075Y-4831400D02*
X8482075Y-4871400D01*
X8482075Y-5292350D02*
X8522075Y-5332350D01*
X8522075Y-5292350D02*
X8482075Y-5332350D01*
X8482075Y-6488750D02*
X8522075Y-6528750D01*
X8522075Y-6488750D02*
X8482075Y-6528750D01*
X8489000Y-5593400D02*
X8529000Y-5633400D01*
X8529000Y-5593400D02*
X8489000Y-5633400D01*
X8489835Y-5439144D02*
X8529835Y-5479144D01*
X8529835Y-5439144D02*
X8489835Y-5479144D01*
X8514400Y-6812600D02*
X8554400Y-6852600D01*
X8554400Y-6812600D02*
X8514400Y-6852600D01*
X8539800Y-7092000D02*
X8579800Y-7132000D01*
X8579800Y-7092000D02*
X8539800Y-7132000D01*
X8552500Y-2837500D02*
X8592500Y-2877500D01*
X8592500Y-2837500D02*
X8552500Y-2877500D01*
X8552500Y-4742500D02*
X8592500Y-4782500D01*
X8592500Y-4742500D02*
X8552500Y-4782500D01*
X8552500Y-6647500D02*
X8592500Y-6687500D01*
X8592500Y-6647500D02*
X8552500Y-6687500D01*
X8552500Y-8552500D02*
X8592500Y-8592500D01*
X8592500Y-8552500D02*
X8552500Y-8592500D01*
X8552987Y-5516616D02*
X8592987Y-5556616D01*
X8592987Y-5516616D02*
X8552987Y-5556616D01*
X8565200Y-4907600D02*
X8605200Y-4947600D01*
X8605200Y-4907600D02*
X8565200Y-4947600D01*
X8565200Y-5364800D02*
X8605200Y-5404800D01*
X8605200Y-5364800D02*
X8565200Y-5404800D01*
X8577900Y-5212400D02*
X8617900Y-5252400D01*
X8617900Y-5212400D02*
X8577900Y-5252400D01*
X8628700Y-6719950D02*
X8668700Y-6759950D01*
X8668700Y-6719950D02*
X8628700Y-6759950D01*
X8631875Y-6568125D02*
X8671875Y-6608125D01*
X8671875Y-6568125D02*
X8631875Y-6608125D01*
X9425625Y-6488750D02*
X9465625Y-6528750D01*
X9465625Y-6488750D02*
X9425625Y-6528750D01*
X9505000Y-6568125D02*
X9545000Y-6608125D01*
X9545000Y-6568125D02*
X9505000Y-6608125D01*
X9743125Y-6488750D02*
X9783125Y-6528750D01*
X9783125Y-6488750D02*
X9743125Y-6528750D01*
X9822500Y-6568125D02*
X9862500Y-6608125D01*
X9862500Y-6568125D02*
X9822500Y-6608125D01*
X10051100Y-6723700D02*
X10091100Y-6763700D01*
X10091100Y-6723700D02*
X10051100Y-6763700D01*
X10060625Y-6568125D02*
X10100625Y-6608125D01*
X10100625Y-6568125D02*
X10060625Y-6608125D01*
X10127300Y-4903850D02*
X10167300Y-4943850D01*
X10167300Y-4903850D02*
X10127300Y-4943850D01*
X10140000Y-2837500D02*
X10180000Y-2877500D01*
X10180000Y-2837500D02*
X10140000Y-2877500D01*
X10140000Y-4742500D02*
X10180000Y-4782500D01*
X10180000Y-4742500D02*
X10140000Y-4782500D01*
X10140000Y-5364800D02*
X10180000Y-5404800D01*
X10180000Y-5364800D02*
X10140000Y-5404800D01*
X10140000Y-5517200D02*
X10180000Y-5557200D01*
X10180000Y-5517200D02*
X10140000Y-5557200D01*
X10140000Y-6647500D02*
X10180000Y-6687500D01*
X10180000Y-6647500D02*
X10140000Y-6687500D01*
X10140000Y-8552500D02*
X10180000Y-8592500D01*
X10180000Y-8552500D02*
X10140000Y-8592500D01*
X10152700Y-5219900D02*
X10192700Y-5259900D01*
X10192700Y-5219900D02*
X10152700Y-5259900D01*
X10216200Y-5441000D02*
X10256200Y-5481000D01*
X10256200Y-5441000D02*
X10216200Y-5481000D01*
X10219375Y-6488750D02*
X10259375Y-6528750D01*
X10259375Y-6488750D02*
X10219375Y-6528750D01*
X10228900Y-4983800D02*
X10268900Y-5023800D01*
X10268900Y-4983800D02*
X10228900Y-5023800D01*
X10228900Y-5292350D02*
X10268900Y-5332350D01*
X10268900Y-5292350D02*
X10228900Y-5332350D01*
X10228900Y-5593400D02*
X10268900Y-5633400D01*
X10268900Y-5593400D02*
X10228900Y-5633400D01*
X10228900Y-7092000D02*
X10268900Y-7132000D01*
X10268900Y-7092000D02*
X10228900Y-7132000D01*
X10241600Y-4831400D02*
X10281600Y-4871400D01*
X10281600Y-4831400D02*
X10241600Y-4871400D01*
X10387075Y-4831400D02*
X10427075Y-4871400D01*
X10427075Y-4831400D02*
X10387075Y-4871400D01*
X10387075Y-6488750D02*
X10427075Y-6528750D01*
X10427075Y-6488750D02*
X10387075Y-6528750D01*
X10394000Y-5292350D02*
X10434000Y-5332350D01*
X10434000Y-5292350D02*
X10394000Y-5332350D01*
X10394000Y-5593400D02*
X10434000Y-5633400D01*
X10434000Y-5593400D02*
X10394000Y-5633400D01*
X10399525Y-5444750D02*
X10439525Y-5484750D01*
X10439525Y-5444750D02*
X10399525Y-5484750D01*
X10419400Y-4983800D02*
X10459400Y-5023800D01*
X10459400Y-4983800D02*
X10419400Y-5023800D01*
X10457500Y-2837500D02*
X10497500Y-2877500D01*
X10497500Y-2837500D02*
X10457500Y-2877500D01*
X10457500Y-4742500D02*
X10497500Y-4782500D01*
X10497500Y-4742500D02*
X10457500Y-4782500D01*
X10457500Y-6647500D02*
X10497500Y-6687500D01*
X10497500Y-6647500D02*
X10457500Y-6687500D01*
X10457500Y-6647500D02*
X10497500Y-6687500D01*
X10497500Y-6647500D02*
X10457500Y-6687500D01*
X10457500Y-8552500D02*
X10497500Y-8592500D01*
X10497500Y-8552500D02*
X10457500Y-8592500D01*
X10470200Y-5517200D02*
X10510200Y-5557200D01*
X10510200Y-5517200D02*
X10470200Y-5557200D01*
X10482146Y-5219850D02*
X10522146Y-5259850D01*
X10522146Y-5219850D02*
X10482146Y-5259850D01*
X10508300Y-4903850D02*
X10548300Y-4943850D01*
X10548300Y-4903850D02*
X10508300Y-4943850D01*
X10508300Y-5364800D02*
X10548300Y-5404800D01*
X10548300Y-5364800D02*
X10508300Y-5404800D01*
X10536875Y-6568125D02*
X10576875Y-6608125D01*
X10576875Y-6568125D02*
X10536875Y-6608125D01*
X10559100Y-6719950D02*
X10599100Y-6759950D01*
X10599100Y-6719950D02*
X10559100Y-6759950D01*
X11251250Y-6568125D02*
X11291250Y-6608125D01*
X11291250Y-6568125D02*
X11251250Y-6608125D01*
X11330625Y-6488750D02*
X11370625Y-6528750D01*
X11370625Y-6488750D02*
X11330625Y-6528750D01*
X11489375Y-6647500D02*
X11529375Y-6687500D01*
X11529375Y-6647500D02*
X11489375Y-6687500D01*
X11489375Y-6792400D02*
X11529375Y-6832400D01*
X11529375Y-6792400D02*
X11489375Y-6832400D01*
X11568750Y-6568125D02*
X11608750Y-6608125D01*
X11608750Y-6568125D02*
X11568750Y-6608125D01*
X11648125Y-6330000D02*
X11688125Y-6370000D01*
X11688125Y-6330000D02*
X11648125Y-6370000D01*
X11664000Y-5056250D02*
X11704000Y-5096250D01*
X11704000Y-5056250D02*
X11664000Y-5096250D01*
X11841800Y-5910900D02*
X11881800Y-5950900D01*
X11881800Y-5910900D02*
X11841800Y-5950900D01*
X11854500Y-6573075D02*
X11894500Y-6613075D01*
X11894500Y-6573075D02*
X11854500Y-6613075D01*
X11918000Y-6711000D02*
X11958000Y-6751000D01*
X11958000Y-6711000D02*
X11918000Y-6751000D01*
X11930700Y-5034600D02*
X11970700Y-5074600D01*
X11970700Y-5034600D02*
X11930700Y-5074600D01*
X11930700Y-6025200D02*
X11970700Y-6065200D01*
X11970700Y-6025200D02*
X11930700Y-6065200D01*
X12019600Y-5123500D02*
X12059600Y-5163500D01*
X12059600Y-5123500D02*
X12019600Y-5163500D01*
X12019600Y-5961700D02*
X12059600Y-6001700D01*
X12059600Y-5961700D02*
X12019600Y-6001700D01*
X12108500Y-5228175D02*
X12148500Y-5268175D01*
X12148500Y-5228175D02*
X12108500Y-5268175D01*
X12108500Y-5873075D02*
X12148500Y-5913075D01*
X12148500Y-5873075D02*
X12108500Y-5913075D01*
X12117125Y-7100625D02*
X12157125Y-7140625D01*
X12157125Y-7100625D02*
X12117125Y-7140625D01*
X12260900Y-4679000D02*
X12300900Y-4719000D01*
X12300900Y-4679000D02*
X12260900Y-4719000D01*
X12324400Y-4971100D02*
X12364400Y-5011100D01*
X12364400Y-4971100D02*
X12324400Y-5011100D01*
D13*
X4693125Y-2206625D02*
G75*
G03*
X4693125Y-2206625I-73500J0D01*
G01*
X4693125Y-4111625D02*
G75*
G03*
X4693125Y-4111625I-73500J0D01*
G01*
X4693125Y-6016625D02*
G75*
G03*
X4693125Y-6016625I-73500J0D01*
G01*
X4693125Y-7921625D02*
G75*
G03*
X4693125Y-7921625I-73500J0D01*
G01*
X4693125Y-9826625D02*
G75*
G03*
X4693125Y-9826625I-73500J0D01*
G01*
X4824125Y-2060625D02*
G75*
G03*
X4824125Y-2060625I-73500J0D01*
G01*
X4824125Y-3965625D02*
G75*
G03*
X4824125Y-3965625I-73500J0D01*
G01*
X4824125Y-5870625D02*
G75*
G03*
X4824125Y-5870625I-73500J0D01*
G01*
X4824125Y-7775625D02*
G75*
G03*
X4824125Y-7775625I-73500J0D01*
G01*
X4824125Y-9680625D02*
G75*
G03*
X4824125Y-9680625I-73500J0D01*
G01*
X5324125Y-2010625D02*
G75*
G03*
X5324125Y-2010625I-73500J0D01*
G01*
X5324125Y-3915625D02*
G75*
G03*
X5324125Y-3915625I-73500J0D01*
G01*
X5324125Y-5820625D02*
G75*
G03*
X5324125Y-5820625I-73500J0D01*
G01*
X5324125Y-7725625D02*
G75*
G03*
X5324125Y-7725625I-73500J0D01*
G01*
X5324125Y-9630625D02*
G75*
G03*
X5324125Y-9630625I-73500J0D01*
G01*
X5328125Y-1952625D02*
G75*
G03*
X5328125Y-1952625I-73500J0D01*
G01*
X5328125Y-3857625D02*
G75*
G03*
X5328125Y-3857625I-73500J0D01*
G01*
X5328125Y-5762625D02*
G75*
G03*
X5328125Y-5762625I-73500J0D01*
G01*
X5328125Y-7667625D02*
G75*
G03*
X5328125Y-7667625I-73500J0D01*
G01*
X5328125Y-9572625D02*
G75*
G03*
X5328125Y-9572625I-73500J0D01*
G01*
X6598125Y-2206625D02*
G75*
G03*
X6598125Y-2206625I-73500J0D01*
G01*
X6598125Y-4111625D02*
G75*
G03*
X6598125Y-4111625I-73500J0D01*
G01*
X6598125Y-6016625D02*
G75*
G03*
X6598125Y-6016625I-73500J0D01*
G01*
X6598125Y-7921625D02*
G75*
G03*
X6598125Y-7921625I-73500J0D01*
G01*
X6598125Y-9826625D02*
G75*
G03*
X6598125Y-9826625I-73500J0D01*
G01*
X6729125Y-2060625D02*
G75*
G03*
X6729125Y-2060625I-73500J0D01*
G01*
X6729125Y-3965625D02*
G75*
G03*
X6729125Y-3965625I-73500J0D01*
G01*
X6729125Y-5870625D02*
G75*
G03*
X6729125Y-5870625I-73500J0D01*
G01*
X6729125Y-7775625D02*
G75*
G03*
X6729125Y-7775625I-73500J0D01*
G01*
X6729125Y-9680625D02*
G75*
G03*
X6729125Y-9680625I-73500J0D01*
G01*
X7229125Y-2010625D02*
G75*
G03*
X7229125Y-2010625I-73500J0D01*
G01*
X7229125Y-3915625D02*
G75*
G03*
X7229125Y-3915625I-73500J0D01*
G01*
X7229125Y-5820625D02*
G75*
G03*
X7229125Y-5820625I-73500J0D01*
G01*
X7229125Y-7725625D02*
G75*
G03*
X7229125Y-7725625I-73500J0D01*
G01*
X7229125Y-9630625D02*
G75*
G03*
X7229125Y-9630625I-73500J0D01*
G01*
X7233125Y-1952625D02*
G75*
G03*
X7233125Y-1952625I-73500J0D01*
G01*
X7233125Y-3857625D02*
G75*
G03*
X7233125Y-3857625I-73500J0D01*
G01*
X7233125Y-5762625D02*
G75*
G03*
X7233125Y-5762625I-73500J0D01*
G01*
X7233125Y-7667625D02*
G75*
G03*
X7233125Y-7667625I-73500J0D01*
G01*
X7233125Y-9572625D02*
G75*
G03*
X7233125Y-9572625I-73500J0D01*
G01*
X8503125Y-2206625D02*
G75*
G03*
X8503125Y-2206625I-73500J0D01*
G01*
X8503125Y-4111625D02*
G75*
G03*
X8503125Y-4111625I-73500J0D01*
G01*
X8503125Y-6016625D02*
G75*
G03*
X8503125Y-6016625I-73500J0D01*
G01*
X8503125Y-7921625D02*
G75*
G03*
X8503125Y-7921625I-73500J0D01*
G01*
X8503125Y-9826625D02*
G75*
G03*
X8503125Y-9826625I-73500J0D01*
G01*
X8634125Y-2060625D02*
G75*
G03*
X8634125Y-2060625I-73500J0D01*
G01*
X8634125Y-3965625D02*
G75*
G03*
X8634125Y-3965625I-73500J0D01*
G01*
X8634125Y-5870625D02*
G75*
G03*
X8634125Y-5870625I-73500J0D01*
G01*
X8634125Y-7775625D02*
G75*
G03*
X8634125Y-7775625I-73500J0D01*
G01*
X8634125Y-9680625D02*
G75*
G03*
X8634125Y-9680625I-73500J0D01*
G01*
X9134125Y-2010625D02*
G75*
G03*
X9134125Y-2010625I-73500J0D01*
G01*
X9134125Y-3915625D02*
G75*
G03*
X9134125Y-3915625I-73500J0D01*
G01*
X9134125Y-5820625D02*
G75*
G03*
X9134125Y-5820625I-73500J0D01*
G01*
X9134125Y-7725625D02*
G75*
G03*
X9134125Y-7725625I-73500J0D01*
G01*
X9134125Y-9630625D02*
G75*
G03*
X9134125Y-9630625I-73500J0D01*
G01*
X9138125Y-1952625D02*
G75*
G03*
X9138125Y-1952625I-73500J0D01*
G01*
X9138125Y-3857625D02*
G75*
G03*
X9138125Y-3857625I-73500J0D01*
G01*
X9138125Y-5762625D02*
G75*
G03*
X9138125Y-5762625I-73500J0D01*
G01*
X9138125Y-7667625D02*
G75*
G03*
X9138125Y-7667625I-73500J0D01*
G01*
X9138125Y-9572625D02*
G75*
G03*
X9138125Y-9572625I-73500J0D01*
G01*
X10408125Y-2206625D02*
G75*
G03*
X10408125Y-2206625I-73500J0D01*
G01*
X10408125Y-4111625D02*
G75*
G03*
X10408125Y-4111625I-73500J0D01*
G01*
X10408125Y-6016625D02*
G75*
G03*
X10408125Y-6016625I-73500J0D01*
G01*
X10408125Y-7921625D02*
G75*
G03*
X10408125Y-7921625I-73500J0D01*
G01*
X10408125Y-9826625D02*
G75*
G03*
X10408125Y-9826625I-73500J0D01*
G01*
X10539125Y-2060625D02*
G75*
G03*
X10539125Y-2060625I-73500J0D01*
G01*
X10539125Y-3965625D02*
G75*
G03*
X10539125Y-3965625I-73500J0D01*
G01*
X10539125Y-5870625D02*
G75*
G03*
X10539125Y-5870625I-73500J0D01*
G01*
X10539125Y-7775625D02*
G75*
G03*
X10539125Y-7775625I-73500J0D01*
G01*
X10539125Y-9680625D02*
G75*
G03*
X10539125Y-9680625I-73500J0D01*
G01*
X11039125Y-2010625D02*
G75*
G03*
X11039125Y-2010625I-73500J0D01*
G01*
X11039125Y-3915625D02*
G75*
G03*
X11039125Y-3915625I-73500J0D01*
G01*
X11039125Y-5820625D02*
G75*
G03*
X11039125Y-5820625I-73500J0D01*
G01*
X11039125Y-7725625D02*
G75*
G03*
X11039125Y-7725625I-73500J0D01*
G01*
X11039125Y-9630625D02*
G75*
G03*
X11039125Y-9630625I-73500J0D01*
G01*
X11043125Y-1952625D02*
G75*
G03*
X11043125Y-1952625I-73500J0D01*
G01*
X11043125Y-3857625D02*
G75*
G03*
X11043125Y-3857625I-73500J0D01*
G01*
X11043125Y-5762625D02*
G75*
G03*
X11043125Y-5762625I-73500J0D01*
G01*
X11043125Y-7667625D02*
G75*
G03*
X11043125Y-7667625I-73500J0D01*
G01*
X11043125Y-9572625D02*
G75*
G03*
X11043125Y-9572625I-73500J0D01*
G01*
D11*
X3345744Y-11351101D02*
X3345744Y-11151101D01*
X3393363Y-11151101D01*
X3421934Y-11160625D01*
X3440982Y-11179673D01*
X3450506Y-11198720D01*
X3460030Y-11236815D01*
X3460030Y-11265387D01*
X3450506Y-11303482D01*
X3440982Y-11322530D01*
X3421934Y-11341577D01*
X3393363Y-11351101D01*
X3345744Y-11351101D01*
X3545744Y-11351101D02*
X3545744Y-11217768D01*
X3545744Y-11255863D02*
X3555268Y-11236815D01*
X3564792Y-11227292D01*
X3583839Y-11217768D01*
X3602887Y-11217768D01*
X3669553Y-11351101D02*
X3669553Y-11217768D01*
X3669553Y-11151101D02*
X3660030Y-11160625D01*
X3669553Y-11170149D01*
X3679077Y-11160625D01*
X3669553Y-11151101D01*
X3669553Y-11170149D01*
X3793363Y-11351101D02*
X3774315Y-11341577D01*
X3764792Y-11322530D01*
X3764792Y-11151101D01*
X3898125Y-11351101D02*
X3879077Y-11341577D01*
X3869553Y-11322530D01*
X3869553Y-11151101D01*
X4126696Y-11351101D02*
X4126696Y-11151101D01*
X4193363Y-11293958D01*
X4260030Y-11151101D01*
X4260030Y-11351101D01*
X4440982Y-11351101D02*
X4440982Y-11246339D01*
X4431458Y-11227292D01*
X4412411Y-11217768D01*
X4374315Y-11217768D01*
X4355268Y-11227292D01*
X4440982Y-11341577D02*
X4421935Y-11351101D01*
X4374315Y-11351101D01*
X4355268Y-11341577D01*
X4345744Y-11322530D01*
X4345744Y-11303482D01*
X4355268Y-11284434D01*
X4374315Y-11274911D01*
X4421935Y-11274911D01*
X4440982Y-11265387D01*
X4536220Y-11217768D02*
X4536220Y-11417768D01*
X4536220Y-11227292D02*
X4555268Y-11217768D01*
X4593363Y-11217768D01*
X4612411Y-11227292D01*
X4621935Y-11236815D01*
X4631458Y-11255863D01*
X4631458Y-11313006D01*
X4621935Y-11332053D01*
X4612411Y-11341577D01*
X4593363Y-11351101D01*
X4555268Y-11351101D01*
X4536220Y-11341577D01*
X4717173Y-11332053D02*
X4726696Y-11341577D01*
X4717173Y-11351101D01*
X4707649Y-11341577D01*
X4717173Y-11332053D01*
X4717173Y-11351101D01*
X4717173Y-11227292D02*
X4726696Y-11236815D01*
X4717173Y-11246339D01*
X4707649Y-11236815D01*
X4717173Y-11227292D01*
X4717173Y-11246339D01*
D12*
X3048125Y-11660625D02*
X3088125Y-11700625D01*
X3088125Y-11660625D02*
X3048125Y-11700625D01*
D11*
X3383839Y-11571101D02*
X3402887Y-11571101D01*
X3421934Y-11580625D01*
X3431458Y-11590149D01*
X3440982Y-11609196D01*
X3450506Y-11647292D01*
X3450506Y-11694911D01*
X3440982Y-11733006D01*
X3431458Y-11752053D01*
X3421934Y-11761577D01*
X3402887Y-11771101D01*
X3383839Y-11771101D01*
X3364792Y-11761577D01*
X3355268Y-11752053D01*
X3345744Y-11733006D01*
X3336220Y-11694911D01*
X3336220Y-11647292D01*
X3345744Y-11609196D01*
X3355268Y-11590149D01*
X3364792Y-11580625D01*
X3383839Y-11571101D01*
X3536220Y-11752053D02*
X3545744Y-11761577D01*
X3536220Y-11771101D01*
X3526696Y-11761577D01*
X3536220Y-11752053D01*
X3536220Y-11771101D01*
X3717173Y-11637768D02*
X3717173Y-11771101D01*
X3669553Y-11561577D02*
X3621934Y-11704434D01*
X3745744Y-11704434D01*
X3860030Y-11571101D02*
X3879077Y-11571101D01*
X3898125Y-11580625D01*
X3907649Y-11590149D01*
X3917173Y-11609196D01*
X3926696Y-11647292D01*
X3926696Y-11694911D01*
X3917173Y-11733006D01*
X3907649Y-11752053D01*
X3898125Y-11761577D01*
X3879077Y-11771101D01*
X3860030Y-11771101D01*
X3840982Y-11761577D01*
X3831458Y-11752053D01*
X3821934Y-11733006D01*
X3812411Y-11694911D01*
X3812411Y-11647292D01*
X3821934Y-11609196D01*
X3831458Y-11590149D01*
X3840982Y-11580625D01*
X3860030Y-11571101D01*
X4050506Y-11571101D02*
X4069553Y-11571101D01*
X4088601Y-11580625D01*
X4098125Y-11590149D01*
X4107649Y-11609196D01*
X4117173Y-11647292D01*
X4117173Y-11694911D01*
X4107649Y-11733006D01*
X4098125Y-11752053D01*
X4088601Y-11761577D01*
X4069553Y-11771101D01*
X4050506Y-11771101D01*
X4031458Y-11761577D01*
X4021934Y-11752053D01*
X4012411Y-11733006D01*
X4002887Y-11694911D01*
X4002887Y-11647292D01*
X4012411Y-11609196D01*
X4021934Y-11590149D01*
X4031458Y-11580625D01*
X4050506Y-11571101D01*
X4202887Y-11771101D02*
X4202887Y-11637768D01*
X4202887Y-11656815D02*
X4212411Y-11647292D01*
X4231458Y-11637768D01*
X4260030Y-11637768D01*
X4279077Y-11647292D01*
X4288601Y-11666339D01*
X4288601Y-11771101D01*
X4288601Y-11666339D02*
X4298125Y-11647292D01*
X4317173Y-11637768D01*
X4345744Y-11637768D01*
X4364792Y-11647292D01*
X4374315Y-11666339D01*
X4374315Y-11771101D01*
X4469554Y-11771101D02*
X4469554Y-11637768D01*
X4469554Y-11656815D02*
X4479077Y-11647292D01*
X4498125Y-11637768D01*
X4526696Y-11637768D01*
X4545744Y-11647292D01*
X4555268Y-11666339D01*
X4555268Y-11771101D01*
X4555268Y-11666339D02*
X4564792Y-11647292D01*
X4583839Y-11637768D01*
X4612411Y-11637768D01*
X4631458Y-11647292D01*
X4640982Y-11666339D01*
X4640982Y-11771101D01*
X5031458Y-11561577D02*
X4860030Y-11818720D01*
X5288601Y-11571101D02*
X5307649Y-11571101D01*
X5326696Y-11580625D01*
X5336220Y-11590149D01*
X5345744Y-11609196D01*
X5355268Y-11647292D01*
X5355268Y-11694911D01*
X5345744Y-11733006D01*
X5336220Y-11752053D01*
X5326696Y-11761577D01*
X5307649Y-11771101D01*
X5288601Y-11771101D01*
X5269554Y-11761577D01*
X5260030Y-11752053D01*
X5250506Y-11733006D01*
X5240982Y-11694911D01*
X5240982Y-11647292D01*
X5250506Y-11609196D01*
X5260030Y-11590149D01*
X5269554Y-11580625D01*
X5288601Y-11571101D01*
X5440982Y-11752053D02*
X5450506Y-11761577D01*
X5440982Y-11771101D01*
X5431458Y-11761577D01*
X5440982Y-11752053D01*
X5440982Y-11771101D01*
X5574315Y-11571101D02*
X5593363Y-11571101D01*
X5612411Y-11580625D01*
X5621934Y-11590149D01*
X5631458Y-11609196D01*
X5640982Y-11647292D01*
X5640982Y-11694911D01*
X5631458Y-11733006D01*
X5621934Y-11752053D01*
X5612411Y-11761577D01*
X5593363Y-11771101D01*
X5574315Y-11771101D01*
X5555268Y-11761577D01*
X5545744Y-11752053D01*
X5536220Y-11733006D01*
X5526696Y-11694911D01*
X5526696Y-11647292D01*
X5536220Y-11609196D01*
X5545744Y-11590149D01*
X5555268Y-11580625D01*
X5574315Y-11571101D01*
X5831458Y-11771101D02*
X5717173Y-11771101D01*
X5774315Y-11771101D02*
X5774315Y-11571101D01*
X5755268Y-11599673D01*
X5736220Y-11618720D01*
X5717173Y-11628244D01*
X6012411Y-11571101D02*
X5917173Y-11571101D01*
X5907649Y-11666339D01*
X5917173Y-11656815D01*
X5936220Y-11647292D01*
X5983839Y-11647292D01*
X6002887Y-11656815D01*
X6012411Y-11666339D01*
X6021934Y-11685387D01*
X6021934Y-11733006D01*
X6012411Y-11752053D01*
X6002887Y-11761577D01*
X5983839Y-11771101D01*
X5936220Y-11771101D01*
X5917173Y-11761577D01*
X5907649Y-11752053D01*
X6088601Y-11571101D02*
X6221934Y-11571101D01*
X6136220Y-11771101D01*
X6288601Y-11571101D02*
X6288601Y-11609196D01*
X6364792Y-11571101D02*
X6364792Y-11609196D01*
X6660030Y-11847292D02*
X6650506Y-11837768D01*
X6631458Y-11809196D01*
X6621934Y-11790149D01*
X6612411Y-11761577D01*
X6602887Y-11713958D01*
X6602887Y-11675863D01*
X6612411Y-11628244D01*
X6621934Y-11599673D01*
X6631458Y-11580625D01*
X6650506Y-11552053D01*
X6660030Y-11542530D01*
X6840982Y-11771101D02*
X6726696Y-11771101D01*
X6783839Y-11771101D02*
X6783839Y-11571101D01*
X6764792Y-11599673D01*
X6745744Y-11618720D01*
X6726696Y-11628244D01*
X6955268Y-11656815D02*
X6936220Y-11647292D01*
X6926696Y-11637768D01*
X6917173Y-11618720D01*
X6917173Y-11609196D01*
X6926696Y-11590149D01*
X6936220Y-11580625D01*
X6955268Y-11571101D01*
X6993363Y-11571101D01*
X7012411Y-11580625D01*
X7021934Y-11590149D01*
X7031458Y-11609196D01*
X7031458Y-11618720D01*
X7021934Y-11637768D01*
X7012411Y-11647292D01*
X6993363Y-11656815D01*
X6955268Y-11656815D01*
X6936220Y-11666339D01*
X6926696Y-11675863D01*
X6917173Y-11694911D01*
X6917173Y-11733006D01*
X6926696Y-11752053D01*
X6936220Y-11761577D01*
X6955268Y-11771101D01*
X6993363Y-11771101D01*
X7012411Y-11761577D01*
X7021934Y-11752053D01*
X7031458Y-11733006D01*
X7031458Y-11694911D01*
X7021934Y-11675863D01*
X7012411Y-11666339D01*
X6993363Y-11656815D01*
X7098125Y-11571101D02*
X7221934Y-11571101D01*
X7155268Y-11647292D01*
X7183839Y-11647292D01*
X7202887Y-11656815D01*
X7212411Y-11666339D01*
X7221934Y-11685387D01*
X7221934Y-11733006D01*
X7212411Y-11752053D01*
X7202887Y-11761577D01*
X7183839Y-11771101D01*
X7126696Y-11771101D01*
X7107649Y-11761577D01*
X7098125Y-11752053D01*
X7460030Y-11771101D02*
X7460030Y-11571101D01*
X7545744Y-11771101D02*
X7545744Y-11666339D01*
X7536220Y-11647292D01*
X7517173Y-11637768D01*
X7488601Y-11637768D01*
X7469553Y-11647292D01*
X7460030Y-11656815D01*
X7669553Y-11771101D02*
X7650506Y-11761577D01*
X7640982Y-11752053D01*
X7631458Y-11733006D01*
X7631458Y-11675863D01*
X7640982Y-11656815D01*
X7650506Y-11647292D01*
X7669553Y-11637768D01*
X7698125Y-11637768D01*
X7717173Y-11647292D01*
X7726696Y-11656815D01*
X7736220Y-11675863D01*
X7736220Y-11733006D01*
X7726696Y-11752053D01*
X7717173Y-11761577D01*
X7698125Y-11771101D01*
X7669553Y-11771101D01*
X7850506Y-11771101D02*
X7831458Y-11761577D01*
X7821934Y-11742530D01*
X7821934Y-11571101D01*
X8002887Y-11761577D02*
X7983839Y-11771101D01*
X7945744Y-11771101D01*
X7926696Y-11761577D01*
X7917173Y-11742530D01*
X7917173Y-11666339D01*
X7926696Y-11647292D01*
X7945744Y-11637768D01*
X7983839Y-11637768D01*
X8002887Y-11647292D01*
X8012411Y-11666339D01*
X8012411Y-11685387D01*
X7917173Y-11704434D01*
X8088601Y-11761577D02*
X8107649Y-11771101D01*
X8145744Y-11771101D01*
X8164792Y-11761577D01*
X8174315Y-11742530D01*
X8174315Y-11733006D01*
X8164792Y-11713958D01*
X8145744Y-11704434D01*
X8117173Y-11704434D01*
X8098125Y-11694911D01*
X8088601Y-11675863D01*
X8088601Y-11666339D01*
X8098125Y-11647292D01*
X8117173Y-11637768D01*
X8145744Y-11637768D01*
X8164792Y-11647292D01*
X8240982Y-11847292D02*
X8250506Y-11837768D01*
X8269553Y-11809196D01*
X8279077Y-11790149D01*
X8288601Y-11761577D01*
X8298125Y-11713958D01*
X8298125Y-11675863D01*
X8288601Y-11628244D01*
X8279077Y-11599673D01*
X8269553Y-11580625D01*
X8250506Y-11552053D01*
X8240982Y-11542530D01*
D13*
X3088125Y-11944625D02*
G75*
G03*
X3088125Y-11944625I-73500J0D01*
G01*
D11*
X3450506Y-12035101D02*
X3336220Y-12035101D01*
X3393363Y-12035101D02*
X3393363Y-11835101D01*
X3374315Y-11863673D01*
X3355268Y-11882720D01*
X3336220Y-11892244D01*
X3536220Y-12016053D02*
X3545744Y-12025577D01*
X3536220Y-12035101D01*
X3526696Y-12025577D01*
X3536220Y-12016053D01*
X3536220Y-12035101D01*
X3717173Y-11901768D02*
X3717173Y-12035101D01*
X3669553Y-11825577D02*
X3621934Y-11968434D01*
X3745744Y-11968434D01*
X3802887Y-11835101D02*
X3936220Y-11835101D01*
X3850506Y-12035101D01*
X4050506Y-11835101D02*
X4069553Y-11835101D01*
X4088601Y-11844625D01*
X4098125Y-11854149D01*
X4107649Y-11873196D01*
X4117173Y-11911292D01*
X4117173Y-11958911D01*
X4107649Y-11997006D01*
X4098125Y-12016053D01*
X4088601Y-12025577D01*
X4069553Y-12035101D01*
X4050506Y-12035101D01*
X4031458Y-12025577D01*
X4021934Y-12016053D01*
X4012411Y-11997006D01*
X4002887Y-11958911D01*
X4002887Y-11911292D01*
X4012411Y-11873196D01*
X4021934Y-11854149D01*
X4031458Y-11844625D01*
X4050506Y-11835101D01*
X4202887Y-12035101D02*
X4202887Y-11901768D01*
X4202887Y-11920815D02*
X4212411Y-11911292D01*
X4231458Y-11901768D01*
X4260030Y-11901768D01*
X4279077Y-11911292D01*
X4288601Y-11930339D01*
X4288601Y-12035101D01*
X4288601Y-11930339D02*
X4298125Y-11911292D01*
X4317173Y-11901768D01*
X4345744Y-11901768D01*
X4364792Y-11911292D01*
X4374315Y-11930339D01*
X4374315Y-12035101D01*
X4469554Y-12035101D02*
X4469554Y-11901768D01*
X4469554Y-11920815D02*
X4479077Y-11911292D01*
X4498125Y-11901768D01*
X4526696Y-11901768D01*
X4545744Y-11911292D01*
X4555268Y-11930339D01*
X4555268Y-12035101D01*
X4555268Y-11930339D02*
X4564792Y-11911292D01*
X4583839Y-11901768D01*
X4612411Y-11901768D01*
X4631458Y-11911292D01*
X4640982Y-11930339D01*
X4640982Y-12035101D01*
X5031458Y-11825577D02*
X4860030Y-12082720D01*
X5288601Y-11835101D02*
X5307649Y-11835101D01*
X5326696Y-11844625D01*
X5336220Y-11854149D01*
X5345744Y-11873196D01*
X5355268Y-11911292D01*
X5355268Y-11958911D01*
X5345744Y-11997006D01*
X5336220Y-12016053D01*
X5326696Y-12025577D01*
X5307649Y-12035101D01*
X5288601Y-12035101D01*
X5269554Y-12025577D01*
X5260030Y-12016053D01*
X5250506Y-11997006D01*
X5240982Y-11958911D01*
X5240982Y-11911292D01*
X5250506Y-11873196D01*
X5260030Y-11854149D01*
X5269554Y-11844625D01*
X5288601Y-11835101D01*
X5440982Y-12016053D02*
X5450506Y-12025577D01*
X5440982Y-12035101D01*
X5431458Y-12025577D01*
X5440982Y-12016053D01*
X5440982Y-12035101D01*
X5574315Y-11835101D02*
X5593363Y-11835101D01*
X5612411Y-11844625D01*
X5621934Y-11854149D01*
X5631458Y-11873196D01*
X5640982Y-11911292D01*
X5640982Y-11958911D01*
X5631458Y-11997006D01*
X5621934Y-12016053D01*
X5612411Y-12025577D01*
X5593363Y-12035101D01*
X5574315Y-12035101D01*
X5555268Y-12025577D01*
X5545744Y-12016053D01*
X5536220Y-11997006D01*
X5526696Y-11958911D01*
X5526696Y-11911292D01*
X5536220Y-11873196D01*
X5545744Y-11854149D01*
X5555268Y-11844625D01*
X5574315Y-11835101D01*
X5821934Y-11835101D02*
X5726696Y-11835101D01*
X5717173Y-11930339D01*
X5726696Y-11920815D01*
X5745744Y-11911292D01*
X5793363Y-11911292D01*
X5812411Y-11920815D01*
X5821934Y-11930339D01*
X5831458Y-11949387D01*
X5831458Y-11997006D01*
X5821934Y-12016053D01*
X5812411Y-12025577D01*
X5793363Y-12035101D01*
X5745744Y-12035101D01*
X5726696Y-12025577D01*
X5717173Y-12016053D01*
X5898125Y-11835101D02*
X6031458Y-11835101D01*
X5945744Y-12035101D01*
X6117173Y-12035101D02*
X6155268Y-12035101D01*
X6174315Y-12025577D01*
X6183839Y-12016053D01*
X6202887Y-11987482D01*
X6212411Y-11949387D01*
X6212411Y-11873196D01*
X6202887Y-11854149D01*
X6193363Y-11844625D01*
X6174315Y-11835101D01*
X6136220Y-11835101D01*
X6117173Y-11844625D01*
X6107649Y-11854149D01*
X6098125Y-11873196D01*
X6098125Y-11920815D01*
X6107649Y-11939863D01*
X6117173Y-11949387D01*
X6136220Y-11958911D01*
X6174315Y-11958911D01*
X6193363Y-11949387D01*
X6202887Y-11939863D01*
X6212411Y-11920815D01*
X6288601Y-11835101D02*
X6288601Y-11873196D01*
X6364792Y-11835101D02*
X6364792Y-11873196D01*
X6660030Y-12111292D02*
X6650506Y-12101768D01*
X6631458Y-12073196D01*
X6621934Y-12054149D01*
X6612411Y-12025577D01*
X6602887Y-11977958D01*
X6602887Y-11939863D01*
X6612411Y-11892244D01*
X6621934Y-11863673D01*
X6631458Y-11844625D01*
X6650506Y-11816053D01*
X6660030Y-11806530D01*
X6764792Y-11920815D02*
X6745744Y-11911292D01*
X6736220Y-11901768D01*
X6726696Y-11882720D01*
X6726696Y-11873196D01*
X6736220Y-11854149D01*
X6745744Y-11844625D01*
X6764792Y-11835101D01*
X6802887Y-11835101D01*
X6821934Y-11844625D01*
X6831458Y-11854149D01*
X6840982Y-11873196D01*
X6840982Y-11882720D01*
X6831458Y-11901768D01*
X6821934Y-11911292D01*
X6802887Y-11920815D01*
X6764792Y-11920815D01*
X6745744Y-11930339D01*
X6736220Y-11939863D01*
X6726696Y-11958911D01*
X6726696Y-11997006D01*
X6736220Y-12016053D01*
X6745744Y-12025577D01*
X6764792Y-12035101D01*
X6802887Y-12035101D01*
X6821934Y-12025577D01*
X6831458Y-12016053D01*
X6840982Y-11997006D01*
X6840982Y-11958911D01*
X6831458Y-11939863D01*
X6821934Y-11930339D01*
X6802887Y-11920815D01*
X6964792Y-11835101D02*
X6983839Y-11835101D01*
X7002887Y-11844625D01*
X7012411Y-11854149D01*
X7021934Y-11873196D01*
X7031458Y-11911292D01*
X7031458Y-11958911D01*
X7021934Y-11997006D01*
X7012411Y-12016053D01*
X7002887Y-12025577D01*
X6983839Y-12035101D01*
X6964792Y-12035101D01*
X6945744Y-12025577D01*
X6936220Y-12016053D01*
X6926696Y-11997006D01*
X6917173Y-11958911D01*
X6917173Y-11911292D01*
X6926696Y-11873196D01*
X6936220Y-11854149D01*
X6945744Y-11844625D01*
X6964792Y-11835101D01*
X7269553Y-12035101D02*
X7269553Y-11835101D01*
X7355268Y-12035101D02*
X7355268Y-11930339D01*
X7345744Y-11911292D01*
X7326696Y-11901768D01*
X7298125Y-11901768D01*
X7279077Y-11911292D01*
X7269553Y-11920815D01*
X7479077Y-12035101D02*
X7460030Y-12025577D01*
X7450506Y-12016053D01*
X7440982Y-11997006D01*
X7440982Y-11939863D01*
X7450506Y-11920815D01*
X7460030Y-11911292D01*
X7479077Y-11901768D01*
X7507649Y-11901768D01*
X7526696Y-11911292D01*
X7536220Y-11920815D01*
X7545744Y-11939863D01*
X7545744Y-11997006D01*
X7536220Y-12016053D01*
X7526696Y-12025577D01*
X7507649Y-12035101D01*
X7479077Y-12035101D01*
X7660030Y-12035101D02*
X7640982Y-12025577D01*
X7631458Y-12006530D01*
X7631458Y-11835101D01*
X7812411Y-12025577D02*
X7793363Y-12035101D01*
X7755268Y-12035101D01*
X7736220Y-12025577D01*
X7726696Y-12006530D01*
X7726696Y-11930339D01*
X7736220Y-11911292D01*
X7755268Y-11901768D01*
X7793363Y-11901768D01*
X7812411Y-11911292D01*
X7821934Y-11930339D01*
X7821934Y-11949387D01*
X7726696Y-11968434D01*
X7898125Y-12025577D02*
X7917173Y-12035101D01*
X7955268Y-12035101D01*
X7974315Y-12025577D01*
X7983839Y-12006530D01*
X7983839Y-11997006D01*
X7974315Y-11977958D01*
X7955268Y-11968434D01*
X7926696Y-11968434D01*
X7907649Y-11958911D01*
X7898125Y-11939863D01*
X7898125Y-11930339D01*
X7907649Y-11911292D01*
X7926696Y-11901768D01*
X7955268Y-11901768D01*
X7974315Y-11911292D01*
X8050506Y-12111292D02*
X8060030Y-12101768D01*
X8079077Y-12073196D01*
X8088601Y-12054149D01*
X8098125Y-12025577D01*
X8107649Y-11977958D01*
X8107649Y-11939863D01*
X8098125Y-11892244D01*
X8088601Y-11863673D01*
X8079077Y-11844625D01*
X8060030Y-11816053D01*
X8050506Y-11806530D01*
M02*
