G04 #@! TF.GenerationSoftware,KiCad,Pcbnew,(6.0.9)*
G04 #@! TF.CreationDate,2023-04-02T22:42:08-05:00*
G04 #@! TF.ProjectId,Number Pad,4e756d62-6572-4205-9061-642e6b696361,rev?*
G04 #@! TF.SameCoordinates,Original*
G04 #@! TF.FileFunction,Soldermask,Top*
G04 #@! TF.FilePolarity,Negative*
%FSLAX46Y46*%
G04 Gerber Fmt 4.6, Leading zero omitted, Abs format (unit mm)*
G04 Created by KiCad (PCBNEW (6.0.9)) date 2023-04-02 22:42:08*
%MOMM*%
%LPD*%
G01*
G04 APERTURE LIST*
%ADD10C,3.987800*%
%ADD11C,1.750000*%
%ADD12R,1.200000X0.900000*%
%ADD13R,1.700000X1.700000*%
%ADD14O,1.700000X1.700000*%
G04 APERTURE END LIST*
D10*
X50006250Y-62706250D03*
D11*
X55086250Y-62706250D03*
X44926250Y-62706250D03*
D10*
X50006250Y-43656250D03*
D11*
X55086250Y-43656250D03*
X44926250Y-43656250D03*
D12*
X76993750Y-26256250D03*
X76993750Y-22956250D03*
D10*
X88106250Y-100806250D03*
D11*
X93186250Y-100806250D03*
X83026250Y-100806250D03*
D10*
X88106250Y-62706250D03*
D11*
X93186250Y-62706250D03*
X83026250Y-62706250D03*
D12*
X115093750Y-102456250D03*
X115093750Y-99156250D03*
D11*
X102076250Y-62706250D03*
D10*
X107156250Y-62706250D03*
D11*
X112236250Y-62706250D03*
X44926250Y-81756250D03*
D10*
X50006250Y-81756250D03*
D11*
X55086250Y-81756250D03*
D10*
X88106250Y-81756250D03*
D11*
X83026250Y-81756250D03*
X93186250Y-81756250D03*
D12*
X76993750Y-64356250D03*
X76993750Y-61056250D03*
X57943750Y-64356250D03*
X57943750Y-61056250D03*
D13*
X126841250Y-51435000D03*
D14*
X129381250Y-51435000D03*
X126841250Y-53975000D03*
X129381250Y-53975000D03*
X126841250Y-56515000D03*
X129381250Y-56515000D03*
X126841250Y-59055000D03*
X129381250Y-59055000D03*
X126841250Y-61595000D03*
X129381250Y-61595000D03*
X126841250Y-64135000D03*
X129381250Y-64135000D03*
X126841250Y-66675000D03*
X129381250Y-66675000D03*
X126841250Y-69215000D03*
X129381250Y-69215000D03*
X126841250Y-71755000D03*
X129381250Y-71755000D03*
X126841250Y-74295000D03*
X129381250Y-74295000D03*
D12*
X57943750Y-83406250D03*
X57943750Y-80106250D03*
D11*
X44926250Y-100806250D03*
D10*
X50006250Y-100806250D03*
D11*
X55086250Y-100806250D03*
D12*
X96043750Y-102456250D03*
X96043750Y-99156250D03*
X115093750Y-26256250D03*
X115093750Y-22956250D03*
X115093750Y-83406250D03*
X115093750Y-80106250D03*
D11*
X63976250Y-81756250D03*
D10*
X69056250Y-81756250D03*
D11*
X74136250Y-81756250D03*
D12*
X115093750Y-45306250D03*
X115093750Y-42006250D03*
D10*
X69056250Y-24606250D03*
D11*
X63976250Y-24606250D03*
X74136250Y-24606250D03*
D10*
X69056250Y-43656250D03*
D11*
X74136250Y-43656250D03*
X63976250Y-43656250D03*
D12*
X76993750Y-102456250D03*
X76993750Y-99156250D03*
D10*
X88106250Y-43656250D03*
D11*
X93186250Y-43656250D03*
X83026250Y-43656250D03*
D10*
X50006250Y-24606250D03*
D11*
X44926250Y-24606250D03*
X55086250Y-24606250D03*
D12*
X115093750Y-64356250D03*
X115093750Y-61056250D03*
X96043750Y-83406250D03*
X96043750Y-80106250D03*
D11*
X102076250Y-43656250D03*
D10*
X107156250Y-43656250D03*
D11*
X112236250Y-43656250D03*
D12*
X96043750Y-64356250D03*
X96043750Y-61056250D03*
D11*
X102076250Y-81756250D03*
D10*
X107156250Y-81756250D03*
D11*
X112236250Y-81756250D03*
D12*
X76993750Y-83406250D03*
X76993750Y-80106250D03*
D11*
X112236250Y-100806250D03*
D10*
X107156250Y-100806250D03*
D11*
X102076250Y-100806250D03*
X63976250Y-100806250D03*
D10*
X69056250Y-100806250D03*
D11*
X74136250Y-100806250D03*
D13*
X27850000Y-51256250D03*
D14*
X25310000Y-51256250D03*
X27850000Y-53796250D03*
X25310000Y-53796250D03*
X27850000Y-56336250D03*
X25310000Y-56336250D03*
X27850000Y-58876250D03*
X25310000Y-58876250D03*
X27850000Y-61416250D03*
X25310000Y-61416250D03*
X27850000Y-63956250D03*
X25310000Y-63956250D03*
X27850000Y-66496250D03*
X25310000Y-66496250D03*
X27850000Y-69036250D03*
X25310000Y-69036250D03*
X27850000Y-71576250D03*
X25310000Y-71576250D03*
X27850000Y-74116250D03*
X25310000Y-74116250D03*
D12*
X57943750Y-102456250D03*
X57943750Y-99156250D03*
X96043750Y-45306250D03*
X96043750Y-42006250D03*
X57943750Y-26256250D03*
X57943750Y-22956250D03*
X57943750Y-45306250D03*
X57943750Y-42006250D03*
D11*
X74136250Y-62706250D03*
D10*
X69056250Y-62706250D03*
D11*
X63976250Y-62706250D03*
D12*
X96043750Y-26256250D03*
X96043750Y-22956250D03*
D11*
X102076250Y-24606250D03*
X112236250Y-24606250D03*
D10*
X107156250Y-24606250D03*
D11*
X93186250Y-24606250D03*
X83026250Y-24606250D03*
D10*
X88106250Y-24606250D03*
D12*
X76993750Y-45306250D03*
X76993750Y-42006250D03*
M02*
