%TF.GenerationSoftware,KiCad,Pcbnew,(6.0.9)*%
%TF.CreationDate,2023-03-10T16:48:29-06:00*%
%TF.ProjectId,Number Pad,4e756d62-6572-4205-9061-642e6b696361,rev?*%
%TF.SameCoordinates,Original*%
%TF.FileFunction,Drillmap*%
%TF.FilePolarity,Positive*%
%FSLAX45Y45*%
G04 Gerber Fmt 4.5, Leading zero omitted, Abs format (unit mm)*
G04 Created by KiCad (PCBNEW (6.0.9)) date 2023-03-10 16:48:29*
%MOMM*%
%LPD*%
G01*
G04 APERTURE LIST*
%ADD10C,0.150000*%
%ADD11C,0.100000*%
%ADD12C,0.200000*%
%ADD13C,0.040000*%
%ADD14C,0.147000*%
G04 APERTURE END LIST*
D10*
X13096875Y-1746250D02*
G75*
G03*
X12858750Y-1508125I-238125J0D01*
G01*
D11*
X2857500Y-1905000D02*
G75*
G03*
X2857500Y-1905000I-79375J0D01*
G01*
X7937500Y-3413125D02*
G75*
G03*
X7937500Y-3413125I-79375J0D01*
G01*
D10*
X2381250Y-10795000D02*
X2381250Y-1746250D01*
X2381250Y-10795000D02*
G75*
G03*
X2619375Y-11033125I238125J0D01*
G01*
X2628997Y-1508319D02*
G75*
G03*
X2381250Y-1746250I-9622J-237931D01*
G01*
X13096875Y-10795000D02*
X13096875Y-1746250D01*
D11*
X2857500Y-10636250D02*
G75*
G03*
X2857500Y-10636250I-79375J0D01*
G01*
D10*
X2629005Y-1508125D02*
X12858750Y-1508125D01*
D11*
X12779375Y-8096250D02*
G75*
G03*
X12779375Y-8096250I-79375J0D01*
G01*
X2857500Y-4365625D02*
G75*
G03*
X2857500Y-4365625I-79375J0D01*
G01*
X2857500Y-8175625D02*
G75*
G03*
X2857500Y-8175625I-79375J0D01*
G01*
X7937500Y-9128125D02*
G75*
G03*
X7937500Y-9128125I-79375J0D01*
G01*
D10*
X12858750Y-11033125D02*
G75*
G03*
X13096875Y-10795000I0J238125D01*
G01*
D11*
X12779375Y-10636250D02*
G75*
G03*
X12779375Y-10636250I-79375J0D01*
G01*
D10*
X2619375Y-11033125D02*
X12858750Y-11033125D01*
D11*
X12779375Y-4365625D02*
G75*
G03*
X12779375Y-4365625I-79375J0D01*
G01*
X12779375Y-1905000D02*
G75*
G03*
X12779375Y-1905000I-79375J0D01*
G01*
D12*
D13*
X2885000Y-7695000D02*
X2925000Y-7735000D01*
X2925000Y-7695000D02*
X2885000Y-7735000D01*
X2980000Y-7615000D02*
X3020000Y-7655000D01*
X3020000Y-7615000D02*
X2980000Y-7655000D01*
X3150000Y-7687450D02*
X3190000Y-7727450D01*
X3190000Y-7687450D02*
X3150000Y-7727450D01*
X3775000Y-6702075D02*
X3815000Y-6742075D01*
X3815000Y-6702075D02*
X3775000Y-6742075D01*
X3855000Y-6870000D02*
X3895000Y-6910000D01*
X3895000Y-6870000D02*
X3855000Y-6910000D01*
X3900000Y-5140000D02*
X3940000Y-5180000D01*
X3940000Y-5140000D02*
X3900000Y-5180000D01*
X4000000Y-6945000D02*
X4040000Y-6985000D01*
X4040000Y-6945000D02*
X4000000Y-6985000D01*
X4150000Y-5995000D02*
X4190000Y-6035000D01*
X4190000Y-5995000D02*
X4150000Y-6035000D01*
X4210000Y-4935000D02*
X4250000Y-4975000D01*
X4250000Y-4935000D02*
X4210000Y-4975000D01*
X4225000Y-6145000D02*
X4265000Y-6185000D01*
X4265000Y-6145000D02*
X4225000Y-6185000D01*
X4234500Y-8527100D02*
X4274500Y-8567100D01*
X4274500Y-8527100D02*
X4234500Y-8567100D01*
X4250950Y-4602800D02*
X4290950Y-4642800D01*
X4290950Y-4602800D02*
X4250950Y-4642800D01*
X4310000Y-6255000D02*
X4350000Y-6295000D01*
X4350000Y-6255000D02*
X4310000Y-6295000D01*
X4437700Y-5220796D02*
X4477700Y-5260796D01*
X4477700Y-5220796D02*
X4437700Y-5260796D01*
X4450155Y-5368550D02*
X4490155Y-5408550D01*
X4490155Y-5368550D02*
X4450155Y-5408550D01*
X4451527Y-5516073D02*
X4491527Y-5556073D01*
X4491527Y-5516073D02*
X4451527Y-5556073D01*
X4488500Y-2850200D02*
X4528500Y-2890200D01*
X4528500Y-2850200D02*
X4488500Y-2890200D01*
X4504375Y-6568125D02*
X4544375Y-6608125D01*
X4544375Y-6568125D02*
X4504375Y-6608125D01*
X4526600Y-5293246D02*
X4566600Y-5333246D01*
X4566600Y-5293246D02*
X4526600Y-5333246D01*
X4526600Y-5593400D02*
X4566600Y-5633400D01*
X4566600Y-5593400D02*
X4526600Y-5633400D01*
X4527175Y-5441000D02*
X4567175Y-5481000D01*
X4567175Y-5441000D02*
X4527175Y-5481000D01*
X4527175Y-6409375D02*
X4567175Y-6449375D01*
X4567175Y-6409375D02*
X4527175Y-6449375D01*
X4527175Y-6670000D02*
X4567175Y-6710000D01*
X4567175Y-6670000D02*
X4527175Y-6710000D01*
X4672075Y-5288600D02*
X4712075Y-5328600D01*
X4712075Y-5288600D02*
X4672075Y-5328600D01*
X4677882Y-5439675D02*
X4717882Y-5479675D01*
X4717882Y-5439675D02*
X4677882Y-5479675D01*
X4679000Y-5593400D02*
X4719000Y-5633400D01*
X4719000Y-5593400D02*
X4679000Y-5633400D01*
X4679000Y-6990400D02*
X4719000Y-7030400D01*
X4719000Y-6990400D02*
X4679000Y-7030400D01*
X4691700Y-4602800D02*
X4731700Y-4642800D01*
X4731700Y-4602800D02*
X4691700Y-4642800D01*
X4717100Y-2850200D02*
X4757100Y-2890200D01*
X4757100Y-2850200D02*
X4717100Y-2890200D01*
X4729800Y-8539800D02*
X4769800Y-8579800D01*
X4769800Y-8539800D02*
X4729800Y-8579800D01*
X4742329Y-5516073D02*
X4782329Y-5556073D01*
X4782329Y-5516073D02*
X4742329Y-5556073D01*
X4742500Y-6409375D02*
X4782500Y-6449375D01*
X4782500Y-6409375D02*
X4742500Y-6449375D01*
X4742500Y-6568125D02*
X4782500Y-6608125D01*
X4782500Y-6568125D02*
X4742500Y-6608125D01*
X4742500Y-6668075D02*
X4782500Y-6708075D01*
X4782500Y-6668075D02*
X4742500Y-6708075D01*
X4745093Y-5365696D02*
X4785093Y-5405696D01*
X4785093Y-5365696D02*
X4745093Y-5405696D01*
X4767900Y-5216150D02*
X4807900Y-5256150D01*
X4807900Y-5216150D02*
X4767900Y-5256150D01*
X4767900Y-6901500D02*
X4807900Y-6941500D01*
X4807900Y-6901500D02*
X4767900Y-6941500D01*
X4767900Y-7079300D02*
X4807900Y-7119300D01*
X4807900Y-7079300D02*
X4767900Y-7119300D01*
X4856800Y-6825300D02*
X4896800Y-6865300D01*
X4896800Y-6825300D02*
X4856800Y-6865300D01*
X5263200Y-6393500D02*
X5303200Y-6433500D01*
X5303200Y-6393500D02*
X5263200Y-6433500D01*
X5536250Y-6488750D02*
X5576250Y-6528750D01*
X5576250Y-6488750D02*
X5536250Y-6528750D01*
X5695000Y-6568125D02*
X5735000Y-6608125D01*
X5735000Y-6568125D02*
X5695000Y-6608125D01*
X5933125Y-6488750D02*
X5973125Y-6528750D01*
X5973125Y-6488750D02*
X5933125Y-6528750D01*
X6012500Y-6568125D02*
X6052500Y-6608125D01*
X6052500Y-6568125D02*
X6012500Y-6608125D01*
X6250625Y-6568125D02*
X6290625Y-6608125D01*
X6290625Y-6568125D02*
X6250625Y-6608125D01*
X6330000Y-2837500D02*
X6370000Y-2877500D01*
X6370000Y-2837500D02*
X6330000Y-2877500D01*
X6330000Y-4742500D02*
X6370000Y-4782500D01*
X6370000Y-4742500D02*
X6330000Y-4782500D01*
X6330000Y-5216150D02*
X6370000Y-5256150D01*
X6370000Y-5216150D02*
X6330000Y-5256150D01*
X6330000Y-6647500D02*
X6370000Y-6687500D01*
X6370000Y-6647500D02*
X6330000Y-6687500D01*
X6330000Y-6825300D02*
X6370000Y-6865300D01*
X6370000Y-6825300D02*
X6330000Y-6865300D01*
X6330000Y-8552500D02*
X6370000Y-8592500D01*
X6370000Y-8552500D02*
X6330000Y-8592500D01*
X6342700Y-5368550D02*
X6382700Y-5408550D01*
X6382700Y-5368550D02*
X6342700Y-5408550D01*
X6342700Y-5517200D02*
X6382700Y-5557200D01*
X6382700Y-5517200D02*
X6342700Y-5557200D01*
X6368100Y-7079300D02*
X6408100Y-7119300D01*
X6408100Y-7079300D02*
X6368100Y-7119300D01*
X6393500Y-6914200D02*
X6433500Y-6954200D01*
X6433500Y-6914200D02*
X6393500Y-6954200D01*
X6409375Y-6488750D02*
X6449375Y-6528750D01*
X6449375Y-6488750D02*
X6409375Y-6528750D01*
X6431600Y-4831400D02*
X6471600Y-4871400D01*
X6471600Y-4831400D02*
X6431600Y-4871400D01*
X6431600Y-5292350D02*
X6471600Y-5332350D01*
X6471600Y-5292350D02*
X6431600Y-5332350D01*
X6431600Y-5441000D02*
X6471600Y-5481000D01*
X6471600Y-5441000D02*
X6431600Y-5481000D01*
X6432175Y-5593400D02*
X6472175Y-5633400D01*
X6472175Y-5593400D02*
X6432175Y-5633400D01*
X6432175Y-6736400D02*
X6472175Y-6776400D01*
X6472175Y-6736400D02*
X6432175Y-6776400D01*
X6577075Y-5441000D02*
X6617075Y-5481000D01*
X6617075Y-5441000D02*
X6577075Y-5481000D01*
X6577075Y-5593400D02*
X6617075Y-5633400D01*
X6617075Y-5593400D02*
X6577075Y-5633400D01*
X6577075Y-6488750D02*
X6617075Y-6528750D01*
X6617075Y-6488750D02*
X6577075Y-6528750D01*
X6584000Y-4831400D02*
X6624000Y-4871400D01*
X6624000Y-4831400D02*
X6584000Y-4871400D01*
X6584000Y-6914200D02*
X6624000Y-6954200D01*
X6624000Y-6914200D02*
X6584000Y-6954200D01*
X6585062Y-5286752D02*
X6625062Y-5326752D01*
X6625062Y-5286752D02*
X6585062Y-5326752D01*
X6622100Y-7092000D02*
X6662100Y-7132000D01*
X6662100Y-7092000D02*
X6622100Y-7132000D01*
X6647500Y-2837500D02*
X6687500Y-2877500D01*
X6687500Y-2837500D02*
X6647500Y-2877500D01*
X6647500Y-4742500D02*
X6687500Y-4782500D01*
X6687500Y-4742500D02*
X6647500Y-4782500D01*
X6647500Y-5364800D02*
X6687500Y-5404800D01*
X6687500Y-5364800D02*
X6647500Y-5404800D01*
X6647500Y-6647500D02*
X6687500Y-6687500D01*
X6687500Y-6647500D02*
X6647500Y-6687500D01*
X6647500Y-8552500D02*
X6687500Y-8592500D01*
X6687500Y-8552500D02*
X6647500Y-8592500D01*
X6660200Y-5517200D02*
X6700200Y-5557200D01*
X6700200Y-5517200D02*
X6660200Y-5557200D01*
X6660200Y-6825300D02*
X6700200Y-6865300D01*
X6700200Y-6825300D02*
X6660200Y-6865300D01*
X6672900Y-5212400D02*
X6712900Y-5252400D01*
X6712900Y-5212400D02*
X6672900Y-5252400D01*
X6711487Y-6724284D02*
X6751487Y-6764284D01*
X6751487Y-6724284D02*
X6711487Y-6764284D01*
X6726875Y-6568125D02*
X6766875Y-6608125D01*
X6766875Y-6568125D02*
X6726875Y-6608125D01*
X7440625Y-6575050D02*
X7480625Y-6615050D01*
X7480625Y-6575050D02*
X7440625Y-6615050D01*
X7520625Y-6488750D02*
X7560625Y-6528750D01*
X7560625Y-6488750D02*
X7520625Y-6528750D01*
X7838125Y-6488750D02*
X7878125Y-6528750D01*
X7878125Y-6488750D02*
X7838125Y-6528750D01*
X7917500Y-6568125D02*
X7957500Y-6608125D01*
X7957500Y-6568125D02*
X7917500Y-6608125D01*
X8155625Y-6568125D02*
X8195625Y-6608125D01*
X8195625Y-6568125D02*
X8155625Y-6608125D01*
X8158800Y-6723700D02*
X8198800Y-6763700D01*
X8198800Y-6723700D02*
X8158800Y-6763700D01*
X8222300Y-4907600D02*
X8262300Y-4947600D01*
X8262300Y-4907600D02*
X8222300Y-4947600D01*
X8235000Y-2837500D02*
X8275000Y-2877500D01*
X8275000Y-2837500D02*
X8235000Y-2877500D01*
X8235000Y-4742500D02*
X8275000Y-4782500D01*
X8275000Y-4742500D02*
X8235000Y-4782500D01*
X8235000Y-6647500D02*
X8275000Y-6687500D01*
X8275000Y-6647500D02*
X8235000Y-6687500D01*
X8235000Y-8552500D02*
X8275000Y-8592500D01*
X8275000Y-8552500D02*
X8235000Y-8592500D01*
X8247700Y-5517200D02*
X8287700Y-5557200D01*
X8287700Y-5517200D02*
X8247700Y-5557200D01*
X8250866Y-5364800D02*
X8290866Y-5404800D01*
X8290866Y-5364800D02*
X8250866Y-5404800D01*
X8260400Y-5212400D02*
X8300400Y-5252400D01*
X8300400Y-5212400D02*
X8260400Y-5252400D01*
X8298500Y-7092000D02*
X8338500Y-7132000D01*
X8338500Y-7092000D02*
X8298500Y-7132000D01*
X8314375Y-6488750D02*
X8354375Y-6528750D01*
X8354375Y-6488750D02*
X8314375Y-6528750D01*
X8323900Y-5441000D02*
X8363900Y-5481000D01*
X8363900Y-5441000D02*
X8323900Y-5481000D01*
X8323900Y-6812600D02*
X8363900Y-6852600D01*
X8363900Y-6812600D02*
X8323900Y-6852600D01*
X8336600Y-4831400D02*
X8376600Y-4871400D01*
X8376600Y-4831400D02*
X8336600Y-4871400D01*
X8336600Y-5288600D02*
X8376600Y-5328600D01*
X8376600Y-5288600D02*
X8336600Y-5328600D01*
X8336600Y-5593400D02*
X8376600Y-5633400D01*
X8376600Y-5593400D02*
X8336600Y-5633400D01*
X8482075Y-4831400D02*
X8522075Y-4871400D01*
X8522075Y-4831400D02*
X8482075Y-4871400D01*
X8482075Y-5292350D02*
X8522075Y-5332350D01*
X8522075Y-5292350D02*
X8482075Y-5332350D01*
X8482075Y-6488750D02*
X8522075Y-6528750D01*
X8522075Y-6488750D02*
X8482075Y-6528750D01*
X8489000Y-5593400D02*
X8529000Y-5633400D01*
X8529000Y-5593400D02*
X8489000Y-5633400D01*
X8489835Y-5439144D02*
X8529835Y-5479144D01*
X8529835Y-5439144D02*
X8489835Y-5479144D01*
X8514400Y-6812600D02*
X8554400Y-6852600D01*
X8554400Y-6812600D02*
X8514400Y-6852600D01*
X8539800Y-7092000D02*
X8579800Y-7132000D01*
X8579800Y-7092000D02*
X8539800Y-7132000D01*
X8552500Y-2837500D02*
X8592500Y-2877500D01*
X8592500Y-2837500D02*
X8552500Y-2877500D01*
X8552500Y-4742500D02*
X8592500Y-4782500D01*
X8592500Y-4742500D02*
X8552500Y-4782500D01*
X8552500Y-6647500D02*
X8592500Y-6687500D01*
X8592500Y-6647500D02*
X8552500Y-6687500D01*
X8552500Y-8552500D02*
X8592500Y-8592500D01*
X8592500Y-8552500D02*
X8552500Y-8592500D01*
X8552987Y-5516616D02*
X8592987Y-5556616D01*
X8592987Y-5516616D02*
X8552987Y-5556616D01*
X8565200Y-4907600D02*
X8605200Y-4947600D01*
X8605200Y-4907600D02*
X8565200Y-4947600D01*
X8565200Y-5364800D02*
X8605200Y-5404800D01*
X8605200Y-5364800D02*
X8565200Y-5404800D01*
X8577900Y-5212400D02*
X8617900Y-5252400D01*
X8617900Y-5212400D02*
X8577900Y-5252400D01*
X8628700Y-6719950D02*
X8668700Y-6759950D01*
X8668700Y-6719950D02*
X8628700Y-6759950D01*
X8631875Y-6568125D02*
X8671875Y-6608125D01*
X8671875Y-6568125D02*
X8631875Y-6608125D01*
X9425625Y-6488750D02*
X9465625Y-6528750D01*
X9465625Y-6488750D02*
X9425625Y-6528750D01*
X9505000Y-6568125D02*
X9545000Y-6608125D01*
X9545000Y-6568125D02*
X9505000Y-6608125D01*
X9743125Y-6488750D02*
X9783125Y-6528750D01*
X9783125Y-6488750D02*
X9743125Y-6528750D01*
X9822500Y-6568125D02*
X9862500Y-6608125D01*
X9862500Y-6568125D02*
X9822500Y-6608125D01*
X10051100Y-6723700D02*
X10091100Y-6763700D01*
X10091100Y-6723700D02*
X10051100Y-6763700D01*
X10060625Y-6568125D02*
X10100625Y-6608125D01*
X10100625Y-6568125D02*
X10060625Y-6608125D01*
X10127300Y-4903850D02*
X10167300Y-4943850D01*
X10167300Y-4903850D02*
X10127300Y-4943850D01*
X10140000Y-2837500D02*
X10180000Y-2877500D01*
X10180000Y-2837500D02*
X10140000Y-2877500D01*
X10140000Y-4742500D02*
X10180000Y-4782500D01*
X10180000Y-4742500D02*
X10140000Y-4782500D01*
X10140000Y-5364800D02*
X10180000Y-5404800D01*
X10180000Y-5364800D02*
X10140000Y-5404800D01*
X10140000Y-5517200D02*
X10180000Y-5557200D01*
X10180000Y-5517200D02*
X10140000Y-5557200D01*
X10140000Y-6647500D02*
X10180000Y-6687500D01*
X10180000Y-6647500D02*
X10140000Y-6687500D01*
X10140000Y-8552500D02*
X10180000Y-8592500D01*
X10180000Y-8552500D02*
X10140000Y-8592500D01*
X10152700Y-5219900D02*
X10192700Y-5259900D01*
X10192700Y-5219900D02*
X10152700Y-5259900D01*
X10216200Y-5441000D02*
X10256200Y-5481000D01*
X10256200Y-5441000D02*
X10216200Y-5481000D01*
X10219375Y-6488750D02*
X10259375Y-6528750D01*
X10259375Y-6488750D02*
X10219375Y-6528750D01*
X10228900Y-4983800D02*
X10268900Y-5023800D01*
X10268900Y-4983800D02*
X10228900Y-5023800D01*
X10228900Y-5292350D02*
X10268900Y-5332350D01*
X10268900Y-5292350D02*
X10228900Y-5332350D01*
X10228900Y-5593400D02*
X10268900Y-5633400D01*
X10268900Y-5593400D02*
X10228900Y-5633400D01*
X10228900Y-7092000D02*
X10268900Y-7132000D01*
X10268900Y-7092000D02*
X10228900Y-7132000D01*
X10241600Y-4831400D02*
X10281600Y-4871400D01*
X10281600Y-4831400D02*
X10241600Y-4871400D01*
X10387075Y-4831400D02*
X10427075Y-4871400D01*
X10427075Y-4831400D02*
X10387075Y-4871400D01*
X10387075Y-6488750D02*
X10427075Y-6528750D01*
X10427075Y-6488750D02*
X10387075Y-6528750D01*
X10394000Y-5292350D02*
X10434000Y-5332350D01*
X10434000Y-5292350D02*
X10394000Y-5332350D01*
X10394000Y-5593400D02*
X10434000Y-5633400D01*
X10434000Y-5593400D02*
X10394000Y-5633400D01*
X10399525Y-5444750D02*
X10439525Y-5484750D01*
X10439525Y-5444750D02*
X10399525Y-5484750D01*
X10419400Y-4983800D02*
X10459400Y-5023800D01*
X10459400Y-4983800D02*
X10419400Y-5023800D01*
X10457500Y-2837500D02*
X10497500Y-2877500D01*
X10497500Y-2837500D02*
X10457500Y-2877500D01*
X10457500Y-4742500D02*
X10497500Y-4782500D01*
X10497500Y-4742500D02*
X10457500Y-4782500D01*
X10457500Y-6647500D02*
X10497500Y-6687500D01*
X10497500Y-6647500D02*
X10457500Y-6687500D01*
X10457500Y-6647500D02*
X10497500Y-6687500D01*
X10497500Y-6647500D02*
X10457500Y-6687500D01*
X10457500Y-8552500D02*
X10497500Y-8592500D01*
X10497500Y-8552500D02*
X10457500Y-8592500D01*
X10470200Y-5517200D02*
X10510200Y-5557200D01*
X10510200Y-5517200D02*
X10470200Y-5557200D01*
X10482146Y-5219850D02*
X10522146Y-5259850D01*
X10522146Y-5219850D02*
X10482146Y-5259850D01*
X10508300Y-4903850D02*
X10548300Y-4943850D01*
X10548300Y-4903850D02*
X10508300Y-4943850D01*
X10508300Y-5364800D02*
X10548300Y-5404800D01*
X10548300Y-5364800D02*
X10508300Y-5404800D01*
X10536875Y-6568125D02*
X10576875Y-6608125D01*
X10576875Y-6568125D02*
X10536875Y-6608125D01*
X10559100Y-6719950D02*
X10599100Y-6759950D01*
X10599100Y-6719950D02*
X10559100Y-6759950D01*
X11251250Y-6568125D02*
X11291250Y-6608125D01*
X11291250Y-6568125D02*
X11251250Y-6608125D01*
X11330625Y-6488750D02*
X11370625Y-6528750D01*
X11370625Y-6488750D02*
X11330625Y-6528750D01*
X11489375Y-6647500D02*
X11529375Y-6687500D01*
X11529375Y-6647500D02*
X11489375Y-6687500D01*
X11489375Y-6792400D02*
X11529375Y-6832400D01*
X11529375Y-6792400D02*
X11489375Y-6832400D01*
X11568750Y-6568125D02*
X11608750Y-6608125D01*
X11608750Y-6568125D02*
X11568750Y-6608125D01*
X11664000Y-5056250D02*
X11704000Y-5096250D01*
X11704000Y-5056250D02*
X11664000Y-5096250D01*
X11735000Y-6390000D02*
X11775000Y-6430000D01*
X11775000Y-6390000D02*
X11735000Y-6430000D01*
X11841800Y-5910900D02*
X11881800Y-5950900D01*
X11881800Y-5910900D02*
X11841800Y-5950900D01*
X11930700Y-5034600D02*
X11970700Y-5074600D01*
X11970700Y-5034600D02*
X11930700Y-5074600D01*
X11930700Y-6025200D02*
X11970700Y-6065200D01*
X11970700Y-6025200D02*
X11930700Y-6065200D01*
X12019600Y-5123500D02*
X12059600Y-5163500D01*
X12059600Y-5123500D02*
X12019600Y-5163500D01*
X12019600Y-5961700D02*
X12059600Y-6001700D01*
X12059600Y-5961700D02*
X12019600Y-6001700D01*
X12108500Y-5228175D02*
X12148500Y-5268175D01*
X12148500Y-5228175D02*
X12108500Y-5268175D01*
X12108500Y-5873075D02*
X12148500Y-5913075D01*
X12148500Y-5873075D02*
X12108500Y-5913075D01*
X12175000Y-7405000D02*
X12215000Y-7445000D01*
X12215000Y-7405000D02*
X12175000Y-7445000D01*
X12251950Y-6700000D02*
X12291950Y-6740000D01*
X12291950Y-6700000D02*
X12251950Y-6740000D01*
X12260900Y-4679000D02*
X12300900Y-4719000D01*
X12300900Y-4679000D02*
X12260900Y-4719000D01*
X12324400Y-4971100D02*
X12364400Y-5011100D01*
X12364400Y-4971100D02*
X12324400Y-5011100D01*
X12420000Y-6905000D02*
X12460000Y-6945000D01*
X12460000Y-6905000D02*
X12420000Y-6945000D01*
D11*
X2581000Y-5125625D02*
G75*
G03*
X2581000Y-5125625I-50000J0D01*
G01*
X2581000Y-5379625D02*
G75*
G03*
X2581000Y-5379625I-50000J0D01*
G01*
X2581000Y-5633625D02*
G75*
G03*
X2581000Y-5633625I-50000J0D01*
G01*
X2581000Y-5887625D02*
G75*
G03*
X2581000Y-5887625I-50000J0D01*
G01*
X2581000Y-6141625D02*
G75*
G03*
X2581000Y-6141625I-50000J0D01*
G01*
X2581000Y-6395625D02*
G75*
G03*
X2581000Y-6395625I-50000J0D01*
G01*
X2581000Y-6649625D02*
G75*
G03*
X2581000Y-6649625I-50000J0D01*
G01*
X2581000Y-6903625D02*
G75*
G03*
X2581000Y-6903625I-50000J0D01*
G01*
X2581000Y-7157625D02*
G75*
G03*
X2581000Y-7157625I-50000J0D01*
G01*
X2581000Y-7411625D02*
G75*
G03*
X2581000Y-7411625I-50000J0D01*
G01*
X2835000Y-5125625D02*
G75*
G03*
X2835000Y-5125625I-50000J0D01*
G01*
X2835000Y-5379625D02*
G75*
G03*
X2835000Y-5379625I-50000J0D01*
G01*
X2835000Y-5633625D02*
G75*
G03*
X2835000Y-5633625I-50000J0D01*
G01*
X2835000Y-5887625D02*
G75*
G03*
X2835000Y-5887625I-50000J0D01*
G01*
X2835000Y-6141625D02*
G75*
G03*
X2835000Y-6141625I-50000J0D01*
G01*
X2835000Y-6395625D02*
G75*
G03*
X2835000Y-6395625I-50000J0D01*
G01*
X2835000Y-6649625D02*
G75*
G03*
X2835000Y-6649625I-50000J0D01*
G01*
X2835000Y-6903625D02*
G75*
G03*
X2835000Y-6903625I-50000J0D01*
G01*
X2835000Y-7157625D02*
G75*
G03*
X2835000Y-7157625I-50000J0D01*
G01*
X2835000Y-7411625D02*
G75*
G03*
X2835000Y-7411625I-50000J0D01*
G01*
X12734125Y-5143500D02*
G75*
G03*
X12734125Y-5143500I-50000J0D01*
G01*
X12734125Y-5397500D02*
G75*
G03*
X12734125Y-5397500I-50000J0D01*
G01*
X12734125Y-5651500D02*
G75*
G03*
X12734125Y-5651500I-50000J0D01*
G01*
X12734125Y-5905500D02*
G75*
G03*
X12734125Y-5905500I-50000J0D01*
G01*
X12734125Y-6159500D02*
G75*
G03*
X12734125Y-6159500I-50000J0D01*
G01*
X12734125Y-6413500D02*
G75*
G03*
X12734125Y-6413500I-50000J0D01*
G01*
X12734125Y-6667500D02*
G75*
G03*
X12734125Y-6667500I-50000J0D01*
G01*
X12734125Y-6921500D02*
G75*
G03*
X12734125Y-6921500I-50000J0D01*
G01*
X12734125Y-7175500D02*
G75*
G03*
X12734125Y-7175500I-50000J0D01*
G01*
X12734125Y-7429500D02*
G75*
G03*
X12734125Y-7429500I-50000J0D01*
G01*
X12988125Y-5143500D02*
G75*
G03*
X12988125Y-5143500I-50000J0D01*
G01*
X12988125Y-5397500D02*
G75*
G03*
X12988125Y-5397500I-50000J0D01*
G01*
X12988125Y-5651500D02*
G75*
G03*
X12988125Y-5651500I-50000J0D01*
G01*
X12988125Y-5905500D02*
G75*
G03*
X12988125Y-5905500I-50000J0D01*
G01*
X12988125Y-6159500D02*
G75*
G03*
X12988125Y-6159500I-50000J0D01*
G01*
X12988125Y-6413500D02*
G75*
G03*
X12988125Y-6413500I-50000J0D01*
G01*
X12988125Y-6667500D02*
G75*
G03*
X12988125Y-6667500I-50000J0D01*
G01*
X12988125Y-6921500D02*
G75*
G03*
X12988125Y-6921500I-50000J0D01*
G01*
X12988125Y-7175500D02*
G75*
G03*
X12988125Y-7175500I-50000J0D01*
G01*
X12988125Y-7429500D02*
G75*
G03*
X12988125Y-7429500I-50000J0D01*
G01*
D14*
X4619625Y-2133125D02*
X4619625Y-2280125D01*
X4546125Y-2206625D02*
X4693125Y-2206625D01*
X4619625Y-4038125D02*
X4619625Y-4185125D01*
X4546125Y-4111625D02*
X4693125Y-4111625D01*
X4619625Y-5943125D02*
X4619625Y-6090125D01*
X4546125Y-6016625D02*
X4693125Y-6016625D01*
X4619625Y-7848125D02*
X4619625Y-7995125D01*
X4546125Y-7921625D02*
X4693125Y-7921625D01*
X4619625Y-9753125D02*
X4619625Y-9900125D01*
X4546125Y-9826625D02*
X4693125Y-9826625D01*
X4750625Y-1987125D02*
X4750625Y-2134125D01*
X4677125Y-2060625D02*
X4824125Y-2060625D01*
X4750625Y-3892125D02*
X4750625Y-4039125D01*
X4677125Y-3965625D02*
X4824125Y-3965625D01*
X4750625Y-5797125D02*
X4750625Y-5944125D01*
X4677125Y-5870625D02*
X4824125Y-5870625D01*
X4750625Y-7702125D02*
X4750625Y-7849125D01*
X4677125Y-7775625D02*
X4824125Y-7775625D01*
X4750625Y-9607125D02*
X4750625Y-9754125D01*
X4677125Y-9680625D02*
X4824125Y-9680625D01*
X5250625Y-1937125D02*
X5250625Y-2084125D01*
X5177125Y-2010625D02*
X5324125Y-2010625D01*
X5250625Y-3842125D02*
X5250625Y-3989125D01*
X5177125Y-3915625D02*
X5324125Y-3915625D01*
X5250625Y-5747125D02*
X5250625Y-5894125D01*
X5177125Y-5820625D02*
X5324125Y-5820625D01*
X5250625Y-7652125D02*
X5250625Y-7799125D01*
X5177125Y-7725625D02*
X5324125Y-7725625D01*
X5250625Y-9557125D02*
X5250625Y-9704125D01*
X5177125Y-9630625D02*
X5324125Y-9630625D01*
X5254625Y-1879125D02*
X5254625Y-2026125D01*
X5181125Y-1952625D02*
X5328125Y-1952625D01*
X5254625Y-3784125D02*
X5254625Y-3931125D01*
X5181125Y-3857625D02*
X5328125Y-3857625D01*
X5254625Y-5689125D02*
X5254625Y-5836125D01*
X5181125Y-5762625D02*
X5328125Y-5762625D01*
X5254625Y-7594125D02*
X5254625Y-7741125D01*
X5181125Y-7667625D02*
X5328125Y-7667625D01*
X5254625Y-9499125D02*
X5254625Y-9646125D01*
X5181125Y-9572625D02*
X5328125Y-9572625D01*
X6524625Y-2133125D02*
X6524625Y-2280125D01*
X6451125Y-2206625D02*
X6598125Y-2206625D01*
X6524625Y-4038125D02*
X6524625Y-4185125D01*
X6451125Y-4111625D02*
X6598125Y-4111625D01*
X6524625Y-5943125D02*
X6524625Y-6090125D01*
X6451125Y-6016625D02*
X6598125Y-6016625D01*
X6524625Y-7848125D02*
X6524625Y-7995125D01*
X6451125Y-7921625D02*
X6598125Y-7921625D01*
X6524625Y-9753125D02*
X6524625Y-9900125D01*
X6451125Y-9826625D02*
X6598125Y-9826625D01*
X6655625Y-1987125D02*
X6655625Y-2134125D01*
X6582125Y-2060625D02*
X6729125Y-2060625D01*
X6655625Y-3892125D02*
X6655625Y-4039125D01*
X6582125Y-3965625D02*
X6729125Y-3965625D01*
X6655625Y-5797125D02*
X6655625Y-5944125D01*
X6582125Y-5870625D02*
X6729125Y-5870625D01*
X6655625Y-7702125D02*
X6655625Y-7849125D01*
X6582125Y-7775625D02*
X6729125Y-7775625D01*
X6655625Y-9607125D02*
X6655625Y-9754125D01*
X6582125Y-9680625D02*
X6729125Y-9680625D01*
X7155625Y-1937125D02*
X7155625Y-2084125D01*
X7082125Y-2010625D02*
X7229125Y-2010625D01*
X7155625Y-3842125D02*
X7155625Y-3989125D01*
X7082125Y-3915625D02*
X7229125Y-3915625D01*
X7155625Y-5747125D02*
X7155625Y-5894125D01*
X7082125Y-5820625D02*
X7229125Y-5820625D01*
X7155625Y-7652125D02*
X7155625Y-7799125D01*
X7082125Y-7725625D02*
X7229125Y-7725625D01*
X7155625Y-9557125D02*
X7155625Y-9704125D01*
X7082125Y-9630625D02*
X7229125Y-9630625D01*
X7159625Y-1879125D02*
X7159625Y-2026125D01*
X7086125Y-1952625D02*
X7233125Y-1952625D01*
X7159625Y-3784125D02*
X7159625Y-3931125D01*
X7086125Y-3857625D02*
X7233125Y-3857625D01*
X7159625Y-5689125D02*
X7159625Y-5836125D01*
X7086125Y-5762625D02*
X7233125Y-5762625D01*
X7159625Y-7594125D02*
X7159625Y-7741125D01*
X7086125Y-7667625D02*
X7233125Y-7667625D01*
X7159625Y-9499125D02*
X7159625Y-9646125D01*
X7086125Y-9572625D02*
X7233125Y-9572625D01*
X8429625Y-2133125D02*
X8429625Y-2280125D01*
X8356125Y-2206625D02*
X8503125Y-2206625D01*
X8429625Y-4038125D02*
X8429625Y-4185125D01*
X8356125Y-4111625D02*
X8503125Y-4111625D01*
X8429625Y-5943125D02*
X8429625Y-6090125D01*
X8356125Y-6016625D02*
X8503125Y-6016625D01*
X8429625Y-7848125D02*
X8429625Y-7995125D01*
X8356125Y-7921625D02*
X8503125Y-7921625D01*
X8429625Y-9753125D02*
X8429625Y-9900125D01*
X8356125Y-9826625D02*
X8503125Y-9826625D01*
X8560625Y-1987125D02*
X8560625Y-2134125D01*
X8487125Y-2060625D02*
X8634125Y-2060625D01*
X8560625Y-3892125D02*
X8560625Y-4039125D01*
X8487125Y-3965625D02*
X8634125Y-3965625D01*
X8560625Y-5797125D02*
X8560625Y-5944125D01*
X8487125Y-5870625D02*
X8634125Y-5870625D01*
X8560625Y-7702125D02*
X8560625Y-7849125D01*
X8487125Y-7775625D02*
X8634125Y-7775625D01*
X8560625Y-9607125D02*
X8560625Y-9754125D01*
X8487125Y-9680625D02*
X8634125Y-9680625D01*
X9060625Y-1937125D02*
X9060625Y-2084125D01*
X8987125Y-2010625D02*
X9134125Y-2010625D01*
X9060625Y-3842125D02*
X9060625Y-3989125D01*
X8987125Y-3915625D02*
X9134125Y-3915625D01*
X9060625Y-5747125D02*
X9060625Y-5894125D01*
X8987125Y-5820625D02*
X9134125Y-5820625D01*
X9060625Y-7652125D02*
X9060625Y-7799125D01*
X8987125Y-7725625D02*
X9134125Y-7725625D01*
X9060625Y-9557125D02*
X9060625Y-9704125D01*
X8987125Y-9630625D02*
X9134125Y-9630625D01*
X9064625Y-1879125D02*
X9064625Y-2026125D01*
X8991125Y-1952625D02*
X9138125Y-1952625D01*
X9064625Y-3784125D02*
X9064625Y-3931125D01*
X8991125Y-3857625D02*
X9138125Y-3857625D01*
X9064625Y-5689125D02*
X9064625Y-5836125D01*
X8991125Y-5762625D02*
X9138125Y-5762625D01*
X9064625Y-7594125D02*
X9064625Y-7741125D01*
X8991125Y-7667625D02*
X9138125Y-7667625D01*
X9064625Y-9499125D02*
X9064625Y-9646125D01*
X8991125Y-9572625D02*
X9138125Y-9572625D01*
X10334625Y-2133125D02*
X10334625Y-2280125D01*
X10261125Y-2206625D02*
X10408125Y-2206625D01*
X10334625Y-4038125D02*
X10334625Y-4185125D01*
X10261125Y-4111625D02*
X10408125Y-4111625D01*
X10334625Y-5943125D02*
X10334625Y-6090125D01*
X10261125Y-6016625D02*
X10408125Y-6016625D01*
X10334625Y-7848125D02*
X10334625Y-7995125D01*
X10261125Y-7921625D02*
X10408125Y-7921625D01*
X10334625Y-9753125D02*
X10334625Y-9900125D01*
X10261125Y-9826625D02*
X10408125Y-9826625D01*
X10465625Y-1987125D02*
X10465625Y-2134125D01*
X10392125Y-2060625D02*
X10539125Y-2060625D01*
X10465625Y-3892125D02*
X10465625Y-4039125D01*
X10392125Y-3965625D02*
X10539125Y-3965625D01*
X10465625Y-5797125D02*
X10465625Y-5944125D01*
X10392125Y-5870625D02*
X10539125Y-5870625D01*
X10465625Y-7702125D02*
X10465625Y-7849125D01*
X10392125Y-7775625D02*
X10539125Y-7775625D01*
X10465625Y-9607125D02*
X10465625Y-9754125D01*
X10392125Y-9680625D02*
X10539125Y-9680625D01*
X10965625Y-1937125D02*
X10965625Y-2084125D01*
X10892125Y-2010625D02*
X11039125Y-2010625D01*
X10965625Y-3842125D02*
X10965625Y-3989125D01*
X10892125Y-3915625D02*
X11039125Y-3915625D01*
X10965625Y-5747125D02*
X10965625Y-5894125D01*
X10892125Y-5820625D02*
X11039125Y-5820625D01*
X10965625Y-7652125D02*
X10965625Y-7799125D01*
X10892125Y-7725625D02*
X11039125Y-7725625D01*
X10965625Y-9557125D02*
X10965625Y-9704125D01*
X10892125Y-9630625D02*
X11039125Y-9630625D01*
X10969625Y-1879125D02*
X10969625Y-2026125D01*
X10896125Y-1952625D02*
X11043125Y-1952625D01*
X10969625Y-3784125D02*
X10969625Y-3931125D01*
X10896125Y-3857625D02*
X11043125Y-3857625D01*
X10969625Y-5689125D02*
X10969625Y-5836125D01*
X10896125Y-5762625D02*
X11043125Y-5762625D01*
X10969625Y-7594125D02*
X10969625Y-7741125D01*
X10896125Y-7667625D02*
X11043125Y-7667625D01*
X10969625Y-9499125D02*
X10969625Y-9646125D01*
X10896125Y-9572625D02*
X11043125Y-9572625D01*
D12*
X2631369Y-11351101D02*
X2631369Y-11151101D01*
X2678988Y-11151101D01*
X2707560Y-11160625D01*
X2726607Y-11179673D01*
X2736131Y-11198720D01*
X2745655Y-11236815D01*
X2745655Y-11265387D01*
X2736131Y-11303482D01*
X2726607Y-11322530D01*
X2707560Y-11341577D01*
X2678988Y-11351101D01*
X2631369Y-11351101D01*
X2831369Y-11351101D02*
X2831369Y-11217768D01*
X2831369Y-11255863D02*
X2840893Y-11236815D01*
X2850417Y-11227292D01*
X2869464Y-11217768D01*
X2888512Y-11217768D01*
X2955178Y-11351101D02*
X2955178Y-11217768D01*
X2955178Y-11151101D02*
X2945655Y-11160625D01*
X2955178Y-11170149D01*
X2964702Y-11160625D01*
X2955178Y-11151101D01*
X2955178Y-11170149D01*
X3078988Y-11351101D02*
X3059940Y-11341577D01*
X3050417Y-11322530D01*
X3050417Y-11151101D01*
X3183750Y-11351101D02*
X3164702Y-11341577D01*
X3155178Y-11322530D01*
X3155178Y-11151101D01*
X3412321Y-11351101D02*
X3412321Y-11151101D01*
X3478988Y-11293958D01*
X3545655Y-11151101D01*
X3545655Y-11351101D01*
X3726607Y-11351101D02*
X3726607Y-11246339D01*
X3717083Y-11227292D01*
X3698036Y-11217768D01*
X3659940Y-11217768D01*
X3640893Y-11227292D01*
X3726607Y-11341577D02*
X3707559Y-11351101D01*
X3659940Y-11351101D01*
X3640893Y-11341577D01*
X3631369Y-11322530D01*
X3631369Y-11303482D01*
X3640893Y-11284434D01*
X3659940Y-11274911D01*
X3707559Y-11274911D01*
X3726607Y-11265387D01*
X3821845Y-11217768D02*
X3821845Y-11417768D01*
X3821845Y-11227292D02*
X3840893Y-11217768D01*
X3878988Y-11217768D01*
X3898036Y-11227292D01*
X3907559Y-11236815D01*
X3917083Y-11255863D01*
X3917083Y-11313006D01*
X3907559Y-11332053D01*
X3898036Y-11341577D01*
X3878988Y-11351101D01*
X3840893Y-11351101D01*
X3821845Y-11341577D01*
X4002798Y-11332053D02*
X4012321Y-11341577D01*
X4002798Y-11351101D01*
X3993274Y-11341577D01*
X4002798Y-11332053D01*
X4002798Y-11351101D01*
X4002798Y-11227292D02*
X4012321Y-11236815D01*
X4002798Y-11246339D01*
X3993274Y-11236815D01*
X4002798Y-11227292D01*
X4002798Y-11246339D01*
D13*
X2333750Y-11660625D02*
X2373750Y-11700625D01*
X2373750Y-11660625D02*
X2333750Y-11700625D01*
D12*
X2669464Y-11571101D02*
X2688512Y-11571101D01*
X2707560Y-11580625D01*
X2717083Y-11590149D01*
X2726607Y-11609196D01*
X2736131Y-11647292D01*
X2736131Y-11694911D01*
X2726607Y-11733006D01*
X2717083Y-11752053D01*
X2707560Y-11761577D01*
X2688512Y-11771101D01*
X2669464Y-11771101D01*
X2650417Y-11761577D01*
X2640893Y-11752053D01*
X2631369Y-11733006D01*
X2621845Y-11694911D01*
X2621845Y-11647292D01*
X2631369Y-11609196D01*
X2640893Y-11590149D01*
X2650417Y-11580625D01*
X2669464Y-11571101D01*
X2821845Y-11752053D02*
X2831369Y-11761577D01*
X2821845Y-11771101D01*
X2812321Y-11761577D01*
X2821845Y-11752053D01*
X2821845Y-11771101D01*
X3002798Y-11637768D02*
X3002798Y-11771101D01*
X2955178Y-11561577D02*
X2907559Y-11704434D01*
X3031369Y-11704434D01*
X3145655Y-11571101D02*
X3164702Y-11571101D01*
X3183750Y-11580625D01*
X3193274Y-11590149D01*
X3202798Y-11609196D01*
X3212321Y-11647292D01*
X3212321Y-11694911D01*
X3202798Y-11733006D01*
X3193274Y-11752053D01*
X3183750Y-11761577D01*
X3164702Y-11771101D01*
X3145655Y-11771101D01*
X3126607Y-11761577D01*
X3117083Y-11752053D01*
X3107559Y-11733006D01*
X3098036Y-11694911D01*
X3098036Y-11647292D01*
X3107559Y-11609196D01*
X3117083Y-11590149D01*
X3126607Y-11580625D01*
X3145655Y-11571101D01*
X3336131Y-11571101D02*
X3355178Y-11571101D01*
X3374226Y-11580625D01*
X3383750Y-11590149D01*
X3393274Y-11609196D01*
X3402798Y-11647292D01*
X3402798Y-11694911D01*
X3393274Y-11733006D01*
X3383750Y-11752053D01*
X3374226Y-11761577D01*
X3355178Y-11771101D01*
X3336131Y-11771101D01*
X3317083Y-11761577D01*
X3307559Y-11752053D01*
X3298036Y-11733006D01*
X3288512Y-11694911D01*
X3288512Y-11647292D01*
X3298036Y-11609196D01*
X3307559Y-11590149D01*
X3317083Y-11580625D01*
X3336131Y-11571101D01*
X3488512Y-11771101D02*
X3488512Y-11637768D01*
X3488512Y-11656815D02*
X3498036Y-11647292D01*
X3517083Y-11637768D01*
X3545655Y-11637768D01*
X3564702Y-11647292D01*
X3574226Y-11666339D01*
X3574226Y-11771101D01*
X3574226Y-11666339D02*
X3583750Y-11647292D01*
X3602798Y-11637768D01*
X3631369Y-11637768D01*
X3650417Y-11647292D01*
X3659940Y-11666339D01*
X3659940Y-11771101D01*
X3755178Y-11771101D02*
X3755178Y-11637768D01*
X3755178Y-11656815D02*
X3764702Y-11647292D01*
X3783750Y-11637768D01*
X3812321Y-11637768D01*
X3831369Y-11647292D01*
X3840893Y-11666339D01*
X3840893Y-11771101D01*
X3840893Y-11666339D02*
X3850417Y-11647292D01*
X3869464Y-11637768D01*
X3898036Y-11637768D01*
X3917083Y-11647292D01*
X3926607Y-11666339D01*
X3926607Y-11771101D01*
X4317083Y-11561577D02*
X4145655Y-11818720D01*
X4574226Y-11571101D02*
X4593274Y-11571101D01*
X4612321Y-11580625D01*
X4621845Y-11590149D01*
X4631369Y-11609196D01*
X4640893Y-11647292D01*
X4640893Y-11694911D01*
X4631369Y-11733006D01*
X4621845Y-11752053D01*
X4612321Y-11761577D01*
X4593274Y-11771101D01*
X4574226Y-11771101D01*
X4555179Y-11761577D01*
X4545655Y-11752053D01*
X4536131Y-11733006D01*
X4526607Y-11694911D01*
X4526607Y-11647292D01*
X4536131Y-11609196D01*
X4545655Y-11590149D01*
X4555179Y-11580625D01*
X4574226Y-11571101D01*
X4726607Y-11752053D02*
X4736131Y-11761577D01*
X4726607Y-11771101D01*
X4717083Y-11761577D01*
X4726607Y-11752053D01*
X4726607Y-11771101D01*
X4859940Y-11571101D02*
X4878988Y-11571101D01*
X4898036Y-11580625D01*
X4907560Y-11590149D01*
X4917083Y-11609196D01*
X4926607Y-11647292D01*
X4926607Y-11694911D01*
X4917083Y-11733006D01*
X4907560Y-11752053D01*
X4898036Y-11761577D01*
X4878988Y-11771101D01*
X4859940Y-11771101D01*
X4840893Y-11761577D01*
X4831369Y-11752053D01*
X4821845Y-11733006D01*
X4812321Y-11694911D01*
X4812321Y-11647292D01*
X4821845Y-11609196D01*
X4831369Y-11590149D01*
X4840893Y-11580625D01*
X4859940Y-11571101D01*
X5117083Y-11771101D02*
X5002798Y-11771101D01*
X5059940Y-11771101D02*
X5059940Y-11571101D01*
X5040893Y-11599673D01*
X5021845Y-11618720D01*
X5002798Y-11628244D01*
X5298036Y-11571101D02*
X5202798Y-11571101D01*
X5193274Y-11666339D01*
X5202798Y-11656815D01*
X5221845Y-11647292D01*
X5269464Y-11647292D01*
X5288512Y-11656815D01*
X5298036Y-11666339D01*
X5307560Y-11685387D01*
X5307560Y-11733006D01*
X5298036Y-11752053D01*
X5288512Y-11761577D01*
X5269464Y-11771101D01*
X5221845Y-11771101D01*
X5202798Y-11761577D01*
X5193274Y-11752053D01*
X5374226Y-11571101D02*
X5507560Y-11571101D01*
X5421845Y-11771101D01*
X5574226Y-11571101D02*
X5574226Y-11609196D01*
X5650417Y-11571101D02*
X5650417Y-11609196D01*
X5945655Y-11847292D02*
X5936131Y-11837768D01*
X5917083Y-11809196D01*
X5907559Y-11790149D01*
X5898036Y-11761577D01*
X5888512Y-11713958D01*
X5888512Y-11675863D01*
X5898036Y-11628244D01*
X5907559Y-11599673D01*
X5917083Y-11580625D01*
X5936131Y-11552053D01*
X5945655Y-11542530D01*
X6126607Y-11771101D02*
X6012321Y-11771101D01*
X6069464Y-11771101D02*
X6069464Y-11571101D01*
X6050417Y-11599673D01*
X6031369Y-11618720D01*
X6012321Y-11628244D01*
X6193274Y-11571101D02*
X6326607Y-11571101D01*
X6240893Y-11771101D01*
X6383750Y-11571101D02*
X6507559Y-11571101D01*
X6440893Y-11647292D01*
X6469464Y-11647292D01*
X6488512Y-11656815D01*
X6498036Y-11666339D01*
X6507559Y-11685387D01*
X6507559Y-11733006D01*
X6498036Y-11752053D01*
X6488512Y-11761577D01*
X6469464Y-11771101D01*
X6412321Y-11771101D01*
X6393274Y-11761577D01*
X6383750Y-11752053D01*
X6745655Y-11771101D02*
X6745655Y-11571101D01*
X6831369Y-11771101D02*
X6831369Y-11666339D01*
X6821845Y-11647292D01*
X6802798Y-11637768D01*
X6774226Y-11637768D01*
X6755178Y-11647292D01*
X6745655Y-11656815D01*
X6955178Y-11771101D02*
X6936131Y-11761577D01*
X6926607Y-11752053D01*
X6917083Y-11733006D01*
X6917083Y-11675863D01*
X6926607Y-11656815D01*
X6936131Y-11647292D01*
X6955178Y-11637768D01*
X6983750Y-11637768D01*
X7002798Y-11647292D01*
X7012321Y-11656815D01*
X7021845Y-11675863D01*
X7021845Y-11733006D01*
X7012321Y-11752053D01*
X7002798Y-11761577D01*
X6983750Y-11771101D01*
X6955178Y-11771101D01*
X7136131Y-11771101D02*
X7117083Y-11761577D01*
X7107559Y-11742530D01*
X7107559Y-11571101D01*
X7288512Y-11761577D02*
X7269464Y-11771101D01*
X7231369Y-11771101D01*
X7212321Y-11761577D01*
X7202798Y-11742530D01*
X7202798Y-11666339D01*
X7212321Y-11647292D01*
X7231369Y-11637768D01*
X7269464Y-11637768D01*
X7288512Y-11647292D01*
X7298036Y-11666339D01*
X7298036Y-11685387D01*
X7202798Y-11704434D01*
X7374226Y-11761577D02*
X7393274Y-11771101D01*
X7431369Y-11771101D01*
X7450417Y-11761577D01*
X7459940Y-11742530D01*
X7459940Y-11733006D01*
X7450417Y-11713958D01*
X7431369Y-11704434D01*
X7402798Y-11704434D01*
X7383750Y-11694911D01*
X7374226Y-11675863D01*
X7374226Y-11666339D01*
X7383750Y-11647292D01*
X7402798Y-11637768D01*
X7431369Y-11637768D01*
X7450417Y-11647292D01*
X7526607Y-11847292D02*
X7536131Y-11837768D01*
X7555178Y-11809196D01*
X7564702Y-11790149D01*
X7574226Y-11761577D01*
X7583750Y-11713958D01*
X7583750Y-11675863D01*
X7574226Y-11628244D01*
X7564702Y-11599673D01*
X7555178Y-11580625D01*
X7536131Y-11552053D01*
X7526607Y-11542530D01*
D11*
X2373750Y-11944625D02*
G75*
G03*
X2373750Y-11944625I-50000J0D01*
G01*
D12*
X2736131Y-12035101D02*
X2621845Y-12035101D01*
X2678988Y-12035101D02*
X2678988Y-11835101D01*
X2659940Y-11863673D01*
X2640893Y-11882720D01*
X2621845Y-11892244D01*
X2821845Y-12016053D02*
X2831369Y-12025577D01*
X2821845Y-12035101D01*
X2812321Y-12025577D01*
X2821845Y-12016053D01*
X2821845Y-12035101D01*
X2955178Y-11835101D02*
X2974226Y-11835101D01*
X2993274Y-11844625D01*
X3002798Y-11854149D01*
X3012321Y-11873196D01*
X3021845Y-11911292D01*
X3021845Y-11958911D01*
X3012321Y-11997006D01*
X3002798Y-12016053D01*
X2993274Y-12025577D01*
X2974226Y-12035101D01*
X2955178Y-12035101D01*
X2936131Y-12025577D01*
X2926607Y-12016053D01*
X2917083Y-11997006D01*
X2907559Y-11958911D01*
X2907559Y-11911292D01*
X2917083Y-11873196D01*
X2926607Y-11854149D01*
X2936131Y-11844625D01*
X2955178Y-11835101D01*
X3145655Y-11835101D02*
X3164702Y-11835101D01*
X3183750Y-11844625D01*
X3193274Y-11854149D01*
X3202798Y-11873196D01*
X3212321Y-11911292D01*
X3212321Y-11958911D01*
X3202798Y-11997006D01*
X3193274Y-12016053D01*
X3183750Y-12025577D01*
X3164702Y-12035101D01*
X3145655Y-12035101D01*
X3126607Y-12025577D01*
X3117083Y-12016053D01*
X3107559Y-11997006D01*
X3098036Y-11958911D01*
X3098036Y-11911292D01*
X3107559Y-11873196D01*
X3117083Y-11854149D01*
X3126607Y-11844625D01*
X3145655Y-11835101D01*
X3336131Y-11835101D02*
X3355178Y-11835101D01*
X3374226Y-11844625D01*
X3383750Y-11854149D01*
X3393274Y-11873196D01*
X3402798Y-11911292D01*
X3402798Y-11958911D01*
X3393274Y-11997006D01*
X3383750Y-12016053D01*
X3374226Y-12025577D01*
X3355178Y-12035101D01*
X3336131Y-12035101D01*
X3317083Y-12025577D01*
X3307559Y-12016053D01*
X3298036Y-11997006D01*
X3288512Y-11958911D01*
X3288512Y-11911292D01*
X3298036Y-11873196D01*
X3307559Y-11854149D01*
X3317083Y-11844625D01*
X3336131Y-11835101D01*
X3488512Y-12035101D02*
X3488512Y-11901768D01*
X3488512Y-11920815D02*
X3498036Y-11911292D01*
X3517083Y-11901768D01*
X3545655Y-11901768D01*
X3564702Y-11911292D01*
X3574226Y-11930339D01*
X3574226Y-12035101D01*
X3574226Y-11930339D02*
X3583750Y-11911292D01*
X3602798Y-11901768D01*
X3631369Y-11901768D01*
X3650417Y-11911292D01*
X3659940Y-11930339D01*
X3659940Y-12035101D01*
X3755178Y-12035101D02*
X3755178Y-11901768D01*
X3755178Y-11920815D02*
X3764702Y-11911292D01*
X3783750Y-11901768D01*
X3812321Y-11901768D01*
X3831369Y-11911292D01*
X3840893Y-11930339D01*
X3840893Y-12035101D01*
X3840893Y-11930339D02*
X3850417Y-11911292D01*
X3869464Y-11901768D01*
X3898036Y-11901768D01*
X3917083Y-11911292D01*
X3926607Y-11930339D01*
X3926607Y-12035101D01*
X4317083Y-11825577D02*
X4145655Y-12082720D01*
X4574226Y-11835101D02*
X4593274Y-11835101D01*
X4612321Y-11844625D01*
X4621845Y-11854149D01*
X4631369Y-11873196D01*
X4640893Y-11911292D01*
X4640893Y-11958911D01*
X4631369Y-11997006D01*
X4621845Y-12016053D01*
X4612321Y-12025577D01*
X4593274Y-12035101D01*
X4574226Y-12035101D01*
X4555179Y-12025577D01*
X4545655Y-12016053D01*
X4536131Y-11997006D01*
X4526607Y-11958911D01*
X4526607Y-11911292D01*
X4536131Y-11873196D01*
X4545655Y-11854149D01*
X4555179Y-11844625D01*
X4574226Y-11835101D01*
X4726607Y-12016053D02*
X4736131Y-12025577D01*
X4726607Y-12035101D01*
X4717083Y-12025577D01*
X4726607Y-12016053D01*
X4726607Y-12035101D01*
X4859940Y-11835101D02*
X4878988Y-11835101D01*
X4898036Y-11844625D01*
X4907560Y-11854149D01*
X4917083Y-11873196D01*
X4926607Y-11911292D01*
X4926607Y-11958911D01*
X4917083Y-11997006D01*
X4907560Y-12016053D01*
X4898036Y-12025577D01*
X4878988Y-12035101D01*
X4859940Y-12035101D01*
X4840893Y-12025577D01*
X4831369Y-12016053D01*
X4821845Y-11997006D01*
X4812321Y-11958911D01*
X4812321Y-11911292D01*
X4821845Y-11873196D01*
X4831369Y-11854149D01*
X4840893Y-11844625D01*
X4859940Y-11835101D01*
X4993274Y-11835101D02*
X5117083Y-11835101D01*
X5050417Y-11911292D01*
X5078988Y-11911292D01*
X5098036Y-11920815D01*
X5107560Y-11930339D01*
X5117083Y-11949387D01*
X5117083Y-11997006D01*
X5107560Y-12016053D01*
X5098036Y-12025577D01*
X5078988Y-12035101D01*
X5021845Y-12035101D01*
X5002798Y-12025577D01*
X4993274Y-12016053D01*
X5212321Y-12035101D02*
X5250417Y-12035101D01*
X5269464Y-12025577D01*
X5278988Y-12016053D01*
X5298036Y-11987482D01*
X5307560Y-11949387D01*
X5307560Y-11873196D01*
X5298036Y-11854149D01*
X5288512Y-11844625D01*
X5269464Y-11835101D01*
X5231369Y-11835101D01*
X5212321Y-11844625D01*
X5202798Y-11854149D01*
X5193274Y-11873196D01*
X5193274Y-11920815D01*
X5202798Y-11939863D01*
X5212321Y-11949387D01*
X5231369Y-11958911D01*
X5269464Y-11958911D01*
X5288512Y-11949387D01*
X5298036Y-11939863D01*
X5307560Y-11920815D01*
X5478988Y-11901768D02*
X5478988Y-12035101D01*
X5431369Y-11825577D02*
X5383750Y-11968434D01*
X5507560Y-11968434D01*
X5574226Y-11835101D02*
X5574226Y-11873196D01*
X5650417Y-11835101D02*
X5650417Y-11873196D01*
X5945655Y-12111292D02*
X5936131Y-12101768D01*
X5917083Y-12073196D01*
X5907559Y-12054149D01*
X5898036Y-12025577D01*
X5888512Y-11977958D01*
X5888512Y-11939863D01*
X5898036Y-11892244D01*
X5907559Y-11863673D01*
X5917083Y-11844625D01*
X5936131Y-11816053D01*
X5945655Y-11806530D01*
X6107559Y-11901768D02*
X6107559Y-12035101D01*
X6059940Y-11825577D02*
X6012321Y-11968434D01*
X6136131Y-11968434D01*
X6250417Y-11835101D02*
X6269464Y-11835101D01*
X6288512Y-11844625D01*
X6298036Y-11854149D01*
X6307559Y-11873196D01*
X6317083Y-11911292D01*
X6317083Y-11958911D01*
X6307559Y-11997006D01*
X6298036Y-12016053D01*
X6288512Y-12025577D01*
X6269464Y-12035101D01*
X6250417Y-12035101D01*
X6231369Y-12025577D01*
X6221845Y-12016053D01*
X6212321Y-11997006D01*
X6202798Y-11958911D01*
X6202798Y-11911292D01*
X6212321Y-11873196D01*
X6221845Y-11854149D01*
X6231369Y-11844625D01*
X6250417Y-11835101D01*
X6555178Y-12035101D02*
X6555178Y-11835101D01*
X6640893Y-12035101D02*
X6640893Y-11930339D01*
X6631369Y-11911292D01*
X6612321Y-11901768D01*
X6583750Y-11901768D01*
X6564702Y-11911292D01*
X6555178Y-11920815D01*
X6764702Y-12035101D02*
X6745655Y-12025577D01*
X6736131Y-12016053D01*
X6726607Y-11997006D01*
X6726607Y-11939863D01*
X6736131Y-11920815D01*
X6745655Y-11911292D01*
X6764702Y-11901768D01*
X6793274Y-11901768D01*
X6812321Y-11911292D01*
X6821845Y-11920815D01*
X6831369Y-11939863D01*
X6831369Y-11997006D01*
X6821845Y-12016053D01*
X6812321Y-12025577D01*
X6793274Y-12035101D01*
X6764702Y-12035101D01*
X6945655Y-12035101D02*
X6926607Y-12025577D01*
X6917083Y-12006530D01*
X6917083Y-11835101D01*
X7098036Y-12025577D02*
X7078988Y-12035101D01*
X7040893Y-12035101D01*
X7021845Y-12025577D01*
X7012321Y-12006530D01*
X7012321Y-11930339D01*
X7021845Y-11911292D01*
X7040893Y-11901768D01*
X7078988Y-11901768D01*
X7098036Y-11911292D01*
X7107559Y-11930339D01*
X7107559Y-11949387D01*
X7012321Y-11968434D01*
X7183750Y-12025577D02*
X7202798Y-12035101D01*
X7240893Y-12035101D01*
X7259940Y-12025577D01*
X7269464Y-12006530D01*
X7269464Y-11997006D01*
X7259940Y-11977958D01*
X7240893Y-11968434D01*
X7212321Y-11968434D01*
X7193274Y-11958911D01*
X7183750Y-11939863D01*
X7183750Y-11930339D01*
X7193274Y-11911292D01*
X7212321Y-11901768D01*
X7240893Y-11901768D01*
X7259940Y-11911292D01*
X7336131Y-12111292D02*
X7345655Y-12101768D01*
X7364702Y-12073196D01*
X7374226Y-12054149D01*
X7383750Y-12025577D01*
X7393274Y-11977958D01*
X7393274Y-11939863D01*
X7383750Y-11892244D01*
X7374226Y-11863673D01*
X7364702Y-11844625D01*
X7345655Y-11816053D01*
X7336131Y-11806530D01*
D14*
X2300250Y-12135125D02*
X2300250Y-12282125D01*
X2226750Y-12208625D02*
X2373750Y-12208625D01*
D12*
X2736131Y-12299101D02*
X2621845Y-12299101D01*
X2678988Y-12299101D02*
X2678988Y-12099101D01*
X2659940Y-12127673D01*
X2640893Y-12146720D01*
X2621845Y-12156244D01*
X2821845Y-12280053D02*
X2831369Y-12289577D01*
X2821845Y-12299101D01*
X2812321Y-12289577D01*
X2821845Y-12280053D01*
X2821845Y-12299101D01*
X3002798Y-12165768D02*
X3002798Y-12299101D01*
X2955178Y-12089577D02*
X2907559Y-12232434D01*
X3031369Y-12232434D01*
X3088512Y-12099101D02*
X3221845Y-12099101D01*
X3136131Y-12299101D01*
X3336131Y-12099101D02*
X3355178Y-12099101D01*
X3374226Y-12108625D01*
X3383750Y-12118149D01*
X3393274Y-12137196D01*
X3402798Y-12175292D01*
X3402798Y-12222911D01*
X3393274Y-12261006D01*
X3383750Y-12280053D01*
X3374226Y-12289577D01*
X3355178Y-12299101D01*
X3336131Y-12299101D01*
X3317083Y-12289577D01*
X3307559Y-12280053D01*
X3298036Y-12261006D01*
X3288512Y-12222911D01*
X3288512Y-12175292D01*
X3298036Y-12137196D01*
X3307559Y-12118149D01*
X3317083Y-12108625D01*
X3336131Y-12099101D01*
X3488512Y-12299101D02*
X3488512Y-12165768D01*
X3488512Y-12184815D02*
X3498036Y-12175292D01*
X3517083Y-12165768D01*
X3545655Y-12165768D01*
X3564702Y-12175292D01*
X3574226Y-12194339D01*
X3574226Y-12299101D01*
X3574226Y-12194339D02*
X3583750Y-12175292D01*
X3602798Y-12165768D01*
X3631369Y-12165768D01*
X3650417Y-12175292D01*
X3659940Y-12194339D01*
X3659940Y-12299101D01*
X3755178Y-12299101D02*
X3755178Y-12165768D01*
X3755178Y-12184815D02*
X3764702Y-12175292D01*
X3783750Y-12165768D01*
X3812321Y-12165768D01*
X3831369Y-12175292D01*
X3840893Y-12194339D01*
X3840893Y-12299101D01*
X3840893Y-12194339D02*
X3850417Y-12175292D01*
X3869464Y-12165768D01*
X3898036Y-12165768D01*
X3917083Y-12175292D01*
X3926607Y-12194339D01*
X3926607Y-12299101D01*
X4317083Y-12089577D02*
X4145655Y-12346720D01*
X4574226Y-12099101D02*
X4593274Y-12099101D01*
X4612321Y-12108625D01*
X4621845Y-12118149D01*
X4631369Y-12137196D01*
X4640893Y-12175292D01*
X4640893Y-12222911D01*
X4631369Y-12261006D01*
X4621845Y-12280053D01*
X4612321Y-12289577D01*
X4593274Y-12299101D01*
X4574226Y-12299101D01*
X4555179Y-12289577D01*
X4545655Y-12280053D01*
X4536131Y-12261006D01*
X4526607Y-12222911D01*
X4526607Y-12175292D01*
X4536131Y-12137196D01*
X4545655Y-12118149D01*
X4555179Y-12108625D01*
X4574226Y-12099101D01*
X4726607Y-12280053D02*
X4736131Y-12289577D01*
X4726607Y-12299101D01*
X4717083Y-12289577D01*
X4726607Y-12280053D01*
X4726607Y-12299101D01*
X4859940Y-12099101D02*
X4878988Y-12099101D01*
X4898036Y-12108625D01*
X4907560Y-12118149D01*
X4917083Y-12137196D01*
X4926607Y-12175292D01*
X4926607Y-12222911D01*
X4917083Y-12261006D01*
X4907560Y-12280053D01*
X4898036Y-12289577D01*
X4878988Y-12299101D01*
X4859940Y-12299101D01*
X4840893Y-12289577D01*
X4831369Y-12280053D01*
X4821845Y-12261006D01*
X4812321Y-12222911D01*
X4812321Y-12175292D01*
X4821845Y-12137196D01*
X4831369Y-12118149D01*
X4840893Y-12108625D01*
X4859940Y-12099101D01*
X5107560Y-12099101D02*
X5012321Y-12099101D01*
X5002798Y-12194339D01*
X5012321Y-12184815D01*
X5031369Y-12175292D01*
X5078988Y-12175292D01*
X5098036Y-12184815D01*
X5107560Y-12194339D01*
X5117083Y-12213387D01*
X5117083Y-12261006D01*
X5107560Y-12280053D01*
X5098036Y-12289577D01*
X5078988Y-12299101D01*
X5031369Y-12299101D01*
X5012321Y-12289577D01*
X5002798Y-12280053D01*
X5183750Y-12099101D02*
X5317083Y-12099101D01*
X5231369Y-12299101D01*
X5402798Y-12299101D02*
X5440893Y-12299101D01*
X5459940Y-12289577D01*
X5469464Y-12280053D01*
X5488512Y-12251482D01*
X5498036Y-12213387D01*
X5498036Y-12137196D01*
X5488512Y-12118149D01*
X5478988Y-12108625D01*
X5459940Y-12099101D01*
X5421845Y-12099101D01*
X5402798Y-12108625D01*
X5393274Y-12118149D01*
X5383750Y-12137196D01*
X5383750Y-12184815D01*
X5393274Y-12203863D01*
X5402798Y-12213387D01*
X5421845Y-12222911D01*
X5459940Y-12222911D01*
X5478988Y-12213387D01*
X5488512Y-12203863D01*
X5498036Y-12184815D01*
X5574226Y-12099101D02*
X5574226Y-12137196D01*
X5650417Y-12099101D02*
X5650417Y-12137196D01*
X5945655Y-12375292D02*
X5936131Y-12365768D01*
X5917083Y-12337196D01*
X5907559Y-12318149D01*
X5898036Y-12289577D01*
X5888512Y-12241958D01*
X5888512Y-12203863D01*
X5898036Y-12156244D01*
X5907559Y-12127673D01*
X5917083Y-12108625D01*
X5936131Y-12080053D01*
X5945655Y-12070530D01*
X6050417Y-12184815D02*
X6031369Y-12175292D01*
X6021845Y-12165768D01*
X6012321Y-12146720D01*
X6012321Y-12137196D01*
X6021845Y-12118149D01*
X6031369Y-12108625D01*
X6050417Y-12099101D01*
X6088512Y-12099101D01*
X6107559Y-12108625D01*
X6117083Y-12118149D01*
X6126607Y-12137196D01*
X6126607Y-12146720D01*
X6117083Y-12165768D01*
X6107559Y-12175292D01*
X6088512Y-12184815D01*
X6050417Y-12184815D01*
X6031369Y-12194339D01*
X6021845Y-12203863D01*
X6012321Y-12222911D01*
X6012321Y-12261006D01*
X6021845Y-12280053D01*
X6031369Y-12289577D01*
X6050417Y-12299101D01*
X6088512Y-12299101D01*
X6107559Y-12289577D01*
X6117083Y-12280053D01*
X6126607Y-12261006D01*
X6126607Y-12222911D01*
X6117083Y-12203863D01*
X6107559Y-12194339D01*
X6088512Y-12184815D01*
X6250417Y-12099101D02*
X6269464Y-12099101D01*
X6288512Y-12108625D01*
X6298036Y-12118149D01*
X6307559Y-12137196D01*
X6317083Y-12175292D01*
X6317083Y-12222911D01*
X6307559Y-12261006D01*
X6298036Y-12280053D01*
X6288512Y-12289577D01*
X6269464Y-12299101D01*
X6250417Y-12299101D01*
X6231369Y-12289577D01*
X6221845Y-12280053D01*
X6212321Y-12261006D01*
X6202798Y-12222911D01*
X6202798Y-12175292D01*
X6212321Y-12137196D01*
X6221845Y-12118149D01*
X6231369Y-12108625D01*
X6250417Y-12099101D01*
X6555178Y-12299101D02*
X6555178Y-12099101D01*
X6640893Y-12299101D02*
X6640893Y-12194339D01*
X6631369Y-12175292D01*
X6612321Y-12165768D01*
X6583750Y-12165768D01*
X6564702Y-12175292D01*
X6555178Y-12184815D01*
X6764702Y-12299101D02*
X6745655Y-12289577D01*
X6736131Y-12280053D01*
X6726607Y-12261006D01*
X6726607Y-12203863D01*
X6736131Y-12184815D01*
X6745655Y-12175292D01*
X6764702Y-12165768D01*
X6793274Y-12165768D01*
X6812321Y-12175292D01*
X6821845Y-12184815D01*
X6831369Y-12203863D01*
X6831369Y-12261006D01*
X6821845Y-12280053D01*
X6812321Y-12289577D01*
X6793274Y-12299101D01*
X6764702Y-12299101D01*
X6945655Y-12299101D02*
X6926607Y-12289577D01*
X6917083Y-12270530D01*
X6917083Y-12099101D01*
X7098036Y-12289577D02*
X7078988Y-12299101D01*
X7040893Y-12299101D01*
X7021845Y-12289577D01*
X7012321Y-12270530D01*
X7012321Y-12194339D01*
X7021845Y-12175292D01*
X7040893Y-12165768D01*
X7078988Y-12165768D01*
X7098036Y-12175292D01*
X7107559Y-12194339D01*
X7107559Y-12213387D01*
X7012321Y-12232434D01*
X7183750Y-12289577D02*
X7202798Y-12299101D01*
X7240893Y-12299101D01*
X7259940Y-12289577D01*
X7269464Y-12270530D01*
X7269464Y-12261006D01*
X7259940Y-12241958D01*
X7240893Y-12232434D01*
X7212321Y-12232434D01*
X7193274Y-12222911D01*
X7183750Y-12203863D01*
X7183750Y-12194339D01*
X7193274Y-12175292D01*
X7212321Y-12165768D01*
X7240893Y-12165768D01*
X7259940Y-12175292D01*
X7336131Y-12375292D02*
X7345655Y-12365768D01*
X7364702Y-12337196D01*
X7374226Y-12318149D01*
X7383750Y-12289577D01*
X7393274Y-12241958D01*
X7393274Y-12203863D01*
X7383750Y-12156244D01*
X7374226Y-12127673D01*
X7364702Y-12108625D01*
X7345655Y-12080053D01*
X7336131Y-12070530D01*
M02*
