G04 #@! TF.GenerationSoftware,KiCad,Pcbnew,(6.0.9)*
G04 #@! TF.CreationDate,2023-03-10T16:48:27-06:00*
G04 #@! TF.ProjectId,Number Pad,4e756d62-6572-4205-9061-642e6b696361,rev?*
G04 #@! TF.SameCoordinates,Original*
G04 #@! TF.FileFunction,Copper,L2,Bot*
G04 #@! TF.FilePolarity,Positive*
%FSLAX46Y46*%
G04 Gerber Fmt 4.6, Leading zero omitted, Abs format (unit mm)*
G04 Created by KiCad (PCBNEW (6.0.9)) date 2023-03-10 16:48:27*
%MOMM*%
%LPD*%
G01*
G04 APERTURE LIST*
G04 Aperture macros list*
%AMHorizOval*
0 Thick line with rounded ends*
0 $1 width*
0 $2 $3 position (X,Y) of the first rounded end (center of the circle)*
0 $4 $5 position (X,Y) of the second rounded end (center of the circle)*
0 Add line between two ends*
20,1,$1,$2,$3,$4,$5,0*
0 Add two circle primitives to create the rounded ends*
1,1,$1,$2,$3*
1,1,$1,$4,$5*%
G04 Aperture macros list end*
G04 #@! TA.AperFunction,ComponentPad*
%ADD10HorizOval,2.250000X0.655001X0.730000X-0.655001X-0.730000X0*%
G04 #@! TD*
G04 #@! TA.AperFunction,ComponentPad*
%ADD11C,2.250000*%
G04 #@! TD*
G04 #@! TA.AperFunction,ComponentPad*
%ADD12HorizOval,2.250000X0.020000X0.290000X-0.020000X-0.290000X0*%
G04 #@! TD*
G04 #@! TA.AperFunction,ComponentPad*
%ADD13R,1.700000X1.700000*%
G04 #@! TD*
G04 #@! TA.AperFunction,ComponentPad*
%ADD14O,1.700000X1.700000*%
G04 #@! TD*
G04 #@! TA.AperFunction,ViaPad*
%ADD15C,0.800000*%
G04 #@! TD*
G04 #@! TA.AperFunction,Conductor*
%ADD16C,0.250000*%
G04 #@! TD*
G04 APERTURE END LIST*
D10*
X46851251Y-59436250D03*
D11*
X47506250Y-58706250D03*
D12*
X52526250Y-57916250D03*
D11*
X52546250Y-57626250D03*
D10*
X46851251Y-40386250D03*
D11*
X47506250Y-39656250D03*
X52546250Y-38576250D03*
D12*
X52526250Y-38866250D03*
D11*
X85606250Y-96806250D03*
D10*
X84951251Y-97536250D03*
D12*
X90626250Y-96016250D03*
D11*
X90646250Y-95726250D03*
X85606250Y-58706250D03*
D10*
X84951251Y-59436250D03*
D11*
X90646250Y-57626250D03*
D12*
X90626250Y-57916250D03*
D10*
X104001251Y-59436250D03*
D11*
X104656250Y-58706250D03*
X109696250Y-57626250D03*
D12*
X109676250Y-57916250D03*
D11*
X47506250Y-77756250D03*
D10*
X46851251Y-78486250D03*
D12*
X52526250Y-76966250D03*
D11*
X52546250Y-76676250D03*
X85606250Y-77756250D03*
D10*
X84951251Y-78486250D03*
D12*
X90626250Y-76966250D03*
D11*
X90646250Y-76676250D03*
D13*
X126841250Y-51435000D03*
D14*
X129381250Y-51435000D03*
X126841250Y-53975000D03*
X129381250Y-53975000D03*
X126841250Y-56515000D03*
X129381250Y-56515000D03*
X126841250Y-59055000D03*
X129381250Y-59055000D03*
X126841250Y-61595000D03*
X129381250Y-61595000D03*
X126841250Y-64135000D03*
X129381250Y-64135000D03*
X126841250Y-66675000D03*
X129381250Y-66675000D03*
X126841250Y-69215000D03*
X129381250Y-69215000D03*
X126841250Y-71755000D03*
X129381250Y-71755000D03*
X126841250Y-74295000D03*
X129381250Y-74295000D03*
D11*
X47506250Y-96806250D03*
D10*
X46851251Y-97536250D03*
D11*
X52546250Y-95726250D03*
D12*
X52526250Y-96016250D03*
D10*
X65901251Y-78486250D03*
D11*
X66556250Y-77756250D03*
X71596250Y-76676250D03*
D12*
X71576250Y-76966250D03*
D10*
X65901251Y-21336250D03*
D11*
X66556250Y-20606250D03*
X71596250Y-19526250D03*
D12*
X71576250Y-19816250D03*
D10*
X65901251Y-40386250D03*
D11*
X66556250Y-39656250D03*
D12*
X71576250Y-38866250D03*
D11*
X71596250Y-38576250D03*
D10*
X84951251Y-40386250D03*
D11*
X85606250Y-39656250D03*
D12*
X90626250Y-38866250D03*
D11*
X90646250Y-38576250D03*
X47506250Y-20606250D03*
D10*
X46851251Y-21336250D03*
D11*
X52546250Y-19526250D03*
D12*
X52526250Y-19816250D03*
D10*
X104001251Y-40386250D03*
D11*
X104656250Y-39656250D03*
D12*
X109676250Y-38866250D03*
D11*
X109696250Y-38576250D03*
D10*
X104001251Y-78486250D03*
D11*
X104656250Y-77756250D03*
D12*
X109676250Y-76966250D03*
D11*
X109696250Y-76676250D03*
X104656250Y-96806250D03*
D10*
X104001251Y-97536250D03*
D12*
X109676250Y-96016250D03*
D11*
X109696250Y-95726250D03*
X66556250Y-96806250D03*
D10*
X65901251Y-97536250D03*
D11*
X71596250Y-95726250D03*
D12*
X71576250Y-96016250D03*
D13*
X27850000Y-51256250D03*
D14*
X25310000Y-51256250D03*
X27850000Y-53796250D03*
X25310000Y-53796250D03*
X27850000Y-56336250D03*
X25310000Y-56336250D03*
X27850000Y-58876250D03*
X25310000Y-58876250D03*
X27850000Y-61416250D03*
X25310000Y-61416250D03*
X27850000Y-63956250D03*
X25310000Y-63956250D03*
X27850000Y-66496250D03*
X25310000Y-66496250D03*
X27850000Y-69036250D03*
X25310000Y-69036250D03*
X27850000Y-71576250D03*
X25310000Y-71576250D03*
X27850000Y-74116250D03*
X25310000Y-74116250D03*
D10*
X65901251Y-59436250D03*
D11*
X66556250Y-58706250D03*
X71596250Y-57626250D03*
D12*
X71576250Y-57916250D03*
D10*
X104001251Y-21336250D03*
D11*
X104656250Y-20606250D03*
X109696250Y-19526250D03*
D12*
X109676250Y-19816250D03*
D10*
X84951251Y-21336250D03*
D11*
X85606250Y-20606250D03*
X90646250Y-19526250D03*
D12*
X90626250Y-19816250D03*
D15*
X66675000Y-28575000D03*
X82550000Y-28575000D03*
X122719500Y-67200000D03*
X63500000Y-28575000D03*
X37950000Y-67220750D03*
X104775000Y-28575000D03*
X101600000Y-28575000D03*
X85725000Y-28575000D03*
X122809000Y-46990000D03*
X47371000Y-28702000D03*
X42300000Y-49550000D03*
X45085000Y-28702000D03*
X66675000Y-47625000D03*
X39200000Y-51600000D03*
X63500000Y-47625000D03*
X42709500Y-46228000D03*
X82550000Y-47625000D03*
X85725000Y-47625000D03*
X101600000Y-47625000D03*
X47117000Y-46228000D03*
X123444000Y-49911000D03*
X38750000Y-68900000D03*
X104775000Y-47625000D03*
X124400000Y-69250000D03*
X85725000Y-66675000D03*
X115093750Y-66675000D03*
X66675000Y-66675000D03*
X82550000Y-66675000D03*
X101600000Y-66675000D03*
X104775000Y-66675000D03*
X40200000Y-69650000D03*
X115093750Y-68124000D03*
X104775000Y-66675000D03*
X63500000Y-66675000D03*
X52832000Y-64135000D03*
X104775000Y-85725000D03*
X101600000Y-85725000D03*
X42545000Y-85471000D03*
X47498000Y-85598000D03*
X63500000Y-85725000D03*
X85725000Y-85725000D03*
X82550000Y-85725000D03*
X66675000Y-85725000D03*
X29050000Y-77150000D03*
X31700000Y-77074500D03*
X85020750Y-53123500D03*
X45466000Y-53132464D03*
X46920750Y-53086000D03*
X64516000Y-53123500D03*
X102489000Y-53123500D03*
X66050616Y-53067519D03*
X104140000Y-53123500D03*
X83566000Y-53086000D03*
X102616000Y-48514000D03*
X66040000Y-48514000D03*
X121285000Y-58930750D03*
X83566000Y-48514000D03*
X104070750Y-48514000D03*
X85020750Y-48514000D03*
X64516000Y-48514000D03*
X121285000Y-52481750D03*
X30000000Y-76350000D03*
X121950000Y-74250000D03*
X102489000Y-71120000D03*
X85598000Y-71120000D03*
X63881000Y-70993000D03*
X47879000Y-70993000D03*
X66421000Y-71120000D03*
X83185000Y-71120000D03*
X85852000Y-49276000D03*
X101473000Y-49238500D03*
X82423000Y-49276000D03*
X120396000Y-59817000D03*
X120396000Y-51435000D03*
X41700000Y-60150000D03*
X105283000Y-49238500D03*
X46990000Y-70104000D03*
X119507000Y-50546000D03*
X66040000Y-69342000D03*
X42450000Y-61650000D03*
X119507000Y-60452000D03*
X104394000Y-50038000D03*
X102489000Y-50038000D03*
X64135000Y-69342000D03*
X47879000Y-69215000D03*
X44715271Y-55360729D03*
X82677000Y-55372000D03*
X66802000Y-55372000D03*
X101600000Y-55372000D03*
X85729866Y-55366161D03*
X63627000Y-55372000D03*
X104902000Y-55372000D03*
X47623291Y-55360729D03*
X102489000Y-56134000D03*
X46990000Y-56134000D03*
X104140000Y-56134000D03*
X83566000Y-56134000D03*
X45466000Y-56134000D03*
X85090000Y-56134000D03*
X64521750Y-56134000D03*
X65970750Y-56134000D03*
X45471750Y-54610000D03*
X104195245Y-54647500D03*
X65970750Y-54610000D03*
X83439000Y-54610000D03*
X102362000Y-54610000D03*
X64516000Y-54610000D03*
X46978822Y-54596749D03*
X85098347Y-54591442D03*
X63627000Y-53885500D03*
X85852000Y-53848000D03*
X66675000Y-53848000D03*
X44701552Y-53885500D03*
X47650925Y-53856964D03*
X101600000Y-53848000D03*
X82708661Y-53848000D03*
X105283000Y-53848000D03*
X116840000Y-50762500D03*
X85344000Y-68326000D03*
X43300000Y-62750000D03*
X118618000Y-59309000D03*
X63500000Y-68453000D03*
X48768000Y-68453000D03*
X66802000Y-68453000D03*
X83439000Y-68326000D03*
X65970750Y-65087500D03*
X78581250Y-65087500D03*
X117550000Y-64100000D03*
X97631250Y-65087500D03*
X47625000Y-64293750D03*
X113506250Y-65087500D03*
X75406250Y-65087500D03*
X83343750Y-65087500D03*
X104070750Y-65087500D03*
X59531250Y-65087500D03*
X64293750Y-65087500D03*
X55562500Y-65087500D03*
X102393750Y-65087500D03*
X45471750Y-64293750D03*
X85020750Y-65087500D03*
X94456250Y-65087500D03*
X101727000Y-52399000D03*
X63500000Y-52361500D03*
X66929000Y-52324000D03*
X82804000Y-52324000D03*
X85979000Y-52324000D03*
X47879000Y-52361500D03*
X44577000Y-52407964D03*
X105021460Y-52398500D03*
X60325000Y-65881250D03*
X95250000Y-65881250D03*
X57150000Y-65881250D03*
X45243750Y-65881250D03*
X47625000Y-65881250D03*
X98425000Y-65881250D03*
X74606250Y-65950500D03*
X105568750Y-65881250D03*
X67468750Y-65881250D03*
X62706250Y-65881250D03*
X100806250Y-65881250D03*
X115887500Y-65881250D03*
X81756250Y-65881250D03*
X79375000Y-65881250D03*
X112712500Y-65881250D03*
X86518750Y-65881250D03*
X67314866Y-67442839D03*
X47625000Y-66880753D03*
X105791000Y-67399500D03*
X45471750Y-66900000D03*
X100711000Y-67437000D03*
X86487000Y-67399500D03*
X81788000Y-67437000D03*
X64521750Y-67564000D03*
D16*
X122719000Y-47080000D02*
X122809000Y-46990000D01*
X122719000Y-67199500D02*
X122719000Y-47080000D01*
X41200000Y-49550000D02*
X42300000Y-49550000D01*
X37950000Y-49750000D02*
X38050000Y-49650000D01*
X38050000Y-49650000D02*
X38150000Y-49550000D01*
X37950000Y-67220750D02*
X37950000Y-49750000D01*
X104775000Y-28575000D02*
X101600000Y-28575000D01*
X122719500Y-67200000D02*
X122719000Y-67199500D01*
X45085000Y-28702000D02*
X47371000Y-28702000D01*
X66675000Y-28575000D02*
X63500000Y-28575000D01*
X85725000Y-28575000D02*
X82550000Y-28575000D01*
X38150000Y-49550000D02*
X41200000Y-49550000D01*
X123444000Y-49911000D02*
X123444000Y-69044000D01*
X123650000Y-69250000D02*
X123444000Y-69044000D01*
X85725000Y-47625000D02*
X82550000Y-47625000D01*
X39200000Y-51600000D02*
X39200000Y-68450000D01*
X66675000Y-47625000D02*
X63500000Y-47625000D01*
X124400000Y-69250000D02*
X123650000Y-69250000D01*
X104775000Y-47625000D02*
X101600000Y-47625000D01*
X39200000Y-68450000D02*
X38750000Y-68900000D01*
X42709500Y-46228000D02*
X47117000Y-46228000D01*
X41250000Y-57150000D02*
X48768000Y-57150000D01*
X104775000Y-66675000D02*
X101600000Y-66675000D01*
X66675000Y-66675000D02*
X63500000Y-66675000D01*
X41250000Y-57150000D02*
X40650000Y-57150000D01*
X85725000Y-66675000D02*
X82550000Y-66675000D01*
X115093750Y-68124000D02*
X115093750Y-66675000D01*
X40550000Y-57250000D02*
X40200000Y-57600000D01*
X40200000Y-57600000D02*
X40200000Y-69650000D01*
X40650000Y-57150000D02*
X40550000Y-57250000D01*
X48768000Y-57150000D02*
X52832000Y-61214000D01*
X52832000Y-61214000D02*
X52832000Y-64135000D01*
X66675000Y-85725000D02*
X63500000Y-85725000D01*
X42672000Y-85598000D02*
X42545000Y-85471000D01*
X85725000Y-85725000D02*
X82550000Y-85725000D01*
X47498000Y-85598000D02*
X42672000Y-85598000D01*
X104775000Y-85725000D02*
X101600000Y-85725000D01*
X29400000Y-77150000D02*
X29050000Y-77150000D01*
X31624500Y-77150000D02*
X29400000Y-77150000D01*
X31700000Y-77074500D02*
X31624500Y-77150000D01*
X45512464Y-53086000D02*
X45466000Y-53132464D01*
X83603500Y-53123500D02*
X83566000Y-53086000D01*
X64571981Y-53067519D02*
X64516000Y-53123500D01*
X46920750Y-53086000D02*
X45512464Y-53086000D01*
X85020750Y-53123500D02*
X83603500Y-53123500D01*
X66050616Y-53067519D02*
X64571981Y-53067519D01*
X104140000Y-53123500D02*
X102489000Y-53123500D01*
X121285000Y-58930750D02*
X121285000Y-52481750D01*
X85020750Y-48514000D02*
X83566000Y-48514000D01*
X104070750Y-48514000D02*
X102616000Y-48514000D01*
X66040000Y-48514000D02*
X64516000Y-48514000D01*
X47625000Y-75565000D02*
X47625000Y-71247000D01*
X114300000Y-71437500D02*
X114068750Y-71206250D01*
X114068750Y-71206250D02*
X102575250Y-71206250D01*
X114500000Y-73950000D02*
X114800000Y-74250000D01*
X66421000Y-71120000D02*
X64008000Y-71120000D01*
X114300000Y-73025000D02*
X114300000Y-73750000D01*
X47445000Y-75745000D02*
X47625000Y-75565000D01*
X47625000Y-71247000D02*
X47879000Y-70993000D01*
X46863000Y-76327000D02*
X47445000Y-75745000D01*
X114300000Y-71437500D02*
X114300000Y-73025000D01*
X114300000Y-73750000D02*
X114500000Y-73950000D01*
X102575250Y-71206250D02*
X102489000Y-71120000D01*
X85598000Y-71120000D02*
X83185000Y-71120000D01*
X46840000Y-76350000D02*
X47445000Y-75745000D01*
X30000000Y-76350000D02*
X46840000Y-76350000D01*
X114800000Y-74250000D02*
X121950000Y-74250000D01*
X64008000Y-71120000D02*
X63881000Y-70993000D01*
X43304000Y-70104000D02*
X41900000Y-68700000D01*
X45646000Y-70104000D02*
X43304000Y-70104000D01*
X120396000Y-59817000D02*
X120396000Y-51435000D01*
X41700000Y-68500000D02*
X41700000Y-60150000D01*
X85852000Y-49276000D02*
X82423000Y-49276000D01*
X105283000Y-49238500D02*
X101473000Y-49238500D01*
X45646000Y-70104000D02*
X46990000Y-70104000D01*
X41900000Y-68700000D02*
X41700000Y-68500000D01*
X64135000Y-69342000D02*
X66040000Y-69342000D01*
X42450000Y-67700000D02*
X42450000Y-61650000D01*
X44450000Y-69215000D02*
X43965000Y-69215000D01*
X43600000Y-68850000D02*
X42450000Y-67700000D01*
X43965000Y-69215000D02*
X43600000Y-68850000D01*
X104394000Y-50038000D02*
X102489000Y-50038000D01*
X119507000Y-60452000D02*
X119507000Y-50546000D01*
X44450000Y-69215000D02*
X47879000Y-69215000D01*
X85724027Y-55372000D02*
X82677000Y-55372000D01*
X85729866Y-55366161D02*
X85724027Y-55372000D01*
X104902000Y-55372000D02*
X101600000Y-55372000D01*
X47623291Y-55360729D02*
X44715271Y-55360729D01*
X66802000Y-55372000D02*
X63627000Y-55372000D01*
X46990000Y-56134000D02*
X45466000Y-56134000D01*
X104140000Y-56134000D02*
X102489000Y-56134000D01*
X65970750Y-56134000D02*
X64521750Y-56134000D01*
X85090000Y-56134000D02*
X83566000Y-56134000D01*
X85098347Y-54591442D02*
X83457558Y-54591442D01*
X83457558Y-54591442D02*
X83439000Y-54610000D01*
X45485001Y-54596749D02*
X45471750Y-54610000D01*
X102399500Y-54647500D02*
X102362000Y-54610000D01*
X104195245Y-54647500D02*
X102399500Y-54647500D01*
X65970750Y-54610000D02*
X64516000Y-54610000D01*
X46978822Y-54596749D02*
X45485001Y-54596749D01*
X66675000Y-53848000D02*
X63664500Y-53848000D01*
X44730088Y-53856964D02*
X44701552Y-53885500D01*
X105283000Y-53848000D02*
X101600000Y-53848000D01*
X63664500Y-53848000D02*
X63627000Y-53885500D01*
X47650925Y-53856964D02*
X44730088Y-53856964D01*
X85852000Y-53848000D02*
X82708661Y-53848000D01*
X43300000Y-62750000D02*
X43400000Y-62750000D01*
X63500000Y-68453000D02*
X66802000Y-68453000D01*
X83439000Y-68326000D02*
X85344000Y-68326000D01*
X43650000Y-66850000D02*
X45253000Y-68453000D01*
X118110000Y-50800000D02*
X118072500Y-50762500D01*
X118072500Y-50762500D02*
X116840000Y-50762500D01*
X45253000Y-68453000D02*
X48768000Y-68453000D01*
X43400000Y-62750000D02*
X43650000Y-63000000D01*
X118618000Y-51308000D02*
X118110000Y-50800000D01*
X43650000Y-63000000D02*
X43650000Y-66850000D01*
X118618000Y-59309000D02*
X118618000Y-51308000D01*
X55562500Y-65087500D02*
X59531250Y-65087500D01*
X83343750Y-65087500D02*
X85020750Y-65087500D01*
X45471750Y-64293750D02*
X47625000Y-64293750D01*
X64293750Y-65087500D02*
X65881250Y-65087500D01*
X116800000Y-64150000D02*
X116850000Y-64100000D01*
X116681250Y-64293750D02*
X116681250Y-64268750D01*
X116681250Y-64268750D02*
X116800000Y-64150000D01*
X116850000Y-64100000D02*
X117550000Y-64100000D01*
X65881250Y-65087500D02*
X65970750Y-65087500D01*
X94456250Y-65087500D02*
X97631250Y-65087500D01*
X113506250Y-65087500D02*
X115887500Y-65087500D01*
X115887500Y-65087500D02*
X116681250Y-64293750D01*
X75406250Y-65087500D02*
X78581250Y-65087500D01*
X102393750Y-65087500D02*
X104070750Y-65087500D01*
X105021460Y-52398500D02*
X101727500Y-52398500D01*
X101727500Y-52398500D02*
X101727000Y-52399000D01*
X66929000Y-52324000D02*
X63537500Y-52324000D01*
X44623464Y-52361500D02*
X44577000Y-52407964D01*
X47879000Y-52361500D02*
X44623464Y-52361500D01*
X85979000Y-52324000D02*
X82804000Y-52324000D01*
X63537500Y-52324000D02*
X63500000Y-52361500D01*
X67468750Y-65881250D02*
X62706250Y-65881250D01*
X47625000Y-65881250D02*
X45243750Y-65881250D01*
X79375000Y-65881250D02*
X74675500Y-65881250D01*
X86518750Y-65881250D02*
X81756250Y-65881250D01*
X105568750Y-65881250D02*
X100806250Y-65881250D01*
X98425000Y-65881250D02*
X95250000Y-65881250D01*
X74675500Y-65881250D02*
X74606250Y-65950500D01*
X60325000Y-65881250D02*
X57150000Y-65881250D01*
X115887500Y-65881250D02*
X112712500Y-65881250D01*
X86487000Y-67399500D02*
X86449500Y-67437000D01*
X105791000Y-67399500D02*
X100748500Y-67399500D01*
X45485112Y-66880753D02*
X45485112Y-66886638D01*
X67314866Y-67442839D02*
X67193705Y-67564000D01*
X86449500Y-67437000D02*
X81788000Y-67437000D01*
X47625000Y-66880753D02*
X45485112Y-66880753D01*
X100748500Y-67399500D02*
X100711000Y-67437000D01*
X67193705Y-67564000D02*
X64521750Y-67564000D01*
X45485112Y-66886638D02*
X45471750Y-66900000D01*
G04 #@! TA.AperFunction,Conductor*
G36*
X40423371Y-15609752D02*
G01*
X40469864Y-15663408D01*
X40481250Y-15715750D01*
X40481250Y-48790500D01*
X40461248Y-48858621D01*
X40407592Y-48905114D01*
X40355250Y-48916500D01*
X38228763Y-48916500D01*
X38217579Y-48915973D01*
X38210091Y-48914299D01*
X38202168Y-48914548D01*
X38142033Y-48916438D01*
X38138075Y-48916500D01*
X38110144Y-48916500D01*
X38106229Y-48916995D01*
X38106225Y-48916995D01*
X38106167Y-48917003D01*
X38106138Y-48917006D01*
X38094296Y-48917939D01*
X38050110Y-48919327D01*
X38032744Y-48924372D01*
X38030658Y-48924978D01*
X38011306Y-48928986D01*
X38004235Y-48929880D01*
X37991203Y-48931526D01*
X37983834Y-48934443D01*
X37983832Y-48934444D01*
X37950097Y-48947800D01*
X37938869Y-48951645D01*
X37896407Y-48963982D01*
X37889585Y-48968016D01*
X37889579Y-48968019D01*
X37878968Y-48974294D01*
X37861218Y-48982990D01*
X37849756Y-48987528D01*
X37849751Y-48987531D01*
X37842383Y-48990448D01*
X37835968Y-48995109D01*
X37806625Y-49016427D01*
X37796707Y-49022943D01*
X37779002Y-49033414D01*
X37758637Y-49045458D01*
X37744313Y-49059782D01*
X37729281Y-49072621D01*
X37712893Y-49084528D01*
X37684712Y-49118593D01*
X37676722Y-49127373D01*
X37557747Y-49246348D01*
X37549461Y-49253888D01*
X37542982Y-49258000D01*
X37537557Y-49263777D01*
X37496357Y-49307651D01*
X37493602Y-49310493D01*
X37473865Y-49330230D01*
X37471385Y-49333427D01*
X37463682Y-49342447D01*
X37433414Y-49374679D01*
X37429595Y-49381625D01*
X37429593Y-49381628D01*
X37423652Y-49392434D01*
X37412801Y-49408953D01*
X37400386Y-49424959D01*
X37397241Y-49432228D01*
X37397238Y-49432232D01*
X37382826Y-49465537D01*
X37377609Y-49476187D01*
X37356305Y-49514940D01*
X37354334Y-49522615D01*
X37354334Y-49522616D01*
X37351267Y-49534562D01*
X37344863Y-49553266D01*
X37336819Y-49571855D01*
X37335580Y-49579678D01*
X37335577Y-49579688D01*
X37329901Y-49615524D01*
X37327495Y-49627144D01*
X37316500Y-49669970D01*
X37316500Y-49690224D01*
X37314949Y-49709934D01*
X37311780Y-49729943D01*
X37312526Y-49737835D01*
X37315941Y-49773961D01*
X37316500Y-49785819D01*
X37316500Y-66518226D01*
X37296498Y-66586347D01*
X37284142Y-66602529D01*
X37210960Y-66683806D01*
X37115473Y-66849194D01*
X37056458Y-67030822D01*
X37036496Y-67220750D01*
X37037186Y-67227315D01*
X37053590Y-67383387D01*
X37056458Y-67410678D01*
X37115473Y-67592306D01*
X37118776Y-67598028D01*
X37118777Y-67598029D01*
X37128859Y-67615492D01*
X37210960Y-67757694D01*
X37215378Y-67762601D01*
X37215379Y-67762602D01*
X37242649Y-67792888D01*
X37338747Y-67899616D01*
X37493248Y-68011868D01*
X37499276Y-68014552D01*
X37499278Y-68014553D01*
X37563441Y-68043120D01*
X37667712Y-68089544D01*
X37739246Y-68104749D01*
X37848056Y-68127878D01*
X37848061Y-68127878D01*
X37854513Y-68129250D01*
X37938480Y-68129250D01*
X38006601Y-68149252D01*
X38053094Y-68202908D01*
X38063198Y-68273182D01*
X38032117Y-68339559D01*
X38010960Y-68363056D01*
X37915473Y-68528444D01*
X37856458Y-68710072D01*
X37836496Y-68900000D01*
X37856458Y-69089928D01*
X37915473Y-69271556D01*
X38010960Y-69436944D01*
X38015378Y-69441851D01*
X38015379Y-69441852D01*
X38089282Y-69523930D01*
X38138747Y-69578866D01*
X38293248Y-69691118D01*
X38299276Y-69693802D01*
X38299278Y-69693803D01*
X38461679Y-69766108D01*
X38467712Y-69768794D01*
X38561113Y-69788647D01*
X38648056Y-69807128D01*
X38648061Y-69807128D01*
X38654513Y-69808500D01*
X38845487Y-69808500D01*
X38851939Y-69807128D01*
X38851944Y-69807128D01*
X38938887Y-69788647D01*
X39032288Y-69768794D01*
X39038315Y-69766111D01*
X39038323Y-69766108D01*
X39128629Y-69725901D01*
X39198996Y-69716467D01*
X39263293Y-69746574D01*
X39301106Y-69806663D01*
X39305186Y-69827834D01*
X39305767Y-69833358D01*
X39306458Y-69839928D01*
X39365473Y-70021556D01*
X39460960Y-70186944D01*
X39465378Y-70191851D01*
X39465379Y-70191852D01*
X39578195Y-70317147D01*
X39588747Y-70328866D01*
X39594283Y-70332888D01*
X39711494Y-70418047D01*
X39743248Y-70441118D01*
X39749276Y-70443802D01*
X39749278Y-70443803D01*
X39749833Y-70444050D01*
X39917712Y-70518794D01*
X40011112Y-70538647D01*
X40098056Y-70557128D01*
X40098061Y-70557128D01*
X40104513Y-70558500D01*
X40295487Y-70558500D01*
X40301942Y-70557128D01*
X40301951Y-70557127D01*
X40329052Y-70551366D01*
X40399843Y-70556767D01*
X40456476Y-70599583D01*
X40480970Y-70666220D01*
X40481250Y-70674612D01*
X40481250Y-109696750D01*
X40461248Y-109764871D01*
X40407592Y-109811364D01*
X40355250Y-109822750D01*
X26243117Y-109822750D01*
X26223732Y-109821250D01*
X26208899Y-109818940D01*
X26208895Y-109818940D01*
X26200026Y-109817559D01*
X26183738Y-109819689D01*
X26159160Y-109820483D01*
X26114551Y-109817559D01*
X25957549Y-109807268D01*
X25941209Y-109805117D01*
X25717147Y-109760549D01*
X25701226Y-109756283D01*
X25484899Y-109682849D01*
X25469673Y-109676542D01*
X25264783Y-109575502D01*
X25250509Y-109567261D01*
X25060562Y-109440342D01*
X25047487Y-109430309D01*
X24875726Y-109279679D01*
X24864071Y-109268024D01*
X24713441Y-109096263D01*
X24703408Y-109083188D01*
X24576489Y-108893241D01*
X24568248Y-108878967D01*
X24467208Y-108674077D01*
X24460901Y-108658851D01*
X24387467Y-108442524D01*
X24383201Y-108426603D01*
X24338633Y-108202541D01*
X24336482Y-108186201D01*
X24323976Y-107995407D01*
X24325150Y-107972232D01*
X24324834Y-107972204D01*
X24325270Y-107967344D01*
X24326076Y-107962552D01*
X24326229Y-107950000D01*
X24322273Y-107922376D01*
X24321000Y-107904514D01*
X24321000Y-106362500D01*
X26474026Y-106362500D01*
X26493886Y-106589497D01*
X26552861Y-106809597D01*
X26555183Y-106814577D01*
X26555184Y-106814579D01*
X26646835Y-107011125D01*
X26646838Y-107011130D01*
X26649161Y-107016112D01*
X26779858Y-107202767D01*
X26940983Y-107363892D01*
X26945491Y-107367049D01*
X26945494Y-107367051D01*
X27123129Y-107491432D01*
X27127638Y-107494589D01*
X27132620Y-107496912D01*
X27132625Y-107496915D01*
X27329171Y-107588566D01*
X27334153Y-107590889D01*
X27339461Y-107592311D01*
X27339463Y-107592312D01*
X27548938Y-107648440D01*
X27548939Y-107648440D01*
X27554253Y-107649864D01*
X27781250Y-107669724D01*
X28008247Y-107649864D01*
X28013561Y-107648440D01*
X28013562Y-107648440D01*
X28223037Y-107592312D01*
X28223039Y-107592311D01*
X28228347Y-107590889D01*
X28233329Y-107588566D01*
X28429875Y-107496915D01*
X28429880Y-107496912D01*
X28434862Y-107494589D01*
X28439371Y-107491432D01*
X28617006Y-107367051D01*
X28617009Y-107367049D01*
X28621517Y-107363892D01*
X28782642Y-107202767D01*
X28913339Y-107016112D01*
X28915662Y-107011130D01*
X28915665Y-107011125D01*
X29007316Y-106814579D01*
X29007317Y-106814577D01*
X29009639Y-106809597D01*
X29068614Y-106589497D01*
X29088474Y-106362500D01*
X29068614Y-106135503D01*
X29009639Y-105915403D01*
X29007316Y-105910421D01*
X28915665Y-105713875D01*
X28915662Y-105713870D01*
X28913339Y-105708888D01*
X28782642Y-105522233D01*
X28621517Y-105361108D01*
X28617009Y-105357951D01*
X28617006Y-105357949D01*
X28439371Y-105233568D01*
X28439369Y-105233567D01*
X28434862Y-105230411D01*
X28429880Y-105228088D01*
X28429875Y-105228085D01*
X28233329Y-105136434D01*
X28233327Y-105136433D01*
X28228347Y-105134111D01*
X28223039Y-105132689D01*
X28223037Y-105132688D01*
X28013562Y-105076560D01*
X28013561Y-105076560D01*
X28008247Y-105075136D01*
X27781250Y-105055276D01*
X27554253Y-105075136D01*
X27548939Y-105076560D01*
X27548938Y-105076560D01*
X27339463Y-105132688D01*
X27339461Y-105132689D01*
X27334153Y-105134111D01*
X27329173Y-105136433D01*
X27329171Y-105136434D01*
X27132625Y-105228085D01*
X27132620Y-105228088D01*
X27127638Y-105230411D01*
X27123131Y-105233567D01*
X27123129Y-105233568D01*
X26945494Y-105357949D01*
X26945491Y-105357951D01*
X26940983Y-105361108D01*
X26779858Y-105522233D01*
X26649161Y-105708888D01*
X26646838Y-105713870D01*
X26646835Y-105713875D01*
X26555184Y-105910421D01*
X26552861Y-105915403D01*
X26493886Y-106135503D01*
X26474026Y-106362500D01*
X24321000Y-106362500D01*
X24321000Y-81756250D01*
X26474026Y-81756250D01*
X26493886Y-81983247D01*
X26552861Y-82203347D01*
X26555183Y-82208327D01*
X26555184Y-82208329D01*
X26646835Y-82404875D01*
X26646838Y-82404880D01*
X26649161Y-82409862D01*
X26779858Y-82596517D01*
X26940983Y-82757642D01*
X26945491Y-82760799D01*
X26945494Y-82760801D01*
X27123129Y-82885182D01*
X27127638Y-82888339D01*
X27132620Y-82890662D01*
X27132625Y-82890665D01*
X27329171Y-82982316D01*
X27334153Y-82984639D01*
X27339461Y-82986061D01*
X27339463Y-82986062D01*
X27548938Y-83042190D01*
X27548939Y-83042190D01*
X27554253Y-83043614D01*
X27781250Y-83063474D01*
X28008247Y-83043614D01*
X28013561Y-83042190D01*
X28013562Y-83042190D01*
X28223037Y-82986062D01*
X28223039Y-82986061D01*
X28228347Y-82984639D01*
X28233329Y-82982316D01*
X28429875Y-82890665D01*
X28429880Y-82890662D01*
X28434862Y-82888339D01*
X28439371Y-82885182D01*
X28617006Y-82760801D01*
X28617009Y-82760799D01*
X28621517Y-82757642D01*
X28782642Y-82596517D01*
X28913339Y-82409862D01*
X28915662Y-82404880D01*
X28915665Y-82404875D01*
X29007316Y-82208329D01*
X29007317Y-82208327D01*
X29009639Y-82203347D01*
X29068614Y-81983247D01*
X29088474Y-81756250D01*
X29068614Y-81529253D01*
X29009639Y-81309153D01*
X29007316Y-81304171D01*
X28915665Y-81107625D01*
X28915662Y-81107620D01*
X28913339Y-81102638D01*
X28782642Y-80915983D01*
X28621517Y-80754858D01*
X28617009Y-80751701D01*
X28617006Y-80751699D01*
X28439371Y-80627318D01*
X28439369Y-80627317D01*
X28434862Y-80624161D01*
X28429880Y-80621838D01*
X28429875Y-80621835D01*
X28233329Y-80530184D01*
X28233327Y-80530183D01*
X28228347Y-80527861D01*
X28223039Y-80526439D01*
X28223037Y-80526438D01*
X28013562Y-80470310D01*
X28013561Y-80470310D01*
X28008247Y-80468886D01*
X27781250Y-80449026D01*
X27554253Y-80468886D01*
X27548939Y-80470310D01*
X27548938Y-80470310D01*
X27339463Y-80526438D01*
X27339461Y-80526439D01*
X27334153Y-80527861D01*
X27329173Y-80530183D01*
X27329171Y-80530184D01*
X27132625Y-80621835D01*
X27132620Y-80621838D01*
X27127638Y-80624161D01*
X27123131Y-80627317D01*
X27123129Y-80627318D01*
X26945494Y-80751699D01*
X26945491Y-80751701D01*
X26940983Y-80754858D01*
X26779858Y-80915983D01*
X26649161Y-81102638D01*
X26646838Y-81107620D01*
X26646835Y-81107625D01*
X26555184Y-81304171D01*
X26552861Y-81309153D01*
X26493886Y-81529253D01*
X26474026Y-81756250D01*
X24321000Y-81756250D01*
X24321000Y-77150000D01*
X28136496Y-77150000D01*
X28137186Y-77156565D01*
X28149183Y-77270706D01*
X28156458Y-77339928D01*
X28215473Y-77521556D01*
X28310960Y-77686944D01*
X28315378Y-77691851D01*
X28315379Y-77691852D01*
X28430350Y-77819540D01*
X28438747Y-77828866D01*
X28593248Y-77941118D01*
X28599276Y-77943802D01*
X28599278Y-77943803D01*
X28761681Y-78016109D01*
X28767712Y-78018794D01*
X28861112Y-78038647D01*
X28948056Y-78057128D01*
X28948061Y-78057128D01*
X28954513Y-78058500D01*
X29145487Y-78058500D01*
X29151939Y-78057128D01*
X29151944Y-78057128D01*
X29238888Y-78038647D01*
X29332288Y-78018794D01*
X29338319Y-78016109D01*
X29500722Y-77943803D01*
X29500724Y-77943802D01*
X29506752Y-77941118D01*
X29661253Y-77828866D01*
X29665668Y-77823963D01*
X29670580Y-77819540D01*
X29671705Y-77820789D01*
X29725014Y-77787949D01*
X29758200Y-77783500D01*
X31089283Y-77783500D01*
X31157404Y-77803502D01*
X31163344Y-77807564D01*
X31192664Y-77828866D01*
X31243248Y-77865618D01*
X31249276Y-77868302D01*
X31249278Y-77868303D01*
X31411681Y-77940609D01*
X31417712Y-77943294D01*
X31511113Y-77963147D01*
X31598056Y-77981628D01*
X31598061Y-77981628D01*
X31604513Y-77983000D01*
X31795487Y-77983000D01*
X31801939Y-77981628D01*
X31801944Y-77981628D01*
X31888887Y-77963147D01*
X31982288Y-77943294D01*
X31988319Y-77940609D01*
X32150722Y-77868303D01*
X32150724Y-77868302D01*
X32156752Y-77865618D01*
X32311253Y-77753366D01*
X32315675Y-77748455D01*
X32434621Y-77616352D01*
X32434622Y-77616351D01*
X32439040Y-77611444D01*
X32534527Y-77446056D01*
X32593542Y-77264428D01*
X32613504Y-77074500D01*
X32601477Y-76960072D01*
X32594232Y-76891135D01*
X32594232Y-76891133D01*
X32593542Y-76884572D01*
X32534527Y-76702944D01*
X32439040Y-76537556D01*
X32379234Y-76471134D01*
X32315675Y-76400545D01*
X32315674Y-76400544D01*
X32311253Y-76395634D01*
X32156752Y-76283382D01*
X32150724Y-76280698D01*
X32150722Y-76280697D01*
X31988319Y-76208391D01*
X31988318Y-76208391D01*
X31982288Y-76205706D01*
X31888887Y-76185853D01*
X31801944Y-76167372D01*
X31801939Y-76167372D01*
X31795487Y-76166000D01*
X31604513Y-76166000D01*
X31598061Y-76167372D01*
X31598056Y-76167372D01*
X31511113Y-76185853D01*
X31417712Y-76205706D01*
X31411682Y-76208391D01*
X31411681Y-76208391D01*
X31249278Y-76280697D01*
X31249276Y-76280698D01*
X31243248Y-76283382D01*
X31088747Y-76395634D01*
X31024260Y-76467255D01*
X31017457Y-76474810D01*
X30957011Y-76512050D01*
X30923821Y-76516500D01*
X29758200Y-76516500D01*
X29690079Y-76496498D01*
X29670853Y-76480157D01*
X29670580Y-76480460D01*
X29665668Y-76476037D01*
X29661253Y-76471134D01*
X29506752Y-76358882D01*
X29500724Y-76356198D01*
X29500722Y-76356197D01*
X29338319Y-76283891D01*
X29338318Y-76283891D01*
X29332288Y-76281206D01*
X29238888Y-76261353D01*
X29151944Y-76242872D01*
X29151939Y-76242872D01*
X29145487Y-76241500D01*
X28954513Y-76241500D01*
X28948061Y-76242872D01*
X28948056Y-76242872D01*
X28861112Y-76261353D01*
X28767712Y-76281206D01*
X28761682Y-76283891D01*
X28761681Y-76283891D01*
X28599278Y-76356197D01*
X28599276Y-76356198D01*
X28593248Y-76358882D01*
X28438747Y-76471134D01*
X28434326Y-76476044D01*
X28434325Y-76476045D01*
X28383360Y-76532648D01*
X28310960Y-76613056D01*
X28215473Y-76778444D01*
X28156458Y-76960072D01*
X28136496Y-77150000D01*
X24321000Y-77150000D01*
X24321000Y-75329294D01*
X24341002Y-75261173D01*
X24394658Y-75214680D01*
X24464932Y-75204576D01*
X24518647Y-75228420D01*
X24519912Y-75226613D01*
X24524145Y-75229577D01*
X24528126Y-75232882D01*
X24721000Y-75345588D01*
X24929692Y-75425280D01*
X24934760Y-75426311D01*
X24934763Y-75426312D01*
X25029862Y-75445660D01*
X25148597Y-75469817D01*
X25153772Y-75470007D01*
X25153774Y-75470007D01*
X25366673Y-75477814D01*
X25366677Y-75477814D01*
X25371837Y-75478003D01*
X25376957Y-75477347D01*
X25376959Y-75477347D01*
X25588288Y-75450275D01*
X25588289Y-75450275D01*
X25593416Y-75449618D01*
X25598366Y-75448133D01*
X25802429Y-75386911D01*
X25802434Y-75386909D01*
X25807384Y-75385424D01*
X26007994Y-75287146D01*
X26189860Y-75157423D01*
X26348096Y-74999739D01*
X26478453Y-74818327D01*
X26479640Y-74819180D01*
X26526960Y-74775612D01*
X26596897Y-74763395D01*
X26662338Y-74790928D01*
X26690166Y-74822761D01*
X26747694Y-74916638D01*
X26753777Y-74924949D01*
X26893213Y-75085917D01*
X26900580Y-75093133D01*
X27064434Y-75229166D01*
X27072881Y-75235081D01*
X27256756Y-75342529D01*
X27266042Y-75346979D01*
X27465001Y-75422953D01*
X27474899Y-75425829D01*
X27578250Y-75446856D01*
X27592299Y-75445660D01*
X27596000Y-75435315D01*
X27596000Y-75434767D01*
X28104000Y-75434767D01*
X28108064Y-75448609D01*
X28121478Y-75450643D01*
X28128184Y-75449784D01*
X28138262Y-75447642D01*
X28342255Y-75386441D01*
X28351842Y-75382683D01*
X28543095Y-75288989D01*
X28551945Y-75283714D01*
X28725328Y-75160042D01*
X28733200Y-75153389D01*
X28884052Y-75003062D01*
X28890730Y-74995215D01*
X29015003Y-74822270D01*
X29020313Y-74813433D01*
X29114670Y-74622517D01*
X29118469Y-74612922D01*
X29180377Y-74409160D01*
X29182555Y-74399087D01*
X29183986Y-74388212D01*
X29181775Y-74374028D01*
X29168617Y-74370250D01*
X28122115Y-74370250D01*
X28106876Y-74374725D01*
X28105671Y-74376115D01*
X28104000Y-74383798D01*
X28104000Y-75434767D01*
X27596000Y-75434767D01*
X27596000Y-73988250D01*
X27616002Y-73920129D01*
X27669658Y-73873636D01*
X27722000Y-73862250D01*
X29168344Y-73862250D01*
X29181875Y-73858277D01*
X29183180Y-73849197D01*
X29141214Y-73682125D01*
X29137894Y-73672374D01*
X29052972Y-73477064D01*
X29048105Y-73467989D01*
X28932426Y-73289176D01*
X28926136Y-73281007D01*
X28782806Y-73123490D01*
X28775273Y-73116465D01*
X28608139Y-72984472D01*
X28599556Y-72978770D01*
X28562602Y-72958370D01*
X28512631Y-72907937D01*
X28497859Y-72838495D01*
X28522975Y-72772089D01*
X28550327Y-72745482D01*
X28573797Y-72728741D01*
X28729860Y-72617423D01*
X28888096Y-72459739D01*
X29018453Y-72278327D01*
X29039320Y-72236107D01*
X29115136Y-72082703D01*
X29115137Y-72082701D01*
X29117430Y-72078061D01*
X29182370Y-71864319D01*
X29211529Y-71642840D01*
X29213156Y-71576250D01*
X29194852Y-71353611D01*
X29140431Y-71136952D01*
X29051354Y-70932090D01*
X28930014Y-70744527D01*
X28779670Y-70579301D01*
X28775619Y-70576102D01*
X28775615Y-70576098D01*
X28608414Y-70444050D01*
X28608410Y-70444048D01*
X28604359Y-70440848D01*
X28563053Y-70418046D01*
X28513084Y-70367614D01*
X28498312Y-70298171D01*
X28523428Y-70231766D01*
X28550780Y-70205159D01*
X28594603Y-70173900D01*
X28729860Y-70077423D01*
X28888096Y-69919739D01*
X28995575Y-69770166D01*
X29015435Y-69742527D01*
X29018453Y-69738327D01*
X29024595Y-69725901D01*
X29115136Y-69542703D01*
X29115137Y-69542701D01*
X29117430Y-69538061D01*
X29182370Y-69324319D01*
X29211529Y-69102840D01*
X29211691Y-69096206D01*
X29213074Y-69039615D01*
X29213074Y-69039611D01*
X29213156Y-69036250D01*
X29194852Y-68813611D01*
X29140431Y-68596952D01*
X29051354Y-68392090D01*
X28930014Y-68204527D01*
X28779670Y-68039301D01*
X28775619Y-68036102D01*
X28775615Y-68036098D01*
X28608414Y-67904050D01*
X28608410Y-67904048D01*
X28604359Y-67900848D01*
X28563053Y-67878046D01*
X28513084Y-67827614D01*
X28498312Y-67758171D01*
X28523428Y-67691766D01*
X28550780Y-67665159D01*
X28594603Y-67633900D01*
X28729860Y-67537423D01*
X28888096Y-67379739D01*
X29018453Y-67198327D01*
X29039320Y-67156107D01*
X29115136Y-67002703D01*
X29115137Y-67002701D01*
X29117430Y-66998061D01*
X29182370Y-66784319D01*
X29211529Y-66562840D01*
X29213156Y-66496250D01*
X29194852Y-66273611D01*
X29140431Y-66056952D01*
X29051354Y-65852090D01*
X28930014Y-65664527D01*
X28779670Y-65499301D01*
X28775619Y-65496102D01*
X28775615Y-65496098D01*
X28608414Y-65364050D01*
X28608410Y-65364048D01*
X28604359Y-65360848D01*
X28563053Y-65338046D01*
X28513084Y-65287614D01*
X28498312Y-65218171D01*
X28523428Y-65151766D01*
X28550780Y-65125159D01*
X28594603Y-65093900D01*
X28729860Y-64997423D01*
X28888096Y-64839739D01*
X29018453Y-64658327D01*
X29039320Y-64616107D01*
X29115136Y-64462703D01*
X29115137Y-64462701D01*
X29117430Y-64458061D01*
X29182370Y-64244319D01*
X29211529Y-64022840D01*
X29213156Y-63956250D01*
X29194852Y-63733611D01*
X29140431Y-63516952D01*
X29051354Y-63312090D01*
X28930014Y-63124527D01*
X28779670Y-62959301D01*
X28775619Y-62956102D01*
X28775615Y-62956098D01*
X28608414Y-62824050D01*
X28608410Y-62824048D01*
X28604359Y-62820848D01*
X28563053Y-62798046D01*
X28513084Y-62747614D01*
X28498312Y-62678171D01*
X28523428Y-62611766D01*
X28550780Y-62585159D01*
X28594603Y-62553900D01*
X28729860Y-62457423D01*
X28888096Y-62299739D01*
X29018453Y-62118327D01*
X29039320Y-62076107D01*
X29115136Y-61922703D01*
X29115137Y-61922701D01*
X29117430Y-61918061D01*
X29182370Y-61704319D01*
X29211529Y-61482840D01*
X29213156Y-61416250D01*
X29194852Y-61193611D01*
X29140431Y-60976952D01*
X29051354Y-60772090D01*
X28930014Y-60584527D01*
X28779670Y-60419301D01*
X28775619Y-60416102D01*
X28775615Y-60416098D01*
X28608414Y-60284050D01*
X28608410Y-60284048D01*
X28604359Y-60280848D01*
X28563053Y-60258046D01*
X28513084Y-60207614D01*
X28498312Y-60138171D01*
X28523428Y-60071766D01*
X28550780Y-60045159D01*
X28594603Y-60013900D01*
X28729860Y-59917423D01*
X28888096Y-59759739D01*
X29018453Y-59578327D01*
X29039320Y-59536107D01*
X29115136Y-59382703D01*
X29115137Y-59382701D01*
X29117430Y-59378061D01*
X29182370Y-59164319D01*
X29211529Y-58942840D01*
X29213156Y-58876250D01*
X29194852Y-58653611D01*
X29140431Y-58436952D01*
X29051354Y-58232090D01*
X28930014Y-58044527D01*
X28779670Y-57879301D01*
X28775619Y-57876102D01*
X28775615Y-57876098D01*
X28608414Y-57744050D01*
X28608410Y-57744048D01*
X28604359Y-57740848D01*
X28563053Y-57718046D01*
X28513084Y-57667614D01*
X28498312Y-57598171D01*
X28523428Y-57531766D01*
X28550780Y-57505159D01*
X28594603Y-57473900D01*
X28729860Y-57377423D01*
X28760071Y-57347318D01*
X28884435Y-57223387D01*
X28888096Y-57219739D01*
X29018453Y-57038327D01*
X29022396Y-57030350D01*
X29115136Y-56842703D01*
X29115137Y-56842701D01*
X29117430Y-56838061D01*
X29167694Y-56672624D01*
X29180865Y-56629273D01*
X29180865Y-56629271D01*
X29182370Y-56624319D01*
X29211529Y-56402840D01*
X29213156Y-56336250D01*
X29194852Y-56113611D01*
X29140431Y-55896952D01*
X29051354Y-55692090D01*
X28930014Y-55504527D01*
X28779670Y-55339301D01*
X28775619Y-55336102D01*
X28775615Y-55336098D01*
X28608414Y-55204050D01*
X28608410Y-55204048D01*
X28604359Y-55200848D01*
X28563053Y-55178046D01*
X28513084Y-55127614D01*
X28498312Y-55058171D01*
X28523428Y-54991766D01*
X28550780Y-54965159D01*
X28594603Y-54933900D01*
X28729860Y-54837423D01*
X28888096Y-54679739D01*
X29018453Y-54498327D01*
X29039320Y-54456107D01*
X29115136Y-54302703D01*
X29115137Y-54302701D01*
X29117430Y-54298061D01*
X29182370Y-54084319D01*
X29211529Y-53862840D01*
X29213156Y-53796250D01*
X29194852Y-53573611D01*
X29140431Y-53356952D01*
X29051354Y-53152090D01*
X28930014Y-52964527D01*
X28926532Y-52960700D01*
X28782798Y-52802738D01*
X28751746Y-52738892D01*
X28760141Y-52668393D01*
X28805317Y-52613625D01*
X28831761Y-52599956D01*
X28938297Y-52560017D01*
X28946705Y-52556865D01*
X29063261Y-52469511D01*
X29150615Y-52352955D01*
X29201745Y-52216566D01*
X29208500Y-52154384D01*
X29208500Y-50358116D01*
X29201745Y-50295934D01*
X29150615Y-50159545D01*
X29063261Y-50042989D01*
X28946705Y-49955635D01*
X28810316Y-49904505D01*
X28748134Y-49897750D01*
X26951866Y-49897750D01*
X26889684Y-49904505D01*
X26753295Y-49955635D01*
X26636739Y-50042989D01*
X26549385Y-50159545D01*
X26546233Y-50167953D01*
X26504919Y-50278157D01*
X26462277Y-50334921D01*
X26395716Y-50359621D01*
X26326367Y-50344413D01*
X26293743Y-50318726D01*
X26243151Y-50263125D01*
X26243142Y-50263116D01*
X26239670Y-50259301D01*
X26235619Y-50256102D01*
X26235615Y-50256098D01*
X26068414Y-50124050D01*
X26068410Y-50124048D01*
X26064359Y-50120848D01*
X26041638Y-50108305D01*
X26012136Y-50092019D01*
X25868789Y-50012888D01*
X25863920Y-50011164D01*
X25863916Y-50011162D01*
X25663087Y-49940045D01*
X25663083Y-49940044D01*
X25658212Y-49938319D01*
X25653119Y-49937412D01*
X25653116Y-49937411D01*
X25443373Y-49900050D01*
X25443367Y-49900049D01*
X25438284Y-49899144D01*
X25364452Y-49898242D01*
X25220081Y-49896478D01*
X25220079Y-49896478D01*
X25214911Y-49896415D01*
X24994091Y-49930205D01*
X24781756Y-49999607D01*
X24583607Y-50102757D01*
X24579473Y-50105861D01*
X24522652Y-50148523D01*
X24456167Y-50173428D01*
X24386772Y-50158435D01*
X24336498Y-50108305D01*
X24321000Y-50047762D01*
X24321000Y-43656250D01*
X26474026Y-43656250D01*
X26493886Y-43883247D01*
X26552861Y-44103347D01*
X26555183Y-44108327D01*
X26555184Y-44108329D01*
X26646835Y-44304875D01*
X26646838Y-44304880D01*
X26649161Y-44309862D01*
X26779858Y-44496517D01*
X26940983Y-44657642D01*
X26945491Y-44660799D01*
X26945494Y-44660801D01*
X27123129Y-44785182D01*
X27127638Y-44788339D01*
X27132620Y-44790662D01*
X27132625Y-44790665D01*
X27329171Y-44882316D01*
X27334153Y-44884639D01*
X27339461Y-44886061D01*
X27339463Y-44886062D01*
X27548938Y-44942190D01*
X27548939Y-44942190D01*
X27554253Y-44943614D01*
X27781250Y-44963474D01*
X28008247Y-44943614D01*
X28013561Y-44942190D01*
X28013562Y-44942190D01*
X28223037Y-44886062D01*
X28223039Y-44886061D01*
X28228347Y-44884639D01*
X28233329Y-44882316D01*
X28429875Y-44790665D01*
X28429880Y-44790662D01*
X28434862Y-44788339D01*
X28439371Y-44785182D01*
X28617006Y-44660801D01*
X28617009Y-44660799D01*
X28621517Y-44657642D01*
X28782642Y-44496517D01*
X28913339Y-44309862D01*
X28915662Y-44304880D01*
X28915665Y-44304875D01*
X29007316Y-44108329D01*
X29007317Y-44108327D01*
X29009639Y-44103347D01*
X29068614Y-43883247D01*
X29088474Y-43656250D01*
X29068614Y-43429253D01*
X29009639Y-43209153D01*
X29007316Y-43204171D01*
X28915665Y-43007625D01*
X28915662Y-43007620D01*
X28913339Y-43002638D01*
X28782642Y-42815983D01*
X28621517Y-42654858D01*
X28617009Y-42651701D01*
X28617006Y-42651699D01*
X28439371Y-42527318D01*
X28439369Y-42527317D01*
X28434862Y-42524161D01*
X28429880Y-42521838D01*
X28429875Y-42521835D01*
X28233329Y-42430184D01*
X28233327Y-42430183D01*
X28228347Y-42427861D01*
X28223039Y-42426439D01*
X28223037Y-42426438D01*
X28013562Y-42370310D01*
X28013561Y-42370310D01*
X28008247Y-42368886D01*
X27781250Y-42349026D01*
X27554253Y-42368886D01*
X27548939Y-42370310D01*
X27548938Y-42370310D01*
X27339463Y-42426438D01*
X27339461Y-42426439D01*
X27334153Y-42427861D01*
X27329173Y-42430183D01*
X27329171Y-42430184D01*
X27132625Y-42521835D01*
X27132620Y-42521838D01*
X27127638Y-42524161D01*
X27123131Y-42527317D01*
X27123129Y-42527318D01*
X26945494Y-42651699D01*
X26945491Y-42651701D01*
X26940983Y-42654858D01*
X26779858Y-42815983D01*
X26649161Y-43002638D01*
X26646838Y-43007620D01*
X26646835Y-43007625D01*
X26555184Y-43204171D01*
X26552861Y-43209153D01*
X26493886Y-43429253D01*
X26474026Y-43656250D01*
X24321000Y-43656250D01*
X24321000Y-19050000D01*
X26474026Y-19050000D01*
X26493886Y-19276997D01*
X26552861Y-19497097D01*
X26555183Y-19502077D01*
X26555184Y-19502079D01*
X26646835Y-19698625D01*
X26646838Y-19698630D01*
X26649161Y-19703612D01*
X26779858Y-19890267D01*
X26940983Y-20051392D01*
X26945491Y-20054549D01*
X26945494Y-20054551D01*
X27123129Y-20178932D01*
X27127638Y-20182089D01*
X27132620Y-20184412D01*
X27132625Y-20184415D01*
X27329171Y-20276066D01*
X27334153Y-20278389D01*
X27339461Y-20279811D01*
X27339463Y-20279812D01*
X27548938Y-20335940D01*
X27548939Y-20335940D01*
X27554253Y-20337364D01*
X27781250Y-20357224D01*
X28008247Y-20337364D01*
X28013561Y-20335940D01*
X28013562Y-20335940D01*
X28223037Y-20279812D01*
X28223039Y-20279811D01*
X28228347Y-20278389D01*
X28233329Y-20276066D01*
X28429875Y-20184415D01*
X28429880Y-20184412D01*
X28434862Y-20182089D01*
X28439371Y-20178932D01*
X28617006Y-20054551D01*
X28617009Y-20054549D01*
X28621517Y-20051392D01*
X28782642Y-19890267D01*
X28913339Y-19703612D01*
X28915662Y-19698630D01*
X28915665Y-19698625D01*
X29007316Y-19502079D01*
X29007317Y-19502077D01*
X29009639Y-19497097D01*
X29068614Y-19276997D01*
X29088474Y-19050000D01*
X29068614Y-18823003D01*
X29009639Y-18602903D01*
X29007316Y-18597921D01*
X28915665Y-18401375D01*
X28915662Y-18401370D01*
X28913339Y-18396388D01*
X28782642Y-18209733D01*
X28621517Y-18048608D01*
X28617009Y-18045451D01*
X28617006Y-18045449D01*
X28439371Y-17921068D01*
X28439369Y-17921067D01*
X28434862Y-17917911D01*
X28429880Y-17915588D01*
X28429875Y-17915585D01*
X28233329Y-17823934D01*
X28233327Y-17823933D01*
X28228347Y-17821611D01*
X28223039Y-17820189D01*
X28223037Y-17820188D01*
X28013562Y-17764060D01*
X28013561Y-17764060D01*
X28008247Y-17762636D01*
X27781250Y-17742776D01*
X27554253Y-17762636D01*
X27548939Y-17764060D01*
X27548938Y-17764060D01*
X27339463Y-17820188D01*
X27339461Y-17820189D01*
X27334153Y-17821611D01*
X27329173Y-17823933D01*
X27329171Y-17823934D01*
X27132625Y-17915585D01*
X27132620Y-17915588D01*
X27127638Y-17917911D01*
X27123131Y-17921067D01*
X27123129Y-17921068D01*
X26945494Y-18045449D01*
X26945491Y-18045451D01*
X26940983Y-18048608D01*
X26779858Y-18209733D01*
X26649161Y-18396388D01*
X26646838Y-18401370D01*
X26646835Y-18401375D01*
X26555184Y-18597921D01*
X26552861Y-18602903D01*
X26493886Y-18823003D01*
X26474026Y-19050000D01*
X24321000Y-19050000D01*
X24321000Y-17515750D01*
X24322746Y-17494845D01*
X24325270Y-17479844D01*
X24325270Y-17479841D01*
X24326076Y-17475052D01*
X24326229Y-17462500D01*
X24324547Y-17450753D01*
X24323559Y-17424442D01*
X24337287Y-17220259D01*
X24339550Y-17203505D01*
X24386425Y-16973921D01*
X24390910Y-16957623D01*
X24468093Y-16736384D01*
X24474720Y-16720831D01*
X24580827Y-16511913D01*
X24589476Y-16497388D01*
X24722594Y-16304556D01*
X24733109Y-16291320D01*
X24890843Y-16118042D01*
X24903036Y-16106332D01*
X25082549Y-15955725D01*
X25096198Y-15945755D01*
X25294249Y-15820540D01*
X25309111Y-15812485D01*
X25522153Y-15714903D01*
X25537952Y-15708914D01*
X25762137Y-15640730D01*
X25778595Y-15636909D01*
X25848264Y-15625595D01*
X26009891Y-15599349D01*
X26026721Y-15597765D01*
X26115695Y-15595387D01*
X26227689Y-15592394D01*
X26249413Y-15594226D01*
X26254133Y-15594474D01*
X26262941Y-15596213D01*
X26329240Y-15590256D01*
X26340515Y-15589750D01*
X40355250Y-15589750D01*
X40423371Y-15609752D01*
G37*
G04 #@! TD.AperFunction*
G04 #@! TA.AperFunction,Conductor*
G36*
X117826027Y-51416002D02*
G01*
X117847001Y-51432905D01*
X117947595Y-51533499D01*
X117981621Y-51595811D01*
X117984500Y-51622594D01*
X117984500Y-58606476D01*
X117964498Y-58674597D01*
X117952142Y-58690779D01*
X117878960Y-58772056D01*
X117783473Y-58937444D01*
X117724458Y-59119072D01*
X117723768Y-59125633D01*
X117723768Y-59125635D01*
X117710722Y-59249767D01*
X117704496Y-59309000D01*
X117724458Y-59498928D01*
X117783473Y-59680556D01*
X117786776Y-59686278D01*
X117786777Y-59686279D01*
X117808875Y-59724553D01*
X117878960Y-59845944D01*
X117883378Y-59850851D01*
X117883379Y-59850852D01*
X117911033Y-59881565D01*
X118006747Y-59987866D01*
X118105843Y-60059864D01*
X118155846Y-60096193D01*
X118161248Y-60100118D01*
X118167276Y-60102802D01*
X118167278Y-60102803D01*
X118327734Y-60174242D01*
X118335712Y-60177794D01*
X118434405Y-60198772D01*
X118505081Y-60213795D01*
X118567555Y-60247524D01*
X118601876Y-60309673D01*
X118604194Y-60350212D01*
X118594186Y-60445435D01*
X118593496Y-60452000D01*
X118594186Y-60458565D01*
X118610187Y-60610803D01*
X118613458Y-60641928D01*
X118672473Y-60823556D01*
X118767960Y-60988944D01*
X118895747Y-61130866D01*
X119050248Y-61243118D01*
X119056276Y-61245802D01*
X119056278Y-61245803D01*
X119218681Y-61318109D01*
X119224712Y-61320794D01*
X119313046Y-61339570D01*
X119405056Y-61359128D01*
X119405061Y-61359128D01*
X119411513Y-61360500D01*
X119602487Y-61360500D01*
X119608939Y-61359128D01*
X119608944Y-61359128D01*
X119700954Y-61339570D01*
X119789288Y-61320794D01*
X119795319Y-61318109D01*
X119957722Y-61245803D01*
X119957724Y-61245802D01*
X119963752Y-61243118D01*
X120118253Y-61130866D01*
X120246040Y-60988944D01*
X120341527Y-60823556D01*
X120345099Y-60812561D01*
X120385174Y-60753957D01*
X120450571Y-60726321D01*
X120464932Y-60725500D01*
X120491487Y-60725500D01*
X120497939Y-60724128D01*
X120497944Y-60724128D01*
X120584887Y-60705647D01*
X120678288Y-60685794D01*
X120684319Y-60683109D01*
X120846722Y-60610803D01*
X120846724Y-60610802D01*
X120852752Y-60608118D01*
X120901735Y-60572530D01*
X120926135Y-60554802D01*
X121007253Y-60495866D01*
X121040839Y-60458565D01*
X121130621Y-60358852D01*
X121130622Y-60358851D01*
X121135040Y-60353944D01*
X121230527Y-60188556D01*
X121289542Y-60006928D01*
X121291138Y-59991749D01*
X121295921Y-59946235D01*
X121322934Y-59880578D01*
X121381156Y-59839948D01*
X121395034Y-59836158D01*
X121417879Y-59831302D01*
X121567288Y-59799544D01*
X121573319Y-59796859D01*
X121735722Y-59724553D01*
X121735724Y-59724552D01*
X121741752Y-59721868D01*
X121807264Y-59674271D01*
X121885439Y-59617473D01*
X121952307Y-59593615D01*
X122021458Y-59609695D01*
X122070938Y-59660609D01*
X122085500Y-59719409D01*
X122085500Y-66498031D01*
X122065498Y-66566152D01*
X122053136Y-66582341D01*
X121980460Y-66663056D01*
X121884973Y-66828444D01*
X121825958Y-67010072D01*
X121805996Y-67200000D01*
X121806686Y-67206565D01*
X121821777Y-67350144D01*
X121825958Y-67389928D01*
X121884973Y-67571556D01*
X121980460Y-67736944D01*
X121984878Y-67741851D01*
X121984879Y-67741852D01*
X122078561Y-67845896D01*
X122108247Y-67878866D01*
X122118223Y-67886114D01*
X122217657Y-67958357D01*
X122262748Y-67991118D01*
X122268776Y-67993802D01*
X122268778Y-67993803D01*
X122410266Y-68056797D01*
X122437212Y-68068794D01*
X122503105Y-68082800D01*
X122617556Y-68107128D01*
X122617561Y-68107128D01*
X122624013Y-68108500D01*
X122684500Y-68108500D01*
X122752621Y-68128502D01*
X122799114Y-68182158D01*
X122810500Y-68234500D01*
X122810500Y-68965233D01*
X122809973Y-68976416D01*
X122808298Y-68983909D01*
X122808547Y-68991835D01*
X122808547Y-68991836D01*
X122810438Y-69051986D01*
X122810500Y-69055945D01*
X122810500Y-69083856D01*
X122810997Y-69087790D01*
X122810997Y-69087791D01*
X122811005Y-69087856D01*
X122811938Y-69099693D01*
X122813327Y-69143889D01*
X122818978Y-69163339D01*
X122822987Y-69182700D01*
X122825526Y-69202797D01*
X122828445Y-69210168D01*
X122828445Y-69210170D01*
X122841804Y-69243912D01*
X122845649Y-69255142D01*
X122857982Y-69297593D01*
X122862015Y-69304412D01*
X122862017Y-69304417D01*
X122868293Y-69315028D01*
X122876988Y-69332776D01*
X122884448Y-69351617D01*
X122889110Y-69358033D01*
X122889110Y-69358034D01*
X122910436Y-69387387D01*
X122916952Y-69397307D01*
X122935354Y-69428422D01*
X122939458Y-69435362D01*
X122953782Y-69449686D01*
X122966617Y-69464713D01*
X122978528Y-69481107D01*
X122984636Y-69486160D01*
X123012597Y-69509292D01*
X123021375Y-69517280D01*
X123146352Y-69642256D01*
X123153888Y-69650538D01*
X123158000Y-69657018D01*
X123163779Y-69662445D01*
X123163780Y-69662446D01*
X123207652Y-69703644D01*
X123210494Y-69706399D01*
X123230230Y-69726135D01*
X123233427Y-69728615D01*
X123242447Y-69736318D01*
X123274679Y-69766586D01*
X123281625Y-69770405D01*
X123281628Y-69770407D01*
X123292434Y-69776348D01*
X123308953Y-69787199D01*
X123324959Y-69799614D01*
X123332228Y-69802759D01*
X123332232Y-69802762D01*
X123365537Y-69817174D01*
X123376187Y-69822391D01*
X123414940Y-69843695D01*
X123422615Y-69845666D01*
X123422616Y-69845666D01*
X123434562Y-69848733D01*
X123453267Y-69855137D01*
X123471855Y-69863181D01*
X123479678Y-69864420D01*
X123479688Y-69864423D01*
X123515524Y-69870099D01*
X123527144Y-69872505D01*
X123562289Y-69881528D01*
X123569970Y-69883500D01*
X123590224Y-69883500D01*
X123609934Y-69885051D01*
X123629943Y-69888220D01*
X123637835Y-69887474D01*
X123673961Y-69884059D01*
X123685819Y-69883500D01*
X123691800Y-69883500D01*
X123759921Y-69903502D01*
X123779147Y-69919843D01*
X123779420Y-69919540D01*
X123784332Y-69923963D01*
X123788747Y-69928866D01*
X123943248Y-70041118D01*
X123949276Y-70043802D01*
X123949278Y-70043803D01*
X124111681Y-70116109D01*
X124117712Y-70118794D01*
X124211112Y-70138647D01*
X124298056Y-70157128D01*
X124298061Y-70157128D01*
X124304513Y-70158500D01*
X124495487Y-70158500D01*
X124501939Y-70157128D01*
X124501944Y-70157128D01*
X124588888Y-70138647D01*
X124682288Y-70118794D01*
X124688319Y-70116109D01*
X124850722Y-70043803D01*
X124850724Y-70043802D01*
X124856752Y-70041118D01*
X125011253Y-69928866D01*
X125034091Y-69903502D01*
X125134621Y-69791852D01*
X125134622Y-69791851D01*
X125139040Y-69786944D01*
X125234527Y-69621556D01*
X125273192Y-69502558D01*
X125313266Y-69443952D01*
X125378662Y-69416315D01*
X125448619Y-69428422D01*
X125500925Y-69476428D01*
X125515942Y-69513793D01*
X125540472Y-69622639D01*
X125583501Y-69728608D01*
X125612334Y-69799614D01*
X125624516Y-69829616D01*
X125669793Y-69903502D01*
X125738541Y-70015688D01*
X125741237Y-70020088D01*
X125887500Y-70188938D01*
X126059376Y-70331632D01*
X126105821Y-70358772D01*
X126132695Y-70374476D01*
X126181419Y-70426114D01*
X126194490Y-70495897D01*
X126167759Y-70561669D01*
X126127305Y-70595027D01*
X126114857Y-70601507D01*
X126110724Y-70604610D01*
X126110721Y-70604612D01*
X125940350Y-70732530D01*
X125936215Y-70735635D01*
X125781879Y-70897138D01*
X125655993Y-71081680D01*
X125561938Y-71284305D01*
X125502239Y-71499570D01*
X125478501Y-71721695D01*
X125491360Y-71944715D01*
X125492497Y-71949761D01*
X125492498Y-71949767D01*
X125516554Y-72056508D01*
X125540472Y-72162639D01*
X125624516Y-72369616D01*
X125676192Y-72453944D01*
X125738541Y-72555688D01*
X125741237Y-72560088D01*
X125887500Y-72728938D01*
X126059376Y-72871632D01*
X126105821Y-72898772D01*
X126133205Y-72914774D01*
X126181929Y-72966412D01*
X126195000Y-73036195D01*
X126168269Y-73101967D01*
X126127812Y-73135327D01*
X126119707Y-73139546D01*
X126110988Y-73145036D01*
X125940683Y-73272905D01*
X125932976Y-73279748D01*
X125785840Y-73433717D01*
X125779354Y-73441727D01*
X125659348Y-73617649D01*
X125654250Y-73626623D01*
X125564588Y-73819783D01*
X125561025Y-73829470D01*
X125505639Y-74029183D01*
X125507162Y-74037607D01*
X125519542Y-74041000D01*
X126969250Y-74041000D01*
X127037371Y-74061002D01*
X127083864Y-74114658D01*
X127095250Y-74167000D01*
X127095250Y-75613517D01*
X127099314Y-75627359D01*
X127112728Y-75629393D01*
X127119434Y-75628534D01*
X127129512Y-75626392D01*
X127333505Y-75565191D01*
X127343092Y-75561433D01*
X127534345Y-75467739D01*
X127543195Y-75462464D01*
X127716578Y-75338792D01*
X127724450Y-75332139D01*
X127875302Y-75181812D01*
X127881980Y-75173965D01*
X128009272Y-74996819D01*
X128010529Y-74997722D01*
X128057623Y-74954362D01*
X128127561Y-74942145D01*
X128193001Y-74969678D01*
X128220829Y-75001511D01*
X128281237Y-75100088D01*
X128427500Y-75268938D01*
X128599376Y-75411632D01*
X128792250Y-75524338D01*
X129000942Y-75604030D01*
X129006010Y-75605061D01*
X129006013Y-75605062D01*
X129101112Y-75624410D01*
X129219847Y-75648567D01*
X129225022Y-75648757D01*
X129225024Y-75648757D01*
X129437923Y-75656564D01*
X129437927Y-75656564D01*
X129443087Y-75656753D01*
X129448207Y-75656097D01*
X129448209Y-75656097D01*
X129659538Y-75629025D01*
X129659539Y-75629025D01*
X129664666Y-75628368D01*
X129669616Y-75626883D01*
X129873679Y-75565661D01*
X129873684Y-75565659D01*
X129878634Y-75564174D01*
X130079244Y-75465896D01*
X130261082Y-75336193D01*
X130328155Y-75312919D01*
X130397164Y-75329603D01*
X130446198Y-75380947D01*
X130460250Y-75438772D01*
X130460250Y-107900633D01*
X130458750Y-107920018D01*
X130456440Y-107934851D01*
X130456440Y-107934855D01*
X130455059Y-107943724D01*
X130457189Y-107960010D01*
X130457983Y-107984590D01*
X130444768Y-108186201D01*
X130442617Y-108202541D01*
X130398049Y-108426603D01*
X130393783Y-108442524D01*
X130320349Y-108658851D01*
X130314042Y-108674077D01*
X130213002Y-108878967D01*
X130204761Y-108893241D01*
X130077842Y-109083188D01*
X130067809Y-109096263D01*
X129917179Y-109268024D01*
X129905524Y-109279679D01*
X129733763Y-109430309D01*
X129720688Y-109440342D01*
X129530741Y-109567261D01*
X129516467Y-109575502D01*
X129311577Y-109676542D01*
X129296351Y-109682849D01*
X129080024Y-109756283D01*
X129064103Y-109760549D01*
X128840041Y-109805117D01*
X128823701Y-109807268D01*
X128692382Y-109815876D01*
X128629263Y-109820013D01*
X128606150Y-109818983D01*
X128602646Y-109818940D01*
X128593776Y-109817559D01*
X128584874Y-109818723D01*
X128584872Y-109818723D01*
X128569823Y-109820691D01*
X128562214Y-109821686D01*
X128545879Y-109822750D01*
X116807250Y-109822750D01*
X116739129Y-109802748D01*
X116692636Y-109749092D01*
X116681250Y-109696750D01*
X116681250Y-106362500D01*
X125692776Y-106362500D01*
X125712636Y-106589497D01*
X125771611Y-106809597D01*
X125773933Y-106814577D01*
X125773934Y-106814579D01*
X125865585Y-107011125D01*
X125865588Y-107011130D01*
X125867911Y-107016112D01*
X125998608Y-107202767D01*
X126159733Y-107363892D01*
X126164241Y-107367049D01*
X126164244Y-107367051D01*
X126341879Y-107491432D01*
X126346388Y-107494589D01*
X126351370Y-107496912D01*
X126351375Y-107496915D01*
X126547921Y-107588566D01*
X126552903Y-107590889D01*
X126558211Y-107592311D01*
X126558213Y-107592312D01*
X126767688Y-107648440D01*
X126767689Y-107648440D01*
X126773003Y-107649864D01*
X127000000Y-107669724D01*
X127226997Y-107649864D01*
X127232311Y-107648440D01*
X127232312Y-107648440D01*
X127441787Y-107592312D01*
X127441789Y-107592311D01*
X127447097Y-107590889D01*
X127452079Y-107588566D01*
X127648625Y-107496915D01*
X127648630Y-107496912D01*
X127653612Y-107494589D01*
X127658121Y-107491432D01*
X127835756Y-107367051D01*
X127835759Y-107367049D01*
X127840267Y-107363892D01*
X128001392Y-107202767D01*
X128132089Y-107016112D01*
X128134412Y-107011130D01*
X128134415Y-107011125D01*
X128226066Y-106814579D01*
X128226067Y-106814577D01*
X128228389Y-106809597D01*
X128287364Y-106589497D01*
X128307224Y-106362500D01*
X128287364Y-106135503D01*
X128228389Y-105915403D01*
X128226066Y-105910421D01*
X128134415Y-105713875D01*
X128134412Y-105713870D01*
X128132089Y-105708888D01*
X128001392Y-105522233D01*
X127840267Y-105361108D01*
X127835759Y-105357951D01*
X127835756Y-105357949D01*
X127658121Y-105233568D01*
X127658119Y-105233567D01*
X127653612Y-105230411D01*
X127648630Y-105228088D01*
X127648625Y-105228085D01*
X127452079Y-105136434D01*
X127452077Y-105136433D01*
X127447097Y-105134111D01*
X127441789Y-105132689D01*
X127441787Y-105132688D01*
X127232312Y-105076560D01*
X127232311Y-105076560D01*
X127226997Y-105075136D01*
X127000000Y-105055276D01*
X126773003Y-105075136D01*
X126767689Y-105076560D01*
X126767688Y-105076560D01*
X126558213Y-105132688D01*
X126558211Y-105132689D01*
X126552903Y-105134111D01*
X126547923Y-105136433D01*
X126547921Y-105136434D01*
X126351375Y-105228085D01*
X126351370Y-105228088D01*
X126346388Y-105230411D01*
X126341881Y-105233567D01*
X126341879Y-105233568D01*
X126164244Y-105357949D01*
X126164241Y-105357951D01*
X126159733Y-105361108D01*
X125998608Y-105522233D01*
X125867911Y-105708888D01*
X125865588Y-105713870D01*
X125865585Y-105713875D01*
X125773934Y-105910421D01*
X125771611Y-105915403D01*
X125712636Y-106135503D01*
X125692776Y-106362500D01*
X116681250Y-106362500D01*
X116681250Y-80962500D01*
X125692776Y-80962500D01*
X125712636Y-81189497D01*
X125771611Y-81409597D01*
X125773933Y-81414577D01*
X125773934Y-81414579D01*
X125865585Y-81611125D01*
X125865588Y-81611130D01*
X125867911Y-81616112D01*
X125998608Y-81802767D01*
X126159733Y-81963892D01*
X126164241Y-81967049D01*
X126164244Y-81967051D01*
X126341879Y-82091432D01*
X126346388Y-82094589D01*
X126351370Y-82096912D01*
X126351375Y-82096915D01*
X126547921Y-82188566D01*
X126552903Y-82190889D01*
X126558211Y-82192311D01*
X126558213Y-82192312D01*
X126767688Y-82248440D01*
X126767689Y-82248440D01*
X126773003Y-82249864D01*
X127000000Y-82269724D01*
X127226997Y-82249864D01*
X127232311Y-82248440D01*
X127232312Y-82248440D01*
X127441787Y-82192312D01*
X127441789Y-82192311D01*
X127447097Y-82190889D01*
X127452079Y-82188566D01*
X127648625Y-82096915D01*
X127648630Y-82096912D01*
X127653612Y-82094589D01*
X127658121Y-82091432D01*
X127835756Y-81967051D01*
X127835759Y-81967049D01*
X127840267Y-81963892D01*
X128001392Y-81802767D01*
X128132089Y-81616112D01*
X128134412Y-81611130D01*
X128134415Y-81611125D01*
X128226066Y-81414579D01*
X128226067Y-81414577D01*
X128228389Y-81409597D01*
X128287364Y-81189497D01*
X128307224Y-80962500D01*
X128287364Y-80735503D01*
X128228389Y-80515403D01*
X128226066Y-80510421D01*
X128134415Y-80313875D01*
X128134412Y-80313870D01*
X128132089Y-80308888D01*
X128001392Y-80122233D01*
X127840267Y-79961108D01*
X127835759Y-79957951D01*
X127835756Y-79957949D01*
X127658121Y-79833568D01*
X127658119Y-79833567D01*
X127653612Y-79830411D01*
X127648630Y-79828088D01*
X127648625Y-79828085D01*
X127452079Y-79736434D01*
X127452077Y-79736433D01*
X127447097Y-79734111D01*
X127441789Y-79732689D01*
X127441787Y-79732688D01*
X127232312Y-79676560D01*
X127232311Y-79676560D01*
X127226997Y-79675136D01*
X127000000Y-79655276D01*
X126773003Y-79675136D01*
X126767689Y-79676560D01*
X126767688Y-79676560D01*
X126558213Y-79732688D01*
X126558211Y-79732689D01*
X126552903Y-79734111D01*
X126547923Y-79736433D01*
X126547921Y-79736434D01*
X126351375Y-79828085D01*
X126351370Y-79828088D01*
X126346388Y-79830411D01*
X126341881Y-79833567D01*
X126341879Y-79833568D01*
X126164244Y-79957949D01*
X126164241Y-79957951D01*
X126159733Y-79961108D01*
X125998608Y-80122233D01*
X125867911Y-80308888D01*
X125865588Y-80313870D01*
X125865585Y-80313875D01*
X125773934Y-80510421D01*
X125771611Y-80515403D01*
X125712636Y-80735503D01*
X125692776Y-80962500D01*
X116681250Y-80962500D01*
X116681250Y-74562966D01*
X125509507Y-74562966D01*
X125539815Y-74697446D01*
X125542895Y-74707275D01*
X125623020Y-74904603D01*
X125627663Y-74913794D01*
X125738944Y-75095388D01*
X125745027Y-75103699D01*
X125884463Y-75264667D01*
X125891830Y-75271883D01*
X126055684Y-75407916D01*
X126064131Y-75413831D01*
X126248006Y-75521279D01*
X126257292Y-75525729D01*
X126456251Y-75601703D01*
X126466149Y-75604579D01*
X126569500Y-75625606D01*
X126583549Y-75624410D01*
X126587250Y-75614065D01*
X126587250Y-74567115D01*
X126582775Y-74551876D01*
X126581385Y-74550671D01*
X126573702Y-74549000D01*
X125524475Y-74549000D01*
X125510944Y-74552973D01*
X125509507Y-74562966D01*
X116681250Y-74562966D01*
X116681250Y-66357195D01*
X116698131Y-66294195D01*
X116718723Y-66258529D01*
X116718724Y-66258528D01*
X116722027Y-66252806D01*
X116781042Y-66071178D01*
X116788347Y-66001680D01*
X116800314Y-65887815D01*
X116801004Y-65881250D01*
X116781042Y-65691322D01*
X116722027Y-65509694D01*
X116698131Y-65468305D01*
X116681250Y-65405305D01*
X116681250Y-65241845D01*
X116701252Y-65173724D01*
X116718155Y-65152749D01*
X116803462Y-65067443D01*
X116953507Y-64917398D01*
X117015819Y-64883373D01*
X117086635Y-64888438D01*
X117093850Y-64891387D01*
X117261677Y-64966108D01*
X117261685Y-64966111D01*
X117267712Y-64968794D01*
X117361113Y-64988647D01*
X117448056Y-65007128D01*
X117448061Y-65007128D01*
X117454513Y-65008500D01*
X117645487Y-65008500D01*
X117651939Y-65007128D01*
X117651944Y-65007128D01*
X117738887Y-64988647D01*
X117832288Y-64968794D01*
X117887999Y-64943990D01*
X118000722Y-64893803D01*
X118000724Y-64893802D01*
X118006752Y-64891118D01*
X118161253Y-64778866D01*
X118176026Y-64762459D01*
X118284621Y-64641852D01*
X118284622Y-64641851D01*
X118289040Y-64636944D01*
X118384527Y-64471556D01*
X118443542Y-64289928D01*
X118463504Y-64100000D01*
X118447772Y-63950321D01*
X118444232Y-63916635D01*
X118444232Y-63916633D01*
X118443542Y-63910072D01*
X118384527Y-63728444D01*
X118352615Y-63673170D01*
X118292341Y-63568774D01*
X118289040Y-63563056D01*
X118224017Y-63490840D01*
X118165675Y-63426045D01*
X118165674Y-63426044D01*
X118161253Y-63421134D01*
X118006752Y-63308882D01*
X118000724Y-63306198D01*
X118000722Y-63306197D01*
X117838319Y-63233891D01*
X117838318Y-63233891D01*
X117832288Y-63231206D01*
X117738887Y-63211353D01*
X117651944Y-63192872D01*
X117651939Y-63192872D01*
X117645487Y-63191500D01*
X117454513Y-63191500D01*
X117448061Y-63192872D01*
X117448056Y-63192872D01*
X117361113Y-63211353D01*
X117267712Y-63231206D01*
X117261682Y-63233891D01*
X117261681Y-63233891D01*
X117099278Y-63306197D01*
X117099276Y-63306198D01*
X117093248Y-63308882D01*
X116938747Y-63421134D01*
X116934325Y-63426045D01*
X116929423Y-63430459D01*
X116928266Y-63429174D01*
X116875102Y-63461928D01*
X116845882Y-63466315D01*
X116842013Y-63466437D01*
X116838042Y-63466500D01*
X116810144Y-63466500D01*
X116810144Y-63465298D01*
X116745917Y-63450747D01*
X116696148Y-63400115D01*
X116681250Y-63340682D01*
X116681250Y-51797000D01*
X116701252Y-51728879D01*
X116754908Y-51682386D01*
X116807250Y-51671000D01*
X116935487Y-51671000D01*
X116941939Y-51669628D01*
X116941944Y-51669628D01*
X117028888Y-51651147D01*
X117122288Y-51631294D01*
X117141829Y-51622594D01*
X117290722Y-51556303D01*
X117290724Y-51556302D01*
X117296752Y-51553618D01*
X117324444Y-51533499D01*
X117445914Y-51445245D01*
X117451253Y-51441366D01*
X117455668Y-51436463D01*
X117460580Y-51432040D01*
X117461705Y-51433289D01*
X117515014Y-51400449D01*
X117548200Y-51396000D01*
X117757906Y-51396000D01*
X117826027Y-51416002D01*
G37*
G04 #@! TD.AperFunction*
M02*
