G04 #@! TF.GenerationSoftware,KiCad,Pcbnew,(6.0.9)*
G04 #@! TF.CreationDate,2022-12-29T20:32:49-06:00*
G04 #@! TF.ProjectId,Number Pad,4e756d62-6572-4205-9061-642e6b696361,rev?*
G04 #@! TF.SameCoordinates,Original*
G04 #@! TF.FileFunction,Paste,Top*
G04 #@! TF.FilePolarity,Positive*
%FSLAX46Y46*%
G04 Gerber Fmt 4.6, Leading zero omitted, Abs format (unit mm)*
G04 Created by KiCad (PCBNEW (6.0.9)) date 2022-12-29 20:32:49*
%MOMM*%
%LPD*%
G01*
G04 APERTURE LIST*
G04 Aperture macros list*
%AMRoundRect*
0 Rectangle with rounded corners*
0 $1 Rounding radius*
0 $2 $3 $4 $5 $6 $7 $8 $9 X,Y pos of 4 corners*
0 Add a 4 corners polygon primitive as box body*
4,1,4,$2,$3,$4,$5,$6,$7,$8,$9,$2,$3,0*
0 Add four circle primitives for the rounded corners*
1,1,$1+$1,$2,$3*
1,1,$1+$1,$4,$5*
1,1,$1+$1,$6,$7*
1,1,$1+$1,$8,$9*
0 Add four rect primitives between the rounded corners*
20,1,$1+$1,$2,$3,$4,$5,0*
20,1,$1+$1,$4,$5,$6,$7,0*
20,1,$1+$1,$6,$7,$8,$9,0*
20,1,$1+$1,$8,$9,$2,$3,0*%
G04 Aperture macros list end*
%ADD10RoundRect,0.150000X-0.625000X0.150000X-0.625000X-0.150000X0.625000X-0.150000X0.625000X0.150000X0*%
%ADD11RoundRect,0.250000X-0.650000X0.350000X-0.650000X-0.350000X0.650000X-0.350000X0.650000X0.350000X0*%
%ADD12RoundRect,0.150000X0.625000X-0.150000X0.625000X0.150000X-0.625000X0.150000X-0.625000X-0.150000X0*%
%ADD13RoundRect,0.250000X0.650000X-0.350000X0.650000X0.350000X-0.650000X0.350000X-0.650000X-0.350000X0*%
%ADD14R,1.200000X0.900000*%
G04 APERTURE END LIST*
D10*
X122650000Y-53206250D03*
X122650000Y-54206250D03*
X122650000Y-55206250D03*
X122650000Y-56206250D03*
X122650000Y-57206250D03*
X122650000Y-58206250D03*
X122650000Y-59206250D03*
X122650000Y-60206250D03*
X122650000Y-61206250D03*
X122650000Y-62206250D03*
X122650000Y-63206250D03*
X122650000Y-64206250D03*
X122650000Y-65206250D03*
X122650000Y-66206250D03*
X122650000Y-67206250D03*
X122650000Y-68206250D03*
X122650000Y-69206250D03*
X122650000Y-70206250D03*
X122650000Y-71206250D03*
X122650000Y-72206250D03*
D11*
X118775000Y-73506250D03*
X118775000Y-51906250D03*
D12*
X32543750Y-72183000D03*
X32543750Y-71183000D03*
X32543750Y-70183000D03*
X32543750Y-69183000D03*
X32543750Y-68183000D03*
X32543750Y-67183000D03*
X32543750Y-66183000D03*
X32543750Y-65183000D03*
X32543750Y-64183000D03*
X32543750Y-63183000D03*
X32543750Y-62183000D03*
X32543750Y-61183000D03*
X32543750Y-60183000D03*
X32543750Y-59183000D03*
X32543750Y-58183000D03*
X32543750Y-57183000D03*
X32543750Y-56183000D03*
X32543750Y-55183000D03*
X32543750Y-54183000D03*
X32543750Y-53183000D03*
D13*
X36418750Y-73483000D03*
X36418750Y-51883000D03*
D14*
X76993750Y-26256250D03*
X76993750Y-22956250D03*
X115093750Y-102456250D03*
X115093750Y-99156250D03*
X76993750Y-64356250D03*
X76993750Y-61056250D03*
X57943750Y-64356250D03*
X57943750Y-61056250D03*
X57943750Y-83406250D03*
X57943750Y-80106250D03*
X96043750Y-102456250D03*
X96043750Y-99156250D03*
X115093750Y-26256250D03*
X115093750Y-22956250D03*
X115093750Y-83406250D03*
X115093750Y-80106250D03*
X115093750Y-45306250D03*
X115093750Y-42006250D03*
X76993750Y-102456250D03*
X76993750Y-99156250D03*
X115093750Y-64356250D03*
X115093750Y-61056250D03*
X96043750Y-83406250D03*
X96043750Y-80106250D03*
X96043750Y-64356250D03*
X96043750Y-61056250D03*
X76993750Y-83406250D03*
X76993750Y-80106250D03*
X57943750Y-102456250D03*
X57943750Y-99156250D03*
X96043750Y-45306250D03*
X96043750Y-42006250D03*
X57943750Y-26256250D03*
X57943750Y-22956250D03*
X57943750Y-45306250D03*
X57943750Y-42006250D03*
X96043750Y-26256250D03*
X96043750Y-22956250D03*
X76993750Y-45306250D03*
X76993750Y-42006250D03*
M02*
