G04 #@! TF.GenerationSoftware,KiCad,Pcbnew,(6.0.9)*
G04 #@! TF.CreationDate,2023-04-02T22:42:07-05:00*
G04 #@! TF.ProjectId,Number Pad,4e756d62-6572-4205-9061-642e6b696361,rev?*
G04 #@! TF.SameCoordinates,Original*
G04 #@! TF.FileFunction,Legend,Top*
G04 #@! TF.FilePolarity,Positive*
%FSLAX46Y46*%
G04 Gerber Fmt 4.6, Leading zero omitted, Abs format (unit mm)*
G04 Created by KiCad (PCBNEW (6.0.9)) date 2023-04-02 22:42:07*
%MOMM*%
%LPD*%
G01*
G04 APERTURE LIST*
%ADD10C,0.150000*%
%ADD11C,0.120000*%
%ADD12C,3.987800*%
%ADD13C,1.750000*%
%ADD14R,1.200000X0.900000*%
%ADD15R,1.700000X1.700000*%
%ADD16O,1.700000X1.700000*%
G04 APERTURE END LIST*
D10*
X75446130Y-25344345D02*
X74446130Y-25344345D01*
X74446130Y-25106250D01*
X74493750Y-24963392D01*
X74588988Y-24868154D01*
X74684226Y-24820535D01*
X74874702Y-24772916D01*
X75017559Y-24772916D01*
X75208035Y-24820535D01*
X75303273Y-24868154D01*
X75398511Y-24963392D01*
X75446130Y-25106250D01*
X75446130Y-25344345D01*
X74446130Y-23915773D02*
X74446130Y-24106250D01*
X74493750Y-24201488D01*
X74541369Y-24249107D01*
X74684226Y-24344345D01*
X74874702Y-24391964D01*
X75255654Y-24391964D01*
X75350892Y-24344345D01*
X75398511Y-24296726D01*
X75446130Y-24201488D01*
X75446130Y-24011011D01*
X75398511Y-23915773D01*
X75350892Y-23868154D01*
X75255654Y-23820535D01*
X75017559Y-23820535D01*
X74922321Y-23868154D01*
X74874702Y-23915773D01*
X74827083Y-24011011D01*
X74827083Y-24201488D01*
X74874702Y-24296726D01*
X74922321Y-24344345D01*
X75017559Y-24391964D01*
X113546130Y-102020535D02*
X112546130Y-102020535D01*
X112546130Y-101782440D01*
X112593750Y-101639583D01*
X112688988Y-101544345D01*
X112784226Y-101496726D01*
X112974702Y-101449107D01*
X113117559Y-101449107D01*
X113308035Y-101496726D01*
X113403273Y-101544345D01*
X113498511Y-101639583D01*
X113546130Y-101782440D01*
X113546130Y-102020535D01*
X112641369Y-101068154D02*
X112593750Y-101020535D01*
X112546130Y-100925297D01*
X112546130Y-100687202D01*
X112593750Y-100591964D01*
X112641369Y-100544345D01*
X112736607Y-100496726D01*
X112831845Y-100496726D01*
X112974702Y-100544345D01*
X113546130Y-101115773D01*
X113546130Y-100496726D01*
X112546130Y-99877678D02*
X112546130Y-99782440D01*
X112593750Y-99687202D01*
X112641369Y-99639583D01*
X112736607Y-99591964D01*
X112927083Y-99544345D01*
X113165178Y-99544345D01*
X113355654Y-99591964D01*
X113450892Y-99639583D01*
X113498511Y-99687202D01*
X113546130Y-99782440D01*
X113546130Y-99877678D01*
X113498511Y-99972916D01*
X113450892Y-100020535D01*
X113355654Y-100068154D01*
X113165178Y-100115773D01*
X112927083Y-100115773D01*
X112736607Y-100068154D01*
X112641369Y-100020535D01*
X112593750Y-99972916D01*
X112546130Y-99877678D01*
X75446130Y-63444345D02*
X74446130Y-63444345D01*
X74446130Y-63206250D01*
X74493750Y-63063392D01*
X74588988Y-62968154D01*
X74684226Y-62920535D01*
X74874702Y-62872916D01*
X75017559Y-62872916D01*
X75208035Y-62920535D01*
X75303273Y-62968154D01*
X75398511Y-63063392D01*
X75446130Y-63206250D01*
X75446130Y-63444345D01*
X74874702Y-62301488D02*
X74827083Y-62396726D01*
X74779464Y-62444345D01*
X74684226Y-62491964D01*
X74636607Y-62491964D01*
X74541369Y-62444345D01*
X74493750Y-62396726D01*
X74446130Y-62301488D01*
X74446130Y-62111011D01*
X74493750Y-62015773D01*
X74541369Y-61968154D01*
X74636607Y-61920535D01*
X74684226Y-61920535D01*
X74779464Y-61968154D01*
X74827083Y-62015773D01*
X74874702Y-62111011D01*
X74874702Y-62301488D01*
X74922321Y-62396726D01*
X74969940Y-62444345D01*
X75065178Y-62491964D01*
X75255654Y-62491964D01*
X75350892Y-62444345D01*
X75398511Y-62396726D01*
X75446130Y-62301488D01*
X75446130Y-62111011D01*
X75398511Y-62015773D01*
X75350892Y-61968154D01*
X75255654Y-61920535D01*
X75065178Y-61920535D01*
X74969940Y-61968154D01*
X74922321Y-62015773D01*
X74874702Y-62111011D01*
X56396130Y-63444345D02*
X55396130Y-63444345D01*
X55396130Y-63206250D01*
X55443750Y-63063392D01*
X55538988Y-62968154D01*
X55634226Y-62920535D01*
X55824702Y-62872916D01*
X55967559Y-62872916D01*
X56158035Y-62920535D01*
X56253273Y-62968154D01*
X56348511Y-63063392D01*
X56396130Y-63206250D01*
X56396130Y-63444345D01*
X55396130Y-62539583D02*
X55396130Y-61920535D01*
X55777083Y-62253869D01*
X55777083Y-62111011D01*
X55824702Y-62015773D01*
X55872321Y-61968154D01*
X55967559Y-61920535D01*
X56205654Y-61920535D01*
X56300892Y-61968154D01*
X56348511Y-62015773D01*
X56396130Y-62111011D01*
X56396130Y-62396726D01*
X56348511Y-62491964D01*
X56300892Y-62539583D01*
X132162916Y-48617380D02*
X132162916Y-49331666D01*
X132115297Y-49474523D01*
X132020059Y-49569761D01*
X131877202Y-49617380D01*
X131781964Y-49617380D01*
X133162916Y-49617380D02*
X132591488Y-49617380D01*
X132877202Y-49617380D02*
X132877202Y-48617380D01*
X132781964Y-48760238D01*
X132686726Y-48855476D01*
X132591488Y-48903095D01*
X56396130Y-82494345D02*
X55396130Y-82494345D01*
X55396130Y-82256250D01*
X55443750Y-82113392D01*
X55538988Y-82018154D01*
X55634226Y-81970535D01*
X55824702Y-81922916D01*
X55967559Y-81922916D01*
X56158035Y-81970535D01*
X56253273Y-82018154D01*
X56348511Y-82113392D01*
X56396130Y-82256250D01*
X56396130Y-82494345D01*
X55729464Y-81065773D02*
X56396130Y-81065773D01*
X55348511Y-81303869D02*
X56062797Y-81541964D01*
X56062797Y-80922916D01*
X94496130Y-102020535D02*
X93496130Y-102020535D01*
X93496130Y-101782440D01*
X93543750Y-101639583D01*
X93638988Y-101544345D01*
X93734226Y-101496726D01*
X93924702Y-101449107D01*
X94067559Y-101449107D01*
X94258035Y-101496726D01*
X94353273Y-101544345D01*
X94448511Y-101639583D01*
X94496130Y-101782440D01*
X94496130Y-102020535D01*
X94496130Y-100496726D02*
X94496130Y-101068154D01*
X94496130Y-100782440D02*
X93496130Y-100782440D01*
X93638988Y-100877678D01*
X93734226Y-100972916D01*
X93781845Y-101068154D01*
X93496130Y-99591964D02*
X93496130Y-100068154D01*
X93972321Y-100115773D01*
X93924702Y-100068154D01*
X93877083Y-99972916D01*
X93877083Y-99734821D01*
X93924702Y-99639583D01*
X93972321Y-99591964D01*
X94067559Y-99544345D01*
X94305654Y-99544345D01*
X94400892Y-99591964D01*
X94448511Y-99639583D01*
X94496130Y-99734821D01*
X94496130Y-99972916D01*
X94448511Y-100068154D01*
X94400892Y-100115773D01*
X113546130Y-25820535D02*
X112546130Y-25820535D01*
X112546130Y-25582440D01*
X112593750Y-25439583D01*
X112688988Y-25344345D01*
X112784226Y-25296726D01*
X112974702Y-25249107D01*
X113117559Y-25249107D01*
X113308035Y-25296726D01*
X113403273Y-25344345D01*
X113498511Y-25439583D01*
X113546130Y-25582440D01*
X113546130Y-25820535D01*
X113546130Y-24296726D02*
X113546130Y-24868154D01*
X113546130Y-24582440D02*
X112546130Y-24582440D01*
X112688988Y-24677678D01*
X112784226Y-24772916D01*
X112831845Y-24868154D01*
X112546130Y-23439583D02*
X112546130Y-23630059D01*
X112593750Y-23725297D01*
X112641369Y-23772916D01*
X112784226Y-23868154D01*
X112974702Y-23915773D01*
X113355654Y-23915773D01*
X113450892Y-23868154D01*
X113498511Y-23820535D01*
X113546130Y-23725297D01*
X113546130Y-23534821D01*
X113498511Y-23439583D01*
X113450892Y-23391964D01*
X113355654Y-23344345D01*
X113117559Y-23344345D01*
X113022321Y-23391964D01*
X112974702Y-23439583D01*
X112927083Y-23534821D01*
X112927083Y-23725297D01*
X112974702Y-23820535D01*
X113022321Y-23868154D01*
X113117559Y-23915773D01*
X113546130Y-82970535D02*
X112546130Y-82970535D01*
X112546130Y-82732440D01*
X112593750Y-82589583D01*
X112688988Y-82494345D01*
X112784226Y-82446726D01*
X112974702Y-82399107D01*
X113117559Y-82399107D01*
X113308035Y-82446726D01*
X113403273Y-82494345D01*
X113498511Y-82589583D01*
X113546130Y-82732440D01*
X113546130Y-82970535D01*
X113546130Y-81446726D02*
X113546130Y-82018154D01*
X113546130Y-81732440D02*
X112546130Y-81732440D01*
X112688988Y-81827678D01*
X112784226Y-81922916D01*
X112831845Y-82018154D01*
X113546130Y-80970535D02*
X113546130Y-80780059D01*
X113498511Y-80684821D01*
X113450892Y-80637202D01*
X113308035Y-80541964D01*
X113117559Y-80494345D01*
X112736607Y-80494345D01*
X112641369Y-80541964D01*
X112593750Y-80589583D01*
X112546130Y-80684821D01*
X112546130Y-80875297D01*
X112593750Y-80970535D01*
X112641369Y-81018154D01*
X112736607Y-81065773D01*
X112974702Y-81065773D01*
X113069940Y-81018154D01*
X113117559Y-80970535D01*
X113165178Y-80875297D01*
X113165178Y-80684821D01*
X113117559Y-80589583D01*
X113069940Y-80541964D01*
X112974702Y-80494345D01*
X113546130Y-44870535D02*
X112546130Y-44870535D01*
X112546130Y-44632440D01*
X112593750Y-44489583D01*
X112688988Y-44394345D01*
X112784226Y-44346726D01*
X112974702Y-44299107D01*
X113117559Y-44299107D01*
X113308035Y-44346726D01*
X113403273Y-44394345D01*
X113498511Y-44489583D01*
X113546130Y-44632440D01*
X113546130Y-44870535D01*
X113546130Y-43346726D02*
X113546130Y-43918154D01*
X113546130Y-43632440D02*
X112546130Y-43632440D01*
X112688988Y-43727678D01*
X112784226Y-43822916D01*
X112831845Y-43918154D01*
X112546130Y-43013392D02*
X112546130Y-42346726D01*
X113546130Y-42775297D01*
X75446130Y-102020535D02*
X74446130Y-102020535D01*
X74446130Y-101782440D01*
X74493750Y-101639583D01*
X74588988Y-101544345D01*
X74684226Y-101496726D01*
X74874702Y-101449107D01*
X75017559Y-101449107D01*
X75208035Y-101496726D01*
X75303273Y-101544345D01*
X75398511Y-101639583D01*
X75446130Y-101782440D01*
X75446130Y-102020535D01*
X75446130Y-100496726D02*
X75446130Y-101068154D01*
X75446130Y-100782440D02*
X74446130Y-100782440D01*
X74588988Y-100877678D01*
X74684226Y-100972916D01*
X74731845Y-101068154D01*
X74446130Y-99877678D02*
X74446130Y-99782440D01*
X74493750Y-99687202D01*
X74541369Y-99639583D01*
X74636607Y-99591964D01*
X74827083Y-99544345D01*
X75065178Y-99544345D01*
X75255654Y-99591964D01*
X75350892Y-99639583D01*
X75398511Y-99687202D01*
X75446130Y-99782440D01*
X75446130Y-99877678D01*
X75398511Y-99972916D01*
X75350892Y-100020535D01*
X75255654Y-100068154D01*
X75065178Y-100115773D01*
X74827083Y-100115773D01*
X74636607Y-100068154D01*
X74541369Y-100020535D01*
X74493750Y-99972916D01*
X74446130Y-99877678D01*
X113546130Y-63920535D02*
X112546130Y-63920535D01*
X112546130Y-63682440D01*
X112593750Y-63539583D01*
X112688988Y-63444345D01*
X112784226Y-63396726D01*
X112974702Y-63349107D01*
X113117559Y-63349107D01*
X113308035Y-63396726D01*
X113403273Y-63444345D01*
X113498511Y-63539583D01*
X113546130Y-63682440D01*
X113546130Y-63920535D01*
X113546130Y-62396726D02*
X113546130Y-62968154D01*
X113546130Y-62682440D02*
X112546130Y-62682440D01*
X112688988Y-62777678D01*
X112784226Y-62872916D01*
X112831845Y-62968154D01*
X112974702Y-61825297D02*
X112927083Y-61920535D01*
X112879464Y-61968154D01*
X112784226Y-62015773D01*
X112736607Y-62015773D01*
X112641369Y-61968154D01*
X112593750Y-61920535D01*
X112546130Y-61825297D01*
X112546130Y-61634821D01*
X112593750Y-61539583D01*
X112641369Y-61491964D01*
X112736607Y-61444345D01*
X112784226Y-61444345D01*
X112879464Y-61491964D01*
X112927083Y-61539583D01*
X112974702Y-61634821D01*
X112974702Y-61825297D01*
X113022321Y-61920535D01*
X113069940Y-61968154D01*
X113165178Y-62015773D01*
X113355654Y-62015773D01*
X113450892Y-61968154D01*
X113498511Y-61920535D01*
X113546130Y-61825297D01*
X113546130Y-61634821D01*
X113498511Y-61539583D01*
X113450892Y-61491964D01*
X113355654Y-61444345D01*
X113165178Y-61444345D01*
X113069940Y-61491964D01*
X113022321Y-61539583D01*
X112974702Y-61634821D01*
X94496130Y-82970535D02*
X93496130Y-82970535D01*
X93496130Y-82732440D01*
X93543750Y-82589583D01*
X93638988Y-82494345D01*
X93734226Y-82446726D01*
X93924702Y-82399107D01*
X94067559Y-82399107D01*
X94258035Y-82446726D01*
X94353273Y-82494345D01*
X94448511Y-82589583D01*
X94496130Y-82732440D01*
X94496130Y-82970535D01*
X94496130Y-81446726D02*
X94496130Y-82018154D01*
X94496130Y-81732440D02*
X93496130Y-81732440D01*
X93638988Y-81827678D01*
X93734226Y-81922916D01*
X93781845Y-82018154D01*
X93829464Y-80589583D02*
X94496130Y-80589583D01*
X93448511Y-80827678D02*
X94162797Y-81065773D01*
X94162797Y-80446726D01*
X94496130Y-63920535D02*
X93496130Y-63920535D01*
X93496130Y-63682440D01*
X93543750Y-63539583D01*
X93638988Y-63444345D01*
X93734226Y-63396726D01*
X93924702Y-63349107D01*
X94067559Y-63349107D01*
X94258035Y-63396726D01*
X94353273Y-63444345D01*
X94448511Y-63539583D01*
X94496130Y-63682440D01*
X94496130Y-63920535D01*
X94496130Y-62396726D02*
X94496130Y-62968154D01*
X94496130Y-62682440D02*
X93496130Y-62682440D01*
X93638988Y-62777678D01*
X93734226Y-62872916D01*
X93781845Y-62968154D01*
X93496130Y-62063392D02*
X93496130Y-61444345D01*
X93877083Y-61777678D01*
X93877083Y-61634821D01*
X93924702Y-61539583D01*
X93972321Y-61491964D01*
X94067559Y-61444345D01*
X94305654Y-61444345D01*
X94400892Y-61491964D01*
X94448511Y-61539583D01*
X94496130Y-61634821D01*
X94496130Y-61920535D01*
X94448511Y-62015773D01*
X94400892Y-62063392D01*
X75446130Y-82494345D02*
X74446130Y-82494345D01*
X74446130Y-82256250D01*
X74493750Y-82113392D01*
X74588988Y-82018154D01*
X74684226Y-81970535D01*
X74874702Y-81922916D01*
X75017559Y-81922916D01*
X75208035Y-81970535D01*
X75303273Y-82018154D01*
X75398511Y-82113392D01*
X75446130Y-82256250D01*
X75446130Y-82494345D01*
X75446130Y-81446726D02*
X75446130Y-81256250D01*
X75398511Y-81161011D01*
X75350892Y-81113392D01*
X75208035Y-81018154D01*
X75017559Y-80970535D01*
X74636607Y-80970535D01*
X74541369Y-81018154D01*
X74493750Y-81065773D01*
X74446130Y-81161011D01*
X74446130Y-81351488D01*
X74493750Y-81446726D01*
X74541369Y-81494345D01*
X74636607Y-81541964D01*
X74874702Y-81541964D01*
X74969940Y-81494345D01*
X75017559Y-81446726D01*
X75065178Y-81351488D01*
X75065178Y-81161011D01*
X75017559Y-81065773D01*
X74969940Y-81018154D01*
X74874702Y-80970535D01*
X21866666Y-47938630D02*
X21866666Y-48652916D01*
X21819047Y-48795773D01*
X21723809Y-48891011D01*
X21580952Y-48938630D01*
X21485714Y-48938630D01*
X22295238Y-48033869D02*
X22342857Y-47986250D01*
X22438095Y-47938630D01*
X22676190Y-47938630D01*
X22771428Y-47986250D01*
X22819047Y-48033869D01*
X22866666Y-48129107D01*
X22866666Y-48224345D01*
X22819047Y-48367202D01*
X22247619Y-48938630D01*
X22866666Y-48938630D01*
X56396130Y-101544345D02*
X55396130Y-101544345D01*
X55396130Y-101306250D01*
X55443750Y-101163392D01*
X55538988Y-101068154D01*
X55634226Y-101020535D01*
X55824702Y-100972916D01*
X55967559Y-100972916D01*
X56158035Y-101020535D01*
X56253273Y-101068154D01*
X56348511Y-101163392D01*
X56396130Y-101306250D01*
X56396130Y-101544345D01*
X55396130Y-100068154D02*
X55396130Y-100544345D01*
X55872321Y-100591964D01*
X55824702Y-100544345D01*
X55777083Y-100449107D01*
X55777083Y-100211011D01*
X55824702Y-100115773D01*
X55872321Y-100068154D01*
X55967559Y-100020535D01*
X56205654Y-100020535D01*
X56300892Y-100068154D01*
X56348511Y-100115773D01*
X56396130Y-100211011D01*
X56396130Y-100449107D01*
X56348511Y-100544345D01*
X56300892Y-100591964D01*
X94496130Y-44870535D02*
X93496130Y-44870535D01*
X93496130Y-44632440D01*
X93543750Y-44489583D01*
X93638988Y-44394345D01*
X93734226Y-44346726D01*
X93924702Y-44299107D01*
X94067559Y-44299107D01*
X94258035Y-44346726D01*
X94353273Y-44394345D01*
X94448511Y-44489583D01*
X94496130Y-44632440D01*
X94496130Y-44870535D01*
X94496130Y-43346726D02*
X94496130Y-43918154D01*
X94496130Y-43632440D02*
X93496130Y-43632440D01*
X93638988Y-43727678D01*
X93734226Y-43822916D01*
X93781845Y-43918154D01*
X93591369Y-42965773D02*
X93543750Y-42918154D01*
X93496130Y-42822916D01*
X93496130Y-42584821D01*
X93543750Y-42489583D01*
X93591369Y-42441964D01*
X93686607Y-42394345D01*
X93781845Y-42394345D01*
X93924702Y-42441964D01*
X94496130Y-43013392D01*
X94496130Y-42394345D01*
X56396130Y-25344345D02*
X55396130Y-25344345D01*
X55396130Y-25106250D01*
X55443750Y-24963392D01*
X55538988Y-24868154D01*
X55634226Y-24820535D01*
X55824702Y-24772916D01*
X55967559Y-24772916D01*
X56158035Y-24820535D01*
X56253273Y-24868154D01*
X56348511Y-24963392D01*
X56396130Y-25106250D01*
X56396130Y-25344345D01*
X56396130Y-23820535D02*
X56396130Y-24391964D01*
X56396130Y-24106250D02*
X55396130Y-24106250D01*
X55538988Y-24201488D01*
X55634226Y-24296726D01*
X55681845Y-24391964D01*
X56396130Y-44394345D02*
X55396130Y-44394345D01*
X55396130Y-44156250D01*
X55443750Y-44013392D01*
X55538988Y-43918154D01*
X55634226Y-43870535D01*
X55824702Y-43822916D01*
X55967559Y-43822916D01*
X56158035Y-43870535D01*
X56253273Y-43918154D01*
X56348511Y-44013392D01*
X56396130Y-44156250D01*
X56396130Y-44394345D01*
X55491369Y-43441964D02*
X55443750Y-43394345D01*
X55396130Y-43299107D01*
X55396130Y-43061011D01*
X55443750Y-42965773D01*
X55491369Y-42918154D01*
X55586607Y-42870535D01*
X55681845Y-42870535D01*
X55824702Y-42918154D01*
X56396130Y-43489583D01*
X56396130Y-42870535D01*
X94496130Y-25820535D02*
X93496130Y-25820535D01*
X93496130Y-25582440D01*
X93543750Y-25439583D01*
X93638988Y-25344345D01*
X93734226Y-25296726D01*
X93924702Y-25249107D01*
X94067559Y-25249107D01*
X94258035Y-25296726D01*
X94353273Y-25344345D01*
X94448511Y-25439583D01*
X94496130Y-25582440D01*
X94496130Y-25820535D01*
X94496130Y-24296726D02*
X94496130Y-24868154D01*
X94496130Y-24582440D02*
X93496130Y-24582440D01*
X93638988Y-24677678D01*
X93734226Y-24772916D01*
X93781845Y-24868154D01*
X94496130Y-23344345D02*
X94496130Y-23915773D01*
X94496130Y-23630059D02*
X93496130Y-23630059D01*
X93638988Y-23725297D01*
X93734226Y-23820535D01*
X93781845Y-23915773D01*
X75446130Y-44394345D02*
X74446130Y-44394345D01*
X74446130Y-44156250D01*
X74493750Y-44013392D01*
X74588988Y-43918154D01*
X74684226Y-43870535D01*
X74874702Y-43822916D01*
X75017559Y-43822916D01*
X75208035Y-43870535D01*
X75303273Y-43918154D01*
X75398511Y-44013392D01*
X75446130Y-44156250D01*
X75446130Y-44394345D01*
X74446130Y-43489583D02*
X74446130Y-42822916D01*
X75446130Y-43251488D01*
D11*
X75993750Y-26856250D02*
X75993750Y-22956250D01*
X75993750Y-26856250D02*
X77993750Y-26856250D01*
X77993750Y-26856250D02*
X77993750Y-22956250D01*
X114093750Y-103056250D02*
X114093750Y-99156250D01*
X116093750Y-103056250D02*
X116093750Y-99156250D01*
X114093750Y-103056250D02*
X116093750Y-103056250D01*
X77993750Y-64956250D02*
X77993750Y-61056250D01*
X75993750Y-64956250D02*
X75993750Y-61056250D01*
X75993750Y-64956250D02*
X77993750Y-64956250D01*
X56943750Y-64956250D02*
X58943750Y-64956250D01*
X58943750Y-64956250D02*
X58943750Y-61056250D01*
X56943750Y-64956250D02*
X56943750Y-61056250D01*
X127884179Y-53595000D02*
X128338321Y-53595000D01*
X139481250Y-53595000D02*
X139481250Y-54355000D01*
X139481250Y-64515000D02*
X133481250Y-64515000D01*
X130424179Y-61215000D02*
X130821250Y-61215000D01*
X139481250Y-58675000D02*
X139481250Y-59435000D01*
X127884179Y-59435000D02*
X128338321Y-59435000D01*
X139481250Y-67055000D02*
X133481250Y-67055000D01*
X127884179Y-74675000D02*
X128338321Y-74675000D01*
X133481250Y-51355000D02*
X139481250Y-51355000D01*
X130424179Y-63755000D02*
X130821250Y-63755000D01*
X127884179Y-54355000D02*
X128338321Y-54355000D01*
X139481250Y-51815000D02*
X133481250Y-51815000D01*
X127884179Y-63755000D02*
X128338321Y-63755000D01*
X130424179Y-74675000D02*
X130821250Y-74675000D01*
X130424179Y-64515000D02*
X130821250Y-64515000D01*
X139481250Y-51055000D02*
X139481250Y-51815000D01*
X130424179Y-56135000D02*
X130821250Y-56135000D01*
X133481250Y-58675000D02*
X139481250Y-58675000D01*
X133481250Y-50105000D02*
X130821250Y-50105000D01*
X130821250Y-70485000D02*
X133481250Y-70485000D01*
X130424179Y-72135000D02*
X130821250Y-72135000D01*
X127884179Y-71375000D02*
X128338321Y-71375000D01*
X127884179Y-68835000D02*
X128338321Y-68835000D01*
X139481250Y-69595000D02*
X133481250Y-69595000D01*
X133481250Y-53595000D02*
X139481250Y-53595000D01*
X130821250Y-50105000D02*
X130821250Y-75625000D01*
X130424179Y-56895000D02*
X130821250Y-56895000D01*
X139481250Y-61975000D02*
X133481250Y-61975000D01*
X130424179Y-51055000D02*
X130821250Y-51055000D01*
X139481250Y-56895000D02*
X133481250Y-56895000D01*
X130821250Y-65405000D02*
X133481250Y-65405000D01*
X127884179Y-66295000D02*
X128338321Y-66295000D01*
X130424179Y-67055000D02*
X130821250Y-67055000D01*
X130424179Y-68835000D02*
X130821250Y-68835000D01*
X133481250Y-63755000D02*
X139481250Y-63755000D01*
X130821250Y-52705000D02*
X133481250Y-52705000D01*
X130424179Y-71375000D02*
X130821250Y-71375000D01*
X139481250Y-59435000D02*
X133481250Y-59435000D01*
X130424179Y-61975000D02*
X130821250Y-61975000D01*
X127884179Y-56135000D02*
X128338321Y-56135000D01*
X130424179Y-53595000D02*
X130821250Y-53595000D01*
X130821250Y-60325000D02*
X133481250Y-60325000D01*
X125571250Y-51435000D02*
X125571250Y-50165000D01*
X139481250Y-74675000D02*
X133481250Y-74675000D01*
X127884179Y-69595000D02*
X128338321Y-69595000D01*
X130821250Y-57785000D02*
X133481250Y-57785000D01*
X139481250Y-54355000D02*
X133481250Y-54355000D01*
X125571250Y-50165000D02*
X126841250Y-50165000D01*
X130424179Y-66295000D02*
X130821250Y-66295000D01*
X130424179Y-69595000D02*
X130821250Y-69595000D01*
X133481250Y-51475000D02*
X139481250Y-51475000D01*
X127884179Y-67055000D02*
X128338321Y-67055000D01*
X127951250Y-51055000D02*
X128338321Y-51055000D01*
X139481250Y-68835000D02*
X139481250Y-69595000D01*
X133481250Y-51715000D02*
X139481250Y-51715000D01*
X133481250Y-51055000D02*
X139481250Y-51055000D01*
X130424179Y-73915000D02*
X130821250Y-73915000D01*
X130424179Y-54355000D02*
X130821250Y-54355000D01*
X139481250Y-63755000D02*
X139481250Y-64515000D01*
X130424179Y-59435000D02*
X130821250Y-59435000D01*
X127884179Y-61975000D02*
X128338321Y-61975000D01*
X133481250Y-51235000D02*
X139481250Y-51235000D01*
X127884179Y-58675000D02*
X128338321Y-58675000D01*
X133481250Y-71375000D02*
X139481250Y-71375000D01*
X127884179Y-72135000D02*
X128338321Y-72135000D01*
X133481250Y-56135000D02*
X139481250Y-56135000D01*
X127884179Y-64515000D02*
X128338321Y-64515000D01*
X127884179Y-73915000D02*
X128338321Y-73915000D01*
X139481250Y-72135000D02*
X133481250Y-72135000D01*
X127884179Y-61215000D02*
X128338321Y-61215000D01*
X130821250Y-75625000D02*
X133481250Y-75625000D01*
X133481250Y-51115000D02*
X139481250Y-51115000D01*
X139481250Y-56135000D02*
X139481250Y-56895000D01*
X130424179Y-58675000D02*
X130821250Y-58675000D01*
X133481250Y-61215000D02*
X139481250Y-61215000D01*
X139481250Y-61215000D02*
X139481250Y-61975000D01*
X127884179Y-56895000D02*
X128338321Y-56895000D01*
X130821250Y-73025000D02*
X133481250Y-73025000D01*
X139481250Y-73915000D02*
X139481250Y-74675000D01*
X133481250Y-66295000D02*
X139481250Y-66295000D01*
X133481250Y-51595000D02*
X139481250Y-51595000D01*
X130821250Y-62865000D02*
X133481250Y-62865000D01*
X139481250Y-66295000D02*
X139481250Y-67055000D01*
X130821250Y-67945000D02*
X133481250Y-67945000D01*
X130821250Y-55245000D02*
X133481250Y-55245000D01*
X133481250Y-73915000D02*
X139481250Y-73915000D01*
X133481250Y-75625000D02*
X133481250Y-50105000D01*
X133481250Y-68835000D02*
X139481250Y-68835000D01*
X127951250Y-51815000D02*
X128338321Y-51815000D01*
X130424179Y-51815000D02*
X130821250Y-51815000D01*
X139481250Y-71375000D02*
X139481250Y-72135000D01*
X56943750Y-84006250D02*
X56943750Y-80106250D01*
X56943750Y-84006250D02*
X58943750Y-84006250D01*
X58943750Y-84006250D02*
X58943750Y-80106250D01*
X95043750Y-103056250D02*
X95043750Y-99156250D01*
X97043750Y-103056250D02*
X97043750Y-99156250D01*
X95043750Y-103056250D02*
X97043750Y-103056250D01*
X116093750Y-26856250D02*
X116093750Y-22956250D01*
X114093750Y-26856250D02*
X114093750Y-22956250D01*
X114093750Y-26856250D02*
X116093750Y-26856250D01*
X116093750Y-84006250D02*
X116093750Y-80106250D01*
X114093750Y-84006250D02*
X116093750Y-84006250D01*
X114093750Y-84006250D02*
X114093750Y-80106250D01*
X116093750Y-45906250D02*
X116093750Y-42006250D01*
X114093750Y-45906250D02*
X116093750Y-45906250D01*
X114093750Y-45906250D02*
X114093750Y-42006250D01*
X75993750Y-103056250D02*
X77993750Y-103056250D01*
X77993750Y-103056250D02*
X77993750Y-99156250D01*
X75993750Y-103056250D02*
X75993750Y-99156250D01*
X114093750Y-64956250D02*
X116093750Y-64956250D01*
X114093750Y-64956250D02*
X114093750Y-61056250D01*
X116093750Y-64956250D02*
X116093750Y-61056250D01*
X95043750Y-84006250D02*
X95043750Y-80106250D01*
X95043750Y-84006250D02*
X97043750Y-84006250D01*
X97043750Y-84006250D02*
X97043750Y-80106250D01*
X95043750Y-64956250D02*
X95043750Y-61056250D01*
X95043750Y-64956250D02*
X97043750Y-64956250D01*
X97043750Y-64956250D02*
X97043750Y-61056250D01*
X75993750Y-84006250D02*
X75993750Y-80106250D01*
X75993750Y-84006250D02*
X77993750Y-84006250D01*
X77993750Y-84006250D02*
X77993750Y-80106250D01*
X23850000Y-61056250D02*
X24260000Y-61056250D01*
X26360000Y-53436250D02*
X26800000Y-53436250D01*
X26360000Y-55976250D02*
X26800000Y-55976250D01*
X23850000Y-51616250D02*
X24260000Y-51616250D01*
X26360000Y-71216250D02*
X26800000Y-71216250D01*
X26360000Y-63596250D02*
X26800000Y-63596250D01*
X26360000Y-61056250D02*
X26800000Y-61056250D01*
X15220000Y-51227200D02*
X23850000Y-51227200D01*
X26360000Y-56696250D02*
X26800000Y-56696250D01*
X15220000Y-50282440D02*
X23850000Y-50282440D01*
X15220000Y-75446250D02*
X23850000Y-75446250D01*
X23850000Y-56696250D02*
X24260000Y-56696250D01*
X15220000Y-51109105D02*
X23850000Y-51109105D01*
X15220000Y-67766250D02*
X23850000Y-67766250D01*
X23850000Y-50896250D02*
X24260000Y-50896250D01*
X15220000Y-52171960D02*
X23850000Y-52171960D01*
X23850000Y-59236250D02*
X24260000Y-59236250D01*
X15220000Y-49926250D02*
X15220000Y-75446250D01*
X15220000Y-51935770D02*
X23850000Y-51935770D01*
X15220000Y-50518630D02*
X23850000Y-50518630D01*
X15220000Y-49926250D02*
X23850000Y-49926250D01*
X28960000Y-49926250D02*
X28960000Y-51256250D01*
X23850000Y-58516250D02*
X24260000Y-58516250D01*
X23850000Y-73756250D02*
X24260000Y-73756250D01*
X15220000Y-51699580D02*
X23850000Y-51699580D01*
X26360000Y-71936250D02*
X26800000Y-71936250D01*
X26360000Y-66136250D02*
X26800000Y-66136250D01*
X15220000Y-52408150D02*
X23850000Y-52408150D01*
X23850000Y-66136250D02*
X24260000Y-66136250D01*
X23850000Y-61776250D02*
X24260000Y-61776250D01*
X26360000Y-68676250D02*
X26800000Y-68676250D01*
X23850000Y-53436250D02*
X24260000Y-53436250D01*
X26360000Y-59236250D02*
X26800000Y-59236250D01*
X15220000Y-62686250D02*
X23850000Y-62686250D01*
X23850000Y-71216250D02*
X24260000Y-71216250D01*
X26360000Y-69396250D02*
X26800000Y-69396250D01*
X15220000Y-57606250D02*
X23850000Y-57606250D01*
X26360000Y-64316250D02*
X26800000Y-64316250D01*
X15220000Y-72846250D02*
X23850000Y-72846250D01*
X23850000Y-66856250D02*
X24260000Y-66856250D01*
X15220000Y-60146250D02*
X23850000Y-60146250D01*
X26360000Y-54156250D02*
X26800000Y-54156250D01*
X23850000Y-69396250D02*
X24260000Y-69396250D01*
X23850000Y-55976250D02*
X24260000Y-55976250D01*
X23850000Y-63596250D02*
X24260000Y-63596250D01*
X15220000Y-51581485D02*
X23850000Y-51581485D01*
X23850000Y-74476250D02*
X24260000Y-74476250D01*
X15220000Y-52290055D02*
X23850000Y-52290055D01*
X15220000Y-51463390D02*
X23850000Y-51463390D01*
X27850000Y-49926250D02*
X28960000Y-49926250D01*
X26360000Y-66856250D02*
X26800000Y-66856250D01*
X15220000Y-70306250D02*
X23850000Y-70306250D01*
X23850000Y-68676250D02*
X24260000Y-68676250D01*
X15220000Y-50754820D02*
X23850000Y-50754820D01*
X15220000Y-50400535D02*
X23850000Y-50400535D01*
X15220000Y-50164345D02*
X23850000Y-50164345D01*
X23850000Y-49926250D02*
X23850000Y-75446250D01*
X26360000Y-61776250D02*
X26800000Y-61776250D01*
X15220000Y-65226250D02*
X23850000Y-65226250D01*
X15220000Y-50872915D02*
X23850000Y-50872915D01*
X26360000Y-74476250D02*
X26800000Y-74476250D01*
X26360000Y-50896250D02*
X26740000Y-50896250D01*
X15220000Y-51817675D02*
X23850000Y-51817675D01*
X26360000Y-58516250D02*
X26800000Y-58516250D01*
X15220000Y-51345295D02*
X23850000Y-51345295D01*
X23850000Y-54156250D02*
X24260000Y-54156250D01*
X23850000Y-71936250D02*
X24260000Y-71936250D01*
X15220000Y-52526250D02*
X23850000Y-52526250D01*
X26360000Y-73756250D02*
X26800000Y-73756250D01*
X15220000Y-50636725D02*
X23850000Y-50636725D01*
X26360000Y-51616250D02*
X26740000Y-51616250D01*
X15220000Y-55066250D02*
X23850000Y-55066250D01*
X15220000Y-50046250D02*
X23850000Y-50046250D01*
X15220000Y-52053865D02*
X23850000Y-52053865D01*
X23850000Y-64316250D02*
X24260000Y-64316250D01*
X15220000Y-50991010D02*
X23850000Y-50991010D01*
X56943750Y-103056250D02*
X58943750Y-103056250D01*
X58943750Y-103056250D02*
X58943750Y-99156250D01*
X56943750Y-103056250D02*
X56943750Y-99156250D01*
X95043750Y-45906250D02*
X95043750Y-42006250D01*
X95043750Y-45906250D02*
X97043750Y-45906250D01*
X97043750Y-45906250D02*
X97043750Y-42006250D01*
X56943750Y-26856250D02*
X58943750Y-26856250D01*
X56943750Y-26856250D02*
X56943750Y-22956250D01*
X58943750Y-26856250D02*
X58943750Y-22956250D01*
X56943750Y-45906250D02*
X58943750Y-45906250D01*
X58943750Y-45906250D02*
X58943750Y-42006250D01*
X56943750Y-45906250D02*
X56943750Y-42006250D01*
X97043750Y-26856250D02*
X97043750Y-22956250D01*
X95043750Y-26856250D02*
X95043750Y-22956250D01*
X95043750Y-26856250D02*
X97043750Y-26856250D01*
X77993750Y-45906250D02*
X77993750Y-42006250D01*
X75993750Y-45906250D02*
X77993750Y-45906250D01*
X75993750Y-45906250D02*
X75993750Y-42006250D01*
%LPC*%
D12*
X50006250Y-62706250D03*
D13*
X55086250Y-62706250D03*
X44926250Y-62706250D03*
D12*
X50006250Y-43656250D03*
D13*
X55086250Y-43656250D03*
X44926250Y-43656250D03*
D14*
X76993750Y-26256250D03*
X76993750Y-22956250D03*
D12*
X88106250Y-100806250D03*
D13*
X93186250Y-100806250D03*
X83026250Y-100806250D03*
D12*
X88106250Y-62706250D03*
D13*
X93186250Y-62706250D03*
X83026250Y-62706250D03*
D14*
X115093750Y-102456250D03*
X115093750Y-99156250D03*
D13*
X102076250Y-62706250D03*
D12*
X107156250Y-62706250D03*
D13*
X112236250Y-62706250D03*
X44926250Y-81756250D03*
D12*
X50006250Y-81756250D03*
D13*
X55086250Y-81756250D03*
D12*
X88106250Y-81756250D03*
D13*
X83026250Y-81756250D03*
X93186250Y-81756250D03*
D14*
X76993750Y-64356250D03*
X76993750Y-61056250D03*
X57943750Y-64356250D03*
X57943750Y-61056250D03*
D15*
X126841250Y-51435000D03*
D16*
X129381250Y-51435000D03*
X126841250Y-53975000D03*
X129381250Y-53975000D03*
X126841250Y-56515000D03*
X129381250Y-56515000D03*
X126841250Y-59055000D03*
X129381250Y-59055000D03*
X126841250Y-61595000D03*
X129381250Y-61595000D03*
X126841250Y-64135000D03*
X129381250Y-64135000D03*
X126841250Y-66675000D03*
X129381250Y-66675000D03*
X126841250Y-69215000D03*
X129381250Y-69215000D03*
X126841250Y-71755000D03*
X129381250Y-71755000D03*
X126841250Y-74295000D03*
X129381250Y-74295000D03*
D14*
X57943750Y-83406250D03*
X57943750Y-80106250D03*
D13*
X44926250Y-100806250D03*
D12*
X50006250Y-100806250D03*
D13*
X55086250Y-100806250D03*
D14*
X96043750Y-102456250D03*
X96043750Y-99156250D03*
X115093750Y-26256250D03*
X115093750Y-22956250D03*
X115093750Y-83406250D03*
X115093750Y-80106250D03*
D13*
X63976250Y-81756250D03*
D12*
X69056250Y-81756250D03*
D13*
X74136250Y-81756250D03*
D14*
X115093750Y-45306250D03*
X115093750Y-42006250D03*
D12*
X69056250Y-24606250D03*
D13*
X63976250Y-24606250D03*
X74136250Y-24606250D03*
D12*
X69056250Y-43656250D03*
D13*
X74136250Y-43656250D03*
X63976250Y-43656250D03*
D14*
X76993750Y-102456250D03*
X76993750Y-99156250D03*
D12*
X88106250Y-43656250D03*
D13*
X93186250Y-43656250D03*
X83026250Y-43656250D03*
D12*
X50006250Y-24606250D03*
D13*
X44926250Y-24606250D03*
X55086250Y-24606250D03*
D14*
X115093750Y-64356250D03*
X115093750Y-61056250D03*
X96043750Y-83406250D03*
X96043750Y-80106250D03*
D13*
X102076250Y-43656250D03*
D12*
X107156250Y-43656250D03*
D13*
X112236250Y-43656250D03*
D14*
X96043750Y-64356250D03*
X96043750Y-61056250D03*
D13*
X102076250Y-81756250D03*
D12*
X107156250Y-81756250D03*
D13*
X112236250Y-81756250D03*
D14*
X76993750Y-83406250D03*
X76993750Y-80106250D03*
D13*
X112236250Y-100806250D03*
D12*
X107156250Y-100806250D03*
D13*
X102076250Y-100806250D03*
X63976250Y-100806250D03*
D12*
X69056250Y-100806250D03*
D13*
X74136250Y-100806250D03*
D15*
X27850000Y-51256250D03*
D16*
X25310000Y-51256250D03*
X27850000Y-53796250D03*
X25310000Y-53796250D03*
X27850000Y-56336250D03*
X25310000Y-56336250D03*
X27850000Y-58876250D03*
X25310000Y-58876250D03*
X27850000Y-61416250D03*
X25310000Y-61416250D03*
X27850000Y-63956250D03*
X25310000Y-63956250D03*
X27850000Y-66496250D03*
X25310000Y-66496250D03*
X27850000Y-69036250D03*
X25310000Y-69036250D03*
X27850000Y-71576250D03*
X25310000Y-71576250D03*
X27850000Y-74116250D03*
X25310000Y-74116250D03*
D14*
X57943750Y-102456250D03*
X57943750Y-99156250D03*
X96043750Y-45306250D03*
X96043750Y-42006250D03*
X57943750Y-26256250D03*
X57943750Y-22956250D03*
X57943750Y-45306250D03*
X57943750Y-42006250D03*
D13*
X74136250Y-62706250D03*
D12*
X69056250Y-62706250D03*
D13*
X63976250Y-62706250D03*
D14*
X96043750Y-26256250D03*
X96043750Y-22956250D03*
D13*
X102076250Y-24606250D03*
X112236250Y-24606250D03*
D12*
X107156250Y-24606250D03*
D13*
X93186250Y-24606250D03*
X83026250Y-24606250D03*
D12*
X88106250Y-24606250D03*
D14*
X76993750Y-45306250D03*
X76993750Y-42006250D03*
M02*
