M48
; DRILL file {KiCad (6.0.9)} date Sun Apr  2 22:42:09 2023
; FORMAT={-:-/ absolute / metric / decimal}
; #@! TF.CreationDate,2023-04-02T22:42:09-05:00
; #@! TF.GenerationSoftware,Kicad,Pcbnew,(6.0.9)
; #@! TF.FileFunction,Plated,1,2,PTH
FMAT,2
METRIC
; #@! TA.AperFunction,Plated,PTH,ViaDrill
T1C0.400
; #@! TA.AperFunction,Plated,PTH,ComponentDrill
T2C1.000
; #@! TA.AperFunction,Plated,PTH,ComponentDrill
T3C1.470
%
G90
G05
T1
X29.05Y-77.15
X30.0Y-76.35
X31.7Y-77.075
X37.95Y-67.221
X38.75Y-68.9
X39.2Y-51.6
X40.2Y-69.65
X41.7Y-60.15
X42.3Y-49.55
X42.45Y-61.65
X42.545Y-85.471
X42.709Y-46.228
X43.3Y-62.75
X44.577Y-52.408
X44.702Y-53.886
X44.715Y-55.361
X45.085Y-28.702
X45.244Y-65.881
X45.466Y-53.132
X45.466Y-56.134
X45.472Y-54.61
X45.472Y-64.294
X45.472Y-66.9
X46.921Y-53.086
X46.979Y-54.597
X46.99Y-56.134
X46.99Y-70.104
X47.117Y-46.228
X47.371Y-28.702
X47.498Y-85.598
X47.623Y-55.361
X47.625Y-64.294
X47.625Y-65.881
X47.625Y-66.881
X47.651Y-53.857
X47.879Y-52.361
X47.879Y-69.215
X47.879Y-70.993
X48.768Y-68.453
X52.832Y-64.135
X55.562Y-65.087
X57.15Y-65.881
X59.531Y-65.087
X60.325Y-65.881
X62.706Y-65.881
X63.5Y-28.575
X63.5Y-47.625
X63.5Y-52.361
X63.5Y-66.675
X63.5Y-68.453
X63.5Y-85.725
X63.627Y-53.886
X63.627Y-55.372
X63.881Y-70.993
X64.135Y-69.342
X64.294Y-65.087
X64.516Y-48.514
X64.516Y-53.123
X64.516Y-54.61
X64.522Y-56.134
X64.522Y-67.564
X65.971Y-54.61
X65.971Y-56.134
X65.971Y-65.087
X66.04Y-48.514
X66.04Y-69.342
X66.051Y-53.068
X66.421Y-71.12
X66.675Y-28.575
X66.675Y-47.625
X66.675Y-53.848
X66.675Y-66.675
X66.675Y-85.725
X66.802Y-55.372
X66.802Y-68.453
X66.929Y-52.324
X67.315Y-67.443
X67.469Y-65.881
X74.606Y-65.95
X75.406Y-65.087
X78.581Y-65.087
X79.375Y-65.881
X81.756Y-65.881
X81.788Y-67.437
X82.423Y-49.276
X82.55Y-28.575
X82.55Y-47.625
X82.55Y-66.675
X82.55Y-85.725
X82.677Y-55.372
X82.709Y-53.848
X82.804Y-52.324
X83.185Y-71.12
X83.344Y-65.087
X83.439Y-54.61
X83.439Y-68.326
X83.566Y-48.514
X83.566Y-53.086
X83.566Y-56.134
X85.021Y-48.514
X85.021Y-53.123
X85.021Y-65.087
X85.09Y-56.134
X85.098Y-54.591
X85.344Y-68.326
X85.598Y-71.12
X85.725Y-28.575
X85.725Y-47.625
X85.725Y-66.675
X85.725Y-85.725
X85.73Y-55.366
X85.852Y-49.276
X85.852Y-53.848
X85.979Y-52.324
X86.487Y-67.4
X86.519Y-65.881
X94.456Y-65.087
X95.25Y-65.881
X97.631Y-65.087
X98.425Y-65.881
X100.711Y-67.437
X100.806Y-65.881
X101.473Y-49.238
X101.6Y-28.575
X101.6Y-47.625
X101.6Y-53.848
X101.6Y-55.372
X101.6Y-66.675
X101.6Y-85.725
X101.727Y-52.399
X102.362Y-54.61
X102.394Y-65.087
X102.489Y-50.038
X102.489Y-53.123
X102.489Y-56.134
X102.489Y-71.12
X102.616Y-48.514
X104.071Y-48.514
X104.071Y-65.087
X104.14Y-53.123
X104.14Y-56.134
X104.195Y-54.648
X104.394Y-50.038
X104.775Y-28.575
X104.775Y-47.625
X104.775Y-66.675
X104.775Y-66.675
X104.775Y-85.725
X104.902Y-55.372
X105.021Y-52.398
X105.283Y-49.238
X105.283Y-53.848
X105.569Y-65.881
X105.791Y-67.4
X112.712Y-65.881
X113.506Y-65.087
X115.094Y-66.675
X115.094Y-68.124
X115.887Y-65.881
X116.84Y-50.762
X117.55Y-64.1
X118.618Y-59.309
X119.507Y-50.546
X119.507Y-60.452
X120.396Y-51.435
X120.396Y-59.817
X121.285Y-52.482
X121.285Y-58.931
X121.95Y-74.25
X122.719Y-67.2
X122.809Y-46.99
X123.444Y-49.911
X124.4Y-69.25
T2
X25.31Y-51.256
X25.31Y-53.796
X25.31Y-56.336
X25.31Y-58.876
X25.31Y-61.416
X25.31Y-63.956
X25.31Y-66.496
X25.31Y-69.036
X25.31Y-71.576
X25.31Y-74.116
X27.85Y-51.256
X27.85Y-53.796
X27.85Y-56.336
X27.85Y-58.876
X27.85Y-61.416
X27.85Y-63.956
X27.85Y-66.496
X27.85Y-69.036
X27.85Y-71.576
X27.85Y-74.116
X126.841Y-51.435
X126.841Y-53.975
X126.841Y-56.515
X126.841Y-59.055
X126.841Y-61.595
X126.841Y-64.135
X126.841Y-66.675
X126.841Y-69.215
X126.841Y-71.755
X126.841Y-74.295
X129.381Y-51.435
X129.381Y-53.975
X129.381Y-56.515
X129.381Y-59.055
X129.381Y-61.595
X129.381Y-64.135
X129.381Y-66.675
X129.381Y-69.215
X129.381Y-71.755
X129.381Y-74.295
T3
X46.196Y-22.066
X46.196Y-41.116
X46.196Y-60.166
X46.196Y-79.216
X46.196Y-98.266
X47.506Y-20.606
X47.506Y-39.656
X47.506Y-58.706
X47.506Y-77.756
X47.506Y-96.806
X52.506Y-20.106
X52.506Y-39.156
X52.506Y-58.206
X52.506Y-77.256
X52.506Y-96.306
X52.546Y-19.526
X52.546Y-38.576
X52.546Y-57.626
X52.546Y-76.676
X52.546Y-95.726
X65.246Y-22.066
X65.246Y-41.116
X65.246Y-60.166
X65.246Y-79.216
X65.246Y-98.266
X66.556Y-20.606
X66.556Y-39.656
X66.556Y-58.706
X66.556Y-77.756
X66.556Y-96.806
X71.556Y-20.106
X71.556Y-39.156
X71.556Y-58.206
X71.556Y-77.256
X71.556Y-96.306
X71.596Y-19.526
X71.596Y-38.576
X71.596Y-57.626
X71.596Y-76.676
X71.596Y-95.726
X84.296Y-22.066
X84.296Y-41.116
X84.296Y-60.166
X84.296Y-79.216
X84.296Y-98.266
X85.606Y-20.606
X85.606Y-39.656
X85.606Y-58.706
X85.606Y-77.756
X85.606Y-96.806
X90.606Y-20.106
X90.606Y-39.156
X90.606Y-58.206
X90.606Y-77.256
X90.606Y-96.306
X90.646Y-19.526
X90.646Y-38.576
X90.646Y-57.626
X90.646Y-76.676
X90.646Y-95.726
X103.346Y-22.066
X103.346Y-41.116
X103.346Y-60.166
X103.346Y-79.216
X103.346Y-98.266
X104.656Y-20.606
X104.656Y-39.656
X104.656Y-58.706
X104.656Y-77.756
X104.656Y-96.806
X109.656Y-20.106
X109.656Y-39.156
X109.656Y-58.206
X109.656Y-77.256
X109.656Y-96.306
X109.696Y-19.526
X109.696Y-38.576
X109.696Y-57.626
X109.696Y-76.676
X109.696Y-95.726
T0
M30
