%TF.GenerationSoftware,KiCad,Pcbnew,(6.0.9)*%
%TF.CreationDate,2022-12-29T20:33:01-06:00*%
%TF.ProjectId,Number Pad,4e756d62-6572-4205-9061-642e6b696361,rev?*%
%TF.SameCoordinates,Original*%
%TF.FileFunction,Drillmap*%
%TF.FilePolarity,Positive*%
%FSLAX45Y45*%
G04 Gerber Fmt 4.5, Leading zero omitted, Abs format (unit mm)*
G04 Created by KiCad (PCBNEW (6.0.9)) date 2022-12-29 20:33:01*
%MOMM*%
%LPD*%
G01*
G04 APERTURE LIST*
%ADD10C,0.150000*%
%ADD11C,0.200000*%
%ADD12C,0.175000*%
%ADD13C,0.398780*%
G04 APERTURE END LIST*
D10*
X12382495Y-1746250D02*
G75*
G03*
X12144375Y-1508125I-238125J0D01*
G01*
X3333750Y-1508125D02*
X12144375Y-1508125D01*
X3333750Y-1508125D02*
G75*
G03*
X3095625Y-1746250I0J-238125D01*
G01*
X3095625Y-10795000D02*
G75*
G03*
X3333750Y-11033125I238125J0D01*
G01*
X12382500Y-1746250D02*
X12382500Y-10795000D01*
X3333750Y-11033125D02*
X12144375Y-11033125D01*
X12144375Y-11033130D02*
G75*
G03*
X12382500Y-10795000I-5J238130D01*
G01*
X3095625Y-1746250D02*
X3095625Y-10795000D01*
D11*
D12*
X4405125Y-2373125D02*
X4580125Y-2548125D01*
X4580125Y-2373125D02*
X4405125Y-2548125D01*
X4405125Y-4278125D02*
X4580125Y-4453125D01*
X4580125Y-4278125D02*
X4405125Y-4453125D01*
X4405125Y-6183125D02*
X4580125Y-6358125D01*
X4580125Y-6183125D02*
X4405125Y-6358125D01*
X4405125Y-8088125D02*
X4580125Y-8263125D01*
X4580125Y-8088125D02*
X4405125Y-8263125D01*
X4405125Y-9993125D02*
X4580125Y-10168125D01*
X4580125Y-9993125D02*
X4405125Y-10168125D01*
X5421125Y-2373125D02*
X5596125Y-2548125D01*
X5596125Y-2373125D02*
X5421125Y-2548125D01*
X5421125Y-4278125D02*
X5596125Y-4453125D01*
X5596125Y-4278125D02*
X5421125Y-4453125D01*
X5421125Y-6183125D02*
X5596125Y-6358125D01*
X5596125Y-6183125D02*
X5421125Y-6358125D01*
X5421125Y-8088125D02*
X5596125Y-8263125D01*
X5596125Y-8088125D02*
X5421125Y-8263125D01*
X5421125Y-9993125D02*
X5596125Y-10168125D01*
X5596125Y-9993125D02*
X5421125Y-10168125D01*
X6310125Y-2373125D02*
X6485125Y-2548125D01*
X6485125Y-2373125D02*
X6310125Y-2548125D01*
X6310125Y-4278125D02*
X6485125Y-4453125D01*
X6485125Y-4278125D02*
X6310125Y-4453125D01*
X6310125Y-6183125D02*
X6485125Y-6358125D01*
X6485125Y-6183125D02*
X6310125Y-6358125D01*
X6310125Y-8088125D02*
X6485125Y-8263125D01*
X6485125Y-8088125D02*
X6310125Y-8263125D01*
X6310125Y-9993125D02*
X6485125Y-10168125D01*
X6485125Y-9993125D02*
X6310125Y-10168125D01*
X7326125Y-2373125D02*
X7501125Y-2548125D01*
X7501125Y-2373125D02*
X7326125Y-2548125D01*
X7326125Y-4278125D02*
X7501125Y-4453125D01*
X7501125Y-4278125D02*
X7326125Y-4453125D01*
X7326125Y-6183125D02*
X7501125Y-6358125D01*
X7501125Y-6183125D02*
X7326125Y-6358125D01*
X7326125Y-8088125D02*
X7501125Y-8263125D01*
X7501125Y-8088125D02*
X7326125Y-8263125D01*
X7326125Y-9993125D02*
X7501125Y-10168125D01*
X7501125Y-9993125D02*
X7326125Y-10168125D01*
X8215125Y-2373125D02*
X8390125Y-2548125D01*
X8390125Y-2373125D02*
X8215125Y-2548125D01*
X8215125Y-4278125D02*
X8390125Y-4453125D01*
X8390125Y-4278125D02*
X8215125Y-4453125D01*
X8215125Y-6183125D02*
X8390125Y-6358125D01*
X8390125Y-6183125D02*
X8215125Y-6358125D01*
X8215125Y-8088125D02*
X8390125Y-8263125D01*
X8390125Y-8088125D02*
X8215125Y-8263125D01*
X8215125Y-9993125D02*
X8390125Y-10168125D01*
X8390125Y-9993125D02*
X8215125Y-10168125D01*
X9231125Y-2373125D02*
X9406125Y-2548125D01*
X9406125Y-2373125D02*
X9231125Y-2548125D01*
X9231125Y-4278125D02*
X9406125Y-4453125D01*
X9406125Y-4278125D02*
X9231125Y-4453125D01*
X9231125Y-6183125D02*
X9406125Y-6358125D01*
X9406125Y-6183125D02*
X9231125Y-6358125D01*
X9231125Y-8088125D02*
X9406125Y-8263125D01*
X9406125Y-8088125D02*
X9231125Y-8263125D01*
X9231125Y-9993125D02*
X9406125Y-10168125D01*
X9406125Y-9993125D02*
X9231125Y-10168125D01*
X10120125Y-2373125D02*
X10295125Y-2548125D01*
X10295125Y-2373125D02*
X10120125Y-2548125D01*
X10120125Y-4278125D02*
X10295125Y-4453125D01*
X10295125Y-4278125D02*
X10120125Y-4453125D01*
X10120125Y-6183125D02*
X10295125Y-6358125D01*
X10295125Y-6183125D02*
X10120125Y-6358125D01*
X10120125Y-8088125D02*
X10295125Y-8263125D01*
X10295125Y-8088125D02*
X10120125Y-8263125D01*
X10120125Y-9993125D02*
X10295125Y-10168125D01*
X10295125Y-9993125D02*
X10120125Y-10168125D01*
X11136125Y-2373125D02*
X11311125Y-2548125D01*
X11311125Y-2373125D02*
X11136125Y-2548125D01*
X11136125Y-4278125D02*
X11311125Y-4453125D01*
X11311125Y-4278125D02*
X11136125Y-4453125D01*
X11136125Y-6183125D02*
X11311125Y-6358125D01*
X11311125Y-6183125D02*
X11136125Y-6358125D01*
X11136125Y-8088125D02*
X11311125Y-8263125D01*
X11311125Y-8088125D02*
X11136125Y-8263125D01*
X11136125Y-9993125D02*
X11311125Y-10168125D01*
X11311125Y-9993125D02*
X11136125Y-10168125D01*
D13*
X5200015Y-2460625D02*
G75*
G03*
X5200015Y-2460625I-199390J0D01*
G01*
X5200015Y-4365625D02*
G75*
G03*
X5200015Y-4365625I-199390J0D01*
G01*
X5200015Y-6270625D02*
G75*
G03*
X5200015Y-6270625I-199390J0D01*
G01*
X5200015Y-8175625D02*
G75*
G03*
X5200015Y-8175625I-199390J0D01*
G01*
X5200015Y-10080625D02*
G75*
G03*
X5200015Y-10080625I-199390J0D01*
G01*
X7105015Y-2460625D02*
G75*
G03*
X7105015Y-2460625I-199390J0D01*
G01*
X7105015Y-4365625D02*
G75*
G03*
X7105015Y-4365625I-199390J0D01*
G01*
X7105015Y-6270625D02*
G75*
G03*
X7105015Y-6270625I-199390J0D01*
G01*
X7105015Y-8175625D02*
G75*
G03*
X7105015Y-8175625I-199390J0D01*
G01*
X7105015Y-10080625D02*
G75*
G03*
X7105015Y-10080625I-199390J0D01*
G01*
X9010015Y-2460625D02*
G75*
G03*
X9010015Y-2460625I-199390J0D01*
G01*
X9010015Y-4365625D02*
G75*
G03*
X9010015Y-4365625I-199390J0D01*
G01*
X9010015Y-6270625D02*
G75*
G03*
X9010015Y-6270625I-199390J0D01*
G01*
X9010015Y-8175625D02*
G75*
G03*
X9010015Y-8175625I-199390J0D01*
G01*
X9010015Y-10080625D02*
G75*
G03*
X9010015Y-10080625I-199390J0D01*
G01*
X10915015Y-2460625D02*
G75*
G03*
X10915015Y-2460625I-199390J0D01*
G01*
X10915015Y-4365625D02*
G75*
G03*
X10915015Y-4365625I-199390J0D01*
G01*
X10915015Y-6270625D02*
G75*
G03*
X10915015Y-6270625I-199390J0D01*
G01*
X10915015Y-8175625D02*
G75*
G03*
X10915015Y-8175625I-199390J0D01*
G01*
X10915015Y-10080625D02*
G75*
G03*
X10915015Y-10080625I-199390J0D01*
G01*
D11*
X3345744Y-11351101D02*
X3345744Y-11151101D01*
X3393363Y-11151101D01*
X3421934Y-11160625D01*
X3440982Y-11179673D01*
X3450506Y-11198720D01*
X3460030Y-11236815D01*
X3460030Y-11265387D01*
X3450506Y-11303482D01*
X3440982Y-11322530D01*
X3421934Y-11341577D01*
X3393363Y-11351101D01*
X3345744Y-11351101D01*
X3545744Y-11351101D02*
X3545744Y-11217768D01*
X3545744Y-11255863D02*
X3555268Y-11236815D01*
X3564792Y-11227292D01*
X3583839Y-11217768D01*
X3602887Y-11217768D01*
X3669553Y-11351101D02*
X3669553Y-11217768D01*
X3669553Y-11151101D02*
X3660030Y-11160625D01*
X3669553Y-11170149D01*
X3679077Y-11160625D01*
X3669553Y-11151101D01*
X3669553Y-11170149D01*
X3793363Y-11351101D02*
X3774315Y-11341577D01*
X3764792Y-11322530D01*
X3764792Y-11151101D01*
X3898125Y-11351101D02*
X3879077Y-11341577D01*
X3869553Y-11322530D01*
X3869553Y-11151101D01*
X4126696Y-11351101D02*
X4126696Y-11151101D01*
X4193363Y-11293958D01*
X4260030Y-11151101D01*
X4260030Y-11351101D01*
X4440982Y-11351101D02*
X4440982Y-11246339D01*
X4431458Y-11227292D01*
X4412411Y-11217768D01*
X4374315Y-11217768D01*
X4355268Y-11227292D01*
X4440982Y-11341577D02*
X4421935Y-11351101D01*
X4374315Y-11351101D01*
X4355268Y-11341577D01*
X4345744Y-11322530D01*
X4345744Y-11303482D01*
X4355268Y-11284434D01*
X4374315Y-11274911D01*
X4421935Y-11274911D01*
X4440982Y-11265387D01*
X4536220Y-11217768D02*
X4536220Y-11417768D01*
X4536220Y-11227292D02*
X4555268Y-11217768D01*
X4593363Y-11217768D01*
X4612411Y-11227292D01*
X4621935Y-11236815D01*
X4631458Y-11255863D01*
X4631458Y-11313006D01*
X4621935Y-11332053D01*
X4612411Y-11341577D01*
X4593363Y-11351101D01*
X4555268Y-11351101D01*
X4536220Y-11341577D01*
X4717173Y-11332053D02*
X4726696Y-11341577D01*
X4717173Y-11351101D01*
X4707649Y-11341577D01*
X4717173Y-11332053D01*
X4717173Y-11351101D01*
X4717173Y-11227292D02*
X4726696Y-11236815D01*
X4717173Y-11246339D01*
X4707649Y-11236815D01*
X4717173Y-11227292D01*
X4717173Y-11246339D01*
D12*
X2913125Y-11593125D02*
X3088125Y-11768125D01*
X3088125Y-11593125D02*
X2913125Y-11768125D01*
D11*
X3450506Y-11771101D02*
X3336220Y-11771101D01*
X3393363Y-11771101D02*
X3393363Y-11571101D01*
X3374315Y-11599673D01*
X3355268Y-11618720D01*
X3336220Y-11628244D01*
X3536220Y-11752053D02*
X3545744Y-11761577D01*
X3536220Y-11771101D01*
X3526696Y-11761577D01*
X3536220Y-11752053D01*
X3536220Y-11771101D01*
X3612411Y-11571101D02*
X3745744Y-11571101D01*
X3660030Y-11771101D01*
X3917173Y-11571101D02*
X3821934Y-11571101D01*
X3812411Y-11666339D01*
X3821934Y-11656815D01*
X3840982Y-11647292D01*
X3888601Y-11647292D01*
X3907649Y-11656815D01*
X3917173Y-11666339D01*
X3926696Y-11685387D01*
X3926696Y-11733006D01*
X3917173Y-11752053D01*
X3907649Y-11761577D01*
X3888601Y-11771101D01*
X3840982Y-11771101D01*
X3821934Y-11761577D01*
X3812411Y-11752053D01*
X4050506Y-11571101D02*
X4069553Y-11571101D01*
X4088601Y-11580625D01*
X4098125Y-11590149D01*
X4107649Y-11609196D01*
X4117173Y-11647292D01*
X4117173Y-11694911D01*
X4107649Y-11733006D01*
X4098125Y-11752053D01*
X4088601Y-11761577D01*
X4069553Y-11771101D01*
X4050506Y-11771101D01*
X4031458Y-11761577D01*
X4021934Y-11752053D01*
X4012411Y-11733006D01*
X4002887Y-11694911D01*
X4002887Y-11647292D01*
X4012411Y-11609196D01*
X4021934Y-11590149D01*
X4031458Y-11580625D01*
X4050506Y-11571101D01*
X4202887Y-11771101D02*
X4202887Y-11637768D01*
X4202887Y-11656815D02*
X4212411Y-11647292D01*
X4231458Y-11637768D01*
X4260030Y-11637768D01*
X4279077Y-11647292D01*
X4288601Y-11666339D01*
X4288601Y-11771101D01*
X4288601Y-11666339D02*
X4298125Y-11647292D01*
X4317173Y-11637768D01*
X4345744Y-11637768D01*
X4364792Y-11647292D01*
X4374315Y-11666339D01*
X4374315Y-11771101D01*
X4469554Y-11771101D02*
X4469554Y-11637768D01*
X4469554Y-11656815D02*
X4479077Y-11647292D01*
X4498125Y-11637768D01*
X4526696Y-11637768D01*
X4545744Y-11647292D01*
X4555268Y-11666339D01*
X4555268Y-11771101D01*
X4555268Y-11666339D02*
X4564792Y-11647292D01*
X4583839Y-11637768D01*
X4612411Y-11637768D01*
X4631458Y-11647292D01*
X4640982Y-11666339D01*
X4640982Y-11771101D01*
X5031458Y-11561577D02*
X4860030Y-11818720D01*
X5288601Y-11571101D02*
X5307649Y-11571101D01*
X5326696Y-11580625D01*
X5336220Y-11590149D01*
X5345744Y-11609196D01*
X5355268Y-11647292D01*
X5355268Y-11694911D01*
X5345744Y-11733006D01*
X5336220Y-11752053D01*
X5326696Y-11761577D01*
X5307649Y-11771101D01*
X5288601Y-11771101D01*
X5269554Y-11761577D01*
X5260030Y-11752053D01*
X5250506Y-11733006D01*
X5240982Y-11694911D01*
X5240982Y-11647292D01*
X5250506Y-11609196D01*
X5260030Y-11590149D01*
X5269554Y-11580625D01*
X5288601Y-11571101D01*
X5440982Y-11752053D02*
X5450506Y-11761577D01*
X5440982Y-11771101D01*
X5431458Y-11761577D01*
X5440982Y-11752053D01*
X5440982Y-11771101D01*
X5574315Y-11571101D02*
X5593363Y-11571101D01*
X5612411Y-11580625D01*
X5621934Y-11590149D01*
X5631458Y-11609196D01*
X5640982Y-11647292D01*
X5640982Y-11694911D01*
X5631458Y-11733006D01*
X5621934Y-11752053D01*
X5612411Y-11761577D01*
X5593363Y-11771101D01*
X5574315Y-11771101D01*
X5555268Y-11761577D01*
X5545744Y-11752053D01*
X5536220Y-11733006D01*
X5526696Y-11694911D01*
X5526696Y-11647292D01*
X5536220Y-11609196D01*
X5545744Y-11590149D01*
X5555268Y-11580625D01*
X5574315Y-11571101D01*
X5812411Y-11571101D02*
X5774315Y-11571101D01*
X5755268Y-11580625D01*
X5745744Y-11590149D01*
X5726696Y-11618720D01*
X5717173Y-11656815D01*
X5717173Y-11733006D01*
X5726696Y-11752053D01*
X5736220Y-11761577D01*
X5755268Y-11771101D01*
X5793363Y-11771101D01*
X5812411Y-11761577D01*
X5821934Y-11752053D01*
X5831458Y-11733006D01*
X5831458Y-11685387D01*
X5821934Y-11666339D01*
X5812411Y-11656815D01*
X5793363Y-11647292D01*
X5755268Y-11647292D01*
X5736220Y-11656815D01*
X5726696Y-11666339D01*
X5717173Y-11685387D01*
X5945744Y-11656815D02*
X5926696Y-11647292D01*
X5917173Y-11637768D01*
X5907649Y-11618720D01*
X5907649Y-11609196D01*
X5917173Y-11590149D01*
X5926696Y-11580625D01*
X5945744Y-11571101D01*
X5983839Y-11571101D01*
X6002887Y-11580625D01*
X6012411Y-11590149D01*
X6021934Y-11609196D01*
X6021934Y-11618720D01*
X6012411Y-11637768D01*
X6002887Y-11647292D01*
X5983839Y-11656815D01*
X5945744Y-11656815D01*
X5926696Y-11666339D01*
X5917173Y-11675863D01*
X5907649Y-11694911D01*
X5907649Y-11733006D01*
X5917173Y-11752053D01*
X5926696Y-11761577D01*
X5945744Y-11771101D01*
X5983839Y-11771101D01*
X6002887Y-11761577D01*
X6012411Y-11752053D01*
X6021934Y-11733006D01*
X6021934Y-11694911D01*
X6012411Y-11675863D01*
X6002887Y-11666339D01*
X5983839Y-11656815D01*
X6117173Y-11771101D02*
X6155268Y-11771101D01*
X6174315Y-11761577D01*
X6183839Y-11752053D01*
X6202887Y-11723482D01*
X6212411Y-11685387D01*
X6212411Y-11609196D01*
X6202887Y-11590149D01*
X6193363Y-11580625D01*
X6174315Y-11571101D01*
X6136220Y-11571101D01*
X6117173Y-11580625D01*
X6107649Y-11590149D01*
X6098125Y-11609196D01*
X6098125Y-11656815D01*
X6107649Y-11675863D01*
X6117173Y-11685387D01*
X6136220Y-11694911D01*
X6174315Y-11694911D01*
X6193363Y-11685387D01*
X6202887Y-11675863D01*
X6212411Y-11656815D01*
X6288601Y-11571101D02*
X6288601Y-11609196D01*
X6364792Y-11571101D02*
X6364792Y-11609196D01*
X6660030Y-11847292D02*
X6650506Y-11837768D01*
X6631458Y-11809196D01*
X6621934Y-11790149D01*
X6612411Y-11761577D01*
X6602887Y-11713958D01*
X6602887Y-11675863D01*
X6612411Y-11628244D01*
X6621934Y-11599673D01*
X6631458Y-11580625D01*
X6650506Y-11552053D01*
X6660030Y-11542530D01*
X6821934Y-11637768D02*
X6821934Y-11771101D01*
X6774315Y-11561577D02*
X6726696Y-11704434D01*
X6850506Y-11704434D01*
X6964792Y-11571101D02*
X6983839Y-11571101D01*
X7002887Y-11580625D01*
X7012411Y-11590149D01*
X7021934Y-11609196D01*
X7031458Y-11647292D01*
X7031458Y-11694911D01*
X7021934Y-11733006D01*
X7012411Y-11752053D01*
X7002887Y-11761577D01*
X6983839Y-11771101D01*
X6964792Y-11771101D01*
X6945744Y-11761577D01*
X6936220Y-11752053D01*
X6926696Y-11733006D01*
X6917173Y-11694911D01*
X6917173Y-11647292D01*
X6926696Y-11609196D01*
X6936220Y-11590149D01*
X6945744Y-11580625D01*
X6964792Y-11571101D01*
X7269553Y-11771101D02*
X7269553Y-11571101D01*
X7355268Y-11771101D02*
X7355268Y-11666339D01*
X7345744Y-11647292D01*
X7326696Y-11637768D01*
X7298125Y-11637768D01*
X7279077Y-11647292D01*
X7269553Y-11656815D01*
X7479077Y-11771101D02*
X7460030Y-11761577D01*
X7450506Y-11752053D01*
X7440982Y-11733006D01*
X7440982Y-11675863D01*
X7450506Y-11656815D01*
X7460030Y-11647292D01*
X7479077Y-11637768D01*
X7507649Y-11637768D01*
X7526696Y-11647292D01*
X7536220Y-11656815D01*
X7545744Y-11675863D01*
X7545744Y-11733006D01*
X7536220Y-11752053D01*
X7526696Y-11761577D01*
X7507649Y-11771101D01*
X7479077Y-11771101D01*
X7660030Y-11771101D02*
X7640982Y-11761577D01*
X7631458Y-11742530D01*
X7631458Y-11571101D01*
X7812411Y-11761577D02*
X7793363Y-11771101D01*
X7755268Y-11771101D01*
X7736220Y-11761577D01*
X7726696Y-11742530D01*
X7726696Y-11666339D01*
X7736220Y-11647292D01*
X7755268Y-11637768D01*
X7793363Y-11637768D01*
X7812411Y-11647292D01*
X7821934Y-11666339D01*
X7821934Y-11685387D01*
X7726696Y-11704434D01*
X7898125Y-11761577D02*
X7917173Y-11771101D01*
X7955268Y-11771101D01*
X7974315Y-11761577D01*
X7983839Y-11742530D01*
X7983839Y-11733006D01*
X7974315Y-11713958D01*
X7955268Y-11704434D01*
X7926696Y-11704434D01*
X7907649Y-11694911D01*
X7898125Y-11675863D01*
X7898125Y-11666339D01*
X7907649Y-11647292D01*
X7926696Y-11637768D01*
X7955268Y-11637768D01*
X7974315Y-11647292D01*
X8050506Y-11847292D02*
X8060030Y-11837768D01*
X8079077Y-11809196D01*
X8088601Y-11790149D01*
X8098125Y-11761577D01*
X8107649Y-11713958D01*
X8107649Y-11675863D01*
X8098125Y-11628244D01*
X8088601Y-11599673D01*
X8079077Y-11580625D01*
X8060030Y-11552053D01*
X8050506Y-11542530D01*
X8412411Y-11847292D02*
X8402887Y-11837768D01*
X8383839Y-11809196D01*
X8374315Y-11790149D01*
X8364792Y-11761577D01*
X8355268Y-11713958D01*
X8355268Y-11675863D01*
X8364792Y-11628244D01*
X8374315Y-11599673D01*
X8383839Y-11580625D01*
X8402887Y-11552053D01*
X8412411Y-11542530D01*
X8488601Y-11637768D02*
X8488601Y-11771101D01*
X8488601Y-11656815D02*
X8498125Y-11647292D01*
X8517173Y-11637768D01*
X8545744Y-11637768D01*
X8564792Y-11647292D01*
X8574315Y-11666339D01*
X8574315Y-11771101D01*
X8698125Y-11771101D02*
X8679077Y-11761577D01*
X8669554Y-11752053D01*
X8660030Y-11733006D01*
X8660030Y-11675863D01*
X8669554Y-11656815D01*
X8679077Y-11647292D01*
X8698125Y-11637768D01*
X8726696Y-11637768D01*
X8745744Y-11647292D01*
X8755268Y-11656815D01*
X8764792Y-11675863D01*
X8764792Y-11733006D01*
X8755268Y-11752053D01*
X8745744Y-11761577D01*
X8726696Y-11771101D01*
X8698125Y-11771101D01*
X8821935Y-11637768D02*
X8898125Y-11637768D01*
X8850506Y-11571101D02*
X8850506Y-11742530D01*
X8860030Y-11761577D01*
X8879077Y-11771101D01*
X8898125Y-11771101D01*
X9117173Y-11637768D02*
X9117173Y-11837768D01*
X9117173Y-11647292D02*
X9136220Y-11637768D01*
X9174315Y-11637768D01*
X9193363Y-11647292D01*
X9202887Y-11656815D01*
X9212411Y-11675863D01*
X9212411Y-11733006D01*
X9202887Y-11752053D01*
X9193363Y-11761577D01*
X9174315Y-11771101D01*
X9136220Y-11771101D01*
X9117173Y-11761577D01*
X9326696Y-11771101D02*
X9307649Y-11761577D01*
X9298125Y-11742530D01*
X9298125Y-11571101D01*
X9488601Y-11771101D02*
X9488601Y-11666339D01*
X9479077Y-11647292D01*
X9460030Y-11637768D01*
X9421935Y-11637768D01*
X9402887Y-11647292D01*
X9488601Y-11761577D02*
X9469554Y-11771101D01*
X9421935Y-11771101D01*
X9402887Y-11761577D01*
X9393363Y-11742530D01*
X9393363Y-11723482D01*
X9402887Y-11704434D01*
X9421935Y-11694911D01*
X9469554Y-11694911D01*
X9488601Y-11685387D01*
X9555268Y-11637768D02*
X9631458Y-11637768D01*
X9583839Y-11571101D02*
X9583839Y-11742530D01*
X9593363Y-11761577D01*
X9612411Y-11771101D01*
X9631458Y-11771101D01*
X9774315Y-11761577D02*
X9755268Y-11771101D01*
X9717173Y-11771101D01*
X9698125Y-11761577D01*
X9688601Y-11742530D01*
X9688601Y-11666339D01*
X9698125Y-11647292D01*
X9717173Y-11637768D01*
X9755268Y-11637768D01*
X9774315Y-11647292D01*
X9783839Y-11666339D01*
X9783839Y-11685387D01*
X9688601Y-11704434D01*
X9955268Y-11771101D02*
X9955268Y-11571101D01*
X9955268Y-11761577D02*
X9936220Y-11771101D01*
X9898125Y-11771101D01*
X9879077Y-11761577D01*
X9869554Y-11752053D01*
X9860030Y-11733006D01*
X9860030Y-11675863D01*
X9869554Y-11656815D01*
X9879077Y-11647292D01*
X9898125Y-11637768D01*
X9936220Y-11637768D01*
X9955268Y-11647292D01*
X10031458Y-11847292D02*
X10040982Y-11837768D01*
X10060030Y-11809196D01*
X10069554Y-11790149D01*
X10079077Y-11761577D01*
X10088601Y-11713958D01*
X10088601Y-11675863D01*
X10079077Y-11628244D01*
X10069554Y-11599673D01*
X10060030Y-11580625D01*
X10040982Y-11552053D01*
X10031458Y-11542530D01*
X3088125Y-11975625D02*
G75*
G03*
X3088125Y-11975625I-100000J0D01*
G01*
X3326696Y-11866101D02*
X3450506Y-11866101D01*
X3383839Y-11942292D01*
X3412411Y-11942292D01*
X3431458Y-11951815D01*
X3440982Y-11961339D01*
X3450506Y-11980387D01*
X3450506Y-12028006D01*
X3440982Y-12047053D01*
X3431458Y-12056577D01*
X3412411Y-12066101D01*
X3355268Y-12066101D01*
X3336220Y-12056577D01*
X3326696Y-12047053D01*
X3536220Y-12047053D02*
X3545744Y-12056577D01*
X3536220Y-12066101D01*
X3526696Y-12056577D01*
X3536220Y-12047053D01*
X3536220Y-12066101D01*
X3640982Y-12066101D02*
X3679077Y-12066101D01*
X3698125Y-12056577D01*
X3707649Y-12047053D01*
X3726696Y-12018482D01*
X3736220Y-11980387D01*
X3736220Y-11904196D01*
X3726696Y-11885149D01*
X3717173Y-11875625D01*
X3698125Y-11866101D01*
X3660030Y-11866101D01*
X3640982Y-11875625D01*
X3631458Y-11885149D01*
X3621934Y-11904196D01*
X3621934Y-11951815D01*
X3631458Y-11970863D01*
X3640982Y-11980387D01*
X3660030Y-11989911D01*
X3698125Y-11989911D01*
X3717173Y-11980387D01*
X3726696Y-11970863D01*
X3736220Y-11951815D01*
X3850506Y-11951815D02*
X3831458Y-11942292D01*
X3821934Y-11932768D01*
X3812411Y-11913720D01*
X3812411Y-11904196D01*
X3821934Y-11885149D01*
X3831458Y-11875625D01*
X3850506Y-11866101D01*
X3888601Y-11866101D01*
X3907649Y-11875625D01*
X3917173Y-11885149D01*
X3926696Y-11904196D01*
X3926696Y-11913720D01*
X3917173Y-11932768D01*
X3907649Y-11942292D01*
X3888601Y-11951815D01*
X3850506Y-11951815D01*
X3831458Y-11961339D01*
X3821934Y-11970863D01*
X3812411Y-11989911D01*
X3812411Y-12028006D01*
X3821934Y-12047053D01*
X3831458Y-12056577D01*
X3850506Y-12066101D01*
X3888601Y-12066101D01*
X3907649Y-12056577D01*
X3917173Y-12047053D01*
X3926696Y-12028006D01*
X3926696Y-11989911D01*
X3917173Y-11970863D01*
X3907649Y-11961339D01*
X3888601Y-11951815D01*
X4040982Y-11951815D02*
X4021934Y-11942292D01*
X4012411Y-11932768D01*
X4002887Y-11913720D01*
X4002887Y-11904196D01*
X4012411Y-11885149D01*
X4021934Y-11875625D01*
X4040982Y-11866101D01*
X4079077Y-11866101D01*
X4098125Y-11875625D01*
X4107649Y-11885149D01*
X4117173Y-11904196D01*
X4117173Y-11913720D01*
X4107649Y-11932768D01*
X4098125Y-11942292D01*
X4079077Y-11951815D01*
X4040982Y-11951815D01*
X4021934Y-11961339D01*
X4012411Y-11970863D01*
X4002887Y-11989911D01*
X4002887Y-12028006D01*
X4012411Y-12047053D01*
X4021934Y-12056577D01*
X4040982Y-12066101D01*
X4079077Y-12066101D01*
X4098125Y-12056577D01*
X4107649Y-12047053D01*
X4117173Y-12028006D01*
X4117173Y-11989911D01*
X4107649Y-11970863D01*
X4098125Y-11961339D01*
X4079077Y-11951815D01*
X4202887Y-12066101D02*
X4202887Y-11932768D01*
X4202887Y-11951815D02*
X4212411Y-11942292D01*
X4231458Y-11932768D01*
X4260030Y-11932768D01*
X4279077Y-11942292D01*
X4288601Y-11961339D01*
X4288601Y-12066101D01*
X4288601Y-11961339D02*
X4298125Y-11942292D01*
X4317173Y-11932768D01*
X4345744Y-11932768D01*
X4364792Y-11942292D01*
X4374315Y-11961339D01*
X4374315Y-12066101D01*
X4469554Y-12066101D02*
X4469554Y-11932768D01*
X4469554Y-11951815D02*
X4479077Y-11942292D01*
X4498125Y-11932768D01*
X4526696Y-11932768D01*
X4545744Y-11942292D01*
X4555268Y-11961339D01*
X4555268Y-12066101D01*
X4555268Y-11961339D02*
X4564792Y-11942292D01*
X4583839Y-11932768D01*
X4612411Y-11932768D01*
X4631458Y-11942292D01*
X4640982Y-11961339D01*
X4640982Y-12066101D01*
X5031458Y-11856577D02*
X4860030Y-12113720D01*
X5288601Y-11866101D02*
X5307649Y-11866101D01*
X5326696Y-11875625D01*
X5336220Y-11885149D01*
X5345744Y-11904196D01*
X5355268Y-11942292D01*
X5355268Y-11989911D01*
X5345744Y-12028006D01*
X5336220Y-12047053D01*
X5326696Y-12056577D01*
X5307649Y-12066101D01*
X5288601Y-12066101D01*
X5269554Y-12056577D01*
X5260030Y-12047053D01*
X5250506Y-12028006D01*
X5240982Y-11989911D01*
X5240982Y-11942292D01*
X5250506Y-11904196D01*
X5260030Y-11885149D01*
X5269554Y-11875625D01*
X5288601Y-11866101D01*
X5440982Y-12047053D02*
X5450506Y-12056577D01*
X5440982Y-12066101D01*
X5431458Y-12056577D01*
X5440982Y-12047053D01*
X5440982Y-12066101D01*
X5640982Y-12066101D02*
X5526696Y-12066101D01*
X5583839Y-12066101D02*
X5583839Y-11866101D01*
X5564792Y-11894673D01*
X5545744Y-11913720D01*
X5526696Y-11923244D01*
X5821934Y-11866101D02*
X5726696Y-11866101D01*
X5717173Y-11961339D01*
X5726696Y-11951815D01*
X5745744Y-11942292D01*
X5793363Y-11942292D01*
X5812411Y-11951815D01*
X5821934Y-11961339D01*
X5831458Y-11980387D01*
X5831458Y-12028006D01*
X5821934Y-12047053D01*
X5812411Y-12056577D01*
X5793363Y-12066101D01*
X5745744Y-12066101D01*
X5726696Y-12056577D01*
X5717173Y-12047053D01*
X5898125Y-11866101D02*
X6031458Y-11866101D01*
X5945744Y-12066101D01*
X6145744Y-11866101D02*
X6164792Y-11866101D01*
X6183839Y-11875625D01*
X6193363Y-11885149D01*
X6202887Y-11904196D01*
X6212411Y-11942292D01*
X6212411Y-11989911D01*
X6202887Y-12028006D01*
X6193363Y-12047053D01*
X6183839Y-12056577D01*
X6164792Y-12066101D01*
X6145744Y-12066101D01*
X6126696Y-12056577D01*
X6117173Y-12047053D01*
X6107649Y-12028006D01*
X6098125Y-11989911D01*
X6098125Y-11942292D01*
X6107649Y-11904196D01*
X6117173Y-11885149D01*
X6126696Y-11875625D01*
X6145744Y-11866101D01*
X6288601Y-11866101D02*
X6288601Y-11904196D01*
X6364792Y-11866101D02*
X6364792Y-11904196D01*
X6660030Y-12142292D02*
X6650506Y-12132768D01*
X6631458Y-12104196D01*
X6621934Y-12085149D01*
X6612411Y-12056577D01*
X6602887Y-12008958D01*
X6602887Y-11970863D01*
X6612411Y-11923244D01*
X6621934Y-11894673D01*
X6631458Y-11875625D01*
X6650506Y-11847053D01*
X6660030Y-11837530D01*
X6726696Y-11885149D02*
X6736220Y-11875625D01*
X6755268Y-11866101D01*
X6802887Y-11866101D01*
X6821934Y-11875625D01*
X6831458Y-11885149D01*
X6840982Y-11904196D01*
X6840982Y-11923244D01*
X6831458Y-11951815D01*
X6717173Y-12066101D01*
X6840982Y-12066101D01*
X6964792Y-11866101D02*
X6983839Y-11866101D01*
X7002887Y-11875625D01*
X7012411Y-11885149D01*
X7021934Y-11904196D01*
X7031458Y-11942292D01*
X7031458Y-11989911D01*
X7021934Y-12028006D01*
X7012411Y-12047053D01*
X7002887Y-12056577D01*
X6983839Y-12066101D01*
X6964792Y-12066101D01*
X6945744Y-12056577D01*
X6936220Y-12047053D01*
X6926696Y-12028006D01*
X6917173Y-11989911D01*
X6917173Y-11942292D01*
X6926696Y-11904196D01*
X6936220Y-11885149D01*
X6945744Y-11875625D01*
X6964792Y-11866101D01*
X7269553Y-12066101D02*
X7269553Y-11866101D01*
X7355268Y-12066101D02*
X7355268Y-11961339D01*
X7345744Y-11942292D01*
X7326696Y-11932768D01*
X7298125Y-11932768D01*
X7279077Y-11942292D01*
X7269553Y-11951815D01*
X7479077Y-12066101D02*
X7460030Y-12056577D01*
X7450506Y-12047053D01*
X7440982Y-12028006D01*
X7440982Y-11970863D01*
X7450506Y-11951815D01*
X7460030Y-11942292D01*
X7479077Y-11932768D01*
X7507649Y-11932768D01*
X7526696Y-11942292D01*
X7536220Y-11951815D01*
X7545744Y-11970863D01*
X7545744Y-12028006D01*
X7536220Y-12047053D01*
X7526696Y-12056577D01*
X7507649Y-12066101D01*
X7479077Y-12066101D01*
X7660030Y-12066101D02*
X7640982Y-12056577D01*
X7631458Y-12037530D01*
X7631458Y-11866101D01*
X7812411Y-12056577D02*
X7793363Y-12066101D01*
X7755268Y-12066101D01*
X7736220Y-12056577D01*
X7726696Y-12037530D01*
X7726696Y-11961339D01*
X7736220Y-11942292D01*
X7755268Y-11932768D01*
X7793363Y-11932768D01*
X7812411Y-11942292D01*
X7821934Y-11961339D01*
X7821934Y-11980387D01*
X7726696Y-11999434D01*
X7898125Y-12056577D02*
X7917173Y-12066101D01*
X7955268Y-12066101D01*
X7974315Y-12056577D01*
X7983839Y-12037530D01*
X7983839Y-12028006D01*
X7974315Y-12008958D01*
X7955268Y-11999434D01*
X7926696Y-11999434D01*
X7907649Y-11989911D01*
X7898125Y-11970863D01*
X7898125Y-11961339D01*
X7907649Y-11942292D01*
X7926696Y-11932768D01*
X7955268Y-11932768D01*
X7974315Y-11942292D01*
X8050506Y-12142292D02*
X8060030Y-12132768D01*
X8079077Y-12104196D01*
X8088601Y-12085149D01*
X8098125Y-12056577D01*
X8107649Y-12008958D01*
X8107649Y-11970863D01*
X8098125Y-11923244D01*
X8088601Y-11894673D01*
X8079077Y-11875625D01*
X8060030Y-11847053D01*
X8050506Y-11837530D01*
X8412411Y-12142292D02*
X8402887Y-12132768D01*
X8383839Y-12104196D01*
X8374315Y-12085149D01*
X8364792Y-12056577D01*
X8355268Y-12008958D01*
X8355268Y-11970863D01*
X8364792Y-11923244D01*
X8374315Y-11894673D01*
X8383839Y-11875625D01*
X8402887Y-11847053D01*
X8412411Y-11837530D01*
X8488601Y-11932768D02*
X8488601Y-12066101D01*
X8488601Y-11951815D02*
X8498125Y-11942292D01*
X8517173Y-11932768D01*
X8545744Y-11932768D01*
X8564792Y-11942292D01*
X8574315Y-11961339D01*
X8574315Y-12066101D01*
X8698125Y-12066101D02*
X8679077Y-12056577D01*
X8669554Y-12047053D01*
X8660030Y-12028006D01*
X8660030Y-11970863D01*
X8669554Y-11951815D01*
X8679077Y-11942292D01*
X8698125Y-11932768D01*
X8726696Y-11932768D01*
X8745744Y-11942292D01*
X8755268Y-11951815D01*
X8764792Y-11970863D01*
X8764792Y-12028006D01*
X8755268Y-12047053D01*
X8745744Y-12056577D01*
X8726696Y-12066101D01*
X8698125Y-12066101D01*
X8821935Y-11932768D02*
X8898125Y-11932768D01*
X8850506Y-11866101D02*
X8850506Y-12037530D01*
X8860030Y-12056577D01*
X8879077Y-12066101D01*
X8898125Y-12066101D01*
X9117173Y-11932768D02*
X9117173Y-12132768D01*
X9117173Y-11942292D02*
X9136220Y-11932768D01*
X9174315Y-11932768D01*
X9193363Y-11942292D01*
X9202887Y-11951815D01*
X9212411Y-11970863D01*
X9212411Y-12028006D01*
X9202887Y-12047053D01*
X9193363Y-12056577D01*
X9174315Y-12066101D01*
X9136220Y-12066101D01*
X9117173Y-12056577D01*
X9326696Y-12066101D02*
X9307649Y-12056577D01*
X9298125Y-12037530D01*
X9298125Y-11866101D01*
X9488601Y-12066101D02*
X9488601Y-11961339D01*
X9479077Y-11942292D01*
X9460030Y-11932768D01*
X9421935Y-11932768D01*
X9402887Y-11942292D01*
X9488601Y-12056577D02*
X9469554Y-12066101D01*
X9421935Y-12066101D01*
X9402887Y-12056577D01*
X9393363Y-12037530D01*
X9393363Y-12018482D01*
X9402887Y-11999434D01*
X9421935Y-11989911D01*
X9469554Y-11989911D01*
X9488601Y-11980387D01*
X9555268Y-11932768D02*
X9631458Y-11932768D01*
X9583839Y-11866101D02*
X9583839Y-12037530D01*
X9593363Y-12056577D01*
X9612411Y-12066101D01*
X9631458Y-12066101D01*
X9774315Y-12056577D02*
X9755268Y-12066101D01*
X9717173Y-12066101D01*
X9698125Y-12056577D01*
X9688601Y-12037530D01*
X9688601Y-11961339D01*
X9698125Y-11942292D01*
X9717173Y-11932768D01*
X9755268Y-11932768D01*
X9774315Y-11942292D01*
X9783839Y-11961339D01*
X9783839Y-11980387D01*
X9688601Y-11999434D01*
X9955268Y-12066101D02*
X9955268Y-11866101D01*
X9955268Y-12056577D02*
X9936220Y-12066101D01*
X9898125Y-12066101D01*
X9879077Y-12056577D01*
X9869554Y-12047053D01*
X9860030Y-12028006D01*
X9860030Y-11970863D01*
X9869554Y-11951815D01*
X9879077Y-11942292D01*
X9898125Y-11932768D01*
X9936220Y-11932768D01*
X9955268Y-11942292D01*
X10031458Y-12142292D02*
X10040982Y-12132768D01*
X10060030Y-12104196D01*
X10069554Y-12085149D01*
X10079077Y-12056577D01*
X10088601Y-12008958D01*
X10088601Y-11970863D01*
X10079077Y-11923244D01*
X10069554Y-11894673D01*
X10060030Y-11875625D01*
X10040982Y-11847053D01*
X10031458Y-11837530D01*
M02*
