G04 #@! TF.GenerationSoftware,KiCad,Pcbnew,(6.0.9)*
G04 #@! TF.CreationDate,2022-12-29T20:32:49-06:00*
G04 #@! TF.ProjectId,Number Pad,4e756d62-6572-4205-9061-642e6b696361,rev?*
G04 #@! TF.SameCoordinates,Original*
G04 #@! TF.FileFunction,Legend,Top*
G04 #@! TF.FilePolarity,Positive*
%FSLAX46Y46*%
G04 Gerber Fmt 4.6, Leading zero omitted, Abs format (unit mm)*
G04 Created by KiCad (PCBNEW (6.0.9)) date 2022-12-29 20:32:49*
%MOMM*%
%LPD*%
G01*
G04 APERTURE LIST*
G04 Aperture macros list*
%AMRoundRect*
0 Rectangle with rounded corners*
0 $1 Rounding radius*
0 $2 $3 $4 $5 $6 $7 $8 $9 X,Y pos of 4 corners*
0 Add a 4 corners polygon primitive as box body*
4,1,4,$2,$3,$4,$5,$6,$7,$8,$9,$2,$3,0*
0 Add four circle primitives for the rounded corners*
1,1,$1+$1,$2,$3*
1,1,$1+$1,$4,$5*
1,1,$1+$1,$6,$7*
1,1,$1+$1,$8,$9*
0 Add four rect primitives between the rounded corners*
20,1,$1+$1,$2,$3,$4,$5,0*
20,1,$1+$1,$4,$5,$6,$7,0*
20,1,$1+$1,$6,$7,$8,$9,0*
20,1,$1+$1,$8,$9,$2,$3,0*%
G04 Aperture macros list end*
%ADD10C,0.150000*%
%ADD11C,0.120000*%
%ADD12RoundRect,0.150000X-0.625000X0.150000X-0.625000X-0.150000X0.625000X-0.150000X0.625000X0.150000X0*%
%ADD13RoundRect,0.250000X-0.650000X0.350000X-0.650000X-0.350000X0.650000X-0.350000X0.650000X0.350000X0*%
%ADD14C,3.987800*%
%ADD15C,1.750000*%
%ADD16RoundRect,0.150000X0.625000X-0.150000X0.625000X0.150000X-0.625000X0.150000X-0.625000X-0.150000X0*%
%ADD17RoundRect,0.250000X0.650000X-0.350000X0.650000X0.350000X-0.650000X0.350000X-0.650000X-0.350000X0*%
%ADD18R,1.200000X0.900000*%
G04 APERTURE END LIST*
D10*
X124082380Y-63039583D02*
X124796666Y-63039583D01*
X124939523Y-63087202D01*
X125034761Y-63182440D01*
X125082380Y-63325297D01*
X125082380Y-63420535D01*
X124177619Y-62611011D02*
X124130000Y-62563392D01*
X124082380Y-62468154D01*
X124082380Y-62230059D01*
X124130000Y-62134821D01*
X124177619Y-62087202D01*
X124272857Y-62039583D01*
X124368095Y-62039583D01*
X124510952Y-62087202D01*
X125082380Y-62658630D01*
X125082380Y-62039583D01*
X30016130Y-63016333D02*
X30730416Y-63016333D01*
X30873273Y-63063952D01*
X30968511Y-63159190D01*
X31016130Y-63302047D01*
X31016130Y-63397285D01*
X31016130Y-62016333D02*
X31016130Y-62587761D01*
X31016130Y-62302047D02*
X30016130Y-62302047D01*
X30158988Y-62397285D01*
X30254226Y-62492523D01*
X30301845Y-62587761D01*
X75446130Y-25344345D02*
X74446130Y-25344345D01*
X74446130Y-25106250D01*
X74493750Y-24963392D01*
X74588988Y-24868154D01*
X74684226Y-24820535D01*
X74874702Y-24772916D01*
X75017559Y-24772916D01*
X75208035Y-24820535D01*
X75303273Y-24868154D01*
X75398511Y-24963392D01*
X75446130Y-25106250D01*
X75446130Y-25344345D01*
X74446130Y-23915773D02*
X74446130Y-24106250D01*
X74493750Y-24201488D01*
X74541369Y-24249107D01*
X74684226Y-24344345D01*
X74874702Y-24391964D01*
X75255654Y-24391964D01*
X75350892Y-24344345D01*
X75398511Y-24296726D01*
X75446130Y-24201488D01*
X75446130Y-24011011D01*
X75398511Y-23915773D01*
X75350892Y-23868154D01*
X75255654Y-23820535D01*
X75017559Y-23820535D01*
X74922321Y-23868154D01*
X74874702Y-23915773D01*
X74827083Y-24011011D01*
X74827083Y-24201488D01*
X74874702Y-24296726D01*
X74922321Y-24344345D01*
X75017559Y-24391964D01*
X113546130Y-102020535D02*
X112546130Y-102020535D01*
X112546130Y-101782440D01*
X112593750Y-101639583D01*
X112688988Y-101544345D01*
X112784226Y-101496726D01*
X112974702Y-101449107D01*
X113117559Y-101449107D01*
X113308035Y-101496726D01*
X113403273Y-101544345D01*
X113498511Y-101639583D01*
X113546130Y-101782440D01*
X113546130Y-102020535D01*
X112641369Y-101068154D02*
X112593750Y-101020535D01*
X112546130Y-100925297D01*
X112546130Y-100687202D01*
X112593750Y-100591964D01*
X112641369Y-100544345D01*
X112736607Y-100496726D01*
X112831845Y-100496726D01*
X112974702Y-100544345D01*
X113546130Y-101115773D01*
X113546130Y-100496726D01*
X112546130Y-99877678D02*
X112546130Y-99782440D01*
X112593750Y-99687202D01*
X112641369Y-99639583D01*
X112736607Y-99591964D01*
X112927083Y-99544345D01*
X113165178Y-99544345D01*
X113355654Y-99591964D01*
X113450892Y-99639583D01*
X113498511Y-99687202D01*
X113546130Y-99782440D01*
X113546130Y-99877678D01*
X113498511Y-99972916D01*
X113450892Y-100020535D01*
X113355654Y-100068154D01*
X113165178Y-100115773D01*
X112927083Y-100115773D01*
X112736607Y-100068154D01*
X112641369Y-100020535D01*
X112593750Y-99972916D01*
X112546130Y-99877678D01*
X75446130Y-63444345D02*
X74446130Y-63444345D01*
X74446130Y-63206250D01*
X74493750Y-63063392D01*
X74588988Y-62968154D01*
X74684226Y-62920535D01*
X74874702Y-62872916D01*
X75017559Y-62872916D01*
X75208035Y-62920535D01*
X75303273Y-62968154D01*
X75398511Y-63063392D01*
X75446130Y-63206250D01*
X75446130Y-63444345D01*
X74874702Y-62301488D02*
X74827083Y-62396726D01*
X74779464Y-62444345D01*
X74684226Y-62491964D01*
X74636607Y-62491964D01*
X74541369Y-62444345D01*
X74493750Y-62396726D01*
X74446130Y-62301488D01*
X74446130Y-62111011D01*
X74493750Y-62015773D01*
X74541369Y-61968154D01*
X74636607Y-61920535D01*
X74684226Y-61920535D01*
X74779464Y-61968154D01*
X74827083Y-62015773D01*
X74874702Y-62111011D01*
X74874702Y-62301488D01*
X74922321Y-62396726D01*
X74969940Y-62444345D01*
X75065178Y-62491964D01*
X75255654Y-62491964D01*
X75350892Y-62444345D01*
X75398511Y-62396726D01*
X75446130Y-62301488D01*
X75446130Y-62111011D01*
X75398511Y-62015773D01*
X75350892Y-61968154D01*
X75255654Y-61920535D01*
X75065178Y-61920535D01*
X74969940Y-61968154D01*
X74922321Y-62015773D01*
X74874702Y-62111011D01*
X56396130Y-63444345D02*
X55396130Y-63444345D01*
X55396130Y-63206250D01*
X55443750Y-63063392D01*
X55538988Y-62968154D01*
X55634226Y-62920535D01*
X55824702Y-62872916D01*
X55967559Y-62872916D01*
X56158035Y-62920535D01*
X56253273Y-62968154D01*
X56348511Y-63063392D01*
X56396130Y-63206250D01*
X56396130Y-63444345D01*
X55396130Y-62539583D02*
X55396130Y-61920535D01*
X55777083Y-62253869D01*
X55777083Y-62111011D01*
X55824702Y-62015773D01*
X55872321Y-61968154D01*
X55967559Y-61920535D01*
X56205654Y-61920535D01*
X56300892Y-61968154D01*
X56348511Y-62015773D01*
X56396130Y-62111011D01*
X56396130Y-62396726D01*
X56348511Y-62491964D01*
X56300892Y-62539583D01*
X56396130Y-82494345D02*
X55396130Y-82494345D01*
X55396130Y-82256250D01*
X55443750Y-82113392D01*
X55538988Y-82018154D01*
X55634226Y-81970535D01*
X55824702Y-81922916D01*
X55967559Y-81922916D01*
X56158035Y-81970535D01*
X56253273Y-82018154D01*
X56348511Y-82113392D01*
X56396130Y-82256250D01*
X56396130Y-82494345D01*
X55729464Y-81065773D02*
X56396130Y-81065773D01*
X55348511Y-81303869D02*
X56062797Y-81541964D01*
X56062797Y-80922916D01*
X94496130Y-102020535D02*
X93496130Y-102020535D01*
X93496130Y-101782440D01*
X93543750Y-101639583D01*
X93638988Y-101544345D01*
X93734226Y-101496726D01*
X93924702Y-101449107D01*
X94067559Y-101449107D01*
X94258035Y-101496726D01*
X94353273Y-101544345D01*
X94448511Y-101639583D01*
X94496130Y-101782440D01*
X94496130Y-102020535D01*
X94496130Y-100496726D02*
X94496130Y-101068154D01*
X94496130Y-100782440D02*
X93496130Y-100782440D01*
X93638988Y-100877678D01*
X93734226Y-100972916D01*
X93781845Y-101068154D01*
X93496130Y-99591964D02*
X93496130Y-100068154D01*
X93972321Y-100115773D01*
X93924702Y-100068154D01*
X93877083Y-99972916D01*
X93877083Y-99734821D01*
X93924702Y-99639583D01*
X93972321Y-99591964D01*
X94067559Y-99544345D01*
X94305654Y-99544345D01*
X94400892Y-99591964D01*
X94448511Y-99639583D01*
X94496130Y-99734821D01*
X94496130Y-99972916D01*
X94448511Y-100068154D01*
X94400892Y-100115773D01*
X113546130Y-25820535D02*
X112546130Y-25820535D01*
X112546130Y-25582440D01*
X112593750Y-25439583D01*
X112688988Y-25344345D01*
X112784226Y-25296726D01*
X112974702Y-25249107D01*
X113117559Y-25249107D01*
X113308035Y-25296726D01*
X113403273Y-25344345D01*
X113498511Y-25439583D01*
X113546130Y-25582440D01*
X113546130Y-25820535D01*
X113546130Y-24296726D02*
X113546130Y-24868154D01*
X113546130Y-24582440D02*
X112546130Y-24582440D01*
X112688988Y-24677678D01*
X112784226Y-24772916D01*
X112831845Y-24868154D01*
X112546130Y-23439583D02*
X112546130Y-23630059D01*
X112593750Y-23725297D01*
X112641369Y-23772916D01*
X112784226Y-23868154D01*
X112974702Y-23915773D01*
X113355654Y-23915773D01*
X113450892Y-23868154D01*
X113498511Y-23820535D01*
X113546130Y-23725297D01*
X113546130Y-23534821D01*
X113498511Y-23439583D01*
X113450892Y-23391964D01*
X113355654Y-23344345D01*
X113117559Y-23344345D01*
X113022321Y-23391964D01*
X112974702Y-23439583D01*
X112927083Y-23534821D01*
X112927083Y-23725297D01*
X112974702Y-23820535D01*
X113022321Y-23868154D01*
X113117559Y-23915773D01*
X113546130Y-82970535D02*
X112546130Y-82970535D01*
X112546130Y-82732440D01*
X112593750Y-82589583D01*
X112688988Y-82494345D01*
X112784226Y-82446726D01*
X112974702Y-82399107D01*
X113117559Y-82399107D01*
X113308035Y-82446726D01*
X113403273Y-82494345D01*
X113498511Y-82589583D01*
X113546130Y-82732440D01*
X113546130Y-82970535D01*
X113546130Y-81446726D02*
X113546130Y-82018154D01*
X113546130Y-81732440D02*
X112546130Y-81732440D01*
X112688988Y-81827678D01*
X112784226Y-81922916D01*
X112831845Y-82018154D01*
X113546130Y-80970535D02*
X113546130Y-80780059D01*
X113498511Y-80684821D01*
X113450892Y-80637202D01*
X113308035Y-80541964D01*
X113117559Y-80494345D01*
X112736607Y-80494345D01*
X112641369Y-80541964D01*
X112593750Y-80589583D01*
X112546130Y-80684821D01*
X112546130Y-80875297D01*
X112593750Y-80970535D01*
X112641369Y-81018154D01*
X112736607Y-81065773D01*
X112974702Y-81065773D01*
X113069940Y-81018154D01*
X113117559Y-80970535D01*
X113165178Y-80875297D01*
X113165178Y-80684821D01*
X113117559Y-80589583D01*
X113069940Y-80541964D01*
X112974702Y-80494345D01*
X113546130Y-44870535D02*
X112546130Y-44870535D01*
X112546130Y-44632440D01*
X112593750Y-44489583D01*
X112688988Y-44394345D01*
X112784226Y-44346726D01*
X112974702Y-44299107D01*
X113117559Y-44299107D01*
X113308035Y-44346726D01*
X113403273Y-44394345D01*
X113498511Y-44489583D01*
X113546130Y-44632440D01*
X113546130Y-44870535D01*
X113546130Y-43346726D02*
X113546130Y-43918154D01*
X113546130Y-43632440D02*
X112546130Y-43632440D01*
X112688988Y-43727678D01*
X112784226Y-43822916D01*
X112831845Y-43918154D01*
X112546130Y-43013392D02*
X112546130Y-42346726D01*
X113546130Y-42775297D01*
X75446130Y-102020535D02*
X74446130Y-102020535D01*
X74446130Y-101782440D01*
X74493750Y-101639583D01*
X74588988Y-101544345D01*
X74684226Y-101496726D01*
X74874702Y-101449107D01*
X75017559Y-101449107D01*
X75208035Y-101496726D01*
X75303273Y-101544345D01*
X75398511Y-101639583D01*
X75446130Y-101782440D01*
X75446130Y-102020535D01*
X75446130Y-100496726D02*
X75446130Y-101068154D01*
X75446130Y-100782440D02*
X74446130Y-100782440D01*
X74588988Y-100877678D01*
X74684226Y-100972916D01*
X74731845Y-101068154D01*
X74446130Y-99877678D02*
X74446130Y-99782440D01*
X74493750Y-99687202D01*
X74541369Y-99639583D01*
X74636607Y-99591964D01*
X74827083Y-99544345D01*
X75065178Y-99544345D01*
X75255654Y-99591964D01*
X75350892Y-99639583D01*
X75398511Y-99687202D01*
X75446130Y-99782440D01*
X75446130Y-99877678D01*
X75398511Y-99972916D01*
X75350892Y-100020535D01*
X75255654Y-100068154D01*
X75065178Y-100115773D01*
X74827083Y-100115773D01*
X74636607Y-100068154D01*
X74541369Y-100020535D01*
X74493750Y-99972916D01*
X74446130Y-99877678D01*
X113546130Y-63920535D02*
X112546130Y-63920535D01*
X112546130Y-63682440D01*
X112593750Y-63539583D01*
X112688988Y-63444345D01*
X112784226Y-63396726D01*
X112974702Y-63349107D01*
X113117559Y-63349107D01*
X113308035Y-63396726D01*
X113403273Y-63444345D01*
X113498511Y-63539583D01*
X113546130Y-63682440D01*
X113546130Y-63920535D01*
X113546130Y-62396726D02*
X113546130Y-62968154D01*
X113546130Y-62682440D02*
X112546130Y-62682440D01*
X112688988Y-62777678D01*
X112784226Y-62872916D01*
X112831845Y-62968154D01*
X112974702Y-61825297D02*
X112927083Y-61920535D01*
X112879464Y-61968154D01*
X112784226Y-62015773D01*
X112736607Y-62015773D01*
X112641369Y-61968154D01*
X112593750Y-61920535D01*
X112546130Y-61825297D01*
X112546130Y-61634821D01*
X112593750Y-61539583D01*
X112641369Y-61491964D01*
X112736607Y-61444345D01*
X112784226Y-61444345D01*
X112879464Y-61491964D01*
X112927083Y-61539583D01*
X112974702Y-61634821D01*
X112974702Y-61825297D01*
X113022321Y-61920535D01*
X113069940Y-61968154D01*
X113165178Y-62015773D01*
X113355654Y-62015773D01*
X113450892Y-61968154D01*
X113498511Y-61920535D01*
X113546130Y-61825297D01*
X113546130Y-61634821D01*
X113498511Y-61539583D01*
X113450892Y-61491964D01*
X113355654Y-61444345D01*
X113165178Y-61444345D01*
X113069940Y-61491964D01*
X113022321Y-61539583D01*
X112974702Y-61634821D01*
X94496130Y-82970535D02*
X93496130Y-82970535D01*
X93496130Y-82732440D01*
X93543750Y-82589583D01*
X93638988Y-82494345D01*
X93734226Y-82446726D01*
X93924702Y-82399107D01*
X94067559Y-82399107D01*
X94258035Y-82446726D01*
X94353273Y-82494345D01*
X94448511Y-82589583D01*
X94496130Y-82732440D01*
X94496130Y-82970535D01*
X94496130Y-81446726D02*
X94496130Y-82018154D01*
X94496130Y-81732440D02*
X93496130Y-81732440D01*
X93638988Y-81827678D01*
X93734226Y-81922916D01*
X93781845Y-82018154D01*
X93829464Y-80589583D02*
X94496130Y-80589583D01*
X93448511Y-80827678D02*
X94162797Y-81065773D01*
X94162797Y-80446726D01*
X94496130Y-63920535D02*
X93496130Y-63920535D01*
X93496130Y-63682440D01*
X93543750Y-63539583D01*
X93638988Y-63444345D01*
X93734226Y-63396726D01*
X93924702Y-63349107D01*
X94067559Y-63349107D01*
X94258035Y-63396726D01*
X94353273Y-63444345D01*
X94448511Y-63539583D01*
X94496130Y-63682440D01*
X94496130Y-63920535D01*
X94496130Y-62396726D02*
X94496130Y-62968154D01*
X94496130Y-62682440D02*
X93496130Y-62682440D01*
X93638988Y-62777678D01*
X93734226Y-62872916D01*
X93781845Y-62968154D01*
X93496130Y-62063392D02*
X93496130Y-61444345D01*
X93877083Y-61777678D01*
X93877083Y-61634821D01*
X93924702Y-61539583D01*
X93972321Y-61491964D01*
X94067559Y-61444345D01*
X94305654Y-61444345D01*
X94400892Y-61491964D01*
X94448511Y-61539583D01*
X94496130Y-61634821D01*
X94496130Y-61920535D01*
X94448511Y-62015773D01*
X94400892Y-62063392D01*
X75446130Y-82494345D02*
X74446130Y-82494345D01*
X74446130Y-82256250D01*
X74493750Y-82113392D01*
X74588988Y-82018154D01*
X74684226Y-81970535D01*
X74874702Y-81922916D01*
X75017559Y-81922916D01*
X75208035Y-81970535D01*
X75303273Y-82018154D01*
X75398511Y-82113392D01*
X75446130Y-82256250D01*
X75446130Y-82494345D01*
X75446130Y-81446726D02*
X75446130Y-81256250D01*
X75398511Y-81161011D01*
X75350892Y-81113392D01*
X75208035Y-81018154D01*
X75017559Y-80970535D01*
X74636607Y-80970535D01*
X74541369Y-81018154D01*
X74493750Y-81065773D01*
X74446130Y-81161011D01*
X74446130Y-81351488D01*
X74493750Y-81446726D01*
X74541369Y-81494345D01*
X74636607Y-81541964D01*
X74874702Y-81541964D01*
X74969940Y-81494345D01*
X75017559Y-81446726D01*
X75065178Y-81351488D01*
X75065178Y-81161011D01*
X75017559Y-81065773D01*
X74969940Y-81018154D01*
X74874702Y-80970535D01*
X56396130Y-101544345D02*
X55396130Y-101544345D01*
X55396130Y-101306250D01*
X55443750Y-101163392D01*
X55538988Y-101068154D01*
X55634226Y-101020535D01*
X55824702Y-100972916D01*
X55967559Y-100972916D01*
X56158035Y-101020535D01*
X56253273Y-101068154D01*
X56348511Y-101163392D01*
X56396130Y-101306250D01*
X56396130Y-101544345D01*
X55396130Y-100068154D02*
X55396130Y-100544345D01*
X55872321Y-100591964D01*
X55824702Y-100544345D01*
X55777083Y-100449107D01*
X55777083Y-100211011D01*
X55824702Y-100115773D01*
X55872321Y-100068154D01*
X55967559Y-100020535D01*
X56205654Y-100020535D01*
X56300892Y-100068154D01*
X56348511Y-100115773D01*
X56396130Y-100211011D01*
X56396130Y-100449107D01*
X56348511Y-100544345D01*
X56300892Y-100591964D01*
X94496130Y-44870535D02*
X93496130Y-44870535D01*
X93496130Y-44632440D01*
X93543750Y-44489583D01*
X93638988Y-44394345D01*
X93734226Y-44346726D01*
X93924702Y-44299107D01*
X94067559Y-44299107D01*
X94258035Y-44346726D01*
X94353273Y-44394345D01*
X94448511Y-44489583D01*
X94496130Y-44632440D01*
X94496130Y-44870535D01*
X94496130Y-43346726D02*
X94496130Y-43918154D01*
X94496130Y-43632440D02*
X93496130Y-43632440D01*
X93638988Y-43727678D01*
X93734226Y-43822916D01*
X93781845Y-43918154D01*
X93591369Y-42965773D02*
X93543750Y-42918154D01*
X93496130Y-42822916D01*
X93496130Y-42584821D01*
X93543750Y-42489583D01*
X93591369Y-42441964D01*
X93686607Y-42394345D01*
X93781845Y-42394345D01*
X93924702Y-42441964D01*
X94496130Y-43013392D01*
X94496130Y-42394345D01*
X56396130Y-25344345D02*
X55396130Y-25344345D01*
X55396130Y-25106250D01*
X55443750Y-24963392D01*
X55538988Y-24868154D01*
X55634226Y-24820535D01*
X55824702Y-24772916D01*
X55967559Y-24772916D01*
X56158035Y-24820535D01*
X56253273Y-24868154D01*
X56348511Y-24963392D01*
X56396130Y-25106250D01*
X56396130Y-25344345D01*
X56396130Y-23820535D02*
X56396130Y-24391964D01*
X56396130Y-24106250D02*
X55396130Y-24106250D01*
X55538988Y-24201488D01*
X55634226Y-24296726D01*
X55681845Y-24391964D01*
X56396130Y-44394345D02*
X55396130Y-44394345D01*
X55396130Y-44156250D01*
X55443750Y-44013392D01*
X55538988Y-43918154D01*
X55634226Y-43870535D01*
X55824702Y-43822916D01*
X55967559Y-43822916D01*
X56158035Y-43870535D01*
X56253273Y-43918154D01*
X56348511Y-44013392D01*
X56396130Y-44156250D01*
X56396130Y-44394345D01*
X55491369Y-43441964D02*
X55443750Y-43394345D01*
X55396130Y-43299107D01*
X55396130Y-43061011D01*
X55443750Y-42965773D01*
X55491369Y-42918154D01*
X55586607Y-42870535D01*
X55681845Y-42870535D01*
X55824702Y-42918154D01*
X56396130Y-43489583D01*
X56396130Y-42870535D01*
X94496130Y-25820535D02*
X93496130Y-25820535D01*
X93496130Y-25582440D01*
X93543750Y-25439583D01*
X93638988Y-25344345D01*
X93734226Y-25296726D01*
X93924702Y-25249107D01*
X94067559Y-25249107D01*
X94258035Y-25296726D01*
X94353273Y-25344345D01*
X94448511Y-25439583D01*
X94496130Y-25582440D01*
X94496130Y-25820535D01*
X94496130Y-24296726D02*
X94496130Y-24868154D01*
X94496130Y-24582440D02*
X93496130Y-24582440D01*
X93638988Y-24677678D01*
X93734226Y-24772916D01*
X93781845Y-24868154D01*
X94496130Y-23344345D02*
X94496130Y-23915773D01*
X94496130Y-23630059D02*
X93496130Y-23630059D01*
X93638988Y-23725297D01*
X93734226Y-23820535D01*
X93781845Y-23915773D01*
X75446130Y-44394345D02*
X74446130Y-44394345D01*
X74446130Y-44156250D01*
X74493750Y-44013392D01*
X74588988Y-43918154D01*
X74684226Y-43870535D01*
X74874702Y-43822916D01*
X75017559Y-43822916D01*
X75208035Y-43870535D01*
X75303273Y-43918154D01*
X75398511Y-44013392D01*
X75446130Y-44156250D01*
X75446130Y-44394345D01*
X74446130Y-43489583D02*
X74446130Y-42822916D01*
X75446130Y-43251488D01*
D11*
X122435000Y-52646250D02*
X123425000Y-52646250D01*
X122435000Y-73816250D02*
X122435000Y-72766250D01*
X119935000Y-73816250D02*
X122435000Y-73816250D01*
X117965000Y-52766250D02*
X117965000Y-72646250D01*
X119935000Y-51596250D02*
X122435000Y-51596250D01*
X122435000Y-51596250D02*
X122435000Y-52646250D01*
X32758750Y-51573000D02*
X32758750Y-52623000D01*
X35258750Y-51573000D02*
X32758750Y-51573000D01*
X32758750Y-73793000D02*
X32758750Y-72743000D01*
X37228750Y-72623000D02*
X37228750Y-52743000D01*
X32758750Y-72743000D02*
X31768750Y-72743000D01*
X35258750Y-73793000D02*
X32758750Y-73793000D01*
X75993750Y-26856250D02*
X75993750Y-22956250D01*
X75993750Y-26856250D02*
X77993750Y-26856250D01*
X77993750Y-26856250D02*
X77993750Y-22956250D01*
X114093750Y-103056250D02*
X114093750Y-99156250D01*
X116093750Y-103056250D02*
X116093750Y-99156250D01*
X114093750Y-103056250D02*
X116093750Y-103056250D01*
X77993750Y-64956250D02*
X77993750Y-61056250D01*
X75993750Y-64956250D02*
X75993750Y-61056250D01*
X75993750Y-64956250D02*
X77993750Y-64956250D01*
X56943750Y-64956250D02*
X58943750Y-64956250D01*
X58943750Y-64956250D02*
X58943750Y-61056250D01*
X56943750Y-64956250D02*
X56943750Y-61056250D01*
X56943750Y-84006250D02*
X56943750Y-80106250D01*
X56943750Y-84006250D02*
X58943750Y-84006250D01*
X58943750Y-84006250D02*
X58943750Y-80106250D01*
X95043750Y-103056250D02*
X95043750Y-99156250D01*
X97043750Y-103056250D02*
X97043750Y-99156250D01*
X95043750Y-103056250D02*
X97043750Y-103056250D01*
X116093750Y-26856250D02*
X116093750Y-22956250D01*
X114093750Y-26856250D02*
X114093750Y-22956250D01*
X114093750Y-26856250D02*
X116093750Y-26856250D01*
X116093750Y-84006250D02*
X116093750Y-80106250D01*
X114093750Y-84006250D02*
X116093750Y-84006250D01*
X114093750Y-84006250D02*
X114093750Y-80106250D01*
X116093750Y-45906250D02*
X116093750Y-42006250D01*
X114093750Y-45906250D02*
X116093750Y-45906250D01*
X114093750Y-45906250D02*
X114093750Y-42006250D01*
X75993750Y-103056250D02*
X77993750Y-103056250D01*
X77993750Y-103056250D02*
X77993750Y-99156250D01*
X75993750Y-103056250D02*
X75993750Y-99156250D01*
X114093750Y-64956250D02*
X116093750Y-64956250D01*
X114093750Y-64956250D02*
X114093750Y-61056250D01*
X116093750Y-64956250D02*
X116093750Y-61056250D01*
X95043750Y-84006250D02*
X95043750Y-80106250D01*
X95043750Y-84006250D02*
X97043750Y-84006250D01*
X97043750Y-84006250D02*
X97043750Y-80106250D01*
X95043750Y-64956250D02*
X95043750Y-61056250D01*
X95043750Y-64956250D02*
X97043750Y-64956250D01*
X97043750Y-64956250D02*
X97043750Y-61056250D01*
X75993750Y-84006250D02*
X75993750Y-80106250D01*
X75993750Y-84006250D02*
X77993750Y-84006250D01*
X77993750Y-84006250D02*
X77993750Y-80106250D01*
X56943750Y-103056250D02*
X58943750Y-103056250D01*
X58943750Y-103056250D02*
X58943750Y-99156250D01*
X56943750Y-103056250D02*
X56943750Y-99156250D01*
X95043750Y-45906250D02*
X95043750Y-42006250D01*
X95043750Y-45906250D02*
X97043750Y-45906250D01*
X97043750Y-45906250D02*
X97043750Y-42006250D01*
X56943750Y-26856250D02*
X58943750Y-26856250D01*
X56943750Y-26856250D02*
X56943750Y-22956250D01*
X58943750Y-26856250D02*
X58943750Y-22956250D01*
X56943750Y-45906250D02*
X58943750Y-45906250D01*
X58943750Y-45906250D02*
X58943750Y-42006250D01*
X56943750Y-45906250D02*
X56943750Y-42006250D01*
X97043750Y-26856250D02*
X97043750Y-22956250D01*
X95043750Y-26856250D02*
X95043750Y-22956250D01*
X95043750Y-26856250D02*
X97043750Y-26856250D01*
X77993750Y-45906250D02*
X77993750Y-42006250D01*
X75993750Y-45906250D02*
X77993750Y-45906250D01*
X75993750Y-45906250D02*
X75993750Y-42006250D01*
%LPC*%
D12*
X122650000Y-53206250D03*
X122650000Y-54206250D03*
X122650000Y-55206250D03*
X122650000Y-56206250D03*
X122650000Y-57206250D03*
X122650000Y-58206250D03*
X122650000Y-59206250D03*
X122650000Y-60206250D03*
X122650000Y-61206250D03*
X122650000Y-62206250D03*
X122650000Y-63206250D03*
X122650000Y-64206250D03*
X122650000Y-65206250D03*
X122650000Y-66206250D03*
X122650000Y-67206250D03*
X122650000Y-68206250D03*
X122650000Y-69206250D03*
X122650000Y-70206250D03*
X122650000Y-71206250D03*
X122650000Y-72206250D03*
D13*
X118775000Y-73506250D03*
X118775000Y-51906250D03*
D14*
X50006250Y-62706250D03*
D15*
X55086250Y-62706250D03*
X44926250Y-62706250D03*
D14*
X50006250Y-43656250D03*
D15*
X55086250Y-43656250D03*
X44926250Y-43656250D03*
D16*
X32543750Y-72183000D03*
X32543750Y-71183000D03*
X32543750Y-70183000D03*
X32543750Y-69183000D03*
X32543750Y-68183000D03*
X32543750Y-67183000D03*
X32543750Y-66183000D03*
X32543750Y-65183000D03*
X32543750Y-64183000D03*
X32543750Y-63183000D03*
X32543750Y-62183000D03*
X32543750Y-61183000D03*
X32543750Y-60183000D03*
X32543750Y-59183000D03*
X32543750Y-58183000D03*
X32543750Y-57183000D03*
X32543750Y-56183000D03*
X32543750Y-55183000D03*
X32543750Y-54183000D03*
X32543750Y-53183000D03*
D17*
X36418750Y-73483000D03*
X36418750Y-51883000D03*
D18*
X76993750Y-26256250D03*
X76993750Y-22956250D03*
D14*
X88106250Y-100806250D03*
D15*
X93186250Y-100806250D03*
X83026250Y-100806250D03*
D14*
X88106250Y-62706250D03*
D15*
X93186250Y-62706250D03*
X83026250Y-62706250D03*
D18*
X115093750Y-102456250D03*
X115093750Y-99156250D03*
D15*
X102076250Y-62706250D03*
D14*
X107156250Y-62706250D03*
D15*
X112236250Y-62706250D03*
X44926250Y-81756250D03*
D14*
X50006250Y-81756250D03*
D15*
X55086250Y-81756250D03*
D14*
X88106250Y-81756250D03*
D15*
X83026250Y-81756250D03*
X93186250Y-81756250D03*
D18*
X76993750Y-64356250D03*
X76993750Y-61056250D03*
X57943750Y-64356250D03*
X57943750Y-61056250D03*
X57943750Y-83406250D03*
X57943750Y-80106250D03*
D15*
X44926250Y-100806250D03*
D14*
X50006250Y-100806250D03*
D15*
X55086250Y-100806250D03*
D18*
X96043750Y-102456250D03*
X96043750Y-99156250D03*
X115093750Y-26256250D03*
X115093750Y-22956250D03*
X115093750Y-83406250D03*
X115093750Y-80106250D03*
D15*
X63976250Y-81756250D03*
D14*
X69056250Y-81756250D03*
D15*
X74136250Y-81756250D03*
D18*
X115093750Y-45306250D03*
X115093750Y-42006250D03*
D14*
X69056250Y-24606250D03*
D15*
X63976250Y-24606250D03*
X74136250Y-24606250D03*
D14*
X69056250Y-43656250D03*
D15*
X74136250Y-43656250D03*
X63976250Y-43656250D03*
D18*
X76993750Y-102456250D03*
X76993750Y-99156250D03*
D14*
X88106250Y-43656250D03*
D15*
X93186250Y-43656250D03*
X83026250Y-43656250D03*
D14*
X50006250Y-24606250D03*
D15*
X44926250Y-24606250D03*
X55086250Y-24606250D03*
D18*
X115093750Y-64356250D03*
X115093750Y-61056250D03*
X96043750Y-83406250D03*
X96043750Y-80106250D03*
D15*
X102076250Y-43656250D03*
D14*
X107156250Y-43656250D03*
D15*
X112236250Y-43656250D03*
D18*
X96043750Y-64356250D03*
X96043750Y-61056250D03*
D15*
X102076250Y-81756250D03*
D14*
X107156250Y-81756250D03*
D15*
X112236250Y-81756250D03*
D18*
X76993750Y-83406250D03*
X76993750Y-80106250D03*
D15*
X112236250Y-100806250D03*
D14*
X107156250Y-100806250D03*
D15*
X102076250Y-100806250D03*
X63976250Y-100806250D03*
D14*
X69056250Y-100806250D03*
D15*
X74136250Y-100806250D03*
D18*
X57943750Y-102456250D03*
X57943750Y-99156250D03*
X96043750Y-45306250D03*
X96043750Y-42006250D03*
X57943750Y-26256250D03*
X57943750Y-22956250D03*
X57943750Y-45306250D03*
X57943750Y-42006250D03*
D15*
X74136250Y-62706250D03*
D14*
X69056250Y-62706250D03*
D15*
X63976250Y-62706250D03*
D18*
X96043750Y-26256250D03*
X96043750Y-22956250D03*
D15*
X102076250Y-24606250D03*
X112236250Y-24606250D03*
D14*
X107156250Y-24606250D03*
D15*
X93186250Y-24606250D03*
X83026250Y-24606250D03*
D14*
X88106250Y-24606250D03*
D18*
X76993750Y-45306250D03*
X76993750Y-42006250D03*
M02*
