M48
; DRILL file {KiCad (6.0.9)} date Thu Dec 29 20:39:10 2022
; FORMAT={-:-/ absolute / metric / decimal}
; #@! TF.CreationDate,2022-12-29T20:39:10-06:00
; #@! TF.GenerationSoftware,Kicad,Pcbnew,(6.0.9)
; #@! TF.FileFunction,Plated,1,2,PTH
FMAT,2
METRIC
; #@! TA.AperFunction,Plated,PTH,ViaDrill
T1C0.400
; #@! TA.AperFunction,Plated,PTH,ComponentDrill
T2C0.900
; #@! TA.AperFunction,Plated,PTH,ComponentDrill
T3C1.470
; #@! TA.AperFunction,Plated,PTH,ComponentDrill
T4C2.100
%
G90
G05
T1
X-143.256Y104.775
X-143.256Y83.269
X-142.499Y103.88
X-142.499Y101.6
X-141.605Y118.872
X-141.605Y99.06
X-141.224Y89.027
X-140.843Y117.983
X-140.335Y82.804
X-140.335Y82.804
X-139.573Y122.682
X-139.573Y84.074
X-139.541Y67.469
X-139.446Y106.807
X-138.557Y120.36
X-137.795Y68.707
X-137.668Y69.85
X-137.478Y90.995
X-136.906Y80.264
X-136.906Y54.102
X-136.398Y92.964
X-136.144Y79.121
X-135.255Y91.948
X-135.128Y79.883
X-135.128Y53.086
X-135.001Y50.927
X-134.875Y94.995
X-134.838Y96.012
X-134.838Y93.98
X-134.401Y88.011
X-134.112Y92.456
X-134.112Y78.867
X-134.112Y49.53
X-133.223Y119.634
X-133.096Y92.71
X-133.096Y88.138
X-133.096Y47.244
X-132.369Y69.85
X-132.207Y116.586
X-132.084Y127.508
X-132.084Y118.618
X-132.08Y92.837
X-132.08Y79.121
X-132.08Y45.72
X-131.353Y68.707
X-131.191Y92.202
X-131.191Y79.756
X-130.464Y94.996
X-130.464Y53.154
X-130.429Y48.006
X-130.429Y48.006
X-130.429Y46.482
X-130.423Y96.006
X-130.175Y52.197
X-130.175Y50.927
X-129.921Y134.112
X-129.381Y67.469
X-129.159Y44.16
X-128.902Y103.515
X-128.524Y85.09
X-128.488Y108.331
X-128.016Y96.012
X-128.016Y96.012
X-128.016Y94.996
X-127.762Y115.189
X-127.762Y109.22
X-127.281Y85.852
X-126.873Y91.059
X-126.619Y115.189
X-126.619Y109.347
X-126.111Y89.571
X-126.111Y87.63
X-125.381Y114.709
X-125.381Y114.709
X-125.349Y135.184
X-125.095Y109.311
X-124.587Y115.316
X-124.587Y111.887
X-124.587Y93.881
X-124.587Y80.518
X-124.587Y68.961
X-123.698Y85.852
X-123.444Y78.74
X-123.324Y102.396
X-123.317Y100.816
X-123.19Y91.821
X-122.936Y126.746
X-122.936Y124.587
X-122.936Y115.57
X-122.936Y113.129
X-122.252Y93.881
X-121.539Y125.73
X-121.539Y125.73
X-120.65Y84.49
X-120.589Y130.302
X-119.888Y53.086
X-119.888Y53.086
X-119.761Y132.207
X-119.062Y86.014
X-118.999Y52.197
X-118.963Y103.378
X-118.272Y116.586
X-118.272Y116.586
X-118.262Y108.102
X-118.262Y81.941
X-118.237Y109.601
X-118.237Y104.394
X-118.237Y62.23
X-117.856Y133.604
X-117.51Y52.197
X-117.475Y99.822
X-117.475Y97.917
X-117.472Y82.552
X-117.472Y61.087
X-116.967Y132.461
X-116.681Y61.912
X-116.681Y53.118
X-116.643Y81.995
X-115.862Y85.51
X-114.695Y104.391
X-113.919Y63.5
X-113.665Y115.443
X-112.938Y118.618
X-112.938Y118.618
X-112.903Y114.554
X-112.903Y113.538
X-112.74Y116.332
X-112.014Y108.966
X-112.014Y98.48
X-111.287Y127.508
X-111.15Y97.606
X-111.125Y110.49
X-111.125Y100.838
X-110.835Y96.012
X-110.398Y122.682
X-110.236Y108.966
X-110.236Y101.6
X-110.109Y62.23
X-109.509Y114.554
X-109.474Y113.538
X-109.22Y116.332
X-109.22Y96.012
X-108.966Y94.615
X-108.839Y103.251
X-108.744Y97.631
X-108.744Y84.138
X-107.696Y62.23
X-107.188Y102.489
X-107.061Y116.332
X-106.771Y114.554
X-106.771Y112.141
X-106.68Y86.741
X-105.319Y101.6
X-105.283Y113.03
X-104.902Y116.332
X-104.521Y110.236
X-104.521Y104.683
X-104.521Y100.711
X-99.27Y62.23
X-98.171Y123.698
X-98.171Y123.698
X-97.79Y62.23
X-95.885Y68.072
X-95.123Y104.521
X-94.869Y123.698
X-94.742Y103.124
X-94.742Y101.6
X-92.837Y103.124
X-92.837Y101.6
X-92.329Y105.41
X-92.329Y68.072
X-91.567Y104.521
X-91.059Y86.741
X-90.487Y80.962
X-90.297Y85.852
X-90.297Y85.852
X-90.297Y84.455
X-88.292Y85.852
X-88.138Y84.455
X-87.757Y86.741
X-87.312Y80.962
X-84.455Y125.095
X-81.788Y125.095
X-70.358Y104.521
X-68.834Y105.41
X-68.834Y103.124
X-68.707Y101.6
X-68.453Y97.663
X-66.861Y97.663
X-66.802Y103.124
X-66.675Y101.6
X-66.548Y105.41
X-65.913Y104.521
X-61.849Y86.741
X-61.119Y80.962
X-60.579Y85.852
X-60.452Y68.072
X-60.325Y84.455
X-60.099Y62.23
X-58.547Y84.455
X-58.547Y62.23
X-58.42Y68.072
X-58.293Y86.741
X-57.944Y80.962
X-57.531Y85.852
X-55.88Y125.095
X-54.229Y44.958
X-53.975Y48.419
X-53.975Y46.831
X-53.594Y125.095
X-53.34Y49.276
X-53.248Y44.16
X-53.181Y47.625
X-53.086Y46.101
X-51.343Y47.625
X-51.343Y47.625
X-51.054Y46.101
X-50.8Y44.196
X-50.419Y49.276
X-50.292Y105.41
X-50.006Y101.6
X-50.006Y46.831
X-49.911Y44.958
X-49.657Y103.124
X-49.657Y103.124
X-49.403Y104.521
X-49.403Y98.806
X-49.276Y97.663
X-49.212Y48.419
X-47.811Y103.124
X-47.811Y98.806
X-47.811Y97.663
X-47.625Y101.6
X-47.371Y105.41
X-46.609Y104.521
X-44.958Y86.741
X-44.577Y68.072
X-44.383Y62.23
X-43.688Y85.852
X-42.799Y68.072
X-42.672Y62.23
X-42.164Y84.455
X-41.656Y86.741
X-41.021Y85.852
X-40.481Y80.962
X-39.497Y84.455
X-37.306Y80.962
X-36.576Y125.095
X-34.036Y125.095
X-32.512Y86.741
X-31.75Y84.455
X-31.623Y85.852
X-31.242Y105.41
X-30.956Y101.6
X-30.734Y98.806
X-30.734Y97.663
X-30.48Y104.521
X-30.226Y103.124
X-30.071Y85.852
X-29.591Y86.741
X-28.761Y103.124
X-28.761Y98.806
X-28.761Y97.663
X-28.702Y84.455
X-28.448Y105.41
X-27.781Y101.6
X-27.432Y104.521
X-23.812Y48.419
X-23.241Y82.169
X-23.241Y46.101
X-23.019Y80.962
X-23.019Y47.625
X-22.987Y49.276
X-22.352Y68.072
X-22.352Y44.958
X-22.225Y46.831
X-21.999Y62.232
X-20.546Y46.831
X-20.449Y62.232
X-20.447Y68.072
X-20.32Y44.958
X-20.193Y82.169
X-19.844Y80.962
X-19.844Y47.625
X-19.685Y49.276
X-19.177Y46.101
X-19.05Y48.419
X-17.653Y125.095
X-15.494Y125.095
X-12.827Y105.41
X-11.906Y101.6
X-11.811Y104.521
X-11.43Y97.663
X-11.303Y98.806
X-11.176Y103.124
X-9.711Y103.124
X-9.711Y98.806
X-9.652Y105.41
X-9.525Y101.6
X-9.398Y97.663
X-8.89Y104.521
X-4.763Y46.831
X-4.699Y86.741
X-3.683Y85.852
X-3.683Y46.101
X-3.683Y46.101
X-3.556Y68.072
X-3.556Y62.23
X-3.175Y47.625
X-2.667Y84.455
X-2.413Y55.753
X-2.407Y48.351
X-2.381Y80.962
X-2.032Y86.741
X-1.778Y82.169
X-1.587Y47.625
X-1.481Y85.852
X-1.397Y68.072
X-1.27Y46.101
X-0.883Y62.236
X-0.127Y84.455
X0.0Y46.831
X0.254Y82.169
X0.762Y125.095
X0.794Y80.962
X3.175Y125.095
X6.985Y105.41
X7.144Y101.6
X7.493Y98.806
X7.493Y97.663
X7.747Y104.521
X7.874Y103.124
X8.255Y135.252
X9.339Y98.806
X9.398Y97.663
X9.779Y103.124
X9.906Y105.41
X10.319Y101.6
X10.668Y104.521
X12.446Y124.368
X12.573Y134.366
X12.7Y46.831
X13.335Y126.933
X13.494Y47.625
X14.487Y138.522
X14.487Y136.16
X14.732Y48.351
X15.303Y63.309
X15.494Y138.522
X15.494Y138.522
X15.621Y136.16
X15.875Y80.962
X15.875Y68.072
X16.002Y62.23
X16.129Y86.741
X16.256Y135.382
X16.51Y138.522
X16.51Y138.522
X16.891Y84.455
X17.018Y85.852
X17.145Y82.169
X17.526Y138.522
X17.526Y136.16
X17.526Y136.16
X17.554Y62.299
X17.907Y68.072
X18.288Y127.0
X18.288Y124.333
X18.288Y106.136
X18.288Y98.079
X18.542Y138.522
X18.864Y82.169
X18.923Y86.741
X19.05Y106.807
X19.05Y99.568
X19.05Y99.568
X19.056Y127.64
X19.056Y123.45
X19.177Y84.455
X19.431Y139.192
X19.685Y85.852
X19.842Y126.141
X19.844Y80.962
X19.939Y125.095
X20.447Y138.522
X21.463Y138.522
X22.479Y138.522
X22.479Y136.16
X22.86Y125.095
X23.495Y138.522
X23.495Y136.144
X23.495Y136.144
X24.511Y138.522
X24.511Y136.144
X25.146Y104.521
X25.511Y138.522
X25.527Y136.017
X25.908Y103.124
X26.035Y131.854
X26.194Y101.6
X26.194Y47.625
X26.289Y105.41
X26.51Y138.522
X26.543Y136.144
X26.543Y97.663
X26.67Y98.806
X26.987Y46.831
X27.43Y138.067
X27.559Y131.953
X28.448Y98.806
X28.448Y97.663
X28.575Y103.124
X28.575Y101.6
X28.702Y131.854
X28.829Y105.41
X28.993Y138.067
X29.591Y104.521
X33.401Y139.573
X34.036Y98.806
X34.036Y97.663
X34.544Y138.557
X34.671Y83.058
X34.671Y68.072
X34.798Y86.741
X34.925Y95.885
X34.925Y80.962
X35.306Y62.299
X35.814Y97.663
X35.814Y85.852
X36.119Y98.755
X36.195Y82.169
X36.83Y68.072
X37.058Y62.753
X37.465Y86.741
X37.973Y82.169
X38.1Y85.852
X38.894Y80.962
X40.276Y125.112
X42.291Y87.503
X42.291Y84.836
X42.418Y102.326
X42.573Y125.112
X43.307Y96.647
X43.434Y83.058
X44.196Y105.41
X44.323Y102.616
X44.323Y102.616
X45.212Y104.521
X45.244Y101.6
X45.72Y99.949
X45.847Y98.806
X45.847Y97.663
X45.847Y96.647
X47.498Y98.806
X47.498Y97.663
X47.498Y96.647
X47.625Y101.6
X47.625Y99.949
X47.752Y105.41
X48.26Y102.489
X48.387Y104.521
X53.848Y86.741
X53.848Y68.072
X54.102Y63.373
X54.61Y85.852
X55.245Y83.058
X55.753Y63.373
X56.261Y68.072
X56.642Y86.741
X57.023Y125.095
X57.15Y85.852
X57.15Y83.058
X58.674Y122.428
X59.817Y125.095
X62.103Y104.521
X62.484Y102.489
X62.484Y102.489
X63.246Y105.41
X63.373Y98.806
X63.5Y101.6
X63.5Y99.949
X63.5Y97.663
X63.5Y96.647
X65.179Y101.6
X65.179Y99.949
X65.179Y98.806
X65.179Y97.663
X65.179Y96.647
X65.532Y105.41
X65.913Y102.489
X66.294Y104.521
X71.374Y86.741
X72.39Y85.852
X73.025Y83.058
X73.819Y48.419
X74.168Y86.741
X74.803Y85.852
X74.803Y83.058
X75.438Y125.095
X77.47Y122.329
X79.375Y125.095
X80.518Y104.521
X80.645Y122.329
X81.407Y102.489
X81.534Y85.852
X81.915Y105.41
X82.423Y96.647
X82.423Y96.647
X82.55Y101.6
X82.55Y99.949
X82.55Y98.806
X82.55Y97.663
X82.677Y86.741
X84.229Y101.6
X84.229Y99.949
X84.328Y98.806
X84.328Y97.663
X84.328Y96.647
X84.455Y86.741
X84.963Y105.41
X84.963Y60.325
X85.217Y102.489
X85.852Y104.521
X86.995Y85.054
X87.376Y64.262
X87.376Y60.392
X87.376Y50.002
X87.376Y48.514
X88.138Y85.852
X91.948Y83.058
X92.075Y79.375
X92.075Y63.373
X93.218Y69.596
X93.218Y67.31
X93.754Y79.375
X93.853Y83.058
X94.107Y125.095
X94.361Y63.934
X97.282Y125.095
X100.457Y105.41
X100.711Y102.489
X101.473Y99.949
X101.473Y96.52
X101.473Y96.52
X101.6Y104.521
X101.6Y101.6
X101.6Y98.806
X101.6Y97.663
X103.279Y101.6
X103.378Y99.949
X103.378Y97.663
X103.378Y96.52
X103.505Y98.806
X103.886Y105.41
X104.14Y102.489
X104.775Y104.521
X107.823Y125.095
X109.728Y125.095
X109.728Y85.725
X110.617Y86.741
X110.744Y84.963
X110.871Y59.436
X111.252Y83.058
X111.351Y79.375
X111.919Y69.056
X111.919Y60.325
X111.919Y50.8
X111.919Y48.419
X112.776Y64.135
X112.776Y59.436
X112.903Y84.963
X113.03Y83.058
X113.03Y79.375
X113.157Y86.741
X113.157Y86.741
X114.046Y85.725
X115.697Y59.817
X117.348Y59.817
X118.999Y105.41
X120.396Y104.521
X121.285Y102.489
X121.92Y98.806
X122.047Y99.949
X122.047Y97.663
X122.174Y96.52
X122.174Y85.725
X122.186Y101.6
X122.809Y105.41
X122.809Y86.741
X123.444Y83.058
X123.571Y104.521
X123.698Y97.663
X123.698Y96.52
X123.702Y84.963
X123.825Y101.6
X123.825Y99.949
X124.46Y102.489
X124.968Y125.095
X125.222Y84.963
X125.343Y79.242
X125.603Y86.741
X126.238Y85.725
X126.304Y82.997
X127.387Y79.254
X128.27Y125.095
X133.731Y105.41
X134.874Y104.521
X134.874Y102.489
X136.008Y99.94
X136.652Y102.489
X136.779Y104.521
X137.668Y97.663
X137.668Y97.663
X138.049Y105.41
X138.303Y96.139
X138.424Y61.208
X138.43Y59.817
X139.192Y99.949
X139.192Y87.63
X139.192Y84.201
X139.954Y96.139
X140.335Y59.817
X140.494Y97.631
X140.494Y97.631
X140.837Y61.208
X148.844Y97.825
X151.003Y96.139
X151.638Y98.044
X153.289Y87.468
X153.289Y85.344
X153.413Y96.151
X153.416Y125.095
X156.718Y125.095
X157.48Y121.539
X158.095Y82.997
X158.242Y92.964
X158.242Y59.817
X158.404Y83.947
X159.131Y87.63
X159.131Y84.709
X159.131Y79.847
X159.893Y83.947
X161.163Y97.028
X162.306Y60.579
X162.433Y61.595
X162.814Y93.98
X163.703Y63.207
X164.338Y85.979
X164.465Y64.135
X164.465Y61.595
X164.592Y94.996
X164.592Y79.121
X164.592Y66.04
X164.592Y60.579
X164.627Y83.947
X166.167Y89.829
X166.229Y91.711
X166.878Y79.375
X166.878Y63.246
X168.367Y65.024
X168.783Y100.777
X169.093Y86.868
X169.418Y94.996
X169.418Y93.98
X169.418Y92.837
X169.82Y85.979
X169.82Y81.534
X169.82Y77.978
X169.82Y77.978
X169.82Y66.802
X169.938Y84.987
X170.18Y83.947
X171.069Y87.122
X171.196Y104.521
X172.212Y83.058
X172.974Y100.838
X173.155Y98.987
T2
X-131.294Y136.765
X-128.794Y136.765
X-126.794Y136.765
X-124.294Y136.765
T3
X-102.235Y131.127
X-100.925Y132.588
X-99.854Y54.927
X-98.544Y56.387
X-97.472Y112.078
X-96.162Y113.537
X-95.925Y133.088
X-95.885Y133.667
X-95.091Y93.027
X-93.781Y94.487
X-93.544Y56.887
X-93.504Y57.467
X-91.162Y114.037
X-91.123Y114.617
X-90.329Y73.977
X-89.019Y75.438
X-88.781Y94.987
X-88.741Y95.567
X-84.019Y75.938
X-83.979Y76.517
X-83.185Y131.127
X-81.875Y132.588
X-76.875Y133.088
X-76.835Y133.667
X-76.2Y54.927
X-74.89Y56.387
X-73.66Y112.078
X-72.35Y113.537
X-69.89Y56.887
X-69.85Y57.467
X-68.897Y93.027
X-67.587Y94.487
X-67.35Y114.037
X-67.31Y114.617
X-64.135Y131.127
X-62.825Y132.588
X-62.587Y94.987
X-62.547Y95.567
X-59.372Y73.977
X-58.062Y75.438
X-57.825Y133.088
X-57.785Y133.667
X-54.61Y112.078
X-53.3Y113.537
X-53.062Y75.938
X-53.023Y76.517
X-52.229Y54.927
X-50.919Y56.387
X-49.847Y93.027
X-48.537Y94.487
X-48.3Y114.037
X-48.26Y114.617
X-45.919Y56.887
X-45.879Y57.467
X-45.085Y131.127
X-43.775Y132.588
X-43.538Y94.987
X-43.497Y95.567
X-40.322Y73.977
X-39.012Y75.438
X-38.775Y133.088
X-38.735Y133.667
X-35.56Y112.078
X-34.25Y113.537
X-34.012Y75.938
X-33.972Y76.517
X-30.797Y93.027
X-29.487Y94.487
X-29.25Y114.037
X-29.21Y114.617
X-26.035Y131.127
X-24.725Y132.588
X-24.487Y94.987
X-24.447Y95.567
X-21.272Y73.977
X-19.962Y75.438
X-19.725Y133.088
X-19.685Y133.667
X-16.51Y112.078
X-15.2Y113.537
X-14.962Y75.938
X-14.922Y76.517
X-11.747Y93.027
X-10.438Y94.487
X-10.2Y114.037
X-10.16Y114.617
X-6.985Y131.127
X-5.675Y132.588
X-5.438Y94.987
X-5.397Y95.567
X-2.222Y73.977
X-0.912Y75.438
X-0.675Y133.088
X-0.635Y133.667
X2.54Y112.078
X3.85Y113.537
X4.087Y75.938
X4.127Y76.517
X7.302Y93.027
X8.612Y94.487
X8.85Y114.037
X8.89Y114.617
X12.065Y131.127
X13.375Y132.588
X13.612Y94.987
X13.652Y95.567
X16.828Y73.977
X18.137Y75.438
X18.375Y133.088
X18.415Y133.667
X19.209Y54.927
X20.519Y56.387
X21.59Y112.078
X22.9Y113.537
X23.137Y75.938
X23.177Y76.517
X25.519Y56.887
X25.559Y57.467
X26.352Y93.027
X27.662Y94.487
X27.9Y114.037
X27.94Y114.617
X31.115Y131.127
X32.425Y132.588
X32.663Y94.987
X32.703Y95.567
X35.877Y73.977
X37.188Y75.438
X37.425Y133.088
X37.465Y133.667
X40.64Y112.078
X41.95Y113.537
X42.188Y75.938
X42.227Y76.517
X45.402Y93.027
X46.712Y94.487
X46.95Y114.037
X46.99Y114.617
X50.165Y131.127
X51.475Y132.588
X51.712Y94.987
X51.752Y95.567
X54.927Y73.977
X56.237Y75.438
X56.475Y133.088
X56.515Y133.667
X59.69Y112.078
X61.0Y113.537
X61.237Y75.938
X61.277Y76.517
X64.453Y93.027
X65.763Y94.487
X66.0Y114.037
X66.04Y114.617
X69.215Y131.127
X70.525Y132.588
X70.763Y94.987
X70.802Y95.567
X73.977Y73.977
X75.287Y75.438
X75.525Y133.088
X75.565Y133.667
X78.74Y112.078
X80.05Y113.537
X80.287Y75.938
X80.328Y76.517
X83.502Y93.027
X84.812Y94.487
X85.05Y114.037
X85.09Y114.617
X88.265Y131.127
X89.575Y132.588
X89.812Y94.987
X89.852Y95.567
X90.646Y54.927
X91.956Y56.387
X93.027Y73.977
X94.337Y75.438
X94.575Y133.088
X94.615Y133.667
X96.956Y56.887
X96.996Y57.467
X97.79Y112.078
X99.1Y113.537
X99.337Y75.938
X99.377Y76.517
X102.552Y93.027
X103.862Y94.487
X104.1Y114.037
X104.14Y114.617
X107.315Y131.127
X108.625Y132.588
X108.862Y94.987
X108.902Y95.567
X112.078Y73.977
X113.387Y75.438
X113.625Y133.088
X113.665Y133.667
X115.252Y54.927
X116.562Y56.387
X116.84Y112.078
X118.15Y113.537
X118.387Y75.938
X118.427Y76.517
X121.562Y56.887
X121.602Y93.027
X121.602Y57.467
X122.912Y94.487
X123.15Y114.037
X123.19Y114.617
X126.365Y131.127
X127.675Y132.588
X127.912Y94.987
X127.953Y95.567
X132.675Y133.088
X132.715Y133.667
X135.89Y112.078
X137.2Y113.537
X138.271Y54.927
X139.581Y56.387
X142.2Y114.037
X142.24Y114.617
X144.581Y56.887
X144.621Y57.467
X147.796Y73.977
X149.106Y75.438
X152.559Y93.027
X153.869Y94.487
X154.106Y75.938
X154.146Y76.517
X154.94Y131.127
X156.25Y132.588
X158.869Y94.987
X158.909Y95.567
X159.702Y112.078
X161.012Y113.537
X161.25Y133.088
X161.29Y133.667
X162.084Y54.927
X163.394Y56.387
X166.012Y114.037
X166.052Y114.617
X168.394Y56.887
X168.434Y57.467
T4
X-134.794Y139.475
X-120.794Y139.475
T0
M30
