%TF.GenerationSoftware,KiCad,Pcbnew,(6.0.9)*%
%TF.CreationDate,2022-12-29T20:39:11-06:00*%
%TF.ProjectId,BasePCB,42617365-5043-4422-9e6b-696361645f70,rev?*%
%TF.SameCoordinates,Original*%
%TF.FileFunction,Drillmap*%
%TF.FilePolarity,Positive*%
%FSLAX45Y45*%
G04 Gerber Fmt 4.5, Leading zero omitted, Abs format (unit mm)*
G04 Created by KiCad (PCBNEW (6.0.9)) date 2022-12-29 20:39:11*
%MOMM*%
%LPD*%
G01*
G04 APERTURE LIST*
%ADD10C,0.150000*%
%ADD11C,0.200000*%
%ADD12C,0.175000*%
%ADD13C,0.398780*%
G04 APERTURE END LIST*
D10*
X17303750Y4286250D02*
X-14366875Y4286250D01*
X17541875Y13573125D02*
X17541875Y13890625D01*
X-14605000Y13573125D02*
X-14605000Y13890625D01*
X17303750Y4286255D02*
G75*
G03*
X17541875Y4524375I0J238125D01*
G01*
X17541880Y13890625D02*
G75*
G03*
X17303750Y14128750I-238130J-5D01*
G01*
X-14366875Y14128750D02*
G75*
G03*
X-14605000Y13890625I0J-238125D01*
G01*
X-14605000Y4524375D02*
G75*
G03*
X-14366875Y4286250I238125J0D01*
G01*
X17541875Y13573125D02*
X17541875Y4524375D01*
X-14605000Y13573125D02*
X-14605000Y4524375D01*
X-14366875Y14128750D02*
X17303750Y14128750D01*
D11*
D12*
X-10438000Y12946250D02*
X-10263000Y12771250D01*
X-10263000Y12946250D02*
X-10438000Y12771250D01*
X-10199875Y5326250D02*
X-10024875Y5151250D01*
X-10024875Y5326250D02*
X-10199875Y5151250D01*
X-9961750Y11041250D02*
X-9786750Y10866250D01*
X-9786750Y11041250D02*
X-9961750Y10866250D01*
X-9723625Y9136250D02*
X-9548625Y8961250D01*
X-9548625Y9136250D02*
X-9723625Y8961250D01*
X-9422000Y12946250D02*
X-9247000Y12771250D01*
X-9247000Y12946250D02*
X-9422000Y12771250D01*
X-9247375Y7231250D02*
X-9072375Y7056250D01*
X-9072375Y7231250D02*
X-9247375Y7056250D01*
X-9183875Y5326250D02*
X-9008875Y5151250D01*
X-9008875Y5326250D02*
X-9183875Y5151250D01*
X-8945750Y11041250D02*
X-8770750Y10866250D01*
X-8770750Y11041250D02*
X-8945750Y10866250D01*
X-8707625Y9136250D02*
X-8532625Y8961250D01*
X-8532625Y9136250D02*
X-8707625Y8961250D01*
X-8533000Y12946250D02*
X-8358000Y12771250D01*
X-8358000Y12946250D02*
X-8533000Y12771250D01*
X-8231375Y7231250D02*
X-8056375Y7056250D01*
X-8056375Y7231250D02*
X-8231375Y7056250D01*
X-7834500Y5326250D02*
X-7659500Y5151250D01*
X-7659500Y5326250D02*
X-7834500Y5151250D01*
X-7580500Y11041250D02*
X-7405500Y10866250D01*
X-7405500Y11041250D02*
X-7580500Y10866250D01*
X-7517000Y12946250D02*
X-7342000Y12771250D01*
X-7342000Y12946250D02*
X-7517000Y12771250D01*
X-7104250Y9136250D02*
X-6929250Y8961250D01*
X-6929250Y9136250D02*
X-7104250Y8961250D01*
X-6818500Y5326250D02*
X-6643500Y5151250D01*
X-6643500Y5326250D02*
X-6818500Y5151250D01*
X-6628000Y12946250D02*
X-6453000Y12771250D01*
X-6453000Y12946250D02*
X-6628000Y12771250D01*
X-6564500Y11041250D02*
X-6389500Y10866250D01*
X-6389500Y11041250D02*
X-6564500Y10866250D01*
X-6151750Y7231250D02*
X-5976750Y7056250D01*
X-5976750Y7231250D02*
X-6151750Y7056250D01*
X-6088250Y9136250D02*
X-5913250Y8961250D01*
X-5913250Y9136250D02*
X-6088250Y8961250D01*
X-5675500Y11041250D02*
X-5500500Y10866250D01*
X-5500500Y11041250D02*
X-5675500Y10866250D01*
X-5612000Y12946250D02*
X-5437000Y12771250D01*
X-5437000Y12946250D02*
X-5612000Y12771250D01*
X-5437375Y5326250D02*
X-5262375Y5151250D01*
X-5262375Y5326250D02*
X-5437375Y5151250D01*
X-5199250Y9136250D02*
X-5024250Y8961250D01*
X-5024250Y9136250D02*
X-5199250Y8961250D01*
X-5135750Y7231250D02*
X-4960750Y7056250D01*
X-4960750Y7231250D02*
X-5135750Y7056250D01*
X-4723000Y12946250D02*
X-4548000Y12771250D01*
X-4548000Y12946250D02*
X-4723000Y12771250D01*
X-4659500Y11041250D02*
X-4484500Y10866250D01*
X-4484500Y11041250D02*
X-4659500Y10866250D01*
X-4421375Y5326250D02*
X-4246375Y5151250D01*
X-4246375Y5326250D02*
X-4421375Y5151250D01*
X-4246750Y7231250D02*
X-4071750Y7056250D01*
X-4071750Y7231250D02*
X-4246750Y7056250D01*
X-4183250Y9136250D02*
X-4008250Y8961250D01*
X-4008250Y9136250D02*
X-4183250Y8961250D01*
X-3770500Y11041250D02*
X-3595500Y10866250D01*
X-3595500Y11041250D02*
X-3770500Y10866250D01*
X-3707000Y12946250D02*
X-3532000Y12771250D01*
X-3532000Y12946250D02*
X-3707000Y12771250D01*
X-3294250Y9136250D02*
X-3119250Y8961250D01*
X-3119250Y9136250D02*
X-3294250Y8961250D01*
X-3230750Y7231250D02*
X-3055750Y7056250D01*
X-3055750Y7231250D02*
X-3230750Y7056250D01*
X-2818000Y12946250D02*
X-2643000Y12771250D01*
X-2643000Y12946250D02*
X-2818000Y12771250D01*
X-2754500Y11041250D02*
X-2579500Y10866250D01*
X-2579500Y11041250D02*
X-2754500Y10866250D01*
X-2341750Y7231250D02*
X-2166750Y7056250D01*
X-2166750Y7231250D02*
X-2341750Y7056250D01*
X-2278250Y9136250D02*
X-2103250Y8961250D01*
X-2103250Y9136250D02*
X-2278250Y8961250D01*
X-1865500Y11041250D02*
X-1690500Y10866250D01*
X-1690500Y11041250D02*
X-1865500Y10866250D01*
X-1802000Y12946250D02*
X-1627000Y12771250D01*
X-1627000Y12946250D02*
X-1802000Y12771250D01*
X-1389250Y9136250D02*
X-1214250Y8961250D01*
X-1214250Y9136250D02*
X-1389250Y8961250D01*
X-1325750Y7231250D02*
X-1150750Y7056250D01*
X-1150750Y7231250D02*
X-1325750Y7056250D01*
X-913000Y12946250D02*
X-738000Y12771250D01*
X-738000Y12946250D02*
X-913000Y12771250D01*
X-849500Y11041250D02*
X-674500Y10866250D01*
X-674500Y11041250D02*
X-849500Y10866250D01*
X-436750Y7231250D02*
X-261750Y7056250D01*
X-261750Y7231250D02*
X-436750Y7056250D01*
X-373250Y9136250D02*
X-198250Y8961250D01*
X-198250Y9136250D02*
X-373250Y8961250D01*
X39500Y11041250D02*
X214500Y10866250D01*
X214500Y11041250D02*
X39500Y10866250D01*
X103000Y12946250D02*
X278000Y12771250D01*
X278000Y12946250D02*
X103000Y12771250D01*
X515750Y9136250D02*
X690750Y8961250D01*
X690750Y9136250D02*
X515750Y8961250D01*
X579250Y7231250D02*
X754250Y7056250D01*
X754250Y7231250D02*
X579250Y7056250D01*
X992000Y12946250D02*
X1167000Y12771250D01*
X1167000Y12946250D02*
X992000Y12771250D01*
X1055500Y11041250D02*
X1230500Y10866250D01*
X1230500Y11041250D02*
X1055500Y10866250D01*
X1468250Y7231250D02*
X1643250Y7056250D01*
X1643250Y7231250D02*
X1468250Y7056250D01*
X1531750Y9136250D02*
X1706750Y8961250D01*
X1706750Y9136250D02*
X1531750Y8961250D01*
X1706375Y5326250D02*
X1881375Y5151250D01*
X1881375Y5326250D02*
X1706375Y5151250D01*
X1944500Y11041250D02*
X2119500Y10866250D01*
X2119500Y11041250D02*
X1944500Y10866250D01*
X2008000Y12946250D02*
X2183000Y12771250D01*
X2183000Y12946250D02*
X2008000Y12771250D01*
X2420750Y9136250D02*
X2595750Y8961250D01*
X2595750Y9136250D02*
X2420750Y8961250D01*
X2484250Y7231250D02*
X2659250Y7056250D01*
X2659250Y7231250D02*
X2484250Y7056250D01*
X2722375Y5326250D02*
X2897375Y5151250D01*
X2897375Y5326250D02*
X2722375Y5151250D01*
X2897000Y12946250D02*
X3072000Y12771250D01*
X3072000Y12946250D02*
X2897000Y12771250D01*
X2960500Y11041250D02*
X3135500Y10866250D01*
X3135500Y11041250D02*
X2960500Y10866250D01*
X3373250Y7231250D02*
X3548250Y7056250D01*
X3548250Y7231250D02*
X3373250Y7056250D01*
X3436750Y9136250D02*
X3611750Y8961250D01*
X3611750Y9136250D02*
X3436750Y8961250D01*
X3849500Y11041250D02*
X4024500Y10866250D01*
X4024500Y11041250D02*
X3849500Y10866250D01*
X3913000Y12946250D02*
X4088000Y12771250D01*
X4088000Y12946250D02*
X3913000Y12771250D01*
X4325750Y9136250D02*
X4500750Y8961250D01*
X4500750Y9136250D02*
X4325750Y8961250D01*
X4389250Y7231250D02*
X4564250Y7056250D01*
X4564250Y7231250D02*
X4389250Y7056250D01*
X4802000Y12946250D02*
X4977000Y12771250D01*
X4977000Y12946250D02*
X4802000Y12771250D01*
X4865500Y11041250D02*
X5040500Y10866250D01*
X5040500Y11041250D02*
X4865500Y10866250D01*
X5278250Y7231250D02*
X5453250Y7056250D01*
X5453250Y7231250D02*
X5278250Y7056250D01*
X5341750Y9136250D02*
X5516750Y8961250D01*
X5516750Y9136250D02*
X5341750Y8961250D01*
X5754500Y11041250D02*
X5929500Y10866250D01*
X5929500Y11041250D02*
X5754500Y10866250D01*
X5818000Y12946250D02*
X5993000Y12771250D01*
X5993000Y12946250D02*
X5818000Y12771250D01*
X6230750Y9136250D02*
X6405750Y8961250D01*
X6405750Y9136250D02*
X6230750Y8961250D01*
X6294250Y7231250D02*
X6469250Y7056250D01*
X6469250Y7231250D02*
X6294250Y7056250D01*
X6707000Y12946250D02*
X6882000Y12771250D01*
X6882000Y12946250D02*
X6707000Y12771250D01*
X6770500Y11041250D02*
X6945500Y10866250D01*
X6945500Y11041250D02*
X6770500Y10866250D01*
X7183250Y7231250D02*
X7358250Y7056250D01*
X7358250Y7231250D02*
X7183250Y7056250D01*
X7246750Y9136250D02*
X7421750Y8961250D01*
X7421750Y9136250D02*
X7246750Y8961250D01*
X7659500Y11041250D02*
X7834500Y10866250D01*
X7834500Y11041250D02*
X7659500Y10866250D01*
X7723000Y12946250D02*
X7898000Y12771250D01*
X7898000Y12946250D02*
X7723000Y12771250D01*
X8135750Y9136250D02*
X8310750Y8961250D01*
X8310750Y9136250D02*
X8135750Y8961250D01*
X8199250Y7231250D02*
X8374250Y7056250D01*
X8374250Y7231250D02*
X8199250Y7056250D01*
X8612000Y12946250D02*
X8787000Y12771250D01*
X8787000Y12946250D02*
X8612000Y12771250D01*
X8675500Y11041250D02*
X8850500Y10866250D01*
X8850500Y11041250D02*
X8675500Y10866250D01*
X8850125Y5326250D02*
X9025125Y5151250D01*
X9025125Y5326250D02*
X8850125Y5151250D01*
X9088250Y7231250D02*
X9263250Y7056250D01*
X9263250Y7231250D02*
X9088250Y7056250D01*
X9151750Y9136250D02*
X9326750Y8961250D01*
X9326750Y9136250D02*
X9151750Y8961250D01*
X9564500Y11041250D02*
X9739500Y10866250D01*
X9739500Y11041250D02*
X9564500Y10866250D01*
X9628000Y12946250D02*
X9803000Y12771250D01*
X9803000Y12946250D02*
X9628000Y12771250D01*
X9866125Y5326250D02*
X10041125Y5151250D01*
X10041125Y5326250D02*
X9866125Y5151250D01*
X10040750Y9136250D02*
X10215750Y8961250D01*
X10215750Y9136250D02*
X10040750Y8961250D01*
X10104250Y7231250D02*
X10279250Y7056250D01*
X10279250Y7231250D02*
X10104250Y7056250D01*
X10517000Y12946250D02*
X10692000Y12771250D01*
X10692000Y12946250D02*
X10517000Y12771250D01*
X10580500Y11041250D02*
X10755500Y10866250D01*
X10755500Y11041250D02*
X10580500Y10866250D01*
X10993250Y7231250D02*
X11168250Y7056250D01*
X11168250Y7231250D02*
X10993250Y7056250D01*
X11056750Y9136250D02*
X11231750Y8961250D01*
X11231750Y9136250D02*
X11056750Y8961250D01*
X11310750Y5326250D02*
X11485750Y5151250D01*
X11485750Y5326250D02*
X11310750Y5151250D01*
X11469500Y11041250D02*
X11644500Y10866250D01*
X11644500Y11041250D02*
X11469500Y10866250D01*
X11533000Y12946250D02*
X11708000Y12771250D01*
X11708000Y12946250D02*
X11533000Y12771250D01*
X11945750Y9136250D02*
X12120750Y8961250D01*
X12120750Y9136250D02*
X11945750Y8961250D01*
X12009250Y7231250D02*
X12184250Y7056250D01*
X12184250Y7231250D02*
X12009250Y7056250D01*
X12326750Y5326250D02*
X12501750Y5151250D01*
X12501750Y5326250D02*
X12326750Y5151250D01*
X12422000Y12946250D02*
X12597000Y12771250D01*
X12597000Y12946250D02*
X12422000Y12771250D01*
X12485500Y11041250D02*
X12660500Y10866250D01*
X12660500Y11041250D02*
X12485500Y10866250D01*
X12961750Y9136250D02*
X13136750Y8961250D01*
X13136750Y9136250D02*
X12961750Y8961250D01*
X13374500Y11041250D02*
X13549500Y10866250D01*
X13549500Y11041250D02*
X13374500Y10866250D01*
X13438000Y12946250D02*
X13613000Y12771250D01*
X13613000Y12946250D02*
X13438000Y12771250D01*
X13612625Y5326250D02*
X13787625Y5151250D01*
X13787625Y5326250D02*
X13612625Y5151250D01*
X14390500Y11041250D02*
X14565500Y10866250D01*
X14565500Y11041250D02*
X14390500Y10866250D01*
X14565125Y7231250D02*
X14740125Y7056250D01*
X14740125Y7231250D02*
X14565125Y7056250D01*
X14628625Y5326250D02*
X14803625Y5151250D01*
X14803625Y5326250D02*
X14628625Y5151250D01*
X15041375Y9136250D02*
X15216375Y8961250D01*
X15216375Y9136250D02*
X15041375Y8961250D01*
X15279500Y12946250D02*
X15454500Y12771250D01*
X15454500Y12946250D02*
X15279500Y12771250D01*
X15581125Y7231250D02*
X15756125Y7056250D01*
X15756125Y7231250D02*
X15581125Y7056250D01*
X15755750Y11041250D02*
X15930750Y10866250D01*
X15930750Y11041250D02*
X15755750Y10866250D01*
X15993875Y5326250D02*
X16168875Y5151250D01*
X16168875Y5326250D02*
X15993875Y5151250D01*
X16057375Y9136250D02*
X16232375Y8961250D01*
X16232375Y9136250D02*
X16057375Y8961250D01*
X16295500Y12946250D02*
X16470500Y12771250D01*
X16470500Y12946250D02*
X16295500Y12771250D01*
X16771750Y11041250D02*
X16946750Y10866250D01*
X16946750Y11041250D02*
X16771750Y10866250D01*
X17009875Y5326250D02*
X17184875Y5151250D01*
X17184875Y5326250D02*
X17009875Y5151250D01*
D13*
X-9643110Y12858750D02*
G75*
G03*
X-9643110Y12858750I-199390J0D01*
G01*
X-9404985Y5238750D02*
G75*
G03*
X-9404985Y5238750I-199390J0D01*
G01*
X-9166860Y10953750D02*
G75*
G03*
X-9166860Y10953750I-199390J0D01*
G01*
X-8928735Y9048750D02*
G75*
G03*
X-8928735Y9048750I-199390J0D01*
G01*
X-8452485Y7143750D02*
G75*
G03*
X-8452485Y7143750I-199390J0D01*
G01*
X-7738110Y12858750D02*
G75*
G03*
X-7738110Y12858750I-199390J0D01*
G01*
X-7039610Y5238750D02*
G75*
G03*
X-7039610Y5238750I-199390J0D01*
G01*
X-6785610Y10953750D02*
G75*
G03*
X-6785610Y10953750I-199390J0D01*
G01*
X-6309360Y9048750D02*
G75*
G03*
X-6309360Y9048750I-199390J0D01*
G01*
X-5833110Y12858750D02*
G75*
G03*
X-5833110Y12858750I-199390J0D01*
G01*
X-5356860Y7143750D02*
G75*
G03*
X-5356860Y7143750I-199390J0D01*
G01*
X-4880610Y10953750D02*
G75*
G03*
X-4880610Y10953750I-199390J0D01*
G01*
X-4642485Y5238750D02*
G75*
G03*
X-4642485Y5238750I-199390J0D01*
G01*
X-4404360Y9048750D02*
G75*
G03*
X-4404360Y9048750I-199390J0D01*
G01*
X-3928110Y12858750D02*
G75*
G03*
X-3928110Y12858750I-199390J0D01*
G01*
X-3451860Y7143750D02*
G75*
G03*
X-3451860Y7143750I-199390J0D01*
G01*
X-2975610Y10953750D02*
G75*
G03*
X-2975610Y10953750I-199390J0D01*
G01*
X-2499360Y9048750D02*
G75*
G03*
X-2499360Y9048750I-199390J0D01*
G01*
X-2023110Y12858750D02*
G75*
G03*
X-2023110Y12858750I-199390J0D01*
G01*
X-1546860Y7143750D02*
G75*
G03*
X-1546860Y7143750I-199390J0D01*
G01*
X-1070610Y10953750D02*
G75*
G03*
X-1070610Y10953750I-199390J0D01*
G01*
X-594360Y9048750D02*
G75*
G03*
X-594360Y9048750I-199390J0D01*
G01*
X-118110Y12858750D02*
G75*
G03*
X-118110Y12858750I-199390J0D01*
G01*
X358140Y7143750D02*
G75*
G03*
X358140Y7143750I-199390J0D01*
G01*
X834390Y10953750D02*
G75*
G03*
X834390Y10953750I-199390J0D01*
G01*
X1310640Y9048750D02*
G75*
G03*
X1310640Y9048750I-199390J0D01*
G01*
X1786890Y12858750D02*
G75*
G03*
X1786890Y12858750I-199390J0D01*
G01*
X2263140Y7143750D02*
G75*
G03*
X2263140Y7143750I-199390J0D01*
G01*
X2501265Y5238750D02*
G75*
G03*
X2501265Y5238750I-199390J0D01*
G01*
X2739390Y10953750D02*
G75*
G03*
X2739390Y10953750I-199390J0D01*
G01*
X3215640Y9048750D02*
G75*
G03*
X3215640Y9048750I-199390J0D01*
G01*
X3691890Y12858750D02*
G75*
G03*
X3691890Y12858750I-199390J0D01*
G01*
X4168140Y7143750D02*
G75*
G03*
X4168140Y7143750I-199390J0D01*
G01*
X4644390Y10953750D02*
G75*
G03*
X4644390Y10953750I-199390J0D01*
G01*
X5120640Y9048750D02*
G75*
G03*
X5120640Y9048750I-199390J0D01*
G01*
X5596890Y12858750D02*
G75*
G03*
X5596890Y12858750I-199390J0D01*
G01*
X6073140Y7143750D02*
G75*
G03*
X6073140Y7143750I-199390J0D01*
G01*
X6549390Y10953750D02*
G75*
G03*
X6549390Y10953750I-199390J0D01*
G01*
X7025640Y9048750D02*
G75*
G03*
X7025640Y9048750I-199390J0D01*
G01*
X7501890Y12858750D02*
G75*
G03*
X7501890Y12858750I-199390J0D01*
G01*
X7978140Y7143750D02*
G75*
G03*
X7978140Y7143750I-199390J0D01*
G01*
X8454390Y10953750D02*
G75*
G03*
X8454390Y10953750I-199390J0D01*
G01*
X8930640Y9048750D02*
G75*
G03*
X8930640Y9048750I-199390J0D01*
G01*
X9406890Y12858750D02*
G75*
G03*
X9406890Y12858750I-199390J0D01*
G01*
X9645015Y5238750D02*
G75*
G03*
X9645015Y5238750I-199390J0D01*
G01*
X9883140Y7143750D02*
G75*
G03*
X9883140Y7143750I-199390J0D01*
G01*
X10359390Y10953750D02*
G75*
G03*
X10359390Y10953750I-199390J0D01*
G01*
X10835640Y9048750D02*
G75*
G03*
X10835640Y9048750I-199390J0D01*
G01*
X11311890Y12858750D02*
G75*
G03*
X11311890Y12858750I-199390J0D01*
G01*
X11788140Y7143750D02*
G75*
G03*
X11788140Y7143750I-199390J0D01*
G01*
X12105640Y5238750D02*
G75*
G03*
X12105640Y5238750I-199390J0D01*
G01*
X12264390Y10953750D02*
G75*
G03*
X12264390Y10953750I-199390J0D01*
G01*
X12740640Y9048750D02*
G75*
G03*
X12740640Y9048750I-199390J0D01*
G01*
X13216890Y12858750D02*
G75*
G03*
X13216890Y12858750I-199390J0D01*
G01*
X14169390Y10953750D02*
G75*
G03*
X14169390Y10953750I-199390J0D01*
G01*
X14407515Y5238750D02*
G75*
G03*
X14407515Y5238750I-199390J0D01*
G01*
X15360015Y7143750D02*
G75*
G03*
X15360015Y7143750I-199390J0D01*
G01*
X15836265Y9048750D02*
G75*
G03*
X15836265Y9048750I-199390J0D01*
G01*
X16074390Y12858750D02*
G75*
G03*
X16074390Y12858750I-199390J0D01*
G01*
X16550640Y10953750D02*
G75*
G03*
X16550640Y10953750I-199390J0D01*
G01*
X16788765Y5238750D02*
G75*
G03*
X16788765Y5238750I-199390J0D01*
G01*
D11*
X-14354881Y3968274D02*
X-14354881Y4168274D01*
X-14307262Y4168274D01*
X-14278690Y4158750D01*
X-14259643Y4139702D01*
X-14250119Y4120655D01*
X-14240595Y4082559D01*
X-14240595Y4053988D01*
X-14250119Y4015893D01*
X-14259643Y3996845D01*
X-14278690Y3977798D01*
X-14307262Y3968274D01*
X-14354881Y3968274D01*
X-14154881Y3968274D02*
X-14154881Y4101607D01*
X-14154881Y4063512D02*
X-14145357Y4082559D01*
X-14135833Y4092083D01*
X-14116786Y4101607D01*
X-14097738Y4101607D01*
X-14031071Y3968274D02*
X-14031071Y4101607D01*
X-14031071Y4168274D02*
X-14040595Y4158750D01*
X-14031071Y4149226D01*
X-14021548Y4158750D01*
X-14031071Y4168274D01*
X-14031071Y4149226D01*
X-13907262Y3968274D02*
X-13926309Y3977798D01*
X-13935833Y3996845D01*
X-13935833Y4168274D01*
X-13802500Y3968274D02*
X-13821548Y3977798D01*
X-13831071Y3996845D01*
X-13831071Y4168274D01*
X-13573928Y3968274D02*
X-13573928Y4168274D01*
X-13507262Y4025417D01*
X-13440595Y4168274D01*
X-13440595Y3968274D01*
X-13259643Y3968274D02*
X-13259643Y4073036D01*
X-13269167Y4092083D01*
X-13288214Y4101607D01*
X-13326309Y4101607D01*
X-13345357Y4092083D01*
X-13259643Y3977798D02*
X-13278690Y3968274D01*
X-13326309Y3968274D01*
X-13345357Y3977798D01*
X-13354881Y3996845D01*
X-13354881Y4015893D01*
X-13345357Y4034940D01*
X-13326309Y4044464D01*
X-13278690Y4044464D01*
X-13259643Y4053988D01*
X-13164405Y4101607D02*
X-13164405Y3901607D01*
X-13164405Y4092083D02*
X-13145357Y4101607D01*
X-13107262Y4101607D01*
X-13088214Y4092083D01*
X-13078690Y4082559D01*
X-13069167Y4063512D01*
X-13069167Y4006369D01*
X-13078690Y3987321D01*
X-13088214Y3977798D01*
X-13107262Y3968274D01*
X-13145357Y3968274D01*
X-13164405Y3977798D01*
X-12983452Y3987321D02*
X-12973928Y3977798D01*
X-12983452Y3968274D01*
X-12992976Y3977798D01*
X-12983452Y3987321D01*
X-12983452Y3968274D01*
X-12983452Y4092083D02*
X-12973928Y4082559D01*
X-12983452Y4073036D01*
X-12992976Y4082559D01*
X-12983452Y4092083D01*
X-12983452Y4073036D01*
D12*
X-14787500Y3726250D02*
X-14612500Y3551250D01*
X-14612500Y3726250D02*
X-14787500Y3551250D01*
D11*
X-14250119Y3548274D02*
X-14364405Y3548274D01*
X-14307262Y3548274D02*
X-14307262Y3748274D01*
X-14326309Y3719702D01*
X-14345357Y3700655D01*
X-14364405Y3691131D01*
X-14164405Y3567321D02*
X-14154881Y3557798D01*
X-14164405Y3548274D01*
X-14173928Y3557798D01*
X-14164405Y3567321D01*
X-14164405Y3548274D01*
X-14088214Y3748274D02*
X-13954881Y3748274D01*
X-14040595Y3548274D01*
X-13783452Y3748274D02*
X-13878690Y3748274D01*
X-13888214Y3653036D01*
X-13878690Y3662559D01*
X-13859643Y3672083D01*
X-13812024Y3672083D01*
X-13792976Y3662559D01*
X-13783452Y3653036D01*
X-13773928Y3633988D01*
X-13773928Y3586369D01*
X-13783452Y3567321D01*
X-13792976Y3557798D01*
X-13812024Y3548274D01*
X-13859643Y3548274D01*
X-13878690Y3557798D01*
X-13888214Y3567321D01*
X-13650119Y3748274D02*
X-13631071Y3748274D01*
X-13612024Y3738750D01*
X-13602500Y3729226D01*
X-13592976Y3710178D01*
X-13583452Y3672083D01*
X-13583452Y3624464D01*
X-13592976Y3586369D01*
X-13602500Y3567321D01*
X-13612024Y3557798D01*
X-13631071Y3548274D01*
X-13650119Y3548274D01*
X-13669167Y3557798D01*
X-13678690Y3567321D01*
X-13688214Y3586369D01*
X-13697738Y3624464D01*
X-13697738Y3672083D01*
X-13688214Y3710178D01*
X-13678690Y3729226D01*
X-13669167Y3738750D01*
X-13650119Y3748274D01*
X-13497738Y3548274D02*
X-13497738Y3681607D01*
X-13497738Y3662559D02*
X-13488214Y3672083D01*
X-13469167Y3681607D01*
X-13440595Y3681607D01*
X-13421548Y3672083D01*
X-13412024Y3653036D01*
X-13412024Y3548274D01*
X-13412024Y3653036D02*
X-13402500Y3672083D01*
X-13383452Y3681607D01*
X-13354881Y3681607D01*
X-13335833Y3672083D01*
X-13326309Y3653036D01*
X-13326309Y3548274D01*
X-13231071Y3548274D02*
X-13231071Y3681607D01*
X-13231071Y3662559D02*
X-13221548Y3672083D01*
X-13202500Y3681607D01*
X-13173928Y3681607D01*
X-13154881Y3672083D01*
X-13145357Y3653036D01*
X-13145357Y3548274D01*
X-13145357Y3653036D02*
X-13135833Y3672083D01*
X-13116786Y3681607D01*
X-13088214Y3681607D01*
X-13069167Y3672083D01*
X-13059643Y3653036D01*
X-13059643Y3548274D01*
X-12669167Y3757798D02*
X-12840595Y3500655D01*
X-12412024Y3748274D02*
X-12392976Y3748274D01*
X-12373928Y3738750D01*
X-12364405Y3729226D01*
X-12354881Y3710178D01*
X-12345357Y3672083D01*
X-12345357Y3624464D01*
X-12354881Y3586369D01*
X-12364405Y3567321D01*
X-12373928Y3557798D01*
X-12392976Y3548274D01*
X-12412024Y3548274D01*
X-12431071Y3557798D01*
X-12440595Y3567321D01*
X-12450119Y3586369D01*
X-12459643Y3624464D01*
X-12459643Y3672083D01*
X-12450119Y3710178D01*
X-12440595Y3729226D01*
X-12431071Y3738750D01*
X-12412024Y3748274D01*
X-12259643Y3567321D02*
X-12250119Y3557798D01*
X-12259643Y3548274D01*
X-12269167Y3557798D01*
X-12259643Y3567321D01*
X-12259643Y3548274D01*
X-12126309Y3748274D02*
X-12107262Y3748274D01*
X-12088214Y3738750D01*
X-12078690Y3729226D01*
X-12069167Y3710178D01*
X-12059643Y3672083D01*
X-12059643Y3624464D01*
X-12069167Y3586369D01*
X-12078690Y3567321D01*
X-12088214Y3557798D01*
X-12107262Y3548274D01*
X-12126309Y3548274D01*
X-12145357Y3557798D01*
X-12154881Y3567321D01*
X-12164405Y3586369D01*
X-12173928Y3624464D01*
X-12173928Y3672083D01*
X-12164405Y3710178D01*
X-12154881Y3729226D01*
X-12145357Y3738750D01*
X-12126309Y3748274D01*
X-11888214Y3748274D02*
X-11926309Y3748274D01*
X-11945357Y3738750D01*
X-11954881Y3729226D01*
X-11973928Y3700655D01*
X-11983452Y3662559D01*
X-11983452Y3586369D01*
X-11973928Y3567321D01*
X-11964405Y3557798D01*
X-11945357Y3548274D01*
X-11907262Y3548274D01*
X-11888214Y3557798D01*
X-11878690Y3567321D01*
X-11869167Y3586369D01*
X-11869167Y3633988D01*
X-11878690Y3653036D01*
X-11888214Y3662559D01*
X-11907262Y3672083D01*
X-11945357Y3672083D01*
X-11964405Y3662559D01*
X-11973928Y3653036D01*
X-11983452Y3633988D01*
X-11754881Y3662559D02*
X-11773928Y3672083D01*
X-11783452Y3681607D01*
X-11792976Y3700655D01*
X-11792976Y3710178D01*
X-11783452Y3729226D01*
X-11773928Y3738750D01*
X-11754881Y3748274D01*
X-11716786Y3748274D01*
X-11697738Y3738750D01*
X-11688214Y3729226D01*
X-11678690Y3710178D01*
X-11678690Y3700655D01*
X-11688214Y3681607D01*
X-11697738Y3672083D01*
X-11716786Y3662559D01*
X-11754881Y3662559D01*
X-11773928Y3653036D01*
X-11783452Y3643512D01*
X-11792976Y3624464D01*
X-11792976Y3586369D01*
X-11783452Y3567321D01*
X-11773928Y3557798D01*
X-11754881Y3548274D01*
X-11716786Y3548274D01*
X-11697738Y3557798D01*
X-11688214Y3567321D01*
X-11678690Y3586369D01*
X-11678690Y3624464D01*
X-11688214Y3643512D01*
X-11697738Y3653036D01*
X-11716786Y3662559D01*
X-11583452Y3548274D02*
X-11545357Y3548274D01*
X-11526309Y3557798D01*
X-11516786Y3567321D01*
X-11497738Y3595893D01*
X-11488214Y3633988D01*
X-11488214Y3710178D01*
X-11497738Y3729226D01*
X-11507262Y3738750D01*
X-11526309Y3748274D01*
X-11564405Y3748274D01*
X-11583452Y3738750D01*
X-11592976Y3729226D01*
X-11602500Y3710178D01*
X-11602500Y3662559D01*
X-11592976Y3643512D01*
X-11583452Y3633988D01*
X-11564405Y3624464D01*
X-11526309Y3624464D01*
X-11507262Y3633988D01*
X-11497738Y3643512D01*
X-11488214Y3662559D01*
X-11412024Y3748274D02*
X-11412024Y3710178D01*
X-11335833Y3748274D02*
X-11335833Y3710178D01*
X-11040595Y3472083D02*
X-11050119Y3481607D01*
X-11069167Y3510178D01*
X-11078690Y3529226D01*
X-11088214Y3557798D01*
X-11097738Y3605417D01*
X-11097738Y3643512D01*
X-11088214Y3691131D01*
X-11078690Y3719702D01*
X-11069167Y3738750D01*
X-11050119Y3767321D01*
X-11040595Y3776845D01*
X-10859643Y3548274D02*
X-10973929Y3548274D01*
X-10916786Y3548274D02*
X-10916786Y3748274D01*
X-10935833Y3719702D01*
X-10954881Y3700655D01*
X-10973929Y3691131D01*
X-10783452Y3729226D02*
X-10773929Y3738750D01*
X-10754881Y3748274D01*
X-10707262Y3748274D01*
X-10688214Y3738750D01*
X-10678690Y3729226D01*
X-10669167Y3710178D01*
X-10669167Y3691131D01*
X-10678690Y3662559D01*
X-10792976Y3548274D01*
X-10669167Y3548274D01*
X-10592976Y3729226D02*
X-10583452Y3738750D01*
X-10564405Y3748274D01*
X-10516786Y3748274D01*
X-10497738Y3738750D01*
X-10488214Y3729226D01*
X-10478690Y3710178D01*
X-10478690Y3691131D01*
X-10488214Y3662559D01*
X-10602500Y3548274D01*
X-10478690Y3548274D01*
X-10240595Y3548274D02*
X-10240595Y3748274D01*
X-10154881Y3548274D02*
X-10154881Y3653036D01*
X-10164405Y3672083D01*
X-10183452Y3681607D01*
X-10212024Y3681607D01*
X-10231071Y3672083D01*
X-10240595Y3662559D01*
X-10031071Y3548274D02*
X-10050119Y3557798D01*
X-10059643Y3567321D01*
X-10069167Y3586369D01*
X-10069167Y3643512D01*
X-10059643Y3662559D01*
X-10050119Y3672083D01*
X-10031071Y3681607D01*
X-10002500Y3681607D01*
X-9983452Y3672083D01*
X-9973929Y3662559D01*
X-9964405Y3643512D01*
X-9964405Y3586369D01*
X-9973929Y3567321D01*
X-9983452Y3557798D01*
X-10002500Y3548274D01*
X-10031071Y3548274D01*
X-9850119Y3548274D02*
X-9869167Y3557798D01*
X-9878690Y3576845D01*
X-9878690Y3748274D01*
X-9697738Y3557798D02*
X-9716786Y3548274D01*
X-9754881Y3548274D01*
X-9773929Y3557798D01*
X-9783452Y3576845D01*
X-9783452Y3653036D01*
X-9773929Y3672083D01*
X-9754881Y3681607D01*
X-9716786Y3681607D01*
X-9697738Y3672083D01*
X-9688214Y3653036D01*
X-9688214Y3633988D01*
X-9783452Y3614940D01*
X-9612024Y3557798D02*
X-9592976Y3548274D01*
X-9554881Y3548274D01*
X-9535833Y3557798D01*
X-9526310Y3576845D01*
X-9526310Y3586369D01*
X-9535833Y3605417D01*
X-9554881Y3614940D01*
X-9583452Y3614940D01*
X-9602500Y3624464D01*
X-9612024Y3643512D01*
X-9612024Y3653036D01*
X-9602500Y3672083D01*
X-9583452Y3681607D01*
X-9554881Y3681607D01*
X-9535833Y3672083D01*
X-9459643Y3472083D02*
X-9450119Y3481607D01*
X-9431071Y3510178D01*
X-9421548Y3529226D01*
X-9412024Y3557798D01*
X-9402500Y3605417D01*
X-9402500Y3643512D01*
X-9412024Y3691131D01*
X-9421548Y3719702D01*
X-9431071Y3738750D01*
X-9450119Y3767321D01*
X-9459643Y3776845D01*
X-9097738Y3472083D02*
X-9107262Y3481607D01*
X-9126310Y3510178D01*
X-9135833Y3529226D01*
X-9145357Y3557798D01*
X-9154881Y3605417D01*
X-9154881Y3643512D01*
X-9145357Y3691131D01*
X-9135833Y3719702D01*
X-9126310Y3738750D01*
X-9107262Y3767321D01*
X-9097738Y3776845D01*
X-9021548Y3681607D02*
X-9021548Y3548274D01*
X-9021548Y3662559D02*
X-9012024Y3672083D01*
X-8992976Y3681607D01*
X-8964405Y3681607D01*
X-8945357Y3672083D01*
X-8935833Y3653036D01*
X-8935833Y3548274D01*
X-8812024Y3548274D02*
X-8831071Y3557798D01*
X-8840595Y3567321D01*
X-8850119Y3586369D01*
X-8850119Y3643512D01*
X-8840595Y3662559D01*
X-8831071Y3672083D01*
X-8812024Y3681607D01*
X-8783452Y3681607D01*
X-8764405Y3672083D01*
X-8754881Y3662559D01*
X-8745357Y3643512D01*
X-8745357Y3586369D01*
X-8754881Y3567321D01*
X-8764405Y3557798D01*
X-8783452Y3548274D01*
X-8812024Y3548274D01*
X-8688214Y3681607D02*
X-8612024Y3681607D01*
X-8659643Y3748274D02*
X-8659643Y3576845D01*
X-8650119Y3557798D01*
X-8631071Y3548274D01*
X-8612024Y3548274D01*
X-8392976Y3681607D02*
X-8392976Y3481607D01*
X-8392976Y3672083D02*
X-8373928Y3681607D01*
X-8335833Y3681607D01*
X-8316786Y3672083D01*
X-8307262Y3662559D01*
X-8297738Y3643512D01*
X-8297738Y3586369D01*
X-8307262Y3567321D01*
X-8316786Y3557798D01*
X-8335833Y3548274D01*
X-8373928Y3548274D01*
X-8392976Y3557798D01*
X-8183452Y3548274D02*
X-8202500Y3557798D01*
X-8212024Y3576845D01*
X-8212024Y3748274D01*
X-8021548Y3548274D02*
X-8021548Y3653036D01*
X-8031071Y3672083D01*
X-8050119Y3681607D01*
X-8088214Y3681607D01*
X-8107262Y3672083D01*
X-8021548Y3557798D02*
X-8040595Y3548274D01*
X-8088214Y3548274D01*
X-8107262Y3557798D01*
X-8116786Y3576845D01*
X-8116786Y3595893D01*
X-8107262Y3614940D01*
X-8088214Y3624464D01*
X-8040595Y3624464D01*
X-8021548Y3633988D01*
X-7954881Y3681607D02*
X-7878690Y3681607D01*
X-7926309Y3748274D02*
X-7926309Y3576845D01*
X-7916786Y3557798D01*
X-7897738Y3548274D01*
X-7878690Y3548274D01*
X-7735833Y3557798D02*
X-7754881Y3548274D01*
X-7792976Y3548274D01*
X-7812024Y3557798D01*
X-7821548Y3576845D01*
X-7821548Y3653036D01*
X-7812024Y3672083D01*
X-7792976Y3681607D01*
X-7754881Y3681607D01*
X-7735833Y3672083D01*
X-7726309Y3653036D01*
X-7726309Y3633988D01*
X-7821548Y3614940D01*
X-7554881Y3548274D02*
X-7554881Y3748274D01*
X-7554881Y3557798D02*
X-7573928Y3548274D01*
X-7612024Y3548274D01*
X-7631071Y3557798D01*
X-7640595Y3567321D01*
X-7650119Y3586369D01*
X-7650119Y3643512D01*
X-7640595Y3662559D01*
X-7631071Y3672083D01*
X-7612024Y3681607D01*
X-7573928Y3681607D01*
X-7554881Y3672083D01*
X-7478690Y3472083D02*
X-7469167Y3481607D01*
X-7450119Y3510178D01*
X-7440595Y3529226D01*
X-7431071Y3557798D01*
X-7421548Y3605417D01*
X-7421548Y3643512D01*
X-7431071Y3691131D01*
X-7440595Y3719702D01*
X-7450119Y3738750D01*
X-7469167Y3767321D01*
X-7478690Y3776845D01*
X-14612500Y3343750D02*
G75*
G03*
X-14612500Y3343750I-100000J0D01*
G01*
X-14373928Y3453274D02*
X-14250119Y3453274D01*
X-14316786Y3377083D01*
X-14288214Y3377083D01*
X-14269167Y3367559D01*
X-14259643Y3358036D01*
X-14250119Y3338988D01*
X-14250119Y3291369D01*
X-14259643Y3272321D01*
X-14269167Y3262798D01*
X-14288214Y3253274D01*
X-14345357Y3253274D01*
X-14364405Y3262798D01*
X-14373928Y3272321D01*
X-14164405Y3272321D02*
X-14154881Y3262798D01*
X-14164405Y3253274D01*
X-14173928Y3262798D01*
X-14164405Y3272321D01*
X-14164405Y3253274D01*
X-14059643Y3253274D02*
X-14021548Y3253274D01*
X-14002500Y3262798D01*
X-13992976Y3272321D01*
X-13973928Y3300893D01*
X-13964405Y3338988D01*
X-13964405Y3415178D01*
X-13973928Y3434226D01*
X-13983452Y3443750D01*
X-14002500Y3453274D01*
X-14040595Y3453274D01*
X-14059643Y3443750D01*
X-14069167Y3434226D01*
X-14078690Y3415178D01*
X-14078690Y3367559D01*
X-14069167Y3348512D01*
X-14059643Y3338988D01*
X-14040595Y3329464D01*
X-14002500Y3329464D01*
X-13983452Y3338988D01*
X-13973928Y3348512D01*
X-13964405Y3367559D01*
X-13850119Y3367559D02*
X-13869167Y3377083D01*
X-13878690Y3386607D01*
X-13888214Y3405655D01*
X-13888214Y3415178D01*
X-13878690Y3434226D01*
X-13869167Y3443750D01*
X-13850119Y3453274D01*
X-13812024Y3453274D01*
X-13792976Y3443750D01*
X-13783452Y3434226D01*
X-13773928Y3415178D01*
X-13773928Y3405655D01*
X-13783452Y3386607D01*
X-13792976Y3377083D01*
X-13812024Y3367559D01*
X-13850119Y3367559D01*
X-13869167Y3358036D01*
X-13878690Y3348512D01*
X-13888214Y3329464D01*
X-13888214Y3291369D01*
X-13878690Y3272321D01*
X-13869167Y3262798D01*
X-13850119Y3253274D01*
X-13812024Y3253274D01*
X-13792976Y3262798D01*
X-13783452Y3272321D01*
X-13773928Y3291369D01*
X-13773928Y3329464D01*
X-13783452Y3348512D01*
X-13792976Y3358036D01*
X-13812024Y3367559D01*
X-13659643Y3367559D02*
X-13678690Y3377083D01*
X-13688214Y3386607D01*
X-13697738Y3405655D01*
X-13697738Y3415178D01*
X-13688214Y3434226D01*
X-13678690Y3443750D01*
X-13659643Y3453274D01*
X-13621548Y3453274D01*
X-13602500Y3443750D01*
X-13592976Y3434226D01*
X-13583452Y3415178D01*
X-13583452Y3405655D01*
X-13592976Y3386607D01*
X-13602500Y3377083D01*
X-13621548Y3367559D01*
X-13659643Y3367559D01*
X-13678690Y3358036D01*
X-13688214Y3348512D01*
X-13697738Y3329464D01*
X-13697738Y3291369D01*
X-13688214Y3272321D01*
X-13678690Y3262798D01*
X-13659643Y3253274D01*
X-13621548Y3253274D01*
X-13602500Y3262798D01*
X-13592976Y3272321D01*
X-13583452Y3291369D01*
X-13583452Y3329464D01*
X-13592976Y3348512D01*
X-13602500Y3358036D01*
X-13621548Y3367559D01*
X-13497738Y3253274D02*
X-13497738Y3386607D01*
X-13497738Y3367559D02*
X-13488214Y3377083D01*
X-13469167Y3386607D01*
X-13440595Y3386607D01*
X-13421548Y3377083D01*
X-13412024Y3358036D01*
X-13412024Y3253274D01*
X-13412024Y3358036D02*
X-13402500Y3377083D01*
X-13383452Y3386607D01*
X-13354881Y3386607D01*
X-13335833Y3377083D01*
X-13326309Y3358036D01*
X-13326309Y3253274D01*
X-13231071Y3253274D02*
X-13231071Y3386607D01*
X-13231071Y3367559D02*
X-13221548Y3377083D01*
X-13202500Y3386607D01*
X-13173928Y3386607D01*
X-13154881Y3377083D01*
X-13145357Y3358036D01*
X-13145357Y3253274D01*
X-13145357Y3358036D02*
X-13135833Y3377083D01*
X-13116786Y3386607D01*
X-13088214Y3386607D01*
X-13069167Y3377083D01*
X-13059643Y3358036D01*
X-13059643Y3253274D01*
X-12669167Y3462798D02*
X-12840595Y3205655D01*
X-12412024Y3453274D02*
X-12392976Y3453274D01*
X-12373928Y3443750D01*
X-12364405Y3434226D01*
X-12354881Y3415178D01*
X-12345357Y3377083D01*
X-12345357Y3329464D01*
X-12354881Y3291369D01*
X-12364405Y3272321D01*
X-12373928Y3262798D01*
X-12392976Y3253274D01*
X-12412024Y3253274D01*
X-12431071Y3262798D01*
X-12440595Y3272321D01*
X-12450119Y3291369D01*
X-12459643Y3329464D01*
X-12459643Y3377083D01*
X-12450119Y3415178D01*
X-12440595Y3434226D01*
X-12431071Y3443750D01*
X-12412024Y3453274D01*
X-12259643Y3272321D02*
X-12250119Y3262798D01*
X-12259643Y3253274D01*
X-12269167Y3262798D01*
X-12259643Y3272321D01*
X-12259643Y3253274D01*
X-12059643Y3253274D02*
X-12173928Y3253274D01*
X-12116786Y3253274D02*
X-12116786Y3453274D01*
X-12135833Y3424702D01*
X-12154881Y3405655D01*
X-12173928Y3396131D01*
X-11878690Y3453274D02*
X-11973928Y3453274D01*
X-11983452Y3358036D01*
X-11973928Y3367559D01*
X-11954881Y3377083D01*
X-11907262Y3377083D01*
X-11888214Y3367559D01*
X-11878690Y3358036D01*
X-11869167Y3338988D01*
X-11869167Y3291369D01*
X-11878690Y3272321D01*
X-11888214Y3262798D01*
X-11907262Y3253274D01*
X-11954881Y3253274D01*
X-11973928Y3262798D01*
X-11983452Y3272321D01*
X-11802500Y3453274D02*
X-11669167Y3453274D01*
X-11754881Y3253274D01*
X-11554881Y3453274D02*
X-11535833Y3453274D01*
X-11516786Y3443750D01*
X-11507262Y3434226D01*
X-11497738Y3415178D01*
X-11488214Y3377083D01*
X-11488214Y3329464D01*
X-11497738Y3291369D01*
X-11507262Y3272321D01*
X-11516786Y3262798D01*
X-11535833Y3253274D01*
X-11554881Y3253274D01*
X-11573928Y3262798D01*
X-11583452Y3272321D01*
X-11592976Y3291369D01*
X-11602500Y3329464D01*
X-11602500Y3377083D01*
X-11592976Y3415178D01*
X-11583452Y3434226D01*
X-11573928Y3443750D01*
X-11554881Y3453274D01*
X-11412024Y3453274D02*
X-11412024Y3415178D01*
X-11335833Y3453274D02*
X-11335833Y3415178D01*
X-11040595Y3177083D02*
X-11050119Y3186607D01*
X-11069167Y3215178D01*
X-11078690Y3234226D01*
X-11088214Y3262798D01*
X-11097738Y3310417D01*
X-11097738Y3348512D01*
X-11088214Y3396131D01*
X-11078690Y3424702D01*
X-11069167Y3443750D01*
X-11050119Y3472321D01*
X-11040595Y3481845D01*
X-10878690Y3453274D02*
X-10916786Y3453274D01*
X-10935833Y3443750D01*
X-10945357Y3434226D01*
X-10964405Y3405655D01*
X-10973929Y3367559D01*
X-10973929Y3291369D01*
X-10964405Y3272321D01*
X-10954881Y3262798D01*
X-10935833Y3253274D01*
X-10897738Y3253274D01*
X-10878690Y3262798D01*
X-10869167Y3272321D01*
X-10859643Y3291369D01*
X-10859643Y3338988D01*
X-10869167Y3358036D01*
X-10878690Y3367559D01*
X-10897738Y3377083D01*
X-10935833Y3377083D01*
X-10954881Y3367559D01*
X-10964405Y3358036D01*
X-10973929Y3338988D01*
X-10669167Y3253274D02*
X-10783452Y3253274D01*
X-10726310Y3253274D02*
X-10726310Y3453274D01*
X-10745357Y3424702D01*
X-10764405Y3405655D01*
X-10783452Y3396131D01*
X-10431071Y3253274D02*
X-10431071Y3453274D01*
X-10345357Y3253274D02*
X-10345357Y3358036D01*
X-10354881Y3377083D01*
X-10373929Y3386607D01*
X-10402500Y3386607D01*
X-10421548Y3377083D01*
X-10431071Y3367559D01*
X-10221548Y3253274D02*
X-10240595Y3262798D01*
X-10250119Y3272321D01*
X-10259643Y3291369D01*
X-10259643Y3348512D01*
X-10250119Y3367559D01*
X-10240595Y3377083D01*
X-10221548Y3386607D01*
X-10192976Y3386607D01*
X-10173929Y3377083D01*
X-10164405Y3367559D01*
X-10154881Y3348512D01*
X-10154881Y3291369D01*
X-10164405Y3272321D01*
X-10173929Y3262798D01*
X-10192976Y3253274D01*
X-10221548Y3253274D01*
X-10040595Y3253274D02*
X-10059643Y3262798D01*
X-10069167Y3281845D01*
X-10069167Y3453274D01*
X-9888214Y3262798D02*
X-9907262Y3253274D01*
X-9945357Y3253274D01*
X-9964405Y3262798D01*
X-9973929Y3281845D01*
X-9973929Y3358036D01*
X-9964405Y3377083D01*
X-9945357Y3386607D01*
X-9907262Y3386607D01*
X-9888214Y3377083D01*
X-9878690Y3358036D01*
X-9878690Y3338988D01*
X-9973929Y3319940D01*
X-9802500Y3262798D02*
X-9783452Y3253274D01*
X-9745357Y3253274D01*
X-9726310Y3262798D01*
X-9716786Y3281845D01*
X-9716786Y3291369D01*
X-9726310Y3310417D01*
X-9745357Y3319940D01*
X-9773929Y3319940D01*
X-9792976Y3329464D01*
X-9802500Y3348512D01*
X-9802500Y3358036D01*
X-9792976Y3377083D01*
X-9773929Y3386607D01*
X-9745357Y3386607D01*
X-9726310Y3377083D01*
X-9650119Y3177083D02*
X-9640595Y3186607D01*
X-9621548Y3215178D01*
X-9612024Y3234226D01*
X-9602500Y3262798D01*
X-9592976Y3310417D01*
X-9592976Y3348512D01*
X-9602500Y3396131D01*
X-9612024Y3424702D01*
X-9621548Y3443750D01*
X-9640595Y3472321D01*
X-9650119Y3481845D01*
X-9288214Y3177083D02*
X-9297738Y3186607D01*
X-9316786Y3215178D01*
X-9326310Y3234226D01*
X-9335833Y3262798D01*
X-9345357Y3310417D01*
X-9345357Y3348512D01*
X-9335833Y3396131D01*
X-9326310Y3424702D01*
X-9316786Y3443750D01*
X-9297738Y3472321D01*
X-9288214Y3481845D01*
X-9212024Y3386607D02*
X-9212024Y3253274D01*
X-9212024Y3367559D02*
X-9202500Y3377083D01*
X-9183452Y3386607D01*
X-9154881Y3386607D01*
X-9135833Y3377083D01*
X-9126310Y3358036D01*
X-9126310Y3253274D01*
X-9002500Y3253274D02*
X-9021548Y3262798D01*
X-9031071Y3272321D01*
X-9040595Y3291369D01*
X-9040595Y3348512D01*
X-9031071Y3367559D01*
X-9021548Y3377083D01*
X-9002500Y3386607D01*
X-8973929Y3386607D01*
X-8954881Y3377083D01*
X-8945357Y3367559D01*
X-8935833Y3348512D01*
X-8935833Y3291369D01*
X-8945357Y3272321D01*
X-8954881Y3262798D01*
X-8973929Y3253274D01*
X-9002500Y3253274D01*
X-8878690Y3386607D02*
X-8802500Y3386607D01*
X-8850119Y3453274D02*
X-8850119Y3281845D01*
X-8840595Y3262798D01*
X-8821548Y3253274D01*
X-8802500Y3253274D01*
X-8583452Y3386607D02*
X-8583452Y3186607D01*
X-8583452Y3377083D02*
X-8564405Y3386607D01*
X-8526310Y3386607D01*
X-8507262Y3377083D01*
X-8497738Y3367559D01*
X-8488214Y3348512D01*
X-8488214Y3291369D01*
X-8497738Y3272321D01*
X-8507262Y3262798D01*
X-8526310Y3253274D01*
X-8564405Y3253274D01*
X-8583452Y3262798D01*
X-8373928Y3253274D02*
X-8392976Y3262798D01*
X-8402500Y3281845D01*
X-8402500Y3453274D01*
X-8212024Y3253274D02*
X-8212024Y3358036D01*
X-8221548Y3377083D01*
X-8240595Y3386607D01*
X-8278690Y3386607D01*
X-8297738Y3377083D01*
X-8212024Y3262798D02*
X-8231071Y3253274D01*
X-8278690Y3253274D01*
X-8297738Y3262798D01*
X-8307262Y3281845D01*
X-8307262Y3300893D01*
X-8297738Y3319940D01*
X-8278690Y3329464D01*
X-8231071Y3329464D01*
X-8212024Y3338988D01*
X-8145357Y3386607D02*
X-8069167Y3386607D01*
X-8116786Y3453274D02*
X-8116786Y3281845D01*
X-8107262Y3262798D01*
X-8088214Y3253274D01*
X-8069167Y3253274D01*
X-7926309Y3262798D02*
X-7945357Y3253274D01*
X-7983452Y3253274D01*
X-8002500Y3262798D01*
X-8012024Y3281845D01*
X-8012024Y3358036D01*
X-8002500Y3377083D01*
X-7983452Y3386607D01*
X-7945357Y3386607D01*
X-7926309Y3377083D01*
X-7916786Y3358036D01*
X-7916786Y3338988D01*
X-8012024Y3319940D01*
X-7745357Y3253274D02*
X-7745357Y3453274D01*
X-7745357Y3262798D02*
X-7764405Y3253274D01*
X-7802500Y3253274D01*
X-7821548Y3262798D01*
X-7831071Y3272321D01*
X-7840595Y3291369D01*
X-7840595Y3348512D01*
X-7831071Y3367559D01*
X-7821548Y3377083D01*
X-7802500Y3386607D01*
X-7764405Y3386607D01*
X-7745357Y3377083D01*
X-7669167Y3177083D02*
X-7659643Y3186607D01*
X-7640595Y3215178D01*
X-7631071Y3234226D01*
X-7621548Y3262798D01*
X-7612024Y3310417D01*
X-7612024Y3348512D01*
X-7621548Y3396131D01*
X-7631071Y3424702D01*
X-7640595Y3443750D01*
X-7659643Y3472321D01*
X-7669167Y3481845D01*
M02*
