M48
; DRILL file {KiCad (6.0.9)} date Sun Apr  2 22:47:37 2023
; FORMAT={-:-/ absolute / metric / decimal}
; #@! TF.CreationDate,2023-04-02T22:47:37-05:00
; #@! TF.GenerationSoftware,Kicad,Pcbnew,(6.0.9)
; #@! TF.FileFunction,Plated,1,2,PTH
FMAT,2
METRIC
; #@! TA.AperFunction,Plated,PTH,ViaDrill
T1C0.400
; #@! TA.AperFunction,Plated,PTH,ComponentDrill
T2C1.000
; #@! TA.AperFunction,Plated,PTH,ComponentDrill
T3C1.470
%
G90
G05
T1
X46.736Y-62.738
X49.022Y-62.738
X65.024Y-63.5
X65.786Y-62.738
X67.818Y-62.738
X68.707Y-63.5
X84.201Y-63.5
X84.963Y-62.738
X85.159Y-64.224
X86.614Y-62.738
X86.669Y-64.224
X87.376Y-63.5
X102.997Y-65.024
X103.124Y-63.5
X103.886Y-62.738
X104.14Y-64.245
X105.791Y-64.262
X105.918Y-62.738
X106.68Y-63.52
X106.807Y-65.024
X122.047Y-63.52
X122.047Y-65.024
X122.994Y-62.796
X123.063Y-64.262
X123.063Y-65.786
X124.714Y-65.786
X124.968Y-64.245
X125.164Y-62.796
X125.857Y-65.024
X125.984Y-63.52
X137.95Y-62.0
X137.95Y-67.272
X142.3Y-69.65
X143.034Y-61.69
X144.35Y-70.65
X144.844Y-68.786
X145.034Y-66.548
X145.161Y-63.52
X145.161Y-65.024
X146.088Y-65.786
X146.139Y-62.796
X146.177Y-64.245
X146.209Y-68.05
X147.658Y-67.3
X148.068Y-65.786
X148.431Y-62.796
X148.971Y-66.548
X149.098Y-65.024
X149.225Y-63.52
X150.495Y-64.245
X156.6Y-68.05
X156.65Y-69.65
X157.536Y-68.786
X157.65Y-70.6
X198.35Y-69.65
X199.05Y-68.8
X201.2Y-68.8
X201.95Y-69.65
X237.3Y-69.65
X239.25Y-69.65
T2
X135.409Y-72.138
X135.409Y-74.677
X137.949Y-72.138
X137.949Y-74.677
X140.489Y-72.138
X140.489Y-74.677
X143.029Y-72.138
X143.029Y-74.677
X145.569Y-72.138
X145.569Y-74.677
X148.109Y-72.138
X148.109Y-74.677
X150.649Y-72.138
X150.649Y-74.677
X153.189Y-72.138
X153.189Y-74.677
X155.729Y-72.138
X155.729Y-74.677
X158.269Y-72.138
X158.269Y-74.677
T3
X28.734Y-56.991
X30.044Y-55.531
X35.044Y-55.031
X35.084Y-54.451
X47.784Y-56.991
X49.094Y-55.531
X54.094Y-55.031
X54.134Y-54.451
X66.834Y-56.991
X68.144Y-55.531
X73.144Y-55.031
X73.184Y-54.451
X85.884Y-56.991
X87.194Y-55.531
X92.194Y-55.031
X92.234Y-54.451
X104.934Y-56.991
X106.244Y-55.531
X111.244Y-55.031
X111.284Y-54.451
X123.984Y-56.991
X125.294Y-55.531
X130.294Y-55.031
X130.334Y-54.451
X143.034Y-56.991
X144.344Y-55.531
X149.344Y-55.031
X149.384Y-54.451
X162.084Y-56.991
X163.394Y-55.531
X168.394Y-55.031
X168.434Y-54.451
X181.134Y-56.991
X182.444Y-55.531
X187.444Y-55.031
X187.484Y-54.451
X200.184Y-56.991
X201.494Y-55.531
X206.494Y-55.031
X206.534Y-54.451
X219.234Y-56.991
X220.544Y-55.531
X225.544Y-55.031
X225.584Y-54.451
X238.284Y-56.991
X239.594Y-55.531
X244.594Y-55.031
X244.634Y-54.451
X257.334Y-56.991
X258.644Y-55.531
X263.644Y-55.031
X263.684Y-54.451
T0
M30
