G04 #@! TF.GenerationSoftware,KiCad,Pcbnew,(6.0.9)*
G04 #@! TF.CreationDate,2023-03-10T16:41:12-06:00*
G04 #@! TF.ProjectId,Function Keys PCB,46756e63-7469-46f6-9e20-4b6579732050,rev?*
G04 #@! TF.SameCoordinates,Original*
G04 #@! TF.FileFunction,Copper,L1,Top*
G04 #@! TF.FilePolarity,Positive*
%FSLAX46Y46*%
G04 Gerber Fmt 4.6, Leading zero omitted, Abs format (unit mm)*
G04 Created by KiCad (PCBNEW (6.0.9)) date 2023-03-10 16:41:12*
%MOMM*%
%LPD*%
G01*
G04 APERTURE LIST*
G04 Aperture macros list*
%AMHorizOval*
0 Thick line with rounded ends*
0 $1 width*
0 $2 $3 position (X,Y) of the first rounded end (center of the circle)*
0 $4 $5 position (X,Y) of the second rounded end (center of the circle)*
0 Add line between two ends*
20,1,$1,$2,$3,$4,$5,0*
0 Add two circle primitives to create the rounded ends*
1,1,$1,$2,$3*
1,1,$1,$4,$5*%
G04 Aperture macros list end*
G04 #@! TA.AperFunction,ComponentPad*
%ADD10HorizOval,2.250000X0.655001X0.730000X-0.655001X-0.730000X0*%
G04 #@! TD*
G04 #@! TA.AperFunction,ComponentPad*
%ADD11C,2.250000*%
G04 #@! TD*
G04 #@! TA.AperFunction,ComponentPad*
%ADD12HorizOval,2.250000X0.020000X0.290000X-0.020000X-0.290000X0*%
G04 #@! TD*
G04 #@! TA.AperFunction,SMDPad,CuDef*
%ADD13R,1.200000X0.900000*%
G04 #@! TD*
G04 #@! TA.AperFunction,ComponentPad*
%ADD14R,1.700000X1.700000*%
G04 #@! TD*
G04 #@! TA.AperFunction,ComponentPad*
%ADD15O,1.700000X1.700000*%
G04 #@! TD*
G04 #@! TA.AperFunction,ViaPad*
%ADD16C,0.800000*%
G04 #@! TD*
G04 #@! TA.AperFunction,Conductor*
%ADD17C,0.250000*%
G04 #@! TD*
G04 APERTURE END LIST*
D10*
X257988751Y-56261250D03*
D11*
X258643750Y-55531250D03*
D12*
X263663750Y-54741250D03*
D11*
X263683750Y-54451250D03*
D10*
X124638751Y-56261250D03*
D11*
X125293750Y-55531250D03*
D12*
X130313750Y-54741250D03*
D11*
X130333750Y-54451250D03*
D13*
X116681250Y-61181250D03*
X116681250Y-57881250D03*
D14*
X158268750Y-72137500D03*
D15*
X158268750Y-74677500D03*
X155728750Y-72137500D03*
X155728750Y-74677500D03*
X153188750Y-72137500D03*
X153188750Y-74677500D03*
X150648750Y-72137500D03*
X150648750Y-74677500D03*
X148108750Y-72137500D03*
X148108750Y-74677500D03*
X145568750Y-72137500D03*
X145568750Y-74677500D03*
X143028750Y-72137500D03*
X143028750Y-74677500D03*
X140488750Y-72137500D03*
X140488750Y-74677500D03*
X137948750Y-72137500D03*
X137948750Y-74677500D03*
X135408750Y-72137500D03*
X135408750Y-74677500D03*
D11*
X30043750Y-55531250D03*
D10*
X29388751Y-56261250D03*
D12*
X35063750Y-54741250D03*
D11*
X35083750Y-54451250D03*
X144343750Y-55531250D03*
D10*
X143688751Y-56261250D03*
D11*
X149383750Y-54451250D03*
D12*
X149363750Y-54741250D03*
D13*
X135731250Y-61181250D03*
X135731250Y-57881250D03*
X192881250Y-61181250D03*
X192881250Y-57881250D03*
X269081250Y-61181250D03*
X269081250Y-57881250D03*
X211931250Y-61181250D03*
X211931250Y-57881250D03*
X59531250Y-61181250D03*
X59531250Y-57881250D03*
X40481250Y-61181250D03*
X40481250Y-57881250D03*
D10*
X67488751Y-56261250D03*
D11*
X68143750Y-55531250D03*
X73183750Y-54451250D03*
D12*
X73163750Y-54741250D03*
D10*
X162738751Y-56261250D03*
D11*
X163393750Y-55531250D03*
D12*
X168413750Y-54741250D03*
D11*
X168433750Y-54451250D03*
D10*
X238938751Y-56261250D03*
D11*
X239593750Y-55531250D03*
X244633750Y-54451250D03*
D12*
X244613750Y-54741250D03*
D13*
X78581250Y-61181250D03*
X78581250Y-57881250D03*
D11*
X106243750Y-55531250D03*
D10*
X105588751Y-56261250D03*
D12*
X111263750Y-54741250D03*
D11*
X111283750Y-54451250D03*
D10*
X48438751Y-56261250D03*
D11*
X49093750Y-55531250D03*
D12*
X54113750Y-54741250D03*
D11*
X54133750Y-54451250D03*
D10*
X181788751Y-56261250D03*
D11*
X182443750Y-55531250D03*
X187483750Y-54451250D03*
D12*
X187463750Y-54741250D03*
D13*
X97631250Y-61181250D03*
X97631250Y-57881250D03*
X230981250Y-61181250D03*
X230981250Y-57881250D03*
D11*
X220543750Y-55531250D03*
D10*
X219888751Y-56261250D03*
D11*
X225583750Y-54451250D03*
D12*
X225563750Y-54741250D03*
D13*
X154781250Y-61118750D03*
X154781250Y-57818750D03*
X173831250Y-61181250D03*
X173831250Y-57881250D03*
X250031250Y-61181250D03*
X250031250Y-57881250D03*
D11*
X87193750Y-55531250D03*
D10*
X86538751Y-56261250D03*
D12*
X92213750Y-54741250D03*
D11*
X92233750Y-54451250D03*
D10*
X200838751Y-56261250D03*
D11*
X201493750Y-55531250D03*
X206533750Y-54451250D03*
D12*
X206513750Y-54741250D03*
D16*
X137950000Y-67272500D03*
X137950000Y-62000000D03*
X122047000Y-63520250D03*
X145161000Y-63520250D03*
X65024000Y-63500000D03*
X87376000Y-63500000D03*
X84201000Y-63500000D03*
X149225000Y-63520250D03*
X68707000Y-63500000D03*
X103124000Y-63500000D03*
X125984000Y-63520250D03*
X106680000Y-63520250D03*
X85159250Y-64224500D03*
X124968000Y-64244750D03*
X104140000Y-64244750D03*
X150495000Y-64244750D03*
X123063000Y-64262000D03*
X146177000Y-64244750D03*
X86669245Y-64224500D03*
X105791000Y-64262000D03*
X149098000Y-65024000D03*
X145161000Y-65024000D03*
X122047000Y-65024000D03*
X106807000Y-65024000D03*
X125857000Y-65024000D03*
X102997000Y-65024000D03*
X146087500Y-65786000D03*
X123063000Y-65786000D03*
X148068250Y-65786000D03*
X124714000Y-65786000D03*
X145034000Y-66548000D03*
X148971000Y-66548000D03*
X143033750Y-61690250D03*
X147658250Y-67300000D03*
X156600000Y-68050000D03*
X146209250Y-68050000D03*
X144350000Y-70650000D03*
X157650000Y-70600000D03*
X157536323Y-68786323D03*
X201200000Y-68800000D03*
X199050000Y-68800000D03*
X144844250Y-68786323D03*
X198350000Y-69650000D03*
X201950000Y-69650000D03*
X142300000Y-69650000D03*
X156650000Y-69650000D03*
X237300000Y-69650000D03*
X239250000Y-69650000D03*
X49022000Y-62738000D03*
X84963000Y-62738000D03*
X103886000Y-62738000D03*
X67818000Y-62738000D03*
X86614000Y-62738000D03*
X122993750Y-62795750D03*
X46736000Y-62738000D03*
X146139500Y-62795750D03*
X125164250Y-62795750D03*
X148431250Y-62795750D03*
X105918000Y-62738000D03*
X65786000Y-62738000D03*
D17*
X40481250Y-61181250D02*
X41434750Y-61181250D01*
X79883000Y-60833000D02*
X79883000Y-53086000D01*
X270668750Y-53975000D02*
X269657113Y-52963363D01*
X213491363Y-60701637D02*
X213491363Y-52963363D01*
X79760363Y-52963363D02*
X61336637Y-52963363D01*
X269081250Y-61181250D02*
X270606250Y-61181250D01*
X173831250Y-61181250D02*
X174784750Y-61181250D01*
X192881250Y-61181250D02*
X194215750Y-61181250D01*
X42667637Y-52963363D02*
X42037000Y-53594000D01*
X156214363Y-60955637D02*
X156214363Y-52963363D01*
X137656000Y-60706000D02*
X137168726Y-60706000D01*
X174784750Y-61181250D02*
X175137363Y-60828637D01*
X232283000Y-53086000D02*
X232160363Y-52963363D01*
X232061750Y-61181250D02*
X232283000Y-60960000D01*
X117761750Y-61181250D02*
X118110000Y-60833000D01*
X116681250Y-61181250D02*
X117761750Y-61181250D01*
X137948750Y-72137500D02*
X137948750Y-68601250D01*
X194441363Y-60955637D02*
X194441363Y-52963363D01*
X97631250Y-61181250D02*
X98584750Y-61181250D01*
X251556250Y-61181250D02*
X250031250Y-61181250D01*
X154781250Y-61118750D02*
X156051250Y-61118750D01*
X118110000Y-60833000D02*
X118110000Y-52967726D01*
X78581250Y-61181250D02*
X79534750Y-61181250D01*
X213011750Y-61181250D02*
X213491363Y-60701637D01*
X251618750Y-61118750D02*
X251556250Y-61181250D01*
X79883000Y-53086000D02*
X79760363Y-52963363D01*
X232160363Y-52963363D02*
X213491363Y-52963363D01*
X118105637Y-52963363D02*
X98810363Y-52963363D01*
X98810363Y-60955637D02*
X98810363Y-52963363D01*
X137168726Y-60706000D02*
X137037363Y-60574637D01*
X251836637Y-52963363D02*
X232160363Y-52963363D01*
X60738750Y-61181250D02*
X61336637Y-60583363D01*
X213491363Y-52963363D02*
X194441363Y-52963363D01*
X251618750Y-53181250D02*
X251618750Y-61118750D01*
X137037363Y-60574637D02*
X137037363Y-52963363D01*
X175137363Y-52963363D02*
X156214363Y-52963363D01*
X135731250Y-61181250D02*
X136684750Y-61181250D01*
X61336637Y-52963363D02*
X42667637Y-52963363D01*
X156051250Y-61118750D02*
X156214363Y-60955637D01*
X136684750Y-61181250D02*
X137037363Y-60828637D01*
X230981250Y-61181250D02*
X232061750Y-61181250D01*
X156214363Y-52963363D02*
X137037363Y-52963363D01*
X98810363Y-52963363D02*
X79760363Y-52963363D01*
X232283000Y-60960000D02*
X232283000Y-53086000D01*
X41434750Y-61181250D02*
X41910000Y-60706000D01*
X137950000Y-61000000D02*
X137656000Y-60706000D01*
X118110000Y-52967726D02*
X118105637Y-52963363D01*
X42037000Y-53594000D02*
X41910000Y-53721000D01*
X270606250Y-61181250D02*
X270668750Y-61118750D01*
X270668750Y-61118750D02*
X270668750Y-53975000D01*
X211931250Y-61181250D02*
X213011750Y-61181250D01*
X194441363Y-52963363D02*
X175137363Y-52963363D01*
X98584750Y-61181250D02*
X98810363Y-60955637D01*
X61336637Y-60583363D02*
X61336637Y-52963363D01*
X137950000Y-68600000D02*
X137950000Y-67272500D01*
X79534750Y-61181250D02*
X79883000Y-60833000D01*
X137037363Y-52963363D02*
X118105637Y-52963363D01*
X137948750Y-68601250D02*
X137950000Y-68600000D01*
X41910000Y-53721000D02*
X41910000Y-60706000D01*
X137037363Y-60828637D02*
X137037363Y-60574637D01*
X269657113Y-52963363D02*
X251836637Y-52963363D01*
X59531250Y-61181250D02*
X60738750Y-61181250D01*
X175137363Y-60828637D02*
X175137363Y-52963363D01*
X194215750Y-61181250D02*
X194441363Y-60955637D01*
X137950000Y-62000000D02*
X137950000Y-61000000D01*
X40481250Y-56356250D02*
X39156250Y-55031250D01*
X39156250Y-55031250D02*
X35043750Y-55031250D01*
X40481250Y-57881250D02*
X40481250Y-56356250D01*
X59531250Y-57881250D02*
X59531250Y-56356250D01*
X58206250Y-55031250D02*
X54093750Y-55031250D01*
X59531250Y-56356250D02*
X58206250Y-55031250D01*
X78581250Y-57881250D02*
X78581250Y-56356250D01*
X77256250Y-55031250D02*
X73143750Y-55031250D01*
X78581250Y-56356250D02*
X77256250Y-55031250D01*
X96306250Y-55031250D02*
X92193750Y-55031250D01*
X97631250Y-56356250D02*
X96306250Y-55031250D01*
X97631250Y-57881250D02*
X97631250Y-56356250D01*
X115356250Y-55031250D02*
X111243750Y-55031250D01*
X116681250Y-56356250D02*
X115356250Y-55031250D01*
X116681250Y-57881250D02*
X116681250Y-56356250D01*
X134406250Y-55031250D02*
X130293750Y-55031250D01*
X135731250Y-57881250D02*
X135731250Y-56356250D01*
X135731250Y-56356250D02*
X134406250Y-55031250D01*
X154781250Y-57818750D02*
X154781250Y-56356250D01*
X153456250Y-55031250D02*
X149343750Y-55031250D01*
X154781250Y-56356250D02*
X153456250Y-55031250D01*
X173831250Y-57881250D02*
X173831250Y-56356250D01*
X172506250Y-55031250D02*
X168393750Y-55031250D01*
X173831250Y-56356250D02*
X172506250Y-55031250D01*
X191556250Y-55031250D02*
X187443750Y-55031250D01*
X192881250Y-56356250D02*
X191556250Y-55031250D01*
X192881250Y-57881250D02*
X192881250Y-56356250D01*
X210606250Y-55031250D02*
X206493750Y-55031250D01*
X211931250Y-56356250D02*
X210606250Y-55031250D01*
X211931250Y-57881250D02*
X211931250Y-56356250D01*
X230981250Y-56356250D02*
X229656250Y-55031250D01*
X229656250Y-55031250D02*
X225543750Y-55031250D01*
X230981250Y-57881250D02*
X230981250Y-56356250D01*
X248706250Y-55031250D02*
X244593750Y-55031250D01*
X250031250Y-56356250D02*
X248706250Y-55031250D01*
X250031250Y-57881250D02*
X250031250Y-56356250D01*
X269081250Y-56356250D02*
X267756250Y-55031250D01*
X269081250Y-57881250D02*
X269081250Y-56356250D01*
X267756250Y-55031250D02*
X263643750Y-55031250D01*
X65024000Y-63500000D02*
X48133000Y-63500000D01*
X47783750Y-56991250D02*
X47783750Y-63150750D01*
X145161000Y-63520250D02*
X125984000Y-63520250D01*
X154877500Y-74677500D02*
X154500000Y-74300000D01*
X84201000Y-63500000D02*
X68707000Y-63500000D01*
X155728750Y-74677500D02*
X154877500Y-74677500D01*
X103124000Y-63500000D02*
X87376000Y-63500000D01*
X122047000Y-63520250D02*
X106680000Y-63520250D01*
X48133000Y-63500000D02*
X47783750Y-63150750D01*
X154500000Y-74300000D02*
X154500000Y-63950000D01*
X154500000Y-63950000D02*
X154070250Y-63520250D01*
X154070250Y-63520250D02*
X149225000Y-63520250D01*
X153188750Y-64488750D02*
X153188750Y-72137500D01*
X104140000Y-64244750D02*
X86689495Y-64244750D01*
X146177000Y-64244750D02*
X124968000Y-64244750D01*
X86689495Y-64244750D02*
X86669245Y-64224500D01*
X123063000Y-64262000D02*
X105791000Y-64262000D01*
X85159250Y-64224500D02*
X67272500Y-64224500D01*
X67272500Y-64224500D02*
X66833750Y-63785750D01*
X66833750Y-56991250D02*
X66833750Y-63785750D01*
X152944750Y-64244750D02*
X153188750Y-64488750D01*
X150495000Y-64244750D02*
X152944750Y-64244750D01*
X86233000Y-65024000D02*
X85883750Y-64674750D01*
X102997000Y-65024000D02*
X86233000Y-65024000D01*
X153188750Y-74677500D02*
X152427500Y-74677500D01*
X85883750Y-56991250D02*
X85883750Y-64674750D01*
X145161000Y-65024000D02*
X125857000Y-65024000D01*
X151823750Y-74073750D02*
X151823750Y-65473750D01*
X151374000Y-65024000D02*
X149098000Y-65024000D01*
X152427500Y-74677500D02*
X151823750Y-74073750D01*
X122047000Y-65024000D02*
X106807000Y-65024000D01*
X151823750Y-65473750D02*
X151374000Y-65024000D01*
X150648750Y-66048750D02*
X150386000Y-65786000D01*
X150386000Y-65786000D02*
X149636000Y-65786000D01*
X104933750Y-56991250D02*
X104933750Y-65373250D01*
X149636000Y-65786000D02*
X148068250Y-65786000D01*
X149987000Y-65786000D02*
X149636000Y-65786000D01*
X150648750Y-72137500D02*
X150648750Y-66048750D01*
X123063000Y-65786000D02*
X105346500Y-65786000D01*
X146087500Y-65786000D02*
X124714000Y-65786000D01*
X105346500Y-65786000D02*
X104933750Y-65373250D01*
X145034000Y-66548000D02*
X124333000Y-66548000D01*
X123983750Y-56991250D02*
X123983750Y-66198750D01*
X149927500Y-74677500D02*
X149343750Y-74093750D01*
X150648750Y-74677500D02*
X149927500Y-74677500D01*
X149343750Y-66920750D02*
X148971000Y-66548000D01*
X124333000Y-66548000D02*
X123983750Y-66198750D01*
X149343750Y-74093750D02*
X149343750Y-66920750D01*
X143033750Y-56991250D02*
X143033750Y-61690250D01*
X148108750Y-67408750D02*
X148108750Y-72137500D01*
X148000000Y-67300000D02*
X148108750Y-67408750D01*
X147658250Y-67300000D02*
X148000000Y-67300000D01*
X162083750Y-62071250D02*
X148221250Y-62071250D01*
X162083750Y-56991250D02*
X162083750Y-62071250D01*
X146933750Y-62316250D02*
X147178750Y-62071250D01*
X147377500Y-74677500D02*
X146950000Y-74250000D01*
X147178750Y-62071250D02*
X148221250Y-62071250D01*
X148221250Y-62071250D02*
X147859750Y-62071250D01*
X146950000Y-72640451D02*
X146933750Y-72624201D01*
X146950000Y-74250000D02*
X146950000Y-72640451D01*
X146933750Y-72624201D02*
X146933750Y-62316250D01*
X148108750Y-74677500D02*
X147377500Y-74677500D01*
X145800000Y-68100000D02*
X145850000Y-68050000D01*
X156600000Y-68050000D02*
X180917500Y-68050000D01*
X180917500Y-68050000D02*
X181133750Y-67833750D01*
X181133750Y-56991250D02*
X181133750Y-67833750D01*
X145568750Y-68331250D02*
X145800000Y-68100000D01*
X145568750Y-72137500D02*
X145568750Y-68331250D01*
X145850000Y-68050000D02*
X146209250Y-68050000D01*
X157650000Y-70600000D02*
X199700000Y-70600000D01*
X199700000Y-70600000D02*
X200183750Y-70116250D01*
X200183750Y-70116250D02*
X200183750Y-56991250D01*
X144350000Y-74450000D02*
X144350000Y-70650000D01*
X145568750Y-74677500D02*
X144577500Y-74677500D01*
X144400000Y-74500000D02*
X144350000Y-74450000D01*
X144577500Y-74677500D02*
X144400000Y-74500000D01*
X199036323Y-68786323D02*
X199050000Y-68800000D01*
X219233750Y-56991250D02*
X219233750Y-68416250D01*
X143400000Y-68850000D02*
X143463677Y-68786323D01*
X218850000Y-68800000D02*
X219233750Y-68416250D01*
X201200000Y-68800000D02*
X218850000Y-68800000D01*
X143028750Y-69221250D02*
X143400000Y-68850000D01*
X143028750Y-72137500D02*
X143028750Y-69221250D01*
X143463677Y-68786323D02*
X144844250Y-68786323D01*
X157536323Y-68786323D02*
X199036323Y-68786323D01*
X238283750Y-75616250D02*
X238283750Y-70766250D01*
X143028750Y-75678750D02*
X143202500Y-75852500D01*
X238047500Y-75852500D02*
X238283750Y-75616250D01*
X143202500Y-75852500D02*
X238047500Y-75852500D01*
X238283750Y-70766250D02*
X238283750Y-56991250D01*
X143028750Y-74677500D02*
X143028750Y-75678750D01*
X238283750Y-71278750D02*
X238283750Y-70766250D01*
X140700000Y-69650000D02*
X142300000Y-69650000D01*
X257333750Y-69216250D02*
X257333750Y-66716250D01*
X140488750Y-72137500D02*
X140488750Y-69861250D01*
X239250000Y-69650000D02*
X256900000Y-69650000D01*
X140488750Y-69861250D02*
X140700000Y-69650000D01*
X256900000Y-69650000D02*
X257333750Y-69216250D01*
X257333750Y-56991250D02*
X257333750Y-66716250D01*
X257333750Y-66716250D02*
X257333750Y-67468750D01*
X156650000Y-69650000D02*
X198350000Y-69650000D01*
X201950000Y-69650000D02*
X237300000Y-69650000D01*
X146139500Y-62795750D02*
X125164250Y-62795750D01*
X105975750Y-62795750D02*
X105918000Y-62738000D01*
X84963000Y-62738000D02*
X67818000Y-62738000D01*
X103886000Y-62738000D02*
X86614000Y-62738000D01*
X46736000Y-62738000D02*
X29845000Y-62738000D01*
X155728750Y-72137500D02*
X155728750Y-63578750D01*
X153295750Y-62795750D02*
X148431250Y-62795750D01*
X65786000Y-62738000D02*
X49022000Y-62738000D01*
X28733750Y-56991250D02*
X28733750Y-61626750D01*
X122993750Y-62795750D02*
X105975750Y-62795750D01*
X124968000Y-62738000D02*
X125106500Y-62738000D01*
X29845000Y-62738000D02*
X28733750Y-61626750D01*
X154945750Y-62795750D02*
X153295750Y-62795750D01*
X125106500Y-62738000D02*
X125164250Y-62795750D01*
X153995750Y-62795750D02*
X153295750Y-62795750D01*
X155728750Y-63578750D02*
X154945750Y-62795750D01*
M02*
