G04 #@! TF.GenerationSoftware,KiCad,Pcbnew,(6.0.9)*
G04 #@! TF.CreationDate,2023-04-02T22:47:36-05:00*
G04 #@! TF.ProjectId,Function Keys PCB,46756e63-7469-46f6-9e20-4b6579732050,rev?*
G04 #@! TF.SameCoordinates,Original*
G04 #@! TF.FileFunction,Copper,L2,Bot*
G04 #@! TF.FilePolarity,Positive*
%FSLAX46Y46*%
G04 Gerber Fmt 4.6, Leading zero omitted, Abs format (unit mm)*
G04 Created by KiCad (PCBNEW (6.0.9)) date 2023-04-02 22:47:36*
%MOMM*%
%LPD*%
G01*
G04 APERTURE LIST*
G04 Aperture macros list*
%AMHorizOval*
0 Thick line with rounded ends*
0 $1 width*
0 $2 $3 position (X,Y) of the first rounded end (center of the circle)*
0 $4 $5 position (X,Y) of the second rounded end (center of the circle)*
0 Add line between two ends*
20,1,$1,$2,$3,$4,$5,0*
0 Add two circle primitives to create the rounded ends*
1,1,$1,$2,$3*
1,1,$1,$4,$5*%
G04 Aperture macros list end*
G04 #@! TA.AperFunction,ComponentPad*
%ADD10HorizOval,2.250000X0.655001X0.730000X-0.655001X-0.730000X0*%
G04 #@! TD*
G04 #@! TA.AperFunction,ComponentPad*
%ADD11C,2.250000*%
G04 #@! TD*
G04 #@! TA.AperFunction,ComponentPad*
%ADD12HorizOval,2.250000X0.020000X0.290000X-0.020000X-0.290000X0*%
G04 #@! TD*
G04 #@! TA.AperFunction,ComponentPad*
%ADD13R,1.700000X1.700000*%
G04 #@! TD*
G04 #@! TA.AperFunction,ComponentPad*
%ADD14O,1.700000X1.700000*%
G04 #@! TD*
G04 #@! TA.AperFunction,ViaPad*
%ADD15C,0.800000*%
G04 #@! TD*
G04 #@! TA.AperFunction,Conductor*
%ADD16C,0.250000*%
G04 #@! TD*
G04 APERTURE END LIST*
D10*
X257988751Y-56261250D03*
D11*
X258643750Y-55531250D03*
D12*
X263663750Y-54741250D03*
D11*
X263683750Y-54451250D03*
D10*
X124638751Y-56261250D03*
D11*
X125293750Y-55531250D03*
D12*
X130313750Y-54741250D03*
D11*
X130333750Y-54451250D03*
D13*
X158268750Y-72137500D03*
D14*
X158268750Y-74677500D03*
X155728750Y-72137500D03*
X155728750Y-74677500D03*
X153188750Y-72137500D03*
X153188750Y-74677500D03*
X150648750Y-72137500D03*
X150648750Y-74677500D03*
X148108750Y-72137500D03*
X148108750Y-74677500D03*
X145568750Y-72137500D03*
X145568750Y-74677500D03*
X143028750Y-72137500D03*
X143028750Y-74677500D03*
X140488750Y-72137500D03*
X140488750Y-74677500D03*
X137948750Y-72137500D03*
X137948750Y-74677500D03*
X135408750Y-72137500D03*
X135408750Y-74677500D03*
D11*
X30043750Y-55531250D03*
D10*
X29388751Y-56261250D03*
D12*
X35063750Y-54741250D03*
D11*
X35083750Y-54451250D03*
X144343750Y-55531250D03*
D10*
X143688751Y-56261250D03*
D11*
X149383750Y-54451250D03*
D12*
X149363750Y-54741250D03*
D10*
X67488751Y-56261250D03*
D11*
X68143750Y-55531250D03*
X73183750Y-54451250D03*
D12*
X73163750Y-54741250D03*
D10*
X162738751Y-56261250D03*
D11*
X163393750Y-55531250D03*
D12*
X168413750Y-54741250D03*
D11*
X168433750Y-54451250D03*
D10*
X238938751Y-56261250D03*
D11*
X239593750Y-55531250D03*
X244633750Y-54451250D03*
D12*
X244613750Y-54741250D03*
D11*
X106243750Y-55531250D03*
D10*
X105588751Y-56261250D03*
D12*
X111263750Y-54741250D03*
D11*
X111283750Y-54451250D03*
D10*
X48438751Y-56261250D03*
D11*
X49093750Y-55531250D03*
D12*
X54113750Y-54741250D03*
D11*
X54133750Y-54451250D03*
D10*
X181788751Y-56261250D03*
D11*
X182443750Y-55531250D03*
X187483750Y-54451250D03*
D12*
X187463750Y-54741250D03*
D11*
X220543750Y-55531250D03*
D10*
X219888751Y-56261250D03*
D11*
X225583750Y-54451250D03*
D12*
X225563750Y-54741250D03*
D11*
X87193750Y-55531250D03*
D10*
X86538751Y-56261250D03*
D12*
X92213750Y-54741250D03*
D11*
X92233750Y-54451250D03*
D10*
X200838751Y-56261250D03*
D11*
X201493750Y-55531250D03*
X206533750Y-54451250D03*
D12*
X206513750Y-54741250D03*
D15*
X137950000Y-67272500D03*
X137950000Y-62000000D03*
X122047000Y-63520250D03*
X145161000Y-63520250D03*
X65024000Y-63500000D03*
X87376000Y-63500000D03*
X84201000Y-63500000D03*
X149225000Y-63520250D03*
X68707000Y-63500000D03*
X103124000Y-63500000D03*
X125984000Y-63520250D03*
X106680000Y-63520250D03*
X85159250Y-64224500D03*
X124968000Y-64244750D03*
X104140000Y-64244750D03*
X150495000Y-64244750D03*
X123063000Y-64262000D03*
X146177000Y-64244750D03*
X86669245Y-64224500D03*
X105791000Y-64262000D03*
X149098000Y-65024000D03*
X145161000Y-65024000D03*
X122047000Y-65024000D03*
X106807000Y-65024000D03*
X125857000Y-65024000D03*
X102997000Y-65024000D03*
X146087500Y-65786000D03*
X123063000Y-65786000D03*
X148068250Y-65786000D03*
X124714000Y-65786000D03*
X145034000Y-66548000D03*
X148971000Y-66548000D03*
X143033750Y-61690250D03*
X147658250Y-67300000D03*
X156600000Y-68050000D03*
X146209250Y-68050000D03*
X144350000Y-70650000D03*
X157650000Y-70600000D03*
X157536323Y-68786323D03*
X201200000Y-68800000D03*
X199050000Y-68800000D03*
X144844250Y-68786323D03*
X198350000Y-69650000D03*
X201950000Y-69650000D03*
X142300000Y-69650000D03*
X156650000Y-69650000D03*
X237300000Y-69650000D03*
X239250000Y-69650000D03*
X49022000Y-62738000D03*
X84963000Y-62738000D03*
X103886000Y-62738000D03*
X67818000Y-62738000D03*
X86614000Y-62738000D03*
X122993750Y-62795750D03*
X46736000Y-62738000D03*
X146139500Y-62795750D03*
X125164250Y-62795750D03*
X148431250Y-62795750D03*
X105918000Y-62738000D03*
X65786000Y-62738000D03*
D16*
X137950000Y-67272500D02*
X137950000Y-62000000D01*
X87376000Y-63500000D02*
X84201000Y-63500000D01*
X103144250Y-63520250D02*
X103124000Y-63500000D01*
X106680000Y-63520250D02*
X103144250Y-63520250D01*
X68707000Y-63500000D02*
X65024000Y-63500000D01*
X125984000Y-63520250D02*
X122047000Y-63520250D01*
X149225000Y-63520250D02*
X145161000Y-63520250D01*
X104157250Y-64262000D02*
X104140000Y-64244750D01*
X123080250Y-64244750D02*
X123063000Y-64262000D01*
X124968000Y-64244750D02*
X123080250Y-64244750D01*
X150495000Y-64244750D02*
X146177000Y-64244750D01*
X86669245Y-64224500D02*
X85159250Y-64224500D01*
X105791000Y-64262000D02*
X104157250Y-64262000D01*
X149098000Y-65024000D02*
X145161000Y-65024000D01*
X106807000Y-65024000D02*
X102997000Y-65024000D01*
X125857000Y-65024000D02*
X122047000Y-65024000D01*
X148068250Y-65786000D02*
X146087500Y-65786000D01*
X124714000Y-65786000D02*
X123063000Y-65786000D01*
X148971000Y-66548000D02*
X145034000Y-66548000D01*
X143033750Y-61690250D02*
X143033750Y-67033750D01*
X143300000Y-67300000D02*
X147658250Y-67300000D01*
X143033750Y-67033750D02*
X143300000Y-67300000D01*
X146209250Y-68050000D02*
X156600000Y-68050000D01*
X144350000Y-70200000D02*
X144400000Y-70150000D01*
X155800000Y-70150000D02*
X156250000Y-70600000D01*
X144350000Y-70650000D02*
X144350000Y-70200000D01*
X156250000Y-70600000D02*
X157650000Y-70600000D01*
X144400000Y-70150000D02*
X155800000Y-70150000D01*
X199050000Y-68800000D02*
X201200000Y-68800000D01*
X157286323Y-68786323D02*
X157536323Y-68786323D01*
X144844250Y-68786323D02*
X157286323Y-68786323D01*
X237300000Y-69650000D02*
X239250000Y-69650000D01*
X142300000Y-69650000D02*
X156600000Y-69650000D01*
X198350000Y-69650000D02*
X201950000Y-69650000D01*
X105918000Y-62738000D02*
X103886000Y-62738000D01*
X86614000Y-62738000D02*
X84963000Y-62738000D01*
X49022000Y-62738000D02*
X46736000Y-62738000D01*
X148431250Y-62795750D02*
X146139500Y-62795750D01*
X125164250Y-62795750D02*
X122993750Y-62795750D01*
X67818000Y-62738000D02*
X65786000Y-62738000D01*
M02*
