%TF.GenerationSoftware,KiCad,Pcbnew,(6.0.9)*%
%TF.CreationDate,2023-04-02T22:47:38-05:00*%
%TF.ProjectId,Function Keys PCB,46756e63-7469-46f6-9e20-4b6579732050,rev?*%
%TF.SameCoordinates,Original*%
%TF.FileFunction,Drillmap*%
%TF.FilePolarity,Positive*%
%FSLAX45Y45*%
G04 Gerber Fmt 4.5, Leading zero omitted, Abs format (unit mm)*
G04 Created by KiCad (PCBNEW (6.0.9)) date 2023-04-02 22:47:38*
%MOMM*%
%LPD*%
G01*
G04 APERTURE LIST*
%ADD10C,0.100000*%
%ADD11C,0.150000*%
%ADD12C,0.200000*%
%ADD13C,0.175000*%
%ADD14C,0.398780*%
G04 APERTURE END LIST*
D10*
X7243750Y-7223125D02*
G75*
G03*
X7243750Y-7223125I-100000J0D01*
G01*
D11*
X26828750Y-7858125D02*
X2540000Y-7858125D01*
D10*
X20499375Y-5159375D02*
G75*
G03*
X20499375Y-5159375I-100000J0D01*
G01*
D11*
X2540000Y-5000625D02*
G75*
G03*
X2301875Y-5238750I0J-238125D01*
G01*
D10*
X14784375Y-5159375D02*
G75*
G03*
X14784375Y-5159375I-100000J0D01*
G01*
D11*
X27066875Y-5238750D02*
G75*
G03*
X26828750Y-5000625I-238125J0D01*
G01*
D10*
X3354375Y-7223125D02*
G75*
G03*
X3354375Y-7223125I-100000J0D01*
G01*
D11*
X2540000Y-5000625D02*
X26828750Y-5000625D01*
D10*
X18594375Y-7223125D02*
G75*
G03*
X18594375Y-7223125I-100000J0D01*
G01*
X26214375Y-5159375D02*
G75*
G03*
X26214375Y-5159375I-100000J0D01*
G01*
X10974375Y-7223125D02*
G75*
G03*
X10974375Y-7223125I-100000J0D01*
G01*
X9069375Y-5159375D02*
G75*
G03*
X9069375Y-5159375I-100000J0D01*
G01*
X26214375Y-7223125D02*
G75*
G03*
X26214375Y-7223125I-100000J0D01*
G01*
D11*
X2301875Y-7620000D02*
G75*
G03*
X2540000Y-7858125I238125J0D01*
G01*
X2301875Y-7620000D02*
X2301875Y-5238750D01*
D10*
X3275000Y-5159375D02*
G75*
G03*
X3275000Y-5159375I-100000J0D01*
G01*
D11*
X27066875Y-7620000D02*
X27066875Y-5238750D01*
D10*
X22404375Y-7223125D02*
G75*
G03*
X22404375Y-7223125I-100000J0D01*
G01*
D11*
X26828750Y-7858125D02*
G75*
G03*
X27066875Y-7620000I0J238125D01*
G01*
D12*
D13*
X2658875Y-5865625D02*
X2833875Y-6040625D01*
X2833875Y-5865625D02*
X2658875Y-6040625D01*
X3674875Y-5865625D02*
X3849875Y-6040625D01*
X3849875Y-5865625D02*
X3674875Y-6040625D01*
X4563875Y-5865625D02*
X4738875Y-6040625D01*
X4738875Y-5865625D02*
X4563875Y-6040625D01*
X5579875Y-5865625D02*
X5754875Y-6040625D01*
X5754875Y-5865625D02*
X5579875Y-6040625D01*
X6468875Y-5865625D02*
X6643875Y-6040625D01*
X6643875Y-5865625D02*
X6468875Y-6040625D01*
X7484875Y-5865625D02*
X7659875Y-6040625D01*
X7659875Y-5865625D02*
X7484875Y-6040625D01*
X8373875Y-5865625D02*
X8548875Y-6040625D01*
X8548875Y-5865625D02*
X8373875Y-6040625D01*
X9389875Y-5865625D02*
X9564875Y-6040625D01*
X9564875Y-5865625D02*
X9389875Y-6040625D01*
X10278875Y-5865625D02*
X10453875Y-6040625D01*
X10453875Y-5865625D02*
X10278875Y-6040625D01*
X11294875Y-5865625D02*
X11469875Y-6040625D01*
X11469875Y-5865625D02*
X11294875Y-6040625D01*
X12183875Y-5865625D02*
X12358875Y-6040625D01*
X12358875Y-5865625D02*
X12183875Y-6040625D01*
X13199875Y-5865625D02*
X13374875Y-6040625D01*
X13374875Y-5865625D02*
X13199875Y-6040625D01*
X14088875Y-5865625D02*
X14263875Y-6040625D01*
X14263875Y-5865625D02*
X14088875Y-6040625D01*
X15104875Y-5865625D02*
X15279875Y-6040625D01*
X15279875Y-5865625D02*
X15104875Y-6040625D01*
X15993875Y-5865625D02*
X16168875Y-6040625D01*
X16168875Y-5865625D02*
X15993875Y-6040625D01*
X17009875Y-5865625D02*
X17184875Y-6040625D01*
X17184875Y-5865625D02*
X17009875Y-6040625D01*
X17898875Y-5865625D02*
X18073875Y-6040625D01*
X18073875Y-5865625D02*
X17898875Y-6040625D01*
X18914875Y-5865625D02*
X19089875Y-6040625D01*
X19089875Y-5865625D02*
X18914875Y-6040625D01*
X19803875Y-5865625D02*
X19978875Y-6040625D01*
X19978875Y-5865625D02*
X19803875Y-6040625D01*
X20819875Y-5865625D02*
X20994875Y-6040625D01*
X20994875Y-5865625D02*
X20819875Y-6040625D01*
X21708875Y-5865625D02*
X21883875Y-6040625D01*
X21883875Y-5865625D02*
X21708875Y-6040625D01*
X22724875Y-5865625D02*
X22899875Y-6040625D01*
X22899875Y-5865625D02*
X22724875Y-6040625D01*
X23613875Y-5865625D02*
X23788875Y-6040625D01*
X23788875Y-5865625D02*
X23613875Y-6040625D01*
X24629875Y-5865625D02*
X24804875Y-6040625D01*
X24804875Y-5865625D02*
X24629875Y-6040625D01*
X25518875Y-5865625D02*
X25693875Y-6040625D01*
X25693875Y-5865625D02*
X25518875Y-6040625D01*
X26534875Y-5865625D02*
X26709875Y-6040625D01*
X26709875Y-5865625D02*
X26534875Y-6040625D01*
D14*
X3453765Y-5953125D02*
G75*
G03*
X3453765Y-5953125I-199390J0D01*
G01*
X5358765Y-5953125D02*
G75*
G03*
X5358765Y-5953125I-199390J0D01*
G01*
X7263765Y-5953125D02*
G75*
G03*
X7263765Y-5953125I-199390J0D01*
G01*
X9168765Y-5953125D02*
G75*
G03*
X9168765Y-5953125I-199390J0D01*
G01*
X11073765Y-5953125D02*
G75*
G03*
X11073765Y-5953125I-199390J0D01*
G01*
X12978765Y-5953125D02*
G75*
G03*
X12978765Y-5953125I-199390J0D01*
G01*
X14883765Y-5953125D02*
G75*
G03*
X14883765Y-5953125I-199390J0D01*
G01*
X16788765Y-5953125D02*
G75*
G03*
X16788765Y-5953125I-199390J0D01*
G01*
X18693765Y-5953125D02*
G75*
G03*
X18693765Y-5953125I-199390J0D01*
G01*
X20598765Y-5953125D02*
G75*
G03*
X20598765Y-5953125I-199390J0D01*
G01*
X22503765Y-5953125D02*
G75*
G03*
X22503765Y-5953125I-199390J0D01*
G01*
X24408765Y-5953125D02*
G75*
G03*
X24408765Y-5953125I-199390J0D01*
G01*
X26313765Y-5953125D02*
G75*
G03*
X26313765Y-5953125I-199390J0D01*
G01*
D12*
X2551994Y-8176101D02*
X2551994Y-7976101D01*
X2599613Y-7976101D01*
X2628185Y-7985625D01*
X2647232Y-8004673D01*
X2656756Y-8023720D01*
X2666280Y-8061815D01*
X2666280Y-8090387D01*
X2656756Y-8128482D01*
X2647232Y-8147530D01*
X2628185Y-8166577D01*
X2599613Y-8176101D01*
X2551994Y-8176101D01*
X2751994Y-8176101D02*
X2751994Y-8042768D01*
X2751994Y-8080863D02*
X2761518Y-8061815D01*
X2771042Y-8052292D01*
X2790089Y-8042768D01*
X2809137Y-8042768D01*
X2875803Y-8176101D02*
X2875803Y-8042768D01*
X2875803Y-7976101D02*
X2866280Y-7985625D01*
X2875803Y-7995149D01*
X2885327Y-7985625D01*
X2875803Y-7976101D01*
X2875803Y-7995149D01*
X2999613Y-8176101D02*
X2980565Y-8166577D01*
X2971042Y-8147530D01*
X2971042Y-7976101D01*
X3104375Y-8176101D02*
X3085327Y-8166577D01*
X3075803Y-8147530D01*
X3075803Y-7976101D01*
X3332946Y-8176101D02*
X3332946Y-7976101D01*
X3399613Y-8118958D01*
X3466280Y-7976101D01*
X3466280Y-8176101D01*
X3647232Y-8176101D02*
X3647232Y-8071339D01*
X3637708Y-8052292D01*
X3618661Y-8042768D01*
X3580565Y-8042768D01*
X3561518Y-8052292D01*
X3647232Y-8166577D02*
X3628184Y-8176101D01*
X3580565Y-8176101D01*
X3561518Y-8166577D01*
X3551994Y-8147530D01*
X3551994Y-8128482D01*
X3561518Y-8109434D01*
X3580565Y-8099911D01*
X3628184Y-8099911D01*
X3647232Y-8090387D01*
X3742470Y-8042768D02*
X3742470Y-8242768D01*
X3742470Y-8052292D02*
X3761518Y-8042768D01*
X3799613Y-8042768D01*
X3818661Y-8052292D01*
X3828184Y-8061815D01*
X3837708Y-8080863D01*
X3837708Y-8138006D01*
X3828184Y-8157053D01*
X3818661Y-8166577D01*
X3799613Y-8176101D01*
X3761518Y-8176101D01*
X3742470Y-8166577D01*
X3923423Y-8157053D02*
X3932946Y-8166577D01*
X3923423Y-8176101D01*
X3913899Y-8166577D01*
X3923423Y-8157053D01*
X3923423Y-8176101D01*
X3923423Y-8052292D02*
X3932946Y-8061815D01*
X3923423Y-8071339D01*
X3913899Y-8061815D01*
X3923423Y-8052292D01*
X3923423Y-8071339D01*
D13*
X2119375Y-8418125D02*
X2294375Y-8593125D01*
X2294375Y-8418125D02*
X2119375Y-8593125D01*
D12*
X2656756Y-8596101D02*
X2542470Y-8596101D01*
X2599613Y-8596101D02*
X2599613Y-8396101D01*
X2580565Y-8424673D01*
X2561518Y-8443720D01*
X2542470Y-8453244D01*
X2742470Y-8577054D02*
X2751994Y-8586577D01*
X2742470Y-8596101D01*
X2732946Y-8586577D01*
X2742470Y-8577054D01*
X2742470Y-8596101D01*
X2818661Y-8396101D02*
X2951994Y-8396101D01*
X2866280Y-8596101D01*
X3123423Y-8396101D02*
X3028184Y-8396101D01*
X3018661Y-8491339D01*
X3028184Y-8481815D01*
X3047232Y-8472292D01*
X3094851Y-8472292D01*
X3113899Y-8481815D01*
X3123423Y-8491339D01*
X3132946Y-8510387D01*
X3132946Y-8558006D01*
X3123423Y-8577054D01*
X3113899Y-8586577D01*
X3094851Y-8596101D01*
X3047232Y-8596101D01*
X3028184Y-8586577D01*
X3018661Y-8577054D01*
X3256756Y-8396101D02*
X3275803Y-8396101D01*
X3294851Y-8405625D01*
X3304375Y-8415149D01*
X3313899Y-8434196D01*
X3323423Y-8472292D01*
X3323423Y-8519911D01*
X3313899Y-8558006D01*
X3304375Y-8577054D01*
X3294851Y-8586577D01*
X3275803Y-8596101D01*
X3256756Y-8596101D01*
X3237708Y-8586577D01*
X3228184Y-8577054D01*
X3218661Y-8558006D01*
X3209137Y-8519911D01*
X3209137Y-8472292D01*
X3218661Y-8434196D01*
X3228184Y-8415149D01*
X3237708Y-8405625D01*
X3256756Y-8396101D01*
X3409137Y-8596101D02*
X3409137Y-8462768D01*
X3409137Y-8481815D02*
X3418661Y-8472292D01*
X3437708Y-8462768D01*
X3466280Y-8462768D01*
X3485327Y-8472292D01*
X3494851Y-8491339D01*
X3494851Y-8596101D01*
X3494851Y-8491339D02*
X3504375Y-8472292D01*
X3523423Y-8462768D01*
X3551994Y-8462768D01*
X3571042Y-8472292D01*
X3580565Y-8491339D01*
X3580565Y-8596101D01*
X3675803Y-8596101D02*
X3675803Y-8462768D01*
X3675803Y-8481815D02*
X3685327Y-8472292D01*
X3704375Y-8462768D01*
X3732946Y-8462768D01*
X3751994Y-8472292D01*
X3761518Y-8491339D01*
X3761518Y-8596101D01*
X3761518Y-8491339D02*
X3771042Y-8472292D01*
X3790089Y-8462768D01*
X3818661Y-8462768D01*
X3837708Y-8472292D01*
X3847232Y-8491339D01*
X3847232Y-8596101D01*
X4237708Y-8386577D02*
X4066280Y-8643720D01*
X4494851Y-8396101D02*
X4513899Y-8396101D01*
X4532946Y-8405625D01*
X4542470Y-8415149D01*
X4551994Y-8434196D01*
X4561518Y-8472292D01*
X4561518Y-8519911D01*
X4551994Y-8558006D01*
X4542470Y-8577054D01*
X4532946Y-8586577D01*
X4513899Y-8596101D01*
X4494851Y-8596101D01*
X4475804Y-8586577D01*
X4466280Y-8577054D01*
X4456756Y-8558006D01*
X4447232Y-8519911D01*
X4447232Y-8472292D01*
X4456756Y-8434196D01*
X4466280Y-8415149D01*
X4475804Y-8405625D01*
X4494851Y-8396101D01*
X4647232Y-8577054D02*
X4656756Y-8586577D01*
X4647232Y-8596101D01*
X4637708Y-8586577D01*
X4647232Y-8577054D01*
X4647232Y-8596101D01*
X4780565Y-8396101D02*
X4799613Y-8396101D01*
X4818661Y-8405625D01*
X4828185Y-8415149D01*
X4837708Y-8434196D01*
X4847232Y-8472292D01*
X4847232Y-8519911D01*
X4837708Y-8558006D01*
X4828185Y-8577054D01*
X4818661Y-8586577D01*
X4799613Y-8596101D01*
X4780565Y-8596101D01*
X4761518Y-8586577D01*
X4751994Y-8577054D01*
X4742470Y-8558006D01*
X4732946Y-8519911D01*
X4732946Y-8472292D01*
X4742470Y-8434196D01*
X4751994Y-8415149D01*
X4761518Y-8405625D01*
X4780565Y-8396101D01*
X5018661Y-8396101D02*
X4980565Y-8396101D01*
X4961518Y-8405625D01*
X4951994Y-8415149D01*
X4932946Y-8443720D01*
X4923423Y-8481815D01*
X4923423Y-8558006D01*
X4932946Y-8577054D01*
X4942470Y-8586577D01*
X4961518Y-8596101D01*
X4999613Y-8596101D01*
X5018661Y-8586577D01*
X5028185Y-8577054D01*
X5037708Y-8558006D01*
X5037708Y-8510387D01*
X5028185Y-8491339D01*
X5018661Y-8481815D01*
X4999613Y-8472292D01*
X4961518Y-8472292D01*
X4942470Y-8481815D01*
X4932946Y-8491339D01*
X4923423Y-8510387D01*
X5151994Y-8481815D02*
X5132946Y-8472292D01*
X5123423Y-8462768D01*
X5113899Y-8443720D01*
X5113899Y-8434196D01*
X5123423Y-8415149D01*
X5132946Y-8405625D01*
X5151994Y-8396101D01*
X5190089Y-8396101D01*
X5209137Y-8405625D01*
X5218661Y-8415149D01*
X5228185Y-8434196D01*
X5228185Y-8443720D01*
X5218661Y-8462768D01*
X5209137Y-8472292D01*
X5190089Y-8481815D01*
X5151994Y-8481815D01*
X5132946Y-8491339D01*
X5123423Y-8500863D01*
X5113899Y-8519911D01*
X5113899Y-8558006D01*
X5123423Y-8577054D01*
X5132946Y-8586577D01*
X5151994Y-8596101D01*
X5190089Y-8596101D01*
X5209137Y-8586577D01*
X5218661Y-8577054D01*
X5228185Y-8558006D01*
X5228185Y-8519911D01*
X5218661Y-8500863D01*
X5209137Y-8491339D01*
X5190089Y-8481815D01*
X5323423Y-8596101D02*
X5361518Y-8596101D01*
X5380565Y-8586577D01*
X5390089Y-8577054D01*
X5409137Y-8548482D01*
X5418661Y-8510387D01*
X5418661Y-8434196D01*
X5409137Y-8415149D01*
X5399613Y-8405625D01*
X5380565Y-8396101D01*
X5342470Y-8396101D01*
X5323423Y-8405625D01*
X5313899Y-8415149D01*
X5304375Y-8434196D01*
X5304375Y-8481815D01*
X5313899Y-8500863D01*
X5323423Y-8510387D01*
X5342470Y-8519911D01*
X5380565Y-8519911D01*
X5399613Y-8510387D01*
X5409137Y-8500863D01*
X5418661Y-8481815D01*
X5494851Y-8396101D02*
X5494851Y-8434196D01*
X5571042Y-8396101D02*
X5571042Y-8434196D01*
X5866280Y-8672292D02*
X5856756Y-8662768D01*
X5837708Y-8634196D01*
X5828184Y-8615149D01*
X5818661Y-8586577D01*
X5809137Y-8538958D01*
X5809137Y-8500863D01*
X5818661Y-8453244D01*
X5828184Y-8424673D01*
X5837708Y-8405625D01*
X5856756Y-8377053D01*
X5866280Y-8367530D01*
X5932946Y-8415149D02*
X5942470Y-8405625D01*
X5961518Y-8396101D01*
X6009137Y-8396101D01*
X6028184Y-8405625D01*
X6037708Y-8415149D01*
X6047232Y-8434196D01*
X6047232Y-8453244D01*
X6037708Y-8481815D01*
X5923423Y-8596101D01*
X6047232Y-8596101D01*
X6218661Y-8396101D02*
X6180565Y-8396101D01*
X6161518Y-8405625D01*
X6151994Y-8415149D01*
X6132946Y-8443720D01*
X6123423Y-8481815D01*
X6123423Y-8558006D01*
X6132946Y-8577054D01*
X6142470Y-8586577D01*
X6161518Y-8596101D01*
X6199613Y-8596101D01*
X6218661Y-8586577D01*
X6228184Y-8577054D01*
X6237708Y-8558006D01*
X6237708Y-8510387D01*
X6228184Y-8491339D01*
X6218661Y-8481815D01*
X6199613Y-8472292D01*
X6161518Y-8472292D01*
X6142470Y-8481815D01*
X6132946Y-8491339D01*
X6123423Y-8510387D01*
X6475803Y-8596101D02*
X6475803Y-8396101D01*
X6561518Y-8596101D02*
X6561518Y-8491339D01*
X6551994Y-8472292D01*
X6532946Y-8462768D01*
X6504375Y-8462768D01*
X6485327Y-8472292D01*
X6475803Y-8481815D01*
X6685327Y-8596101D02*
X6666280Y-8586577D01*
X6656756Y-8577054D01*
X6647232Y-8558006D01*
X6647232Y-8500863D01*
X6656756Y-8481815D01*
X6666280Y-8472292D01*
X6685327Y-8462768D01*
X6713899Y-8462768D01*
X6732946Y-8472292D01*
X6742470Y-8481815D01*
X6751994Y-8500863D01*
X6751994Y-8558006D01*
X6742470Y-8577054D01*
X6732946Y-8586577D01*
X6713899Y-8596101D01*
X6685327Y-8596101D01*
X6866280Y-8596101D02*
X6847232Y-8586577D01*
X6837708Y-8567530D01*
X6837708Y-8396101D01*
X7018661Y-8586577D02*
X6999613Y-8596101D01*
X6961518Y-8596101D01*
X6942470Y-8586577D01*
X6932946Y-8567530D01*
X6932946Y-8491339D01*
X6942470Y-8472292D01*
X6961518Y-8462768D01*
X6999613Y-8462768D01*
X7018661Y-8472292D01*
X7028184Y-8491339D01*
X7028184Y-8510387D01*
X6932946Y-8529435D01*
X7104375Y-8586577D02*
X7123423Y-8596101D01*
X7161518Y-8596101D01*
X7180565Y-8586577D01*
X7190089Y-8567530D01*
X7190089Y-8558006D01*
X7180565Y-8538958D01*
X7161518Y-8529435D01*
X7132946Y-8529435D01*
X7113899Y-8519911D01*
X7104375Y-8500863D01*
X7104375Y-8491339D01*
X7113899Y-8472292D01*
X7132946Y-8462768D01*
X7161518Y-8462768D01*
X7180565Y-8472292D01*
X7256756Y-8672292D02*
X7266280Y-8662768D01*
X7285327Y-8634196D01*
X7294851Y-8615149D01*
X7304375Y-8586577D01*
X7313899Y-8538958D01*
X7313899Y-8500863D01*
X7304375Y-8453244D01*
X7294851Y-8424673D01*
X7285327Y-8405625D01*
X7266280Y-8377053D01*
X7256756Y-8367530D01*
X7618661Y-8672292D02*
X7609137Y-8662768D01*
X7590089Y-8634196D01*
X7580565Y-8615149D01*
X7571042Y-8586577D01*
X7561518Y-8538958D01*
X7561518Y-8500863D01*
X7571042Y-8453244D01*
X7580565Y-8424673D01*
X7590089Y-8405625D01*
X7609137Y-8377053D01*
X7618661Y-8367530D01*
X7694851Y-8462768D02*
X7694851Y-8596101D01*
X7694851Y-8481815D02*
X7704375Y-8472292D01*
X7723423Y-8462768D01*
X7751994Y-8462768D01*
X7771042Y-8472292D01*
X7780565Y-8491339D01*
X7780565Y-8596101D01*
X7904375Y-8596101D02*
X7885327Y-8586577D01*
X7875803Y-8577054D01*
X7866280Y-8558006D01*
X7866280Y-8500863D01*
X7875803Y-8481815D01*
X7885327Y-8472292D01*
X7904375Y-8462768D01*
X7932946Y-8462768D01*
X7951994Y-8472292D01*
X7961518Y-8481815D01*
X7971042Y-8500863D01*
X7971042Y-8558006D01*
X7961518Y-8577054D01*
X7951994Y-8586577D01*
X7932946Y-8596101D01*
X7904375Y-8596101D01*
X8028184Y-8462768D02*
X8104375Y-8462768D01*
X8056756Y-8396101D02*
X8056756Y-8567530D01*
X8066280Y-8586577D01*
X8085327Y-8596101D01*
X8104375Y-8596101D01*
X8323423Y-8462768D02*
X8323423Y-8662768D01*
X8323423Y-8472292D02*
X8342470Y-8462768D01*
X8380565Y-8462768D01*
X8399613Y-8472292D01*
X8409137Y-8481815D01*
X8418661Y-8500863D01*
X8418661Y-8558006D01*
X8409137Y-8577054D01*
X8399613Y-8586577D01*
X8380565Y-8596101D01*
X8342470Y-8596101D01*
X8323423Y-8586577D01*
X8532946Y-8596101D02*
X8513899Y-8586577D01*
X8504375Y-8567530D01*
X8504375Y-8396101D01*
X8694851Y-8596101D02*
X8694851Y-8491339D01*
X8685327Y-8472292D01*
X8666280Y-8462768D01*
X8628185Y-8462768D01*
X8609137Y-8472292D01*
X8694851Y-8586577D02*
X8675804Y-8596101D01*
X8628185Y-8596101D01*
X8609137Y-8586577D01*
X8599613Y-8567530D01*
X8599613Y-8548482D01*
X8609137Y-8529435D01*
X8628185Y-8519911D01*
X8675804Y-8519911D01*
X8694851Y-8510387D01*
X8761518Y-8462768D02*
X8837708Y-8462768D01*
X8790089Y-8396101D02*
X8790089Y-8567530D01*
X8799613Y-8586577D01*
X8818661Y-8596101D01*
X8837708Y-8596101D01*
X8980565Y-8586577D02*
X8961518Y-8596101D01*
X8923423Y-8596101D01*
X8904375Y-8586577D01*
X8894851Y-8567530D01*
X8894851Y-8491339D01*
X8904375Y-8472292D01*
X8923423Y-8462768D01*
X8961518Y-8462768D01*
X8980565Y-8472292D01*
X8990089Y-8491339D01*
X8990089Y-8510387D01*
X8894851Y-8529435D01*
X9161518Y-8596101D02*
X9161518Y-8396101D01*
X9161518Y-8586577D02*
X9142470Y-8596101D01*
X9104375Y-8596101D01*
X9085327Y-8586577D01*
X9075804Y-8577054D01*
X9066280Y-8558006D01*
X9066280Y-8500863D01*
X9075804Y-8481815D01*
X9085327Y-8472292D01*
X9104375Y-8462768D01*
X9142470Y-8462768D01*
X9161518Y-8472292D01*
X9237708Y-8672292D02*
X9247232Y-8662768D01*
X9266280Y-8634196D01*
X9275804Y-8615149D01*
X9285327Y-8586577D01*
X9294851Y-8538958D01*
X9294851Y-8500863D01*
X9285327Y-8453244D01*
X9275804Y-8424673D01*
X9266280Y-8405625D01*
X9247232Y-8377053D01*
X9237708Y-8367530D01*
X2294375Y-8800625D02*
G75*
G03*
X2294375Y-8800625I-100000J0D01*
G01*
X2532946Y-8691101D02*
X2656756Y-8691101D01*
X2590089Y-8767292D01*
X2618661Y-8767292D01*
X2637708Y-8776815D01*
X2647232Y-8786339D01*
X2656756Y-8805387D01*
X2656756Y-8853006D01*
X2647232Y-8872054D01*
X2637708Y-8881577D01*
X2618661Y-8891101D01*
X2561518Y-8891101D01*
X2542470Y-8881577D01*
X2532946Y-8872054D01*
X2742470Y-8872054D02*
X2751994Y-8881577D01*
X2742470Y-8891101D01*
X2732946Y-8881577D01*
X2742470Y-8872054D01*
X2742470Y-8891101D01*
X2847232Y-8891101D02*
X2885327Y-8891101D01*
X2904375Y-8881577D01*
X2913899Y-8872054D01*
X2932946Y-8843482D01*
X2942470Y-8805387D01*
X2942470Y-8729196D01*
X2932946Y-8710149D01*
X2923423Y-8700625D01*
X2904375Y-8691101D01*
X2866280Y-8691101D01*
X2847232Y-8700625D01*
X2837708Y-8710149D01*
X2828184Y-8729196D01*
X2828184Y-8776815D01*
X2837708Y-8795863D01*
X2847232Y-8805387D01*
X2866280Y-8814911D01*
X2904375Y-8814911D01*
X2923423Y-8805387D01*
X2932946Y-8795863D01*
X2942470Y-8776815D01*
X3056756Y-8776815D02*
X3037708Y-8767292D01*
X3028184Y-8757768D01*
X3018661Y-8738720D01*
X3018661Y-8729196D01*
X3028184Y-8710149D01*
X3037708Y-8700625D01*
X3056756Y-8691101D01*
X3094851Y-8691101D01*
X3113899Y-8700625D01*
X3123423Y-8710149D01*
X3132946Y-8729196D01*
X3132946Y-8738720D01*
X3123423Y-8757768D01*
X3113899Y-8767292D01*
X3094851Y-8776815D01*
X3056756Y-8776815D01*
X3037708Y-8786339D01*
X3028184Y-8795863D01*
X3018661Y-8814911D01*
X3018661Y-8853006D01*
X3028184Y-8872054D01*
X3037708Y-8881577D01*
X3056756Y-8891101D01*
X3094851Y-8891101D01*
X3113899Y-8881577D01*
X3123423Y-8872054D01*
X3132946Y-8853006D01*
X3132946Y-8814911D01*
X3123423Y-8795863D01*
X3113899Y-8786339D01*
X3094851Y-8776815D01*
X3247232Y-8776815D02*
X3228184Y-8767292D01*
X3218661Y-8757768D01*
X3209137Y-8738720D01*
X3209137Y-8729196D01*
X3218661Y-8710149D01*
X3228184Y-8700625D01*
X3247232Y-8691101D01*
X3285327Y-8691101D01*
X3304375Y-8700625D01*
X3313899Y-8710149D01*
X3323423Y-8729196D01*
X3323423Y-8738720D01*
X3313899Y-8757768D01*
X3304375Y-8767292D01*
X3285327Y-8776815D01*
X3247232Y-8776815D01*
X3228184Y-8786339D01*
X3218661Y-8795863D01*
X3209137Y-8814911D01*
X3209137Y-8853006D01*
X3218661Y-8872054D01*
X3228184Y-8881577D01*
X3247232Y-8891101D01*
X3285327Y-8891101D01*
X3304375Y-8881577D01*
X3313899Y-8872054D01*
X3323423Y-8853006D01*
X3323423Y-8814911D01*
X3313899Y-8795863D01*
X3304375Y-8786339D01*
X3285327Y-8776815D01*
X3409137Y-8891101D02*
X3409137Y-8757768D01*
X3409137Y-8776815D02*
X3418661Y-8767292D01*
X3437708Y-8757768D01*
X3466280Y-8757768D01*
X3485327Y-8767292D01*
X3494851Y-8786339D01*
X3494851Y-8891101D01*
X3494851Y-8786339D02*
X3504375Y-8767292D01*
X3523423Y-8757768D01*
X3551994Y-8757768D01*
X3571042Y-8767292D01*
X3580565Y-8786339D01*
X3580565Y-8891101D01*
X3675803Y-8891101D02*
X3675803Y-8757768D01*
X3675803Y-8776815D02*
X3685327Y-8767292D01*
X3704375Y-8757768D01*
X3732946Y-8757768D01*
X3751994Y-8767292D01*
X3761518Y-8786339D01*
X3761518Y-8891101D01*
X3761518Y-8786339D02*
X3771042Y-8767292D01*
X3790089Y-8757768D01*
X3818661Y-8757768D01*
X3837708Y-8767292D01*
X3847232Y-8786339D01*
X3847232Y-8891101D01*
X4237708Y-8681577D02*
X4066280Y-8938720D01*
X4494851Y-8691101D02*
X4513899Y-8691101D01*
X4532946Y-8700625D01*
X4542470Y-8710149D01*
X4551994Y-8729196D01*
X4561518Y-8767292D01*
X4561518Y-8814911D01*
X4551994Y-8853006D01*
X4542470Y-8872054D01*
X4532946Y-8881577D01*
X4513899Y-8891101D01*
X4494851Y-8891101D01*
X4475804Y-8881577D01*
X4466280Y-8872054D01*
X4456756Y-8853006D01*
X4447232Y-8814911D01*
X4447232Y-8767292D01*
X4456756Y-8729196D01*
X4466280Y-8710149D01*
X4475804Y-8700625D01*
X4494851Y-8691101D01*
X4647232Y-8872054D02*
X4656756Y-8881577D01*
X4647232Y-8891101D01*
X4637708Y-8881577D01*
X4647232Y-8872054D01*
X4647232Y-8891101D01*
X4847232Y-8891101D02*
X4732946Y-8891101D01*
X4790089Y-8891101D02*
X4790089Y-8691101D01*
X4771042Y-8719673D01*
X4751994Y-8738720D01*
X4732946Y-8748244D01*
X5028185Y-8691101D02*
X4932946Y-8691101D01*
X4923423Y-8786339D01*
X4932946Y-8776815D01*
X4951994Y-8767292D01*
X4999613Y-8767292D01*
X5018661Y-8776815D01*
X5028185Y-8786339D01*
X5037708Y-8805387D01*
X5037708Y-8853006D01*
X5028185Y-8872054D01*
X5018661Y-8881577D01*
X4999613Y-8891101D01*
X4951994Y-8891101D01*
X4932946Y-8881577D01*
X4923423Y-8872054D01*
X5104375Y-8691101D02*
X5237708Y-8691101D01*
X5151994Y-8891101D01*
X5351994Y-8691101D02*
X5371042Y-8691101D01*
X5390089Y-8700625D01*
X5399613Y-8710149D01*
X5409137Y-8729196D01*
X5418661Y-8767292D01*
X5418661Y-8814911D01*
X5409137Y-8853006D01*
X5399613Y-8872054D01*
X5390089Y-8881577D01*
X5371042Y-8891101D01*
X5351994Y-8891101D01*
X5332946Y-8881577D01*
X5323423Y-8872054D01*
X5313899Y-8853006D01*
X5304375Y-8814911D01*
X5304375Y-8767292D01*
X5313899Y-8729196D01*
X5323423Y-8710149D01*
X5332946Y-8700625D01*
X5351994Y-8691101D01*
X5494851Y-8691101D02*
X5494851Y-8729196D01*
X5571042Y-8691101D02*
X5571042Y-8729196D01*
X5866280Y-8967292D02*
X5856756Y-8957768D01*
X5837708Y-8929196D01*
X5828184Y-8910149D01*
X5818661Y-8881577D01*
X5809137Y-8833958D01*
X5809137Y-8795863D01*
X5818661Y-8748244D01*
X5828184Y-8719673D01*
X5837708Y-8700625D01*
X5856756Y-8672054D01*
X5866280Y-8662530D01*
X6047232Y-8891101D02*
X5932946Y-8891101D01*
X5990089Y-8891101D02*
X5990089Y-8691101D01*
X5971042Y-8719673D01*
X5951994Y-8738720D01*
X5932946Y-8748244D01*
X6113899Y-8691101D02*
X6237708Y-8691101D01*
X6171042Y-8767292D01*
X6199613Y-8767292D01*
X6218661Y-8776815D01*
X6228184Y-8786339D01*
X6237708Y-8805387D01*
X6237708Y-8853006D01*
X6228184Y-8872054D01*
X6218661Y-8881577D01*
X6199613Y-8891101D01*
X6142470Y-8891101D01*
X6123423Y-8881577D01*
X6113899Y-8872054D01*
X6475803Y-8891101D02*
X6475803Y-8691101D01*
X6561518Y-8891101D02*
X6561518Y-8786339D01*
X6551994Y-8767292D01*
X6532946Y-8757768D01*
X6504375Y-8757768D01*
X6485327Y-8767292D01*
X6475803Y-8776815D01*
X6685327Y-8891101D02*
X6666280Y-8881577D01*
X6656756Y-8872054D01*
X6647232Y-8853006D01*
X6647232Y-8795863D01*
X6656756Y-8776815D01*
X6666280Y-8767292D01*
X6685327Y-8757768D01*
X6713899Y-8757768D01*
X6732946Y-8767292D01*
X6742470Y-8776815D01*
X6751994Y-8795863D01*
X6751994Y-8853006D01*
X6742470Y-8872054D01*
X6732946Y-8881577D01*
X6713899Y-8891101D01*
X6685327Y-8891101D01*
X6866280Y-8891101D02*
X6847232Y-8881577D01*
X6837708Y-8862530D01*
X6837708Y-8691101D01*
X7018661Y-8881577D02*
X6999613Y-8891101D01*
X6961518Y-8891101D01*
X6942470Y-8881577D01*
X6932946Y-8862530D01*
X6932946Y-8786339D01*
X6942470Y-8767292D01*
X6961518Y-8757768D01*
X6999613Y-8757768D01*
X7018661Y-8767292D01*
X7028184Y-8786339D01*
X7028184Y-8805387D01*
X6932946Y-8824435D01*
X7104375Y-8881577D02*
X7123423Y-8891101D01*
X7161518Y-8891101D01*
X7180565Y-8881577D01*
X7190089Y-8862530D01*
X7190089Y-8853006D01*
X7180565Y-8833958D01*
X7161518Y-8824435D01*
X7132946Y-8824435D01*
X7113899Y-8814911D01*
X7104375Y-8795863D01*
X7104375Y-8786339D01*
X7113899Y-8767292D01*
X7132946Y-8757768D01*
X7161518Y-8757768D01*
X7180565Y-8767292D01*
X7256756Y-8967292D02*
X7266280Y-8957768D01*
X7285327Y-8929196D01*
X7294851Y-8910149D01*
X7304375Y-8881577D01*
X7313899Y-8833958D01*
X7313899Y-8795863D01*
X7304375Y-8748244D01*
X7294851Y-8719673D01*
X7285327Y-8700625D01*
X7266280Y-8672054D01*
X7256756Y-8662530D01*
X7618661Y-8967292D02*
X7609137Y-8957768D01*
X7590089Y-8929196D01*
X7580565Y-8910149D01*
X7571042Y-8881577D01*
X7561518Y-8833958D01*
X7561518Y-8795863D01*
X7571042Y-8748244D01*
X7580565Y-8719673D01*
X7590089Y-8700625D01*
X7609137Y-8672054D01*
X7618661Y-8662530D01*
X7694851Y-8757768D02*
X7694851Y-8891101D01*
X7694851Y-8776815D02*
X7704375Y-8767292D01*
X7723423Y-8757768D01*
X7751994Y-8757768D01*
X7771042Y-8767292D01*
X7780565Y-8786339D01*
X7780565Y-8891101D01*
X7904375Y-8891101D02*
X7885327Y-8881577D01*
X7875803Y-8872054D01*
X7866280Y-8853006D01*
X7866280Y-8795863D01*
X7875803Y-8776815D01*
X7885327Y-8767292D01*
X7904375Y-8757768D01*
X7932946Y-8757768D01*
X7951994Y-8767292D01*
X7961518Y-8776815D01*
X7971042Y-8795863D01*
X7971042Y-8853006D01*
X7961518Y-8872054D01*
X7951994Y-8881577D01*
X7932946Y-8891101D01*
X7904375Y-8891101D01*
X8028184Y-8757768D02*
X8104375Y-8757768D01*
X8056756Y-8691101D02*
X8056756Y-8862530D01*
X8066280Y-8881577D01*
X8085327Y-8891101D01*
X8104375Y-8891101D01*
X8323423Y-8757768D02*
X8323423Y-8957768D01*
X8323423Y-8767292D02*
X8342470Y-8757768D01*
X8380565Y-8757768D01*
X8399613Y-8767292D01*
X8409137Y-8776815D01*
X8418661Y-8795863D01*
X8418661Y-8853006D01*
X8409137Y-8872054D01*
X8399613Y-8881577D01*
X8380565Y-8891101D01*
X8342470Y-8891101D01*
X8323423Y-8881577D01*
X8532946Y-8891101D02*
X8513899Y-8881577D01*
X8504375Y-8862530D01*
X8504375Y-8691101D01*
X8694851Y-8891101D02*
X8694851Y-8786339D01*
X8685327Y-8767292D01*
X8666280Y-8757768D01*
X8628185Y-8757768D01*
X8609137Y-8767292D01*
X8694851Y-8881577D02*
X8675804Y-8891101D01*
X8628185Y-8891101D01*
X8609137Y-8881577D01*
X8599613Y-8862530D01*
X8599613Y-8843482D01*
X8609137Y-8824435D01*
X8628185Y-8814911D01*
X8675804Y-8814911D01*
X8694851Y-8805387D01*
X8761518Y-8757768D02*
X8837708Y-8757768D01*
X8790089Y-8691101D02*
X8790089Y-8862530D01*
X8799613Y-8881577D01*
X8818661Y-8891101D01*
X8837708Y-8891101D01*
X8980565Y-8881577D02*
X8961518Y-8891101D01*
X8923423Y-8891101D01*
X8904375Y-8881577D01*
X8894851Y-8862530D01*
X8894851Y-8786339D01*
X8904375Y-8767292D01*
X8923423Y-8757768D01*
X8961518Y-8757768D01*
X8980565Y-8767292D01*
X8990089Y-8786339D01*
X8990089Y-8805387D01*
X8894851Y-8824435D01*
X9161518Y-8891101D02*
X9161518Y-8691101D01*
X9161518Y-8881577D02*
X9142470Y-8891101D01*
X9104375Y-8891101D01*
X9085327Y-8881577D01*
X9075804Y-8872054D01*
X9066280Y-8853006D01*
X9066280Y-8795863D01*
X9075804Y-8776815D01*
X9085327Y-8767292D01*
X9104375Y-8757768D01*
X9142470Y-8757768D01*
X9161518Y-8767292D01*
X9237708Y-8967292D02*
X9247232Y-8957768D01*
X9266280Y-8929196D01*
X9275804Y-8910149D01*
X9285327Y-8881577D01*
X9294851Y-8833958D01*
X9294851Y-8795863D01*
X9285327Y-8748244D01*
X9275804Y-8719673D01*
X9266280Y-8700625D01*
X9247232Y-8672054D01*
X9237708Y-8662530D01*
M02*
