M48
; DRILL file {KiCad (6.0.9)} date Thu Dec 29 20:36:52 2022
; FORMAT={-:-/ absolute / metric / decimal}
; #@! TF.CreationDate,2022-12-29T20:36:52-06:00
; #@! TF.GenerationSoftware,Kicad,Pcbnew,(6.0.9)
; #@! TF.FileFunction,NonPlated,1,2,NPTH
FMAT,2
METRIC
; #@! TA.AperFunction,NonPlated,NPTH,ComponentDrill
T1C1.750
; #@! TA.AperFunction,NonPlated,NPTH,ComponentDrill
T2C3.988
%
G90
G05
T1
X27.464Y-59.531
X37.624Y-59.531
X46.514Y-59.531
X56.674Y-59.531
X65.564Y-59.531
X75.724Y-59.531
X84.614Y-59.531
X94.774Y-59.531
X103.664Y-59.531
X113.824Y-59.531
X122.714Y-59.531
X132.874Y-59.531
X141.764Y-59.531
X151.924Y-59.531
X160.814Y-59.531
X170.974Y-59.531
X179.864Y-59.531
X190.024Y-59.531
X198.914Y-59.531
X209.074Y-59.531
X217.964Y-59.531
X228.124Y-59.531
X237.014Y-59.531
X247.174Y-59.531
X256.064Y-59.531
X266.224Y-59.531
T2
X32.544Y-59.531
X51.594Y-59.531
X70.644Y-59.531
X89.694Y-59.531
X108.744Y-59.531
X127.794Y-59.531
X146.844Y-59.531
X165.894Y-59.531
X184.944Y-59.531
X203.994Y-59.531
X223.044Y-59.531
X242.094Y-59.531
X261.144Y-59.531
T0
M30
