G04 #@! TF.GenerationSoftware,KiCad,Pcbnew,(6.0.9)*
G04 #@! TF.CreationDate,2022-12-29T20:36:47-06:00*
G04 #@! TF.ProjectId,Function Keys PCB,46756e63-7469-46f6-9e20-4b6579732050,rev?*
G04 #@! TF.SameCoordinates,Original*
G04 #@! TF.FileFunction,Soldermask,Top*
G04 #@! TF.FilePolarity,Negative*
%FSLAX46Y46*%
G04 Gerber Fmt 4.6, Leading zero omitted, Abs format (unit mm)*
G04 Created by KiCad (PCBNEW (6.0.9)) date 2022-12-29 20:36:47*
%MOMM*%
%LPD*%
G01*
G04 APERTURE LIST*
G04 Aperture macros list*
%AMRoundRect*
0 Rectangle with rounded corners*
0 $1 Rounding radius*
0 $2 $3 $4 $5 $6 $7 $8 $9 X,Y pos of 4 corners*
0 Add a 4 corners polygon primitive as box body*
4,1,4,$2,$3,$4,$5,$6,$7,$8,$9,$2,$3,0*
0 Add four circle primitives for the rounded corners*
1,1,$1+$1,$2,$3*
1,1,$1+$1,$4,$5*
1,1,$1+$1,$6,$7*
1,1,$1+$1,$8,$9*
0 Add four rect primitives between the rounded corners*
20,1,$1+$1,$2,$3,$4,$5,0*
20,1,$1+$1,$4,$5,$6,$7,0*
20,1,$1+$1,$6,$7,$8,$9,0*
20,1,$1+$1,$8,$9,$2,$3,0*%
G04 Aperture macros list end*
%ADD10C,3.987800*%
%ADD11C,1.750000*%
%ADD12R,1.200000X0.900000*%
%ADD13RoundRect,0.150000X0.150000X0.625000X-0.150000X0.625000X-0.150000X-0.625000X0.150000X-0.625000X0*%
%ADD14RoundRect,0.250000X0.350000X0.650000X-0.350000X0.650000X-0.350000X-0.650000X0.350000X-0.650000X0*%
G04 APERTURE END LIST*
D10*
X261143750Y-59531250D03*
D11*
X266223750Y-59531250D03*
X256063750Y-59531250D03*
D10*
X127793750Y-59531250D03*
D11*
X122713750Y-59531250D03*
X132873750Y-59531250D03*
D12*
X116681250Y-61181250D03*
X116681250Y-57881250D03*
D11*
X37623750Y-59531250D03*
D10*
X32543750Y-59531250D03*
D11*
X27463750Y-59531250D03*
X141763750Y-59531250D03*
X151923750Y-59531250D03*
D10*
X146843750Y-59531250D03*
D12*
X135731250Y-61181250D03*
X135731250Y-57881250D03*
X192881250Y-61181250D03*
X192881250Y-57881250D03*
X269081250Y-61181250D03*
X269081250Y-57881250D03*
X211931250Y-61181250D03*
X211931250Y-57881250D03*
X59531250Y-61181250D03*
X59531250Y-57881250D03*
X40481250Y-61181250D03*
X40481250Y-57881250D03*
D11*
X65563750Y-59531250D03*
X75723750Y-59531250D03*
D10*
X70643750Y-59531250D03*
D11*
X160813750Y-59531250D03*
D10*
X165893750Y-59531250D03*
D11*
X170973750Y-59531250D03*
X237013750Y-59531250D03*
D10*
X242093750Y-59531250D03*
D11*
X247173750Y-59531250D03*
D12*
X78581250Y-61181250D03*
X78581250Y-57881250D03*
D11*
X103663750Y-59531250D03*
X113823750Y-59531250D03*
D10*
X108743750Y-59531250D03*
X51593750Y-59531250D03*
D11*
X46513750Y-59531250D03*
X56673750Y-59531250D03*
X190023750Y-59531250D03*
X179863750Y-59531250D03*
D10*
X184943750Y-59531250D03*
D12*
X97631250Y-61181250D03*
X97631250Y-57881250D03*
X230981250Y-61181250D03*
X230981250Y-57881250D03*
D10*
X223043750Y-59531250D03*
D11*
X217963750Y-59531250D03*
X228123750Y-59531250D03*
D12*
X154781250Y-61118750D03*
X154781250Y-57818750D03*
D13*
X156343750Y-75025000D03*
X155343750Y-75025000D03*
X154343750Y-75025000D03*
X153343750Y-75025000D03*
X152343750Y-75025000D03*
X151343750Y-75025000D03*
X150343750Y-75025000D03*
X149343750Y-75025000D03*
X148343750Y-75025000D03*
X147343750Y-75025000D03*
X146343750Y-75025000D03*
X145343750Y-75025000D03*
X144343750Y-75025000D03*
X143343750Y-75025000D03*
X142343750Y-75025000D03*
X141343750Y-75025000D03*
X140343750Y-75025000D03*
X139343750Y-75025000D03*
X138343750Y-75025000D03*
X137343750Y-75025000D03*
D14*
X157643750Y-71150000D03*
X136043750Y-71150000D03*
D12*
X173831250Y-61181250D03*
X173831250Y-57881250D03*
X250031250Y-61181250D03*
X250031250Y-57881250D03*
D11*
X94773750Y-59531250D03*
X84613750Y-59531250D03*
D10*
X89693750Y-59531250D03*
X203993750Y-59531250D03*
D11*
X209073750Y-59531250D03*
X198913750Y-59531250D03*
M02*
