G04 #@! TF.GenerationSoftware,KiCad,Pcbnew,(6.0.9)*
G04 #@! TF.CreationDate,2023-04-02T22:47:36-05:00*
G04 #@! TF.ProjectId,Function Keys PCB,46756e63-7469-46f6-9e20-4b6579732050,rev?*
G04 #@! TF.SameCoordinates,Original*
G04 #@! TF.FileFunction,Legend,Bot*
G04 #@! TF.FilePolarity,Positive*
%FSLAX46Y46*%
G04 Gerber Fmt 4.6, Leading zero omitted, Abs format (unit mm)*
G04 Created by KiCad (PCBNEW (6.0.9)) date 2023-04-02 22:47:36*
%MOMM*%
%LPD*%
G01*
G04 APERTURE LIST*
G04 Aperture macros list*
%AMHorizOval*
0 Thick line with rounded ends*
0 $1 width*
0 $2 $3 position (X,Y) of the first rounded end (center of the circle)*
0 $4 $5 position (X,Y) of the second rounded end (center of the circle)*
0 Add line between two ends*
20,1,$1,$2,$3,$4,$5,0*
0 Add two circle primitives to create the rounded ends*
1,1,$1,$2,$3*
1,1,$1,$4,$5*%
G04 Aperture macros list end*
%ADD10C,3.987800*%
%ADD11C,1.750000*%
%ADD12HorizOval,2.250000X0.655001X0.730000X-0.655001X-0.730000X0*%
%ADD13C,2.250000*%
%ADD14HorizOval,2.250000X0.020000X0.290000X-0.020000X-0.290000X0*%
%ADD15R,1.700000X1.700000*%
%ADD16O,1.700000X1.700000*%
G04 APERTURE END LIST*
%LPC*%
D10*
X261143750Y-59531250D03*
D11*
X266223750Y-59531250D03*
X256063750Y-59531250D03*
D12*
X257988751Y-56261250D03*
D13*
X258643750Y-55531250D03*
D14*
X263663750Y-54741250D03*
D13*
X263683750Y-54451250D03*
D10*
X127793750Y-59531250D03*
D11*
X122713750Y-59531250D03*
X132873750Y-59531250D03*
D12*
X124638751Y-56261250D03*
D13*
X125293750Y-55531250D03*
D14*
X130313750Y-54741250D03*
D13*
X130333750Y-54451250D03*
D15*
X158268750Y-72137500D03*
D16*
X158268750Y-74677500D03*
X155728750Y-72137500D03*
X155728750Y-74677500D03*
X153188750Y-72137500D03*
X153188750Y-74677500D03*
X150648750Y-72137500D03*
X150648750Y-74677500D03*
X148108750Y-72137500D03*
X148108750Y-74677500D03*
X145568750Y-72137500D03*
X145568750Y-74677500D03*
X143028750Y-72137500D03*
X143028750Y-74677500D03*
X140488750Y-72137500D03*
X140488750Y-74677500D03*
X137948750Y-72137500D03*
X137948750Y-74677500D03*
X135408750Y-72137500D03*
X135408750Y-74677500D03*
D11*
X37623750Y-59531250D03*
D10*
X32543750Y-59531250D03*
D11*
X27463750Y-59531250D03*
D13*
X30043750Y-55531250D03*
D12*
X29388751Y-56261250D03*
D14*
X35063750Y-54741250D03*
D13*
X35083750Y-54451250D03*
D11*
X141763750Y-59531250D03*
X151923750Y-59531250D03*
D10*
X146843750Y-59531250D03*
D13*
X144343750Y-55531250D03*
D12*
X143688751Y-56261250D03*
D13*
X149383750Y-54451250D03*
D14*
X149363750Y-54741250D03*
D11*
X65563750Y-59531250D03*
X75723750Y-59531250D03*
D10*
X70643750Y-59531250D03*
D12*
X67488751Y-56261250D03*
D13*
X68143750Y-55531250D03*
X73183750Y-54451250D03*
D14*
X73163750Y-54741250D03*
D11*
X160813750Y-59531250D03*
D10*
X165893750Y-59531250D03*
D11*
X170973750Y-59531250D03*
D12*
X162738751Y-56261250D03*
D13*
X163393750Y-55531250D03*
D14*
X168413750Y-54741250D03*
D13*
X168433750Y-54451250D03*
D11*
X237013750Y-59531250D03*
D10*
X242093750Y-59531250D03*
D11*
X247173750Y-59531250D03*
D12*
X238938751Y-56261250D03*
D13*
X239593750Y-55531250D03*
X244633750Y-54451250D03*
D14*
X244613750Y-54741250D03*
D11*
X103663750Y-59531250D03*
X113823750Y-59531250D03*
D10*
X108743750Y-59531250D03*
D13*
X106243750Y-55531250D03*
D12*
X105588751Y-56261250D03*
D14*
X111263750Y-54741250D03*
D13*
X111283750Y-54451250D03*
D10*
X51593750Y-59531250D03*
D11*
X46513750Y-59531250D03*
X56673750Y-59531250D03*
D12*
X48438751Y-56261250D03*
D13*
X49093750Y-55531250D03*
D14*
X54113750Y-54741250D03*
D13*
X54133750Y-54451250D03*
D11*
X190023750Y-59531250D03*
X179863750Y-59531250D03*
D10*
X184943750Y-59531250D03*
D12*
X181788751Y-56261250D03*
D13*
X182443750Y-55531250D03*
X187483750Y-54451250D03*
D14*
X187463750Y-54741250D03*
D10*
X223043750Y-59531250D03*
D11*
X217963750Y-59531250D03*
X228123750Y-59531250D03*
D13*
X220543750Y-55531250D03*
D12*
X219888751Y-56261250D03*
D13*
X225583750Y-54451250D03*
D14*
X225563750Y-54741250D03*
D11*
X94773750Y-59531250D03*
X84613750Y-59531250D03*
D10*
X89693750Y-59531250D03*
D13*
X87193750Y-55531250D03*
D12*
X86538751Y-56261250D03*
D14*
X92213750Y-54741250D03*
D13*
X92233750Y-54451250D03*
D10*
X203993750Y-59531250D03*
D11*
X209073750Y-59531250D03*
X198913750Y-59531250D03*
D12*
X200838751Y-56261250D03*
D13*
X201493750Y-55531250D03*
X206533750Y-54451250D03*
D14*
X206513750Y-54741250D03*
M02*
