%TF.GenerationSoftware,KiCad,Pcbnew,(6.0.9)*%
%TF.CreationDate,2023-04-02T22:18:43-05:00*%
%TF.ProjectId,BasePCB,42617365-5043-4422-9e6b-696361645f70,rev?*%
%TF.SameCoordinates,Original*%
%TF.FileFunction,Drillmap*%
%TF.FilePolarity,Positive*%
%FSLAX45Y45*%
G04 Gerber Fmt 4.5, Leading zero omitted, Abs format (unit mm)*
G04 Created by KiCad (PCBNEW (6.0.9)) date 2023-04-02 22:18:43*
%MOMM*%
%LPD*%
G01*
G04 APERTURE LIST*
%ADD10C,0.150000*%
%ADD11C,0.100000*%
%ADD12C,0.200000*%
%ADD13C,0.175000*%
%ADD14C,0.398780*%
G04 APERTURE END LIST*
D10*
X-15716250Y4524375D02*
X-15716250Y14843125D01*
D11*
X-2916250Y5397500D02*
G75*
G03*
X-2916250Y5397500I-100000J0D01*
G01*
X-14822500Y14366875D02*
G75*
G03*
X-14822500Y14366875I-100000J0D01*
G01*
D10*
X-15716250Y4524375D02*
G75*
G03*
X-15478125Y4286250I238125J0D01*
G01*
X18573750Y4286250D02*
X-15478125Y4286250D01*
X-15478125Y15081250D02*
G75*
G03*
X-15716250Y14843125I0J-238125D01*
G01*
X18573750Y15081250D02*
X-15478125Y15081250D01*
D11*
X5418125Y5397500D02*
G75*
G03*
X5418125Y5397500I-100000J0D01*
G01*
X-4027500Y14366875D02*
G75*
G03*
X-4027500Y14366875I-100000J0D01*
G01*
X18276875Y4683125D02*
G75*
G03*
X18276875Y4683125I-100000J0D01*
G01*
X18176875Y4683125D02*
G75*
G03*
X18176875Y4683125I0J0D01*
G01*
X-9742500Y14366875D02*
G75*
G03*
X-9742500Y14366875I-100000J0D01*
G01*
X14546250Y9048750D02*
G75*
G03*
X14546250Y9048750I-100000J0D01*
G01*
D10*
X18811875Y4524375D02*
X18811875Y14843125D01*
D11*
X-217500Y14366875D02*
G75*
G03*
X-217500Y14366875I-100000J0D01*
G01*
D10*
X18811880Y14843125D02*
G75*
G03*
X18573750Y15081250I-238130J-5D01*
G01*
D11*
X14625625Y12858750D02*
G75*
G03*
X14625625Y12858750I-100000J0D01*
G01*
X-14822500Y4683125D02*
G75*
G03*
X-14822500Y4683125I-100000J0D01*
G01*
D10*
X18573750Y4286255D02*
G75*
G03*
X18811875Y4524375I0J238125D01*
G01*
D11*
X18276875Y14366875D02*
G75*
G03*
X18276875Y14366875I-100000J0D01*
G01*
X-7678750Y9048750D02*
G75*
G03*
X-7678750Y9048750I-100000J0D01*
G01*
D12*
D13*
X-10438000Y12946250D02*
X-10263000Y12771250D01*
X-10263000Y12946250D02*
X-10438000Y12771250D01*
X-10199875Y5326250D02*
X-10024875Y5151250D01*
X-10024875Y5326250D02*
X-10199875Y5151250D01*
X-9961750Y11041250D02*
X-9786750Y10866250D01*
X-9786750Y11041250D02*
X-9961750Y10866250D01*
X-9723625Y9136250D02*
X-9548625Y8961250D01*
X-9548625Y9136250D02*
X-9723625Y8961250D01*
X-9422000Y12946250D02*
X-9247000Y12771250D01*
X-9247000Y12946250D02*
X-9422000Y12771250D01*
X-9247375Y7231250D02*
X-9072375Y7056250D01*
X-9072375Y7231250D02*
X-9247375Y7056250D01*
X-9183875Y5326250D02*
X-9008875Y5151250D01*
X-9008875Y5326250D02*
X-9183875Y5151250D01*
X-8945750Y11041250D02*
X-8770750Y10866250D01*
X-8770750Y11041250D02*
X-8945750Y10866250D01*
X-8707625Y9136250D02*
X-8532625Y8961250D01*
X-8532625Y9136250D02*
X-8707625Y8961250D01*
X-8533000Y12946250D02*
X-8358000Y12771250D01*
X-8358000Y12946250D02*
X-8533000Y12771250D01*
X-8231375Y7231250D02*
X-8056375Y7056250D01*
X-8056375Y7231250D02*
X-8231375Y7056250D01*
X-7834500Y5326250D02*
X-7659500Y5151250D01*
X-7659500Y5326250D02*
X-7834500Y5151250D01*
X-7580500Y11041250D02*
X-7405500Y10866250D01*
X-7405500Y11041250D02*
X-7580500Y10866250D01*
X-7517000Y12946250D02*
X-7342000Y12771250D01*
X-7342000Y12946250D02*
X-7517000Y12771250D01*
X-7104250Y9136250D02*
X-6929250Y8961250D01*
X-6929250Y9136250D02*
X-7104250Y8961250D01*
X-6818500Y5326250D02*
X-6643500Y5151250D01*
X-6643500Y5326250D02*
X-6818500Y5151250D01*
X-6628000Y12946250D02*
X-6453000Y12771250D01*
X-6453000Y12946250D02*
X-6628000Y12771250D01*
X-6564500Y11041250D02*
X-6389500Y10866250D01*
X-6389500Y11041250D02*
X-6564500Y10866250D01*
X-6151750Y7231250D02*
X-5976750Y7056250D01*
X-5976750Y7231250D02*
X-6151750Y7056250D01*
X-6088250Y9136250D02*
X-5913250Y8961250D01*
X-5913250Y9136250D02*
X-6088250Y8961250D01*
X-5675500Y11041250D02*
X-5500500Y10866250D01*
X-5500500Y11041250D02*
X-5675500Y10866250D01*
X-5612000Y12946250D02*
X-5437000Y12771250D01*
X-5437000Y12946250D02*
X-5612000Y12771250D01*
X-5437375Y5326250D02*
X-5262375Y5151250D01*
X-5262375Y5326250D02*
X-5437375Y5151250D01*
X-5199250Y9136250D02*
X-5024250Y8961250D01*
X-5024250Y9136250D02*
X-5199250Y8961250D01*
X-5135750Y7231250D02*
X-4960750Y7056250D01*
X-4960750Y7231250D02*
X-5135750Y7056250D01*
X-4723000Y12946250D02*
X-4548000Y12771250D01*
X-4548000Y12946250D02*
X-4723000Y12771250D01*
X-4659500Y11041250D02*
X-4484500Y10866250D01*
X-4484500Y11041250D02*
X-4659500Y10866250D01*
X-4421375Y5326250D02*
X-4246375Y5151250D01*
X-4246375Y5326250D02*
X-4421375Y5151250D01*
X-4246750Y7231250D02*
X-4071750Y7056250D01*
X-4071750Y7231250D02*
X-4246750Y7056250D01*
X-4183250Y9136250D02*
X-4008250Y8961250D01*
X-4008250Y9136250D02*
X-4183250Y8961250D01*
X-3770500Y11041250D02*
X-3595500Y10866250D01*
X-3595500Y11041250D02*
X-3770500Y10866250D01*
X-3707000Y12946250D02*
X-3532000Y12771250D01*
X-3532000Y12946250D02*
X-3707000Y12771250D01*
X-3294250Y9136250D02*
X-3119250Y8961250D01*
X-3119250Y9136250D02*
X-3294250Y8961250D01*
X-3230750Y7231250D02*
X-3055750Y7056250D01*
X-3055750Y7231250D02*
X-3230750Y7056250D01*
X-2818000Y12946250D02*
X-2643000Y12771250D01*
X-2643000Y12946250D02*
X-2818000Y12771250D01*
X-2754500Y11041250D02*
X-2579500Y10866250D01*
X-2579500Y11041250D02*
X-2754500Y10866250D01*
X-2341750Y7231250D02*
X-2166750Y7056250D01*
X-2166750Y7231250D02*
X-2341750Y7056250D01*
X-2278250Y9136250D02*
X-2103250Y8961250D01*
X-2103250Y9136250D02*
X-2278250Y8961250D01*
X-1865500Y11041250D02*
X-1690500Y10866250D01*
X-1690500Y11041250D02*
X-1865500Y10866250D01*
X-1802000Y12946250D02*
X-1627000Y12771250D01*
X-1627000Y12946250D02*
X-1802000Y12771250D01*
X-1389250Y9136250D02*
X-1214250Y8961250D01*
X-1214250Y9136250D02*
X-1389250Y8961250D01*
X-1325750Y7231250D02*
X-1150750Y7056250D01*
X-1150750Y7231250D02*
X-1325750Y7056250D01*
X-913000Y12946250D02*
X-738000Y12771250D01*
X-738000Y12946250D02*
X-913000Y12771250D01*
X-849500Y11041250D02*
X-674500Y10866250D01*
X-674500Y11041250D02*
X-849500Y10866250D01*
X-436750Y7231250D02*
X-261750Y7056250D01*
X-261750Y7231250D02*
X-436750Y7056250D01*
X-373250Y9136250D02*
X-198250Y8961250D01*
X-198250Y9136250D02*
X-373250Y8961250D01*
X39500Y11041250D02*
X214500Y10866250D01*
X214500Y11041250D02*
X39500Y10866250D01*
X103000Y12946250D02*
X278000Y12771250D01*
X278000Y12946250D02*
X103000Y12771250D01*
X515750Y9136250D02*
X690750Y8961250D01*
X690750Y9136250D02*
X515750Y8961250D01*
X579250Y7231250D02*
X754250Y7056250D01*
X754250Y7231250D02*
X579250Y7056250D01*
X992000Y12946250D02*
X1167000Y12771250D01*
X1167000Y12946250D02*
X992000Y12771250D01*
X1055500Y11041250D02*
X1230500Y10866250D01*
X1230500Y11041250D02*
X1055500Y10866250D01*
X1468250Y7231250D02*
X1643250Y7056250D01*
X1643250Y7231250D02*
X1468250Y7056250D01*
X1531750Y9136250D02*
X1706750Y8961250D01*
X1706750Y9136250D02*
X1531750Y8961250D01*
X1706375Y5326250D02*
X1881375Y5151250D01*
X1881375Y5326250D02*
X1706375Y5151250D01*
X1944500Y11041250D02*
X2119500Y10866250D01*
X2119500Y11041250D02*
X1944500Y10866250D01*
X2008000Y12946250D02*
X2183000Y12771250D01*
X2183000Y12946250D02*
X2008000Y12771250D01*
X2420750Y9136250D02*
X2595750Y8961250D01*
X2595750Y9136250D02*
X2420750Y8961250D01*
X2484250Y7231250D02*
X2659250Y7056250D01*
X2659250Y7231250D02*
X2484250Y7056250D01*
X2722375Y5326250D02*
X2897375Y5151250D01*
X2897375Y5326250D02*
X2722375Y5151250D01*
X2897000Y12946250D02*
X3072000Y12771250D01*
X3072000Y12946250D02*
X2897000Y12771250D01*
X2960500Y11041250D02*
X3135500Y10866250D01*
X3135500Y11041250D02*
X2960500Y10866250D01*
X3373250Y7231250D02*
X3548250Y7056250D01*
X3548250Y7231250D02*
X3373250Y7056250D01*
X3436750Y9136250D02*
X3611750Y8961250D01*
X3611750Y9136250D02*
X3436750Y8961250D01*
X3849500Y11041250D02*
X4024500Y10866250D01*
X4024500Y11041250D02*
X3849500Y10866250D01*
X3913000Y12946250D02*
X4088000Y12771250D01*
X4088000Y12946250D02*
X3913000Y12771250D01*
X4325750Y9136250D02*
X4500750Y8961250D01*
X4500750Y9136250D02*
X4325750Y8961250D01*
X4389250Y7231250D02*
X4564250Y7056250D01*
X4564250Y7231250D02*
X4389250Y7056250D01*
X4802000Y12946250D02*
X4977000Y12771250D01*
X4977000Y12946250D02*
X4802000Y12771250D01*
X4865500Y11041250D02*
X5040500Y10866250D01*
X5040500Y11041250D02*
X4865500Y10866250D01*
X5278250Y7231250D02*
X5453250Y7056250D01*
X5453250Y7231250D02*
X5278250Y7056250D01*
X5341750Y9136250D02*
X5516750Y8961250D01*
X5516750Y9136250D02*
X5341750Y8961250D01*
X5754500Y11041250D02*
X5929500Y10866250D01*
X5929500Y11041250D02*
X5754500Y10866250D01*
X5818000Y12946250D02*
X5993000Y12771250D01*
X5993000Y12946250D02*
X5818000Y12771250D01*
X6230750Y9136250D02*
X6405750Y8961250D01*
X6405750Y9136250D02*
X6230750Y8961250D01*
X6294250Y7231250D02*
X6469250Y7056250D01*
X6469250Y7231250D02*
X6294250Y7056250D01*
X6707000Y12946250D02*
X6882000Y12771250D01*
X6882000Y12946250D02*
X6707000Y12771250D01*
X6770500Y11041250D02*
X6945500Y10866250D01*
X6945500Y11041250D02*
X6770500Y10866250D01*
X7183250Y7231250D02*
X7358250Y7056250D01*
X7358250Y7231250D02*
X7183250Y7056250D01*
X7246750Y9136250D02*
X7421750Y8961250D01*
X7421750Y9136250D02*
X7246750Y8961250D01*
X7659500Y11041250D02*
X7834500Y10866250D01*
X7834500Y11041250D02*
X7659500Y10866250D01*
X7723000Y12946250D02*
X7898000Y12771250D01*
X7898000Y12946250D02*
X7723000Y12771250D01*
X8135750Y9136250D02*
X8310750Y8961250D01*
X8310750Y9136250D02*
X8135750Y8961250D01*
X8199250Y7231250D02*
X8374250Y7056250D01*
X8374250Y7231250D02*
X8199250Y7056250D01*
X8612000Y12946250D02*
X8787000Y12771250D01*
X8787000Y12946250D02*
X8612000Y12771250D01*
X8675500Y11041250D02*
X8850500Y10866250D01*
X8850500Y11041250D02*
X8675500Y10866250D01*
X8850125Y5326250D02*
X9025125Y5151250D01*
X9025125Y5326250D02*
X8850125Y5151250D01*
X9088250Y7231250D02*
X9263250Y7056250D01*
X9263250Y7231250D02*
X9088250Y7056250D01*
X9151750Y9136250D02*
X9326750Y8961250D01*
X9326750Y9136250D02*
X9151750Y8961250D01*
X9564500Y11041250D02*
X9739500Y10866250D01*
X9739500Y11041250D02*
X9564500Y10866250D01*
X9628000Y12946250D02*
X9803000Y12771250D01*
X9803000Y12946250D02*
X9628000Y12771250D01*
X9866125Y5326250D02*
X10041125Y5151250D01*
X10041125Y5326250D02*
X9866125Y5151250D01*
X10040750Y9136250D02*
X10215750Y8961250D01*
X10215750Y9136250D02*
X10040750Y8961250D01*
X10104250Y7231250D02*
X10279250Y7056250D01*
X10279250Y7231250D02*
X10104250Y7056250D01*
X10517000Y12946250D02*
X10692000Y12771250D01*
X10692000Y12946250D02*
X10517000Y12771250D01*
X10580500Y11041250D02*
X10755500Y10866250D01*
X10755500Y11041250D02*
X10580500Y10866250D01*
X10993250Y7231250D02*
X11168250Y7056250D01*
X11168250Y7231250D02*
X10993250Y7056250D01*
X11056750Y9136250D02*
X11231750Y8961250D01*
X11231750Y9136250D02*
X11056750Y8961250D01*
X11310750Y5326250D02*
X11485750Y5151250D01*
X11485750Y5326250D02*
X11310750Y5151250D01*
X11469500Y11041250D02*
X11644500Y10866250D01*
X11644500Y11041250D02*
X11469500Y10866250D01*
X11533000Y12946250D02*
X11708000Y12771250D01*
X11708000Y12946250D02*
X11533000Y12771250D01*
X11945750Y9136250D02*
X12120750Y8961250D01*
X12120750Y9136250D02*
X11945750Y8961250D01*
X12009250Y7231250D02*
X12184250Y7056250D01*
X12184250Y7231250D02*
X12009250Y7056250D01*
X12326750Y5326250D02*
X12501750Y5151250D01*
X12501750Y5326250D02*
X12326750Y5151250D01*
X12422000Y12946250D02*
X12597000Y12771250D01*
X12597000Y12946250D02*
X12422000Y12771250D01*
X12485500Y11041250D02*
X12660500Y10866250D01*
X12660500Y11041250D02*
X12485500Y10866250D01*
X12961750Y9136250D02*
X13136750Y8961250D01*
X13136750Y9136250D02*
X12961750Y8961250D01*
X13374500Y11041250D02*
X13549500Y10866250D01*
X13549500Y11041250D02*
X13374500Y10866250D01*
X13438000Y12946250D02*
X13613000Y12771250D01*
X13613000Y12946250D02*
X13438000Y12771250D01*
X13612625Y5326250D02*
X13787625Y5151250D01*
X13787625Y5326250D02*
X13612625Y5151250D01*
X14390500Y11041250D02*
X14565500Y10866250D01*
X14565500Y11041250D02*
X14390500Y10866250D01*
X14565125Y7231250D02*
X14740125Y7056250D01*
X14740125Y7231250D02*
X14565125Y7056250D01*
X14628625Y5326250D02*
X14803625Y5151250D01*
X14803625Y5326250D02*
X14628625Y5151250D01*
X15041375Y9136250D02*
X15216375Y8961250D01*
X15216375Y9136250D02*
X15041375Y8961250D01*
X15279500Y12946250D02*
X15454500Y12771250D01*
X15454500Y12946250D02*
X15279500Y12771250D01*
X15581125Y7231250D02*
X15756125Y7056250D01*
X15756125Y7231250D02*
X15581125Y7056250D01*
X15755750Y11041250D02*
X15930750Y10866250D01*
X15930750Y11041250D02*
X15755750Y10866250D01*
X15993875Y5326250D02*
X16168875Y5151250D01*
X16168875Y5326250D02*
X15993875Y5151250D01*
X16057375Y9136250D02*
X16232375Y8961250D01*
X16232375Y9136250D02*
X16057375Y8961250D01*
X16295500Y12946250D02*
X16470500Y12771250D01*
X16470500Y12946250D02*
X16295500Y12771250D01*
X16771750Y11041250D02*
X16946750Y10866250D01*
X16946750Y11041250D02*
X16771750Y10866250D01*
X17009875Y5326250D02*
X17184875Y5151250D01*
X17184875Y5326250D02*
X17009875Y5151250D01*
D14*
X-9643110Y12858750D02*
G75*
G03*
X-9643110Y12858750I-199390J0D01*
G01*
X-9404985Y5238750D02*
G75*
G03*
X-9404985Y5238750I-199390J0D01*
G01*
X-9166860Y10953750D02*
G75*
G03*
X-9166860Y10953750I-199390J0D01*
G01*
X-8928735Y9048750D02*
G75*
G03*
X-8928735Y9048750I-199390J0D01*
G01*
X-8452485Y7143750D02*
G75*
G03*
X-8452485Y7143750I-199390J0D01*
G01*
X-7738110Y12858750D02*
G75*
G03*
X-7738110Y12858750I-199390J0D01*
G01*
X-7039610Y5238750D02*
G75*
G03*
X-7039610Y5238750I-199390J0D01*
G01*
X-6785610Y10953750D02*
G75*
G03*
X-6785610Y10953750I-199390J0D01*
G01*
X-6309360Y9048750D02*
G75*
G03*
X-6309360Y9048750I-199390J0D01*
G01*
X-5833110Y12858750D02*
G75*
G03*
X-5833110Y12858750I-199390J0D01*
G01*
X-5356860Y7143750D02*
G75*
G03*
X-5356860Y7143750I-199390J0D01*
G01*
X-4880610Y10953750D02*
G75*
G03*
X-4880610Y10953750I-199390J0D01*
G01*
X-4642485Y5238750D02*
G75*
G03*
X-4642485Y5238750I-199390J0D01*
G01*
X-4404360Y9048750D02*
G75*
G03*
X-4404360Y9048750I-199390J0D01*
G01*
X-3928110Y12858750D02*
G75*
G03*
X-3928110Y12858750I-199390J0D01*
G01*
X-3451860Y7143750D02*
G75*
G03*
X-3451860Y7143750I-199390J0D01*
G01*
X-2975610Y10953750D02*
G75*
G03*
X-2975610Y10953750I-199390J0D01*
G01*
X-2499360Y9048750D02*
G75*
G03*
X-2499360Y9048750I-199390J0D01*
G01*
X-2023110Y12858750D02*
G75*
G03*
X-2023110Y12858750I-199390J0D01*
G01*
X-1546860Y7143750D02*
G75*
G03*
X-1546860Y7143750I-199390J0D01*
G01*
X-1070610Y10953750D02*
G75*
G03*
X-1070610Y10953750I-199390J0D01*
G01*
X-594360Y9048750D02*
G75*
G03*
X-594360Y9048750I-199390J0D01*
G01*
X-118110Y12858750D02*
G75*
G03*
X-118110Y12858750I-199390J0D01*
G01*
X358140Y7143750D02*
G75*
G03*
X358140Y7143750I-199390J0D01*
G01*
X834390Y10953750D02*
G75*
G03*
X834390Y10953750I-199390J0D01*
G01*
X1310640Y9048750D02*
G75*
G03*
X1310640Y9048750I-199390J0D01*
G01*
X1786890Y12858750D02*
G75*
G03*
X1786890Y12858750I-199390J0D01*
G01*
X2263140Y7143750D02*
G75*
G03*
X2263140Y7143750I-199390J0D01*
G01*
X2501265Y5238750D02*
G75*
G03*
X2501265Y5238750I-199390J0D01*
G01*
X2739390Y10953750D02*
G75*
G03*
X2739390Y10953750I-199390J0D01*
G01*
X3215640Y9048750D02*
G75*
G03*
X3215640Y9048750I-199390J0D01*
G01*
X3691890Y12858750D02*
G75*
G03*
X3691890Y12858750I-199390J0D01*
G01*
X4168140Y7143750D02*
G75*
G03*
X4168140Y7143750I-199390J0D01*
G01*
X4644390Y10953750D02*
G75*
G03*
X4644390Y10953750I-199390J0D01*
G01*
X5120640Y9048750D02*
G75*
G03*
X5120640Y9048750I-199390J0D01*
G01*
X5596890Y12858750D02*
G75*
G03*
X5596890Y12858750I-199390J0D01*
G01*
X6073140Y7143750D02*
G75*
G03*
X6073140Y7143750I-199390J0D01*
G01*
X6549390Y10953750D02*
G75*
G03*
X6549390Y10953750I-199390J0D01*
G01*
X7025640Y9048750D02*
G75*
G03*
X7025640Y9048750I-199390J0D01*
G01*
X7501890Y12858750D02*
G75*
G03*
X7501890Y12858750I-199390J0D01*
G01*
X7978140Y7143750D02*
G75*
G03*
X7978140Y7143750I-199390J0D01*
G01*
X8454390Y10953750D02*
G75*
G03*
X8454390Y10953750I-199390J0D01*
G01*
X8930640Y9048750D02*
G75*
G03*
X8930640Y9048750I-199390J0D01*
G01*
X9406890Y12858750D02*
G75*
G03*
X9406890Y12858750I-199390J0D01*
G01*
X9645015Y5238750D02*
G75*
G03*
X9645015Y5238750I-199390J0D01*
G01*
X9883140Y7143750D02*
G75*
G03*
X9883140Y7143750I-199390J0D01*
G01*
X10359390Y10953750D02*
G75*
G03*
X10359390Y10953750I-199390J0D01*
G01*
X10835640Y9048750D02*
G75*
G03*
X10835640Y9048750I-199390J0D01*
G01*
X11311890Y12858750D02*
G75*
G03*
X11311890Y12858750I-199390J0D01*
G01*
X11788140Y7143750D02*
G75*
G03*
X11788140Y7143750I-199390J0D01*
G01*
X12105640Y5238750D02*
G75*
G03*
X12105640Y5238750I-199390J0D01*
G01*
X12264390Y10953750D02*
G75*
G03*
X12264390Y10953750I-199390J0D01*
G01*
X12740640Y9048750D02*
G75*
G03*
X12740640Y9048750I-199390J0D01*
G01*
X13216890Y12858750D02*
G75*
G03*
X13216890Y12858750I-199390J0D01*
G01*
X14169390Y10953750D02*
G75*
G03*
X14169390Y10953750I-199390J0D01*
G01*
X14407515Y5238750D02*
G75*
G03*
X14407515Y5238750I-199390J0D01*
G01*
X15360015Y7143750D02*
G75*
G03*
X15360015Y7143750I-199390J0D01*
G01*
X15836265Y9048750D02*
G75*
G03*
X15836265Y9048750I-199390J0D01*
G01*
X16074390Y12858750D02*
G75*
G03*
X16074390Y12858750I-199390J0D01*
G01*
X16550640Y10953750D02*
G75*
G03*
X16550640Y10953750I-199390J0D01*
G01*
X16788765Y5238750D02*
G75*
G03*
X16788765Y5238750I-199390J0D01*
G01*
D12*
X-15466131Y3968274D02*
X-15466131Y4168274D01*
X-15418512Y4168274D01*
X-15389940Y4158750D01*
X-15370893Y4139702D01*
X-15361369Y4120655D01*
X-15351845Y4082559D01*
X-15351845Y4053988D01*
X-15361369Y4015893D01*
X-15370893Y3996845D01*
X-15389940Y3977798D01*
X-15418512Y3968274D01*
X-15466131Y3968274D01*
X-15266131Y3968274D02*
X-15266131Y4101607D01*
X-15266131Y4063512D02*
X-15256607Y4082559D01*
X-15247083Y4092083D01*
X-15228036Y4101607D01*
X-15208988Y4101607D01*
X-15142321Y3968274D02*
X-15142321Y4101607D01*
X-15142321Y4168274D02*
X-15151845Y4158750D01*
X-15142321Y4149226D01*
X-15132798Y4158750D01*
X-15142321Y4168274D01*
X-15142321Y4149226D01*
X-15018512Y3968274D02*
X-15037559Y3977798D01*
X-15047083Y3996845D01*
X-15047083Y4168274D01*
X-14913750Y3968274D02*
X-14932798Y3977798D01*
X-14942321Y3996845D01*
X-14942321Y4168274D01*
X-14685178Y3968274D02*
X-14685178Y4168274D01*
X-14618512Y4025417D01*
X-14551845Y4168274D01*
X-14551845Y3968274D01*
X-14370893Y3968274D02*
X-14370893Y4073036D01*
X-14380417Y4092083D01*
X-14399464Y4101607D01*
X-14437559Y4101607D01*
X-14456607Y4092083D01*
X-14370893Y3977798D02*
X-14389940Y3968274D01*
X-14437559Y3968274D01*
X-14456607Y3977798D01*
X-14466131Y3996845D01*
X-14466131Y4015893D01*
X-14456607Y4034940D01*
X-14437559Y4044464D01*
X-14389940Y4044464D01*
X-14370893Y4053988D01*
X-14275655Y4101607D02*
X-14275655Y3901607D01*
X-14275655Y4092083D02*
X-14256607Y4101607D01*
X-14218512Y4101607D01*
X-14199464Y4092083D01*
X-14189940Y4082559D01*
X-14180417Y4063512D01*
X-14180417Y4006369D01*
X-14189940Y3987321D01*
X-14199464Y3977798D01*
X-14218512Y3968274D01*
X-14256607Y3968274D01*
X-14275655Y3977798D01*
X-14094702Y3987321D02*
X-14085178Y3977798D01*
X-14094702Y3968274D01*
X-14104226Y3977798D01*
X-14094702Y3987321D01*
X-14094702Y3968274D01*
X-14094702Y4092083D02*
X-14085178Y4082559D01*
X-14094702Y4073036D01*
X-14104226Y4082559D01*
X-14094702Y4092083D01*
X-14094702Y4073036D01*
D13*
X-15898750Y3726250D02*
X-15723750Y3551250D01*
X-15723750Y3726250D02*
X-15898750Y3551250D01*
D12*
X-15361369Y3548274D02*
X-15475655Y3548274D01*
X-15418512Y3548274D02*
X-15418512Y3748274D01*
X-15437559Y3719702D01*
X-15456607Y3700655D01*
X-15475655Y3691131D01*
X-15275655Y3567321D02*
X-15266131Y3557798D01*
X-15275655Y3548274D01*
X-15285178Y3557798D01*
X-15275655Y3567321D01*
X-15275655Y3548274D01*
X-15199464Y3748274D02*
X-15066131Y3748274D01*
X-15151845Y3548274D01*
X-14894702Y3748274D02*
X-14989940Y3748274D01*
X-14999464Y3653036D01*
X-14989940Y3662559D01*
X-14970893Y3672083D01*
X-14923274Y3672083D01*
X-14904226Y3662559D01*
X-14894702Y3653036D01*
X-14885178Y3633988D01*
X-14885178Y3586369D01*
X-14894702Y3567321D01*
X-14904226Y3557798D01*
X-14923274Y3548274D01*
X-14970893Y3548274D01*
X-14989940Y3557798D01*
X-14999464Y3567321D01*
X-14761369Y3748274D02*
X-14742321Y3748274D01*
X-14723274Y3738750D01*
X-14713750Y3729226D01*
X-14704226Y3710178D01*
X-14694702Y3672083D01*
X-14694702Y3624464D01*
X-14704226Y3586369D01*
X-14713750Y3567321D01*
X-14723274Y3557798D01*
X-14742321Y3548274D01*
X-14761369Y3548274D01*
X-14780417Y3557798D01*
X-14789940Y3567321D01*
X-14799464Y3586369D01*
X-14808988Y3624464D01*
X-14808988Y3672083D01*
X-14799464Y3710178D01*
X-14789940Y3729226D01*
X-14780417Y3738750D01*
X-14761369Y3748274D01*
X-14608988Y3548274D02*
X-14608988Y3681607D01*
X-14608988Y3662559D02*
X-14599464Y3672083D01*
X-14580417Y3681607D01*
X-14551845Y3681607D01*
X-14532798Y3672083D01*
X-14523274Y3653036D01*
X-14523274Y3548274D01*
X-14523274Y3653036D02*
X-14513750Y3672083D01*
X-14494702Y3681607D01*
X-14466131Y3681607D01*
X-14447083Y3672083D01*
X-14437559Y3653036D01*
X-14437559Y3548274D01*
X-14342321Y3548274D02*
X-14342321Y3681607D01*
X-14342321Y3662559D02*
X-14332798Y3672083D01*
X-14313750Y3681607D01*
X-14285178Y3681607D01*
X-14266131Y3672083D01*
X-14256607Y3653036D01*
X-14256607Y3548274D01*
X-14256607Y3653036D02*
X-14247083Y3672083D01*
X-14228036Y3681607D01*
X-14199464Y3681607D01*
X-14180417Y3672083D01*
X-14170893Y3653036D01*
X-14170893Y3548274D01*
X-13780417Y3757798D02*
X-13951845Y3500655D01*
X-13523274Y3748274D02*
X-13504226Y3748274D01*
X-13485178Y3738750D01*
X-13475655Y3729226D01*
X-13466131Y3710178D01*
X-13456607Y3672083D01*
X-13456607Y3624464D01*
X-13466131Y3586369D01*
X-13475655Y3567321D01*
X-13485178Y3557798D01*
X-13504226Y3548274D01*
X-13523274Y3548274D01*
X-13542321Y3557798D01*
X-13551845Y3567321D01*
X-13561369Y3586369D01*
X-13570893Y3624464D01*
X-13570893Y3672083D01*
X-13561369Y3710178D01*
X-13551845Y3729226D01*
X-13542321Y3738750D01*
X-13523274Y3748274D01*
X-13370893Y3567321D02*
X-13361369Y3557798D01*
X-13370893Y3548274D01*
X-13380417Y3557798D01*
X-13370893Y3567321D01*
X-13370893Y3548274D01*
X-13237559Y3748274D02*
X-13218512Y3748274D01*
X-13199464Y3738750D01*
X-13189940Y3729226D01*
X-13180417Y3710178D01*
X-13170893Y3672083D01*
X-13170893Y3624464D01*
X-13180417Y3586369D01*
X-13189940Y3567321D01*
X-13199464Y3557798D01*
X-13218512Y3548274D01*
X-13237559Y3548274D01*
X-13256607Y3557798D01*
X-13266131Y3567321D01*
X-13275655Y3586369D01*
X-13285178Y3624464D01*
X-13285178Y3672083D01*
X-13275655Y3710178D01*
X-13266131Y3729226D01*
X-13256607Y3738750D01*
X-13237559Y3748274D01*
X-12999464Y3748274D02*
X-13037559Y3748274D01*
X-13056607Y3738750D01*
X-13066131Y3729226D01*
X-13085178Y3700655D01*
X-13094702Y3662559D01*
X-13094702Y3586369D01*
X-13085178Y3567321D01*
X-13075655Y3557798D01*
X-13056607Y3548274D01*
X-13018512Y3548274D01*
X-12999464Y3557798D01*
X-12989940Y3567321D01*
X-12980417Y3586369D01*
X-12980417Y3633988D01*
X-12989940Y3653036D01*
X-12999464Y3662559D01*
X-13018512Y3672083D01*
X-13056607Y3672083D01*
X-13075655Y3662559D01*
X-13085178Y3653036D01*
X-13094702Y3633988D01*
X-12866131Y3662559D02*
X-12885178Y3672083D01*
X-12894702Y3681607D01*
X-12904226Y3700655D01*
X-12904226Y3710178D01*
X-12894702Y3729226D01*
X-12885178Y3738750D01*
X-12866131Y3748274D01*
X-12828036Y3748274D01*
X-12808988Y3738750D01*
X-12799464Y3729226D01*
X-12789940Y3710178D01*
X-12789940Y3700655D01*
X-12799464Y3681607D01*
X-12808988Y3672083D01*
X-12828036Y3662559D01*
X-12866131Y3662559D01*
X-12885178Y3653036D01*
X-12894702Y3643512D01*
X-12904226Y3624464D01*
X-12904226Y3586369D01*
X-12894702Y3567321D01*
X-12885178Y3557798D01*
X-12866131Y3548274D01*
X-12828036Y3548274D01*
X-12808988Y3557798D01*
X-12799464Y3567321D01*
X-12789940Y3586369D01*
X-12789940Y3624464D01*
X-12799464Y3643512D01*
X-12808988Y3653036D01*
X-12828036Y3662559D01*
X-12694702Y3548274D02*
X-12656607Y3548274D01*
X-12637559Y3557798D01*
X-12628036Y3567321D01*
X-12608988Y3595893D01*
X-12599464Y3633988D01*
X-12599464Y3710178D01*
X-12608988Y3729226D01*
X-12618512Y3738750D01*
X-12637559Y3748274D01*
X-12675655Y3748274D01*
X-12694702Y3738750D01*
X-12704226Y3729226D01*
X-12713750Y3710178D01*
X-12713750Y3662559D01*
X-12704226Y3643512D01*
X-12694702Y3633988D01*
X-12675655Y3624464D01*
X-12637559Y3624464D01*
X-12618512Y3633988D01*
X-12608988Y3643512D01*
X-12599464Y3662559D01*
X-12523274Y3748274D02*
X-12523274Y3710178D01*
X-12447083Y3748274D02*
X-12447083Y3710178D01*
X-12151845Y3472083D02*
X-12161369Y3481607D01*
X-12180417Y3510178D01*
X-12189940Y3529226D01*
X-12199464Y3557798D01*
X-12208988Y3605417D01*
X-12208988Y3643512D01*
X-12199464Y3691131D01*
X-12189940Y3719702D01*
X-12180417Y3738750D01*
X-12161369Y3767321D01*
X-12151845Y3776845D01*
X-11970893Y3548274D02*
X-12085178Y3548274D01*
X-12028036Y3548274D02*
X-12028036Y3748274D01*
X-12047083Y3719702D01*
X-12066131Y3700655D01*
X-12085178Y3691131D01*
X-11894702Y3729226D02*
X-11885178Y3738750D01*
X-11866131Y3748274D01*
X-11818512Y3748274D01*
X-11799464Y3738750D01*
X-11789940Y3729226D01*
X-11780417Y3710178D01*
X-11780417Y3691131D01*
X-11789940Y3662559D01*
X-11904226Y3548274D01*
X-11780417Y3548274D01*
X-11704226Y3729226D02*
X-11694702Y3738750D01*
X-11675655Y3748274D01*
X-11628036Y3748274D01*
X-11608988Y3738750D01*
X-11599464Y3729226D01*
X-11589940Y3710178D01*
X-11589940Y3691131D01*
X-11599464Y3662559D01*
X-11713750Y3548274D01*
X-11589940Y3548274D01*
X-11351845Y3548274D02*
X-11351845Y3748274D01*
X-11266131Y3548274D02*
X-11266131Y3653036D01*
X-11275655Y3672083D01*
X-11294702Y3681607D01*
X-11323274Y3681607D01*
X-11342321Y3672083D01*
X-11351845Y3662559D01*
X-11142321Y3548274D02*
X-11161369Y3557798D01*
X-11170893Y3567321D01*
X-11180417Y3586369D01*
X-11180417Y3643512D01*
X-11170893Y3662559D01*
X-11161369Y3672083D01*
X-11142321Y3681607D01*
X-11113750Y3681607D01*
X-11094702Y3672083D01*
X-11085179Y3662559D01*
X-11075655Y3643512D01*
X-11075655Y3586369D01*
X-11085179Y3567321D01*
X-11094702Y3557798D01*
X-11113750Y3548274D01*
X-11142321Y3548274D01*
X-10961369Y3548274D02*
X-10980417Y3557798D01*
X-10989940Y3576845D01*
X-10989940Y3748274D01*
X-10808988Y3557798D02*
X-10828036Y3548274D01*
X-10866131Y3548274D01*
X-10885179Y3557798D01*
X-10894702Y3576845D01*
X-10894702Y3653036D01*
X-10885179Y3672083D01*
X-10866131Y3681607D01*
X-10828036Y3681607D01*
X-10808988Y3672083D01*
X-10799464Y3653036D01*
X-10799464Y3633988D01*
X-10894702Y3614940D01*
X-10723274Y3557798D02*
X-10704226Y3548274D01*
X-10666131Y3548274D01*
X-10647083Y3557798D01*
X-10637560Y3576845D01*
X-10637560Y3586369D01*
X-10647083Y3605417D01*
X-10666131Y3614940D01*
X-10694702Y3614940D01*
X-10713750Y3624464D01*
X-10723274Y3643512D01*
X-10723274Y3653036D01*
X-10713750Y3672083D01*
X-10694702Y3681607D01*
X-10666131Y3681607D01*
X-10647083Y3672083D01*
X-10570893Y3472083D02*
X-10561369Y3481607D01*
X-10542321Y3510178D01*
X-10532798Y3529226D01*
X-10523274Y3557798D01*
X-10513750Y3605417D01*
X-10513750Y3643512D01*
X-10523274Y3691131D01*
X-10532798Y3719702D01*
X-10542321Y3738750D01*
X-10561369Y3767321D01*
X-10570893Y3776845D01*
X-10208988Y3472083D02*
X-10218512Y3481607D01*
X-10237560Y3510178D01*
X-10247083Y3529226D01*
X-10256607Y3557798D01*
X-10266131Y3605417D01*
X-10266131Y3643512D01*
X-10256607Y3691131D01*
X-10247083Y3719702D01*
X-10237560Y3738750D01*
X-10218512Y3767321D01*
X-10208988Y3776845D01*
X-10132798Y3681607D02*
X-10132798Y3548274D01*
X-10132798Y3662559D02*
X-10123274Y3672083D01*
X-10104226Y3681607D01*
X-10075655Y3681607D01*
X-10056607Y3672083D01*
X-10047083Y3653036D01*
X-10047083Y3548274D01*
X-9923274Y3548274D02*
X-9942321Y3557798D01*
X-9951845Y3567321D01*
X-9961369Y3586369D01*
X-9961369Y3643512D01*
X-9951845Y3662559D01*
X-9942321Y3672083D01*
X-9923274Y3681607D01*
X-9894702Y3681607D01*
X-9875655Y3672083D01*
X-9866131Y3662559D01*
X-9856607Y3643512D01*
X-9856607Y3586369D01*
X-9866131Y3567321D01*
X-9875655Y3557798D01*
X-9894702Y3548274D01*
X-9923274Y3548274D01*
X-9799464Y3681607D02*
X-9723274Y3681607D01*
X-9770893Y3748274D02*
X-9770893Y3576845D01*
X-9761369Y3557798D01*
X-9742321Y3548274D01*
X-9723274Y3548274D01*
X-9504226Y3681607D02*
X-9504226Y3481607D01*
X-9504226Y3672083D02*
X-9485179Y3681607D01*
X-9447083Y3681607D01*
X-9428036Y3672083D01*
X-9418512Y3662559D01*
X-9408988Y3643512D01*
X-9408988Y3586369D01*
X-9418512Y3567321D01*
X-9428036Y3557798D01*
X-9447083Y3548274D01*
X-9485179Y3548274D01*
X-9504226Y3557798D01*
X-9294702Y3548274D02*
X-9313750Y3557798D01*
X-9323274Y3576845D01*
X-9323274Y3748274D01*
X-9132798Y3548274D02*
X-9132798Y3653036D01*
X-9142321Y3672083D01*
X-9161369Y3681607D01*
X-9199464Y3681607D01*
X-9218512Y3672083D01*
X-9132798Y3557798D02*
X-9151845Y3548274D01*
X-9199464Y3548274D01*
X-9218512Y3557798D01*
X-9228036Y3576845D01*
X-9228036Y3595893D01*
X-9218512Y3614940D01*
X-9199464Y3624464D01*
X-9151845Y3624464D01*
X-9132798Y3633988D01*
X-9066131Y3681607D02*
X-8989940Y3681607D01*
X-9037560Y3748274D02*
X-9037560Y3576845D01*
X-9028036Y3557798D01*
X-9008988Y3548274D01*
X-8989940Y3548274D01*
X-8847083Y3557798D02*
X-8866131Y3548274D01*
X-8904226Y3548274D01*
X-8923274Y3557798D01*
X-8932798Y3576845D01*
X-8932798Y3653036D01*
X-8923274Y3672083D01*
X-8904226Y3681607D01*
X-8866131Y3681607D01*
X-8847083Y3672083D01*
X-8837560Y3653036D01*
X-8837560Y3633988D01*
X-8932798Y3614940D01*
X-8666131Y3548274D02*
X-8666131Y3748274D01*
X-8666131Y3557798D02*
X-8685179Y3548274D01*
X-8723274Y3548274D01*
X-8742321Y3557798D01*
X-8751845Y3567321D01*
X-8761369Y3586369D01*
X-8761369Y3643512D01*
X-8751845Y3662559D01*
X-8742321Y3672083D01*
X-8723274Y3681607D01*
X-8685179Y3681607D01*
X-8666131Y3672083D01*
X-8589940Y3472083D02*
X-8580417Y3481607D01*
X-8561369Y3510178D01*
X-8551845Y3529226D01*
X-8542321Y3557798D01*
X-8532798Y3605417D01*
X-8532798Y3643512D01*
X-8542321Y3691131D01*
X-8551845Y3719702D01*
X-8561369Y3738750D01*
X-8580417Y3767321D01*
X-8589940Y3776845D01*
X-15723750Y3343750D02*
G75*
G03*
X-15723750Y3343750I-100000J0D01*
G01*
X-15485178Y3453274D02*
X-15361369Y3453274D01*
X-15428036Y3377083D01*
X-15399464Y3377083D01*
X-15380417Y3367559D01*
X-15370893Y3358036D01*
X-15361369Y3338988D01*
X-15361369Y3291369D01*
X-15370893Y3272321D01*
X-15380417Y3262798D01*
X-15399464Y3253274D01*
X-15456607Y3253274D01*
X-15475655Y3262798D01*
X-15485178Y3272321D01*
X-15275655Y3272321D02*
X-15266131Y3262798D01*
X-15275655Y3253274D01*
X-15285178Y3262798D01*
X-15275655Y3272321D01*
X-15275655Y3253274D01*
X-15170893Y3253274D02*
X-15132798Y3253274D01*
X-15113750Y3262798D01*
X-15104226Y3272321D01*
X-15085178Y3300893D01*
X-15075655Y3338988D01*
X-15075655Y3415178D01*
X-15085178Y3434226D01*
X-15094702Y3443750D01*
X-15113750Y3453274D01*
X-15151845Y3453274D01*
X-15170893Y3443750D01*
X-15180417Y3434226D01*
X-15189940Y3415178D01*
X-15189940Y3367559D01*
X-15180417Y3348512D01*
X-15170893Y3338988D01*
X-15151845Y3329464D01*
X-15113750Y3329464D01*
X-15094702Y3338988D01*
X-15085178Y3348512D01*
X-15075655Y3367559D01*
X-14961369Y3367559D02*
X-14980417Y3377083D01*
X-14989940Y3386607D01*
X-14999464Y3405655D01*
X-14999464Y3415178D01*
X-14989940Y3434226D01*
X-14980417Y3443750D01*
X-14961369Y3453274D01*
X-14923274Y3453274D01*
X-14904226Y3443750D01*
X-14894702Y3434226D01*
X-14885178Y3415178D01*
X-14885178Y3405655D01*
X-14894702Y3386607D01*
X-14904226Y3377083D01*
X-14923274Y3367559D01*
X-14961369Y3367559D01*
X-14980417Y3358036D01*
X-14989940Y3348512D01*
X-14999464Y3329464D01*
X-14999464Y3291369D01*
X-14989940Y3272321D01*
X-14980417Y3262798D01*
X-14961369Y3253274D01*
X-14923274Y3253274D01*
X-14904226Y3262798D01*
X-14894702Y3272321D01*
X-14885178Y3291369D01*
X-14885178Y3329464D01*
X-14894702Y3348512D01*
X-14904226Y3358036D01*
X-14923274Y3367559D01*
X-14770893Y3367559D02*
X-14789940Y3377083D01*
X-14799464Y3386607D01*
X-14808988Y3405655D01*
X-14808988Y3415178D01*
X-14799464Y3434226D01*
X-14789940Y3443750D01*
X-14770893Y3453274D01*
X-14732798Y3453274D01*
X-14713750Y3443750D01*
X-14704226Y3434226D01*
X-14694702Y3415178D01*
X-14694702Y3405655D01*
X-14704226Y3386607D01*
X-14713750Y3377083D01*
X-14732798Y3367559D01*
X-14770893Y3367559D01*
X-14789940Y3358036D01*
X-14799464Y3348512D01*
X-14808988Y3329464D01*
X-14808988Y3291369D01*
X-14799464Y3272321D01*
X-14789940Y3262798D01*
X-14770893Y3253274D01*
X-14732798Y3253274D01*
X-14713750Y3262798D01*
X-14704226Y3272321D01*
X-14694702Y3291369D01*
X-14694702Y3329464D01*
X-14704226Y3348512D01*
X-14713750Y3358036D01*
X-14732798Y3367559D01*
X-14608988Y3253274D02*
X-14608988Y3386607D01*
X-14608988Y3367559D02*
X-14599464Y3377083D01*
X-14580417Y3386607D01*
X-14551845Y3386607D01*
X-14532798Y3377083D01*
X-14523274Y3358036D01*
X-14523274Y3253274D01*
X-14523274Y3358036D02*
X-14513750Y3377083D01*
X-14494702Y3386607D01*
X-14466131Y3386607D01*
X-14447083Y3377083D01*
X-14437559Y3358036D01*
X-14437559Y3253274D01*
X-14342321Y3253274D02*
X-14342321Y3386607D01*
X-14342321Y3367559D02*
X-14332798Y3377083D01*
X-14313750Y3386607D01*
X-14285178Y3386607D01*
X-14266131Y3377083D01*
X-14256607Y3358036D01*
X-14256607Y3253274D01*
X-14256607Y3358036D02*
X-14247083Y3377083D01*
X-14228036Y3386607D01*
X-14199464Y3386607D01*
X-14180417Y3377083D01*
X-14170893Y3358036D01*
X-14170893Y3253274D01*
X-13780417Y3462798D02*
X-13951845Y3205655D01*
X-13523274Y3453274D02*
X-13504226Y3453274D01*
X-13485178Y3443750D01*
X-13475655Y3434226D01*
X-13466131Y3415178D01*
X-13456607Y3377083D01*
X-13456607Y3329464D01*
X-13466131Y3291369D01*
X-13475655Y3272321D01*
X-13485178Y3262798D01*
X-13504226Y3253274D01*
X-13523274Y3253274D01*
X-13542321Y3262798D01*
X-13551845Y3272321D01*
X-13561369Y3291369D01*
X-13570893Y3329464D01*
X-13570893Y3377083D01*
X-13561369Y3415178D01*
X-13551845Y3434226D01*
X-13542321Y3443750D01*
X-13523274Y3453274D01*
X-13370893Y3272321D02*
X-13361369Y3262798D01*
X-13370893Y3253274D01*
X-13380417Y3262798D01*
X-13370893Y3272321D01*
X-13370893Y3253274D01*
X-13170893Y3253274D02*
X-13285178Y3253274D01*
X-13228036Y3253274D02*
X-13228036Y3453274D01*
X-13247083Y3424702D01*
X-13266131Y3405655D01*
X-13285178Y3396131D01*
X-12989940Y3453274D02*
X-13085178Y3453274D01*
X-13094702Y3358036D01*
X-13085178Y3367559D01*
X-13066131Y3377083D01*
X-13018512Y3377083D01*
X-12999464Y3367559D01*
X-12989940Y3358036D01*
X-12980417Y3338988D01*
X-12980417Y3291369D01*
X-12989940Y3272321D01*
X-12999464Y3262798D01*
X-13018512Y3253274D01*
X-13066131Y3253274D01*
X-13085178Y3262798D01*
X-13094702Y3272321D01*
X-12913750Y3453274D02*
X-12780417Y3453274D01*
X-12866131Y3253274D01*
X-12666131Y3453274D02*
X-12647083Y3453274D01*
X-12628036Y3443750D01*
X-12618512Y3434226D01*
X-12608988Y3415178D01*
X-12599464Y3377083D01*
X-12599464Y3329464D01*
X-12608988Y3291369D01*
X-12618512Y3272321D01*
X-12628036Y3262798D01*
X-12647083Y3253274D01*
X-12666131Y3253274D01*
X-12685178Y3262798D01*
X-12694702Y3272321D01*
X-12704226Y3291369D01*
X-12713750Y3329464D01*
X-12713750Y3377083D01*
X-12704226Y3415178D01*
X-12694702Y3434226D01*
X-12685178Y3443750D01*
X-12666131Y3453274D01*
X-12523274Y3453274D02*
X-12523274Y3415178D01*
X-12447083Y3453274D02*
X-12447083Y3415178D01*
X-12151845Y3177083D02*
X-12161369Y3186607D01*
X-12180417Y3215178D01*
X-12189940Y3234226D01*
X-12199464Y3262798D01*
X-12208988Y3310417D01*
X-12208988Y3348512D01*
X-12199464Y3396131D01*
X-12189940Y3424702D01*
X-12180417Y3443750D01*
X-12161369Y3472321D01*
X-12151845Y3481845D01*
X-11989940Y3453274D02*
X-12028036Y3453274D01*
X-12047083Y3443750D01*
X-12056607Y3434226D01*
X-12075655Y3405655D01*
X-12085178Y3367559D01*
X-12085178Y3291369D01*
X-12075655Y3272321D01*
X-12066131Y3262798D01*
X-12047083Y3253274D01*
X-12008988Y3253274D01*
X-11989940Y3262798D01*
X-11980417Y3272321D01*
X-11970893Y3291369D01*
X-11970893Y3338988D01*
X-11980417Y3358036D01*
X-11989940Y3367559D01*
X-12008988Y3377083D01*
X-12047083Y3377083D01*
X-12066131Y3367559D01*
X-12075655Y3358036D01*
X-12085178Y3338988D01*
X-11780417Y3253274D02*
X-11894702Y3253274D01*
X-11837559Y3253274D02*
X-11837559Y3453274D01*
X-11856607Y3424702D01*
X-11875655Y3405655D01*
X-11894702Y3396131D01*
X-11542321Y3253274D02*
X-11542321Y3453274D01*
X-11456607Y3253274D02*
X-11456607Y3358036D01*
X-11466131Y3377083D01*
X-11485178Y3386607D01*
X-11513750Y3386607D01*
X-11532798Y3377083D01*
X-11542321Y3367559D01*
X-11332798Y3253274D02*
X-11351845Y3262798D01*
X-11361369Y3272321D01*
X-11370893Y3291369D01*
X-11370893Y3348512D01*
X-11361369Y3367559D01*
X-11351845Y3377083D01*
X-11332798Y3386607D01*
X-11304226Y3386607D01*
X-11285178Y3377083D01*
X-11275655Y3367559D01*
X-11266131Y3348512D01*
X-11266131Y3291369D01*
X-11275655Y3272321D01*
X-11285178Y3262798D01*
X-11304226Y3253274D01*
X-11332798Y3253274D01*
X-11151845Y3253274D02*
X-11170893Y3262798D01*
X-11180417Y3281845D01*
X-11180417Y3453274D01*
X-10999464Y3262798D02*
X-11018512Y3253274D01*
X-11056607Y3253274D01*
X-11075655Y3262798D01*
X-11085179Y3281845D01*
X-11085179Y3358036D01*
X-11075655Y3377083D01*
X-11056607Y3386607D01*
X-11018512Y3386607D01*
X-10999464Y3377083D01*
X-10989940Y3358036D01*
X-10989940Y3338988D01*
X-11085179Y3319940D01*
X-10913750Y3262798D02*
X-10894702Y3253274D01*
X-10856607Y3253274D01*
X-10837560Y3262798D01*
X-10828036Y3281845D01*
X-10828036Y3291369D01*
X-10837560Y3310417D01*
X-10856607Y3319940D01*
X-10885179Y3319940D01*
X-10904226Y3329464D01*
X-10913750Y3348512D01*
X-10913750Y3358036D01*
X-10904226Y3377083D01*
X-10885179Y3386607D01*
X-10856607Y3386607D01*
X-10837560Y3377083D01*
X-10761369Y3177083D02*
X-10751845Y3186607D01*
X-10732798Y3215178D01*
X-10723274Y3234226D01*
X-10713750Y3262798D01*
X-10704226Y3310417D01*
X-10704226Y3348512D01*
X-10713750Y3396131D01*
X-10723274Y3424702D01*
X-10732798Y3443750D01*
X-10751845Y3472321D01*
X-10761369Y3481845D01*
X-10399464Y3177083D02*
X-10408988Y3186607D01*
X-10428036Y3215178D01*
X-10437560Y3234226D01*
X-10447083Y3262798D01*
X-10456607Y3310417D01*
X-10456607Y3348512D01*
X-10447083Y3396131D01*
X-10437560Y3424702D01*
X-10428036Y3443750D01*
X-10408988Y3472321D01*
X-10399464Y3481845D01*
X-10323274Y3386607D02*
X-10323274Y3253274D01*
X-10323274Y3367559D02*
X-10313750Y3377083D01*
X-10294702Y3386607D01*
X-10266131Y3386607D01*
X-10247083Y3377083D01*
X-10237560Y3358036D01*
X-10237560Y3253274D01*
X-10113750Y3253274D02*
X-10132798Y3262798D01*
X-10142321Y3272321D01*
X-10151845Y3291369D01*
X-10151845Y3348512D01*
X-10142321Y3367559D01*
X-10132798Y3377083D01*
X-10113750Y3386607D01*
X-10085179Y3386607D01*
X-10066131Y3377083D01*
X-10056607Y3367559D01*
X-10047083Y3348512D01*
X-10047083Y3291369D01*
X-10056607Y3272321D01*
X-10066131Y3262798D01*
X-10085179Y3253274D01*
X-10113750Y3253274D01*
X-9989940Y3386607D02*
X-9913750Y3386607D01*
X-9961369Y3453274D02*
X-9961369Y3281845D01*
X-9951845Y3262798D01*
X-9932798Y3253274D01*
X-9913750Y3253274D01*
X-9694702Y3386607D02*
X-9694702Y3186607D01*
X-9694702Y3377083D02*
X-9675655Y3386607D01*
X-9637560Y3386607D01*
X-9618512Y3377083D01*
X-9608988Y3367559D01*
X-9599464Y3348512D01*
X-9599464Y3291369D01*
X-9608988Y3272321D01*
X-9618512Y3262798D01*
X-9637560Y3253274D01*
X-9675655Y3253274D01*
X-9694702Y3262798D01*
X-9485179Y3253274D02*
X-9504226Y3262798D01*
X-9513750Y3281845D01*
X-9513750Y3453274D01*
X-9323274Y3253274D02*
X-9323274Y3358036D01*
X-9332798Y3377083D01*
X-9351845Y3386607D01*
X-9389940Y3386607D01*
X-9408988Y3377083D01*
X-9323274Y3262798D02*
X-9342321Y3253274D01*
X-9389940Y3253274D01*
X-9408988Y3262798D01*
X-9418512Y3281845D01*
X-9418512Y3300893D01*
X-9408988Y3319940D01*
X-9389940Y3329464D01*
X-9342321Y3329464D01*
X-9323274Y3338988D01*
X-9256607Y3386607D02*
X-9180417Y3386607D01*
X-9228036Y3453274D02*
X-9228036Y3281845D01*
X-9218512Y3262798D01*
X-9199464Y3253274D01*
X-9180417Y3253274D01*
X-9037560Y3262798D02*
X-9056607Y3253274D01*
X-9094702Y3253274D01*
X-9113750Y3262798D01*
X-9123274Y3281845D01*
X-9123274Y3358036D01*
X-9113750Y3377083D01*
X-9094702Y3386607D01*
X-9056607Y3386607D01*
X-9037560Y3377083D01*
X-9028036Y3358036D01*
X-9028036Y3338988D01*
X-9123274Y3319940D01*
X-8856607Y3253274D02*
X-8856607Y3453274D01*
X-8856607Y3262798D02*
X-8875655Y3253274D01*
X-8913750Y3253274D01*
X-8932798Y3262798D01*
X-8942321Y3272321D01*
X-8951845Y3291369D01*
X-8951845Y3348512D01*
X-8942321Y3367559D01*
X-8932798Y3377083D01*
X-8913750Y3386607D01*
X-8875655Y3386607D01*
X-8856607Y3377083D01*
X-8780417Y3177083D02*
X-8770893Y3186607D01*
X-8751845Y3215178D01*
X-8742321Y3234226D01*
X-8732798Y3262798D01*
X-8723274Y3310417D01*
X-8723274Y3348512D01*
X-8732798Y3396131D01*
X-8742321Y3424702D01*
X-8751845Y3443750D01*
X-8770893Y3472321D01*
X-8780417Y3481845D01*
M02*
