G04 #@! TF.GenerationSoftware,KiCad,Pcbnew,(6.0.9)*
G04 #@! TF.CreationDate,2023-04-02T22:18:35-05:00*
G04 #@! TF.ProjectId,BasePCB,42617365-5043-4422-9e6b-696361645f70,rev?*
G04 #@! TF.SameCoordinates,Original*
G04 #@! TF.FileFunction,Legend,Bot*
G04 #@! TF.FilePolarity,Positive*
%FSLAX46Y46*%
G04 Gerber Fmt 4.6, Leading zero omitted, Abs format (unit mm)*
G04 Created by KiCad (PCBNEW (6.0.9)) date 2023-04-02 22:18:35*
%MOMM*%
%LPD*%
G01*
G04 APERTURE LIST*
G04 Aperture macros list*
%AMHorizOval*
0 Thick line with rounded ends*
0 $1 width*
0 $2 $3 position (X,Y) of the first rounded end (center of the circle)*
0 $4 $5 position (X,Y) of the second rounded end (center of the circle)*
0 Add line between two ends*
20,1,$1,$2,$3,$4,$5,0*
0 Add two circle primitives to create the rounded ends*
1,1,$1,$2,$3*
1,1,$1,$4,$5*%
G04 Aperture macros list end*
%ADD10C,1.750000*%
%ADD11C,3.987800*%
%ADD12HorizOval,2.250000X0.655001X0.730000X-0.655001X-0.730000X0*%
%ADD13C,2.250000*%
%ADD14HorizOval,2.250000X0.020000X0.290000X-0.020000X-0.290000X0*%
%ADD15R,1.700000X1.700000*%
%ADD16O,1.700000X1.700000*%
%ADD17O,1.500000X2.000000*%
%ADD18C,3.500000*%
G04 APERTURE END LIST*
%LPC*%
D10*
X-70167500Y90487500D03*
D11*
X-65087500Y90487500D03*
D10*
X-60007500Y90487500D03*
D12*
X-68242499Y93757500D03*
D13*
X-67587500Y94487500D03*
X-62547500Y95567500D03*
D14*
X-62567500Y95277500D03*
D11*
X-41275000Y128587500D03*
D10*
X-36195000Y128587500D03*
X-46355000Y128587500D03*
D12*
X-44429999Y131857500D03*
D13*
X-43775000Y132587500D03*
D14*
X-38755000Y133377500D03*
D13*
X-38735000Y133667500D03*
D10*
X10795000Y128587500D03*
D11*
X15875000Y128587500D03*
D10*
X20955000Y128587500D03*
D12*
X12720001Y131857500D03*
D13*
X13375000Y132587500D03*
X18415000Y133667500D03*
D14*
X18395000Y133377500D03*
D10*
X59055000Y128587500D03*
D11*
X53975000Y128587500D03*
D10*
X48895000Y128587500D03*
D12*
X50820001Y131857500D03*
D13*
X51475000Y132587500D03*
X56515000Y133667500D03*
D14*
X56495000Y133377500D03*
D11*
X-36512500Y71437500D03*
D10*
X-31432500Y71437500D03*
X-41592500Y71437500D03*
D13*
X-39012500Y75437500D03*
D12*
X-39667499Y74707500D03*
D14*
X-33992500Y76227500D03*
D13*
X-33972500Y76517500D03*
D10*
X99536250Y52387500D03*
X89376250Y52387500D03*
D11*
X94456250Y52387500D03*
D12*
X91301251Y55657500D03*
D13*
X91956250Y56387500D03*
X96996250Y57467500D03*
D14*
X96976250Y57177500D03*
D10*
X-98742500Y109537500D03*
X-88582500Y109537500D03*
D11*
X-93662500Y109537500D03*
D12*
X-96817499Y112807500D03*
D13*
X-96162500Y113537500D03*
X-91122500Y114617500D03*
D14*
X-91142500Y114327500D03*
D11*
X165893750Y52387500D03*
D10*
X170973750Y52387500D03*
X160813750Y52387500D03*
D13*
X163393750Y56387500D03*
D12*
X162738751Y55657500D03*
D13*
X168433750Y57467500D03*
D14*
X168413750Y57177500D03*
D15*
X181675000Y101912500D03*
D16*
X184215000Y101912500D03*
X181675000Y99372500D03*
X184215000Y99372500D03*
X181675000Y96832500D03*
X184215000Y96832500D03*
X181675000Y94292500D03*
X184215000Y94292500D03*
X181675000Y91752500D03*
X184215000Y91752500D03*
X181675000Y89212500D03*
X184215000Y89212500D03*
X181675000Y86672500D03*
X184215000Y86672500D03*
X181675000Y84132500D03*
X184215000Y84132500D03*
X181675000Y81592500D03*
X184215000Y81592500D03*
X181675000Y79052500D03*
X184215000Y79052500D03*
D11*
X-55562500Y71437500D03*
D10*
X-50482500Y71437500D03*
X-60642500Y71437500D03*
D13*
X-58062500Y75437500D03*
D12*
X-58717499Y74707500D03*
D14*
X-53042500Y76227500D03*
D13*
X-53022500Y76517500D03*
D11*
X156368750Y90487500D03*
D10*
X151288750Y90487500D03*
X161448750Y90487500D03*
D12*
X153213751Y93757500D03*
D13*
X153868750Y94487500D03*
X158908750Y95567500D03*
D14*
X158888750Y95277500D03*
D10*
X144780000Y109537500D03*
X134620000Y109537500D03*
D11*
X139700000Y109537500D03*
D13*
X137200000Y113537500D03*
D12*
X136545001Y112807500D03*
D14*
X142220000Y114327500D03*
D13*
X142240000Y114617500D03*
D11*
X111125000Y128587500D03*
D10*
X106045000Y128587500D03*
X116205000Y128587500D03*
D12*
X107970001Y131857500D03*
D13*
X108625000Y132587500D03*
X113665000Y133667500D03*
D14*
X113645000Y133377500D03*
D10*
X-93345000Y128587500D03*
X-103505000Y128587500D03*
D11*
X-98425000Y128587500D03*
D13*
X-100925000Y132587500D03*
D12*
X-101579999Y131857500D03*
D14*
X-95905000Y133377500D03*
D13*
X-95885000Y133667500D03*
D11*
X44450000Y109537500D03*
D10*
X49530000Y109537500D03*
X39370000Y109537500D03*
D13*
X41950000Y113537500D03*
D12*
X41295001Y112807500D03*
D14*
X46970000Y114327500D03*
D13*
X46990000Y114617500D03*
D10*
X115570000Y109537500D03*
X125730000Y109537500D03*
D11*
X120650000Y109537500D03*
D13*
X118150000Y113537500D03*
D12*
X117495001Y112807500D03*
D14*
X123170000Y114327500D03*
D13*
X123190000Y114617500D03*
D10*
X-40957500Y90487500D03*
D11*
X-46037500Y90487500D03*
D10*
X-51117500Y90487500D03*
D13*
X-48537500Y94487500D03*
D12*
X-49192499Y93757500D03*
D14*
X-43517500Y95277500D03*
D13*
X-43497500Y95567500D03*
D11*
X87312500Y90487500D03*
D10*
X92392500Y90487500D03*
X82232500Y90487500D03*
D12*
X84157501Y93757500D03*
D13*
X84812500Y94487500D03*
X89852500Y95567500D03*
D14*
X89832500Y95277500D03*
D11*
X158750000Y128587500D03*
D10*
X153670000Y128587500D03*
X163830000Y128587500D03*
D13*
X156250000Y132587500D03*
D12*
X155595001Y131857500D03*
D14*
X161270000Y133377500D03*
D13*
X161290000Y133667500D03*
D10*
X137001250Y52387500D03*
X147161250Y52387500D03*
D11*
X142081250Y52387500D03*
D13*
X139581250Y56387500D03*
D12*
X138926251Y55657500D03*
D13*
X144621250Y57467500D03*
D14*
X144601250Y57177500D03*
D11*
X-26987500Y90487500D03*
D10*
X-32067500Y90487500D03*
X-21907500Y90487500D03*
D13*
X-29487500Y94487500D03*
D12*
X-30142499Y93757500D03*
D13*
X-24447500Y95567500D03*
D14*
X-24467500Y95277500D03*
D17*
X-124293750Y143908750D03*
X-126793750Y143908750D03*
X-128793750Y143908750D03*
X-131293750Y143908750D03*
D18*
X-134793750Y146618750D03*
X-120793750Y146618750D03*
D11*
X130175000Y128587500D03*
D10*
X135255000Y128587500D03*
X125095000Y128587500D03*
D13*
X127675000Y132587500D03*
D12*
X127020001Y131857500D03*
D13*
X132715000Y133667500D03*
D14*
X132695000Y133377500D03*
D11*
X106362500Y90487500D03*
D10*
X101282500Y90487500D03*
X111442500Y90487500D03*
D13*
X103862500Y94487500D03*
D12*
X103207501Y93757500D03*
D14*
X108882500Y95277500D03*
D13*
X108902500Y95567500D03*
D15*
X-149950000Y101937500D03*
D16*
X-152490000Y101937500D03*
X-149950000Y99397500D03*
X-152490000Y99397500D03*
X-149950000Y96857500D03*
X-152490000Y96857500D03*
X-149950000Y94317500D03*
X-152490000Y94317500D03*
X-149950000Y91777500D03*
X-152490000Y91777500D03*
X-149950000Y89237500D03*
X-152490000Y89237500D03*
X-149950000Y86697500D03*
X-152490000Y86697500D03*
X-149950000Y84157500D03*
X-152490000Y84157500D03*
X-149950000Y81617500D03*
X-152490000Y81617500D03*
X-149950000Y79077500D03*
X-152490000Y79077500D03*
D11*
X-48418750Y52387500D03*
D10*
X-53498750Y52387500D03*
X-43338750Y52387500D03*
D13*
X-50918750Y56387500D03*
D12*
X-51573749Y55657500D03*
D14*
X-45898750Y57177500D03*
D13*
X-45878750Y57467500D03*
D10*
X87630000Y109537500D03*
D11*
X82550000Y109537500D03*
D10*
X77470000Y109537500D03*
D12*
X79395001Y112807500D03*
D13*
X80050000Y113537500D03*
X85090000Y114617500D03*
D14*
X85070000Y114327500D03*
D10*
X53657500Y71437500D03*
D11*
X58737500Y71437500D03*
D10*
X63817500Y71437500D03*
D13*
X56237500Y75437500D03*
D12*
X55582501Y74707500D03*
D13*
X61277500Y76517500D03*
D14*
X61257500Y76227500D03*
D15*
X34448750Y143668750D03*
D16*
X34448750Y146208750D03*
X31908750Y143668750D03*
X31908750Y146208750D03*
X29368750Y143668750D03*
X29368750Y146208750D03*
X26828750Y143668750D03*
X26828750Y146208750D03*
X24288750Y143668750D03*
X24288750Y146208750D03*
X21748750Y143668750D03*
X21748750Y146208750D03*
X19208750Y143668750D03*
X19208750Y146208750D03*
X16668750Y143668750D03*
X16668750Y146208750D03*
X14128750Y143668750D03*
X14128750Y146208750D03*
X11588750Y143668750D03*
X11588750Y146208750D03*
D11*
X30162500Y90487500D03*
D10*
X25082500Y90487500D03*
X35242500Y90487500D03*
D13*
X27662500Y94487500D03*
D12*
X27007501Y93757500D03*
D13*
X32702500Y95567500D03*
D14*
X32682500Y95277500D03*
D10*
X-3492500Y71437500D03*
X6667500Y71437500D03*
D11*
X1587500Y71437500D03*
D12*
X-1567499Y74707500D03*
D13*
X-912500Y75437500D03*
D14*
X4107500Y76227500D03*
D13*
X4127500Y76517500D03*
D11*
X151606250Y71437500D03*
D10*
X156686250Y71437500D03*
X146526250Y71437500D03*
D12*
X148451251Y74707500D03*
D13*
X149106250Y75437500D03*
X154146250Y76517500D03*
D14*
X154126250Y76227500D03*
D10*
X40005000Y128587500D03*
D11*
X34925000Y128587500D03*
D10*
X29845000Y128587500D03*
D13*
X32425000Y132587500D03*
D12*
X31770001Y131857500D03*
D14*
X37445000Y133377500D03*
D13*
X37465000Y133667500D03*
D11*
X23018750Y52387500D03*
D10*
X17938750Y52387500D03*
X28098750Y52387500D03*
D13*
X20518750Y56387500D03*
D12*
X19863751Y55657500D03*
D14*
X25538750Y57177500D03*
D13*
X25558750Y57467500D03*
D10*
X97155000Y128587500D03*
X86995000Y128587500D03*
D11*
X92075000Y128587500D03*
D13*
X89575000Y132587500D03*
D12*
X88920001Y131857500D03*
D14*
X94595000Y133377500D03*
D13*
X94615000Y133667500D03*
D11*
X-91281250Y90487500D03*
D10*
X-86201250Y90487500D03*
X-96361250Y90487500D03*
D13*
X-93781250Y94487500D03*
D12*
X-94436249Y93757500D03*
D13*
X-88741250Y95567500D03*
D14*
X-88761250Y95277500D03*
D10*
X6032500Y90487500D03*
D11*
X11112500Y90487500D03*
D10*
X16192500Y90487500D03*
D12*
X7957501Y93757500D03*
D13*
X8612500Y94487500D03*
D14*
X13632500Y95277500D03*
D13*
X13652500Y95567500D03*
D10*
X11430000Y109537500D03*
D11*
X6350000Y109537500D03*
D10*
X1270000Y109537500D03*
D13*
X3850000Y113537500D03*
D12*
X3195001Y112807500D03*
D13*
X8890000Y114617500D03*
D14*
X8870000Y114327500D03*
D11*
X-17462500Y71437500D03*
D10*
X-22542500Y71437500D03*
X-12382500Y71437500D03*
D13*
X-19962500Y75437500D03*
D12*
X-20617499Y74707500D03*
D13*
X-14922500Y76517500D03*
D14*
X-14942500Y76227500D03*
D10*
X-101123750Y52387500D03*
X-90963750Y52387500D03*
D11*
X-96043750Y52387500D03*
D12*
X-99198749Y55657500D03*
D13*
X-98543750Y56387500D03*
X-93503750Y57467500D03*
D14*
X-93523750Y57177500D03*
D10*
X25717500Y71437500D03*
D11*
X20637500Y71437500D03*
D10*
X15557500Y71437500D03*
D13*
X18137500Y75437500D03*
D12*
X17482501Y74707500D03*
D14*
X23157500Y76227500D03*
D13*
X23177500Y76517500D03*
D10*
X-36830000Y109537500D03*
X-26670000Y109537500D03*
D11*
X-31750000Y109537500D03*
D12*
X-34904999Y112807500D03*
D13*
X-34250000Y113537500D03*
X-29210000Y114617500D03*
D14*
X-29230000Y114327500D03*
D10*
X-17780000Y109537500D03*
D11*
X-12700000Y109537500D03*
D10*
X-7620000Y109537500D03*
D13*
X-15200000Y113537500D03*
D12*
X-15854999Y112807500D03*
D14*
X-10180000Y114327500D03*
D13*
X-10160000Y114617500D03*
D10*
X-17145000Y128587500D03*
D11*
X-22225000Y128587500D03*
D10*
X-27305000Y128587500D03*
D12*
X-25379999Y131857500D03*
D13*
X-24725000Y132587500D03*
X-19685000Y133667500D03*
D14*
X-19705000Y133377500D03*
D10*
X44767500Y71437500D03*
X34607500Y71437500D03*
D11*
X39687500Y71437500D03*
D12*
X36532501Y74707500D03*
D13*
X37187500Y75437500D03*
D14*
X42207500Y76227500D03*
D13*
X42227500Y76517500D03*
D10*
X-65405000Y128587500D03*
X-55245000Y128587500D03*
D11*
X-60325000Y128587500D03*
D12*
X-63479999Y131857500D03*
D13*
X-62825000Y132587500D03*
X-57785000Y133667500D03*
D14*
X-57805000Y133377500D03*
D10*
X20320000Y109537500D03*
D11*
X25400000Y109537500D03*
D10*
X30480000Y109537500D03*
D12*
X22245001Y112807500D03*
D13*
X22900000Y113537500D03*
D14*
X27920000Y114327500D03*
D13*
X27940000Y114617500D03*
D10*
X101917500Y71437500D03*
D11*
X96837500Y71437500D03*
D10*
X91757500Y71437500D03*
D12*
X93682501Y74707500D03*
D13*
X94337500Y75437500D03*
D14*
X99357500Y76227500D03*
D13*
X99377500Y76517500D03*
D10*
X73342500Y90487500D03*
D11*
X68262500Y90487500D03*
D10*
X63182500Y90487500D03*
D12*
X65107501Y93757500D03*
D13*
X65762500Y94487500D03*
X70802500Y95567500D03*
D14*
X70782500Y95277500D03*
D11*
X-3175000Y128587500D03*
D10*
X1905000Y128587500D03*
X-8255000Y128587500D03*
D13*
X-5675000Y132587500D03*
D12*
X-6329999Y131857500D03*
D13*
X-635000Y133667500D03*
D14*
X-655000Y133377500D03*
D10*
X-77470000Y52387500D03*
X-67310000Y52387500D03*
D11*
X-72390000Y52387500D03*
D13*
X-74890000Y56387500D03*
D12*
X-75544999Y55657500D03*
D14*
X-69870000Y57177500D03*
D13*
X-69850000Y57467500D03*
D11*
X77787500Y71437500D03*
D10*
X82867500Y71437500D03*
X72707500Y71437500D03*
D12*
X74632501Y74707500D03*
D13*
X75287500Y75437500D03*
D14*
X80307500Y76227500D03*
D13*
X80327500Y76517500D03*
D10*
X78105000Y128587500D03*
D11*
X73025000Y128587500D03*
D10*
X67945000Y128587500D03*
D13*
X70525000Y132587500D03*
D12*
X69870001Y131857500D03*
D13*
X75565000Y133667500D03*
D14*
X75545000Y133377500D03*
D10*
X-81438750Y71437500D03*
X-91598750Y71437500D03*
D11*
X-86518750Y71437500D03*
D12*
X-89673749Y74707500D03*
D13*
X-89018750Y75437500D03*
D14*
X-83998750Y76227500D03*
D13*
X-83978750Y76517500D03*
D10*
X-64770000Y109537500D03*
D11*
X-69850000Y109537500D03*
D10*
X-74930000Y109537500D03*
D12*
X-73004999Y112807500D03*
D13*
X-72350000Y113537500D03*
X-67310000Y114617500D03*
D14*
X-67330000Y114327500D03*
D11*
X-7937500Y90487500D03*
D10*
X-2857500Y90487500D03*
X-13017500Y90487500D03*
D13*
X-10437500Y94487500D03*
D12*
X-11092499Y93757500D03*
D14*
X-5417500Y95277500D03*
D13*
X-5397500Y95567500D03*
D11*
X115887500Y71437500D03*
D10*
X120967500Y71437500D03*
X110807500Y71437500D03*
D12*
X112732501Y74707500D03*
D13*
X113387500Y75437500D03*
X118427500Y76517500D03*
D14*
X118407500Y76227500D03*
D10*
X-55880000Y109537500D03*
D11*
X-50800000Y109537500D03*
D10*
X-45720000Y109537500D03*
D12*
X-53954999Y112807500D03*
D13*
X-53300000Y113537500D03*
D14*
X-48280000Y114327500D03*
D13*
X-48260000Y114617500D03*
D10*
X106680000Y109537500D03*
X96520000Y109537500D03*
D11*
X101600000Y109537500D03*
D12*
X98445001Y112807500D03*
D13*
X99100000Y113537500D03*
D14*
X104120000Y114327500D03*
D13*
X104140000Y114617500D03*
D10*
X124142500Y52387500D03*
D11*
X119062500Y52387500D03*
D10*
X113982500Y52387500D03*
D12*
X115907501Y55657500D03*
D13*
X116562500Y56387500D03*
D14*
X121582500Y57177500D03*
D13*
X121602500Y57467500D03*
D10*
X54292500Y90487500D03*
X44132500Y90487500D03*
D11*
X49212500Y90487500D03*
D13*
X46712500Y94487500D03*
D12*
X46057501Y93757500D03*
D13*
X51752500Y95567500D03*
D14*
X51732500Y95277500D03*
D11*
X125412500Y90487500D03*
D10*
X130492500Y90487500D03*
X120332500Y90487500D03*
D12*
X122257501Y93757500D03*
D13*
X122912500Y94487500D03*
X127952500Y95567500D03*
D14*
X127932500Y95277500D03*
D11*
X-79375000Y128587500D03*
D10*
X-84455000Y128587500D03*
X-74295000Y128587500D03*
D12*
X-82529999Y131857500D03*
D13*
X-81875000Y132587500D03*
D14*
X-76855000Y133377500D03*
D13*
X-76835000Y133667500D03*
D10*
X58420000Y109537500D03*
D11*
X63500000Y109537500D03*
D10*
X68580000Y109537500D03*
D12*
X60345001Y112807500D03*
D13*
X61000000Y113537500D03*
X66040000Y114617500D03*
D14*
X66020000Y114327500D03*
D10*
X158432500Y109537500D03*
D11*
X163512500Y109537500D03*
D10*
X168592500Y109537500D03*
D12*
X160357501Y112807500D03*
D13*
X161012500Y113537500D03*
D14*
X166032500Y114327500D03*
D13*
X166052500Y114617500D03*
M02*
