G04 #@! TF.GenerationSoftware,KiCad,Pcbnew,(6.0.9)*
G04 #@! TF.CreationDate,2023-04-02T22:18:35-05:00*
G04 #@! TF.ProjectId,BasePCB,42617365-5043-4422-9e6b-696361645f70,rev?*
G04 #@! TF.SameCoordinates,Original*
G04 #@! TF.FileFunction,Profile,NP*
%FSLAX46Y46*%
G04 Gerber Fmt 4.6, Leading zero omitted, Abs format (unit mm)*
G04 Created by KiCad (PCBNEW (6.0.9)) date 2023-04-02 22:18:35*
%MOMM*%
%LPD*%
G01*
G04 APERTURE LIST*
G04 #@! TA.AperFunction,Profile*
%ADD10C,0.150000*%
G04 #@! TD*
G04 #@! TA.AperFunction,Profile*
%ADD11C,0.100000*%
G04 #@! TD*
G04 APERTURE END LIST*
D10*
X-157162500Y45243750D02*
X-157162500Y148431250D01*
D11*
X-29162500Y53975000D02*
G75*
G03*
X-29162500Y53975000I-1000000J0D01*
G01*
X-148225000Y143668750D02*
G75*
G03*
X-148225000Y143668750I-1000000J0D01*
G01*
D10*
X-157162500Y45243750D02*
G75*
G03*
X-154781250Y42862500I2381250J0D01*
G01*
X185737500Y42862500D02*
X-154781250Y42862500D01*
X-154781250Y150812500D02*
G75*
G03*
X-157162500Y148431250I0J-2381250D01*
G01*
X185737500Y150812500D02*
X-154781250Y150812500D01*
D11*
X54181250Y53975000D02*
G75*
G03*
X54181250Y53975000I-1000000J0D01*
G01*
X-40275000Y143668750D02*
G75*
G03*
X-40275000Y143668750I-1000000J0D01*
G01*
X182768750Y46831250D02*
G75*
G03*
X182768750Y46831250I-1000000J0D01*
G01*
X181768751Y46831250D02*
G75*
G03*
X181768751Y46831250I-1J0D01*
G01*
X-97425000Y143668750D02*
G75*
G03*
X-97425000Y143668750I-1000000J0D01*
G01*
X145462500Y90487500D02*
G75*
G03*
X145462500Y90487500I-1000000J0D01*
G01*
D10*
X188118750Y45243750D02*
X188118750Y148431250D01*
D11*
X-2175000Y143668750D02*
G75*
G03*
X-2175000Y143668750I-1000000J0D01*
G01*
D10*
X188118800Y148431250D02*
G75*
G03*
X185737500Y150812500I-2381300J-50D01*
G01*
D11*
X146256250Y128587500D02*
G75*
G03*
X146256250Y128587500I-1000000J0D01*
G01*
X-148225000Y46831250D02*
G75*
G03*
X-148225000Y46831250I-1000000J0D01*
G01*
D10*
X185737500Y42862550D02*
G75*
G03*
X188118750Y45243750I0J2381250D01*
G01*
D11*
X182768750Y143668750D02*
G75*
G03*
X182768750Y143668750I-1000000J0D01*
G01*
X-76787500Y90487500D02*
G75*
G03*
X-76787500Y90487500I-1000000J0D01*
G01*
M02*
