%TF.GenerationSoftware,KiCad,Pcbnew,(6.0.9)*%
%TF.CreationDate,2023-04-02T22:18:43-05:00*%
%TF.ProjectId,BasePCB,42617365-5043-4422-9e6b-696361645f70,rev?*%
%TF.SameCoordinates,Original*%
%TF.FileFunction,Drillmap*%
%TF.FilePolarity,Positive*%
%FSLAX45Y45*%
G04 Gerber Fmt 4.5, Leading zero omitted, Abs format (unit mm)*
G04 Created by KiCad (PCBNEW (6.0.9)) date 2023-04-02 22:18:43*
%MOMM*%
%LPD*%
G01*
G04 APERTURE LIST*
%ADD10C,0.150000*%
%ADD11C,0.100000*%
%ADD12C,0.200000*%
%ADD13C,0.040000*%
%ADD14C,0.090000*%
%ADD15C,0.147000*%
%ADD16C,0.210000*%
G04 APERTURE END LIST*
D10*
X-15716250Y4524375D02*
X-15716250Y14843125D01*
D11*
X-2916250Y5397500D02*
G75*
G03*
X-2916250Y5397500I-100000J0D01*
G01*
X-14822500Y14366875D02*
G75*
G03*
X-14822500Y14366875I-100000J0D01*
G01*
D10*
X-15716250Y4524375D02*
G75*
G03*
X-15478125Y4286250I238125J0D01*
G01*
X18573750Y4286250D02*
X-15478125Y4286250D01*
X-15478125Y15081250D02*
G75*
G03*
X-15716250Y14843125I0J-238125D01*
G01*
X18573750Y15081250D02*
X-15478125Y15081250D01*
D11*
X5418125Y5397500D02*
G75*
G03*
X5418125Y5397500I-100000J0D01*
G01*
X-4027500Y14366875D02*
G75*
G03*
X-4027500Y14366875I-100000J0D01*
G01*
X18276875Y4683125D02*
G75*
G03*
X18276875Y4683125I-100000J0D01*
G01*
X18176875Y4683125D02*
G75*
G03*
X18176875Y4683125I0J0D01*
G01*
X-9742500Y14366875D02*
G75*
G03*
X-9742500Y14366875I-100000J0D01*
G01*
X14546250Y9048750D02*
G75*
G03*
X14546250Y9048750I-100000J0D01*
G01*
D10*
X18811875Y4524375D02*
X18811875Y14843125D01*
D11*
X-217500Y14366875D02*
G75*
G03*
X-217500Y14366875I-100000J0D01*
G01*
D10*
X18811880Y14843125D02*
G75*
G03*
X18573750Y15081250I-238130J-5D01*
G01*
D11*
X14625625Y12858750D02*
G75*
G03*
X14625625Y12858750I-100000J0D01*
G01*
X-14822500Y4683125D02*
G75*
G03*
X-14822500Y4683125I-100000J0D01*
G01*
D10*
X18573750Y4286255D02*
G75*
G03*
X18811875Y4524375I0J238125D01*
G01*
D11*
X18276875Y14366875D02*
G75*
G03*
X18276875Y14366875I-100000J0D01*
G01*
X-7678750Y9048750D02*
G75*
G03*
X-7678750Y9048750I-100000J0D01*
G01*
D12*
D13*
X-15101250Y11053125D02*
X-15061250Y11013125D01*
X-15061250Y11053125D02*
X-15101250Y11013125D01*
X-14863125Y11053125D02*
X-14823125Y11013125D01*
X-14823125Y11053125D02*
X-14863125Y11013125D01*
X-14557500Y8567500D02*
X-14517500Y8527500D01*
X-14517500Y8567500D02*
X-14557500Y8527500D01*
X-14547500Y10657500D02*
X-14507500Y10617500D01*
X-14507500Y10657500D02*
X-14547500Y10617500D01*
X-14466250Y10973750D02*
X-14426250Y10933750D01*
X-14426250Y10973750D02*
X-14466250Y10933750D01*
X-14397500Y8052500D02*
X-14357500Y8012500D01*
X-14357500Y8052500D02*
X-14397500Y8012500D01*
X-14345600Y11608750D02*
X-14305600Y11568750D01*
X-14305600Y11608750D02*
X-14345600Y11568750D01*
X-14269400Y11450000D02*
X-14229400Y11410000D01*
X-14229400Y11450000D02*
X-14269400Y11410000D01*
X-14260000Y8180000D02*
X-14220000Y8140000D01*
X-14220000Y8180000D02*
X-14260000Y8140000D01*
X-14180500Y11907200D02*
X-14140500Y11867200D01*
X-14140500Y11907200D02*
X-14180500Y11867200D01*
X-14159000Y9199000D02*
X-14119000Y9159000D01*
X-14119000Y9199000D02*
X-14159000Y9159000D01*
X-14104300Y11818300D02*
X-14064300Y11778300D01*
X-14064300Y11818300D02*
X-14104300Y11778300D01*
X-14031650Y9842500D02*
X-13991650Y9802500D01*
X-13991650Y9842500D02*
X-14031650Y9802500D01*
X-13985000Y7210000D02*
X-13945000Y7170000D01*
X-13945000Y7210000D02*
X-13985000Y7170000D01*
X-13977300Y12288200D02*
X-13937300Y12248200D01*
X-13937300Y12288200D02*
X-13977300Y12248200D01*
X-13882500Y8197500D02*
X-13842500Y8157500D01*
X-13842500Y8197500D02*
X-13882500Y8157500D01*
X-13795000Y5982500D02*
X-13755000Y5942500D01*
X-13755000Y5982500D02*
X-13795000Y5942500D01*
X-13792500Y8690000D02*
X-13752500Y8650000D01*
X-13752500Y8690000D02*
X-13792500Y8650000D01*
X-13792500Y8487500D02*
X-13752500Y8447500D01*
X-13752500Y8487500D02*
X-13792500Y8447500D01*
X-13790000Y8300000D02*
X-13750000Y8260000D01*
X-13750000Y8300000D02*
X-13790000Y8260000D01*
X-13783250Y8807500D02*
X-13743250Y8767500D01*
X-13743250Y8807500D02*
X-13783250Y8767500D01*
X-13710600Y5430200D02*
X-13670600Y5390200D01*
X-13670600Y5430200D02*
X-13710600Y5390200D01*
X-13637950Y8807500D02*
X-13597950Y8767500D01*
X-13597950Y8807500D02*
X-13637950Y8767500D01*
X-13637950Y8685000D02*
X-13597950Y8645000D01*
X-13597950Y8685000D02*
X-13637950Y8645000D01*
X-13595000Y9560000D02*
X-13555000Y9520000D01*
X-13555000Y9560000D02*
X-13595000Y9520000D01*
X-13564400Y9388100D02*
X-13524400Y9348100D01*
X-13524400Y9388100D02*
X-13564400Y9348100D01*
X-13532800Y5328600D02*
X-13492800Y5288600D01*
X-13492800Y5328600D02*
X-13532800Y5288600D01*
X-13520100Y5112700D02*
X-13480100Y5072700D01*
X-13480100Y5112700D02*
X-13520100Y5072700D01*
X-13503850Y9480000D02*
X-13463850Y9440000D01*
X-13463850Y9480000D02*
X-13503850Y9440000D01*
X-13431200Y9246300D02*
X-13391200Y9206300D01*
X-13391200Y9246300D02*
X-13431200Y9206300D01*
X-13431200Y8896200D02*
X-13391200Y8856200D01*
X-13391200Y8896200D02*
X-13431200Y8856200D01*
X-13431200Y4973000D02*
X-13391200Y4933000D01*
X-13391200Y4973000D02*
X-13431200Y4933000D01*
X-13342300Y11983400D02*
X-13302300Y11943400D01*
X-13302300Y11983400D02*
X-13342300Y11943400D01*
X-13329600Y9370000D02*
X-13289600Y9330000D01*
X-13289600Y9370000D02*
X-13329600Y9330000D01*
X-13329600Y8946875D02*
X-13289600Y8906875D01*
X-13289600Y8946875D02*
X-13329600Y8906875D01*
X-13329600Y4744400D02*
X-13289600Y4704400D01*
X-13289600Y4744400D02*
X-13329600Y4704400D01*
X-13240700Y11678600D02*
X-13200700Y11638600D01*
X-13200700Y11678600D02*
X-13240700Y11638600D01*
X-13228375Y11881800D02*
X-13188375Y11841800D01*
X-13188375Y11881800D02*
X-13228375Y11841800D01*
X-13228000Y9449500D02*
X-13188000Y9409500D01*
X-13188000Y9449500D02*
X-13228000Y9409500D01*
X-13228000Y8852000D02*
X-13188000Y8812000D01*
X-13188000Y8852000D02*
X-13228000Y8812000D01*
X-13228000Y4592000D02*
X-13188000Y4552000D01*
X-13188000Y4592000D02*
X-13228000Y4552000D01*
X-13139100Y9550900D02*
X-13099100Y9510900D01*
X-13099100Y9550900D02*
X-13139100Y9510900D01*
X-13137667Y8894779D02*
X-13097667Y8854779D01*
X-13097667Y8894779D02*
X-13137667Y8854779D01*
X-13066450Y5982500D02*
X-13026450Y5942500D01*
X-13026450Y5982500D02*
X-13066450Y5942500D01*
X-13066450Y5335366D02*
X-13026450Y5295366D01*
X-13026450Y5335366D02*
X-13066450Y5295366D01*
X-13062900Y4820600D02*
X-13022900Y4780600D01*
X-13022900Y4820600D02*
X-13062900Y4780600D01*
X-13062900Y4668200D02*
X-13022900Y4628200D01*
X-13022900Y4668200D02*
X-13062900Y4628200D01*
X-13052650Y8627329D02*
X-13012650Y8587329D01*
X-13012650Y8627329D02*
X-13052650Y8587329D01*
X-13040000Y8397500D02*
X-13000000Y8357500D01*
X-13000000Y8397500D02*
X-13040000Y8357500D01*
X-13037500Y5239700D02*
X-12997500Y5199700D01*
X-12997500Y5239700D02*
X-13037500Y5199700D01*
X-13037500Y5112700D02*
X-12997500Y5072700D01*
X-12997500Y5112700D02*
X-13037500Y5072700D01*
X-13012100Y13431200D02*
X-12972100Y13391200D01*
X-12972100Y13431200D02*
X-13012100Y13391200D01*
X-12935900Y4436050D02*
X-12895900Y4396050D01*
X-12895900Y4436050D02*
X-12935900Y4396050D01*
X-12872400Y8529000D02*
X-12832400Y8489000D01*
X-12832400Y8529000D02*
X-12872400Y8489000D01*
X-12868850Y10853100D02*
X-12828850Y10813100D01*
X-12828850Y10853100D02*
X-12868850Y10813100D01*
X-12796200Y11538900D02*
X-12756200Y11498900D01*
X-12756200Y11538900D02*
X-12796200Y11498900D01*
X-12796200Y10942000D02*
X-12756200Y10902000D01*
X-12756200Y10942000D02*
X-12796200Y10902000D01*
X-12795804Y7208946D02*
X-12755804Y7168946D01*
X-12755804Y7208946D02*
X-12795804Y7168946D01*
X-12748150Y8605200D02*
X-12708150Y8565200D01*
X-12708150Y8605200D02*
X-12748150Y8565200D01*
X-12707300Y9125900D02*
X-12667300Y9085900D01*
X-12667300Y9125900D02*
X-12707300Y9085900D01*
X-12681900Y11538900D02*
X-12641900Y11498900D01*
X-12641900Y11538900D02*
X-12681900Y11498900D01*
X-12681900Y10954700D02*
X-12641900Y10914700D01*
X-12641900Y10954700D02*
X-12681900Y10914700D01*
X-12631100Y8977125D02*
X-12591100Y8937125D01*
X-12591100Y8977125D02*
X-12631100Y8937125D01*
X-12631100Y8783000D02*
X-12591100Y8743000D01*
X-12591100Y8783000D02*
X-12631100Y8743000D01*
X-12558107Y11490900D02*
X-12518107Y11450900D01*
X-12518107Y11490900D02*
X-12558107Y11450900D01*
X-12554900Y13538450D02*
X-12514900Y13498450D01*
X-12514900Y13538450D02*
X-12554900Y13498450D01*
X-12529500Y10951150D02*
X-12489500Y10911150D01*
X-12489500Y10951150D02*
X-12529500Y10911150D01*
X-12478700Y11551600D02*
X-12438700Y11511600D01*
X-12438700Y11551600D02*
X-12478700Y11511600D01*
X-12478700Y11208700D02*
X-12438700Y11168700D01*
X-12438700Y11208700D02*
X-12478700Y11168700D01*
X-12478700Y9408100D02*
X-12438700Y9368100D01*
X-12438700Y9408100D02*
X-12478700Y9368100D01*
X-12478700Y8071800D02*
X-12438700Y8031800D01*
X-12438700Y8071800D02*
X-12478700Y8031800D01*
X-12478700Y6916100D02*
X-12438700Y6876100D01*
X-12438700Y6916100D02*
X-12478700Y6876100D01*
X-12389800Y8605200D02*
X-12349800Y8565200D01*
X-12349800Y8605200D02*
X-12389800Y8565200D01*
X-12364400Y7894000D02*
X-12324400Y7854000D01*
X-12324400Y7894000D02*
X-12364400Y7854000D01*
X-12352375Y10259625D02*
X-12312375Y10219625D01*
X-12312375Y10259625D02*
X-12352375Y10219625D01*
X-12351700Y10101625D02*
X-12311700Y10061625D01*
X-12311700Y10101625D02*
X-12351700Y10061625D01*
X-12339000Y9202100D02*
X-12299000Y9162100D01*
X-12299000Y9202100D02*
X-12339000Y9162100D01*
X-12245250Y9408100D02*
X-12205250Y9368100D01*
X-12205250Y9408100D02*
X-12245250Y9368100D01*
X-12173900Y12593000D02*
X-12133900Y12553000D01*
X-12133900Y12593000D02*
X-12173900Y12553000D01*
X-12085000Y8469050D02*
X-12045000Y8429050D01*
X-12045000Y8469050D02*
X-12085000Y8429050D01*
X-12078900Y13050200D02*
X-12038900Y13010200D01*
X-12038900Y13050200D02*
X-12078900Y13010200D01*
X-12008800Y5328600D02*
X-11968800Y5288600D01*
X-11968800Y5328600D02*
X-12008800Y5288600D01*
X-11996100Y13240700D02*
X-11956100Y13200700D01*
X-11956100Y13240700D02*
X-11996100Y13200700D01*
X-11930000Y5982500D02*
X-11890000Y5942500D01*
X-11890000Y5982500D02*
X-11930000Y5942500D01*
X-11926250Y8621450D02*
X-11886250Y8581450D01*
X-11886250Y8621450D02*
X-11926250Y8581450D01*
X-11919900Y5239700D02*
X-11879900Y5199700D01*
X-11879900Y5239700D02*
X-11919900Y5199700D01*
X-11916350Y10357800D02*
X-11876350Y10317800D01*
X-11876350Y10357800D02*
X-11916350Y10317800D01*
X-11847250Y11678600D02*
X-11807250Y11638600D01*
X-11807250Y11678600D02*
X-11847250Y11638600D01*
X-11846250Y10830250D02*
X-11806250Y10790250D01*
X-11806250Y10830250D02*
X-11846250Y10790250D01*
X-11846250Y8214050D02*
X-11806250Y8174050D01*
X-11806250Y8214050D02*
X-11846250Y8174050D01*
X-11843700Y10980100D02*
X-11803700Y10940100D01*
X-11803700Y10980100D02*
X-11843700Y10940100D01*
X-11843700Y10459400D02*
X-11803700Y10419400D01*
X-11803700Y10459400D02*
X-11843700Y10419400D01*
X-11843700Y6243000D02*
X-11803700Y6203000D01*
X-11803700Y6243000D02*
X-11843700Y6203000D01*
X-11805600Y13380400D02*
X-11765600Y13340400D01*
X-11765600Y13380400D02*
X-11805600Y13340400D01*
X-11771050Y5239700D02*
X-11731050Y5199700D01*
X-11731050Y5239700D02*
X-11771050Y5199700D01*
X-11767500Y10002200D02*
X-11727500Y9962200D01*
X-11727500Y10002200D02*
X-11767500Y9962200D01*
X-11767500Y9811700D02*
X-11727500Y9771700D01*
X-11727500Y9811700D02*
X-11767500Y9771700D01*
X-11767208Y8275226D02*
X-11727208Y8235226D01*
X-11727208Y8275226D02*
X-11767208Y8235226D01*
X-11767208Y6128700D02*
X-11727208Y6088700D01*
X-11727208Y6128700D02*
X-11767208Y6088700D01*
X-11716700Y13266100D02*
X-11676700Y13226100D01*
X-11676700Y13266100D02*
X-11716700Y13226100D01*
X-11688125Y6211250D02*
X-11648125Y6171250D01*
X-11648125Y6211250D02*
X-11688125Y6171250D01*
X-11688125Y5331775D02*
X-11648125Y5291775D01*
X-11648125Y5331775D02*
X-11688125Y5291775D01*
X-11684257Y8219466D02*
X-11644257Y8179466D01*
X-11644257Y8219466D02*
X-11684257Y8179466D01*
X-11607500Y5982500D02*
X-11567500Y5942500D01*
X-11567500Y5982500D02*
X-11607500Y5942500D01*
X-11606250Y8570950D02*
X-11566250Y8530950D01*
X-11566250Y8570950D02*
X-11606250Y8530950D01*
X-11489526Y10459056D02*
X-11449526Y10419056D01*
X-11449526Y10459056D02*
X-11489526Y10419056D01*
X-11411900Y6370000D02*
X-11371900Y6330000D01*
X-11371900Y6370000D02*
X-11411900Y6330000D01*
X-11386500Y11564300D02*
X-11346500Y11524300D01*
X-11346500Y11564300D02*
X-11386500Y11524300D01*
X-11313850Y11881800D02*
X-11273850Y11841800D01*
X-11273850Y11881800D02*
X-11313850Y11841800D01*
X-11310300Y11475400D02*
X-11270300Y11435400D01*
X-11270300Y11475400D02*
X-11310300Y11435400D01*
X-11310300Y11373800D02*
X-11270300Y11333800D01*
X-11270300Y11373800D02*
X-11310300Y11333800D01*
X-11294050Y11653200D02*
X-11254050Y11613200D01*
X-11254050Y11653200D02*
X-11294050Y11613200D01*
X-11221400Y10916600D02*
X-11181400Y10876600D01*
X-11181400Y10916600D02*
X-11221400Y10876600D01*
X-11221400Y9867975D02*
X-11181400Y9827975D01*
X-11181400Y9867975D02*
X-11221400Y9827975D01*
X-11135000Y9780625D02*
X-11095000Y9740625D01*
X-11095000Y9780625D02*
X-11135000Y9740625D01*
X-11132500Y11069000D02*
X-11092500Y11029000D01*
X-11092500Y11069000D02*
X-11132500Y11029000D01*
X-11132500Y10103800D02*
X-11092500Y10063800D01*
X-11092500Y10103800D02*
X-11132500Y10063800D01*
X-11103550Y9621200D02*
X-11063550Y9581200D01*
X-11063550Y9621200D02*
X-11103550Y9581200D01*
X-11059850Y12288200D02*
X-11019850Y12248200D01*
X-11019850Y12288200D02*
X-11059850Y12248200D01*
X-11045000Y10187975D02*
X-11005000Y10147975D01*
X-11005000Y10187975D02*
X-11045000Y10147975D01*
X-11043600Y10916600D02*
X-11003600Y10876600D01*
X-11003600Y10916600D02*
X-11043600Y10876600D01*
X-11030900Y6243000D02*
X-10990900Y6203000D01*
X-10990900Y6243000D02*
X-11030900Y6203000D01*
X-11030000Y5982500D02*
X-10990000Y5942500D01*
X-10990000Y5982500D02*
X-11030000Y5942500D01*
X-10970950Y11475400D02*
X-10930950Y11435400D01*
X-10930950Y11475400D02*
X-10970950Y11435400D01*
X-10967400Y11373800D02*
X-10927400Y11333800D01*
X-10927400Y11373800D02*
X-10967400Y11333800D01*
X-10942000Y11653200D02*
X-10902000Y11613200D01*
X-10902000Y11653200D02*
X-10942000Y11613200D01*
X-10942000Y9621200D02*
X-10902000Y9581200D01*
X-10902000Y9621200D02*
X-10942000Y9581200D01*
X-10916600Y9481500D02*
X-10876600Y9441500D01*
X-10876600Y9481500D02*
X-10916600Y9441500D01*
X-10903900Y10345100D02*
X-10863900Y10305100D01*
X-10863900Y10345100D02*
X-10903900Y10305100D01*
X-10894375Y9783125D02*
X-10854375Y9743125D01*
X-10854375Y9783125D02*
X-10894375Y9743125D01*
X-10894375Y8433750D02*
X-10854375Y8393750D01*
X-10854375Y8433750D02*
X-10894375Y8393750D01*
X-10850000Y5982500D02*
X-10810000Y5942500D01*
X-10810000Y5982500D02*
X-10850000Y5942500D01*
X-10789600Y6243000D02*
X-10749600Y6203000D01*
X-10749600Y6243000D02*
X-10789600Y6203000D01*
X-10738800Y10268900D02*
X-10698800Y10228900D01*
X-10698800Y10268900D02*
X-10738800Y10228900D01*
X-10726100Y11653200D02*
X-10686100Y11613200D01*
X-10686100Y11653200D02*
X-10726100Y11613200D01*
X-10697150Y11475400D02*
X-10657150Y11435400D01*
X-10657150Y11475400D02*
X-10697150Y11435400D01*
X-10697150Y11234100D02*
X-10657150Y11194100D01*
X-10657150Y11234100D02*
X-10697150Y11194100D01*
X-10688000Y8694100D02*
X-10648000Y8654100D01*
X-10648000Y8694100D02*
X-10688000Y8654100D01*
X-10551850Y10180000D02*
X-10511850Y10140000D01*
X-10511850Y10180000D02*
X-10551850Y10140000D01*
X-10548300Y11323000D02*
X-10508300Y11283000D01*
X-10508300Y11323000D02*
X-10548300Y11283000D01*
X-10510200Y11653200D02*
X-10470200Y11613200D01*
X-10470200Y11653200D02*
X-10510200Y11613200D01*
X-10472100Y11043600D02*
X-10432100Y11003600D01*
X-10432100Y11043600D02*
X-10472100Y11003600D01*
X-10472100Y10488350D02*
X-10432100Y10448350D01*
X-10432100Y10488350D02*
X-10472100Y10448350D01*
X-10472100Y10091100D02*
X-10432100Y10051100D01*
X-10432100Y10091100D02*
X-10472100Y10051100D01*
X-9952500Y5982500D02*
X-9912500Y5942500D01*
X-9912500Y5982500D02*
X-9952500Y5942500D01*
X-9947025Y6243000D02*
X-9907025Y6203000D01*
X-9907025Y6243000D02*
X-9947025Y6203000D01*
X-9837100Y12389800D02*
X-9797100Y12349800D01*
X-9797100Y12389800D02*
X-9837100Y12349800D01*
X-9799000Y6243000D02*
X-9759000Y6203000D01*
X-9759000Y6243000D02*
X-9799000Y6203000D01*
X-9792500Y5982500D02*
X-9752500Y5942500D01*
X-9752500Y5982500D02*
X-9792500Y5942500D01*
X-9608500Y6827200D02*
X-9568500Y6787200D01*
X-9568500Y6827200D02*
X-9608500Y6787200D01*
X-9532300Y10472100D02*
X-9492300Y10432100D01*
X-9492300Y10472100D02*
X-9532300Y10432100D01*
X-9506900Y12389800D02*
X-9466900Y12349800D01*
X-9466900Y12389800D02*
X-9506900Y12349800D01*
X-9494200Y10332400D02*
X-9454200Y10292400D01*
X-9454200Y10332400D02*
X-9494200Y10292400D01*
X-9494200Y10180000D02*
X-9454200Y10140000D01*
X-9454200Y10180000D02*
X-9494200Y10140000D01*
X-9303700Y10332400D02*
X-9263700Y10292400D01*
X-9263700Y10332400D02*
X-9303700Y10292400D01*
X-9303700Y10180000D02*
X-9263700Y10140000D01*
X-9263700Y10180000D02*
X-9303700Y10140000D01*
X-9252900Y10561000D02*
X-9212900Y10521000D01*
X-9212900Y10561000D02*
X-9252900Y10521000D01*
X-9252900Y6827200D02*
X-9212900Y6787200D01*
X-9212900Y6827200D02*
X-9252900Y6787200D01*
X-9176700Y10472100D02*
X-9136700Y10432100D01*
X-9136700Y10472100D02*
X-9176700Y10432100D01*
X-9125900Y8694100D02*
X-9085900Y8654100D01*
X-9085900Y8694100D02*
X-9125900Y8654100D01*
X-9068750Y8116250D02*
X-9028750Y8076250D01*
X-9028750Y8116250D02*
X-9068750Y8076250D01*
X-9049700Y8605200D02*
X-9009700Y8565200D01*
X-9009700Y8605200D02*
X-9049700Y8565200D01*
X-9049700Y8465500D02*
X-9009700Y8425500D01*
X-9009700Y8465500D02*
X-9049700Y8425500D01*
X-8849225Y8605200D02*
X-8809225Y8565200D01*
X-8809225Y8605200D02*
X-8849225Y8565200D01*
X-8833800Y8465500D02*
X-8793800Y8425500D01*
X-8793800Y8465500D02*
X-8833800Y8425500D01*
X-8795700Y8694100D02*
X-8755700Y8654100D01*
X-8755700Y8694100D02*
X-8795700Y8654100D01*
X-8751250Y8116250D02*
X-8711250Y8076250D01*
X-8711250Y8116250D02*
X-8751250Y8076250D01*
X-8465500Y12529500D02*
X-8425500Y12489500D01*
X-8425500Y12529500D02*
X-8465500Y12489500D01*
X-8198800Y12529500D02*
X-8158800Y12489500D01*
X-8158800Y12529500D02*
X-8198800Y12489500D01*
X-7055800Y10472100D02*
X-7015800Y10432100D01*
X-7015800Y10472100D02*
X-7055800Y10432100D01*
X-6903400Y10561000D02*
X-6863400Y10521000D01*
X-6863400Y10561000D02*
X-6903400Y10521000D01*
X-6903400Y10332400D02*
X-6863400Y10292400D01*
X-6863400Y10332400D02*
X-6903400Y10292400D01*
X-6890700Y10180000D02*
X-6850700Y10140000D01*
X-6850700Y10180000D02*
X-6890700Y10140000D01*
X-6865300Y9786300D02*
X-6825300Y9746300D01*
X-6825300Y9786300D02*
X-6865300Y9746300D01*
X-6706100Y9786300D02*
X-6666100Y9746300D01*
X-6666100Y9786300D02*
X-6706100Y9746300D01*
X-6700200Y10332400D02*
X-6660200Y10292400D01*
X-6660200Y10332400D02*
X-6700200Y10292400D01*
X-6687500Y10180000D02*
X-6647500Y10140000D01*
X-6647500Y10180000D02*
X-6687500Y10140000D01*
X-6674800Y10561000D02*
X-6634800Y10521000D01*
X-6634800Y10561000D02*
X-6674800Y10521000D01*
X-6611300Y10472100D02*
X-6571300Y10432100D01*
X-6571300Y10472100D02*
X-6611300Y10432100D01*
X-6204900Y8694100D02*
X-6164900Y8654100D01*
X-6164900Y8694100D02*
X-6204900Y8654100D01*
X-6131875Y8116250D02*
X-6091875Y8076250D01*
X-6091875Y8116250D02*
X-6131875Y8076250D01*
X-6077900Y8605200D02*
X-6037900Y8565200D01*
X-6037900Y8605200D02*
X-6077900Y8565200D01*
X-6065200Y6827200D02*
X-6025200Y6787200D01*
X-6025200Y6827200D02*
X-6065200Y6787200D01*
X-6052500Y8465500D02*
X-6012500Y8425500D01*
X-6012500Y8465500D02*
X-6052500Y8425500D01*
X-6029900Y6243000D02*
X-5989900Y6203000D01*
X-5989900Y6243000D02*
X-6029900Y6203000D01*
X-5874700Y8465500D02*
X-5834700Y8425500D01*
X-5834700Y8465500D02*
X-5874700Y8425500D01*
X-5874700Y6243000D02*
X-5834700Y6203000D01*
X-5834700Y6243000D02*
X-5874700Y6203000D01*
X-5862000Y6827200D02*
X-5822000Y6787200D01*
X-5822000Y6827200D02*
X-5862000Y6787200D01*
X-5849300Y8694100D02*
X-5809300Y8654100D01*
X-5809300Y8694100D02*
X-5849300Y8654100D01*
X-5814375Y8116250D02*
X-5774375Y8076250D01*
X-5774375Y8116250D02*
X-5814375Y8076250D01*
X-5773100Y8605200D02*
X-5733100Y8565200D01*
X-5733100Y8605200D02*
X-5773100Y8565200D01*
X-5608000Y12529500D02*
X-5568000Y12489500D01*
X-5568000Y12529500D02*
X-5608000Y12489500D01*
X-5442900Y4515800D02*
X-5402900Y4475800D01*
X-5402900Y4515800D02*
X-5442900Y4475800D01*
X-5417500Y4861875D02*
X-5377500Y4821875D01*
X-5377500Y4861875D02*
X-5417500Y4821875D01*
X-5417500Y4703125D02*
X-5377500Y4663125D01*
X-5377500Y4703125D02*
X-5417500Y4663125D01*
X-5379400Y12529500D02*
X-5339400Y12489500D01*
X-5339400Y12529500D02*
X-5379400Y12489500D01*
X-5354000Y4947600D02*
X-5314000Y4907600D01*
X-5314000Y4947600D02*
X-5354000Y4907600D01*
X-5344850Y4436050D02*
X-5304850Y4396050D01*
X-5304850Y4436050D02*
X-5344850Y4396050D01*
X-5338125Y4782500D02*
X-5298125Y4742500D01*
X-5298125Y4782500D02*
X-5338125Y4742500D01*
X-5328600Y4630100D02*
X-5288600Y4590100D01*
X-5288600Y4630100D02*
X-5328600Y4590100D01*
X-5154350Y4782500D02*
X-5114350Y4742500D01*
X-5114350Y4782500D02*
X-5154350Y4742500D01*
X-5125400Y4630100D02*
X-5085400Y4590100D01*
X-5085400Y4630100D02*
X-5125400Y4590100D01*
X-5100000Y4439600D02*
X-5060000Y4399600D01*
X-5060000Y4439600D02*
X-5100000Y4399600D01*
X-5061900Y4947600D02*
X-5021900Y4907600D01*
X-5021900Y4947600D02*
X-5061900Y4907600D01*
X-5049200Y10561000D02*
X-5009200Y10521000D01*
X-5009200Y10561000D02*
X-5049200Y10521000D01*
X-5020625Y10180000D02*
X-4980625Y10140000D01*
X-4980625Y10180000D02*
X-5020625Y10140000D01*
X-5020625Y4703125D02*
X-4980625Y4663125D01*
X-4980625Y4703125D02*
X-5020625Y4663125D01*
X-5011100Y4515800D02*
X-4971100Y4475800D01*
X-4971100Y4515800D02*
X-5011100Y4475800D01*
X-4985700Y10332400D02*
X-4945700Y10292400D01*
X-4945700Y10332400D02*
X-4985700Y10292400D01*
X-4967500Y9902500D02*
X-4927500Y9862500D01*
X-4927500Y9902500D02*
X-4967500Y9862500D01*
X-4960300Y10472100D02*
X-4920300Y10432100D01*
X-4920300Y10472100D02*
X-4960300Y10432100D01*
X-4947600Y9786300D02*
X-4907600Y9746300D01*
X-4907600Y9786300D02*
X-4947600Y9746300D01*
X-4941250Y4861875D02*
X-4901250Y4821875D01*
X-4901250Y4861875D02*
X-4941250Y4821875D01*
X-4801100Y10332400D02*
X-4761100Y10292400D01*
X-4761100Y10332400D02*
X-4801100Y10292400D01*
X-4801100Y9786300D02*
X-4761100Y9746300D01*
X-4761100Y9786300D02*
X-4801100Y9746300D01*
X-4800000Y9902500D02*
X-4760000Y9862500D01*
X-4760000Y9902500D02*
X-4800000Y9862500D01*
X-4782500Y10180000D02*
X-4742500Y10140000D01*
X-4742500Y10180000D02*
X-4782500Y10140000D01*
X-4757100Y10561000D02*
X-4717100Y10521000D01*
X-4717100Y10561000D02*
X-4757100Y10521000D01*
X-4680900Y10472100D02*
X-4640900Y10432100D01*
X-4640900Y10472100D02*
X-4680900Y10432100D01*
X-4515800Y8694100D02*
X-4475800Y8654100D01*
X-4475800Y8694100D02*
X-4515800Y8654100D01*
X-4477700Y6827200D02*
X-4437700Y6787200D01*
X-4437700Y6827200D02*
X-4477700Y6787200D01*
X-4458275Y6243000D02*
X-4418275Y6203000D01*
X-4418275Y6243000D02*
X-4458275Y6203000D01*
X-4388800Y8605200D02*
X-4348800Y8565200D01*
X-4348800Y8605200D02*
X-4388800Y8565200D01*
X-4299900Y6827200D02*
X-4259900Y6787200D01*
X-4259900Y6827200D02*
X-4299900Y6787200D01*
X-4287200Y6243000D02*
X-4247200Y6203000D01*
X-4247200Y6243000D02*
X-4287200Y6203000D01*
X-4236400Y8465500D02*
X-4196400Y8425500D01*
X-4196400Y8465500D02*
X-4236400Y8425500D01*
X-4185600Y8694100D02*
X-4145600Y8654100D01*
X-4145600Y8694100D02*
X-4185600Y8654100D01*
X-4122100Y8605200D02*
X-4082100Y8565200D01*
X-4082100Y8605200D02*
X-4122100Y8565200D01*
X-4068125Y8116250D02*
X-4028125Y8076250D01*
X-4028125Y8116250D02*
X-4068125Y8076250D01*
X-3969700Y8465500D02*
X-3929700Y8425500D01*
X-3929700Y8465500D02*
X-3969700Y8425500D01*
X-3750625Y8116250D02*
X-3710625Y8076250D01*
X-3710625Y8116250D02*
X-3750625Y8076250D01*
X-3677600Y12529500D02*
X-3637600Y12489500D01*
X-3637600Y12529500D02*
X-3677600Y12489500D01*
X-3423600Y12529500D02*
X-3383600Y12489500D01*
X-3383600Y12529500D02*
X-3423600Y12489500D01*
X-3271200Y8694100D02*
X-3231200Y8654100D01*
X-3231200Y8694100D02*
X-3271200Y8654100D01*
X-3195000Y8465500D02*
X-3155000Y8425500D01*
X-3155000Y8465500D02*
X-3195000Y8425500D01*
X-3182300Y8605200D02*
X-3142300Y8565200D01*
X-3142300Y8605200D02*
X-3182300Y8565200D01*
X-3144200Y10561000D02*
X-3104200Y10521000D01*
X-3104200Y10561000D02*
X-3144200Y10521000D01*
X-3115625Y10180000D02*
X-3075625Y10140000D01*
X-3075625Y10180000D02*
X-3115625Y10140000D01*
X-3093400Y9786300D02*
X-3053400Y9746300D01*
X-3053400Y9786300D02*
X-3093400Y9746300D01*
X-3068000Y10472100D02*
X-3028000Y10432100D01*
X-3028000Y10472100D02*
X-3068000Y10432100D01*
X-3042600Y10332400D02*
X-3002600Y10292400D01*
X-3002600Y10332400D02*
X-3042600Y10292400D01*
X-3042500Y9902500D02*
X-3002500Y9862500D01*
X-3002500Y9902500D02*
X-3042500Y9862500D01*
X-3027100Y8605200D02*
X-2987100Y8565200D01*
X-2987100Y8605200D02*
X-3027100Y8565200D01*
X-2979100Y8694100D02*
X-2939100Y8654100D01*
X-2939100Y8694100D02*
X-2979100Y8654100D01*
X-2896100Y10332400D02*
X-2856100Y10292400D01*
X-2856100Y10332400D02*
X-2896100Y10292400D01*
X-2896100Y9902500D02*
X-2856100Y9862500D01*
X-2856100Y9902500D02*
X-2896100Y9862500D01*
X-2896100Y9786300D02*
X-2856100Y9746300D01*
X-2856100Y9786300D02*
X-2896100Y9746300D01*
X-2890200Y8465500D02*
X-2850200Y8425500D01*
X-2850200Y8465500D02*
X-2890200Y8425500D01*
X-2864800Y10561000D02*
X-2824800Y10521000D01*
X-2824800Y10561000D02*
X-2864800Y10521000D01*
X-2798125Y10180000D02*
X-2758125Y10140000D01*
X-2758125Y10180000D02*
X-2798125Y10140000D01*
X-2763200Y10472100D02*
X-2723200Y10432100D01*
X-2723200Y10472100D02*
X-2763200Y10432100D01*
X-2401250Y4861875D02*
X-2361250Y4821875D01*
X-2361250Y4861875D02*
X-2401250Y4821875D01*
X-2344100Y8236900D02*
X-2304100Y8196900D01*
X-2304100Y8236900D02*
X-2344100Y8196900D01*
X-2344100Y4630100D02*
X-2304100Y4590100D01*
X-2304100Y4630100D02*
X-2344100Y4590100D01*
X-2321875Y8116250D02*
X-2281875Y8076250D01*
X-2281875Y8116250D02*
X-2321875Y8076250D01*
X-2321875Y4782500D02*
X-2281875Y4742500D01*
X-2281875Y4782500D02*
X-2321875Y4742500D01*
X-2318700Y4947600D02*
X-2278700Y4907600D01*
X-2278700Y4947600D02*
X-2318700Y4907600D01*
X-2255200Y6827200D02*
X-2215200Y6787200D01*
X-2215200Y6827200D02*
X-2255200Y6787200D01*
X-2255200Y4515800D02*
X-2215200Y4475800D01*
X-2215200Y4515800D02*
X-2255200Y4475800D01*
X-2242500Y4703125D02*
X-2202500Y4663125D01*
X-2202500Y4703125D02*
X-2242500Y4663125D01*
X-2219900Y6243226D02*
X-2179900Y6203226D01*
X-2179900Y6243226D02*
X-2219900Y6203226D01*
X-2074600Y4703125D02*
X-2034600Y4663125D01*
X-2034600Y4703125D02*
X-2074600Y4663125D01*
X-2064926Y6243226D02*
X-2024926Y6203226D01*
X-2024926Y6243226D02*
X-2064926Y6203226D01*
X-2064700Y6827200D02*
X-2024700Y6787200D01*
X-2024700Y6827200D02*
X-2064700Y6787200D01*
X-2052000Y4515800D02*
X-2012000Y4475800D01*
X-2012000Y4515800D02*
X-2052000Y4475800D01*
X-2039300Y8236900D02*
X-1999300Y8196900D01*
X-1999300Y8236900D02*
X-2039300Y8196900D01*
X-2004375Y8116250D02*
X-1964375Y8076250D01*
X-1964375Y8116250D02*
X-2004375Y8076250D01*
X-2004375Y4782500D02*
X-1964375Y4742500D01*
X-1964375Y4782500D02*
X-2004375Y4742500D01*
X-1988500Y4947600D02*
X-1948500Y4907600D01*
X-1948500Y4947600D02*
X-1988500Y4907600D01*
X-1937700Y4630100D02*
X-1897700Y4590100D01*
X-1897700Y4630100D02*
X-1937700Y4590100D01*
X-1925000Y4861875D02*
X-1885000Y4821875D01*
X-1885000Y4861875D02*
X-1925000Y4821875D01*
X-1785300Y12529500D02*
X-1745300Y12489500D01*
X-1745300Y12529500D02*
X-1785300Y12489500D01*
X-1569400Y12529500D02*
X-1529400Y12489500D01*
X-1529400Y12529500D02*
X-1569400Y12489500D01*
X-1302700Y10561000D02*
X-1262700Y10521000D01*
X-1262700Y10561000D02*
X-1302700Y10521000D01*
X-1210625Y10180000D02*
X-1170625Y10140000D01*
X-1170625Y10180000D02*
X-1210625Y10140000D01*
X-1201100Y10472100D02*
X-1161100Y10432100D01*
X-1161100Y10472100D02*
X-1201100Y10432100D01*
X-1163000Y9786300D02*
X-1123000Y9746300D01*
X-1123000Y9786300D02*
X-1163000Y9746300D01*
X-1157500Y9902500D02*
X-1117500Y9862500D01*
X-1117500Y9902500D02*
X-1157500Y9862500D01*
X-1137600Y10332400D02*
X-1097600Y10292400D01*
X-1097600Y10332400D02*
X-1137600Y10292400D01*
X-991100Y10332400D02*
X-951100Y10292400D01*
X-951100Y10332400D02*
X-991100Y10292400D01*
X-991100Y9902500D02*
X-951100Y9862500D01*
X-951100Y9902500D02*
X-991100Y9862500D01*
X-985200Y10561000D02*
X-945200Y10521000D01*
X-945200Y10561000D02*
X-985200Y10521000D01*
X-972500Y10180000D02*
X-932500Y10140000D01*
X-932500Y10180000D02*
X-972500Y10140000D01*
X-959800Y9786300D02*
X-919800Y9746300D01*
X-919800Y9786300D02*
X-959800Y9746300D01*
X-909000Y10472100D02*
X-869000Y10432100D01*
X-869000Y10472100D02*
X-909000Y10432100D01*
X-496250Y4703125D02*
X-456250Y4663125D01*
X-456250Y4703125D02*
X-496250Y4663125D01*
X-489900Y8694100D02*
X-449900Y8654100D01*
X-449900Y8694100D02*
X-489900Y8654100D01*
X-388300Y8605200D02*
X-348300Y8565200D01*
X-348300Y8605200D02*
X-388300Y8565200D01*
X-388300Y4630100D02*
X-348300Y4590100D01*
X-348300Y4630100D02*
X-388300Y4590100D01*
X-375600Y6827200D02*
X-335600Y6787200D01*
X-335600Y6827200D02*
X-375600Y6787200D01*
X-375600Y6243000D02*
X-335600Y6203000D01*
X-335600Y6243000D02*
X-375600Y6203000D01*
X-337500Y4782500D02*
X-297500Y4742500D01*
X-297500Y4782500D02*
X-337500Y4742500D01*
X-286700Y8465500D02*
X-246700Y8425500D01*
X-246700Y8465500D02*
X-286700Y8425500D01*
X-261300Y5595300D02*
X-221300Y5555300D01*
X-221300Y5595300D02*
X-261300Y5555300D01*
X-260716Y4855150D02*
X-220716Y4815150D01*
X-220716Y4855150D02*
X-260716Y4815150D01*
X-258125Y8116250D02*
X-218125Y8076250D01*
X-218125Y8116250D02*
X-258125Y8076250D01*
X-223200Y8694100D02*
X-183200Y8654100D01*
X-183200Y8694100D02*
X-223200Y8654100D01*
X-197800Y8236900D02*
X-157800Y8196900D01*
X-157800Y8236900D02*
X-197800Y8196900D01*
X-178750Y4782500D02*
X-138750Y4742500D01*
X-138750Y4782500D02*
X-178750Y4742500D01*
X-168082Y8605200D02*
X-128082Y8565200D01*
X-128082Y8605200D02*
X-168082Y8565200D01*
X-159700Y6827200D02*
X-119700Y6787200D01*
X-119700Y6827200D02*
X-159700Y6787200D01*
X-147000Y4630100D02*
X-107000Y4590100D01*
X-107000Y4630100D02*
X-147000Y4590100D01*
X-108329Y6243571D02*
X-68329Y6203571D01*
X-68329Y6243571D02*
X-108329Y6203571D01*
X-32700Y8465500D02*
X7300Y8425500D01*
X7300Y8465500D02*
X-32700Y8425500D01*
X-20000Y4703125D02*
X20000Y4663125D01*
X20000Y4703125D02*
X-20000Y4663125D01*
X5400Y8236900D02*
X45400Y8196900D01*
X45400Y8236900D02*
X5400Y8196900D01*
X56200Y12529500D02*
X96200Y12489500D01*
X96200Y12529500D02*
X56200Y12489500D01*
X59375Y8116250D02*
X99375Y8076250D01*
X99375Y8116250D02*
X59375Y8076250D01*
X297500Y12529500D02*
X337500Y12489500D01*
X337500Y12529500D02*
X297500Y12489500D01*
X678500Y10561000D02*
X718500Y10521000D01*
X718500Y10561000D02*
X678500Y10521000D01*
X694375Y10180000D02*
X734375Y10140000D01*
X734375Y10180000D02*
X694375Y10140000D01*
X729300Y9786300D02*
X769300Y9746300D01*
X769300Y9786300D02*
X729300Y9746300D01*
X752500Y9902500D02*
X792500Y9862500D01*
X792500Y9902500D02*
X752500Y9862500D01*
X754700Y10472100D02*
X794700Y10432100D01*
X794700Y10472100D02*
X754700Y10432100D01*
X767400Y10332400D02*
X807400Y10292400D01*
X807400Y10332400D02*
X767400Y10292400D01*
X805500Y13545250D02*
X845500Y13505250D01*
X845500Y13545250D02*
X805500Y13505250D01*
X919800Y9786300D02*
X959800Y9746300D01*
X959800Y9786300D02*
X919800Y9746300D01*
X922500Y9902500D02*
X962500Y9862500D01*
X962500Y9902500D02*
X922500Y9862500D01*
X957900Y10332400D02*
X997900Y10292400D01*
X997900Y10332400D02*
X957900Y10292400D01*
X970600Y10561000D02*
X1010600Y10521000D01*
X1010600Y10561000D02*
X970600Y10521000D01*
X1011875Y10180000D02*
X1051875Y10140000D01*
X1051875Y10180000D02*
X1011875Y10140000D01*
X1046800Y10472100D02*
X1086800Y10432100D01*
X1086800Y10472100D02*
X1046800Y10432100D01*
X1224600Y12456850D02*
X1264600Y12416850D01*
X1264600Y12456850D02*
X1224600Y12416850D01*
X1237300Y13456600D02*
X1277300Y13416600D01*
X1277300Y13456600D02*
X1237300Y13416600D01*
X1250000Y4703125D02*
X1290000Y4663125D01*
X1290000Y4703125D02*
X1250000Y4663125D01*
X1265000Y14006250D02*
X1305000Y13966250D01*
X1305000Y14006250D02*
X1265000Y13966250D01*
X1329375Y4782500D02*
X1369375Y4742500D01*
X1369375Y4782500D02*
X1329375Y4742500D01*
X1392875Y14192875D02*
X1432875Y14152875D01*
X1432875Y14192875D02*
X1392875Y14152875D01*
X1453200Y4855150D02*
X1493200Y4815150D01*
X1493200Y4855150D02*
X1453200Y4815150D01*
X1510350Y6350950D02*
X1550350Y6310950D01*
X1550350Y6350950D02*
X1510350Y6310950D01*
X1552500Y13840000D02*
X1592500Y13800000D01*
X1592500Y13840000D02*
X1552500Y13800000D01*
X1567500Y8116250D02*
X1607500Y8076250D01*
X1607500Y8116250D02*
X1567500Y8076250D01*
X1567500Y6827200D02*
X1607500Y6787200D01*
X1607500Y6827200D02*
X1567500Y6787200D01*
X1580200Y6243000D02*
X1620200Y6203000D01*
X1620200Y6243000D02*
X1580200Y6203000D01*
X1592900Y8694100D02*
X1632900Y8654100D01*
X1632900Y8694100D02*
X1592900Y8654100D01*
X1669100Y8465500D02*
X1709100Y8425500D01*
X1709100Y8465500D02*
X1669100Y8425500D01*
X1681800Y8605200D02*
X1721800Y8565200D01*
X1721800Y8605200D02*
X1681800Y8565200D01*
X1694500Y8236900D02*
X1734500Y8196900D01*
X1734500Y8236900D02*
X1694500Y8196900D01*
X1712500Y13832500D02*
X1752500Y13792500D01*
X1752500Y13832500D02*
X1712500Y13792500D01*
X1735400Y6249925D02*
X1775400Y6209925D01*
X1775400Y6249925D02*
X1735400Y6209925D01*
X1770700Y6827200D02*
X1810700Y6787200D01*
X1810700Y6827200D02*
X1770700Y6787200D01*
X1866400Y8236900D02*
X1906400Y8196900D01*
X1906400Y8236900D02*
X1866400Y8196900D01*
X1872300Y8694100D02*
X1912300Y8654100D01*
X1912300Y8694100D02*
X1872300Y8654100D01*
X1897700Y8465500D02*
X1937700Y8425500D01*
X1937700Y8465500D02*
X1897700Y8425500D01*
X1900875Y13876625D02*
X1940875Y13836625D01*
X1940875Y13876625D02*
X1900875Y13836625D01*
X1948500Y8605200D02*
X1988500Y8565200D01*
X1988500Y8605200D02*
X1948500Y8565200D01*
X1964375Y8116250D02*
X2004375Y8076250D01*
X2004375Y8116250D02*
X1964375Y8076250D01*
X1973900Y12529500D02*
X2013900Y12489500D01*
X2013900Y12529500D02*
X1973900Y12489500D01*
X2075000Y14002500D02*
X2115000Y13962500D01*
X2115000Y14002500D02*
X2075000Y13962500D01*
X2100000Y13465000D02*
X2140000Y13425000D01*
X2140000Y13465000D02*
X2100000Y13425000D01*
X2155000Y13872500D02*
X2195000Y13832500D01*
X2195000Y13872500D02*
X2155000Y13832500D01*
X2177500Y13255000D02*
X2217500Y13215000D01*
X2217500Y13255000D02*
X2177500Y13215000D01*
X2280000Y13877500D02*
X2320000Y13837500D01*
X2320000Y13877500D02*
X2280000Y13837500D01*
X2333833Y12531167D02*
X2373833Y12491167D01*
X2373833Y12531167D02*
X2333833Y12491167D01*
X2410000Y13900000D02*
X2450000Y13860000D01*
X2450000Y13900000D02*
X2410000Y13860000D01*
X2436371Y13623871D02*
X2476371Y13583871D01*
X2476371Y13623871D02*
X2436371Y13583871D01*
X2440000Y13222500D02*
X2480000Y13182500D01*
X2480000Y13222500D02*
X2440000Y13182500D01*
X2494600Y10472100D02*
X2534600Y10432100D01*
X2534600Y10472100D02*
X2494600Y10432100D01*
X2542500Y13872150D02*
X2582500Y13832150D01*
X2582500Y13872150D02*
X2542500Y13832150D01*
X2570800Y10332400D02*
X2610800Y10292400D01*
X2610800Y10332400D02*
X2570800Y10292400D01*
X2599375Y10180000D02*
X2639375Y10140000D01*
X2639375Y10180000D02*
X2599375Y10140000D01*
X2599375Y4782500D02*
X2639375Y4742500D01*
X2639375Y4782500D02*
X2599375Y4742500D01*
X2608900Y10561000D02*
X2648900Y10521000D01*
X2648900Y10561000D02*
X2608900Y10521000D01*
X2612650Y13557500D02*
X2652650Y13517500D01*
X2652650Y13557500D02*
X2612650Y13517500D01*
X2625000Y14085000D02*
X2665000Y14045000D01*
X2665000Y14085000D02*
X2625000Y14045000D01*
X2632500Y9900000D02*
X2672500Y9860000D01*
X2672500Y9900000D02*
X2632500Y9860000D01*
X2634300Y9786300D02*
X2674300Y9746300D01*
X2674300Y9786300D02*
X2634300Y9746300D01*
X2662650Y13135000D02*
X2702650Y13095000D01*
X2702650Y13135000D02*
X2662650Y13095000D01*
X2678750Y4703125D02*
X2718750Y4663125D01*
X2718750Y4703125D02*
X2678750Y4663125D01*
X2687500Y13635000D02*
X2727500Y13595000D01*
X2727500Y13635000D02*
X2687500Y13595000D01*
X2724850Y13467500D02*
X2764850Y13427500D01*
X2764850Y13467500D02*
X2724850Y13427500D01*
X2745000Y12343700D02*
X2785000Y12303700D01*
X2785000Y12343700D02*
X2745000Y12303700D01*
X2797500Y13636050D02*
X2837500Y13596050D01*
X2837500Y13636050D02*
X2797500Y13596050D01*
X2800000Y13887500D02*
X2840000Y13847500D01*
X2840000Y13887500D02*
X2800000Y13847500D01*
X2822500Y9897500D02*
X2862500Y9857500D01*
X2862500Y9897500D02*
X2822500Y9857500D01*
X2824800Y9786300D02*
X2864800Y9746300D01*
X2864800Y9786300D02*
X2824800Y9746300D01*
X2837500Y10332400D02*
X2877500Y10292400D01*
X2877500Y10332400D02*
X2837500Y10292400D01*
X2837500Y10180000D02*
X2877500Y10140000D01*
X2877500Y10180000D02*
X2837500Y10140000D01*
X2862900Y10561000D02*
X2902900Y10521000D01*
X2902900Y10561000D02*
X2862900Y10521000D01*
X2910150Y12605000D02*
X2950150Y12565000D01*
X2950150Y12605000D02*
X2910150Y12565000D01*
X2912500Y12458517D02*
X2952500Y12418517D01*
X2952500Y12458517D02*
X2912500Y12418517D01*
X2930000Y13047500D02*
X2970000Y13007500D01*
X2970000Y13047500D02*
X2930000Y13007500D01*
X2938049Y13907648D02*
X2978049Y13867648D01*
X2978049Y13907648D02*
X2938049Y13867648D01*
X2939100Y10472100D02*
X2979100Y10432100D01*
X2979100Y10472100D02*
X2939100Y10432100D01*
X3035000Y13872150D02*
X3075000Y13832150D01*
X3075000Y13872150D02*
X3035000Y13832150D01*
X3170000Y13872150D02*
X3210000Y13832150D01*
X3210000Y13872150D02*
X3170000Y13832150D01*
X3232500Y12425000D02*
X3272500Y12385000D01*
X3272500Y12425000D02*
X3232500Y12385000D01*
X3232500Y12070000D02*
X3272500Y12030000D01*
X3272500Y12070000D02*
X3232500Y12030000D01*
X3302500Y13872150D02*
X3342500Y13832150D01*
X3342500Y13872150D02*
X3302500Y13832150D01*
X3371147Y9898270D02*
X3411147Y9858270D01*
X3411147Y9898270D02*
X3371147Y9858270D01*
X3383600Y9786300D02*
X3423600Y9746300D01*
X3423600Y9786300D02*
X3383600Y9746300D01*
X3447100Y8325800D02*
X3487100Y8285800D01*
X3487100Y8325800D02*
X3447100Y8285800D01*
X3447100Y6827200D02*
X3487100Y6787200D01*
X3487100Y6827200D02*
X3447100Y6787200D01*
X3459800Y8694100D02*
X3499800Y8654100D01*
X3499800Y8694100D02*
X3459800Y8654100D01*
X3472500Y9608500D02*
X3512500Y9568500D01*
X3512500Y9608500D02*
X3472500Y9568500D01*
X3472500Y8116250D02*
X3512500Y8076250D01*
X3512500Y8116250D02*
X3472500Y8076250D01*
X3510600Y6249925D02*
X3550600Y6209925D01*
X3550600Y6249925D02*
X3510600Y6209925D01*
X3561400Y8605200D02*
X3601400Y8565200D01*
X3601400Y8605200D02*
X3561400Y8565200D01*
X3599500Y8236900D02*
X3639500Y8196900D01*
X3639500Y8236900D02*
X3599500Y8196900D01*
X3605000Y9897500D02*
X3645000Y9857500D01*
X3645000Y9897500D02*
X3605000Y9857500D01*
X3663000Y6827200D02*
X3703000Y6787200D01*
X3703000Y6827200D02*
X3663000Y6787200D01*
X3685796Y6295325D02*
X3725796Y6255325D01*
X3725796Y6295325D02*
X3685796Y6255325D01*
X3697500Y10633650D02*
X3737500Y10593650D01*
X3737500Y10633650D02*
X3697500Y10593650D01*
X3726500Y8694100D02*
X3766500Y8654100D01*
X3766500Y8694100D02*
X3726500Y8654100D01*
X3777300Y8236900D02*
X3817300Y8196900D01*
X3817300Y8236900D02*
X3777300Y8196900D01*
X3790000Y8605200D02*
X3830000Y8565200D01*
X3830000Y8605200D02*
X3790000Y8565200D01*
X3836200Y9786300D02*
X3876200Y9746300D01*
X3876200Y9786300D02*
X3836200Y9746300D01*
X3869375Y8116250D02*
X3909375Y8076250D01*
X3909375Y8116250D02*
X3869375Y8076250D01*
X4007567Y12531167D02*
X4047567Y12491167D01*
X4047567Y12531167D02*
X4007567Y12491167D01*
X4209100Y8770300D02*
X4249100Y8730300D01*
X4249100Y8770300D02*
X4209100Y8730300D01*
X4209100Y8503600D02*
X4249100Y8463600D01*
X4249100Y8503600D02*
X4209100Y8463600D01*
X4221800Y10252650D02*
X4261800Y10212650D01*
X4261800Y10252650D02*
X4221800Y10212650D01*
X4237274Y12531167D02*
X4277274Y12491167D01*
X4277274Y12531167D02*
X4237274Y12491167D01*
X4310700Y9684700D02*
X4350700Y9644700D01*
X4350700Y9684700D02*
X4310700Y9644700D01*
X4323400Y8325800D02*
X4363400Y8285800D01*
X4363400Y8325800D02*
X4323400Y8285800D01*
X4399600Y10561000D02*
X4439600Y10521000D01*
X4439600Y10561000D02*
X4399600Y10521000D01*
X4412300Y10281600D02*
X4452300Y10241600D01*
X4452300Y10281600D02*
X4412300Y10241600D01*
X4501200Y10472100D02*
X4541200Y10432100D01*
X4541200Y10472100D02*
X4501200Y10432100D01*
X4504375Y10180000D02*
X4544375Y10140000D01*
X4544375Y10180000D02*
X4504375Y10140000D01*
X4552000Y10014900D02*
X4592000Y9974900D01*
X4592000Y10014900D02*
X4552000Y9974900D01*
X4560000Y9897500D02*
X4600000Y9857500D01*
X4600000Y9897500D02*
X4560000Y9857500D01*
X4564700Y9786300D02*
X4604700Y9746300D01*
X4604700Y9786300D02*
X4564700Y9746300D01*
X4564700Y9684700D02*
X4604700Y9644700D01*
X4604700Y9684700D02*
X4564700Y9644700D01*
X4729800Y9786300D02*
X4769800Y9746300D01*
X4769800Y9786300D02*
X4729800Y9746300D01*
X4729800Y9684700D02*
X4769800Y9644700D01*
X4769800Y9684700D02*
X4729800Y9644700D01*
X4735000Y9897500D02*
X4775000Y9857500D01*
X4775000Y9897500D02*
X4735000Y9857500D01*
X4742500Y10180000D02*
X4782500Y10140000D01*
X4782500Y10180000D02*
X4742500Y10140000D01*
X4742500Y10014900D02*
X4782500Y9974900D01*
X4782500Y10014900D02*
X4742500Y9974900D01*
X4755200Y10561000D02*
X4795200Y10521000D01*
X4795200Y10561000D02*
X4755200Y10521000D01*
X4806000Y10268900D02*
X4846000Y10228900D01*
X4846000Y10268900D02*
X4806000Y10228900D01*
X4818700Y10472100D02*
X4858700Y10432100D01*
X4858700Y10472100D02*
X4818700Y10432100D01*
X5364800Y8694100D02*
X5404800Y8654100D01*
X5404800Y8694100D02*
X5364800Y8654100D01*
X5364800Y6827200D02*
X5404800Y6787200D01*
X5404800Y6827200D02*
X5364800Y6787200D01*
X5390200Y6357300D02*
X5430200Y6317300D01*
X5430200Y6357300D02*
X5390200Y6317300D01*
X5441000Y8605200D02*
X5481000Y8565200D01*
X5481000Y8605200D02*
X5441000Y8565200D01*
X5504500Y8325800D02*
X5544500Y8285800D01*
X5544500Y8325800D02*
X5504500Y8285800D01*
X5555300Y6357300D02*
X5595300Y6317300D01*
X5595300Y6357300D02*
X5555300Y6317300D01*
X5606100Y6827200D02*
X5646100Y6787200D01*
X5646100Y6827200D02*
X5606100Y6787200D01*
X5644200Y8694100D02*
X5684200Y8654100D01*
X5684200Y8694100D02*
X5644200Y8654100D01*
X5682300Y12529500D02*
X5722300Y12489500D01*
X5722300Y12529500D02*
X5682300Y12489500D01*
X5695000Y8605200D02*
X5735000Y8565200D01*
X5735000Y8605200D02*
X5695000Y8565200D01*
X5695000Y8325800D02*
X5735000Y8285800D01*
X5735000Y8325800D02*
X5695000Y8285800D01*
X5847400Y12262800D02*
X5887400Y12222800D01*
X5887400Y12262800D02*
X5847400Y12222800D01*
X5961700Y12529500D02*
X6001700Y12489500D01*
X6001700Y12529500D02*
X5961700Y12489500D01*
X6190300Y10472100D02*
X6230300Y10432100D01*
X6230300Y10472100D02*
X6190300Y10432100D01*
X6228400Y10268900D02*
X6268400Y10228900D01*
X6268400Y10268900D02*
X6228400Y10228900D01*
X6304600Y10561000D02*
X6344600Y10521000D01*
X6344600Y10561000D02*
X6304600Y10521000D01*
X6325000Y9897500D02*
X6365000Y9857500D01*
X6365000Y9897500D02*
X6325000Y9857500D01*
X6330000Y10180000D02*
X6370000Y10140000D01*
X6370000Y10180000D02*
X6330000Y10140000D01*
X6330000Y10014900D02*
X6370000Y9974900D01*
X6370000Y10014900D02*
X6330000Y9974900D01*
X6330000Y9786300D02*
X6370000Y9746300D01*
X6370000Y9786300D02*
X6330000Y9746300D01*
X6330000Y9684700D02*
X6370000Y9644700D01*
X6370000Y9684700D02*
X6330000Y9644700D01*
X6497900Y10180000D02*
X6537900Y10140000D01*
X6537900Y10180000D02*
X6497900Y10140000D01*
X6497900Y10014900D02*
X6537900Y9974900D01*
X6537900Y10014900D02*
X6497900Y9974900D01*
X6497900Y9897500D02*
X6537900Y9857500D01*
X6537900Y9897500D02*
X6497900Y9857500D01*
X6497900Y9786300D02*
X6537900Y9746300D01*
X6537900Y9786300D02*
X6497900Y9746300D01*
X6497900Y9684700D02*
X6537900Y9644700D01*
X6537900Y9684700D02*
X6497900Y9644700D01*
X6533200Y10561000D02*
X6573200Y10521000D01*
X6573200Y10561000D02*
X6533200Y10521000D01*
X6571300Y10268900D02*
X6611300Y10228900D01*
X6611300Y10268900D02*
X6571300Y10228900D01*
X6609400Y10472100D02*
X6649400Y10432100D01*
X6649400Y10472100D02*
X6609400Y10432100D01*
X7117400Y8694100D02*
X7157400Y8654100D01*
X7157400Y8694100D02*
X7117400Y8654100D01*
X7219000Y8605200D02*
X7259000Y8565200D01*
X7259000Y8605200D02*
X7219000Y8565200D01*
X7282500Y8325800D02*
X7322500Y8285800D01*
X7322500Y8325800D02*
X7282500Y8285800D01*
X7361875Y4861875D02*
X7401875Y4821875D01*
X7401875Y4861875D02*
X7361875Y4821875D01*
X7396800Y8694100D02*
X7436800Y8654100D01*
X7436800Y8694100D02*
X7396800Y8654100D01*
X7460300Y8605200D02*
X7500300Y8565200D01*
X7500300Y8605200D02*
X7460300Y8565200D01*
X7460300Y8325800D02*
X7500300Y8285800D01*
X7500300Y8325800D02*
X7460300Y8285800D01*
X7523800Y12529500D02*
X7563800Y12489500D01*
X7563800Y12529500D02*
X7523800Y12489500D01*
X7727000Y12252900D02*
X7767000Y12212900D01*
X7767000Y12252900D02*
X7727000Y12212900D01*
X7917500Y12529500D02*
X7957500Y12489500D01*
X7957500Y12529500D02*
X7917500Y12489500D01*
X8031800Y10472100D02*
X8071800Y10432100D01*
X8071800Y10472100D02*
X8031800Y10432100D01*
X8044500Y12252900D02*
X8084500Y12212900D01*
X8084500Y12252900D02*
X8044500Y12212900D01*
X8120700Y10268900D02*
X8160700Y10228900D01*
X8160700Y10268900D02*
X8120700Y10228900D01*
X8133400Y8605200D02*
X8173400Y8565200D01*
X8173400Y8605200D02*
X8133400Y8565200D01*
X8171500Y10561000D02*
X8211500Y10521000D01*
X8211500Y10561000D02*
X8171500Y10521000D01*
X8222300Y9684700D02*
X8262300Y9644700D01*
X8262300Y9684700D02*
X8222300Y9644700D01*
X8232500Y9897500D02*
X8272500Y9857500D01*
X8272500Y9897500D02*
X8232500Y9857500D01*
X8235000Y10180000D02*
X8275000Y10140000D01*
X8275000Y10180000D02*
X8235000Y10140000D01*
X8235000Y10014900D02*
X8275000Y9974900D01*
X8275000Y10014900D02*
X8235000Y9974900D01*
X8235000Y9786300D02*
X8275000Y9746300D01*
X8275000Y9786300D02*
X8235000Y9746300D01*
X8247700Y8694100D02*
X8287700Y8654100D01*
X8287700Y8694100D02*
X8247700Y8654100D01*
X8402900Y10180000D02*
X8442900Y10140000D01*
X8442900Y10180000D02*
X8402900Y10140000D01*
X8402900Y10014900D02*
X8442900Y9974900D01*
X8442900Y10014900D02*
X8402900Y9974900D01*
X8405000Y9897500D02*
X8445000Y9857500D01*
X8445000Y9897500D02*
X8405000Y9857500D01*
X8412800Y9786300D02*
X8452800Y9746300D01*
X8452800Y9786300D02*
X8412800Y9746300D01*
X8412800Y9684700D02*
X8452800Y9644700D01*
X8452800Y9684700D02*
X8412800Y9644700D01*
X8425500Y8694100D02*
X8465500Y8654100D01*
X8465500Y8694100D02*
X8425500Y8654100D01*
X8476300Y10561000D02*
X8516300Y10521000D01*
X8516300Y10561000D02*
X8476300Y10521000D01*
X8476300Y6052500D02*
X8516300Y6012500D01*
X8516300Y6052500D02*
X8476300Y6012500D01*
X8501700Y10268900D02*
X8541700Y10228900D01*
X8541700Y10268900D02*
X8501700Y10228900D01*
X8565200Y10472100D02*
X8605200Y10432100D01*
X8605200Y10472100D02*
X8565200Y10432100D01*
X8679500Y8525450D02*
X8719500Y8485450D01*
X8719500Y8525450D02*
X8679500Y8485450D01*
X8717600Y6446200D02*
X8757600Y6406200D01*
X8757600Y6446200D02*
X8717600Y6406200D01*
X8717600Y6059225D02*
X8757600Y6019225D01*
X8757600Y6059225D02*
X8717600Y6019225D01*
X8717600Y5020250D02*
X8757600Y4980250D01*
X8757600Y5020250D02*
X8717600Y4980250D01*
X8717600Y4871400D02*
X8757600Y4831400D01*
X8757600Y4871400D02*
X8717600Y4831400D01*
X8793800Y8605200D02*
X8833800Y8565200D01*
X8833800Y8605200D02*
X8793800Y8565200D01*
X9174800Y8325800D02*
X9214800Y8285800D01*
X9214800Y8325800D02*
X9174800Y8285800D01*
X9187500Y7957500D02*
X9227500Y7917500D01*
X9227500Y7957500D02*
X9187500Y7917500D01*
X9187500Y6357300D02*
X9227500Y6317300D01*
X9227500Y6357300D02*
X9187500Y6317300D01*
X9301800Y6979600D02*
X9341800Y6939600D01*
X9341800Y6979600D02*
X9301800Y6939600D01*
X9301800Y6751000D02*
X9341800Y6711000D01*
X9341800Y6751000D02*
X9301800Y6711000D01*
X9355400Y7957500D02*
X9395400Y7917500D01*
X9395400Y7957500D02*
X9355400Y7917500D01*
X9365300Y8325800D02*
X9405300Y8285800D01*
X9405300Y8325800D02*
X9365300Y8285800D01*
X9390700Y12529500D02*
X9430700Y12489500D01*
X9430700Y12529500D02*
X9390700Y12489500D01*
X9416100Y6413375D02*
X9456100Y6373375D01*
X9456100Y6413375D02*
X9416100Y6373375D01*
X9708200Y12529500D02*
X9748200Y12489500D01*
X9748200Y12529500D02*
X9708200Y12489500D01*
X10025700Y10561000D02*
X10065700Y10521000D01*
X10065700Y10561000D02*
X10025700Y10521000D01*
X10051100Y10268900D02*
X10091100Y10228900D01*
X10091100Y10268900D02*
X10051100Y10228900D01*
X10127300Y10014900D02*
X10167300Y9974900D01*
X10167300Y10014900D02*
X10127300Y9974900D01*
X10127300Y9672000D02*
X10167300Y9632000D01*
X10167300Y9672000D02*
X10127300Y9632000D01*
X10140000Y10472100D02*
X10180000Y10432100D01*
X10180000Y10472100D02*
X10140000Y10432100D01*
X10140000Y10180000D02*
X10180000Y10140000D01*
X10180000Y10180000D02*
X10140000Y10140000D01*
X10140000Y9786300D02*
X10180000Y9746300D01*
X10180000Y9786300D02*
X10140000Y9746300D01*
X10162500Y9897500D02*
X10202500Y9857500D01*
X10202500Y9897500D02*
X10162500Y9857500D01*
X10307900Y10180000D02*
X10347900Y10140000D01*
X10347900Y10180000D02*
X10307900Y10140000D01*
X10307900Y9897500D02*
X10347900Y9857500D01*
X10347900Y9897500D02*
X10307900Y9857500D01*
X10317800Y10014900D02*
X10357800Y9974900D01*
X10357800Y10014900D02*
X10317800Y9974900D01*
X10317800Y9786300D02*
X10357800Y9746300D01*
X10357800Y9786300D02*
X10317800Y9746300D01*
X10317800Y9672000D02*
X10357800Y9632000D01*
X10357800Y9672000D02*
X10317800Y9632000D01*
X10368600Y10561000D02*
X10408600Y10521000D01*
X10408600Y10561000D02*
X10368600Y10521000D01*
X10394000Y10268900D02*
X10434000Y10228900D01*
X10434000Y10268900D02*
X10394000Y10228900D01*
X10457500Y10472100D02*
X10497500Y10432100D01*
X10497500Y10472100D02*
X10457500Y10432100D01*
X10762300Y12529500D02*
X10802300Y12489500D01*
X10802300Y12529500D02*
X10762300Y12489500D01*
X10952800Y12529500D02*
X10992800Y12489500D01*
X10992800Y12529500D02*
X10952800Y12489500D01*
X10952800Y8592500D02*
X10992800Y8552500D01*
X10992800Y8592500D02*
X10952800Y8552500D01*
X11041700Y8694100D02*
X11081700Y8654100D01*
X11081700Y8694100D02*
X11041700Y8654100D01*
X11054400Y8516300D02*
X11094400Y8476300D01*
X11094400Y8516300D02*
X11054400Y8476300D01*
X11067100Y5963600D02*
X11107100Y5923600D01*
X11107100Y5963600D02*
X11067100Y5923600D01*
X11105200Y8325800D02*
X11145200Y8285800D01*
X11145200Y8325800D02*
X11105200Y8285800D01*
X11115100Y7957500D02*
X11155100Y7917500D01*
X11155100Y7957500D02*
X11115100Y7917500D01*
X11171875Y6925625D02*
X11211875Y6885625D01*
X11211875Y6925625D02*
X11171875Y6885625D01*
X11171875Y6052500D02*
X11211875Y6012500D01*
X11211875Y6052500D02*
X11171875Y6012500D01*
X11171875Y5100000D02*
X11211875Y5060000D01*
X11211875Y5100000D02*
X11171875Y5060000D01*
X11171875Y4861875D02*
X11211875Y4821875D01*
X11211875Y4861875D02*
X11171875Y4821875D01*
X11257600Y6433500D02*
X11297600Y6393500D01*
X11297600Y6433500D02*
X11257600Y6393500D01*
X11257600Y5963600D02*
X11297600Y5923600D01*
X11297600Y5963600D02*
X11257600Y5923600D01*
X11270300Y8516300D02*
X11310300Y8476300D01*
X11310300Y8516300D02*
X11270300Y8476300D01*
X11283000Y8325800D02*
X11323000Y8285800D01*
X11323000Y8325800D02*
X11283000Y8285800D01*
X11283000Y7957500D02*
X11323000Y7917500D01*
X11323000Y7957500D02*
X11283000Y7917500D01*
X11295700Y8694100D02*
X11335700Y8654100D01*
X11335700Y8694100D02*
X11295700Y8654100D01*
X11384600Y8592500D02*
X11424600Y8552500D01*
X11424600Y8592500D02*
X11384600Y8552500D01*
X11549700Y6001700D02*
X11589700Y5961700D01*
X11589700Y6001700D02*
X11549700Y5961700D01*
X11714800Y6001700D02*
X11754800Y5961700D01*
X11754800Y6001700D02*
X11714800Y5961700D01*
X11879900Y10561000D02*
X11919900Y10521000D01*
X11919900Y10561000D02*
X11879900Y10521000D01*
X12019600Y10472100D02*
X12059600Y10432100D01*
X12059600Y10472100D02*
X12019600Y10432100D01*
X12108500Y10268900D02*
X12148500Y10228900D01*
X12148500Y10268900D02*
X12108500Y10228900D01*
X12184700Y10014900D02*
X12224700Y9974900D01*
X12224700Y10014900D02*
X12184700Y9974900D01*
X12184700Y9786300D02*
X12224700Y9746300D01*
X12224700Y9786300D02*
X12184700Y9746300D01*
X12190000Y9897500D02*
X12230000Y9857500D01*
X12230000Y9897500D02*
X12190000Y9857500D01*
X12197400Y9672000D02*
X12237400Y9632000D01*
X12237400Y9672000D02*
X12197400Y9632000D01*
X12197400Y8592500D02*
X12237400Y8552500D01*
X12237400Y8592500D02*
X12197400Y8552500D01*
X12198600Y10180000D02*
X12238600Y10140000D01*
X12238600Y10180000D02*
X12198600Y10140000D01*
X12260900Y10561000D02*
X12300900Y10521000D01*
X12300900Y10561000D02*
X12260900Y10521000D01*
X12260900Y8694100D02*
X12300900Y8654100D01*
X12300900Y8694100D02*
X12260900Y8654100D01*
X12324400Y8325800D02*
X12364400Y8285800D01*
X12364400Y8325800D02*
X12324400Y8285800D01*
X12337100Y10472100D02*
X12377100Y10432100D01*
X12377100Y10472100D02*
X12337100Y10432100D01*
X12349800Y9786300D02*
X12389800Y9746300D01*
X12389800Y9786300D02*
X12349800Y9746300D01*
X12349800Y9672000D02*
X12389800Y9632000D01*
X12389800Y9672000D02*
X12349800Y9632000D01*
X12350175Y8516300D02*
X12390175Y8476300D01*
X12390175Y8516300D02*
X12350175Y8476300D01*
X12362500Y10180000D02*
X12402500Y10140000D01*
X12402500Y10180000D02*
X12362500Y10140000D01*
X12362500Y10014900D02*
X12402500Y9974900D01*
X12402500Y10014900D02*
X12362500Y9974900D01*
X12426000Y10268900D02*
X12466000Y10228900D01*
X12466000Y10268900D02*
X12426000Y10228900D01*
X12476800Y12529500D02*
X12516800Y12489500D01*
X12516800Y12529500D02*
X12476800Y12489500D01*
X12502200Y8516300D02*
X12542200Y8476300D01*
X12542200Y8516300D02*
X12502200Y8476300D01*
X12514329Y7944229D02*
X12554329Y7904229D01*
X12554329Y7944229D02*
X12514329Y7904229D01*
X12540300Y8694100D02*
X12580300Y8654100D01*
X12580300Y8694100D02*
X12540300Y8654100D01*
X12603800Y8592500D02*
X12643800Y8552500D01*
X12643800Y8592500D02*
X12603800Y8552500D01*
X12610362Y8319662D02*
X12650362Y8279662D01*
X12650362Y8319662D02*
X12610362Y8279662D01*
X12718671Y7945371D02*
X12758671Y7905371D01*
X12758671Y7945371D02*
X12718671Y7905371D01*
X12807000Y12529500D02*
X12847000Y12489500D01*
X12847000Y12529500D02*
X12807000Y12489500D01*
X13353100Y10561000D02*
X13393100Y10521000D01*
X13393100Y10561000D02*
X13353100Y10521000D01*
X13467400Y10472100D02*
X13507400Y10432100D01*
X13507400Y10472100D02*
X13467400Y10432100D01*
X13467400Y10268900D02*
X13507400Y10228900D01*
X13507400Y10268900D02*
X13467400Y10228900D01*
X13580776Y10013976D02*
X13620776Y9973976D01*
X13620776Y10013976D02*
X13580776Y9973976D01*
X13645200Y10268900D02*
X13685200Y10228900D01*
X13685200Y10268900D02*
X13645200Y10228900D01*
X13657900Y10472100D02*
X13697900Y10432100D01*
X13697900Y10472100D02*
X13657900Y10432100D01*
X13746800Y9786300D02*
X13786800Y9746300D01*
X13786800Y9786300D02*
X13746800Y9746300D01*
X13784900Y10561000D02*
X13824900Y10521000D01*
X13824900Y10561000D02*
X13784900Y10521000D01*
X13810300Y9633900D02*
X13850300Y9593900D01*
X13850300Y9633900D02*
X13810300Y9593900D01*
X13822429Y6140829D02*
X13862429Y6100829D01*
X13862429Y6140829D02*
X13822429Y6100829D01*
X13823000Y6001700D02*
X13863000Y5961700D01*
X13863000Y6001700D02*
X13823000Y5961700D01*
X13899200Y10014900D02*
X13939200Y9974900D01*
X13939200Y10014900D02*
X13899200Y9974900D01*
X13899200Y8783000D02*
X13939200Y8743000D01*
X13939200Y8783000D02*
X13899200Y8743000D01*
X13899200Y8440100D02*
X13939200Y8400100D01*
X13939200Y8440100D02*
X13899200Y8400100D01*
X13975400Y9633900D02*
X14015400Y9593900D01*
X14015400Y9633900D02*
X13975400Y9593900D01*
X14013500Y6001700D02*
X14053500Y5961700D01*
X14053500Y6001700D02*
X14013500Y5961700D01*
X14029375Y9783125D02*
X14069375Y9743125D01*
X14069375Y9783125D02*
X14029375Y9743125D01*
X14063729Y6140829D02*
X14103729Y6100829D01*
X14103729Y6140829D02*
X14063729Y6100829D01*
X14864400Y9802550D02*
X14904400Y9762550D01*
X14904400Y9802550D02*
X14864400Y9762550D01*
X15080300Y9633900D02*
X15120300Y9593900D01*
X15120300Y9633900D02*
X15080300Y9593900D01*
X15143800Y9824400D02*
X15183800Y9784400D01*
X15183800Y9824400D02*
X15143800Y9784400D01*
X15308900Y8766750D02*
X15348900Y8726750D01*
X15348900Y8766750D02*
X15308900Y8726750D01*
X15308900Y8554400D02*
X15348900Y8514400D01*
X15348900Y8554400D02*
X15308900Y8514400D01*
X15321281Y9635064D02*
X15361281Y9595064D01*
X15361281Y9635064D02*
X15321281Y9595064D01*
X15321600Y12529500D02*
X15361600Y12489500D01*
X15361600Y12529500D02*
X15321600Y12489500D01*
X15651800Y12529500D02*
X15691800Y12489500D01*
X15691800Y12529500D02*
X15651800Y12489500D01*
X15728000Y12173900D02*
X15768000Y12133900D01*
X15768000Y12173900D02*
X15728000Y12133900D01*
X15789501Y8319662D02*
X15829501Y8279662D01*
X15829501Y8319662D02*
X15789501Y8279662D01*
X15804200Y9316400D02*
X15844200Y9276400D01*
X15844200Y9316400D02*
X15804200Y9276400D01*
X15804200Y6001700D02*
X15844200Y5961700D01*
X15844200Y6001700D02*
X15804200Y5961700D01*
X15820450Y8414700D02*
X15860450Y8374700D01*
X15860450Y8414700D02*
X15820450Y8374700D01*
X15893100Y8783000D02*
X15933100Y8743000D01*
X15933100Y8783000D02*
X15893100Y8743000D01*
X15893100Y8490900D02*
X15933100Y8450900D01*
X15933100Y8490900D02*
X15893100Y8450900D01*
X15893100Y8004750D02*
X15933100Y7964750D01*
X15933100Y8004750D02*
X15893100Y7964750D01*
X15969300Y8414700D02*
X16009300Y8374700D01*
X16009300Y8414700D02*
X15969300Y8374700D01*
X16082500Y9720000D02*
X16122500Y9680000D01*
X16122500Y9720000D02*
X16082500Y9680000D01*
X16210600Y6077900D02*
X16250600Y6037900D01*
X16250600Y6077900D02*
X16210600Y6037900D01*
X16223300Y6179500D02*
X16263300Y6139500D01*
X16263300Y6179500D02*
X16223300Y6139500D01*
X16261400Y9418000D02*
X16301400Y9378000D01*
X16301400Y9418000D02*
X16261400Y9378000D01*
X16350300Y6340725D02*
X16390300Y6300725D01*
X16390300Y6340725D02*
X16350300Y6300725D01*
X16413800Y8617900D02*
X16453800Y8577900D01*
X16453800Y8617900D02*
X16413800Y8577900D01*
X16426500Y6433500D02*
X16466500Y6393500D01*
X16466500Y6433500D02*
X16426500Y6393500D01*
X16426500Y6179500D02*
X16466500Y6139500D01*
X16466500Y6179500D02*
X16426500Y6139500D01*
X16439200Y9519600D02*
X16479200Y9479600D01*
X16479200Y9519600D02*
X16439200Y9479600D01*
X16439200Y7932100D02*
X16479200Y7892100D01*
X16479200Y7932100D02*
X16439200Y7892100D01*
X16439200Y6624000D02*
X16479200Y6584000D01*
X16479200Y6624000D02*
X16439200Y6584000D01*
X16439200Y6077900D02*
X16479200Y6037900D01*
X16479200Y6077900D02*
X16439200Y6037900D01*
X16442750Y8414700D02*
X16482750Y8374700D01*
X16482750Y8414700D02*
X16442750Y8374700D01*
X16596746Y9002904D02*
X16636746Y8962904D01*
X16636746Y9002904D02*
X16596746Y8962904D01*
X16602924Y9191069D02*
X16642924Y9151069D01*
X16642924Y9191069D02*
X16602924Y9151069D01*
X16667800Y7957500D02*
X16707800Y7917500D01*
X16707800Y7957500D02*
X16667800Y7917500D01*
X16667800Y6344600D02*
X16707800Y6304600D01*
X16707800Y6344600D02*
X16667800Y6304600D01*
X16816650Y6522400D02*
X16856650Y6482400D01*
X16856650Y6522400D02*
X16816650Y6482400D01*
X16858300Y10097750D02*
X16898300Y10057750D01*
X16898300Y10097750D02*
X16858300Y10057750D01*
X16889300Y8706800D02*
X16929300Y8666800D01*
X16929300Y8706800D02*
X16889300Y8666800D01*
X16921800Y9418000D02*
X16961800Y9378000D01*
X16961800Y9418000D02*
X16921800Y9378000D01*
X16921800Y9303700D02*
X16961800Y9263700D01*
X16961800Y9303700D02*
X16921800Y9263700D01*
X16962000Y8617900D02*
X17002000Y8577900D01*
X17002000Y8617900D02*
X16962000Y8577900D01*
X16962000Y6700200D02*
X17002000Y6660200D01*
X17002000Y6700200D02*
X16962000Y6660200D01*
X16973834Y8518653D02*
X17013834Y8478653D01*
X17013834Y8518653D02*
X16973834Y8478653D01*
X16998000Y8414700D02*
X17038000Y8374700D01*
X17038000Y8414700D02*
X16998000Y8374700D01*
X17086900Y8732200D02*
X17126900Y8692200D01*
X17126900Y8732200D02*
X17086900Y8692200D01*
X17099600Y10472100D02*
X17139600Y10432100D01*
X17139600Y10472100D02*
X17099600Y10432100D01*
X17201200Y8325800D02*
X17241200Y8285800D01*
X17241200Y8325800D02*
X17201200Y8285800D01*
X17277400Y10103800D02*
X17317400Y10063800D01*
X17317400Y10103800D02*
X17277400Y10063800D01*
X17295550Y9918750D02*
X17335550Y9878750D01*
X17335550Y9918750D02*
X17295550Y9878750D01*
D14*
X-13084375Y14390875D02*
G75*
G03*
X-13084375Y14390875I-45000J0D01*
G01*
X-12834375Y14390875D02*
G75*
G03*
X-12834375Y14390875I-45000J0D01*
G01*
X-12634375Y14390875D02*
G75*
G03*
X-12634375Y14390875I-45000J0D01*
G01*
X-12384375Y14390875D02*
G75*
G03*
X-12384375Y14390875I-45000J0D01*
G01*
D11*
X-15249000Y10243750D02*
X-15249000Y10143750D01*
X-15299000Y10193750D02*
X-15199000Y10193750D01*
X-15249000Y9989750D02*
X-15249000Y9889750D01*
X-15299000Y9939750D02*
X-15199000Y9939750D01*
X-15249000Y9735750D02*
X-15249000Y9635750D01*
X-15299000Y9685750D02*
X-15199000Y9685750D01*
X-15249000Y9481750D02*
X-15249000Y9381750D01*
X-15299000Y9431750D02*
X-15199000Y9431750D01*
X-15249000Y9227750D02*
X-15249000Y9127750D01*
X-15299000Y9177750D02*
X-15199000Y9177750D01*
X-15249000Y8973750D02*
X-15249000Y8873750D01*
X-15299000Y8923750D02*
X-15199000Y8923750D01*
X-15249000Y8719750D02*
X-15249000Y8619750D01*
X-15299000Y8669750D02*
X-15199000Y8669750D01*
X-15249000Y8465750D02*
X-15249000Y8365750D01*
X-15299000Y8415750D02*
X-15199000Y8415750D01*
X-15249000Y8211750D02*
X-15249000Y8111750D01*
X-15299000Y8161750D02*
X-15199000Y8161750D01*
X-15249000Y7957750D02*
X-15249000Y7857750D01*
X-15299000Y7907750D02*
X-15199000Y7907750D01*
X-14995000Y10243750D02*
X-14995000Y10143750D01*
X-15045000Y10193750D02*
X-14945000Y10193750D01*
X-14995000Y9989750D02*
X-14995000Y9889750D01*
X-15045000Y9939750D02*
X-14945000Y9939750D01*
X-14995000Y9735750D02*
X-14995000Y9635750D01*
X-15045000Y9685750D02*
X-14945000Y9685750D01*
X-14995000Y9481750D02*
X-14995000Y9381750D01*
X-15045000Y9431750D02*
X-14945000Y9431750D01*
X-14995000Y9227750D02*
X-14995000Y9127750D01*
X-15045000Y9177750D02*
X-14945000Y9177750D01*
X-14995000Y8973750D02*
X-14995000Y8873750D01*
X-15045000Y8923750D02*
X-14945000Y8923750D01*
X-14995000Y8719750D02*
X-14995000Y8619750D01*
X-15045000Y8669750D02*
X-14945000Y8669750D01*
X-14995000Y8465750D02*
X-14995000Y8365750D01*
X-15045000Y8415750D02*
X-14945000Y8415750D01*
X-14995000Y8211750D02*
X-14995000Y8111750D01*
X-15045000Y8161750D02*
X-14945000Y8161750D01*
X-14995000Y7957750D02*
X-14995000Y7857750D01*
X-15045000Y7907750D02*
X-14945000Y7907750D01*
X1158875Y14670875D02*
X1158875Y14570875D01*
X1108875Y14620875D02*
X1208875Y14620875D01*
X1158875Y14416875D02*
X1158875Y14316875D01*
X1108875Y14366875D02*
X1208875Y14366875D01*
X1412875Y14670875D02*
X1412875Y14570875D01*
X1362875Y14620875D02*
X1462875Y14620875D01*
X1412875Y14416875D02*
X1412875Y14316875D01*
X1362875Y14366875D02*
X1462875Y14366875D01*
X1666875Y14670875D02*
X1666875Y14570875D01*
X1616875Y14620875D02*
X1716875Y14620875D01*
X1666875Y14416875D02*
X1666875Y14316875D01*
X1616875Y14366875D02*
X1716875Y14366875D01*
X1920875Y14670875D02*
X1920875Y14570875D01*
X1870875Y14620875D02*
X1970875Y14620875D01*
X1920875Y14416875D02*
X1920875Y14316875D01*
X1870875Y14366875D02*
X1970875Y14366875D01*
X2174875Y14670875D02*
X2174875Y14570875D01*
X2124875Y14620875D02*
X2224875Y14620875D01*
X2174875Y14416875D02*
X2174875Y14316875D01*
X2124875Y14366875D02*
X2224875Y14366875D01*
X2428875Y14670875D02*
X2428875Y14570875D01*
X2378875Y14620875D02*
X2478875Y14620875D01*
X2428875Y14416875D02*
X2428875Y14316875D01*
X2378875Y14366875D02*
X2478875Y14366875D01*
X2682875Y14670875D02*
X2682875Y14570875D01*
X2632875Y14620875D02*
X2732875Y14620875D01*
X2682875Y14416875D02*
X2682875Y14316875D01*
X2632875Y14366875D02*
X2732875Y14366875D01*
X2936875Y14670875D02*
X2936875Y14570875D01*
X2886875Y14620875D02*
X2986875Y14620875D01*
X2936875Y14416875D02*
X2936875Y14316875D01*
X2886875Y14366875D02*
X2986875Y14366875D01*
X3190875Y14670875D02*
X3190875Y14570875D01*
X3140875Y14620875D02*
X3240875Y14620875D01*
X3190875Y14416875D02*
X3190875Y14316875D01*
X3140875Y14366875D02*
X3240875Y14366875D01*
X3444875Y14670875D02*
X3444875Y14570875D01*
X3394875Y14620875D02*
X3494875Y14620875D01*
X3444875Y14416875D02*
X3444875Y14316875D01*
X3394875Y14366875D02*
X3494875Y14366875D01*
X18167500Y10241250D02*
X18167500Y10141250D01*
X18117500Y10191250D02*
X18217500Y10191250D01*
X18167500Y9987250D02*
X18167500Y9887250D01*
X18117500Y9937250D02*
X18217500Y9937250D01*
X18167500Y9733250D02*
X18167500Y9633250D01*
X18117500Y9683250D02*
X18217500Y9683250D01*
X18167500Y9479250D02*
X18167500Y9379250D01*
X18117500Y9429250D02*
X18217500Y9429250D01*
X18167500Y9225250D02*
X18167500Y9125250D01*
X18117500Y9175250D02*
X18217500Y9175250D01*
X18167500Y8971250D02*
X18167500Y8871250D01*
X18117500Y8921250D02*
X18217500Y8921250D01*
X18167500Y8717250D02*
X18167500Y8617250D01*
X18117500Y8667250D02*
X18217500Y8667250D01*
X18167500Y8463250D02*
X18167500Y8363250D01*
X18117500Y8413250D02*
X18217500Y8413250D01*
X18167500Y8209250D02*
X18167500Y8109250D01*
X18117500Y8159250D02*
X18217500Y8159250D01*
X18167500Y7955250D02*
X18167500Y7855250D01*
X18117500Y7905250D02*
X18217500Y7905250D01*
X18421500Y10241250D02*
X18421500Y10141250D01*
X18371500Y10191250D02*
X18471500Y10191250D01*
X18421500Y9987250D02*
X18421500Y9887250D01*
X18371500Y9937250D02*
X18471500Y9937250D01*
X18421500Y9733250D02*
X18421500Y9633250D01*
X18371500Y9683250D02*
X18471500Y9683250D01*
X18421500Y9479250D02*
X18421500Y9379250D01*
X18371500Y9429250D02*
X18471500Y9429250D01*
X18421500Y9225250D02*
X18421500Y9125250D01*
X18371500Y9175250D02*
X18471500Y9175250D01*
X18421500Y8971250D02*
X18421500Y8871250D01*
X18371500Y8921250D02*
X18471500Y8921250D01*
X18421500Y8717250D02*
X18421500Y8617250D01*
X18371500Y8667250D02*
X18471500Y8667250D01*
X18421500Y8463250D02*
X18421500Y8363250D01*
X18371500Y8413250D02*
X18471500Y8413250D01*
X18421500Y8209250D02*
X18421500Y8109250D01*
X18371500Y8159250D02*
X18471500Y8159250D01*
X18421500Y7955250D02*
X18421500Y7855250D01*
X18371500Y7905250D02*
X18471500Y7905250D01*
D15*
X-10171527Y13060777D02*
X-10171527Y13164723D01*
X-10275473Y13164723D01*
X-10275473Y13060777D01*
X-10171527Y13060777D01*
X-10040527Y13206777D02*
X-10040527Y13310723D01*
X-10144473Y13310723D01*
X-10144473Y13206777D01*
X-10040527Y13206777D01*
X-9933402Y5440777D02*
X-9933402Y5544723D01*
X-10037348Y5544723D01*
X-10037348Y5440777D01*
X-9933402Y5440777D01*
X-9802402Y5586777D02*
X-9802402Y5690723D01*
X-9906348Y5690723D01*
X-9906348Y5586777D01*
X-9802402Y5586777D01*
X-9695277Y11155777D02*
X-9695277Y11259723D01*
X-9799223Y11259723D01*
X-9799223Y11155777D01*
X-9695277Y11155777D01*
X-9564277Y11301777D02*
X-9564277Y11405723D01*
X-9668223Y11405723D01*
X-9668223Y11301777D01*
X-9564277Y11301777D01*
X-9540527Y13256777D02*
X-9540527Y13360723D01*
X-9644473Y13360723D01*
X-9644473Y13256777D01*
X-9540527Y13256777D01*
X-9536527Y13314777D02*
X-9536527Y13418723D01*
X-9640473Y13418723D01*
X-9640473Y13314777D01*
X-9536527Y13314777D01*
X-9457152Y9250777D02*
X-9457152Y9354723D01*
X-9561098Y9354723D01*
X-9561098Y9250777D01*
X-9457152Y9250777D01*
X-9326152Y9396777D02*
X-9326152Y9500723D01*
X-9430098Y9500723D01*
X-9430098Y9396777D01*
X-9326152Y9396777D01*
X-9302402Y5636777D02*
X-9302402Y5740723D01*
X-9406348Y5740723D01*
X-9406348Y5636777D01*
X-9302402Y5636777D01*
X-9298402Y5694777D02*
X-9298402Y5798723D01*
X-9402348Y5798723D01*
X-9402348Y5694777D01*
X-9298402Y5694777D01*
X-9064277Y11351777D02*
X-9064277Y11455723D01*
X-9168223Y11455723D01*
X-9168223Y11351777D01*
X-9064277Y11351777D01*
X-9060277Y11409777D02*
X-9060277Y11513723D01*
X-9164223Y11513723D01*
X-9164223Y11409777D01*
X-9060277Y11409777D01*
X-8980902Y7345777D02*
X-8980902Y7449723D01*
X-9084848Y7449723D01*
X-9084848Y7345777D01*
X-8980902Y7345777D01*
X-8849902Y7491777D02*
X-8849902Y7595723D01*
X-8953848Y7595723D01*
X-8953848Y7491777D01*
X-8849902Y7491777D01*
X-8826152Y9446777D02*
X-8826152Y9550723D01*
X-8930098Y9550723D01*
X-8930098Y9446777D01*
X-8826152Y9446777D01*
X-8822152Y9504777D02*
X-8822152Y9608723D01*
X-8926098Y9608723D01*
X-8926098Y9504777D01*
X-8822152Y9504777D01*
X-8349902Y7541777D02*
X-8349902Y7645723D01*
X-8453848Y7645723D01*
X-8453848Y7541777D01*
X-8349902Y7541777D01*
X-8345902Y7599777D02*
X-8345902Y7703723D01*
X-8449848Y7703723D01*
X-8449848Y7599777D01*
X-8345902Y7599777D01*
X-8266527Y13060777D02*
X-8266527Y13164723D01*
X-8370473Y13164723D01*
X-8370473Y13060777D01*
X-8266527Y13060777D01*
X-8135527Y13206777D02*
X-8135527Y13310723D01*
X-8239473Y13310723D01*
X-8239473Y13206777D01*
X-8135527Y13206777D01*
X-7635527Y13256777D02*
X-7635527Y13360723D01*
X-7739473Y13360723D01*
X-7739473Y13256777D01*
X-7635527Y13256777D01*
X-7631527Y13314777D02*
X-7631527Y13418723D01*
X-7735473Y13418723D01*
X-7735473Y13314777D01*
X-7631527Y13314777D01*
X-7568027Y5440777D02*
X-7568027Y5544723D01*
X-7671973Y5544723D01*
X-7671973Y5440777D01*
X-7568027Y5440777D01*
X-7437027Y5586777D02*
X-7437027Y5690723D01*
X-7540973Y5690723D01*
X-7540973Y5586777D01*
X-7437027Y5586777D01*
X-7314027Y11155777D02*
X-7314027Y11259723D01*
X-7417973Y11259723D01*
X-7417973Y11155777D01*
X-7314027Y11155777D01*
X-7183027Y11301777D02*
X-7183027Y11405723D01*
X-7286973Y11405723D01*
X-7286973Y11301777D01*
X-7183027Y11301777D01*
X-6937027Y5636777D02*
X-6937027Y5740723D01*
X-7040973Y5740723D01*
X-7040973Y5636777D01*
X-6937027Y5636777D01*
X-6933027Y5694777D02*
X-6933027Y5798723D01*
X-7036973Y5798723D01*
X-7036973Y5694777D01*
X-6933027Y5694777D01*
X-6837777Y9250777D02*
X-6837777Y9354723D01*
X-6941723Y9354723D01*
X-6941723Y9250777D01*
X-6837777Y9250777D01*
X-6706777Y9396777D02*
X-6706777Y9500723D01*
X-6810723Y9500723D01*
X-6810723Y9396777D01*
X-6706777Y9396777D01*
X-6683027Y11351777D02*
X-6683027Y11455723D01*
X-6786973Y11455723D01*
X-6786973Y11351777D01*
X-6683027Y11351777D01*
X-6679027Y11409777D02*
X-6679027Y11513723D01*
X-6782973Y11513723D01*
X-6782973Y11409777D01*
X-6679027Y11409777D01*
X-6361527Y13060777D02*
X-6361527Y13164723D01*
X-6465473Y13164723D01*
X-6465473Y13060777D01*
X-6361527Y13060777D01*
X-6230527Y13206777D02*
X-6230527Y13310723D01*
X-6334473Y13310723D01*
X-6334473Y13206777D01*
X-6230527Y13206777D01*
X-6206777Y9446777D02*
X-6206777Y9550723D01*
X-6310723Y9550723D01*
X-6310723Y9446777D01*
X-6206777Y9446777D01*
X-6202777Y9504777D02*
X-6202777Y9608723D01*
X-6306723Y9608723D01*
X-6306723Y9504777D01*
X-6202777Y9504777D01*
X-5885277Y7345777D02*
X-5885277Y7449723D01*
X-5989223Y7449723D01*
X-5989223Y7345777D01*
X-5885277Y7345777D01*
X-5754277Y7491777D02*
X-5754277Y7595723D01*
X-5858223Y7595723D01*
X-5858223Y7491777D01*
X-5754277Y7491777D01*
X-5730527Y13256777D02*
X-5730527Y13360723D01*
X-5834473Y13360723D01*
X-5834473Y13256777D01*
X-5730527Y13256777D01*
X-5726527Y13314777D02*
X-5726527Y13418723D01*
X-5830473Y13418723D01*
X-5830473Y13314777D01*
X-5726527Y13314777D01*
X-5409027Y11155777D02*
X-5409027Y11259723D01*
X-5512973Y11259723D01*
X-5512973Y11155777D01*
X-5409027Y11155777D01*
X-5278027Y11301777D02*
X-5278027Y11405723D01*
X-5381973Y11405723D01*
X-5381973Y11301777D01*
X-5278027Y11301777D01*
X-5254277Y7541777D02*
X-5254277Y7645723D01*
X-5358223Y7645723D01*
X-5358223Y7541777D01*
X-5254277Y7541777D01*
X-5250277Y7599777D02*
X-5250277Y7703723D01*
X-5354223Y7703723D01*
X-5354223Y7599777D01*
X-5250277Y7599777D01*
X-5170902Y5440777D02*
X-5170902Y5544723D01*
X-5274848Y5544723D01*
X-5274848Y5440777D01*
X-5170902Y5440777D01*
X-5039902Y5586777D02*
X-5039902Y5690723D01*
X-5143848Y5690723D01*
X-5143848Y5586777D01*
X-5039902Y5586777D01*
X-4932777Y9250777D02*
X-4932777Y9354723D01*
X-5036723Y9354723D01*
X-5036723Y9250777D01*
X-4932777Y9250777D01*
X-4801777Y9396777D02*
X-4801777Y9500723D01*
X-4905723Y9500723D01*
X-4905723Y9396777D01*
X-4801777Y9396777D01*
X-4778027Y11351777D02*
X-4778027Y11455723D01*
X-4881973Y11455723D01*
X-4881973Y11351777D01*
X-4778027Y11351777D01*
X-4774027Y11409777D02*
X-4774027Y11513723D01*
X-4877973Y11513723D01*
X-4877973Y11409777D01*
X-4774027Y11409777D01*
X-4539902Y5636777D02*
X-4539902Y5740723D01*
X-4643848Y5740723D01*
X-4643848Y5636777D01*
X-4539902Y5636777D01*
X-4535902Y5694777D02*
X-4535902Y5798723D01*
X-4639848Y5798723D01*
X-4639848Y5694777D01*
X-4535902Y5694777D01*
X-4456527Y13060777D02*
X-4456527Y13164723D01*
X-4560473Y13164723D01*
X-4560473Y13060777D01*
X-4456527Y13060777D01*
X-4325527Y13206777D02*
X-4325527Y13310723D01*
X-4429473Y13310723D01*
X-4429473Y13206777D01*
X-4325527Y13206777D01*
X-4301777Y9446777D02*
X-4301777Y9550723D01*
X-4405723Y9550723D01*
X-4405723Y9446777D01*
X-4301777Y9446777D01*
X-4297777Y9504777D02*
X-4297777Y9608723D01*
X-4401723Y9608723D01*
X-4401723Y9504777D01*
X-4297777Y9504777D01*
X-3980277Y7345777D02*
X-3980277Y7449723D01*
X-4084223Y7449723D01*
X-4084223Y7345777D01*
X-3980277Y7345777D01*
X-3849277Y7491777D02*
X-3849277Y7595723D01*
X-3953223Y7595723D01*
X-3953223Y7491777D01*
X-3849277Y7491777D01*
X-3825527Y13256777D02*
X-3825527Y13360723D01*
X-3929473Y13360723D01*
X-3929473Y13256777D01*
X-3825527Y13256777D01*
X-3821527Y13314777D02*
X-3821527Y13418723D01*
X-3925473Y13418723D01*
X-3925473Y13314777D01*
X-3821527Y13314777D01*
X-3504027Y11155777D02*
X-3504027Y11259723D01*
X-3607973Y11259723D01*
X-3607973Y11155777D01*
X-3504027Y11155777D01*
X-3373027Y11301777D02*
X-3373027Y11405723D01*
X-3476973Y11405723D01*
X-3476973Y11301777D01*
X-3373027Y11301777D01*
X-3349277Y7541777D02*
X-3349277Y7645723D01*
X-3453223Y7645723D01*
X-3453223Y7541777D01*
X-3349277Y7541777D01*
X-3345277Y7599777D02*
X-3345277Y7703723D01*
X-3449223Y7703723D01*
X-3449223Y7599777D01*
X-3345277Y7599777D01*
X-3027777Y9250777D02*
X-3027777Y9354723D01*
X-3131723Y9354723D01*
X-3131723Y9250777D01*
X-3027777Y9250777D01*
X-2896777Y9396777D02*
X-2896777Y9500723D01*
X-3000723Y9500723D01*
X-3000723Y9396777D01*
X-2896777Y9396777D01*
X-2873027Y11351777D02*
X-2873027Y11455723D01*
X-2976973Y11455723D01*
X-2976973Y11351777D01*
X-2873027Y11351777D01*
X-2869027Y11409777D02*
X-2869027Y11513723D01*
X-2972973Y11513723D01*
X-2972973Y11409777D01*
X-2869027Y11409777D01*
X-2551527Y13060777D02*
X-2551527Y13164723D01*
X-2655473Y13164723D01*
X-2655473Y13060777D01*
X-2551527Y13060777D01*
X-2420527Y13206777D02*
X-2420527Y13310723D01*
X-2524473Y13310723D01*
X-2524473Y13206777D01*
X-2420527Y13206777D01*
X-2396777Y9446777D02*
X-2396777Y9550723D01*
X-2500723Y9550723D01*
X-2500723Y9446777D01*
X-2396777Y9446777D01*
X-2392777Y9504777D02*
X-2392777Y9608723D01*
X-2496723Y9608723D01*
X-2496723Y9504777D01*
X-2392777Y9504777D01*
X-2075277Y7345777D02*
X-2075277Y7449723D01*
X-2179223Y7449723D01*
X-2179223Y7345777D01*
X-2075277Y7345777D01*
X-1944277Y7491777D02*
X-1944277Y7595723D01*
X-2048223Y7595723D01*
X-2048223Y7491777D01*
X-1944277Y7491777D01*
X-1920527Y13256777D02*
X-1920527Y13360723D01*
X-2024473Y13360723D01*
X-2024473Y13256777D01*
X-1920527Y13256777D01*
X-1916527Y13314777D02*
X-1916527Y13418723D01*
X-2020473Y13418723D01*
X-2020473Y13314777D01*
X-1916527Y13314777D01*
X-1599027Y11155777D02*
X-1599027Y11259723D01*
X-1702973Y11259723D01*
X-1702973Y11155777D01*
X-1599027Y11155777D01*
X-1468027Y11301777D02*
X-1468027Y11405723D01*
X-1571973Y11405723D01*
X-1571973Y11301777D01*
X-1468027Y11301777D01*
X-1444277Y7541777D02*
X-1444277Y7645723D01*
X-1548223Y7645723D01*
X-1548223Y7541777D01*
X-1444277Y7541777D01*
X-1440277Y7599777D02*
X-1440277Y7703723D01*
X-1544223Y7703723D01*
X-1544223Y7599777D01*
X-1440277Y7599777D01*
X-1122777Y9250777D02*
X-1122777Y9354723D01*
X-1226723Y9354723D01*
X-1226723Y9250777D01*
X-1122777Y9250777D01*
X-991777Y9396777D02*
X-991777Y9500723D01*
X-1095723Y9500723D01*
X-1095723Y9396777D01*
X-991777Y9396777D01*
X-968027Y11351777D02*
X-968027Y11455723D01*
X-1071973Y11455723D01*
X-1071973Y11351777D01*
X-968027Y11351777D01*
X-964027Y11409777D02*
X-964027Y11513723D01*
X-1067973Y11513723D01*
X-1067973Y11409777D01*
X-964027Y11409777D01*
X-646527Y13060777D02*
X-646527Y13164723D01*
X-750473Y13164723D01*
X-750473Y13060777D01*
X-646527Y13060777D01*
X-515527Y13206777D02*
X-515527Y13310723D01*
X-619473Y13310723D01*
X-619473Y13206777D01*
X-515527Y13206777D01*
X-491777Y9446777D02*
X-491777Y9550723D01*
X-595723Y9550723D01*
X-595723Y9446777D01*
X-491777Y9446777D01*
X-487777Y9504777D02*
X-487777Y9608723D01*
X-591723Y9608723D01*
X-591723Y9504777D01*
X-487777Y9504777D01*
X-170277Y7345777D02*
X-170277Y7449723D01*
X-274223Y7449723D01*
X-274223Y7345777D01*
X-170277Y7345777D01*
X-39277Y7491777D02*
X-39277Y7595723D01*
X-143223Y7595723D01*
X-143223Y7491777D01*
X-39277Y7491777D01*
X-15527Y13256777D02*
X-15527Y13360723D01*
X-119473Y13360723D01*
X-119473Y13256777D01*
X-15527Y13256777D01*
X-11527Y13314777D02*
X-11527Y13418723D01*
X-115473Y13418723D01*
X-115473Y13314777D01*
X-11527Y13314777D01*
X305973Y11155777D02*
X305973Y11259723D01*
X202027Y11259723D01*
X202027Y11155777D01*
X305973Y11155777D01*
X436973Y11301777D02*
X436973Y11405723D01*
X333027Y11405723D01*
X333027Y11301777D01*
X436973Y11301777D01*
X460723Y7541777D02*
X460723Y7645723D01*
X356777Y7645723D01*
X356777Y7541777D01*
X460723Y7541777D01*
X464723Y7599777D02*
X464723Y7703723D01*
X360777Y7703723D01*
X360777Y7599777D01*
X464723Y7599777D01*
X782223Y9250777D02*
X782223Y9354723D01*
X678277Y9354723D01*
X678277Y9250777D01*
X782223Y9250777D01*
X913223Y9396777D02*
X913223Y9500723D01*
X809277Y9500723D01*
X809277Y9396777D01*
X913223Y9396777D01*
X936973Y11351777D02*
X936973Y11455723D01*
X833027Y11455723D01*
X833027Y11351777D01*
X936973Y11351777D01*
X940973Y11409777D02*
X940973Y11513723D01*
X837027Y11513723D01*
X837027Y11409777D01*
X940973Y11409777D01*
X1258473Y13060777D02*
X1258473Y13164723D01*
X1154527Y13164723D01*
X1154527Y13060777D01*
X1258473Y13060777D01*
X1389473Y13206777D02*
X1389473Y13310723D01*
X1285527Y13310723D01*
X1285527Y13206777D01*
X1389473Y13206777D01*
X1413223Y9446777D02*
X1413223Y9550723D01*
X1309277Y9550723D01*
X1309277Y9446777D01*
X1413223Y9446777D01*
X1417223Y9504777D02*
X1417223Y9608723D01*
X1313277Y9608723D01*
X1313277Y9504777D01*
X1417223Y9504777D01*
X1734723Y7345777D02*
X1734723Y7449723D01*
X1630777Y7449723D01*
X1630777Y7345777D01*
X1734723Y7345777D01*
X1865723Y7491777D02*
X1865723Y7595723D01*
X1761777Y7595723D01*
X1761777Y7491777D01*
X1865723Y7491777D01*
X1889473Y13256777D02*
X1889473Y13360723D01*
X1785527Y13360723D01*
X1785527Y13256777D01*
X1889473Y13256777D01*
X1893473Y13314777D02*
X1893473Y13418723D01*
X1789527Y13418723D01*
X1789527Y13314777D01*
X1893473Y13314777D01*
X1972848Y5440777D02*
X1972848Y5544723D01*
X1868902Y5544723D01*
X1868902Y5440777D01*
X1972848Y5440777D01*
X2103848Y5586777D02*
X2103848Y5690723D01*
X1999902Y5690723D01*
X1999902Y5586777D01*
X2103848Y5586777D01*
X2210973Y11155777D02*
X2210973Y11259723D01*
X2107027Y11259723D01*
X2107027Y11155777D01*
X2210973Y11155777D01*
X2341973Y11301777D02*
X2341973Y11405723D01*
X2238027Y11405723D01*
X2238027Y11301777D01*
X2341973Y11301777D01*
X2365723Y7541777D02*
X2365723Y7645723D01*
X2261777Y7645723D01*
X2261777Y7541777D01*
X2365723Y7541777D01*
X2369723Y7599777D02*
X2369723Y7703723D01*
X2265777Y7703723D01*
X2265777Y7599777D01*
X2369723Y7599777D01*
X2603848Y5636777D02*
X2603848Y5740723D01*
X2499902Y5740723D01*
X2499902Y5636777D01*
X2603848Y5636777D01*
X2607848Y5694777D02*
X2607848Y5798723D01*
X2503902Y5798723D01*
X2503902Y5694777D01*
X2607848Y5694777D01*
X2687223Y9250777D02*
X2687223Y9354723D01*
X2583277Y9354723D01*
X2583277Y9250777D01*
X2687223Y9250777D01*
X2818223Y9396777D02*
X2818223Y9500723D01*
X2714277Y9500723D01*
X2714277Y9396777D01*
X2818223Y9396777D01*
X2841973Y11351777D02*
X2841973Y11455723D01*
X2738027Y11455723D01*
X2738027Y11351777D01*
X2841973Y11351777D01*
X2845973Y11409777D02*
X2845973Y11513723D01*
X2742027Y11513723D01*
X2742027Y11409777D01*
X2845973Y11409777D01*
X3163473Y13060777D02*
X3163473Y13164723D01*
X3059527Y13164723D01*
X3059527Y13060777D01*
X3163473Y13060777D01*
X3294473Y13206777D02*
X3294473Y13310723D01*
X3190527Y13310723D01*
X3190527Y13206777D01*
X3294473Y13206777D01*
X3318223Y9446777D02*
X3318223Y9550723D01*
X3214277Y9550723D01*
X3214277Y9446777D01*
X3318223Y9446777D01*
X3322223Y9504777D02*
X3322223Y9608723D01*
X3218277Y9608723D01*
X3218277Y9504777D01*
X3322223Y9504777D01*
X3639723Y7345777D02*
X3639723Y7449723D01*
X3535777Y7449723D01*
X3535777Y7345777D01*
X3639723Y7345777D01*
X3770723Y7491777D02*
X3770723Y7595723D01*
X3666777Y7595723D01*
X3666777Y7491777D01*
X3770723Y7491777D01*
X3794473Y13256777D02*
X3794473Y13360723D01*
X3690527Y13360723D01*
X3690527Y13256777D01*
X3794473Y13256777D01*
X3798473Y13314777D02*
X3798473Y13418723D01*
X3694527Y13418723D01*
X3694527Y13314777D01*
X3798473Y13314777D01*
X4115973Y11155777D02*
X4115973Y11259723D01*
X4012027Y11259723D01*
X4012027Y11155777D01*
X4115973Y11155777D01*
X4246973Y11301777D02*
X4246973Y11405723D01*
X4143027Y11405723D01*
X4143027Y11301777D01*
X4246973Y11301777D01*
X4270723Y7541777D02*
X4270723Y7645723D01*
X4166777Y7645723D01*
X4166777Y7541777D01*
X4270723Y7541777D01*
X4274723Y7599777D02*
X4274723Y7703723D01*
X4170777Y7703723D01*
X4170777Y7599777D01*
X4274723Y7599777D01*
X4592223Y9250777D02*
X4592223Y9354723D01*
X4488277Y9354723D01*
X4488277Y9250777D01*
X4592223Y9250777D01*
X4723223Y9396777D02*
X4723223Y9500723D01*
X4619277Y9500723D01*
X4619277Y9396777D01*
X4723223Y9396777D01*
X4746973Y11351777D02*
X4746973Y11455723D01*
X4643027Y11455723D01*
X4643027Y11351777D01*
X4746973Y11351777D01*
X4750973Y11409777D02*
X4750973Y11513723D01*
X4647027Y11513723D01*
X4647027Y11409777D01*
X4750973Y11409777D01*
X5068473Y13060777D02*
X5068473Y13164723D01*
X4964527Y13164723D01*
X4964527Y13060777D01*
X5068473Y13060777D01*
X5199473Y13206777D02*
X5199473Y13310723D01*
X5095527Y13310723D01*
X5095527Y13206777D01*
X5199473Y13206777D01*
X5223223Y9446777D02*
X5223223Y9550723D01*
X5119277Y9550723D01*
X5119277Y9446777D01*
X5223223Y9446777D01*
X5227223Y9504777D02*
X5227223Y9608723D01*
X5123277Y9608723D01*
X5123277Y9504777D01*
X5227223Y9504777D01*
X5544723Y7345777D02*
X5544723Y7449723D01*
X5440777Y7449723D01*
X5440777Y7345777D01*
X5544723Y7345777D01*
X5675723Y7491777D02*
X5675723Y7595723D01*
X5571777Y7595723D01*
X5571777Y7491777D01*
X5675723Y7491777D01*
X5699473Y13256777D02*
X5699473Y13360723D01*
X5595527Y13360723D01*
X5595527Y13256777D01*
X5699473Y13256777D01*
X5703473Y13314777D02*
X5703473Y13418723D01*
X5599527Y13418723D01*
X5599527Y13314777D01*
X5703473Y13314777D01*
X6020973Y11155777D02*
X6020973Y11259723D01*
X5917027Y11259723D01*
X5917027Y11155777D01*
X6020973Y11155777D01*
X6151973Y11301777D02*
X6151973Y11405723D01*
X6048027Y11405723D01*
X6048027Y11301777D01*
X6151973Y11301777D01*
X6175723Y7541777D02*
X6175723Y7645723D01*
X6071777Y7645723D01*
X6071777Y7541777D01*
X6175723Y7541777D01*
X6179723Y7599777D02*
X6179723Y7703723D01*
X6075777Y7703723D01*
X6075777Y7599777D01*
X6179723Y7599777D01*
X6497223Y9250777D02*
X6497223Y9354723D01*
X6393277Y9354723D01*
X6393277Y9250777D01*
X6497223Y9250777D01*
X6628223Y9396777D02*
X6628223Y9500723D01*
X6524277Y9500723D01*
X6524277Y9396777D01*
X6628223Y9396777D01*
X6651973Y11351777D02*
X6651973Y11455723D01*
X6548027Y11455723D01*
X6548027Y11351777D01*
X6651973Y11351777D01*
X6655973Y11409777D02*
X6655973Y11513723D01*
X6552027Y11513723D01*
X6552027Y11409777D01*
X6655973Y11409777D01*
X6973473Y13060777D02*
X6973473Y13164723D01*
X6869527Y13164723D01*
X6869527Y13060777D01*
X6973473Y13060777D01*
X7104473Y13206777D02*
X7104473Y13310723D01*
X7000527Y13310723D01*
X7000527Y13206777D01*
X7104473Y13206777D01*
X7128223Y9446777D02*
X7128223Y9550723D01*
X7024277Y9550723D01*
X7024277Y9446777D01*
X7128223Y9446777D01*
X7132223Y9504777D02*
X7132223Y9608723D01*
X7028277Y9608723D01*
X7028277Y9504777D01*
X7132223Y9504777D01*
X7449723Y7345777D02*
X7449723Y7449723D01*
X7345777Y7449723D01*
X7345777Y7345777D01*
X7449723Y7345777D01*
X7580723Y7491777D02*
X7580723Y7595723D01*
X7476777Y7595723D01*
X7476777Y7491777D01*
X7580723Y7491777D01*
X7604473Y13256777D02*
X7604473Y13360723D01*
X7500527Y13360723D01*
X7500527Y13256777D01*
X7604473Y13256777D01*
X7608473Y13314777D02*
X7608473Y13418723D01*
X7504527Y13418723D01*
X7504527Y13314777D01*
X7608473Y13314777D01*
X7925973Y11155777D02*
X7925973Y11259723D01*
X7822027Y11259723D01*
X7822027Y11155777D01*
X7925973Y11155777D01*
X8056973Y11301777D02*
X8056973Y11405723D01*
X7953027Y11405723D01*
X7953027Y11301777D01*
X8056973Y11301777D01*
X8080723Y7541777D02*
X8080723Y7645723D01*
X7976777Y7645723D01*
X7976777Y7541777D01*
X8080723Y7541777D01*
X8084723Y7599777D02*
X8084723Y7703723D01*
X7980777Y7703723D01*
X7980777Y7599777D01*
X8084723Y7599777D01*
X8402223Y9250777D02*
X8402223Y9354723D01*
X8298277Y9354723D01*
X8298277Y9250777D01*
X8402223Y9250777D01*
X8533223Y9396777D02*
X8533223Y9500723D01*
X8429277Y9500723D01*
X8429277Y9396777D01*
X8533223Y9396777D01*
X8556973Y11351777D02*
X8556973Y11455723D01*
X8453027Y11455723D01*
X8453027Y11351777D01*
X8556973Y11351777D01*
X8560973Y11409777D02*
X8560973Y11513723D01*
X8457027Y11513723D01*
X8457027Y11409777D01*
X8560973Y11409777D01*
X8878473Y13060777D02*
X8878473Y13164723D01*
X8774527Y13164723D01*
X8774527Y13060777D01*
X8878473Y13060777D01*
X9009473Y13206777D02*
X9009473Y13310723D01*
X8905527Y13310723D01*
X8905527Y13206777D01*
X9009473Y13206777D01*
X9033223Y9446777D02*
X9033223Y9550723D01*
X8929277Y9550723D01*
X8929277Y9446777D01*
X9033223Y9446777D01*
X9037223Y9504777D02*
X9037223Y9608723D01*
X8933277Y9608723D01*
X8933277Y9504777D01*
X9037223Y9504777D01*
X9116598Y5440777D02*
X9116598Y5544723D01*
X9012652Y5544723D01*
X9012652Y5440777D01*
X9116598Y5440777D01*
X9247598Y5586777D02*
X9247598Y5690723D01*
X9143652Y5690723D01*
X9143652Y5586777D01*
X9247598Y5586777D01*
X9354723Y7345777D02*
X9354723Y7449723D01*
X9250777Y7449723D01*
X9250777Y7345777D01*
X9354723Y7345777D01*
X9485723Y7491777D02*
X9485723Y7595723D01*
X9381777Y7595723D01*
X9381777Y7491777D01*
X9485723Y7491777D01*
X9509473Y13256777D02*
X9509473Y13360723D01*
X9405527Y13360723D01*
X9405527Y13256777D01*
X9509473Y13256777D01*
X9513473Y13314777D02*
X9513473Y13418723D01*
X9409527Y13418723D01*
X9409527Y13314777D01*
X9513473Y13314777D01*
X9747598Y5636777D02*
X9747598Y5740723D01*
X9643652Y5740723D01*
X9643652Y5636777D01*
X9747598Y5636777D01*
X9751598Y5694777D02*
X9751598Y5798723D01*
X9647652Y5798723D01*
X9647652Y5694777D01*
X9751598Y5694777D01*
X9830973Y11155777D02*
X9830973Y11259723D01*
X9727027Y11259723D01*
X9727027Y11155777D01*
X9830973Y11155777D01*
X9961973Y11301777D02*
X9961973Y11405723D01*
X9858027Y11405723D01*
X9858027Y11301777D01*
X9961973Y11301777D01*
X9985723Y7541777D02*
X9985723Y7645723D01*
X9881777Y7645723D01*
X9881777Y7541777D01*
X9985723Y7541777D01*
X9989723Y7599777D02*
X9989723Y7703723D01*
X9885777Y7703723D01*
X9885777Y7599777D01*
X9989723Y7599777D01*
X10307223Y9250777D02*
X10307223Y9354723D01*
X10203277Y9354723D01*
X10203277Y9250777D01*
X10307223Y9250777D01*
X10438223Y9396777D02*
X10438223Y9500723D01*
X10334277Y9500723D01*
X10334277Y9396777D01*
X10438223Y9396777D01*
X10461973Y11351777D02*
X10461973Y11455723D01*
X10358027Y11455723D01*
X10358027Y11351777D01*
X10461973Y11351777D01*
X10465973Y11409777D02*
X10465973Y11513723D01*
X10362027Y11513723D01*
X10362027Y11409777D01*
X10465973Y11409777D01*
X10783473Y13060777D02*
X10783473Y13164723D01*
X10679527Y13164723D01*
X10679527Y13060777D01*
X10783473Y13060777D01*
X10914473Y13206777D02*
X10914473Y13310723D01*
X10810527Y13310723D01*
X10810527Y13206777D01*
X10914473Y13206777D01*
X10938223Y9446777D02*
X10938223Y9550723D01*
X10834277Y9550723D01*
X10834277Y9446777D01*
X10938223Y9446777D01*
X10942223Y9504777D02*
X10942223Y9608723D01*
X10838277Y9608723D01*
X10838277Y9504777D01*
X10942223Y9504777D01*
X11259723Y7345777D02*
X11259723Y7449723D01*
X11155777Y7449723D01*
X11155777Y7345777D01*
X11259723Y7345777D01*
X11390723Y7491777D02*
X11390723Y7595723D01*
X11286777Y7595723D01*
X11286777Y7491777D01*
X11390723Y7491777D01*
X11414473Y13256777D02*
X11414473Y13360723D01*
X11310527Y13360723D01*
X11310527Y13256777D01*
X11414473Y13256777D01*
X11418473Y13314777D02*
X11418473Y13418723D01*
X11314527Y13418723D01*
X11314527Y13314777D01*
X11418473Y13314777D01*
X11577223Y5440777D02*
X11577223Y5544723D01*
X11473277Y5544723D01*
X11473277Y5440777D01*
X11577223Y5440777D01*
X11708223Y5586777D02*
X11708223Y5690723D01*
X11604277Y5690723D01*
X11604277Y5586777D01*
X11708223Y5586777D01*
X11735973Y11155777D02*
X11735973Y11259723D01*
X11632027Y11259723D01*
X11632027Y11155777D01*
X11735973Y11155777D01*
X11866973Y11301777D02*
X11866973Y11405723D01*
X11763027Y11405723D01*
X11763027Y11301777D01*
X11866973Y11301777D01*
X11890723Y7541777D02*
X11890723Y7645723D01*
X11786777Y7645723D01*
X11786777Y7541777D01*
X11890723Y7541777D01*
X11894723Y7599777D02*
X11894723Y7703723D01*
X11790777Y7703723D01*
X11790777Y7599777D01*
X11894723Y7599777D01*
X12208223Y5636777D02*
X12208223Y5740723D01*
X12104277Y5740723D01*
X12104277Y5636777D01*
X12208223Y5636777D01*
X12212223Y9250777D02*
X12212223Y9354723D01*
X12108277Y9354723D01*
X12108277Y9250777D01*
X12212223Y9250777D01*
X12212223Y5694777D02*
X12212223Y5798723D01*
X12108277Y5798723D01*
X12108277Y5694777D01*
X12212223Y5694777D01*
X12343223Y9396777D02*
X12343223Y9500723D01*
X12239277Y9500723D01*
X12239277Y9396777D01*
X12343223Y9396777D01*
X12366973Y11351777D02*
X12366973Y11455723D01*
X12263027Y11455723D01*
X12263027Y11351777D01*
X12366973Y11351777D01*
X12370973Y11409777D02*
X12370973Y11513723D01*
X12267027Y11513723D01*
X12267027Y11409777D01*
X12370973Y11409777D01*
X12688473Y13060777D02*
X12688473Y13164723D01*
X12584527Y13164723D01*
X12584527Y13060777D01*
X12688473Y13060777D01*
X12819473Y13206777D02*
X12819473Y13310723D01*
X12715527Y13310723D01*
X12715527Y13206777D01*
X12819473Y13206777D01*
X12843223Y9446777D02*
X12843223Y9550723D01*
X12739277Y9550723D01*
X12739277Y9446777D01*
X12843223Y9446777D01*
X12847223Y9504777D02*
X12847223Y9608723D01*
X12743277Y9608723D01*
X12743277Y9504777D01*
X12847223Y9504777D01*
X13319473Y13256777D02*
X13319473Y13360723D01*
X13215527Y13360723D01*
X13215527Y13256777D01*
X13319473Y13256777D01*
X13323473Y13314777D02*
X13323473Y13418723D01*
X13219527Y13418723D01*
X13219527Y13314777D01*
X13323473Y13314777D01*
X13640973Y11155777D02*
X13640973Y11259723D01*
X13537027Y11259723D01*
X13537027Y11155777D01*
X13640973Y11155777D01*
X13771973Y11301777D02*
X13771973Y11405723D01*
X13668027Y11405723D01*
X13668027Y11301777D01*
X13771973Y11301777D01*
X13879098Y5440777D02*
X13879098Y5544723D01*
X13775152Y5544723D01*
X13775152Y5440777D01*
X13879098Y5440777D01*
X14010098Y5586777D02*
X14010098Y5690723D01*
X13906152Y5690723D01*
X13906152Y5586777D01*
X14010098Y5586777D01*
X14271973Y11351777D02*
X14271973Y11455723D01*
X14168027Y11455723D01*
X14168027Y11351777D01*
X14271973Y11351777D01*
X14275973Y11409777D02*
X14275973Y11513723D01*
X14172027Y11513723D01*
X14172027Y11409777D01*
X14275973Y11409777D01*
X14510098Y5636777D02*
X14510098Y5740723D01*
X14406152Y5740723D01*
X14406152Y5636777D01*
X14510098Y5636777D01*
X14514098Y5694777D02*
X14514098Y5798723D01*
X14410152Y5798723D01*
X14410152Y5694777D01*
X14514098Y5694777D01*
X14831598Y7345777D02*
X14831598Y7449723D01*
X14727652Y7449723D01*
X14727652Y7345777D01*
X14831598Y7345777D01*
X14962598Y7491777D02*
X14962598Y7595723D01*
X14858652Y7595723D01*
X14858652Y7491777D01*
X14962598Y7491777D01*
X15307848Y9250777D02*
X15307848Y9354723D01*
X15203902Y9354723D01*
X15203902Y9250777D01*
X15307848Y9250777D01*
X15438848Y9396777D02*
X15438848Y9500723D01*
X15334902Y9500723D01*
X15334902Y9396777D01*
X15438848Y9396777D01*
X15462598Y7541777D02*
X15462598Y7645723D01*
X15358652Y7645723D01*
X15358652Y7541777D01*
X15462598Y7541777D01*
X15466598Y7599777D02*
X15466598Y7703723D01*
X15362652Y7703723D01*
X15362652Y7599777D01*
X15466598Y7599777D01*
X15545973Y13060777D02*
X15545973Y13164723D01*
X15442027Y13164723D01*
X15442027Y13060777D01*
X15545973Y13060777D01*
X15676973Y13206777D02*
X15676973Y13310723D01*
X15573027Y13310723D01*
X15573027Y13206777D01*
X15676973Y13206777D01*
X15938848Y9446777D02*
X15938848Y9550723D01*
X15834902Y9550723D01*
X15834902Y9446777D01*
X15938848Y9446777D01*
X15942848Y9504777D02*
X15942848Y9608723D01*
X15838902Y9608723D01*
X15838902Y9504777D01*
X15942848Y9504777D01*
X16022223Y11155777D02*
X16022223Y11259723D01*
X15918277Y11259723D01*
X15918277Y11155777D01*
X16022223Y11155777D01*
X16153223Y11301777D02*
X16153223Y11405723D01*
X16049277Y11405723D01*
X16049277Y11301777D01*
X16153223Y11301777D01*
X16176973Y13256777D02*
X16176973Y13360723D01*
X16073027Y13360723D01*
X16073027Y13256777D01*
X16176973Y13256777D01*
X16180973Y13314777D02*
X16180973Y13418723D01*
X16077027Y13418723D01*
X16077027Y13314777D01*
X16180973Y13314777D01*
X16260348Y5440777D02*
X16260348Y5544723D01*
X16156402Y5544723D01*
X16156402Y5440777D01*
X16260348Y5440777D01*
X16391348Y5586777D02*
X16391348Y5690723D01*
X16287402Y5690723D01*
X16287402Y5586777D01*
X16391348Y5586777D01*
X16653223Y11351777D02*
X16653223Y11455723D01*
X16549277Y11455723D01*
X16549277Y11351777D01*
X16653223Y11351777D01*
X16657223Y11409777D02*
X16657223Y11513723D01*
X16553277Y11513723D01*
X16553277Y11409777D01*
X16657223Y11409777D01*
X16891348Y5636777D02*
X16891348Y5740723D01*
X16787402Y5740723D01*
X16787402Y5636777D01*
X16891348Y5636777D01*
X16895348Y5694777D02*
X16895348Y5798723D01*
X16791402Y5798723D01*
X16791402Y5694777D01*
X16895348Y5694777D01*
D16*
X-13479375Y14556875D02*
X-13374375Y14661875D01*
X-13479375Y14766875D01*
X-13584375Y14661875D01*
X-13479375Y14556875D01*
X-12079375Y14556875D02*
X-11974375Y14661875D01*
X-12079375Y14766875D01*
X-12184375Y14661875D01*
X-12079375Y14556875D01*
D12*
X-15466131Y3968274D02*
X-15466131Y4168274D01*
X-15418512Y4168274D01*
X-15389940Y4158750D01*
X-15370893Y4139702D01*
X-15361369Y4120655D01*
X-15351845Y4082559D01*
X-15351845Y4053988D01*
X-15361369Y4015893D01*
X-15370893Y3996845D01*
X-15389940Y3977798D01*
X-15418512Y3968274D01*
X-15466131Y3968274D01*
X-15266131Y3968274D02*
X-15266131Y4101607D01*
X-15266131Y4063512D02*
X-15256607Y4082559D01*
X-15247083Y4092083D01*
X-15228036Y4101607D01*
X-15208988Y4101607D01*
X-15142321Y3968274D02*
X-15142321Y4101607D01*
X-15142321Y4168274D02*
X-15151845Y4158750D01*
X-15142321Y4149226D01*
X-15132798Y4158750D01*
X-15142321Y4168274D01*
X-15142321Y4149226D01*
X-15018512Y3968274D02*
X-15037559Y3977798D01*
X-15047083Y3996845D01*
X-15047083Y4168274D01*
X-14913750Y3968274D02*
X-14932798Y3977798D01*
X-14942321Y3996845D01*
X-14942321Y4168274D01*
X-14685178Y3968274D02*
X-14685178Y4168274D01*
X-14618512Y4025417D01*
X-14551845Y4168274D01*
X-14551845Y3968274D01*
X-14370893Y3968274D02*
X-14370893Y4073036D01*
X-14380417Y4092083D01*
X-14399464Y4101607D01*
X-14437559Y4101607D01*
X-14456607Y4092083D01*
X-14370893Y3977798D02*
X-14389940Y3968274D01*
X-14437559Y3968274D01*
X-14456607Y3977798D01*
X-14466131Y3996845D01*
X-14466131Y4015893D01*
X-14456607Y4034940D01*
X-14437559Y4044464D01*
X-14389940Y4044464D01*
X-14370893Y4053988D01*
X-14275655Y4101607D02*
X-14275655Y3901607D01*
X-14275655Y4092083D02*
X-14256607Y4101607D01*
X-14218512Y4101607D01*
X-14199464Y4092083D01*
X-14189940Y4082559D01*
X-14180417Y4063512D01*
X-14180417Y4006369D01*
X-14189940Y3987321D01*
X-14199464Y3977798D01*
X-14218512Y3968274D01*
X-14256607Y3968274D01*
X-14275655Y3977798D01*
X-14094702Y3987321D02*
X-14085178Y3977798D01*
X-14094702Y3968274D01*
X-14104226Y3977798D01*
X-14094702Y3987321D01*
X-14094702Y3968274D01*
X-14094702Y4092083D02*
X-14085178Y4082559D01*
X-14094702Y4073036D01*
X-14104226Y4082559D01*
X-14094702Y4092083D01*
X-14094702Y4073036D01*
D13*
X-15763750Y3658750D02*
X-15723750Y3618750D01*
X-15723750Y3658750D02*
X-15763750Y3618750D01*
D12*
X-15428036Y3748274D02*
X-15408988Y3748274D01*
X-15389940Y3738750D01*
X-15380417Y3729226D01*
X-15370893Y3710178D01*
X-15361369Y3672083D01*
X-15361369Y3624464D01*
X-15370893Y3586369D01*
X-15380417Y3567321D01*
X-15389940Y3557798D01*
X-15408988Y3548274D01*
X-15428036Y3548274D01*
X-15447083Y3557798D01*
X-15456607Y3567321D01*
X-15466131Y3586369D01*
X-15475655Y3624464D01*
X-15475655Y3672083D01*
X-15466131Y3710178D01*
X-15456607Y3729226D01*
X-15447083Y3738750D01*
X-15428036Y3748274D01*
X-15275655Y3567321D02*
X-15266131Y3557798D01*
X-15275655Y3548274D01*
X-15285178Y3557798D01*
X-15275655Y3567321D01*
X-15275655Y3548274D01*
X-15094702Y3681607D02*
X-15094702Y3548274D01*
X-15142321Y3757798D02*
X-15189940Y3614940D01*
X-15066131Y3614940D01*
X-14951845Y3748274D02*
X-14932798Y3748274D01*
X-14913750Y3738750D01*
X-14904226Y3729226D01*
X-14894702Y3710178D01*
X-14885178Y3672083D01*
X-14885178Y3624464D01*
X-14894702Y3586369D01*
X-14904226Y3567321D01*
X-14913750Y3557798D01*
X-14932798Y3548274D01*
X-14951845Y3548274D01*
X-14970893Y3557798D01*
X-14980417Y3567321D01*
X-14989940Y3586369D01*
X-14999464Y3624464D01*
X-14999464Y3672083D01*
X-14989940Y3710178D01*
X-14980417Y3729226D01*
X-14970893Y3738750D01*
X-14951845Y3748274D01*
X-14761369Y3748274D02*
X-14742321Y3748274D01*
X-14723274Y3738750D01*
X-14713750Y3729226D01*
X-14704226Y3710178D01*
X-14694702Y3672083D01*
X-14694702Y3624464D01*
X-14704226Y3586369D01*
X-14713750Y3567321D01*
X-14723274Y3557798D01*
X-14742321Y3548274D01*
X-14761369Y3548274D01*
X-14780417Y3557798D01*
X-14789940Y3567321D01*
X-14799464Y3586369D01*
X-14808988Y3624464D01*
X-14808988Y3672083D01*
X-14799464Y3710178D01*
X-14789940Y3729226D01*
X-14780417Y3738750D01*
X-14761369Y3748274D01*
X-14608988Y3548274D02*
X-14608988Y3681607D01*
X-14608988Y3662559D02*
X-14599464Y3672083D01*
X-14580417Y3681607D01*
X-14551845Y3681607D01*
X-14532798Y3672083D01*
X-14523274Y3653036D01*
X-14523274Y3548274D01*
X-14523274Y3653036D02*
X-14513750Y3672083D01*
X-14494702Y3681607D01*
X-14466131Y3681607D01*
X-14447083Y3672083D01*
X-14437559Y3653036D01*
X-14437559Y3548274D01*
X-14342321Y3548274D02*
X-14342321Y3681607D01*
X-14342321Y3662559D02*
X-14332798Y3672083D01*
X-14313750Y3681607D01*
X-14285178Y3681607D01*
X-14266131Y3672083D01*
X-14256607Y3653036D01*
X-14256607Y3548274D01*
X-14256607Y3653036D02*
X-14247083Y3672083D01*
X-14228036Y3681607D01*
X-14199464Y3681607D01*
X-14180417Y3672083D01*
X-14170893Y3653036D01*
X-14170893Y3548274D01*
X-13780417Y3757798D02*
X-13951845Y3500655D01*
X-13523274Y3748274D02*
X-13504226Y3748274D01*
X-13485178Y3738750D01*
X-13475655Y3729226D01*
X-13466131Y3710178D01*
X-13456607Y3672083D01*
X-13456607Y3624464D01*
X-13466131Y3586369D01*
X-13475655Y3567321D01*
X-13485178Y3557798D01*
X-13504226Y3548274D01*
X-13523274Y3548274D01*
X-13542321Y3557798D01*
X-13551845Y3567321D01*
X-13561369Y3586369D01*
X-13570893Y3624464D01*
X-13570893Y3672083D01*
X-13561369Y3710178D01*
X-13551845Y3729226D01*
X-13542321Y3738750D01*
X-13523274Y3748274D01*
X-13370893Y3567321D02*
X-13361369Y3557798D01*
X-13370893Y3548274D01*
X-13380417Y3557798D01*
X-13370893Y3567321D01*
X-13370893Y3548274D01*
X-13237559Y3748274D02*
X-13218512Y3748274D01*
X-13199464Y3738750D01*
X-13189940Y3729226D01*
X-13180417Y3710178D01*
X-13170893Y3672083D01*
X-13170893Y3624464D01*
X-13180417Y3586369D01*
X-13189940Y3567321D01*
X-13199464Y3557798D01*
X-13218512Y3548274D01*
X-13237559Y3548274D01*
X-13256607Y3557798D01*
X-13266131Y3567321D01*
X-13275655Y3586369D01*
X-13285178Y3624464D01*
X-13285178Y3672083D01*
X-13275655Y3710178D01*
X-13266131Y3729226D01*
X-13256607Y3738750D01*
X-13237559Y3748274D01*
X-12980417Y3548274D02*
X-13094702Y3548274D01*
X-13037559Y3548274D02*
X-13037559Y3748274D01*
X-13056607Y3719702D01*
X-13075655Y3700655D01*
X-13094702Y3691131D01*
X-12799464Y3748274D02*
X-12894702Y3748274D01*
X-12904226Y3653036D01*
X-12894702Y3662559D01*
X-12875655Y3672083D01*
X-12828036Y3672083D01*
X-12808988Y3662559D01*
X-12799464Y3653036D01*
X-12789940Y3633988D01*
X-12789940Y3586369D01*
X-12799464Y3567321D01*
X-12808988Y3557798D01*
X-12828036Y3548274D01*
X-12875655Y3548274D01*
X-12894702Y3557798D01*
X-12904226Y3567321D01*
X-12723274Y3748274D02*
X-12589940Y3748274D01*
X-12675655Y3548274D01*
X-12523274Y3748274D02*
X-12523274Y3710178D01*
X-12447083Y3748274D02*
X-12447083Y3710178D01*
X-12151845Y3472083D02*
X-12161369Y3481607D01*
X-12180417Y3510178D01*
X-12189940Y3529226D01*
X-12199464Y3557798D01*
X-12208988Y3605417D01*
X-12208988Y3643512D01*
X-12199464Y3691131D01*
X-12189940Y3719702D01*
X-12180417Y3738750D01*
X-12161369Y3767321D01*
X-12151845Y3776845D01*
X-11989940Y3748274D02*
X-12028036Y3748274D01*
X-12047083Y3738750D01*
X-12056607Y3729226D01*
X-12075655Y3700655D01*
X-12085178Y3662559D01*
X-12085178Y3586369D01*
X-12075655Y3567321D01*
X-12066131Y3557798D01*
X-12047083Y3548274D01*
X-12008988Y3548274D01*
X-11989940Y3557798D01*
X-11980417Y3567321D01*
X-11970893Y3586369D01*
X-11970893Y3633988D01*
X-11980417Y3653036D01*
X-11989940Y3662559D01*
X-12008988Y3672083D01*
X-12047083Y3672083D01*
X-12066131Y3662559D01*
X-12075655Y3653036D01*
X-12085178Y3633988D01*
X-11904226Y3748274D02*
X-11780417Y3748274D01*
X-11847083Y3672083D01*
X-11818512Y3672083D01*
X-11799464Y3662559D01*
X-11789940Y3653036D01*
X-11780417Y3633988D01*
X-11780417Y3586369D01*
X-11789940Y3567321D01*
X-11799464Y3557798D01*
X-11818512Y3548274D01*
X-11875655Y3548274D01*
X-11894702Y3557798D01*
X-11904226Y3567321D01*
X-11713750Y3748274D02*
X-11580417Y3748274D01*
X-11666131Y3548274D01*
X-11351845Y3548274D02*
X-11351845Y3748274D01*
X-11266131Y3548274D02*
X-11266131Y3653036D01*
X-11275655Y3672083D01*
X-11294702Y3681607D01*
X-11323274Y3681607D01*
X-11342321Y3672083D01*
X-11351845Y3662559D01*
X-11142321Y3548274D02*
X-11161369Y3557798D01*
X-11170893Y3567321D01*
X-11180417Y3586369D01*
X-11180417Y3643512D01*
X-11170893Y3662559D01*
X-11161369Y3672083D01*
X-11142321Y3681607D01*
X-11113750Y3681607D01*
X-11094702Y3672083D01*
X-11085179Y3662559D01*
X-11075655Y3643512D01*
X-11075655Y3586369D01*
X-11085179Y3567321D01*
X-11094702Y3557798D01*
X-11113750Y3548274D01*
X-11142321Y3548274D01*
X-10961369Y3548274D02*
X-10980417Y3557798D01*
X-10989940Y3576845D01*
X-10989940Y3748274D01*
X-10808988Y3557798D02*
X-10828036Y3548274D01*
X-10866131Y3548274D01*
X-10885179Y3557798D01*
X-10894702Y3576845D01*
X-10894702Y3653036D01*
X-10885179Y3672083D01*
X-10866131Y3681607D01*
X-10828036Y3681607D01*
X-10808988Y3672083D01*
X-10799464Y3653036D01*
X-10799464Y3633988D01*
X-10894702Y3614940D01*
X-10723274Y3557798D02*
X-10704226Y3548274D01*
X-10666131Y3548274D01*
X-10647083Y3557798D01*
X-10637560Y3576845D01*
X-10637560Y3586369D01*
X-10647083Y3605417D01*
X-10666131Y3614940D01*
X-10694702Y3614940D01*
X-10713750Y3624464D01*
X-10723274Y3643512D01*
X-10723274Y3653036D01*
X-10713750Y3672083D01*
X-10694702Y3681607D01*
X-10666131Y3681607D01*
X-10647083Y3672083D01*
X-10570893Y3472083D02*
X-10561369Y3481607D01*
X-10542321Y3510178D01*
X-10532798Y3529226D01*
X-10523274Y3557798D01*
X-10513750Y3605417D01*
X-10513750Y3643512D01*
X-10523274Y3691131D01*
X-10532798Y3719702D01*
X-10542321Y3738750D01*
X-10561369Y3767321D01*
X-10570893Y3776845D01*
D14*
X-15723750Y3374750D02*
G75*
G03*
X-15723750Y3374750I-45000J0D01*
G01*
D12*
X-15428036Y3484274D02*
X-15408988Y3484274D01*
X-15389940Y3474750D01*
X-15380417Y3465226D01*
X-15370893Y3446178D01*
X-15361369Y3408083D01*
X-15361369Y3360464D01*
X-15370893Y3322369D01*
X-15380417Y3303321D01*
X-15389940Y3293798D01*
X-15408988Y3284274D01*
X-15428036Y3284274D01*
X-15447083Y3293798D01*
X-15456607Y3303321D01*
X-15466131Y3322369D01*
X-15475655Y3360464D01*
X-15475655Y3408083D01*
X-15466131Y3446178D01*
X-15456607Y3465226D01*
X-15447083Y3474750D01*
X-15428036Y3484274D01*
X-15275655Y3303321D02*
X-15266131Y3293798D01*
X-15275655Y3284274D01*
X-15285178Y3293798D01*
X-15275655Y3303321D01*
X-15275655Y3284274D01*
X-15170893Y3284274D02*
X-15132798Y3284274D01*
X-15113750Y3293798D01*
X-15104226Y3303321D01*
X-15085178Y3331893D01*
X-15075655Y3369988D01*
X-15075655Y3446178D01*
X-15085178Y3465226D01*
X-15094702Y3474750D01*
X-15113750Y3484274D01*
X-15151845Y3484274D01*
X-15170893Y3474750D01*
X-15180417Y3465226D01*
X-15189940Y3446178D01*
X-15189940Y3398559D01*
X-15180417Y3379512D01*
X-15170893Y3369988D01*
X-15151845Y3360464D01*
X-15113750Y3360464D01*
X-15094702Y3369988D01*
X-15085178Y3379512D01*
X-15075655Y3398559D01*
X-14951845Y3484274D02*
X-14932798Y3484274D01*
X-14913750Y3474750D01*
X-14904226Y3465226D01*
X-14894702Y3446178D01*
X-14885178Y3408083D01*
X-14885178Y3360464D01*
X-14894702Y3322369D01*
X-14904226Y3303321D01*
X-14913750Y3293798D01*
X-14932798Y3284274D01*
X-14951845Y3284274D01*
X-14970893Y3293798D01*
X-14980417Y3303321D01*
X-14989940Y3322369D01*
X-14999464Y3360464D01*
X-14999464Y3408083D01*
X-14989940Y3446178D01*
X-14980417Y3465226D01*
X-14970893Y3474750D01*
X-14951845Y3484274D01*
X-14761369Y3484274D02*
X-14742321Y3484274D01*
X-14723274Y3474750D01*
X-14713750Y3465226D01*
X-14704226Y3446178D01*
X-14694702Y3408083D01*
X-14694702Y3360464D01*
X-14704226Y3322369D01*
X-14713750Y3303321D01*
X-14723274Y3293798D01*
X-14742321Y3284274D01*
X-14761369Y3284274D01*
X-14780417Y3293798D01*
X-14789940Y3303321D01*
X-14799464Y3322369D01*
X-14808988Y3360464D01*
X-14808988Y3408083D01*
X-14799464Y3446178D01*
X-14789940Y3465226D01*
X-14780417Y3474750D01*
X-14761369Y3484274D01*
X-14608988Y3284274D02*
X-14608988Y3417607D01*
X-14608988Y3398559D02*
X-14599464Y3408083D01*
X-14580417Y3417607D01*
X-14551845Y3417607D01*
X-14532798Y3408083D01*
X-14523274Y3389036D01*
X-14523274Y3284274D01*
X-14523274Y3389036D02*
X-14513750Y3408083D01*
X-14494702Y3417607D01*
X-14466131Y3417607D01*
X-14447083Y3408083D01*
X-14437559Y3389036D01*
X-14437559Y3284274D01*
X-14342321Y3284274D02*
X-14342321Y3417607D01*
X-14342321Y3398559D02*
X-14332798Y3408083D01*
X-14313750Y3417607D01*
X-14285178Y3417607D01*
X-14266131Y3408083D01*
X-14256607Y3389036D01*
X-14256607Y3284274D01*
X-14256607Y3389036D02*
X-14247083Y3408083D01*
X-14228036Y3417607D01*
X-14199464Y3417607D01*
X-14180417Y3408083D01*
X-14170893Y3389036D01*
X-14170893Y3284274D01*
X-13780417Y3493798D02*
X-13951845Y3236655D01*
X-13523274Y3484274D02*
X-13504226Y3484274D01*
X-13485178Y3474750D01*
X-13475655Y3465226D01*
X-13466131Y3446178D01*
X-13456607Y3408083D01*
X-13456607Y3360464D01*
X-13466131Y3322369D01*
X-13475655Y3303321D01*
X-13485178Y3293798D01*
X-13504226Y3284274D01*
X-13523274Y3284274D01*
X-13542321Y3293798D01*
X-13551845Y3303321D01*
X-13561369Y3322369D01*
X-13570893Y3360464D01*
X-13570893Y3408083D01*
X-13561369Y3446178D01*
X-13551845Y3465226D01*
X-13542321Y3474750D01*
X-13523274Y3484274D01*
X-13370893Y3303321D02*
X-13361369Y3293798D01*
X-13370893Y3284274D01*
X-13380417Y3293798D01*
X-13370893Y3303321D01*
X-13370893Y3284274D01*
X-13237559Y3484274D02*
X-13218512Y3484274D01*
X-13199464Y3474750D01*
X-13189940Y3465226D01*
X-13180417Y3446178D01*
X-13170893Y3408083D01*
X-13170893Y3360464D01*
X-13180417Y3322369D01*
X-13189940Y3303321D01*
X-13199464Y3293798D01*
X-13218512Y3284274D01*
X-13237559Y3284274D01*
X-13256607Y3293798D01*
X-13266131Y3303321D01*
X-13275655Y3322369D01*
X-13285178Y3360464D01*
X-13285178Y3408083D01*
X-13275655Y3446178D01*
X-13266131Y3465226D01*
X-13256607Y3474750D01*
X-13237559Y3484274D01*
X-13104226Y3484274D02*
X-12980417Y3484274D01*
X-13047083Y3408083D01*
X-13018512Y3408083D01*
X-12999464Y3398559D01*
X-12989940Y3389036D01*
X-12980417Y3369988D01*
X-12980417Y3322369D01*
X-12989940Y3303321D01*
X-12999464Y3293798D01*
X-13018512Y3284274D01*
X-13075655Y3284274D01*
X-13094702Y3293798D01*
X-13104226Y3303321D01*
X-12799464Y3484274D02*
X-12894702Y3484274D01*
X-12904226Y3389036D01*
X-12894702Y3398559D01*
X-12875655Y3408083D01*
X-12828036Y3408083D01*
X-12808988Y3398559D01*
X-12799464Y3389036D01*
X-12789940Y3369988D01*
X-12789940Y3322369D01*
X-12799464Y3303321D01*
X-12808988Y3293798D01*
X-12828036Y3284274D01*
X-12875655Y3284274D01*
X-12894702Y3293798D01*
X-12904226Y3303321D01*
X-12618512Y3417607D02*
X-12618512Y3284274D01*
X-12666131Y3493798D02*
X-12713750Y3350940D01*
X-12589940Y3350940D01*
X-12523274Y3484274D02*
X-12523274Y3446178D01*
X-12447083Y3484274D02*
X-12447083Y3446178D01*
X-12151845Y3208083D02*
X-12161369Y3217607D01*
X-12180417Y3246178D01*
X-12189940Y3265226D01*
X-12199464Y3293798D01*
X-12208988Y3341417D01*
X-12208988Y3379512D01*
X-12199464Y3427131D01*
X-12189940Y3455702D01*
X-12180417Y3474750D01*
X-12161369Y3503321D01*
X-12151845Y3512845D01*
X-11989940Y3417607D02*
X-11989940Y3284274D01*
X-12037559Y3493798D02*
X-12085178Y3350940D01*
X-11961369Y3350940D01*
X-11732798Y3284274D02*
X-11732798Y3484274D01*
X-11647083Y3284274D02*
X-11647083Y3389036D01*
X-11656607Y3408083D01*
X-11675655Y3417607D01*
X-11704226Y3417607D01*
X-11723274Y3408083D01*
X-11732798Y3398559D01*
X-11523274Y3284274D02*
X-11542321Y3293798D01*
X-11551845Y3303321D01*
X-11561369Y3322369D01*
X-11561369Y3379512D01*
X-11551845Y3398559D01*
X-11542321Y3408083D01*
X-11523274Y3417607D01*
X-11494702Y3417607D01*
X-11475655Y3408083D01*
X-11466131Y3398559D01*
X-11456607Y3379512D01*
X-11456607Y3322369D01*
X-11466131Y3303321D01*
X-11475655Y3293798D01*
X-11494702Y3284274D01*
X-11523274Y3284274D01*
X-11342321Y3284274D02*
X-11361369Y3293798D01*
X-11370893Y3312845D01*
X-11370893Y3484274D01*
X-11189940Y3293798D02*
X-11208988Y3284274D01*
X-11247083Y3284274D01*
X-11266131Y3293798D01*
X-11275655Y3312845D01*
X-11275655Y3389036D01*
X-11266131Y3408083D01*
X-11247083Y3417607D01*
X-11208988Y3417607D01*
X-11189940Y3408083D01*
X-11180417Y3389036D01*
X-11180417Y3369988D01*
X-11275655Y3350940D01*
X-11104226Y3293798D02*
X-11085179Y3284274D01*
X-11047083Y3284274D01*
X-11028036Y3293798D01*
X-11018512Y3312845D01*
X-11018512Y3322369D01*
X-11028036Y3341417D01*
X-11047083Y3350940D01*
X-11075655Y3350940D01*
X-11094702Y3360464D01*
X-11104226Y3379512D01*
X-11104226Y3389036D01*
X-11094702Y3408083D01*
X-11075655Y3417607D01*
X-11047083Y3417607D01*
X-11028036Y3408083D01*
X-10951845Y3208083D02*
X-10942321Y3217607D01*
X-10923274Y3246178D01*
X-10913750Y3265226D01*
X-10904226Y3293798D01*
X-10894702Y3341417D01*
X-10894702Y3379512D01*
X-10904226Y3427131D01*
X-10913750Y3455702D01*
X-10923274Y3474750D01*
X-10942321Y3503321D01*
X-10951845Y3512845D01*
D11*
X-15773750Y3160750D02*
X-15773750Y3060750D01*
X-15823750Y3110750D02*
X-15723750Y3110750D01*
D12*
X-15361369Y3020274D02*
X-15475655Y3020274D01*
X-15418512Y3020274D02*
X-15418512Y3220274D01*
X-15437559Y3191702D01*
X-15456607Y3172655D01*
X-15475655Y3163131D01*
X-15275655Y3039321D02*
X-15266131Y3029798D01*
X-15275655Y3020274D01*
X-15285178Y3029798D01*
X-15275655Y3039321D01*
X-15275655Y3020274D01*
X-15142321Y3220274D02*
X-15123274Y3220274D01*
X-15104226Y3210750D01*
X-15094702Y3201226D01*
X-15085178Y3182178D01*
X-15075655Y3144083D01*
X-15075655Y3096464D01*
X-15085178Y3058369D01*
X-15094702Y3039321D01*
X-15104226Y3029798D01*
X-15123274Y3020274D01*
X-15142321Y3020274D01*
X-15161369Y3029798D01*
X-15170893Y3039321D01*
X-15180417Y3058369D01*
X-15189940Y3096464D01*
X-15189940Y3144083D01*
X-15180417Y3182178D01*
X-15170893Y3201226D01*
X-15161369Y3210750D01*
X-15142321Y3220274D01*
X-14951845Y3220274D02*
X-14932798Y3220274D01*
X-14913750Y3210750D01*
X-14904226Y3201226D01*
X-14894702Y3182178D01*
X-14885178Y3144083D01*
X-14885178Y3096464D01*
X-14894702Y3058369D01*
X-14904226Y3039321D01*
X-14913750Y3029798D01*
X-14932798Y3020274D01*
X-14951845Y3020274D01*
X-14970893Y3029798D01*
X-14980417Y3039321D01*
X-14989940Y3058369D01*
X-14999464Y3096464D01*
X-14999464Y3144083D01*
X-14989940Y3182178D01*
X-14980417Y3201226D01*
X-14970893Y3210750D01*
X-14951845Y3220274D01*
X-14761369Y3220274D02*
X-14742321Y3220274D01*
X-14723274Y3210750D01*
X-14713750Y3201226D01*
X-14704226Y3182178D01*
X-14694702Y3144083D01*
X-14694702Y3096464D01*
X-14704226Y3058369D01*
X-14713750Y3039321D01*
X-14723274Y3029798D01*
X-14742321Y3020274D01*
X-14761369Y3020274D01*
X-14780417Y3029798D01*
X-14789940Y3039321D01*
X-14799464Y3058369D01*
X-14808988Y3096464D01*
X-14808988Y3144083D01*
X-14799464Y3182178D01*
X-14789940Y3201226D01*
X-14780417Y3210750D01*
X-14761369Y3220274D01*
X-14608988Y3020274D02*
X-14608988Y3153607D01*
X-14608988Y3134559D02*
X-14599464Y3144083D01*
X-14580417Y3153607D01*
X-14551845Y3153607D01*
X-14532798Y3144083D01*
X-14523274Y3125036D01*
X-14523274Y3020274D01*
X-14523274Y3125036D02*
X-14513750Y3144083D01*
X-14494702Y3153607D01*
X-14466131Y3153607D01*
X-14447083Y3144083D01*
X-14437559Y3125036D01*
X-14437559Y3020274D01*
X-14342321Y3020274D02*
X-14342321Y3153607D01*
X-14342321Y3134559D02*
X-14332798Y3144083D01*
X-14313750Y3153607D01*
X-14285178Y3153607D01*
X-14266131Y3144083D01*
X-14256607Y3125036D01*
X-14256607Y3020274D01*
X-14256607Y3125036D02*
X-14247083Y3144083D01*
X-14228036Y3153607D01*
X-14199464Y3153607D01*
X-14180417Y3144083D01*
X-14170893Y3125036D01*
X-14170893Y3020274D01*
X-13780417Y3229798D02*
X-13951845Y2972655D01*
X-13523274Y3220274D02*
X-13504226Y3220274D01*
X-13485178Y3210750D01*
X-13475655Y3201226D01*
X-13466131Y3182178D01*
X-13456607Y3144083D01*
X-13456607Y3096464D01*
X-13466131Y3058369D01*
X-13475655Y3039321D01*
X-13485178Y3029798D01*
X-13504226Y3020274D01*
X-13523274Y3020274D01*
X-13542321Y3029798D01*
X-13551845Y3039321D01*
X-13561369Y3058369D01*
X-13570893Y3096464D01*
X-13570893Y3144083D01*
X-13561369Y3182178D01*
X-13551845Y3201226D01*
X-13542321Y3210750D01*
X-13523274Y3220274D01*
X-13370893Y3039321D02*
X-13361369Y3029798D01*
X-13370893Y3020274D01*
X-13380417Y3029798D01*
X-13370893Y3039321D01*
X-13370893Y3020274D01*
X-13237559Y3220274D02*
X-13218512Y3220274D01*
X-13199464Y3210750D01*
X-13189940Y3201226D01*
X-13180417Y3182178D01*
X-13170893Y3144083D01*
X-13170893Y3096464D01*
X-13180417Y3058369D01*
X-13189940Y3039321D01*
X-13199464Y3029798D01*
X-13218512Y3020274D01*
X-13237559Y3020274D01*
X-13256607Y3029798D01*
X-13266131Y3039321D01*
X-13275655Y3058369D01*
X-13285178Y3096464D01*
X-13285178Y3144083D01*
X-13275655Y3182178D01*
X-13266131Y3201226D01*
X-13256607Y3210750D01*
X-13237559Y3220274D01*
X-13104226Y3220274D02*
X-12980417Y3220274D01*
X-13047083Y3144083D01*
X-13018512Y3144083D01*
X-12999464Y3134559D01*
X-12989940Y3125036D01*
X-12980417Y3105988D01*
X-12980417Y3058369D01*
X-12989940Y3039321D01*
X-12999464Y3029798D01*
X-13018512Y3020274D01*
X-13075655Y3020274D01*
X-13094702Y3029798D01*
X-13104226Y3039321D01*
X-12885178Y3020274D02*
X-12847083Y3020274D01*
X-12828036Y3029798D01*
X-12818512Y3039321D01*
X-12799464Y3067893D01*
X-12789940Y3105988D01*
X-12789940Y3182178D01*
X-12799464Y3201226D01*
X-12808988Y3210750D01*
X-12828036Y3220274D01*
X-12866131Y3220274D01*
X-12885178Y3210750D01*
X-12894702Y3201226D01*
X-12904226Y3182178D01*
X-12904226Y3134559D01*
X-12894702Y3115512D01*
X-12885178Y3105988D01*
X-12866131Y3096464D01*
X-12828036Y3096464D01*
X-12808988Y3105988D01*
X-12799464Y3115512D01*
X-12789940Y3134559D01*
X-12618512Y3153607D02*
X-12618512Y3020274D01*
X-12666131Y3229798D02*
X-12713750Y3086940D01*
X-12589940Y3086940D01*
X-12523274Y3220274D02*
X-12523274Y3182178D01*
X-12447083Y3220274D02*
X-12447083Y3182178D01*
X-12151845Y2944083D02*
X-12161369Y2953607D01*
X-12180417Y2982178D01*
X-12189940Y3001226D01*
X-12199464Y3029798D01*
X-12208988Y3077417D01*
X-12208988Y3115512D01*
X-12199464Y3163131D01*
X-12189940Y3191702D01*
X-12180417Y3210750D01*
X-12161369Y3239321D01*
X-12151845Y3248845D01*
X-11989940Y3220274D02*
X-12028036Y3220274D01*
X-12047083Y3210750D01*
X-12056607Y3201226D01*
X-12075655Y3172655D01*
X-12085178Y3134559D01*
X-12085178Y3058369D01*
X-12075655Y3039321D01*
X-12066131Y3029798D01*
X-12047083Y3020274D01*
X-12008988Y3020274D01*
X-11989940Y3029798D01*
X-11980417Y3039321D01*
X-11970893Y3058369D01*
X-11970893Y3105988D01*
X-11980417Y3125036D01*
X-11989940Y3134559D01*
X-12008988Y3144083D01*
X-12047083Y3144083D01*
X-12066131Y3134559D01*
X-12075655Y3125036D01*
X-12085178Y3105988D01*
X-11847083Y3220274D02*
X-11828036Y3220274D01*
X-11808988Y3210750D01*
X-11799464Y3201226D01*
X-11789940Y3182178D01*
X-11780417Y3144083D01*
X-11780417Y3096464D01*
X-11789940Y3058369D01*
X-11799464Y3039321D01*
X-11808988Y3029798D01*
X-11828036Y3020274D01*
X-11847083Y3020274D01*
X-11866131Y3029798D01*
X-11875655Y3039321D01*
X-11885178Y3058369D01*
X-11894702Y3096464D01*
X-11894702Y3144083D01*
X-11885178Y3182178D01*
X-11875655Y3201226D01*
X-11866131Y3210750D01*
X-11847083Y3220274D01*
X-11542321Y3020274D02*
X-11542321Y3220274D01*
X-11456607Y3020274D02*
X-11456607Y3125036D01*
X-11466131Y3144083D01*
X-11485178Y3153607D01*
X-11513750Y3153607D01*
X-11532798Y3144083D01*
X-11542321Y3134559D01*
X-11332798Y3020274D02*
X-11351845Y3029798D01*
X-11361369Y3039321D01*
X-11370893Y3058369D01*
X-11370893Y3115512D01*
X-11361369Y3134559D01*
X-11351845Y3144083D01*
X-11332798Y3153607D01*
X-11304226Y3153607D01*
X-11285178Y3144083D01*
X-11275655Y3134559D01*
X-11266131Y3115512D01*
X-11266131Y3058369D01*
X-11275655Y3039321D01*
X-11285178Y3029798D01*
X-11304226Y3020274D01*
X-11332798Y3020274D01*
X-11151845Y3020274D02*
X-11170893Y3029798D01*
X-11180417Y3048845D01*
X-11180417Y3220274D01*
X-10999464Y3029798D02*
X-11018512Y3020274D01*
X-11056607Y3020274D01*
X-11075655Y3029798D01*
X-11085179Y3048845D01*
X-11085179Y3125036D01*
X-11075655Y3144083D01*
X-11056607Y3153607D01*
X-11018512Y3153607D01*
X-10999464Y3144083D01*
X-10989940Y3125036D01*
X-10989940Y3105988D01*
X-11085179Y3086940D01*
X-10913750Y3029798D02*
X-10894702Y3020274D01*
X-10856607Y3020274D01*
X-10837560Y3029798D01*
X-10828036Y3048845D01*
X-10828036Y3058369D01*
X-10837560Y3077417D01*
X-10856607Y3086940D01*
X-10885179Y3086940D01*
X-10904226Y3096464D01*
X-10913750Y3115512D01*
X-10913750Y3125036D01*
X-10904226Y3144083D01*
X-10885179Y3153607D01*
X-10856607Y3153607D01*
X-10837560Y3144083D01*
X-10761369Y2944083D02*
X-10751845Y2953607D01*
X-10732798Y2982178D01*
X-10723274Y3001226D01*
X-10713750Y3029798D01*
X-10704226Y3077417D01*
X-10704226Y3115512D01*
X-10713750Y3163131D01*
X-10723274Y3191702D01*
X-10732798Y3210750D01*
X-10751845Y3239321D01*
X-10761369Y3248845D01*
D15*
X-15745277Y2794777D02*
X-15745277Y2898723D01*
X-15849223Y2898723D01*
X-15849223Y2794777D01*
X-15745277Y2794777D01*
D12*
X-15361369Y2756274D02*
X-15475655Y2756274D01*
X-15418512Y2756274D02*
X-15418512Y2956274D01*
X-15437559Y2927702D01*
X-15456607Y2908655D01*
X-15475655Y2899131D01*
X-15275655Y2775321D02*
X-15266131Y2765798D01*
X-15275655Y2756274D01*
X-15285178Y2765798D01*
X-15275655Y2775321D01*
X-15275655Y2756274D01*
X-15094702Y2889607D02*
X-15094702Y2756274D01*
X-15142321Y2965798D02*
X-15189940Y2822940D01*
X-15066131Y2822940D01*
X-15008988Y2956274D02*
X-14875655Y2956274D01*
X-14961369Y2756274D01*
X-14761369Y2956274D02*
X-14742321Y2956274D01*
X-14723274Y2946750D01*
X-14713750Y2937226D01*
X-14704226Y2918178D01*
X-14694702Y2880083D01*
X-14694702Y2832464D01*
X-14704226Y2794369D01*
X-14713750Y2775321D01*
X-14723274Y2765798D01*
X-14742321Y2756274D01*
X-14761369Y2756274D01*
X-14780417Y2765798D01*
X-14789940Y2775321D01*
X-14799464Y2794369D01*
X-14808988Y2832464D01*
X-14808988Y2880083D01*
X-14799464Y2918178D01*
X-14789940Y2937226D01*
X-14780417Y2946750D01*
X-14761369Y2956274D01*
X-14608988Y2756274D02*
X-14608988Y2889607D01*
X-14608988Y2870559D02*
X-14599464Y2880083D01*
X-14580417Y2889607D01*
X-14551845Y2889607D01*
X-14532798Y2880083D01*
X-14523274Y2861036D01*
X-14523274Y2756274D01*
X-14523274Y2861036D02*
X-14513750Y2880083D01*
X-14494702Y2889607D01*
X-14466131Y2889607D01*
X-14447083Y2880083D01*
X-14437559Y2861036D01*
X-14437559Y2756274D01*
X-14342321Y2756274D02*
X-14342321Y2889607D01*
X-14342321Y2870559D02*
X-14332798Y2880083D01*
X-14313750Y2889607D01*
X-14285178Y2889607D01*
X-14266131Y2880083D01*
X-14256607Y2861036D01*
X-14256607Y2756274D01*
X-14256607Y2861036D02*
X-14247083Y2880083D01*
X-14228036Y2889607D01*
X-14199464Y2889607D01*
X-14180417Y2880083D01*
X-14170893Y2861036D01*
X-14170893Y2756274D01*
X-13780417Y2965798D02*
X-13951845Y2708655D01*
X-13523274Y2956274D02*
X-13504226Y2956274D01*
X-13485178Y2946750D01*
X-13475655Y2937226D01*
X-13466131Y2918178D01*
X-13456607Y2880083D01*
X-13456607Y2832464D01*
X-13466131Y2794369D01*
X-13475655Y2775321D01*
X-13485178Y2765798D01*
X-13504226Y2756274D01*
X-13523274Y2756274D01*
X-13542321Y2765798D01*
X-13551845Y2775321D01*
X-13561369Y2794369D01*
X-13570893Y2832464D01*
X-13570893Y2880083D01*
X-13561369Y2918178D01*
X-13551845Y2937226D01*
X-13542321Y2946750D01*
X-13523274Y2956274D01*
X-13370893Y2775321D02*
X-13361369Y2765798D01*
X-13370893Y2756274D01*
X-13380417Y2765798D01*
X-13370893Y2775321D01*
X-13370893Y2756274D01*
X-13237559Y2956274D02*
X-13218512Y2956274D01*
X-13199464Y2946750D01*
X-13189940Y2937226D01*
X-13180417Y2918178D01*
X-13170893Y2880083D01*
X-13170893Y2832464D01*
X-13180417Y2794369D01*
X-13189940Y2775321D01*
X-13199464Y2765798D01*
X-13218512Y2756274D01*
X-13237559Y2756274D01*
X-13256607Y2765798D01*
X-13266131Y2775321D01*
X-13275655Y2794369D01*
X-13285178Y2832464D01*
X-13285178Y2880083D01*
X-13275655Y2918178D01*
X-13266131Y2937226D01*
X-13256607Y2946750D01*
X-13237559Y2956274D01*
X-12989940Y2956274D02*
X-13085178Y2956274D01*
X-13094702Y2861036D01*
X-13085178Y2870559D01*
X-13066131Y2880083D01*
X-13018512Y2880083D01*
X-12999464Y2870559D01*
X-12989940Y2861036D01*
X-12980417Y2841988D01*
X-12980417Y2794369D01*
X-12989940Y2775321D01*
X-12999464Y2765798D01*
X-13018512Y2756274D01*
X-13066131Y2756274D01*
X-13085178Y2765798D01*
X-13094702Y2775321D01*
X-12913750Y2956274D02*
X-12780417Y2956274D01*
X-12866131Y2756274D01*
X-12694702Y2756274D02*
X-12656607Y2756274D01*
X-12637559Y2765798D01*
X-12628036Y2775321D01*
X-12608988Y2803893D01*
X-12599464Y2841988D01*
X-12599464Y2918178D01*
X-12608988Y2937226D01*
X-12618512Y2946750D01*
X-12637559Y2956274D01*
X-12675655Y2956274D01*
X-12694702Y2946750D01*
X-12704226Y2937226D01*
X-12713750Y2918178D01*
X-12713750Y2870559D01*
X-12704226Y2851512D01*
X-12694702Y2841988D01*
X-12675655Y2832464D01*
X-12637559Y2832464D01*
X-12618512Y2841988D01*
X-12608988Y2851512D01*
X-12599464Y2870559D01*
X-12523274Y2956274D02*
X-12523274Y2918178D01*
X-12447083Y2956274D02*
X-12447083Y2918178D01*
X-12151845Y2680083D02*
X-12161369Y2689607D01*
X-12180417Y2718179D01*
X-12189940Y2737226D01*
X-12199464Y2765798D01*
X-12208988Y2813417D01*
X-12208988Y2851512D01*
X-12199464Y2899131D01*
X-12189940Y2927702D01*
X-12180417Y2946750D01*
X-12161369Y2975321D01*
X-12151845Y2984845D01*
X-12085178Y2937226D02*
X-12075655Y2946750D01*
X-12056607Y2956274D01*
X-12008988Y2956274D01*
X-11989940Y2946750D01*
X-11980417Y2937226D01*
X-11970893Y2918178D01*
X-11970893Y2899131D01*
X-11980417Y2870559D01*
X-12094702Y2756274D01*
X-11970893Y2756274D01*
X-11799464Y2889607D02*
X-11799464Y2756274D01*
X-11847083Y2965798D02*
X-11894702Y2822940D01*
X-11770893Y2822940D01*
X-11608988Y2889607D02*
X-11608988Y2756274D01*
X-11656607Y2965798D02*
X-11704226Y2822940D01*
X-11580417Y2822940D01*
X-11351845Y2756274D02*
X-11351845Y2956274D01*
X-11266131Y2756274D02*
X-11266131Y2861036D01*
X-11275655Y2880083D01*
X-11294702Y2889607D01*
X-11323274Y2889607D01*
X-11342321Y2880083D01*
X-11351845Y2870559D01*
X-11142321Y2756274D02*
X-11161369Y2765798D01*
X-11170893Y2775321D01*
X-11180417Y2794369D01*
X-11180417Y2851512D01*
X-11170893Y2870559D01*
X-11161369Y2880083D01*
X-11142321Y2889607D01*
X-11113750Y2889607D01*
X-11094702Y2880083D01*
X-11085179Y2870559D01*
X-11075655Y2851512D01*
X-11075655Y2794369D01*
X-11085179Y2775321D01*
X-11094702Y2765798D01*
X-11113750Y2756274D01*
X-11142321Y2756274D01*
X-10961369Y2756274D02*
X-10980417Y2765798D01*
X-10989940Y2784845D01*
X-10989940Y2956274D01*
X-10808988Y2765798D02*
X-10828036Y2756274D01*
X-10866131Y2756274D01*
X-10885179Y2765798D01*
X-10894702Y2784845D01*
X-10894702Y2861036D01*
X-10885179Y2880083D01*
X-10866131Y2889607D01*
X-10828036Y2889607D01*
X-10808988Y2880083D01*
X-10799464Y2861036D01*
X-10799464Y2841988D01*
X-10894702Y2822940D01*
X-10723274Y2765798D02*
X-10704226Y2756274D01*
X-10666131Y2756274D01*
X-10647083Y2765798D01*
X-10637560Y2784845D01*
X-10637560Y2794369D01*
X-10647083Y2813417D01*
X-10666131Y2822940D01*
X-10694702Y2822940D01*
X-10713750Y2832464D01*
X-10723274Y2851512D01*
X-10723274Y2861036D01*
X-10713750Y2880083D01*
X-10694702Y2889607D01*
X-10666131Y2889607D01*
X-10647083Y2880083D01*
X-10570893Y2680083D02*
X-10561369Y2689607D01*
X-10542321Y2718179D01*
X-10532798Y2737226D01*
X-10523274Y2765798D01*
X-10513750Y2813417D01*
X-10513750Y2851512D01*
X-10523274Y2899131D01*
X-10532798Y2927702D01*
X-10542321Y2946750D01*
X-10561369Y2975321D01*
X-10570893Y2984845D01*
X-15823750Y2479750D02*
X-15723750Y2579750D01*
X-15823750Y2679750D01*
X-15923750Y2579750D01*
X-15823750Y2479750D01*
X-15475655Y2670226D02*
X-15466131Y2679750D01*
X-15447083Y2689274D01*
X-15399464Y2689274D01*
X-15380417Y2679750D01*
X-15370893Y2670226D01*
X-15361369Y2651179D01*
X-15361369Y2632131D01*
X-15370893Y2603560D01*
X-15485178Y2489274D01*
X-15361369Y2489274D01*
X-15275655Y2508321D02*
X-15266131Y2498798D01*
X-15275655Y2489274D01*
X-15285178Y2498798D01*
X-15275655Y2508321D01*
X-15275655Y2489274D01*
X-15075655Y2489274D02*
X-15189940Y2489274D01*
X-15132798Y2489274D02*
X-15132798Y2689274D01*
X-15151845Y2660702D01*
X-15170893Y2641655D01*
X-15189940Y2632131D01*
X-14951845Y2689274D02*
X-14932798Y2689274D01*
X-14913750Y2679750D01*
X-14904226Y2670226D01*
X-14894702Y2651179D01*
X-14885178Y2613083D01*
X-14885178Y2565464D01*
X-14894702Y2527369D01*
X-14904226Y2508321D01*
X-14913750Y2498798D01*
X-14932798Y2489274D01*
X-14951845Y2489274D01*
X-14970893Y2498798D01*
X-14980417Y2508321D01*
X-14989940Y2527369D01*
X-14999464Y2565464D01*
X-14999464Y2613083D01*
X-14989940Y2651179D01*
X-14980417Y2670226D01*
X-14970893Y2679750D01*
X-14951845Y2689274D01*
X-14761369Y2689274D02*
X-14742321Y2689274D01*
X-14723274Y2679750D01*
X-14713750Y2670226D01*
X-14704226Y2651179D01*
X-14694702Y2613083D01*
X-14694702Y2565464D01*
X-14704226Y2527369D01*
X-14713750Y2508321D01*
X-14723274Y2498798D01*
X-14742321Y2489274D01*
X-14761369Y2489274D01*
X-14780417Y2498798D01*
X-14789940Y2508321D01*
X-14799464Y2527369D01*
X-14808988Y2565464D01*
X-14808988Y2613083D01*
X-14799464Y2651179D01*
X-14789940Y2670226D01*
X-14780417Y2679750D01*
X-14761369Y2689274D01*
X-14608988Y2489274D02*
X-14608988Y2622607D01*
X-14608988Y2603560D02*
X-14599464Y2613083D01*
X-14580417Y2622607D01*
X-14551845Y2622607D01*
X-14532798Y2613083D01*
X-14523274Y2594036D01*
X-14523274Y2489274D01*
X-14523274Y2594036D02*
X-14513750Y2613083D01*
X-14494702Y2622607D01*
X-14466131Y2622607D01*
X-14447083Y2613083D01*
X-14437559Y2594036D01*
X-14437559Y2489274D01*
X-14342321Y2489274D02*
X-14342321Y2622607D01*
X-14342321Y2603560D02*
X-14332798Y2613083D01*
X-14313750Y2622607D01*
X-14285178Y2622607D01*
X-14266131Y2613083D01*
X-14256607Y2594036D01*
X-14256607Y2489274D01*
X-14256607Y2594036D02*
X-14247083Y2613083D01*
X-14228036Y2622607D01*
X-14199464Y2622607D01*
X-14180417Y2613083D01*
X-14170893Y2594036D01*
X-14170893Y2489274D01*
X-13780417Y2698798D02*
X-13951845Y2441655D01*
X-13523274Y2689274D02*
X-13504226Y2689274D01*
X-13485178Y2679750D01*
X-13475655Y2670226D01*
X-13466131Y2651179D01*
X-13456607Y2613083D01*
X-13456607Y2565464D01*
X-13466131Y2527369D01*
X-13475655Y2508321D01*
X-13485178Y2498798D01*
X-13504226Y2489274D01*
X-13523274Y2489274D01*
X-13542321Y2498798D01*
X-13551845Y2508321D01*
X-13561369Y2527369D01*
X-13570893Y2565464D01*
X-13570893Y2613083D01*
X-13561369Y2651179D01*
X-13551845Y2670226D01*
X-13542321Y2679750D01*
X-13523274Y2689274D01*
X-13370893Y2508321D02*
X-13361369Y2498798D01*
X-13370893Y2489274D01*
X-13380417Y2498798D01*
X-13370893Y2508321D01*
X-13370893Y2489274D01*
X-13237559Y2689274D02*
X-13218512Y2689274D01*
X-13199464Y2679750D01*
X-13189940Y2670226D01*
X-13180417Y2651179D01*
X-13170893Y2613083D01*
X-13170893Y2565464D01*
X-13180417Y2527369D01*
X-13189940Y2508321D01*
X-13199464Y2498798D01*
X-13218512Y2489274D01*
X-13237559Y2489274D01*
X-13256607Y2498798D01*
X-13266131Y2508321D01*
X-13275655Y2527369D01*
X-13285178Y2565464D01*
X-13285178Y2613083D01*
X-13275655Y2651179D01*
X-13266131Y2670226D01*
X-13256607Y2679750D01*
X-13237559Y2689274D01*
X-13056607Y2603560D02*
X-13075655Y2613083D01*
X-13085178Y2622607D01*
X-13094702Y2641655D01*
X-13094702Y2651179D01*
X-13085178Y2670226D01*
X-13075655Y2679750D01*
X-13056607Y2689274D01*
X-13018512Y2689274D01*
X-12999464Y2679750D01*
X-12989940Y2670226D01*
X-12980417Y2651179D01*
X-12980417Y2641655D01*
X-12989940Y2622607D01*
X-12999464Y2613083D01*
X-13018512Y2603560D01*
X-13056607Y2603560D01*
X-13075655Y2594036D01*
X-13085178Y2584512D01*
X-13094702Y2565464D01*
X-13094702Y2527369D01*
X-13085178Y2508321D01*
X-13075655Y2498798D01*
X-13056607Y2489274D01*
X-13018512Y2489274D01*
X-12999464Y2498798D01*
X-12989940Y2508321D01*
X-12980417Y2527369D01*
X-12980417Y2565464D01*
X-12989940Y2584512D01*
X-12999464Y2594036D01*
X-13018512Y2603560D01*
X-12904226Y2670226D02*
X-12894702Y2679750D01*
X-12875655Y2689274D01*
X-12828036Y2689274D01*
X-12808988Y2679750D01*
X-12799464Y2670226D01*
X-12789940Y2651179D01*
X-12789940Y2632131D01*
X-12799464Y2603560D01*
X-12913750Y2489274D01*
X-12789940Y2489274D01*
X-12723274Y2689274D02*
X-12589940Y2689274D01*
X-12675655Y2489274D01*
X-12523274Y2689274D02*
X-12523274Y2651179D01*
X-12447083Y2689274D02*
X-12447083Y2651179D01*
X-12151845Y2413083D02*
X-12161369Y2422607D01*
X-12180417Y2451179D01*
X-12189940Y2470226D01*
X-12199464Y2498798D01*
X-12208988Y2546417D01*
X-12208988Y2584512D01*
X-12199464Y2632131D01*
X-12189940Y2660702D01*
X-12180417Y2679750D01*
X-12161369Y2708321D01*
X-12151845Y2717845D01*
X-12085178Y2670226D02*
X-12075655Y2679750D01*
X-12056607Y2689274D01*
X-12008988Y2689274D01*
X-11989940Y2679750D01*
X-11980417Y2670226D01*
X-11970893Y2651179D01*
X-11970893Y2632131D01*
X-11980417Y2603560D01*
X-12094702Y2489274D01*
X-11970893Y2489274D01*
X-11732798Y2489274D02*
X-11732798Y2689274D01*
X-11647083Y2489274D02*
X-11647083Y2594036D01*
X-11656607Y2613083D01*
X-11675655Y2622607D01*
X-11704226Y2622607D01*
X-11723274Y2613083D01*
X-11732798Y2603560D01*
X-11523274Y2489274D02*
X-11542321Y2498798D01*
X-11551845Y2508321D01*
X-11561369Y2527369D01*
X-11561369Y2584512D01*
X-11551845Y2603560D01*
X-11542321Y2613083D01*
X-11523274Y2622607D01*
X-11494702Y2622607D01*
X-11475655Y2613083D01*
X-11466131Y2603560D01*
X-11456607Y2584512D01*
X-11456607Y2527369D01*
X-11466131Y2508321D01*
X-11475655Y2498798D01*
X-11494702Y2489274D01*
X-11523274Y2489274D01*
X-11342321Y2489274D02*
X-11361369Y2498798D01*
X-11370893Y2517845D01*
X-11370893Y2689274D01*
X-11189940Y2498798D02*
X-11208988Y2489274D01*
X-11247083Y2489274D01*
X-11266131Y2498798D01*
X-11275655Y2517845D01*
X-11275655Y2594036D01*
X-11266131Y2613083D01*
X-11247083Y2622607D01*
X-11208988Y2622607D01*
X-11189940Y2613083D01*
X-11180417Y2594036D01*
X-11180417Y2574988D01*
X-11275655Y2555940D01*
X-11104226Y2498798D02*
X-11085179Y2489274D01*
X-11047083Y2489274D01*
X-11028036Y2498798D01*
X-11018512Y2517845D01*
X-11018512Y2527369D01*
X-11028036Y2546417D01*
X-11047083Y2555940D01*
X-11075655Y2555940D01*
X-11094702Y2565464D01*
X-11104226Y2584512D01*
X-11104226Y2594036D01*
X-11094702Y2613083D01*
X-11075655Y2622607D01*
X-11047083Y2622607D01*
X-11028036Y2613083D01*
X-10951845Y2413083D02*
X-10942321Y2422607D01*
X-10923274Y2451179D01*
X-10913750Y2470226D01*
X-10904226Y2498798D01*
X-10894702Y2546417D01*
X-10894702Y2584512D01*
X-10904226Y2632131D01*
X-10913750Y2660702D01*
X-10923274Y2679750D01*
X-10942321Y2708321D01*
X-10951845Y2717845D01*
M02*
