M48
; DRILL file {KiCad (6.0.9)} date Thu Dec 29 20:18:13 2022
; FORMAT={-:-/ absolute / inch / decimal}
; #@! TF.CreationDate,2022-12-29T20:18:13-06:00
; #@! TF.GenerationSoftware,Kicad,Pcbnew,(6.0.9)
; #@! TF.FileFunction,Plated,1,2,PTH
FMAT,2
INCH
; #@! TA.AperFunction,Plated,PTH,ViaDrill
T1C0.0157
; #@! TA.AperFunction,Plated,PTH,ComponentDrill
T2C0.0579
%
G90
G05
T1
X6.245Y-3.1176
X6.2882Y-3.0782
X6.295Y-3.175
X6.32Y-3.0389
X6.36Y-2.9207
X6.365Y-3.4635
X6.3685Y-3.3
X6.375Y-3.4
X6.375Y-3.59
X6.38Y-3.5235
X6.395Y-3.68
X6.405Y-3.435
X6.41Y-2.84
X6.41Y-2.895
X6.41Y-3.37
X6.41Y-3.56
X6.415Y-3.495
X6.415Y-3.63
X6.4152Y-3.005
X6.4723Y-3.495
X6.4723Y-3.63
X6.475Y-3.435
X6.475Y-3.56
X6.48Y-3.37
X6.48Y-3.68
X6.485Y-2.84
X6.495Y-2.71
X6.495Y-2.77
X6.5035Y-3.4635
X6.51Y-3.5235
X6.51Y-3.59
X6.515Y-2.81
X6.515Y-3.4035
X6.53Y-2.74
X6.565Y-3.0
X6.5777Y-2.8923
X6.815Y-2.74
X6.85Y-2.7115
X6.8947Y-2.675
X6.9102Y-2.7402
X6.95Y-2.71
X6.98Y-2.675
X7.115Y-2.895
X7.12Y-3.5885
X7.125Y-3.3438
X7.125Y-3.525
X7.1298Y-3.4635
X7.13Y-3.4035
X7.1562Y-2.5938
X7.16Y-2.925
X7.16Y-3.375
X7.16Y-3.435
X7.16Y-3.63
X7.16Y-3.68
X7.165Y-2.675
X7.165Y-2.8665
X7.165Y-3.495
X7.1652Y-2.74
X7.1652Y-3.56
X7.2223Y-2.74
X7.2223Y-2.8665
X7.2223Y-3.435
X7.2223Y-3.495
X7.2223Y-3.56
X7.225Y-3.375
X7.23Y-2.925
X7.23Y-3.68
X7.235Y-2.675
X7.235Y-3.63
X7.25Y-2.5938
X7.25Y-3.3438
X7.255Y-3.4635
X7.255Y-3.525
X7.26Y-3.59
X7.265Y-2.8965
X7.265Y-3.405
X7.72Y-3.305
X7.77Y-3.275
X7.79Y-3.5885
X7.8693Y-3.2465
X7.87Y-3.4035
X7.87Y-3.525
X7.875Y-3.3438
X7.875Y-3.4635
X7.9049Y-2.6331
X7.9062Y-2.5938
X7.91Y-2.675
X7.91Y-3.375
X7.91Y-3.68
X7.915Y-3.435
X7.915Y-3.56
X7.9152Y-3.495
X7.9152Y-3.63
X7.9723Y-3.375
X7.9723Y-3.495
X7.975Y-2.63
X7.975Y-3.63
X7.98Y-2.675
X7.98Y-3.435
X7.98Y-3.68
X7.985Y-3.56
X8.0Y-2.5938
X8.0Y-3.3044
X8.0Y-3.3438
X8.0005Y-3.5962
X8.01Y-3.405
X8.015Y-3.465
X8.015Y-3.525
X8.3198Y-3.2765
X8.35Y-3.06
X8.355Y-2.965
X8.4023Y-2.8773
X8.4041Y-3.3356
X8.44Y-2.8637
X8.48Y-2.615
X8.5Y-3.205
X8.5008Y-3.1393
X8.5198Y-3.5598
X8.53Y-3.63
X8.5302Y-3.2302
X8.535Y-3.095
X8.565Y-3.2
X8.575Y-3.055
X8.575Y-3.49
X8.5952Y-3.2252
X8.61Y-3.015
X8.61Y-3.53
X8.635Y-3.1963
X8.635Y-3.68
X8.645Y-2.9818
X8.6635Y-3.28
X8.6653Y-3.3647
X8.6751Y-3.1963
X8.695Y-3.325
X8.71Y-3.2357
X8.7125Y-3.5507
X8.715Y-2.8637
X8.715Y-3.41
X8.7209Y-2.9207
X8.755Y-3.68
T2
X6.4437Y-2.3375
X6.4437Y-3.0875
X6.4437Y-3.8375
X6.4953Y-2.28
X6.4953Y-3.03
X6.4953Y-3.78
X6.6922Y-2.2603
X6.6922Y-3.0103
X6.6922Y-3.7603
X6.6937Y-2.2375
X6.6937Y-2.9875
X6.6937Y-3.7375
X7.1937Y-2.3375
X7.1937Y-3.0875
X7.1937Y-3.8375
X7.2453Y-2.28
X7.2453Y-3.03
X7.2453Y-3.78
X7.4422Y-2.2603
X7.4422Y-3.0103
X7.4422Y-3.7603
X7.4437Y-2.2375
X7.4437Y-2.9875
X7.4437Y-3.7375
X7.9437Y-2.3375
X7.9437Y-3.0875
X7.9437Y-3.8375
X7.9953Y-2.28
X7.9953Y-3.03
X7.9953Y-3.78
X8.1922Y-2.2603
X8.1922Y-3.0103
X8.1922Y-3.7603
X8.1937Y-2.2375
X8.1937Y-2.9875
X8.1937Y-3.7375
T0
M30
