M48
; DRILL file {KiCad (6.0.9)} date Thu Dec 29 20:18:13 2022
; FORMAT={-:-/ absolute / inch / decimal}
; #@! TF.CreationDate,2022-12-29T20:18:13-06:00
; #@! TF.GenerationSoftware,Kicad,Pcbnew,(6.0.9)
; #@! TF.FileFunction,NonPlated,1,2,NPTH
FMAT,2
INCH
; #@! TA.AperFunction,NonPlated,NPTH,ComponentDrill
T1C0.0689
; #@! TA.AperFunction,NonPlated,NPTH,ComponentDrill
T2C0.1570
%
G90
G05
T1
X6.3937Y-2.4375
X6.3937Y-3.1875
X6.3937Y-3.9375
X6.7938Y-2.4375
X6.7938Y-3.1875
X6.7938Y-3.9375
X7.1437Y-2.4375
X7.1437Y-3.1875
X7.1437Y-3.9375
X7.5438Y-2.4375
X7.5438Y-3.1875
X7.5438Y-3.9375
X7.8937Y-2.4375
X7.8937Y-3.1875
X7.8937Y-3.9375
X8.2937Y-2.4375
X8.2937Y-3.1875
X8.2937Y-3.9375
T2
X6.5938Y-2.4375
X6.5938Y-3.1875
X6.5938Y-3.9375
X7.3438Y-2.4375
X7.3438Y-3.1875
X7.3438Y-3.9375
X8.0938Y-2.4375
X8.0938Y-3.1875
X8.0938Y-3.9375
T0
M30
