M48
; DRILL file {KiCad (6.0.9)} date Thu Dec 29 20:26:09 2022
; FORMAT={-:-/ absolute / metric / decimal}
; #@! TF.CreationDate,2022-12-29T20:26:09-06:00
; #@! TF.GenerationSoftware,Kicad,Pcbnew,(6.0.9)
; #@! TF.FileFunction,Plated,1,2,PTH
FMAT,2
METRIC
; #@! TA.AperFunction,Plated,PTH,ViaDrill
T1C0.400
; #@! TA.AperFunction,Plated,PTH,ComponentDrill
T2C1.470
%
G90
G05
T1
X143.256Y-112.649
X143.256Y-114.808
X144.145Y-113.322
X144.145Y-116.294
X145.288Y-93.599
X145.796Y-94.742
X146.431Y-96.901
X146.681Y-92.46
X146.812Y-88.646
X147.32Y-97.994
X147.447Y-103.632
X147.637Y-74.612
X147.701Y-102.108
X148.209Y-110.871
X148.336Y-112.141
X148.336Y-114.046
X148.336Y-115.57
X148.463Y-94.361
X148.463Y-101.219
X148.59Y-102.87
X148.659Y-95.341
X148.659Y-98.679
X148.659Y-116.516
X150.108Y-116.516
X150.114Y-95.377
X150.241Y-98.679
X150.342Y-94.387
X150.368Y-102.108
X150.495Y-103.632
X150.495Y-112.141
X150.495Y-114.046
X150.622Y-100.457
X150.622Y-115.57
X150.749Y-110.744
X150.812Y-74.612
X150.881Y-99.447
X151.257Y-101.346
X151.638Y-102.87
X152.4Y-93.662
X161.798Y-111.252
X163.068Y-112.141
X165.354Y-112.903
X165.866Y-110.867
X166.624Y-94.387
X166.624Y-99.568
X166.751Y-112.141
X167.005Y-101.346
X167.456Y-116.568
X167.481Y-74.612
X167.481Y-93.662
X167.513Y-100.457
X167.513Y-114.046
X167.513Y-115.57
X167.64Y-95.377
X167.64Y-98.679
X167.709Y-81.026
X167.709Y-102.108
X169.158Y-81.026
X169.158Y-93.662
X169.158Y-102.113
X169.164Y-98.679
X169.164Y-100.457
X169.164Y-113.03
X169.291Y-95.377
X169.418Y-114.046
X169.418Y-117.475
X169.545Y-115.57
X169.799Y-99.568
X169.799Y-101.346
X169.862Y-74.612
X169.926Y-112.141
X170.053Y-94.387
X170.18Y-116.586
X174.879Y-109.855
X184.569Y-97.228
X185.293Y-97.954
X185.293Y-102.902
X185.928Y-99.568
X186.182Y-101.346
X186.436Y-112.141
X186.436Y-114.046
X186.531Y-74.612
X186.531Y-93.662
X186.531Y-109.537
X186.563Y-107.696
X186.69Y-81.026
X186.69Y-82.042
X186.69Y-115.57
X186.69Y-116.586
X186.736Y-102.178
X186.759Y-98.679
X186.759Y-100.457
X186.759Y-113.087
X188.208Y-81.026
X188.214Y-98.679
X188.214Y-102.108
X188.214Y-116.586
X188.341Y-100.457
X188.341Y-106.68
X188.341Y-107.696
X188.595Y-82.042
X188.595Y-114.046
X188.722Y-112.141
X188.722Y-115.57
X188.912Y-74.612
X188.912Y-93.662
X188.976Y-101.346
X189.103Y-99.568
X191.135Y-107.696
X191.172Y-106.68
X191.829Y-110.676
X191.897Y-97.954
X191.897Y-103.759
X192.659Y-102.997
X192.913Y-97.917
X193.548Y-102.07
X193.548Y-106.68
X193.802Y-107.696
X194.31Y-97.954
X194.941Y-101.223
X195.262Y-105.569
X196.342Y-81.026
X196.342Y-83.058
X196.697Y-82.042
X197.231Y-98.806
X198.146Y-81.042
X198.146Y-82.042
X198.438Y-94.456
X198.438Y-102.443
X198.628Y-83.058
X199.517Y-84.963
X199.517Y-102.489
X204.089Y-117.475
X204.978Y-91.443
X204.978Y-105.791
X205.232Y-90.17
X207.01Y-116.294
X207.776Y-114.177
T2
X149.384Y-68.104
X149.384Y-87.154
X149.384Y-125.254
X150.694Y-66.644
X150.694Y-85.694
X150.694Y-123.794
X155.694Y-66.144
X155.694Y-85.194
X155.694Y-123.294
X155.734Y-65.564
X155.734Y-84.614
X155.734Y-122.714
X168.434Y-68.104
X168.434Y-87.154
X168.434Y-106.204
X168.434Y-125.254
X169.744Y-66.644
X169.744Y-85.694
X169.744Y-104.744
X169.744Y-123.794
X174.744Y-66.144
X174.744Y-85.194
X174.744Y-104.244
X174.744Y-123.294
X174.784Y-65.564
X174.784Y-84.614
X174.784Y-103.664
X174.784Y-122.714
X187.484Y-68.104
X187.484Y-87.154
X187.484Y-125.254
X188.794Y-66.644
X188.794Y-85.694
X188.794Y-123.794
X193.794Y-66.144
X193.794Y-85.194
X193.794Y-123.294
X193.834Y-65.564
X193.834Y-84.614
X193.834Y-122.714
T0
M30
