G04 #@! TF.GenerationSoftware,KiCad,Pcbnew,(6.0.9)*
G04 #@! TF.CreationDate,2023-04-02T22:45:38-05:00*
G04 #@! TF.ProjectId,Navigation Keys,4e617669-6761-4746-996f-6e204b657973,rev?*
G04 #@! TF.SameCoordinates,Original*
G04 #@! TF.FileFunction,Copper,L2,Bot*
G04 #@! TF.FilePolarity,Positive*
%FSLAX46Y46*%
G04 Gerber Fmt 4.6, Leading zero omitted, Abs format (unit mm)*
G04 Created by KiCad (PCBNEW (6.0.9)) date 2023-04-02 22:45:38*
%MOMM*%
%LPD*%
G01*
G04 APERTURE LIST*
G04 Aperture macros list*
%AMHorizOval*
0 Thick line with rounded ends*
0 $1 width*
0 $2 $3 position (X,Y) of the first rounded end (center of the circle)*
0 $4 $5 position (X,Y) of the second rounded end (center of the circle)*
0 Add line between two ends*
20,1,$1,$2,$3,$4,$5,0*
0 Add two circle primitives to create the rounded ends*
1,1,$1,$2,$3*
1,1,$1,$4,$5*%
G04 Aperture macros list end*
G04 #@! TA.AperFunction,ComponentPad*
%ADD10C,2.250000*%
G04 #@! TD*
G04 #@! TA.AperFunction,ComponentPad*
%ADD11HorizOval,2.250000X0.655001X0.730000X-0.655001X-0.730000X0*%
G04 #@! TD*
G04 #@! TA.AperFunction,ComponentPad*
%ADD12HorizOval,2.250000X0.020000X0.290000X-0.020000X-0.290000X0*%
G04 #@! TD*
G04 #@! TA.AperFunction,ComponentPad*
%ADD13R,1.700000X1.700000*%
G04 #@! TD*
G04 #@! TA.AperFunction,ComponentPad*
%ADD14O,1.700000X1.700000*%
G04 #@! TD*
G04 #@! TA.AperFunction,ViaPad*
%ADD15C,0.800000*%
G04 #@! TD*
G04 #@! TA.AperFunction,Conductor*
%ADD16C,0.250000*%
G04 #@! TD*
G04 APERTURE END LIST*
D10*
X188793750Y-123793750D03*
D11*
X188138751Y-124523750D03*
D12*
X193813750Y-123003750D03*
D10*
X193833750Y-122713750D03*
X150693750Y-66643750D03*
D11*
X150038751Y-67373750D03*
D12*
X155713750Y-65853750D03*
D10*
X155733750Y-65563750D03*
D11*
X188138751Y-67373750D03*
D10*
X188793750Y-66643750D03*
D12*
X193813750Y-65853750D03*
D10*
X193833750Y-65563750D03*
D13*
X211931250Y-88106250D03*
D14*
X214471250Y-88106250D03*
X211931250Y-90646250D03*
X214471250Y-90646250D03*
X211931250Y-93186250D03*
X214471250Y-93186250D03*
X211931250Y-95726250D03*
X214471250Y-95726250D03*
X211931250Y-98266250D03*
X214471250Y-98266250D03*
X211931250Y-100806250D03*
X214471250Y-100806250D03*
X211931250Y-103346250D03*
X214471250Y-103346250D03*
X211931250Y-105886250D03*
X214471250Y-105886250D03*
X211931250Y-108426250D03*
X214471250Y-108426250D03*
X211931250Y-110966250D03*
X214471250Y-110966250D03*
D11*
X169088751Y-67373750D03*
D10*
X169743750Y-66643750D03*
X174783750Y-65563750D03*
D12*
X174763750Y-65853750D03*
D13*
X132625000Y-87768750D03*
D14*
X130085000Y-87768750D03*
X132625000Y-90308750D03*
X130085000Y-90308750D03*
X132625000Y-92848750D03*
X130085000Y-92848750D03*
X132625000Y-95388750D03*
X130085000Y-95388750D03*
X132625000Y-97928750D03*
X130085000Y-97928750D03*
X132625000Y-100468750D03*
X130085000Y-100468750D03*
X132625000Y-103008750D03*
X130085000Y-103008750D03*
X132625000Y-105548750D03*
X130085000Y-105548750D03*
X132625000Y-108088750D03*
X130085000Y-108088750D03*
X132625000Y-110628750D03*
X130085000Y-110628750D03*
D10*
X150693750Y-123793750D03*
D11*
X150038751Y-124523750D03*
D12*
X155713750Y-123003750D03*
D10*
X155733750Y-122713750D03*
D11*
X150038751Y-86423750D03*
D10*
X150693750Y-85693750D03*
X155733750Y-84613750D03*
D12*
X155713750Y-84903750D03*
D11*
X169088751Y-86423750D03*
D10*
X169743750Y-85693750D03*
D12*
X174763750Y-84903750D03*
D10*
X174783750Y-84613750D03*
D11*
X188138751Y-86423750D03*
D10*
X188793750Y-85693750D03*
D12*
X193813750Y-84903750D03*
D10*
X193833750Y-84613750D03*
D11*
X169088751Y-105473750D03*
D10*
X169743750Y-104743750D03*
X174783750Y-103663750D03*
D12*
X174763750Y-103953750D03*
D11*
X169088751Y-124523750D03*
D10*
X169743750Y-123793750D03*
D12*
X174763750Y-123003750D03*
D10*
X174783750Y-122713750D03*
D15*
X186531250Y-74612500D03*
X204650000Y-74681750D03*
X205000000Y-102100000D03*
X167481250Y-74612500D03*
X169862500Y-74612500D03*
X144600000Y-102024500D03*
X188912500Y-74612500D03*
X150108250Y-73800000D03*
X167481250Y-93662500D03*
X169158250Y-93662500D03*
X203450000Y-99600000D03*
X150108250Y-105550000D03*
X148659250Y-105550000D03*
X165900000Y-102024500D03*
X203400000Y-102100000D03*
X188912500Y-93662500D03*
X186531250Y-93662500D03*
X165900000Y-99775500D03*
X169158250Y-111800000D03*
X150108250Y-111800000D03*
X186759250Y-107250000D03*
X188208250Y-107250000D03*
X148659250Y-111800000D03*
X167709250Y-111800000D03*
X145450000Y-113350000D03*
X145450000Y-108400000D03*
X208700000Y-111700000D03*
X208700000Y-109025500D03*
X186531250Y-76200000D03*
X167481250Y-76200000D03*
X169862500Y-76200000D03*
X147637500Y-76200000D03*
X188912500Y-76200000D03*
X150812500Y-76200000D03*
X166687500Y-75406250D03*
X148431250Y-75406250D03*
X169158250Y-75406250D03*
X150108250Y-75406250D03*
X188208250Y-75406250D03*
X185737500Y-75406250D03*
X148431250Y-77787500D03*
X188912500Y-77787500D03*
X186531250Y-77787500D03*
X169862500Y-77787500D03*
X150108250Y-77787500D03*
X167481250Y-77787500D03*
X185737500Y-76993750D03*
X188208250Y-76993750D03*
X166687500Y-76993750D03*
X169158250Y-76993750D03*
X186531250Y-79375000D03*
X148431250Y-79375000D03*
X150108250Y-79375000D03*
X188208250Y-79375000D03*
X150812500Y-78581250D03*
X166687500Y-78581250D03*
X169158250Y-78581250D03*
X147637500Y-78581250D03*
X166687500Y-80962500D03*
X186531250Y-80962500D03*
X148431250Y-80962500D03*
X188208250Y-80962500D03*
X150108250Y-80962500D03*
X169862500Y-80962500D03*
X169158250Y-80168750D03*
X167481250Y-80168750D03*
X150812500Y-80168750D03*
X188912500Y-80168750D03*
X147637500Y-80168750D03*
X185737500Y-80168750D03*
X188208250Y-82550000D03*
X150108250Y-82550000D03*
X166687500Y-82550000D03*
X169862500Y-82550000D03*
X186531250Y-82550000D03*
X148431250Y-82550000D03*
X150812500Y-81756250D03*
X185737500Y-81756250D03*
X188912500Y-81756250D03*
X147637500Y-81756250D03*
X167481250Y-81756250D03*
X169158250Y-81756250D03*
X186759250Y-100500000D03*
X150200000Y-100500000D03*
X169158250Y-100500000D03*
X167709250Y-100500000D03*
X148659250Y-100500000D03*
X188208250Y-100500000D03*
X188912500Y-83343750D03*
X150812500Y-83343750D03*
X167481250Y-83343750D03*
X169158250Y-83343750D03*
X185737500Y-83343750D03*
X147637500Y-83343750D03*
X150850000Y-101300000D03*
X169800000Y-101300000D03*
X188802635Y-101303562D03*
X186000000Y-101300000D03*
X166950000Y-101300000D03*
X148000000Y-101300000D03*
X188208250Y-111100000D03*
X146725500Y-109350000D03*
X166900000Y-111050000D03*
X150108250Y-109350000D03*
X147952460Y-112524500D03*
X166900000Y-112524500D03*
X186759250Y-112500000D03*
X170050000Y-112524500D03*
X188208250Y-112500000D03*
X150950000Y-112524500D03*
D16*
X144600000Y-74550000D02*
X145350000Y-73800000D01*
X205000000Y-75031750D02*
X204650000Y-74681750D01*
X144600000Y-102024500D02*
X144600000Y-74550000D01*
X205000000Y-102100000D02*
X205000000Y-75031750D01*
X188912500Y-74612500D02*
X186531250Y-74612500D01*
X145350000Y-73800000D02*
X150108250Y-73800000D01*
X169862500Y-74612500D02*
X167481250Y-74612500D01*
X169158250Y-93662500D02*
X167481250Y-93662500D01*
X203400000Y-102100000D02*
X203400000Y-99650000D01*
X148659250Y-105550000D02*
X150108250Y-105550000D01*
X203400000Y-99650000D02*
X203450000Y-99600000D01*
X165900000Y-102024500D02*
X165900000Y-99775500D01*
X188912500Y-93662500D02*
X186531250Y-93662500D01*
X188208250Y-107250000D02*
X186759250Y-107250000D01*
X169158250Y-111800000D02*
X167709250Y-111800000D01*
X150108250Y-111800000D02*
X148659250Y-111800000D01*
X145450000Y-108400000D02*
X145450000Y-113350000D01*
X208700000Y-109025500D02*
X208700000Y-111700000D01*
X188912500Y-76200000D02*
X186531250Y-76200000D01*
X150812500Y-76200000D02*
X147637500Y-76200000D01*
X169862500Y-76200000D02*
X167481250Y-76200000D01*
X185737500Y-75406250D02*
X188208250Y-75406250D01*
X148431250Y-75406250D02*
X150108250Y-75406250D01*
X166687500Y-75406250D02*
X169158250Y-75406250D01*
X148431250Y-77787500D02*
X150108250Y-77787500D01*
X167481250Y-77787500D02*
X169862500Y-77787500D01*
X186531250Y-77787500D02*
X188912500Y-77787500D01*
X169158250Y-76993750D02*
X166687500Y-76993750D01*
X188208250Y-76993750D02*
X185737500Y-76993750D01*
X188208250Y-79375000D02*
X186531250Y-79375000D01*
X148431250Y-79375000D02*
X150108250Y-79375000D01*
X169158250Y-78581250D02*
X166687500Y-78581250D01*
X150812500Y-78581250D02*
X147637500Y-78581250D01*
X188208250Y-80962500D02*
X186531250Y-80962500D01*
X150108250Y-80962500D02*
X148431250Y-80962500D01*
X169862500Y-80962500D02*
X166687500Y-80962500D01*
X167481250Y-80168750D02*
X169158250Y-80168750D01*
X147637500Y-80168750D02*
X150812500Y-80168750D01*
X185737500Y-80168750D02*
X188912500Y-80168750D01*
X150108250Y-82550000D02*
X148431250Y-82550000D01*
X188208250Y-82550000D02*
X186531250Y-82550000D01*
X169862500Y-82550000D02*
X166687500Y-82550000D01*
X185737500Y-81756250D02*
X188912500Y-81756250D01*
X147637500Y-81756250D02*
X150812500Y-81756250D01*
X167481250Y-81756250D02*
X169158250Y-81756250D01*
X167709250Y-100500000D02*
X169158250Y-100500000D01*
X148659250Y-100500000D02*
X150200000Y-100500000D01*
X186759250Y-100500000D02*
X188208250Y-100500000D01*
X169158250Y-83343750D02*
X167481250Y-83343750D01*
X150812500Y-83343750D02*
X147637500Y-83343750D01*
X188912500Y-83343750D02*
X185737500Y-83343750D01*
X186003562Y-101303562D02*
X186000000Y-101300000D01*
X188802635Y-101303562D02*
X186003562Y-101303562D01*
X169800000Y-101300000D02*
X166950000Y-101300000D01*
X150850000Y-101300000D02*
X148000000Y-101300000D01*
X188195599Y-111112651D02*
X188208250Y-111100000D01*
X166900000Y-111050000D02*
X170100000Y-111050000D01*
X170162651Y-111112651D02*
X188195599Y-111112651D01*
X170100000Y-111050000D02*
X170162651Y-111112651D01*
X146725500Y-109350000D02*
X150108250Y-109350000D01*
X150950000Y-112524500D02*
X147952460Y-112524500D01*
X170050000Y-112524500D02*
X166900000Y-112524500D01*
X188208250Y-112500000D02*
X186759250Y-112500000D01*
G04 #@! TA.AperFunction,Conductor*
G36*
X215870018Y-61628750D02*
G01*
X215884851Y-61631060D01*
X215884855Y-61631060D01*
X215893724Y-61632441D01*
X215910012Y-61630311D01*
X215934590Y-61629517D01*
X215946703Y-61630311D01*
X216136201Y-61642732D01*
X216152541Y-61644883D01*
X216376603Y-61689451D01*
X216392524Y-61693717D01*
X216608851Y-61767151D01*
X216624077Y-61773458D01*
X216828967Y-61874498D01*
X216843241Y-61882739D01*
X217033188Y-62009658D01*
X217046263Y-62019691D01*
X217218024Y-62170321D01*
X217229679Y-62181976D01*
X217380309Y-62353737D01*
X217390342Y-62366812D01*
X217517261Y-62556759D01*
X217525502Y-62571033D01*
X217626542Y-62775923D01*
X217632849Y-62791149D01*
X217706283Y-63007476D01*
X217710549Y-63023397D01*
X217755117Y-63247459D01*
X217757268Y-63263799D01*
X217770013Y-63458236D01*
X217768983Y-63481350D01*
X217768940Y-63484854D01*
X217767559Y-63493724D01*
X217768723Y-63502626D01*
X217768723Y-63502628D01*
X217771686Y-63525283D01*
X217772750Y-63541621D01*
X217772750Y-134888133D01*
X217771250Y-134907518D01*
X217768940Y-134922351D01*
X217768940Y-134922355D01*
X217767559Y-134931224D01*
X217769689Y-134947510D01*
X217770483Y-134972090D01*
X217757268Y-135173701D01*
X217755117Y-135190041D01*
X217710549Y-135414103D01*
X217706283Y-135430024D01*
X217632849Y-135646351D01*
X217626542Y-135661577D01*
X217525502Y-135866467D01*
X217517261Y-135880741D01*
X217390342Y-136070688D01*
X217380309Y-136083763D01*
X217229679Y-136255524D01*
X217218024Y-136267179D01*
X217046263Y-136417809D01*
X217033188Y-136427842D01*
X216843241Y-136554761D01*
X216828967Y-136563002D01*
X216624077Y-136664042D01*
X216608851Y-136670349D01*
X216392524Y-136743783D01*
X216376603Y-136748049D01*
X216152541Y-136792617D01*
X216136201Y-136794768D01*
X216004882Y-136803376D01*
X215941763Y-136807513D01*
X215918650Y-136806483D01*
X215915146Y-136806440D01*
X215906276Y-136805059D01*
X215897374Y-136806223D01*
X215897372Y-136806223D01*
X215882323Y-136808191D01*
X215874714Y-136809186D01*
X215858379Y-136810250D01*
X200944750Y-136810250D01*
X200876629Y-136790248D01*
X200830136Y-136736592D01*
X200818750Y-136684250D01*
X200818750Y-133350000D01*
X210418085Y-133350000D01*
X210436715Y-133586711D01*
X210437869Y-133591518D01*
X210437870Y-133591524D01*
X210467851Y-133716401D01*
X210492145Y-133817594D01*
X210583010Y-134036963D01*
X210585596Y-134041183D01*
X210704491Y-134235202D01*
X210704495Y-134235208D01*
X210707074Y-134239416D01*
X210861281Y-134419969D01*
X211041834Y-134574176D01*
X211046042Y-134576755D01*
X211046048Y-134576759D01*
X211240067Y-134695654D01*
X211244287Y-134698240D01*
X211248857Y-134700133D01*
X211248861Y-134700135D01*
X211459083Y-134787211D01*
X211463656Y-134789105D01*
X211543859Y-134808360D01*
X211689726Y-134843380D01*
X211689732Y-134843381D01*
X211694539Y-134844535D01*
X211931250Y-134863165D01*
X212167961Y-134844535D01*
X212172768Y-134843381D01*
X212172774Y-134843380D01*
X212318641Y-134808360D01*
X212398844Y-134789105D01*
X212403417Y-134787211D01*
X212613639Y-134700135D01*
X212613643Y-134700133D01*
X212618213Y-134698240D01*
X212622433Y-134695654D01*
X212816452Y-134576759D01*
X212816458Y-134576755D01*
X212820666Y-134574176D01*
X213001219Y-134419969D01*
X213155426Y-134239416D01*
X213158005Y-134235208D01*
X213158009Y-134235202D01*
X213276904Y-134041183D01*
X213279490Y-134036963D01*
X213370355Y-133817594D01*
X213394649Y-133716401D01*
X213424630Y-133591524D01*
X213424631Y-133591518D01*
X213425785Y-133586711D01*
X213444415Y-133350000D01*
X213425785Y-133113289D01*
X213417831Y-133080155D01*
X213371510Y-132887218D01*
X213370355Y-132882406D01*
X213279490Y-132663037D01*
X213276904Y-132658817D01*
X213158009Y-132464798D01*
X213158005Y-132464792D01*
X213155426Y-132460584D01*
X213001219Y-132280031D01*
X212820666Y-132125824D01*
X212816458Y-132123245D01*
X212816452Y-132123241D01*
X212622433Y-132004346D01*
X212618213Y-132001760D01*
X212613643Y-131999867D01*
X212613639Y-131999865D01*
X212403417Y-131912789D01*
X212403415Y-131912788D01*
X212398844Y-131910895D01*
X212318641Y-131891640D01*
X212172774Y-131856620D01*
X212172768Y-131856619D01*
X212167961Y-131855465D01*
X211931250Y-131836835D01*
X211694539Y-131855465D01*
X211689732Y-131856619D01*
X211689726Y-131856620D01*
X211543859Y-131891640D01*
X211463656Y-131910895D01*
X211459085Y-131912788D01*
X211459083Y-131912789D01*
X211248861Y-131999865D01*
X211248857Y-131999867D01*
X211244287Y-132001760D01*
X211240067Y-132004346D01*
X211046048Y-132123241D01*
X211046042Y-132123245D01*
X211041834Y-132125824D01*
X210861281Y-132280031D01*
X210707074Y-132460584D01*
X210704495Y-132464792D01*
X210704491Y-132464798D01*
X210585596Y-132658817D01*
X210583010Y-132663037D01*
X210492145Y-132882406D01*
X210490990Y-132887218D01*
X210444670Y-133080155D01*
X210436715Y-133113289D01*
X210418558Y-133343995D01*
X210418085Y-133350000D01*
X200818750Y-133350000D01*
X200818750Y-111700000D01*
X207786496Y-111700000D01*
X207787186Y-111706565D01*
X207801759Y-111845215D01*
X207806458Y-111889928D01*
X207865473Y-112071556D01*
X207868776Y-112077278D01*
X207868777Y-112077279D01*
X207870104Y-112079577D01*
X207960960Y-112236944D01*
X207965378Y-112241851D01*
X207965379Y-112241852D01*
X208042950Y-112328003D01*
X208088747Y-112378866D01*
X208243248Y-112491118D01*
X208249276Y-112493802D01*
X208249278Y-112493803D01*
X208411681Y-112566109D01*
X208417712Y-112568794D01*
X208511113Y-112588647D01*
X208598056Y-112607128D01*
X208598061Y-112607128D01*
X208604513Y-112608500D01*
X208795487Y-112608500D01*
X208801939Y-112607128D01*
X208801944Y-112607128D01*
X208888887Y-112588647D01*
X208982288Y-112568794D01*
X208988319Y-112566109D01*
X209150722Y-112493803D01*
X209150724Y-112493802D01*
X209156752Y-112491118D01*
X209311253Y-112378866D01*
X209357050Y-112328003D01*
X209434621Y-112241852D01*
X209434622Y-112241851D01*
X209439040Y-112236944D01*
X209529896Y-112079577D01*
X209531223Y-112077279D01*
X209531224Y-112077278D01*
X209534527Y-112071556D01*
X209593542Y-111889928D01*
X209598242Y-111845215D01*
X209612814Y-111706565D01*
X209613504Y-111700000D01*
X209593542Y-111510072D01*
X209534527Y-111328444D01*
X209480124Y-111234216D01*
X210599507Y-111234216D01*
X210629815Y-111368696D01*
X210632895Y-111378525D01*
X210713020Y-111575853D01*
X210717663Y-111585044D01*
X210828944Y-111766638D01*
X210835027Y-111774949D01*
X210974463Y-111935917D01*
X210981830Y-111943133D01*
X211145684Y-112079166D01*
X211154131Y-112085081D01*
X211338006Y-112192529D01*
X211347292Y-112196979D01*
X211546251Y-112272953D01*
X211556149Y-112275829D01*
X211659500Y-112296856D01*
X211673549Y-112295660D01*
X211677250Y-112285315D01*
X211677250Y-111238365D01*
X211672775Y-111223126D01*
X211671385Y-111221921D01*
X211663702Y-111220250D01*
X210614475Y-111220250D01*
X210600944Y-111224223D01*
X210599507Y-111234216D01*
X209480124Y-111234216D01*
X209439040Y-111163056D01*
X209365863Y-111081785D01*
X209335147Y-111017779D01*
X209333500Y-110997476D01*
X209333500Y-109728024D01*
X209353502Y-109659903D01*
X209365858Y-109643721D01*
X209439040Y-109562444D01*
X209497314Y-109461510D01*
X209531223Y-109402779D01*
X209531224Y-109402778D01*
X209534527Y-109397056D01*
X209593542Y-109215428D01*
X209613504Y-109025500D01*
X209593542Y-108835572D01*
X209534527Y-108653944D01*
X209439040Y-108488556D01*
X209382940Y-108426250D01*
X209352952Y-108392945D01*
X210568501Y-108392945D01*
X210568798Y-108398098D01*
X210568798Y-108398101D01*
X210574261Y-108492840D01*
X210581360Y-108615965D01*
X210582497Y-108621011D01*
X210582498Y-108621017D01*
X210588629Y-108648221D01*
X210630472Y-108833889D01*
X210668711Y-108928061D01*
X210708277Y-109025500D01*
X210714516Y-109040866D01*
X210765269Y-109123688D01*
X210828541Y-109226938D01*
X210831237Y-109231338D01*
X210977500Y-109400188D01*
X211149376Y-109542882D01*
X211191243Y-109567347D01*
X211223205Y-109586024D01*
X211271929Y-109637662D01*
X211285000Y-109707445D01*
X211258269Y-109773217D01*
X211217812Y-109806577D01*
X211209707Y-109810796D01*
X211200988Y-109816286D01*
X211030683Y-109944155D01*
X211022976Y-109950998D01*
X210875840Y-110104967D01*
X210869354Y-110112977D01*
X210749348Y-110288899D01*
X210744250Y-110297873D01*
X210654588Y-110491033D01*
X210651025Y-110500720D01*
X210595639Y-110700433D01*
X210597162Y-110708857D01*
X210609542Y-110712250D01*
X212059250Y-110712250D01*
X212127371Y-110732252D01*
X212173864Y-110785908D01*
X212185250Y-110838250D01*
X212185250Y-112284767D01*
X212189314Y-112298609D01*
X212202728Y-112300643D01*
X212209434Y-112299784D01*
X212219512Y-112297642D01*
X212423505Y-112236441D01*
X212433092Y-112232683D01*
X212624345Y-112138989D01*
X212633195Y-112133714D01*
X212806578Y-112010042D01*
X212814450Y-112003389D01*
X212965302Y-111853062D01*
X212971980Y-111845215D01*
X213099272Y-111668069D01*
X213100529Y-111668972D01*
X213147623Y-111625612D01*
X213217561Y-111613395D01*
X213283001Y-111640928D01*
X213310829Y-111672761D01*
X213371237Y-111771338D01*
X213517500Y-111940188D01*
X213689376Y-112082882D01*
X213882250Y-112195588D01*
X214090942Y-112275280D01*
X214096010Y-112276311D01*
X214096013Y-112276312D01*
X214191112Y-112295660D01*
X214309847Y-112319817D01*
X214315022Y-112320007D01*
X214315024Y-112320007D01*
X214527923Y-112327814D01*
X214527927Y-112327814D01*
X214533087Y-112328003D01*
X214538207Y-112327347D01*
X214538209Y-112327347D01*
X214749538Y-112300275D01*
X214749539Y-112300275D01*
X214754666Y-112299618D01*
X214759616Y-112298133D01*
X214963679Y-112236911D01*
X214963684Y-112236909D01*
X214968634Y-112235424D01*
X215169244Y-112137146D01*
X215351110Y-112007423D01*
X215509346Y-111849739D01*
X215639703Y-111668327D01*
X215653245Y-111640928D01*
X215736386Y-111472703D01*
X215736387Y-111472701D01*
X215738680Y-111468061D01*
X215771150Y-111361190D01*
X215802115Y-111259273D01*
X215802115Y-111259271D01*
X215803620Y-111254319D01*
X215832779Y-111032840D01*
X215834406Y-110966250D01*
X215816102Y-110743611D01*
X215761681Y-110526952D01*
X215672604Y-110322090D01*
X215551264Y-110134527D01*
X215400920Y-109969301D01*
X215396869Y-109966102D01*
X215396865Y-109966098D01*
X215229664Y-109834050D01*
X215229660Y-109834048D01*
X215225609Y-109830848D01*
X215184303Y-109808046D01*
X215134334Y-109757614D01*
X215119562Y-109688171D01*
X215144678Y-109621766D01*
X215172030Y-109595159D01*
X215225911Y-109556726D01*
X215351110Y-109467423D01*
X215509346Y-109309739D01*
X215568844Y-109226939D01*
X215636685Y-109132527D01*
X215639703Y-109128327D01*
X215660570Y-109086107D01*
X215736386Y-108932703D01*
X215736387Y-108932701D01*
X215738680Y-108928061D01*
X215803620Y-108714319D01*
X215832779Y-108492840D01*
X215834406Y-108426250D01*
X215816102Y-108203611D01*
X215761681Y-107986952D01*
X215672604Y-107782090D01*
X215551264Y-107594527D01*
X215400920Y-107429301D01*
X215396869Y-107426102D01*
X215396865Y-107426098D01*
X215229664Y-107294050D01*
X215229660Y-107294048D01*
X215225609Y-107290848D01*
X215184303Y-107268046D01*
X215134334Y-107217614D01*
X215119562Y-107148171D01*
X215144678Y-107081766D01*
X215172030Y-107055159D01*
X215215853Y-107023900D01*
X215351110Y-106927423D01*
X215509346Y-106769739D01*
X215568844Y-106686939D01*
X215636685Y-106592527D01*
X215639703Y-106588327D01*
X215660570Y-106546107D01*
X215736386Y-106392703D01*
X215736387Y-106392701D01*
X215738680Y-106388061D01*
X215803620Y-106174319D01*
X215832779Y-105952840D01*
X215834406Y-105886250D01*
X215816102Y-105663611D01*
X215761681Y-105446952D01*
X215672604Y-105242090D01*
X215551264Y-105054527D01*
X215400920Y-104889301D01*
X215396869Y-104886102D01*
X215396865Y-104886098D01*
X215229664Y-104754050D01*
X215229660Y-104754048D01*
X215225609Y-104750848D01*
X215184303Y-104728046D01*
X215134334Y-104677614D01*
X215119562Y-104608171D01*
X215144678Y-104541766D01*
X215172030Y-104515159D01*
X215215853Y-104483900D01*
X215351110Y-104387423D01*
X215509346Y-104229739D01*
X215568844Y-104146939D01*
X215636685Y-104052527D01*
X215639703Y-104048327D01*
X215660570Y-104006107D01*
X215736386Y-103852703D01*
X215736387Y-103852701D01*
X215738680Y-103848061D01*
X215803620Y-103634319D01*
X215832779Y-103412840D01*
X215834406Y-103346250D01*
X215816102Y-103123611D01*
X215761681Y-102906952D01*
X215672604Y-102702090D01*
X215626760Y-102631226D01*
X215554072Y-102518867D01*
X215554070Y-102518864D01*
X215551264Y-102514527D01*
X215400920Y-102349301D01*
X215396869Y-102346102D01*
X215396865Y-102346098D01*
X215229664Y-102214050D01*
X215229660Y-102214048D01*
X215225609Y-102210848D01*
X215184303Y-102188046D01*
X215134334Y-102137614D01*
X215119562Y-102068171D01*
X215144678Y-102001766D01*
X215172030Y-101975159D01*
X215215853Y-101943900D01*
X215351110Y-101847423D01*
X215509346Y-101689739D01*
X215568844Y-101606939D01*
X215636685Y-101512527D01*
X215639703Y-101508327D01*
X215652821Y-101481786D01*
X215736386Y-101312703D01*
X215736387Y-101312701D01*
X215738680Y-101308061D01*
X215803620Y-101094319D01*
X215832779Y-100872840D01*
X215834406Y-100806250D01*
X215816102Y-100583611D01*
X215761681Y-100366952D01*
X215672604Y-100162090D01*
X215551264Y-99974527D01*
X215400920Y-99809301D01*
X215396869Y-99806102D01*
X215396865Y-99806098D01*
X215229664Y-99674050D01*
X215229660Y-99674048D01*
X215225609Y-99670848D01*
X215184303Y-99648046D01*
X215134334Y-99597614D01*
X215119562Y-99528171D01*
X215144678Y-99461766D01*
X215172030Y-99435159D01*
X215216002Y-99403794D01*
X215351110Y-99307423D01*
X215424059Y-99234729D01*
X215505685Y-99153387D01*
X215509346Y-99149739D01*
X215568844Y-99066939D01*
X215636685Y-98972527D01*
X215639703Y-98968327D01*
X215660570Y-98926107D01*
X215736386Y-98772703D01*
X215736387Y-98772701D01*
X215738680Y-98768061D01*
X215803620Y-98554319D01*
X215832779Y-98332840D01*
X215834406Y-98266250D01*
X215816102Y-98043611D01*
X215761681Y-97826952D01*
X215672604Y-97622090D01*
X215551264Y-97434527D01*
X215400920Y-97269301D01*
X215396869Y-97266102D01*
X215396865Y-97266098D01*
X215229664Y-97134050D01*
X215229660Y-97134048D01*
X215225609Y-97130848D01*
X215184303Y-97108046D01*
X215134334Y-97057614D01*
X215119562Y-96988171D01*
X215144678Y-96921766D01*
X215172030Y-96895159D01*
X215215853Y-96863900D01*
X215351110Y-96767423D01*
X215509346Y-96609739D01*
X215568844Y-96526939D01*
X215636685Y-96432527D01*
X215639703Y-96428327D01*
X215660570Y-96386107D01*
X215736386Y-96232703D01*
X215736387Y-96232701D01*
X215738680Y-96228061D01*
X215803620Y-96014319D01*
X215832779Y-95792840D01*
X215834406Y-95726250D01*
X215816102Y-95503611D01*
X215761681Y-95286952D01*
X215672604Y-95082090D01*
X215551264Y-94894527D01*
X215400920Y-94729301D01*
X215396869Y-94726102D01*
X215396865Y-94726098D01*
X215229664Y-94594050D01*
X215229660Y-94594048D01*
X215225609Y-94590848D01*
X215184303Y-94568046D01*
X215134334Y-94517614D01*
X215119562Y-94448171D01*
X215144678Y-94381766D01*
X215172030Y-94355159D01*
X215215853Y-94323900D01*
X215351110Y-94227423D01*
X215509346Y-94069739D01*
X215568844Y-93986939D01*
X215636685Y-93892527D01*
X215639703Y-93888327D01*
X215660570Y-93846107D01*
X215736386Y-93692703D01*
X215736387Y-93692701D01*
X215738680Y-93688061D01*
X215803620Y-93474319D01*
X215832779Y-93252840D01*
X215834406Y-93186250D01*
X215816102Y-92963611D01*
X215761681Y-92746952D01*
X215672604Y-92542090D01*
X215551264Y-92354527D01*
X215400920Y-92189301D01*
X215396869Y-92186102D01*
X215396865Y-92186098D01*
X215229664Y-92054050D01*
X215229660Y-92054048D01*
X215225609Y-92050848D01*
X215184303Y-92028046D01*
X215134334Y-91977614D01*
X215119562Y-91908171D01*
X215144678Y-91841766D01*
X215172030Y-91815159D01*
X215215853Y-91783900D01*
X215351110Y-91687423D01*
X215509346Y-91529739D01*
X215568844Y-91446939D01*
X215636685Y-91352527D01*
X215639703Y-91348327D01*
X215660570Y-91306107D01*
X215736386Y-91152703D01*
X215736387Y-91152701D01*
X215738680Y-91148061D01*
X215803620Y-90934319D01*
X215832779Y-90712840D01*
X215834406Y-90646250D01*
X215816102Y-90423611D01*
X215761681Y-90206952D01*
X215672604Y-90002090D01*
X215551264Y-89814527D01*
X215400920Y-89649301D01*
X215396869Y-89646102D01*
X215396865Y-89646098D01*
X215229664Y-89514050D01*
X215229660Y-89514048D01*
X215225609Y-89510848D01*
X215184303Y-89488046D01*
X215134334Y-89437614D01*
X215119562Y-89368171D01*
X215144678Y-89301766D01*
X215172030Y-89275159D01*
X215215853Y-89243900D01*
X215351110Y-89147423D01*
X215509346Y-88989739D01*
X215639703Y-88808327D01*
X215738680Y-88608061D01*
X215803620Y-88394319D01*
X215832779Y-88172840D01*
X215834406Y-88106250D01*
X215816102Y-87883611D01*
X215761681Y-87666952D01*
X215672604Y-87462090D01*
X215551264Y-87274527D01*
X215400920Y-87109301D01*
X215396869Y-87106102D01*
X215396865Y-87106098D01*
X215229664Y-86974050D01*
X215229660Y-86974048D01*
X215225609Y-86970848D01*
X215030039Y-86862888D01*
X215025170Y-86861164D01*
X215025166Y-86861162D01*
X214824337Y-86790045D01*
X214824333Y-86790044D01*
X214819462Y-86788319D01*
X214814369Y-86787412D01*
X214814366Y-86787411D01*
X214604623Y-86750050D01*
X214604617Y-86750049D01*
X214599534Y-86749144D01*
X214525702Y-86748242D01*
X214381331Y-86746478D01*
X214381329Y-86746478D01*
X214376161Y-86746415D01*
X214155341Y-86780205D01*
X213943006Y-86849607D01*
X213744857Y-86952757D01*
X213740724Y-86955860D01*
X213740721Y-86955862D01*
X213570350Y-87083780D01*
X213566215Y-87086885D01*
X213509787Y-87145934D01*
X213485533Y-87171314D01*
X213424009Y-87206744D01*
X213353096Y-87203287D01*
X213295310Y-87162041D01*
X213276457Y-87128493D01*
X213235017Y-87017953D01*
X213231865Y-87009545D01*
X213144511Y-86892989D01*
X213027955Y-86805635D01*
X212891566Y-86754505D01*
X212829384Y-86747750D01*
X211033116Y-86747750D01*
X210970934Y-86754505D01*
X210834545Y-86805635D01*
X210717989Y-86892989D01*
X210630635Y-87009545D01*
X210579505Y-87145934D01*
X210572750Y-87208116D01*
X210572750Y-89004384D01*
X210579505Y-89066566D01*
X210630635Y-89202955D01*
X210717989Y-89319511D01*
X210834545Y-89406865D01*
X210842954Y-89410017D01*
X210842955Y-89410018D01*
X210951701Y-89450785D01*
X211008466Y-89493426D01*
X211033166Y-89559988D01*
X211017959Y-89629337D01*
X210998566Y-89655818D01*
X210871879Y-89788388D01*
X210745993Y-89972930D01*
X210651938Y-90175555D01*
X210592239Y-90390820D01*
X210568501Y-90612945D01*
X210568798Y-90618098D01*
X210568798Y-90618101D01*
X210574261Y-90712840D01*
X210581360Y-90835965D01*
X210582497Y-90841011D01*
X210582498Y-90841017D01*
X210602369Y-90929189D01*
X210630472Y-91053889D01*
X210714516Y-91260866D01*
X210765269Y-91343688D01*
X210828541Y-91446938D01*
X210831237Y-91451338D01*
X210977500Y-91620188D01*
X211149376Y-91762882D01*
X211219845Y-91804061D01*
X211222695Y-91805726D01*
X211271419Y-91857364D01*
X211284490Y-91927147D01*
X211257759Y-91992919D01*
X211217305Y-92026277D01*
X211204857Y-92032757D01*
X211200724Y-92035860D01*
X211200721Y-92035862D01*
X211176497Y-92054050D01*
X211026215Y-92166885D01*
X210871879Y-92328388D01*
X210745993Y-92512930D01*
X210651938Y-92715555D01*
X210592239Y-92930820D01*
X210568501Y-93152945D01*
X210568798Y-93158098D01*
X210568798Y-93158101D01*
X210574261Y-93252840D01*
X210581360Y-93375965D01*
X210582497Y-93381011D01*
X210582498Y-93381017D01*
X210602369Y-93469189D01*
X210630472Y-93593889D01*
X210714516Y-93800866D01*
X210765269Y-93883688D01*
X210828541Y-93986938D01*
X210831237Y-93991338D01*
X210977500Y-94160188D01*
X211149376Y-94302882D01*
X211219845Y-94344061D01*
X211222695Y-94345726D01*
X211271419Y-94397364D01*
X211284490Y-94467147D01*
X211257759Y-94532919D01*
X211217305Y-94566277D01*
X211204857Y-94572757D01*
X211200724Y-94575860D01*
X211200721Y-94575862D01*
X211176497Y-94594050D01*
X211026215Y-94706885D01*
X210871879Y-94868388D01*
X210745993Y-95052930D01*
X210651938Y-95255555D01*
X210592239Y-95470820D01*
X210568501Y-95692945D01*
X210568798Y-95698098D01*
X210568798Y-95698101D01*
X210574261Y-95792840D01*
X210581360Y-95915965D01*
X210582497Y-95921011D01*
X210582498Y-95921017D01*
X210602369Y-96009189D01*
X210630472Y-96133889D01*
X210714516Y-96340866D01*
X210765269Y-96423688D01*
X210828541Y-96526938D01*
X210831237Y-96531338D01*
X210977500Y-96700188D01*
X211149376Y-96842882D01*
X211219845Y-96884061D01*
X211222695Y-96885726D01*
X211271419Y-96937364D01*
X211284490Y-97007147D01*
X211257759Y-97072919D01*
X211217305Y-97106277D01*
X211204857Y-97112757D01*
X211200724Y-97115860D01*
X211200721Y-97115862D01*
X211176497Y-97134050D01*
X211026215Y-97246885D01*
X210871879Y-97408388D01*
X210745993Y-97592930D01*
X210651938Y-97795555D01*
X210592239Y-98010820D01*
X210568501Y-98232945D01*
X210568798Y-98238098D01*
X210568798Y-98238101D01*
X210574261Y-98332840D01*
X210581360Y-98455965D01*
X210582497Y-98461011D01*
X210582498Y-98461017D01*
X210602369Y-98549189D01*
X210630472Y-98673889D01*
X210714516Y-98880866D01*
X210765269Y-98963688D01*
X210828541Y-99066938D01*
X210831237Y-99071338D01*
X210977500Y-99240188D01*
X211149376Y-99382882D01*
X211185163Y-99403794D01*
X211222695Y-99425726D01*
X211271419Y-99477364D01*
X211284490Y-99547147D01*
X211257759Y-99612919D01*
X211217305Y-99646277D01*
X211204857Y-99652757D01*
X211200724Y-99655860D01*
X211200721Y-99655862D01*
X211176497Y-99674050D01*
X211026215Y-99786885D01*
X210871879Y-99948388D01*
X210745993Y-100132930D01*
X210651938Y-100335555D01*
X210592239Y-100550820D01*
X210568501Y-100772945D01*
X210568798Y-100778098D01*
X210568798Y-100778101D01*
X210574261Y-100872840D01*
X210581360Y-100995965D01*
X210582497Y-101001011D01*
X210582498Y-101001017D01*
X210602369Y-101089189D01*
X210630472Y-101213889D01*
X210714516Y-101420866D01*
X210751848Y-101481786D01*
X210828541Y-101606938D01*
X210831237Y-101611338D01*
X210977500Y-101780188D01*
X211149376Y-101922882D01*
X211219845Y-101964061D01*
X211222695Y-101965726D01*
X211271419Y-102017364D01*
X211284490Y-102087147D01*
X211257759Y-102152919D01*
X211217305Y-102186277D01*
X211204857Y-102192757D01*
X211200724Y-102195860D01*
X211200721Y-102195862D01*
X211030350Y-102323780D01*
X211026215Y-102326885D01*
X210871879Y-102488388D01*
X210745993Y-102672930D01*
X210651938Y-102875555D01*
X210592239Y-103090820D01*
X210568501Y-103312945D01*
X210568798Y-103318098D01*
X210568798Y-103318101D01*
X210574261Y-103412840D01*
X210581360Y-103535965D01*
X210582497Y-103541011D01*
X210582498Y-103541017D01*
X210602369Y-103629189D01*
X210630472Y-103753889D01*
X210714516Y-103960866D01*
X210765269Y-104043688D01*
X210828541Y-104146938D01*
X210831237Y-104151338D01*
X210977500Y-104320188D01*
X211149376Y-104462882D01*
X211219845Y-104504061D01*
X211222695Y-104505726D01*
X211271419Y-104557364D01*
X211284490Y-104627147D01*
X211257759Y-104692919D01*
X211217305Y-104726277D01*
X211204857Y-104732757D01*
X211200724Y-104735860D01*
X211200721Y-104735862D01*
X211176497Y-104754050D01*
X211026215Y-104866885D01*
X210871879Y-105028388D01*
X210745993Y-105212930D01*
X210651938Y-105415555D01*
X210592239Y-105630820D01*
X210568501Y-105852945D01*
X210568798Y-105858098D01*
X210568798Y-105858101D01*
X210574261Y-105952840D01*
X210581360Y-106075965D01*
X210582497Y-106081011D01*
X210582498Y-106081017D01*
X210602369Y-106169189D01*
X210630472Y-106293889D01*
X210714516Y-106500866D01*
X210765269Y-106583688D01*
X210828541Y-106686938D01*
X210831237Y-106691338D01*
X210977500Y-106860188D01*
X211149376Y-107002882D01*
X211219845Y-107044061D01*
X211222695Y-107045726D01*
X211271419Y-107097364D01*
X211284490Y-107167147D01*
X211257759Y-107232919D01*
X211217305Y-107266277D01*
X211204857Y-107272757D01*
X211200724Y-107275860D01*
X211200721Y-107275862D01*
X211176497Y-107294050D01*
X211026215Y-107406885D01*
X210871879Y-107568388D01*
X210745993Y-107752930D01*
X210651938Y-107955555D01*
X210592239Y-108170820D01*
X210568501Y-108392945D01*
X209352952Y-108392945D01*
X209315675Y-108351545D01*
X209315674Y-108351544D01*
X209311253Y-108346634D01*
X209156752Y-108234382D01*
X209150724Y-108231698D01*
X209150722Y-108231697D01*
X208988319Y-108159391D01*
X208988318Y-108159391D01*
X208982288Y-108156706D01*
X208888888Y-108136853D01*
X208801944Y-108118372D01*
X208801939Y-108118372D01*
X208795487Y-108117000D01*
X208604513Y-108117000D01*
X208598061Y-108118372D01*
X208598056Y-108118372D01*
X208511112Y-108136853D01*
X208417712Y-108156706D01*
X208411682Y-108159391D01*
X208411681Y-108159391D01*
X208249278Y-108231697D01*
X208249276Y-108231698D01*
X208243248Y-108234382D01*
X208088747Y-108346634D01*
X208084326Y-108351544D01*
X208084325Y-108351545D01*
X208017061Y-108426250D01*
X207960960Y-108488556D01*
X207865473Y-108653944D01*
X207806458Y-108835572D01*
X207786496Y-109025500D01*
X207806458Y-109215428D01*
X207865473Y-109397056D01*
X207868776Y-109402778D01*
X207868777Y-109402779D01*
X207902686Y-109461510D01*
X207960960Y-109562444D01*
X208034137Y-109643715D01*
X208064853Y-109707721D01*
X208066500Y-109728024D01*
X208066500Y-110997476D01*
X208046498Y-111065597D01*
X208034142Y-111081779D01*
X207960960Y-111163056D01*
X207865473Y-111328444D01*
X207806458Y-111510072D01*
X207786496Y-111700000D01*
X200818750Y-111700000D01*
X200818750Y-102100000D01*
X202486496Y-102100000D01*
X202506458Y-102289928D01*
X202565473Y-102471556D01*
X202660960Y-102636944D01*
X202665378Y-102641851D01*
X202665379Y-102641852D01*
X202784325Y-102773955D01*
X202788747Y-102778866D01*
X202943248Y-102891118D01*
X202949276Y-102893802D01*
X202949278Y-102893803D01*
X203111681Y-102966109D01*
X203117712Y-102968794D01*
X203211112Y-102988647D01*
X203298056Y-103007128D01*
X203298061Y-103007128D01*
X203304513Y-103008500D01*
X203495487Y-103008500D01*
X203501939Y-103007128D01*
X203501944Y-103007128D01*
X203588888Y-102988647D01*
X203682288Y-102968794D01*
X203688319Y-102966109D01*
X203850722Y-102893803D01*
X203850724Y-102893802D01*
X203856752Y-102891118D01*
X204011253Y-102778866D01*
X204106365Y-102673233D01*
X204166810Y-102635994D01*
X204237793Y-102637346D01*
X204293635Y-102673233D01*
X204388747Y-102778866D01*
X204543248Y-102891118D01*
X204549276Y-102893802D01*
X204549278Y-102893803D01*
X204711681Y-102966109D01*
X204717712Y-102968794D01*
X204811112Y-102988647D01*
X204898056Y-103007128D01*
X204898061Y-103007128D01*
X204904513Y-103008500D01*
X205095487Y-103008500D01*
X205101939Y-103007128D01*
X205101944Y-103007128D01*
X205188888Y-102988647D01*
X205282288Y-102968794D01*
X205288319Y-102966109D01*
X205450722Y-102893803D01*
X205450724Y-102893802D01*
X205456752Y-102891118D01*
X205611253Y-102778866D01*
X205615675Y-102773955D01*
X205734621Y-102641852D01*
X205734622Y-102641851D01*
X205739040Y-102636944D01*
X205834527Y-102471556D01*
X205893542Y-102289928D01*
X205913504Y-102100000D01*
X205900383Y-101975159D01*
X205894232Y-101916635D01*
X205894232Y-101916633D01*
X205893542Y-101910072D01*
X205834527Y-101728444D01*
X205809758Y-101685542D01*
X205797314Y-101663990D01*
X205739040Y-101563056D01*
X205665863Y-101481785D01*
X205635147Y-101417779D01*
X205633500Y-101397476D01*
X205633500Y-75110518D01*
X205634027Y-75099335D01*
X205635702Y-75091842D01*
X205633562Y-75023751D01*
X205633500Y-75019794D01*
X205633500Y-74991894D01*
X205632996Y-74987903D01*
X205632063Y-74976061D01*
X205630923Y-74939786D01*
X205630674Y-74931861D01*
X205628462Y-74924247D01*
X205628461Y-74924242D01*
X205625023Y-74912409D01*
X205621012Y-74893045D01*
X205619467Y-74880814D01*
X205618474Y-74872953D01*
X205615557Y-74865586D01*
X205615556Y-74865581D01*
X205602198Y-74831842D01*
X205598354Y-74820615D01*
X205588230Y-74785772D01*
X205586018Y-74778157D01*
X205579511Y-74767154D01*
X205562050Y-74698338D01*
X205562654Y-74689836D01*
X205562814Y-74688314D01*
X205563504Y-74681750D01*
X205543542Y-74491822D01*
X205484527Y-74310194D01*
X205389040Y-74144806D01*
X205261253Y-74002884D01*
X205106752Y-73890632D01*
X205100724Y-73887948D01*
X205100722Y-73887947D01*
X204938319Y-73815641D01*
X204938318Y-73815641D01*
X204932288Y-73812956D01*
X204838887Y-73793103D01*
X204751944Y-73774622D01*
X204751939Y-73774622D01*
X204745487Y-73773250D01*
X204554513Y-73773250D01*
X204548061Y-73774622D01*
X204548056Y-73774622D01*
X204461113Y-73793103D01*
X204367712Y-73812956D01*
X204361682Y-73815641D01*
X204361681Y-73815641D01*
X204199278Y-73887947D01*
X204199276Y-73887948D01*
X204193248Y-73890632D01*
X204038747Y-74002884D01*
X203910960Y-74144806D01*
X203815473Y-74310194D01*
X203756458Y-74491822D01*
X203736496Y-74681750D01*
X203756458Y-74871678D01*
X203815473Y-75053306D01*
X203910960Y-75218694D01*
X204038747Y-75360616D01*
X204193248Y-75472868D01*
X204291749Y-75516723D01*
X204345845Y-75562703D01*
X204366500Y-75631830D01*
X204366500Y-98931905D01*
X204346498Y-99000026D01*
X204292842Y-99046519D01*
X204222568Y-99056623D01*
X204157988Y-99027129D01*
X204146864Y-99016215D01*
X204132288Y-99000026D01*
X204061253Y-98921134D01*
X203906752Y-98808882D01*
X203900724Y-98806198D01*
X203900722Y-98806197D01*
X203738319Y-98733891D01*
X203738318Y-98733891D01*
X203732288Y-98731206D01*
X203638888Y-98711353D01*
X203551944Y-98692872D01*
X203551939Y-98692872D01*
X203545487Y-98691500D01*
X203354513Y-98691500D01*
X203348061Y-98692872D01*
X203348056Y-98692872D01*
X203261113Y-98711353D01*
X203167712Y-98731206D01*
X203161682Y-98733891D01*
X203161681Y-98733891D01*
X202999278Y-98806197D01*
X202999276Y-98806198D01*
X202993248Y-98808882D01*
X202838747Y-98921134D01*
X202834326Y-98926044D01*
X202834325Y-98926045D01*
X202792473Y-98972527D01*
X202710960Y-99063056D01*
X202615473Y-99228444D01*
X202556458Y-99410072D01*
X202536496Y-99600000D01*
X202556458Y-99789928D01*
X202615473Y-99971556D01*
X202710960Y-100136944D01*
X202715380Y-100141853D01*
X202715383Y-100141857D01*
X202734135Y-100162683D01*
X202764853Y-100226690D01*
X202766500Y-100246994D01*
X202766500Y-101397476D01*
X202746498Y-101465597D01*
X202734142Y-101481779D01*
X202660960Y-101563056D01*
X202602686Y-101663990D01*
X202590243Y-101685542D01*
X202565473Y-101728444D01*
X202506458Y-101910072D01*
X202505768Y-101916633D01*
X202505768Y-101916635D01*
X202499617Y-101975159D01*
X202486496Y-102100000D01*
X200818750Y-102100000D01*
X200818750Y-65087500D01*
X210418085Y-65087500D01*
X210436715Y-65324211D01*
X210437869Y-65329018D01*
X210437870Y-65329024D01*
X210467851Y-65453901D01*
X210492145Y-65555094D01*
X210583010Y-65774463D01*
X210585596Y-65778683D01*
X210704491Y-65972702D01*
X210704495Y-65972708D01*
X210707074Y-65976916D01*
X210861281Y-66157469D01*
X211041834Y-66311676D01*
X211046042Y-66314255D01*
X211046048Y-66314259D01*
X211240067Y-66433154D01*
X211244287Y-66435740D01*
X211248857Y-66437633D01*
X211248861Y-66437635D01*
X211459083Y-66524711D01*
X211463656Y-66526605D01*
X211543859Y-66545860D01*
X211689726Y-66580880D01*
X211689732Y-66580881D01*
X211694539Y-66582035D01*
X211931250Y-66600665D01*
X212167961Y-66582035D01*
X212172768Y-66580881D01*
X212172774Y-66580880D01*
X212318641Y-66545860D01*
X212398844Y-66526605D01*
X212403417Y-66524711D01*
X212613639Y-66437635D01*
X212613643Y-66437633D01*
X212618213Y-66435740D01*
X212622433Y-66433154D01*
X212816452Y-66314259D01*
X212816458Y-66314255D01*
X212820666Y-66311676D01*
X213001219Y-66157469D01*
X213155426Y-65976916D01*
X213158005Y-65972708D01*
X213158009Y-65972702D01*
X213276904Y-65778683D01*
X213279490Y-65774463D01*
X213370355Y-65555094D01*
X213394649Y-65453901D01*
X213424630Y-65329024D01*
X213424631Y-65329018D01*
X213425785Y-65324211D01*
X213444415Y-65087500D01*
X213425785Y-64850789D01*
X213417831Y-64817655D01*
X213371510Y-64624718D01*
X213370355Y-64619906D01*
X213279490Y-64400537D01*
X213276904Y-64396317D01*
X213158009Y-64202298D01*
X213158005Y-64202292D01*
X213155426Y-64198084D01*
X213001219Y-64017531D01*
X212820666Y-63863324D01*
X212816458Y-63860745D01*
X212816452Y-63860741D01*
X212622433Y-63741846D01*
X212618213Y-63739260D01*
X212613643Y-63737367D01*
X212613639Y-63737365D01*
X212403417Y-63650289D01*
X212403415Y-63650288D01*
X212398844Y-63648395D01*
X212318641Y-63629140D01*
X212172774Y-63594120D01*
X212172768Y-63594119D01*
X212167961Y-63592965D01*
X211931250Y-63574335D01*
X211694539Y-63592965D01*
X211689732Y-63594119D01*
X211689726Y-63594120D01*
X211543859Y-63629140D01*
X211463656Y-63648395D01*
X211459085Y-63650288D01*
X211459083Y-63650289D01*
X211248861Y-63737365D01*
X211248857Y-63737367D01*
X211244287Y-63739260D01*
X211240067Y-63741846D01*
X211046048Y-63860741D01*
X211046042Y-63860745D01*
X211041834Y-63863324D01*
X210861281Y-64017531D01*
X210707074Y-64198084D01*
X210704495Y-64202292D01*
X210704491Y-64202298D01*
X210585596Y-64396317D01*
X210583010Y-64400537D01*
X210492145Y-64619906D01*
X210490990Y-64624718D01*
X210444670Y-64817655D01*
X210436715Y-64850789D01*
X210418558Y-65081495D01*
X210418085Y-65087500D01*
X200818750Y-65087500D01*
X200818750Y-61753250D01*
X200838752Y-61685129D01*
X200892408Y-61638636D01*
X200944750Y-61627250D01*
X215850633Y-61627250D01*
X215870018Y-61628750D01*
G37*
G04 #@! TD.AperFunction*
G04 #@! TA.AperFunction,Conductor*
G36*
X143610871Y-61647252D02*
G01*
X143657364Y-61700908D01*
X143668750Y-61753250D01*
X143668750Y-136684250D01*
X143648748Y-136752371D01*
X143595092Y-136798864D01*
X143542750Y-136810250D01*
X128636867Y-136810250D01*
X128617482Y-136808750D01*
X128602649Y-136806440D01*
X128602645Y-136806440D01*
X128593776Y-136805059D01*
X128577488Y-136807189D01*
X128552910Y-136807983D01*
X128508301Y-136805059D01*
X128351299Y-136794768D01*
X128334959Y-136792617D01*
X128110897Y-136748049D01*
X128094976Y-136743783D01*
X127878649Y-136670349D01*
X127863423Y-136664042D01*
X127658533Y-136563002D01*
X127644259Y-136554761D01*
X127454312Y-136427842D01*
X127441237Y-136417809D01*
X127269476Y-136267179D01*
X127257821Y-136255524D01*
X127107191Y-136083763D01*
X127097158Y-136070688D01*
X126970239Y-135880741D01*
X126961998Y-135866467D01*
X126860958Y-135661577D01*
X126854651Y-135646351D01*
X126781217Y-135430024D01*
X126776951Y-135414103D01*
X126732383Y-135190041D01*
X126730232Y-135173701D01*
X126717726Y-134982907D01*
X126718900Y-134959732D01*
X126718584Y-134959704D01*
X126719020Y-134954844D01*
X126719826Y-134950052D01*
X126719979Y-134937500D01*
X126716023Y-134909876D01*
X126714750Y-134892014D01*
X126714750Y-133350000D01*
X131043085Y-133350000D01*
X131061715Y-133586711D01*
X131062869Y-133591518D01*
X131062870Y-133591524D01*
X131092851Y-133716401D01*
X131117145Y-133817594D01*
X131208010Y-134036963D01*
X131210596Y-134041183D01*
X131329491Y-134235202D01*
X131329495Y-134235208D01*
X131332074Y-134239416D01*
X131486281Y-134419969D01*
X131666834Y-134574176D01*
X131671042Y-134576755D01*
X131671048Y-134576759D01*
X131865067Y-134695654D01*
X131869287Y-134698240D01*
X131873857Y-134700133D01*
X131873861Y-134700135D01*
X132084083Y-134787211D01*
X132088656Y-134789105D01*
X132168859Y-134808360D01*
X132314726Y-134843380D01*
X132314732Y-134843381D01*
X132319539Y-134844535D01*
X132556250Y-134863165D01*
X132792961Y-134844535D01*
X132797768Y-134843381D01*
X132797774Y-134843380D01*
X132943641Y-134808360D01*
X133023844Y-134789105D01*
X133028417Y-134787211D01*
X133238639Y-134700135D01*
X133238643Y-134700133D01*
X133243213Y-134698240D01*
X133247433Y-134695654D01*
X133441452Y-134576759D01*
X133441458Y-134576755D01*
X133445666Y-134574176D01*
X133626219Y-134419969D01*
X133780426Y-134239416D01*
X133783005Y-134235208D01*
X133783009Y-134235202D01*
X133901904Y-134041183D01*
X133904490Y-134036963D01*
X133995355Y-133817594D01*
X134019649Y-133716401D01*
X134049630Y-133591524D01*
X134049631Y-133591518D01*
X134050785Y-133586711D01*
X134069415Y-133350000D01*
X134050785Y-133113289D01*
X134042831Y-133080155D01*
X133996510Y-132887218D01*
X133995355Y-132882406D01*
X133904490Y-132663037D01*
X133901904Y-132658817D01*
X133783009Y-132464798D01*
X133783005Y-132464792D01*
X133780426Y-132460584D01*
X133626219Y-132280031D01*
X133445666Y-132125824D01*
X133441458Y-132123245D01*
X133441452Y-132123241D01*
X133247433Y-132004346D01*
X133243213Y-132001760D01*
X133238643Y-131999867D01*
X133238639Y-131999865D01*
X133028417Y-131912789D01*
X133028415Y-131912788D01*
X133023844Y-131910895D01*
X132943641Y-131891640D01*
X132797774Y-131856620D01*
X132797768Y-131856619D01*
X132792961Y-131855465D01*
X132556250Y-131836835D01*
X132319539Y-131855465D01*
X132314732Y-131856619D01*
X132314726Y-131856620D01*
X132168859Y-131891640D01*
X132088656Y-131910895D01*
X132084085Y-131912788D01*
X132084083Y-131912789D01*
X131873861Y-131999865D01*
X131873857Y-131999867D01*
X131869287Y-132001760D01*
X131865067Y-132004346D01*
X131671048Y-132123241D01*
X131671042Y-132123245D01*
X131666834Y-132125824D01*
X131486281Y-132280031D01*
X131332074Y-132460584D01*
X131329495Y-132464792D01*
X131329491Y-132464798D01*
X131210596Y-132658817D01*
X131208010Y-132663037D01*
X131117145Y-132882406D01*
X131115990Y-132887218D01*
X131069670Y-133080155D01*
X131061715Y-133113289D01*
X131043558Y-133343995D01*
X131043085Y-133350000D01*
X126714750Y-133350000D01*
X126714750Y-110595445D01*
X128722251Y-110595445D01*
X128735110Y-110818465D01*
X128736247Y-110823511D01*
X128736248Y-110823517D01*
X128749597Y-110882750D01*
X128784222Y-111036389D01*
X128868266Y-111243366D01*
X128984987Y-111433838D01*
X129131250Y-111602688D01*
X129303126Y-111745382D01*
X129496000Y-111858088D01*
X129704692Y-111937780D01*
X129709760Y-111938811D01*
X129709763Y-111938812D01*
X129804862Y-111958160D01*
X129923597Y-111982317D01*
X129928772Y-111982507D01*
X129928774Y-111982507D01*
X130141673Y-111990314D01*
X130141677Y-111990314D01*
X130146837Y-111990503D01*
X130151957Y-111989847D01*
X130151959Y-111989847D01*
X130363288Y-111962775D01*
X130363289Y-111962775D01*
X130368416Y-111962118D01*
X130373366Y-111960633D01*
X130577429Y-111899411D01*
X130577434Y-111899409D01*
X130582384Y-111897924D01*
X130782994Y-111799646D01*
X130964860Y-111669923D01*
X131123096Y-111512239D01*
X131182594Y-111429439D01*
X131253453Y-111330827D01*
X131254640Y-111331680D01*
X131301960Y-111288112D01*
X131371897Y-111275895D01*
X131437338Y-111303428D01*
X131465166Y-111335261D01*
X131522694Y-111429138D01*
X131528777Y-111437449D01*
X131668213Y-111598417D01*
X131675580Y-111605633D01*
X131839434Y-111741666D01*
X131847881Y-111747581D01*
X132031756Y-111855029D01*
X132041042Y-111859479D01*
X132240001Y-111935453D01*
X132249899Y-111938329D01*
X132353250Y-111959356D01*
X132367299Y-111958160D01*
X132371000Y-111947815D01*
X132371000Y-111947267D01*
X132879000Y-111947267D01*
X132883064Y-111961109D01*
X132896478Y-111963143D01*
X132903184Y-111962284D01*
X132913262Y-111960142D01*
X133117255Y-111898941D01*
X133126842Y-111895183D01*
X133318095Y-111801489D01*
X133326945Y-111796214D01*
X133500328Y-111672542D01*
X133508200Y-111665889D01*
X133659052Y-111515562D01*
X133665730Y-111507715D01*
X133790003Y-111334770D01*
X133795313Y-111325933D01*
X133889670Y-111135017D01*
X133893469Y-111125422D01*
X133955377Y-110921660D01*
X133957555Y-110911587D01*
X133958986Y-110900712D01*
X133956775Y-110886528D01*
X133943617Y-110882750D01*
X132897115Y-110882750D01*
X132881876Y-110887225D01*
X132880671Y-110888615D01*
X132879000Y-110896298D01*
X132879000Y-111947267D01*
X132371000Y-111947267D01*
X132371000Y-110500750D01*
X132391002Y-110432629D01*
X132444658Y-110386136D01*
X132497000Y-110374750D01*
X133943344Y-110374750D01*
X133956875Y-110370777D01*
X133958180Y-110361697D01*
X133916214Y-110194625D01*
X133912894Y-110184874D01*
X133827972Y-109989564D01*
X133823105Y-109980489D01*
X133707426Y-109801676D01*
X133701136Y-109793507D01*
X133557806Y-109635990D01*
X133550273Y-109628965D01*
X133383139Y-109496972D01*
X133374556Y-109491270D01*
X133337602Y-109470870D01*
X133287631Y-109420437D01*
X133272859Y-109350995D01*
X133297975Y-109284589D01*
X133325327Y-109257982D01*
X133348797Y-109241241D01*
X133504860Y-109129923D01*
X133663096Y-108972239D01*
X133722594Y-108889439D01*
X133790435Y-108795027D01*
X133793453Y-108790827D01*
X133814320Y-108748607D01*
X133890136Y-108595203D01*
X133890137Y-108595201D01*
X133892430Y-108590561D01*
X133957370Y-108376819D01*
X133986529Y-108155340D01*
X133988156Y-108088750D01*
X133969852Y-107866111D01*
X133915431Y-107649452D01*
X133826354Y-107444590D01*
X133705014Y-107257027D01*
X133554670Y-107091801D01*
X133550619Y-107088602D01*
X133550615Y-107088598D01*
X133383414Y-106956550D01*
X133383410Y-106956548D01*
X133379359Y-106953348D01*
X133338053Y-106930546D01*
X133288084Y-106880114D01*
X133273312Y-106810671D01*
X133298428Y-106744266D01*
X133325780Y-106717659D01*
X133369603Y-106686400D01*
X133504860Y-106589923D01*
X133663096Y-106432239D01*
X133722594Y-106349439D01*
X133790435Y-106255027D01*
X133793453Y-106250827D01*
X133814320Y-106208607D01*
X133890136Y-106055203D01*
X133890137Y-106055201D01*
X133892430Y-106050561D01*
X133957370Y-105836819D01*
X133986529Y-105615340D01*
X133988156Y-105548750D01*
X133969852Y-105326111D01*
X133915431Y-105109452D01*
X133826354Y-104904590D01*
X133705014Y-104717027D01*
X133554670Y-104551801D01*
X133550619Y-104548602D01*
X133550615Y-104548598D01*
X133383414Y-104416550D01*
X133383410Y-104416548D01*
X133379359Y-104413348D01*
X133338053Y-104390546D01*
X133288084Y-104340114D01*
X133273312Y-104270671D01*
X133298428Y-104204266D01*
X133325780Y-104177659D01*
X133369603Y-104146400D01*
X133504860Y-104049923D01*
X133663096Y-103892239D01*
X133722594Y-103809439D01*
X133790435Y-103715027D01*
X133793453Y-103710827D01*
X133814320Y-103668607D01*
X133890136Y-103515203D01*
X133890137Y-103515201D01*
X133892430Y-103510561D01*
X133957370Y-103296819D01*
X133986529Y-103075340D01*
X133988156Y-103008750D01*
X133969852Y-102786111D01*
X133915431Y-102569452D01*
X133826354Y-102364590D01*
X133705014Y-102177027D01*
X133554670Y-102011801D01*
X133550619Y-102008602D01*
X133550615Y-102008598D01*
X133383414Y-101876550D01*
X133383410Y-101876548D01*
X133379359Y-101873348D01*
X133338053Y-101850546D01*
X133288084Y-101800114D01*
X133273312Y-101730671D01*
X133298428Y-101664266D01*
X133325780Y-101637659D01*
X133369603Y-101606400D01*
X133504860Y-101509923D01*
X133663096Y-101352239D01*
X133722594Y-101269439D01*
X133790435Y-101175027D01*
X133793453Y-101170827D01*
X133814320Y-101128607D01*
X133890136Y-100975203D01*
X133890137Y-100975201D01*
X133892430Y-100970561D01*
X133957370Y-100756819D01*
X133986529Y-100535340D01*
X133988156Y-100468750D01*
X133969852Y-100246111D01*
X133915431Y-100029452D01*
X133826354Y-99824590D01*
X133705014Y-99637027D01*
X133554670Y-99471801D01*
X133550619Y-99468602D01*
X133550615Y-99468598D01*
X133383414Y-99336550D01*
X133383410Y-99336548D01*
X133379359Y-99333348D01*
X133338053Y-99310546D01*
X133288084Y-99260114D01*
X133273312Y-99190671D01*
X133298428Y-99124266D01*
X133325780Y-99097659D01*
X133369603Y-99066400D01*
X133504860Y-98969923D01*
X133663096Y-98812239D01*
X133722594Y-98729439D01*
X133790435Y-98635027D01*
X133793453Y-98630827D01*
X133814320Y-98588607D01*
X133890136Y-98435203D01*
X133890137Y-98435201D01*
X133892430Y-98430561D01*
X133957370Y-98216819D01*
X133986529Y-97995340D01*
X133988156Y-97928750D01*
X133969852Y-97706111D01*
X133915431Y-97489452D01*
X133826354Y-97284590D01*
X133705014Y-97097027D01*
X133554670Y-96931801D01*
X133550619Y-96928602D01*
X133550615Y-96928598D01*
X133383414Y-96796550D01*
X133383410Y-96796548D01*
X133379359Y-96793348D01*
X133338053Y-96770546D01*
X133288084Y-96720114D01*
X133273312Y-96650671D01*
X133298428Y-96584266D01*
X133325780Y-96557659D01*
X133369603Y-96526400D01*
X133504860Y-96429923D01*
X133663096Y-96272239D01*
X133722594Y-96189439D01*
X133790435Y-96095027D01*
X133793453Y-96090827D01*
X133814320Y-96048607D01*
X133890136Y-95895203D01*
X133890137Y-95895201D01*
X133892430Y-95890561D01*
X133957370Y-95676819D01*
X133986529Y-95455340D01*
X133988156Y-95388750D01*
X133969852Y-95166111D01*
X133915431Y-94949452D01*
X133826354Y-94744590D01*
X133705014Y-94557027D01*
X133554670Y-94391801D01*
X133550619Y-94388602D01*
X133550615Y-94388598D01*
X133383414Y-94256550D01*
X133383410Y-94256548D01*
X133379359Y-94253348D01*
X133338053Y-94230546D01*
X133288084Y-94180114D01*
X133273312Y-94110671D01*
X133298428Y-94044266D01*
X133325780Y-94017659D01*
X133369603Y-93986400D01*
X133504860Y-93889923D01*
X133663096Y-93732239D01*
X133722594Y-93649439D01*
X133790435Y-93555027D01*
X133793453Y-93550827D01*
X133814320Y-93508607D01*
X133890136Y-93355203D01*
X133890137Y-93355201D01*
X133892430Y-93350561D01*
X133957370Y-93136819D01*
X133986529Y-92915340D01*
X133988156Y-92848750D01*
X133969852Y-92626111D01*
X133915431Y-92409452D01*
X133826354Y-92204590D01*
X133705014Y-92017027D01*
X133554670Y-91851801D01*
X133550619Y-91848602D01*
X133550615Y-91848598D01*
X133383414Y-91716550D01*
X133383410Y-91716548D01*
X133379359Y-91713348D01*
X133338053Y-91690546D01*
X133288084Y-91640114D01*
X133273312Y-91570671D01*
X133298428Y-91504266D01*
X133325780Y-91477659D01*
X133369603Y-91446400D01*
X133504860Y-91349923D01*
X133663096Y-91192239D01*
X133722594Y-91109439D01*
X133790435Y-91015027D01*
X133793453Y-91010827D01*
X133814320Y-90968607D01*
X133890136Y-90815203D01*
X133890137Y-90815201D01*
X133892430Y-90810561D01*
X133957370Y-90596819D01*
X133986529Y-90375340D01*
X133988156Y-90308750D01*
X133969852Y-90086111D01*
X133915431Y-89869452D01*
X133826354Y-89664590D01*
X133705014Y-89477027D01*
X133701532Y-89473200D01*
X133557798Y-89315238D01*
X133526746Y-89251392D01*
X133535141Y-89180893D01*
X133580317Y-89126125D01*
X133606761Y-89112456D01*
X133713297Y-89072517D01*
X133721705Y-89069365D01*
X133838261Y-88982011D01*
X133925615Y-88865455D01*
X133976745Y-88729066D01*
X133983500Y-88666884D01*
X133983500Y-86870616D01*
X133976745Y-86808434D01*
X133925615Y-86672045D01*
X133838261Y-86555489D01*
X133721705Y-86468135D01*
X133585316Y-86417005D01*
X133523134Y-86410250D01*
X131726866Y-86410250D01*
X131664684Y-86417005D01*
X131528295Y-86468135D01*
X131411739Y-86555489D01*
X131324385Y-86672045D01*
X131321233Y-86680453D01*
X131279919Y-86790657D01*
X131237277Y-86847421D01*
X131170716Y-86872121D01*
X131101367Y-86856913D01*
X131068743Y-86831226D01*
X131018151Y-86775625D01*
X131018142Y-86775616D01*
X131014670Y-86771801D01*
X131010619Y-86768602D01*
X131010615Y-86768598D01*
X130843414Y-86636550D01*
X130843410Y-86636548D01*
X130839359Y-86633348D01*
X130643789Y-86525388D01*
X130638920Y-86523664D01*
X130638916Y-86523662D01*
X130438087Y-86452545D01*
X130438083Y-86452544D01*
X130433212Y-86450819D01*
X130428119Y-86449912D01*
X130428116Y-86449911D01*
X130218373Y-86412550D01*
X130218367Y-86412549D01*
X130213284Y-86411644D01*
X130139452Y-86410742D01*
X129995081Y-86408978D01*
X129995079Y-86408978D01*
X129989911Y-86408915D01*
X129769091Y-86442705D01*
X129556756Y-86512107D01*
X129358607Y-86615257D01*
X129354474Y-86618360D01*
X129354471Y-86618362D01*
X129184100Y-86746280D01*
X129179965Y-86749385D01*
X129140525Y-86790657D01*
X129086280Y-86847421D01*
X129025629Y-86910888D01*
X128899743Y-87095430D01*
X128805688Y-87298055D01*
X128745989Y-87513320D01*
X128722251Y-87735445D01*
X128735110Y-87958465D01*
X128736247Y-87963511D01*
X128736248Y-87963517D01*
X128760304Y-88070258D01*
X128784222Y-88176389D01*
X128868266Y-88383366D01*
X128984987Y-88573838D01*
X129131250Y-88742688D01*
X129303126Y-88885382D01*
X129373595Y-88926561D01*
X129376445Y-88928226D01*
X129425169Y-88979864D01*
X129438240Y-89049647D01*
X129411509Y-89115419D01*
X129371055Y-89148777D01*
X129358607Y-89155257D01*
X129354474Y-89158360D01*
X129354471Y-89158362D01*
X129230567Y-89251392D01*
X129179965Y-89289385D01*
X129025629Y-89450888D01*
X128899743Y-89635430D01*
X128805688Y-89838055D01*
X128745989Y-90053320D01*
X128722251Y-90275445D01*
X128722548Y-90280598D01*
X128722548Y-90280601D01*
X128728011Y-90375340D01*
X128735110Y-90498465D01*
X128736247Y-90503511D01*
X128736248Y-90503517D01*
X128756119Y-90591689D01*
X128784222Y-90716389D01*
X128868266Y-90923366D01*
X128919019Y-91006188D01*
X128982291Y-91109438D01*
X128984987Y-91113838D01*
X129131250Y-91282688D01*
X129303126Y-91425382D01*
X129373595Y-91466561D01*
X129376445Y-91468226D01*
X129425169Y-91519864D01*
X129438240Y-91589647D01*
X129411509Y-91655419D01*
X129371055Y-91688777D01*
X129358607Y-91695257D01*
X129354474Y-91698360D01*
X129354471Y-91698362D01*
X129330247Y-91716550D01*
X129179965Y-91829385D01*
X129025629Y-91990888D01*
X128899743Y-92175430D01*
X128805688Y-92378055D01*
X128745989Y-92593320D01*
X128722251Y-92815445D01*
X128722548Y-92820598D01*
X128722548Y-92820601D01*
X128728011Y-92915340D01*
X128735110Y-93038465D01*
X128736247Y-93043511D01*
X128736248Y-93043517D01*
X128756119Y-93131689D01*
X128784222Y-93256389D01*
X128868266Y-93463366D01*
X128919019Y-93546188D01*
X128982291Y-93649438D01*
X128984987Y-93653838D01*
X129131250Y-93822688D01*
X129303126Y-93965382D01*
X129373595Y-94006561D01*
X129376445Y-94008226D01*
X129425169Y-94059864D01*
X129438240Y-94129647D01*
X129411509Y-94195419D01*
X129371055Y-94228777D01*
X129358607Y-94235257D01*
X129354474Y-94238360D01*
X129354471Y-94238362D01*
X129330247Y-94256550D01*
X129179965Y-94369385D01*
X129025629Y-94530888D01*
X128899743Y-94715430D01*
X128805688Y-94918055D01*
X128745989Y-95133320D01*
X128722251Y-95355445D01*
X128722548Y-95360598D01*
X128722548Y-95360601D01*
X128728011Y-95455340D01*
X128735110Y-95578465D01*
X128736247Y-95583511D01*
X128736248Y-95583517D01*
X128756119Y-95671689D01*
X128784222Y-95796389D01*
X128868266Y-96003366D01*
X128919019Y-96086188D01*
X128982291Y-96189438D01*
X128984987Y-96193838D01*
X129131250Y-96362688D01*
X129303126Y-96505382D01*
X129373595Y-96546561D01*
X129376445Y-96548226D01*
X129425169Y-96599864D01*
X129438240Y-96669647D01*
X129411509Y-96735419D01*
X129371055Y-96768777D01*
X129358607Y-96775257D01*
X129354474Y-96778360D01*
X129354471Y-96778362D01*
X129330247Y-96796550D01*
X129179965Y-96909385D01*
X129025629Y-97070888D01*
X128899743Y-97255430D01*
X128805688Y-97458055D01*
X128745989Y-97673320D01*
X128722251Y-97895445D01*
X128722548Y-97900598D01*
X128722548Y-97900601D01*
X128728011Y-97995340D01*
X128735110Y-98118465D01*
X128736247Y-98123511D01*
X128736248Y-98123517D01*
X128756119Y-98211689D01*
X128784222Y-98336389D01*
X128868266Y-98543366D01*
X128919019Y-98626188D01*
X128982291Y-98729438D01*
X128984987Y-98733838D01*
X129131250Y-98902688D01*
X129303126Y-99045382D01*
X129373595Y-99086561D01*
X129376445Y-99088226D01*
X129425169Y-99139864D01*
X129438240Y-99209647D01*
X129411509Y-99275419D01*
X129371055Y-99308777D01*
X129358607Y-99315257D01*
X129354474Y-99318360D01*
X129354471Y-99318362D01*
X129330247Y-99336550D01*
X129179965Y-99449385D01*
X129025629Y-99610888D01*
X128899743Y-99795430D01*
X128805688Y-99998055D01*
X128745989Y-100213320D01*
X128722251Y-100435445D01*
X128722548Y-100440598D01*
X128722548Y-100440601D01*
X128728011Y-100535340D01*
X128735110Y-100658465D01*
X128736247Y-100663511D01*
X128736248Y-100663517D01*
X128756119Y-100751689D01*
X128784222Y-100876389D01*
X128868266Y-101083366D01*
X128919019Y-101166188D01*
X128982291Y-101269438D01*
X128984987Y-101273838D01*
X129131250Y-101442688D01*
X129303126Y-101585382D01*
X129373595Y-101626561D01*
X129376445Y-101628226D01*
X129425169Y-101679864D01*
X129438240Y-101749647D01*
X129411509Y-101815419D01*
X129371055Y-101848777D01*
X129358607Y-101855257D01*
X129354474Y-101858360D01*
X129354471Y-101858362D01*
X129330247Y-101876550D01*
X129179965Y-101989385D01*
X129025629Y-102150888D01*
X128899743Y-102335430D01*
X128805688Y-102538055D01*
X128745989Y-102753320D01*
X128722251Y-102975445D01*
X128722548Y-102980598D01*
X128722548Y-102980601D01*
X128728011Y-103075340D01*
X128735110Y-103198465D01*
X128736247Y-103203511D01*
X128736248Y-103203517D01*
X128756119Y-103291689D01*
X128784222Y-103416389D01*
X128868266Y-103623366D01*
X128919019Y-103706188D01*
X128982291Y-103809438D01*
X128984987Y-103813838D01*
X129131250Y-103982688D01*
X129303126Y-104125382D01*
X129373595Y-104166561D01*
X129376445Y-104168226D01*
X129425169Y-104219864D01*
X129438240Y-104289647D01*
X129411509Y-104355419D01*
X129371055Y-104388777D01*
X129358607Y-104395257D01*
X129354474Y-104398360D01*
X129354471Y-104398362D01*
X129330247Y-104416550D01*
X129179965Y-104529385D01*
X129025629Y-104690888D01*
X128899743Y-104875430D01*
X128805688Y-105078055D01*
X128745989Y-105293320D01*
X128722251Y-105515445D01*
X128722548Y-105520598D01*
X128722548Y-105520601D01*
X128728011Y-105615340D01*
X128735110Y-105738465D01*
X128736247Y-105743511D01*
X128736248Y-105743517D01*
X128756119Y-105831689D01*
X128784222Y-105956389D01*
X128868266Y-106163366D01*
X128919019Y-106246188D01*
X128982291Y-106349438D01*
X128984987Y-106353838D01*
X129131250Y-106522688D01*
X129303126Y-106665382D01*
X129373595Y-106706561D01*
X129376445Y-106708226D01*
X129425169Y-106759864D01*
X129438240Y-106829647D01*
X129411509Y-106895419D01*
X129371055Y-106928777D01*
X129358607Y-106935257D01*
X129354474Y-106938360D01*
X129354471Y-106938362D01*
X129330247Y-106956550D01*
X129179965Y-107069385D01*
X129025629Y-107230888D01*
X128899743Y-107415430D01*
X128805688Y-107618055D01*
X128745989Y-107833320D01*
X128722251Y-108055445D01*
X128722548Y-108060598D01*
X128722548Y-108060601D01*
X128728011Y-108155340D01*
X128735110Y-108278465D01*
X128736247Y-108283511D01*
X128736248Y-108283517D01*
X128756119Y-108371689D01*
X128784222Y-108496389D01*
X128868266Y-108703366D01*
X128919019Y-108786188D01*
X128982291Y-108889438D01*
X128984987Y-108893838D01*
X129131250Y-109062688D01*
X129303126Y-109205382D01*
X129373595Y-109246561D01*
X129376445Y-109248226D01*
X129425169Y-109299864D01*
X129438240Y-109369647D01*
X129411509Y-109435419D01*
X129371055Y-109468777D01*
X129358607Y-109475257D01*
X129354474Y-109478360D01*
X129354471Y-109478362D01*
X129330247Y-109496550D01*
X129179965Y-109609385D01*
X129025629Y-109770888D01*
X128899743Y-109955430D01*
X128805688Y-110158055D01*
X128745989Y-110373320D01*
X128722251Y-110595445D01*
X126714750Y-110595445D01*
X126714750Y-65087500D01*
X131043085Y-65087500D01*
X131061715Y-65324211D01*
X131062869Y-65329018D01*
X131062870Y-65329024D01*
X131092851Y-65453901D01*
X131117145Y-65555094D01*
X131208010Y-65774463D01*
X131210596Y-65778683D01*
X131329491Y-65972702D01*
X131329495Y-65972708D01*
X131332074Y-65976916D01*
X131486281Y-66157469D01*
X131666834Y-66311676D01*
X131671042Y-66314255D01*
X131671048Y-66314259D01*
X131865067Y-66433154D01*
X131869287Y-66435740D01*
X131873857Y-66437633D01*
X131873861Y-66437635D01*
X132084083Y-66524711D01*
X132088656Y-66526605D01*
X132168859Y-66545860D01*
X132314726Y-66580880D01*
X132314732Y-66580881D01*
X132319539Y-66582035D01*
X132556250Y-66600665D01*
X132792961Y-66582035D01*
X132797768Y-66580881D01*
X132797774Y-66580880D01*
X132943641Y-66545860D01*
X133023844Y-66526605D01*
X133028417Y-66524711D01*
X133238639Y-66437635D01*
X133238643Y-66437633D01*
X133243213Y-66435740D01*
X133247433Y-66433154D01*
X133441452Y-66314259D01*
X133441458Y-66314255D01*
X133445666Y-66311676D01*
X133626219Y-66157469D01*
X133780426Y-65976916D01*
X133783005Y-65972708D01*
X133783009Y-65972702D01*
X133901904Y-65778683D01*
X133904490Y-65774463D01*
X133995355Y-65555094D01*
X134019649Y-65453901D01*
X134049630Y-65329024D01*
X134049631Y-65329018D01*
X134050785Y-65324211D01*
X134069415Y-65087500D01*
X134050785Y-64850789D01*
X134042831Y-64817655D01*
X133996510Y-64624718D01*
X133995355Y-64619906D01*
X133904490Y-64400537D01*
X133901904Y-64396317D01*
X133783009Y-64202298D01*
X133783005Y-64202292D01*
X133780426Y-64198084D01*
X133626219Y-64017531D01*
X133445666Y-63863324D01*
X133441458Y-63860745D01*
X133441452Y-63860741D01*
X133247433Y-63741846D01*
X133243213Y-63739260D01*
X133238643Y-63737367D01*
X133238639Y-63737365D01*
X133028417Y-63650289D01*
X133028415Y-63650288D01*
X133023844Y-63648395D01*
X132943641Y-63629140D01*
X132797774Y-63594120D01*
X132797768Y-63594119D01*
X132792961Y-63592965D01*
X132556250Y-63574335D01*
X132319539Y-63592965D01*
X132314732Y-63594119D01*
X132314726Y-63594120D01*
X132168859Y-63629140D01*
X132088656Y-63648395D01*
X132084085Y-63650288D01*
X132084083Y-63650289D01*
X131873861Y-63737365D01*
X131873857Y-63737367D01*
X131869287Y-63739260D01*
X131865067Y-63741846D01*
X131671048Y-63860741D01*
X131671042Y-63860745D01*
X131666834Y-63863324D01*
X131486281Y-64017531D01*
X131332074Y-64198084D01*
X131329495Y-64202292D01*
X131329491Y-64202298D01*
X131210596Y-64396317D01*
X131208010Y-64400537D01*
X131117145Y-64619906D01*
X131115990Y-64624718D01*
X131069670Y-64817655D01*
X131061715Y-64850789D01*
X131043558Y-65081495D01*
X131043085Y-65087500D01*
X126714750Y-65087500D01*
X126714750Y-63553250D01*
X126716496Y-63532345D01*
X126719020Y-63517344D01*
X126719020Y-63517341D01*
X126719826Y-63512552D01*
X126719979Y-63500000D01*
X126718253Y-63487947D01*
X126717251Y-63461845D01*
X126730232Y-63263799D01*
X126732383Y-63247459D01*
X126776951Y-63023397D01*
X126781217Y-63007476D01*
X126854651Y-62791149D01*
X126860958Y-62775923D01*
X126961998Y-62571033D01*
X126970239Y-62556759D01*
X127097158Y-62366812D01*
X127107191Y-62353737D01*
X127257821Y-62181976D01*
X127269476Y-62170321D01*
X127441237Y-62019691D01*
X127454312Y-62009658D01*
X127644259Y-61882739D01*
X127658533Y-61874498D01*
X127863423Y-61773458D01*
X127878649Y-61767151D01*
X128094976Y-61693717D01*
X128110897Y-61689451D01*
X128334959Y-61644883D01*
X128351299Y-61642732D01*
X128482618Y-61634124D01*
X128545737Y-61629987D01*
X128568850Y-61631017D01*
X128572354Y-61631060D01*
X128581224Y-61632441D01*
X128590126Y-61631277D01*
X128590128Y-61631277D01*
X128606949Y-61629077D01*
X128612786Y-61628314D01*
X128629121Y-61627250D01*
X143542750Y-61627250D01*
X143610871Y-61647252D01*
G37*
G04 #@! TD.AperFunction*
M02*
