%TF.GenerationSoftware,KiCad,Pcbnew,(6.0.9)*%
%TF.CreationDate,2022-12-29T20:26:15-06:00*%
%TF.ProjectId,Navigation Keys,4e617669-6761-4746-996f-6e204b657973,rev?*%
%TF.SameCoordinates,Original*%
%TF.FileFunction,Drillmap*%
%TF.FilePolarity,Positive*%
%FSLAX45Y45*%
G04 Gerber Fmt 4.5, Leading zero omitted, Abs format (unit mm)*
G04 Created by KiCad (PCBNEW (6.0.9)) date 2022-12-29 20:26:15*
%MOMM*%
%LPD*%
G01*
G04 APERTURE LIST*
%ADD10C,0.150000*%
%ADD11C,0.200000*%
%ADD12C,0.175000*%
%ADD13C,0.398780*%
G04 APERTURE END LIST*
D10*
X20875625Y-6350000D02*
G75*
G03*
X20637500Y-6111875I-238125J0D01*
G01*
X13493755Y-13493750D02*
G75*
G03*
X13731875Y-13731875I238125J0D01*
G01*
X20875625Y-13493750D02*
X20875625Y-6350000D01*
X20637500Y-13731875D02*
G75*
G03*
X20875625Y-13493750I0J238125D01*
G01*
X20637500Y-6111875D02*
X13731875Y-6111875D01*
X13731875Y-6111870D02*
G75*
G03*
X13493750Y-6350000I5J-238130D01*
G01*
X13731875Y-13731875D02*
X20637500Y-13731875D01*
X13493750Y-6350000D02*
X13493750Y-13493750D01*
D11*
D12*
X14723875Y-6976875D02*
X14898875Y-7151875D01*
X14898875Y-6976875D02*
X14723875Y-7151875D01*
X14723875Y-8881875D02*
X14898875Y-9056875D01*
X14898875Y-8881875D02*
X14723875Y-9056875D01*
X14723875Y-12691875D02*
X14898875Y-12866875D01*
X14898875Y-12691875D02*
X14723875Y-12866875D01*
X15739875Y-6976875D02*
X15914875Y-7151875D01*
X15914875Y-6976875D02*
X15739875Y-7151875D01*
X15739875Y-8881875D02*
X15914875Y-9056875D01*
X15914875Y-8881875D02*
X15739875Y-9056875D01*
X15739875Y-12691875D02*
X15914875Y-12866875D01*
X15914875Y-12691875D02*
X15739875Y-12866875D01*
X16628875Y-6976875D02*
X16803875Y-7151875D01*
X16803875Y-6976875D02*
X16628875Y-7151875D01*
X16628875Y-8881875D02*
X16803875Y-9056875D01*
X16803875Y-8881875D02*
X16628875Y-9056875D01*
X16628875Y-10786875D02*
X16803875Y-10961875D01*
X16803875Y-10786875D02*
X16628875Y-10961875D01*
X16628875Y-12691875D02*
X16803875Y-12866875D01*
X16803875Y-12691875D02*
X16628875Y-12866875D01*
X17644875Y-6976875D02*
X17819875Y-7151875D01*
X17819875Y-6976875D02*
X17644875Y-7151875D01*
X17644875Y-8881875D02*
X17819875Y-9056875D01*
X17819875Y-8881875D02*
X17644875Y-9056875D01*
X17644875Y-10786875D02*
X17819875Y-10961875D01*
X17819875Y-10786875D02*
X17644875Y-10961875D01*
X17644875Y-12691875D02*
X17819875Y-12866875D01*
X17819875Y-12691875D02*
X17644875Y-12866875D01*
X18533875Y-6976875D02*
X18708875Y-7151875D01*
X18708875Y-6976875D02*
X18533875Y-7151875D01*
X18533875Y-8881875D02*
X18708875Y-9056875D01*
X18708875Y-8881875D02*
X18533875Y-9056875D01*
X18533875Y-12691875D02*
X18708875Y-12866875D01*
X18708875Y-12691875D02*
X18533875Y-12866875D01*
X19549875Y-6976875D02*
X19724875Y-7151875D01*
X19724875Y-6976875D02*
X19549875Y-7151875D01*
X19549875Y-8881875D02*
X19724875Y-9056875D01*
X19724875Y-8881875D02*
X19549875Y-9056875D01*
X19549875Y-12691875D02*
X19724875Y-12866875D01*
X19724875Y-12691875D02*
X19549875Y-12866875D01*
D13*
X15518765Y-7064375D02*
G75*
G03*
X15518765Y-7064375I-199390J0D01*
G01*
X15518765Y-8969375D02*
G75*
G03*
X15518765Y-8969375I-199390J0D01*
G01*
X15518765Y-12779375D02*
G75*
G03*
X15518765Y-12779375I-199390J0D01*
G01*
X17423765Y-7064375D02*
G75*
G03*
X17423765Y-7064375I-199390J0D01*
G01*
X17423765Y-8969375D02*
G75*
G03*
X17423765Y-8969375I-199390J0D01*
G01*
X17423765Y-10874375D02*
G75*
G03*
X17423765Y-10874375I-199390J0D01*
G01*
X17423765Y-12779375D02*
G75*
G03*
X17423765Y-12779375I-199390J0D01*
G01*
X19328765Y-7064375D02*
G75*
G03*
X19328765Y-7064375I-199390J0D01*
G01*
X19328765Y-8969375D02*
G75*
G03*
X19328765Y-8969375I-199390J0D01*
G01*
X19328765Y-12779375D02*
G75*
G03*
X19328765Y-12779375I-199390J0D01*
G01*
D11*
X13743869Y-14049851D02*
X13743869Y-13849851D01*
X13791488Y-13849851D01*
X13820059Y-13859375D01*
X13839107Y-13878423D01*
X13848631Y-13897470D01*
X13858155Y-13935565D01*
X13858155Y-13964137D01*
X13848631Y-14002232D01*
X13839107Y-14021280D01*
X13820059Y-14040327D01*
X13791488Y-14049851D01*
X13743869Y-14049851D01*
X13943869Y-14049851D02*
X13943869Y-13916518D01*
X13943869Y-13954613D02*
X13953393Y-13935565D01*
X13962917Y-13926042D01*
X13981964Y-13916518D01*
X14001012Y-13916518D01*
X14067678Y-14049851D02*
X14067678Y-13916518D01*
X14067678Y-13849851D02*
X14058155Y-13859375D01*
X14067678Y-13868899D01*
X14077202Y-13859375D01*
X14067678Y-13849851D01*
X14067678Y-13868899D01*
X14191488Y-14049851D02*
X14172440Y-14040327D01*
X14162917Y-14021280D01*
X14162917Y-13849851D01*
X14296250Y-14049851D02*
X14277202Y-14040327D01*
X14267678Y-14021280D01*
X14267678Y-13849851D01*
X14524821Y-14049851D02*
X14524821Y-13849851D01*
X14591488Y-13992708D01*
X14658155Y-13849851D01*
X14658155Y-14049851D01*
X14839107Y-14049851D02*
X14839107Y-13945089D01*
X14829583Y-13926042D01*
X14810536Y-13916518D01*
X14772440Y-13916518D01*
X14753393Y-13926042D01*
X14839107Y-14040327D02*
X14820059Y-14049851D01*
X14772440Y-14049851D01*
X14753393Y-14040327D01*
X14743869Y-14021280D01*
X14743869Y-14002232D01*
X14753393Y-13983184D01*
X14772440Y-13973661D01*
X14820059Y-13973661D01*
X14839107Y-13964137D01*
X14934345Y-13916518D02*
X14934345Y-14116518D01*
X14934345Y-13926042D02*
X14953393Y-13916518D01*
X14991488Y-13916518D01*
X15010536Y-13926042D01*
X15020059Y-13935565D01*
X15029583Y-13954613D01*
X15029583Y-14011756D01*
X15020059Y-14030803D01*
X15010536Y-14040327D01*
X14991488Y-14049851D01*
X14953393Y-14049851D01*
X14934345Y-14040327D01*
X15115298Y-14030803D02*
X15124821Y-14040327D01*
X15115298Y-14049851D01*
X15105774Y-14040327D01*
X15115298Y-14030803D01*
X15115298Y-14049851D01*
X15115298Y-13926042D02*
X15124821Y-13935565D01*
X15115298Y-13945089D01*
X15105774Y-13935565D01*
X15115298Y-13926042D01*
X15115298Y-13945089D01*
D12*
X13311250Y-14291875D02*
X13486250Y-14466875D01*
X13486250Y-14291875D02*
X13311250Y-14466875D01*
D11*
X13848631Y-14469851D02*
X13734345Y-14469851D01*
X13791488Y-14469851D02*
X13791488Y-14269851D01*
X13772440Y-14298423D01*
X13753393Y-14317470D01*
X13734345Y-14326994D01*
X13934345Y-14450803D02*
X13943869Y-14460327D01*
X13934345Y-14469851D01*
X13924821Y-14460327D01*
X13934345Y-14450803D01*
X13934345Y-14469851D01*
X14010536Y-14269851D02*
X14143869Y-14269851D01*
X14058155Y-14469851D01*
X14315298Y-14269851D02*
X14220059Y-14269851D01*
X14210536Y-14365089D01*
X14220059Y-14355565D01*
X14239107Y-14346042D01*
X14286726Y-14346042D01*
X14305774Y-14355565D01*
X14315298Y-14365089D01*
X14324821Y-14384137D01*
X14324821Y-14431756D01*
X14315298Y-14450803D01*
X14305774Y-14460327D01*
X14286726Y-14469851D01*
X14239107Y-14469851D01*
X14220059Y-14460327D01*
X14210536Y-14450803D01*
X14448631Y-14269851D02*
X14467678Y-14269851D01*
X14486726Y-14279375D01*
X14496250Y-14288899D01*
X14505774Y-14307946D01*
X14515298Y-14346042D01*
X14515298Y-14393661D01*
X14505774Y-14431756D01*
X14496250Y-14450803D01*
X14486726Y-14460327D01*
X14467678Y-14469851D01*
X14448631Y-14469851D01*
X14429583Y-14460327D01*
X14420059Y-14450803D01*
X14410536Y-14431756D01*
X14401012Y-14393661D01*
X14401012Y-14346042D01*
X14410536Y-14307946D01*
X14420059Y-14288899D01*
X14429583Y-14279375D01*
X14448631Y-14269851D01*
X14601012Y-14469851D02*
X14601012Y-14336518D01*
X14601012Y-14355565D02*
X14610536Y-14346042D01*
X14629583Y-14336518D01*
X14658155Y-14336518D01*
X14677202Y-14346042D01*
X14686726Y-14365089D01*
X14686726Y-14469851D01*
X14686726Y-14365089D02*
X14696250Y-14346042D01*
X14715298Y-14336518D01*
X14743869Y-14336518D01*
X14762917Y-14346042D01*
X14772440Y-14365089D01*
X14772440Y-14469851D01*
X14867678Y-14469851D02*
X14867678Y-14336518D01*
X14867678Y-14355565D02*
X14877202Y-14346042D01*
X14896250Y-14336518D01*
X14924821Y-14336518D01*
X14943869Y-14346042D01*
X14953393Y-14365089D01*
X14953393Y-14469851D01*
X14953393Y-14365089D02*
X14962917Y-14346042D01*
X14981964Y-14336518D01*
X15010536Y-14336518D01*
X15029583Y-14346042D01*
X15039107Y-14365089D01*
X15039107Y-14469851D01*
X15429583Y-14260327D02*
X15258155Y-14517470D01*
X15686726Y-14269851D02*
X15705774Y-14269851D01*
X15724821Y-14279375D01*
X15734345Y-14288899D01*
X15743869Y-14307946D01*
X15753393Y-14346042D01*
X15753393Y-14393661D01*
X15743869Y-14431756D01*
X15734345Y-14450803D01*
X15724821Y-14460327D01*
X15705774Y-14469851D01*
X15686726Y-14469851D01*
X15667678Y-14460327D01*
X15658155Y-14450803D01*
X15648631Y-14431756D01*
X15639107Y-14393661D01*
X15639107Y-14346042D01*
X15648631Y-14307946D01*
X15658155Y-14288899D01*
X15667678Y-14279375D01*
X15686726Y-14269851D01*
X15839107Y-14450803D02*
X15848631Y-14460327D01*
X15839107Y-14469851D01*
X15829583Y-14460327D01*
X15839107Y-14450803D01*
X15839107Y-14469851D01*
X15972440Y-14269851D02*
X15991488Y-14269851D01*
X16010536Y-14279375D01*
X16020059Y-14288899D01*
X16029583Y-14307946D01*
X16039107Y-14346042D01*
X16039107Y-14393661D01*
X16029583Y-14431756D01*
X16020059Y-14450803D01*
X16010536Y-14460327D01*
X15991488Y-14469851D01*
X15972440Y-14469851D01*
X15953393Y-14460327D01*
X15943869Y-14450803D01*
X15934345Y-14431756D01*
X15924821Y-14393661D01*
X15924821Y-14346042D01*
X15934345Y-14307946D01*
X15943869Y-14288899D01*
X15953393Y-14279375D01*
X15972440Y-14269851D01*
X16210536Y-14269851D02*
X16172440Y-14269851D01*
X16153393Y-14279375D01*
X16143869Y-14288899D01*
X16124821Y-14317470D01*
X16115298Y-14355565D01*
X16115298Y-14431756D01*
X16124821Y-14450803D01*
X16134345Y-14460327D01*
X16153393Y-14469851D01*
X16191488Y-14469851D01*
X16210536Y-14460327D01*
X16220059Y-14450803D01*
X16229583Y-14431756D01*
X16229583Y-14384137D01*
X16220059Y-14365089D01*
X16210536Y-14355565D01*
X16191488Y-14346042D01*
X16153393Y-14346042D01*
X16134345Y-14355565D01*
X16124821Y-14365089D01*
X16115298Y-14384137D01*
X16343869Y-14355565D02*
X16324821Y-14346042D01*
X16315298Y-14336518D01*
X16305774Y-14317470D01*
X16305774Y-14307946D01*
X16315298Y-14288899D01*
X16324821Y-14279375D01*
X16343869Y-14269851D01*
X16381964Y-14269851D01*
X16401012Y-14279375D01*
X16410536Y-14288899D01*
X16420059Y-14307946D01*
X16420059Y-14317470D01*
X16410536Y-14336518D01*
X16401012Y-14346042D01*
X16381964Y-14355565D01*
X16343869Y-14355565D01*
X16324821Y-14365089D01*
X16315298Y-14374613D01*
X16305774Y-14393661D01*
X16305774Y-14431756D01*
X16315298Y-14450803D01*
X16324821Y-14460327D01*
X16343869Y-14469851D01*
X16381964Y-14469851D01*
X16401012Y-14460327D01*
X16410536Y-14450803D01*
X16420059Y-14431756D01*
X16420059Y-14393661D01*
X16410536Y-14374613D01*
X16401012Y-14365089D01*
X16381964Y-14355565D01*
X16515298Y-14469851D02*
X16553393Y-14469851D01*
X16572440Y-14460327D01*
X16581964Y-14450803D01*
X16601012Y-14422232D01*
X16610536Y-14384137D01*
X16610536Y-14307946D01*
X16601012Y-14288899D01*
X16591488Y-14279375D01*
X16572440Y-14269851D01*
X16534345Y-14269851D01*
X16515298Y-14279375D01*
X16505774Y-14288899D01*
X16496250Y-14307946D01*
X16496250Y-14355565D01*
X16505774Y-14374613D01*
X16515298Y-14384137D01*
X16534345Y-14393661D01*
X16572440Y-14393661D01*
X16591488Y-14384137D01*
X16601012Y-14374613D01*
X16610536Y-14355565D01*
X16686726Y-14269851D02*
X16686726Y-14307946D01*
X16762917Y-14269851D02*
X16762917Y-14307946D01*
X17058155Y-14546042D02*
X17048631Y-14536518D01*
X17029583Y-14507946D01*
X17020060Y-14488899D01*
X17010536Y-14460327D01*
X17001012Y-14412708D01*
X17001012Y-14374613D01*
X17010536Y-14326994D01*
X17020060Y-14298423D01*
X17029583Y-14279375D01*
X17048631Y-14250803D01*
X17058155Y-14241280D01*
X17124821Y-14288899D02*
X17134345Y-14279375D01*
X17153393Y-14269851D01*
X17201012Y-14269851D01*
X17220060Y-14279375D01*
X17229583Y-14288899D01*
X17239107Y-14307946D01*
X17239107Y-14326994D01*
X17229583Y-14355565D01*
X17115298Y-14469851D01*
X17239107Y-14469851D01*
X17362917Y-14269851D02*
X17381964Y-14269851D01*
X17401012Y-14279375D01*
X17410536Y-14288899D01*
X17420060Y-14307946D01*
X17429583Y-14346042D01*
X17429583Y-14393661D01*
X17420060Y-14431756D01*
X17410536Y-14450803D01*
X17401012Y-14460327D01*
X17381964Y-14469851D01*
X17362917Y-14469851D01*
X17343869Y-14460327D01*
X17334345Y-14450803D01*
X17324821Y-14431756D01*
X17315298Y-14393661D01*
X17315298Y-14346042D01*
X17324821Y-14307946D01*
X17334345Y-14288899D01*
X17343869Y-14279375D01*
X17362917Y-14269851D01*
X17667679Y-14469851D02*
X17667679Y-14269851D01*
X17753393Y-14469851D02*
X17753393Y-14365089D01*
X17743869Y-14346042D01*
X17724821Y-14336518D01*
X17696250Y-14336518D01*
X17677202Y-14346042D01*
X17667679Y-14355565D01*
X17877202Y-14469851D02*
X17858155Y-14460327D01*
X17848631Y-14450803D01*
X17839107Y-14431756D01*
X17839107Y-14374613D01*
X17848631Y-14355565D01*
X17858155Y-14346042D01*
X17877202Y-14336518D01*
X17905774Y-14336518D01*
X17924821Y-14346042D01*
X17934345Y-14355565D01*
X17943869Y-14374613D01*
X17943869Y-14431756D01*
X17934345Y-14450803D01*
X17924821Y-14460327D01*
X17905774Y-14469851D01*
X17877202Y-14469851D01*
X18058155Y-14469851D02*
X18039107Y-14460327D01*
X18029583Y-14441280D01*
X18029583Y-14269851D01*
X18210536Y-14460327D02*
X18191488Y-14469851D01*
X18153393Y-14469851D01*
X18134345Y-14460327D01*
X18124821Y-14441280D01*
X18124821Y-14365089D01*
X18134345Y-14346042D01*
X18153393Y-14336518D01*
X18191488Y-14336518D01*
X18210536Y-14346042D01*
X18220060Y-14365089D01*
X18220060Y-14384137D01*
X18124821Y-14403184D01*
X18296250Y-14460327D02*
X18315298Y-14469851D01*
X18353393Y-14469851D01*
X18372440Y-14460327D01*
X18381964Y-14441280D01*
X18381964Y-14431756D01*
X18372440Y-14412708D01*
X18353393Y-14403184D01*
X18324821Y-14403184D01*
X18305774Y-14393661D01*
X18296250Y-14374613D01*
X18296250Y-14365089D01*
X18305774Y-14346042D01*
X18324821Y-14336518D01*
X18353393Y-14336518D01*
X18372440Y-14346042D01*
X18448631Y-14546042D02*
X18458155Y-14536518D01*
X18477202Y-14507946D01*
X18486726Y-14488899D01*
X18496250Y-14460327D01*
X18505774Y-14412708D01*
X18505774Y-14374613D01*
X18496250Y-14326994D01*
X18486726Y-14298423D01*
X18477202Y-14279375D01*
X18458155Y-14250803D01*
X18448631Y-14241280D01*
X18810536Y-14546042D02*
X18801012Y-14536518D01*
X18781964Y-14507946D01*
X18772440Y-14488899D01*
X18762917Y-14460327D01*
X18753393Y-14412708D01*
X18753393Y-14374613D01*
X18762917Y-14326994D01*
X18772440Y-14298423D01*
X18781964Y-14279375D01*
X18801012Y-14250803D01*
X18810536Y-14241280D01*
X18886726Y-14336518D02*
X18886726Y-14469851D01*
X18886726Y-14355565D02*
X18896250Y-14346042D01*
X18915298Y-14336518D01*
X18943869Y-14336518D01*
X18962917Y-14346042D01*
X18972440Y-14365089D01*
X18972440Y-14469851D01*
X19096250Y-14469851D02*
X19077202Y-14460327D01*
X19067679Y-14450803D01*
X19058155Y-14431756D01*
X19058155Y-14374613D01*
X19067679Y-14355565D01*
X19077202Y-14346042D01*
X19096250Y-14336518D01*
X19124821Y-14336518D01*
X19143869Y-14346042D01*
X19153393Y-14355565D01*
X19162917Y-14374613D01*
X19162917Y-14431756D01*
X19153393Y-14450803D01*
X19143869Y-14460327D01*
X19124821Y-14469851D01*
X19096250Y-14469851D01*
X19220060Y-14336518D02*
X19296250Y-14336518D01*
X19248631Y-14269851D02*
X19248631Y-14441280D01*
X19258155Y-14460327D01*
X19277202Y-14469851D01*
X19296250Y-14469851D01*
X19515298Y-14336518D02*
X19515298Y-14536518D01*
X19515298Y-14346042D02*
X19534345Y-14336518D01*
X19572440Y-14336518D01*
X19591488Y-14346042D01*
X19601012Y-14355565D01*
X19610536Y-14374613D01*
X19610536Y-14431756D01*
X19601012Y-14450803D01*
X19591488Y-14460327D01*
X19572440Y-14469851D01*
X19534345Y-14469851D01*
X19515298Y-14460327D01*
X19724821Y-14469851D02*
X19705774Y-14460327D01*
X19696250Y-14441280D01*
X19696250Y-14269851D01*
X19886726Y-14469851D02*
X19886726Y-14365089D01*
X19877202Y-14346042D01*
X19858155Y-14336518D01*
X19820060Y-14336518D01*
X19801012Y-14346042D01*
X19886726Y-14460327D02*
X19867679Y-14469851D01*
X19820060Y-14469851D01*
X19801012Y-14460327D01*
X19791488Y-14441280D01*
X19791488Y-14422232D01*
X19801012Y-14403184D01*
X19820060Y-14393661D01*
X19867679Y-14393661D01*
X19886726Y-14384137D01*
X19953393Y-14336518D02*
X20029583Y-14336518D01*
X19981964Y-14269851D02*
X19981964Y-14441280D01*
X19991488Y-14460327D01*
X20010536Y-14469851D01*
X20029583Y-14469851D01*
X20172440Y-14460327D02*
X20153393Y-14469851D01*
X20115298Y-14469851D01*
X20096250Y-14460327D01*
X20086726Y-14441280D01*
X20086726Y-14365089D01*
X20096250Y-14346042D01*
X20115298Y-14336518D01*
X20153393Y-14336518D01*
X20172440Y-14346042D01*
X20181964Y-14365089D01*
X20181964Y-14384137D01*
X20086726Y-14403184D01*
X20353393Y-14469851D02*
X20353393Y-14269851D01*
X20353393Y-14460327D02*
X20334345Y-14469851D01*
X20296250Y-14469851D01*
X20277202Y-14460327D01*
X20267679Y-14450803D01*
X20258155Y-14431756D01*
X20258155Y-14374613D01*
X20267679Y-14355565D01*
X20277202Y-14346042D01*
X20296250Y-14336518D01*
X20334345Y-14336518D01*
X20353393Y-14346042D01*
X20429583Y-14546042D02*
X20439107Y-14536518D01*
X20458155Y-14507946D01*
X20467679Y-14488899D01*
X20477202Y-14460327D01*
X20486726Y-14412708D01*
X20486726Y-14374613D01*
X20477202Y-14326994D01*
X20467679Y-14298423D01*
X20458155Y-14279375D01*
X20439107Y-14250803D01*
X20429583Y-14241280D01*
X13486250Y-14674375D02*
G75*
G03*
X13486250Y-14674375I-100000J0D01*
G01*
X13724821Y-14564851D02*
X13848631Y-14564851D01*
X13781964Y-14641042D01*
X13810536Y-14641042D01*
X13829583Y-14650565D01*
X13839107Y-14660089D01*
X13848631Y-14679137D01*
X13848631Y-14726756D01*
X13839107Y-14745803D01*
X13829583Y-14755327D01*
X13810536Y-14764851D01*
X13753393Y-14764851D01*
X13734345Y-14755327D01*
X13724821Y-14745803D01*
X13934345Y-14745803D02*
X13943869Y-14755327D01*
X13934345Y-14764851D01*
X13924821Y-14755327D01*
X13934345Y-14745803D01*
X13934345Y-14764851D01*
X14039107Y-14764851D02*
X14077202Y-14764851D01*
X14096250Y-14755327D01*
X14105774Y-14745803D01*
X14124821Y-14717232D01*
X14134345Y-14679137D01*
X14134345Y-14602946D01*
X14124821Y-14583899D01*
X14115298Y-14574375D01*
X14096250Y-14564851D01*
X14058155Y-14564851D01*
X14039107Y-14574375D01*
X14029583Y-14583899D01*
X14020059Y-14602946D01*
X14020059Y-14650565D01*
X14029583Y-14669613D01*
X14039107Y-14679137D01*
X14058155Y-14688661D01*
X14096250Y-14688661D01*
X14115298Y-14679137D01*
X14124821Y-14669613D01*
X14134345Y-14650565D01*
X14248631Y-14650565D02*
X14229583Y-14641042D01*
X14220059Y-14631518D01*
X14210536Y-14612470D01*
X14210536Y-14602946D01*
X14220059Y-14583899D01*
X14229583Y-14574375D01*
X14248631Y-14564851D01*
X14286726Y-14564851D01*
X14305774Y-14574375D01*
X14315298Y-14583899D01*
X14324821Y-14602946D01*
X14324821Y-14612470D01*
X14315298Y-14631518D01*
X14305774Y-14641042D01*
X14286726Y-14650565D01*
X14248631Y-14650565D01*
X14229583Y-14660089D01*
X14220059Y-14669613D01*
X14210536Y-14688661D01*
X14210536Y-14726756D01*
X14220059Y-14745803D01*
X14229583Y-14755327D01*
X14248631Y-14764851D01*
X14286726Y-14764851D01*
X14305774Y-14755327D01*
X14315298Y-14745803D01*
X14324821Y-14726756D01*
X14324821Y-14688661D01*
X14315298Y-14669613D01*
X14305774Y-14660089D01*
X14286726Y-14650565D01*
X14439107Y-14650565D02*
X14420059Y-14641042D01*
X14410536Y-14631518D01*
X14401012Y-14612470D01*
X14401012Y-14602946D01*
X14410536Y-14583899D01*
X14420059Y-14574375D01*
X14439107Y-14564851D01*
X14477202Y-14564851D01*
X14496250Y-14574375D01*
X14505774Y-14583899D01*
X14515298Y-14602946D01*
X14515298Y-14612470D01*
X14505774Y-14631518D01*
X14496250Y-14641042D01*
X14477202Y-14650565D01*
X14439107Y-14650565D01*
X14420059Y-14660089D01*
X14410536Y-14669613D01*
X14401012Y-14688661D01*
X14401012Y-14726756D01*
X14410536Y-14745803D01*
X14420059Y-14755327D01*
X14439107Y-14764851D01*
X14477202Y-14764851D01*
X14496250Y-14755327D01*
X14505774Y-14745803D01*
X14515298Y-14726756D01*
X14515298Y-14688661D01*
X14505774Y-14669613D01*
X14496250Y-14660089D01*
X14477202Y-14650565D01*
X14601012Y-14764851D02*
X14601012Y-14631518D01*
X14601012Y-14650565D02*
X14610536Y-14641042D01*
X14629583Y-14631518D01*
X14658155Y-14631518D01*
X14677202Y-14641042D01*
X14686726Y-14660089D01*
X14686726Y-14764851D01*
X14686726Y-14660089D02*
X14696250Y-14641042D01*
X14715298Y-14631518D01*
X14743869Y-14631518D01*
X14762917Y-14641042D01*
X14772440Y-14660089D01*
X14772440Y-14764851D01*
X14867678Y-14764851D02*
X14867678Y-14631518D01*
X14867678Y-14650565D02*
X14877202Y-14641042D01*
X14896250Y-14631518D01*
X14924821Y-14631518D01*
X14943869Y-14641042D01*
X14953393Y-14660089D01*
X14953393Y-14764851D01*
X14953393Y-14660089D02*
X14962917Y-14641042D01*
X14981964Y-14631518D01*
X15010536Y-14631518D01*
X15029583Y-14641042D01*
X15039107Y-14660089D01*
X15039107Y-14764851D01*
X15429583Y-14555327D02*
X15258155Y-14812470D01*
X15686726Y-14564851D02*
X15705774Y-14564851D01*
X15724821Y-14574375D01*
X15734345Y-14583899D01*
X15743869Y-14602946D01*
X15753393Y-14641042D01*
X15753393Y-14688661D01*
X15743869Y-14726756D01*
X15734345Y-14745803D01*
X15724821Y-14755327D01*
X15705774Y-14764851D01*
X15686726Y-14764851D01*
X15667678Y-14755327D01*
X15658155Y-14745803D01*
X15648631Y-14726756D01*
X15639107Y-14688661D01*
X15639107Y-14641042D01*
X15648631Y-14602946D01*
X15658155Y-14583899D01*
X15667678Y-14574375D01*
X15686726Y-14564851D01*
X15839107Y-14745803D02*
X15848631Y-14755327D01*
X15839107Y-14764851D01*
X15829583Y-14755327D01*
X15839107Y-14745803D01*
X15839107Y-14764851D01*
X16039107Y-14764851D02*
X15924821Y-14764851D01*
X15981964Y-14764851D02*
X15981964Y-14564851D01*
X15962917Y-14593423D01*
X15943869Y-14612470D01*
X15924821Y-14621994D01*
X16220059Y-14564851D02*
X16124821Y-14564851D01*
X16115298Y-14660089D01*
X16124821Y-14650565D01*
X16143869Y-14641042D01*
X16191488Y-14641042D01*
X16210536Y-14650565D01*
X16220059Y-14660089D01*
X16229583Y-14679137D01*
X16229583Y-14726756D01*
X16220059Y-14745803D01*
X16210536Y-14755327D01*
X16191488Y-14764851D01*
X16143869Y-14764851D01*
X16124821Y-14755327D01*
X16115298Y-14745803D01*
X16296250Y-14564851D02*
X16429583Y-14564851D01*
X16343869Y-14764851D01*
X16543869Y-14564851D02*
X16562917Y-14564851D01*
X16581964Y-14574375D01*
X16591488Y-14583899D01*
X16601012Y-14602946D01*
X16610536Y-14641042D01*
X16610536Y-14688661D01*
X16601012Y-14726756D01*
X16591488Y-14745803D01*
X16581964Y-14755327D01*
X16562917Y-14764851D01*
X16543869Y-14764851D01*
X16524821Y-14755327D01*
X16515298Y-14745803D01*
X16505774Y-14726756D01*
X16496250Y-14688661D01*
X16496250Y-14641042D01*
X16505774Y-14602946D01*
X16515298Y-14583899D01*
X16524821Y-14574375D01*
X16543869Y-14564851D01*
X16686726Y-14564851D02*
X16686726Y-14602946D01*
X16762917Y-14564851D02*
X16762917Y-14602946D01*
X17058155Y-14841042D02*
X17048631Y-14831518D01*
X17029583Y-14802946D01*
X17020060Y-14783899D01*
X17010536Y-14755327D01*
X17001012Y-14707708D01*
X17001012Y-14669613D01*
X17010536Y-14621994D01*
X17020060Y-14593423D01*
X17029583Y-14574375D01*
X17048631Y-14545803D01*
X17058155Y-14536280D01*
X17239107Y-14764851D02*
X17124821Y-14764851D01*
X17181964Y-14764851D02*
X17181964Y-14564851D01*
X17162917Y-14593423D01*
X17143869Y-14612470D01*
X17124821Y-14621994D01*
X17362917Y-14564851D02*
X17381964Y-14564851D01*
X17401012Y-14574375D01*
X17410536Y-14583899D01*
X17420060Y-14602946D01*
X17429583Y-14641042D01*
X17429583Y-14688661D01*
X17420060Y-14726756D01*
X17410536Y-14745803D01*
X17401012Y-14755327D01*
X17381964Y-14764851D01*
X17362917Y-14764851D01*
X17343869Y-14755327D01*
X17334345Y-14745803D01*
X17324821Y-14726756D01*
X17315298Y-14688661D01*
X17315298Y-14641042D01*
X17324821Y-14602946D01*
X17334345Y-14583899D01*
X17343869Y-14574375D01*
X17362917Y-14564851D01*
X17667679Y-14764851D02*
X17667679Y-14564851D01*
X17753393Y-14764851D02*
X17753393Y-14660089D01*
X17743869Y-14641042D01*
X17724821Y-14631518D01*
X17696250Y-14631518D01*
X17677202Y-14641042D01*
X17667679Y-14650565D01*
X17877202Y-14764851D02*
X17858155Y-14755327D01*
X17848631Y-14745803D01*
X17839107Y-14726756D01*
X17839107Y-14669613D01*
X17848631Y-14650565D01*
X17858155Y-14641042D01*
X17877202Y-14631518D01*
X17905774Y-14631518D01*
X17924821Y-14641042D01*
X17934345Y-14650565D01*
X17943869Y-14669613D01*
X17943869Y-14726756D01*
X17934345Y-14745803D01*
X17924821Y-14755327D01*
X17905774Y-14764851D01*
X17877202Y-14764851D01*
X18058155Y-14764851D02*
X18039107Y-14755327D01*
X18029583Y-14736280D01*
X18029583Y-14564851D01*
X18210536Y-14755327D02*
X18191488Y-14764851D01*
X18153393Y-14764851D01*
X18134345Y-14755327D01*
X18124821Y-14736280D01*
X18124821Y-14660089D01*
X18134345Y-14641042D01*
X18153393Y-14631518D01*
X18191488Y-14631518D01*
X18210536Y-14641042D01*
X18220060Y-14660089D01*
X18220060Y-14679137D01*
X18124821Y-14698184D01*
X18296250Y-14755327D02*
X18315298Y-14764851D01*
X18353393Y-14764851D01*
X18372440Y-14755327D01*
X18381964Y-14736280D01*
X18381964Y-14726756D01*
X18372440Y-14707708D01*
X18353393Y-14698184D01*
X18324821Y-14698184D01*
X18305774Y-14688661D01*
X18296250Y-14669613D01*
X18296250Y-14660089D01*
X18305774Y-14641042D01*
X18324821Y-14631518D01*
X18353393Y-14631518D01*
X18372440Y-14641042D01*
X18448631Y-14841042D02*
X18458155Y-14831518D01*
X18477202Y-14802946D01*
X18486726Y-14783899D01*
X18496250Y-14755327D01*
X18505774Y-14707708D01*
X18505774Y-14669613D01*
X18496250Y-14621994D01*
X18486726Y-14593423D01*
X18477202Y-14574375D01*
X18458155Y-14545803D01*
X18448631Y-14536280D01*
X18810536Y-14841042D02*
X18801012Y-14831518D01*
X18781964Y-14802946D01*
X18772440Y-14783899D01*
X18762917Y-14755327D01*
X18753393Y-14707708D01*
X18753393Y-14669613D01*
X18762917Y-14621994D01*
X18772440Y-14593423D01*
X18781964Y-14574375D01*
X18801012Y-14545803D01*
X18810536Y-14536280D01*
X18886726Y-14631518D02*
X18886726Y-14764851D01*
X18886726Y-14650565D02*
X18896250Y-14641042D01*
X18915298Y-14631518D01*
X18943869Y-14631518D01*
X18962917Y-14641042D01*
X18972440Y-14660089D01*
X18972440Y-14764851D01*
X19096250Y-14764851D02*
X19077202Y-14755327D01*
X19067679Y-14745803D01*
X19058155Y-14726756D01*
X19058155Y-14669613D01*
X19067679Y-14650565D01*
X19077202Y-14641042D01*
X19096250Y-14631518D01*
X19124821Y-14631518D01*
X19143869Y-14641042D01*
X19153393Y-14650565D01*
X19162917Y-14669613D01*
X19162917Y-14726756D01*
X19153393Y-14745803D01*
X19143869Y-14755327D01*
X19124821Y-14764851D01*
X19096250Y-14764851D01*
X19220060Y-14631518D02*
X19296250Y-14631518D01*
X19248631Y-14564851D02*
X19248631Y-14736280D01*
X19258155Y-14755327D01*
X19277202Y-14764851D01*
X19296250Y-14764851D01*
X19515298Y-14631518D02*
X19515298Y-14831518D01*
X19515298Y-14641042D02*
X19534345Y-14631518D01*
X19572440Y-14631518D01*
X19591488Y-14641042D01*
X19601012Y-14650565D01*
X19610536Y-14669613D01*
X19610536Y-14726756D01*
X19601012Y-14745803D01*
X19591488Y-14755327D01*
X19572440Y-14764851D01*
X19534345Y-14764851D01*
X19515298Y-14755327D01*
X19724821Y-14764851D02*
X19705774Y-14755327D01*
X19696250Y-14736280D01*
X19696250Y-14564851D01*
X19886726Y-14764851D02*
X19886726Y-14660089D01*
X19877202Y-14641042D01*
X19858155Y-14631518D01*
X19820060Y-14631518D01*
X19801012Y-14641042D01*
X19886726Y-14755327D02*
X19867679Y-14764851D01*
X19820060Y-14764851D01*
X19801012Y-14755327D01*
X19791488Y-14736280D01*
X19791488Y-14717232D01*
X19801012Y-14698184D01*
X19820060Y-14688661D01*
X19867679Y-14688661D01*
X19886726Y-14679137D01*
X19953393Y-14631518D02*
X20029583Y-14631518D01*
X19981964Y-14564851D02*
X19981964Y-14736280D01*
X19991488Y-14755327D01*
X20010536Y-14764851D01*
X20029583Y-14764851D01*
X20172440Y-14755327D02*
X20153393Y-14764851D01*
X20115298Y-14764851D01*
X20096250Y-14755327D01*
X20086726Y-14736280D01*
X20086726Y-14660089D01*
X20096250Y-14641042D01*
X20115298Y-14631518D01*
X20153393Y-14631518D01*
X20172440Y-14641042D01*
X20181964Y-14660089D01*
X20181964Y-14679137D01*
X20086726Y-14698184D01*
X20353393Y-14764851D02*
X20353393Y-14564851D01*
X20353393Y-14755327D02*
X20334345Y-14764851D01*
X20296250Y-14764851D01*
X20277202Y-14755327D01*
X20267679Y-14745803D01*
X20258155Y-14726756D01*
X20258155Y-14669613D01*
X20267679Y-14650565D01*
X20277202Y-14641042D01*
X20296250Y-14631518D01*
X20334345Y-14631518D01*
X20353393Y-14641042D01*
X20429583Y-14841042D02*
X20439107Y-14831518D01*
X20458155Y-14802946D01*
X20467679Y-14783899D01*
X20477202Y-14755327D01*
X20486726Y-14707708D01*
X20486726Y-14669613D01*
X20477202Y-14621994D01*
X20467679Y-14593423D01*
X20458155Y-14574375D01*
X20439107Y-14545803D01*
X20429583Y-14536280D01*
M02*
