G04 #@! TF.GenerationSoftware,KiCad,Pcbnew,(6.0.9)*
G04 #@! TF.CreationDate,2022-12-29T20:25:29-06:00*
G04 #@! TF.ProjectId,Navigation Keys,4e617669-6761-4746-996f-6e204b657973,rev?*
G04 #@! TF.SameCoordinates,Original*
G04 #@! TF.FileFunction,Legend,Top*
G04 #@! TF.FilePolarity,Positive*
%FSLAX46Y46*%
G04 Gerber Fmt 4.6, Leading zero omitted, Abs format (unit mm)*
G04 Created by KiCad (PCBNEW (6.0.9)) date 2022-12-29 20:25:29*
%MOMM*%
%LPD*%
G01*
G04 APERTURE LIST*
G04 Aperture macros list*
%AMRoundRect*
0 Rectangle with rounded corners*
0 $1 Rounding radius*
0 $2 $3 $4 $5 $6 $7 $8 $9 X,Y pos of 4 corners*
0 Add a 4 corners polygon primitive as box body*
4,1,4,$2,$3,$4,$5,$6,$7,$8,$9,$2,$3,0*
0 Add four circle primitives for the rounded corners*
1,1,$1+$1,$2,$3*
1,1,$1+$1,$4,$5*
1,1,$1+$1,$6,$7*
1,1,$1+$1,$8,$9*
0 Add four rect primitives between the rounded corners*
20,1,$1+$1,$2,$3,$4,$5,0*
20,1,$1+$1,$4,$5,$6,$7,0*
20,1,$1+$1,$6,$7,$8,$9,0*
20,1,$1+$1,$8,$9,$2,$3,0*%
G04 Aperture macros list end*
%ADD10C,0.150000*%
%ADD11C,0.120000*%
%ADD12R,1.200000X0.900000*%
%ADD13RoundRect,0.150000X0.625000X-0.150000X0.625000X0.150000X-0.625000X0.150000X-0.625000X-0.150000X0*%
%ADD14RoundRect,0.250000X0.650000X-0.350000X0.650000X0.350000X-0.650000X0.350000X-0.650000X-0.350000X0*%
%ADD15C,3.987800*%
%ADD16C,1.750000*%
%ADD17RoundRect,0.150000X-0.625000X0.150000X-0.625000X-0.150000X0.625000X-0.150000X0.625000X0.150000X0*%
%ADD18RoundRect,0.250000X-0.650000X0.350000X-0.650000X-0.350000X0.650000X-0.350000X0.650000X0.350000X0*%
G04 APERTURE END LIST*
D10*
X159583630Y-90431845D02*
X158583630Y-90431845D01*
X158583630Y-90193750D01*
X158631250Y-90050892D01*
X158726488Y-89955654D01*
X158821726Y-89908035D01*
X159012202Y-89860416D01*
X159155059Y-89860416D01*
X159345535Y-89908035D01*
X159440773Y-89955654D01*
X159536011Y-90050892D01*
X159583630Y-90193750D01*
X159583630Y-90431845D01*
X158678869Y-89479464D02*
X158631250Y-89431845D01*
X158583630Y-89336607D01*
X158583630Y-89098511D01*
X158631250Y-89003273D01*
X158678869Y-88955654D01*
X158774107Y-88908035D01*
X158869345Y-88908035D01*
X159012202Y-88955654D01*
X159583630Y-89527083D01*
X159583630Y-88908035D01*
X134378630Y-99552083D02*
X135092916Y-99552083D01*
X135235773Y-99599702D01*
X135331011Y-99694940D01*
X135378630Y-99837797D01*
X135378630Y-99933035D01*
X135378630Y-98552083D02*
X135378630Y-99123511D01*
X135378630Y-98837797D02*
X134378630Y-98837797D01*
X134521488Y-98933035D01*
X134616726Y-99028273D01*
X134664345Y-99123511D01*
X159583630Y-71381845D02*
X158583630Y-71381845D01*
X158583630Y-71143750D01*
X158631250Y-71000892D01*
X158726488Y-70905654D01*
X158821726Y-70858035D01*
X159012202Y-70810416D01*
X159155059Y-70810416D01*
X159345535Y-70858035D01*
X159440773Y-70905654D01*
X159536011Y-71000892D01*
X159583630Y-71143750D01*
X159583630Y-71381845D01*
X159583630Y-69858035D02*
X159583630Y-70429464D01*
X159583630Y-70143750D02*
X158583630Y-70143750D01*
X158726488Y-70238988D01*
X158821726Y-70334226D01*
X158869345Y-70429464D01*
X159583630Y-128531845D02*
X158583630Y-128531845D01*
X158583630Y-128293750D01*
X158631250Y-128150892D01*
X158726488Y-128055654D01*
X158821726Y-128008035D01*
X159012202Y-127960416D01*
X159155059Y-127960416D01*
X159345535Y-128008035D01*
X159440773Y-128055654D01*
X159536011Y-128150892D01*
X159583630Y-128293750D01*
X159583630Y-128531845D01*
X158583630Y-127627083D02*
X158583630Y-127008035D01*
X158964583Y-127341369D01*
X158964583Y-127198511D01*
X159012202Y-127103273D01*
X159059821Y-127055654D01*
X159155059Y-127008035D01*
X159393154Y-127008035D01*
X159488392Y-127055654D01*
X159536011Y-127103273D01*
X159583630Y-127198511D01*
X159583630Y-127484226D01*
X159536011Y-127579464D01*
X159488392Y-127627083D01*
X178633630Y-71381845D02*
X177633630Y-71381845D01*
X177633630Y-71143750D01*
X177681250Y-71000892D01*
X177776488Y-70905654D01*
X177871726Y-70858035D01*
X178062202Y-70810416D01*
X178205059Y-70810416D01*
X178395535Y-70858035D01*
X178490773Y-70905654D01*
X178586011Y-71000892D01*
X178633630Y-71143750D01*
X178633630Y-71381845D01*
X177966964Y-69953273D02*
X178633630Y-69953273D01*
X177586011Y-70191369D02*
X178300297Y-70429464D01*
X178300297Y-69810416D01*
X197683630Y-129008035D02*
X196683630Y-129008035D01*
X196683630Y-128769940D01*
X196731250Y-128627083D01*
X196826488Y-128531845D01*
X196921726Y-128484226D01*
X197112202Y-128436607D01*
X197255059Y-128436607D01*
X197445535Y-128484226D01*
X197540773Y-128531845D01*
X197636011Y-128627083D01*
X197683630Y-128769940D01*
X197683630Y-129008035D01*
X197683630Y-127484226D02*
X197683630Y-128055654D01*
X197683630Y-127769940D02*
X196683630Y-127769940D01*
X196826488Y-127865178D01*
X196921726Y-127960416D01*
X196969345Y-128055654D01*
X196683630Y-126865178D02*
X196683630Y-126769940D01*
X196731250Y-126674702D01*
X196778869Y-126627083D01*
X196874107Y-126579464D01*
X197064583Y-126531845D01*
X197302678Y-126531845D01*
X197493154Y-126579464D01*
X197588392Y-126627083D01*
X197636011Y-126674702D01*
X197683630Y-126769940D01*
X197683630Y-126865178D01*
X197636011Y-126960416D01*
X197588392Y-127008035D01*
X197493154Y-127055654D01*
X197302678Y-127103273D01*
X197064583Y-127103273D01*
X196874107Y-127055654D01*
X196778869Y-127008035D01*
X196731250Y-126960416D01*
X196683630Y-126865178D01*
X178633630Y-90431845D02*
X177633630Y-90431845D01*
X177633630Y-90193750D01*
X177681250Y-90050892D01*
X177776488Y-89955654D01*
X177871726Y-89908035D01*
X178062202Y-89860416D01*
X178205059Y-89860416D01*
X178395535Y-89908035D01*
X178490773Y-89955654D01*
X178586011Y-90050892D01*
X178633630Y-90193750D01*
X178633630Y-90431845D01*
X177633630Y-88955654D02*
X177633630Y-89431845D01*
X178109821Y-89479464D01*
X178062202Y-89431845D01*
X178014583Y-89336607D01*
X178014583Y-89098511D01*
X178062202Y-89003273D01*
X178109821Y-88955654D01*
X178205059Y-88908035D01*
X178443154Y-88908035D01*
X178538392Y-88955654D01*
X178586011Y-89003273D01*
X178633630Y-89098511D01*
X178633630Y-89336607D01*
X178586011Y-89431845D01*
X178538392Y-89479464D01*
X178633630Y-109481845D02*
X177633630Y-109481845D01*
X177633630Y-109243750D01*
X177681250Y-109100892D01*
X177776488Y-109005654D01*
X177871726Y-108958035D01*
X178062202Y-108910416D01*
X178205059Y-108910416D01*
X178395535Y-108958035D01*
X178490773Y-109005654D01*
X178586011Y-109100892D01*
X178633630Y-109243750D01*
X178633630Y-109481845D01*
X177633630Y-108053273D02*
X177633630Y-108243750D01*
X177681250Y-108338988D01*
X177728869Y-108386607D01*
X177871726Y-108481845D01*
X178062202Y-108529464D01*
X178443154Y-108529464D01*
X178538392Y-108481845D01*
X178586011Y-108434226D01*
X178633630Y-108338988D01*
X178633630Y-108148511D01*
X178586011Y-108053273D01*
X178538392Y-108005654D01*
X178443154Y-107958035D01*
X178205059Y-107958035D01*
X178109821Y-108005654D01*
X178062202Y-108053273D01*
X178014583Y-108148511D01*
X178014583Y-108338988D01*
X178062202Y-108434226D01*
X178109821Y-108481845D01*
X178205059Y-108529464D01*
X178633630Y-128531845D02*
X177633630Y-128531845D01*
X177633630Y-128293750D01*
X177681250Y-128150892D01*
X177776488Y-128055654D01*
X177871726Y-128008035D01*
X178062202Y-127960416D01*
X178205059Y-127960416D01*
X178395535Y-128008035D01*
X178490773Y-128055654D01*
X178586011Y-128150892D01*
X178633630Y-128293750D01*
X178633630Y-128531845D01*
X177633630Y-127627083D02*
X177633630Y-126960416D01*
X178633630Y-127388988D01*
X197683630Y-90431845D02*
X196683630Y-90431845D01*
X196683630Y-90193750D01*
X196731250Y-90050892D01*
X196826488Y-89955654D01*
X196921726Y-89908035D01*
X197112202Y-89860416D01*
X197255059Y-89860416D01*
X197445535Y-89908035D01*
X197540773Y-89955654D01*
X197636011Y-90050892D01*
X197683630Y-90193750D01*
X197683630Y-90431845D01*
X197683630Y-89384226D02*
X197683630Y-89193750D01*
X197636011Y-89098511D01*
X197588392Y-89050892D01*
X197445535Y-88955654D01*
X197255059Y-88908035D01*
X196874107Y-88908035D01*
X196778869Y-88955654D01*
X196731250Y-89003273D01*
X196683630Y-89098511D01*
X196683630Y-89288988D01*
X196731250Y-89384226D01*
X196778869Y-89431845D01*
X196874107Y-89479464D01*
X197112202Y-89479464D01*
X197207440Y-89431845D01*
X197255059Y-89384226D01*
X197302678Y-89288988D01*
X197302678Y-89098511D01*
X197255059Y-89003273D01*
X197207440Y-88955654D01*
X197112202Y-88908035D01*
X197683630Y-71381845D02*
X196683630Y-71381845D01*
X196683630Y-71143750D01*
X196731250Y-71000892D01*
X196826488Y-70905654D01*
X196921726Y-70858035D01*
X197112202Y-70810416D01*
X197255059Y-70810416D01*
X197445535Y-70858035D01*
X197540773Y-70905654D01*
X197636011Y-71000892D01*
X197683630Y-71143750D01*
X197683630Y-71381845D01*
X197112202Y-70238988D02*
X197064583Y-70334226D01*
X197016964Y-70381845D01*
X196921726Y-70429464D01*
X196874107Y-70429464D01*
X196778869Y-70381845D01*
X196731250Y-70334226D01*
X196683630Y-70238988D01*
X196683630Y-70048511D01*
X196731250Y-69953273D01*
X196778869Y-69905654D01*
X196874107Y-69858035D01*
X196921726Y-69858035D01*
X197016964Y-69905654D01*
X197064583Y-69953273D01*
X197112202Y-70048511D01*
X197112202Y-70238988D01*
X197159821Y-70334226D01*
X197207440Y-70381845D01*
X197302678Y-70429464D01*
X197493154Y-70429464D01*
X197588392Y-70381845D01*
X197636011Y-70334226D01*
X197683630Y-70238988D01*
X197683630Y-70048511D01*
X197636011Y-69953273D01*
X197588392Y-69905654D01*
X197493154Y-69858035D01*
X197302678Y-69858035D01*
X197207440Y-69905654D01*
X197159821Y-69953273D01*
X197112202Y-70048511D01*
X208219880Y-99552083D02*
X208934166Y-99552083D01*
X209077023Y-99599702D01*
X209172261Y-99694940D01*
X209219880Y-99837797D01*
X209219880Y-99933035D01*
X208315119Y-99123511D02*
X208267500Y-99075892D01*
X208219880Y-98980654D01*
X208219880Y-98742559D01*
X208267500Y-98647321D01*
X208315119Y-98599702D01*
X208410357Y-98552083D01*
X208505595Y-98552083D01*
X208648452Y-98599702D01*
X209219880Y-99171130D01*
X209219880Y-98552083D01*
D11*
X160131250Y-91943750D02*
X162131250Y-91943750D01*
X160131250Y-91943750D02*
X160131250Y-88043750D01*
X162131250Y-91943750D02*
X162131250Y-88043750D01*
X137121250Y-110328750D02*
X137121250Y-109278750D01*
X139621250Y-88108750D02*
X137121250Y-88108750D01*
X137121250Y-88108750D02*
X137121250Y-89158750D01*
X141591250Y-109158750D02*
X141591250Y-89278750D01*
X139621250Y-110328750D02*
X137121250Y-110328750D01*
X137121250Y-109278750D02*
X136131250Y-109278750D01*
X162131250Y-72893750D02*
X162131250Y-68993750D01*
X160131250Y-72893750D02*
X160131250Y-68993750D01*
X160131250Y-72893750D02*
X162131250Y-72893750D01*
X160131250Y-130043750D02*
X160131250Y-126143750D01*
X160131250Y-130043750D02*
X162131250Y-130043750D01*
X162131250Y-130043750D02*
X162131250Y-126143750D01*
X181181250Y-72893750D02*
X181181250Y-68993750D01*
X179181250Y-72893750D02*
X181181250Y-72893750D01*
X179181250Y-72893750D02*
X179181250Y-68993750D01*
X198231250Y-130043750D02*
X198231250Y-126143750D01*
X198231250Y-130043750D02*
X200231250Y-130043750D01*
X200231250Y-130043750D02*
X200231250Y-126143750D01*
X179181250Y-91943750D02*
X181181250Y-91943750D01*
X179181250Y-91943750D02*
X179181250Y-88043750D01*
X181181250Y-91943750D02*
X181181250Y-88043750D01*
X179181250Y-110993750D02*
X181181250Y-110993750D01*
X179181250Y-110993750D02*
X179181250Y-107093750D01*
X181181250Y-110993750D02*
X181181250Y-107093750D01*
X179181250Y-130043750D02*
X179181250Y-126143750D01*
X179181250Y-130043750D02*
X181181250Y-130043750D01*
X181181250Y-130043750D02*
X181181250Y-126143750D01*
X198231250Y-91943750D02*
X198231250Y-88043750D01*
X200231250Y-91943750D02*
X200231250Y-88043750D01*
X198231250Y-91943750D02*
X200231250Y-91943750D01*
X200231250Y-72893750D02*
X200231250Y-68993750D01*
X198231250Y-72893750D02*
X200231250Y-72893750D01*
X198231250Y-72893750D02*
X198231250Y-68993750D01*
X206572500Y-88108750D02*
X206572500Y-89158750D01*
X204072500Y-110328750D02*
X206572500Y-110328750D01*
X202102500Y-89278750D02*
X202102500Y-109158750D01*
X204072500Y-88108750D02*
X206572500Y-88108750D01*
X206572500Y-89158750D02*
X207562500Y-89158750D01*
X206572500Y-110328750D02*
X206572500Y-109278750D01*
%LPC*%
D12*
X161131250Y-91343750D03*
X161131250Y-88043750D03*
D13*
X136906250Y-108718750D03*
X136906250Y-107718750D03*
X136906250Y-106718750D03*
X136906250Y-105718750D03*
X136906250Y-104718750D03*
X136906250Y-103718750D03*
X136906250Y-102718750D03*
X136906250Y-101718750D03*
X136906250Y-100718750D03*
X136906250Y-99718750D03*
X136906250Y-98718750D03*
X136906250Y-97718750D03*
X136906250Y-96718750D03*
X136906250Y-95718750D03*
X136906250Y-94718750D03*
X136906250Y-93718750D03*
X136906250Y-92718750D03*
X136906250Y-91718750D03*
X136906250Y-90718750D03*
X136906250Y-89718750D03*
D14*
X140781250Y-88418750D03*
X140781250Y-110018750D03*
D12*
X161131250Y-72293750D03*
X161131250Y-68993750D03*
X161131250Y-129443750D03*
X161131250Y-126143750D03*
D15*
X191293750Y-127793750D03*
D16*
X196373750Y-127793750D03*
X186213750Y-127793750D03*
D12*
X180181250Y-72293750D03*
X180181250Y-68993750D03*
D16*
X148113750Y-70643750D03*
D15*
X153193750Y-70643750D03*
D16*
X158273750Y-70643750D03*
D15*
X191293750Y-70643750D03*
D16*
X186213750Y-70643750D03*
X196373750Y-70643750D03*
D12*
X199231250Y-129443750D03*
X199231250Y-126143750D03*
X180181250Y-91343750D03*
X180181250Y-88043750D03*
D16*
X177323750Y-70643750D03*
D15*
X172243750Y-70643750D03*
D16*
X167163750Y-70643750D03*
D15*
X153193750Y-127793750D03*
D16*
X158273750Y-127793750D03*
X148113750Y-127793750D03*
D15*
X153193750Y-89693750D03*
D16*
X158273750Y-89693750D03*
X148113750Y-89693750D03*
D12*
X180181250Y-110393750D03*
X180181250Y-107093750D03*
D15*
X172243750Y-89693750D03*
D16*
X177323750Y-89693750D03*
X167163750Y-89693750D03*
D15*
X191293750Y-89693750D03*
D16*
X196373750Y-89693750D03*
X186213750Y-89693750D03*
X167163750Y-108743750D03*
D15*
X172243750Y-108743750D03*
D16*
X177323750Y-108743750D03*
D12*
X180181250Y-129443750D03*
X180181250Y-126143750D03*
X199231250Y-91343750D03*
X199231250Y-88043750D03*
X199231250Y-72293750D03*
X199231250Y-68993750D03*
D17*
X206787500Y-89718750D03*
X206787500Y-90718750D03*
X206787500Y-91718750D03*
X206787500Y-92718750D03*
X206787500Y-93718750D03*
X206787500Y-94718750D03*
X206787500Y-95718750D03*
X206787500Y-96718750D03*
X206787500Y-97718750D03*
X206787500Y-98718750D03*
X206787500Y-99718750D03*
X206787500Y-100718750D03*
X206787500Y-101718750D03*
X206787500Y-102718750D03*
X206787500Y-103718750D03*
X206787500Y-104718750D03*
X206787500Y-105718750D03*
X206787500Y-106718750D03*
X206787500Y-107718750D03*
X206787500Y-108718750D03*
D18*
X202912500Y-110018750D03*
X202912500Y-88418750D03*
D15*
X172243750Y-127793750D03*
D16*
X167163750Y-127793750D03*
X177323750Y-127793750D03*
M02*
