G04 #@! TF.GenerationSoftware,KiCad,Pcbnew,(6.0.9)*
G04 #@! TF.CreationDate,2022-12-29T20:25:29-06:00*
G04 #@! TF.ProjectId,Navigation Keys,4e617669-6761-4746-996f-6e204b657973,rev?*
G04 #@! TF.SameCoordinates,Original*
G04 #@! TF.FileFunction,Soldermask,Top*
G04 #@! TF.FilePolarity,Negative*
%FSLAX46Y46*%
G04 Gerber Fmt 4.6, Leading zero omitted, Abs format (unit mm)*
G04 Created by KiCad (PCBNEW (6.0.9)) date 2022-12-29 20:25:29*
%MOMM*%
%LPD*%
G01*
G04 APERTURE LIST*
G04 Aperture macros list*
%AMRoundRect*
0 Rectangle with rounded corners*
0 $1 Rounding radius*
0 $2 $3 $4 $5 $6 $7 $8 $9 X,Y pos of 4 corners*
0 Add a 4 corners polygon primitive as box body*
4,1,4,$2,$3,$4,$5,$6,$7,$8,$9,$2,$3,0*
0 Add four circle primitives for the rounded corners*
1,1,$1+$1,$2,$3*
1,1,$1+$1,$4,$5*
1,1,$1+$1,$6,$7*
1,1,$1+$1,$8,$9*
0 Add four rect primitives between the rounded corners*
20,1,$1+$1,$2,$3,$4,$5,0*
20,1,$1+$1,$4,$5,$6,$7,0*
20,1,$1+$1,$6,$7,$8,$9,0*
20,1,$1+$1,$8,$9,$2,$3,0*%
G04 Aperture macros list end*
%ADD10R,1.200000X0.900000*%
%ADD11RoundRect,0.150000X0.625000X-0.150000X0.625000X0.150000X-0.625000X0.150000X-0.625000X-0.150000X0*%
%ADD12RoundRect,0.250000X0.650000X-0.350000X0.650000X0.350000X-0.650000X0.350000X-0.650000X-0.350000X0*%
%ADD13C,3.987800*%
%ADD14C,1.750000*%
%ADD15RoundRect,0.150000X-0.625000X0.150000X-0.625000X-0.150000X0.625000X-0.150000X0.625000X0.150000X0*%
%ADD16RoundRect,0.250000X-0.650000X0.350000X-0.650000X-0.350000X0.650000X-0.350000X0.650000X0.350000X0*%
G04 APERTURE END LIST*
D10*
X161131250Y-91343750D03*
X161131250Y-88043750D03*
D11*
X136906250Y-108718750D03*
X136906250Y-107718750D03*
X136906250Y-106718750D03*
X136906250Y-105718750D03*
X136906250Y-104718750D03*
X136906250Y-103718750D03*
X136906250Y-102718750D03*
X136906250Y-101718750D03*
X136906250Y-100718750D03*
X136906250Y-99718750D03*
X136906250Y-98718750D03*
X136906250Y-97718750D03*
X136906250Y-96718750D03*
X136906250Y-95718750D03*
X136906250Y-94718750D03*
X136906250Y-93718750D03*
X136906250Y-92718750D03*
X136906250Y-91718750D03*
X136906250Y-90718750D03*
X136906250Y-89718750D03*
D12*
X140781250Y-88418750D03*
X140781250Y-110018750D03*
D10*
X161131250Y-72293750D03*
X161131250Y-68993750D03*
X161131250Y-129443750D03*
X161131250Y-126143750D03*
D13*
X191293750Y-127793750D03*
D14*
X196373750Y-127793750D03*
X186213750Y-127793750D03*
D10*
X180181250Y-72293750D03*
X180181250Y-68993750D03*
D14*
X148113750Y-70643750D03*
D13*
X153193750Y-70643750D03*
D14*
X158273750Y-70643750D03*
D13*
X191293750Y-70643750D03*
D14*
X186213750Y-70643750D03*
X196373750Y-70643750D03*
D10*
X199231250Y-129443750D03*
X199231250Y-126143750D03*
X180181250Y-91343750D03*
X180181250Y-88043750D03*
D14*
X177323750Y-70643750D03*
D13*
X172243750Y-70643750D03*
D14*
X167163750Y-70643750D03*
D13*
X153193750Y-127793750D03*
D14*
X158273750Y-127793750D03*
X148113750Y-127793750D03*
D13*
X153193750Y-89693750D03*
D14*
X158273750Y-89693750D03*
X148113750Y-89693750D03*
D10*
X180181250Y-110393750D03*
X180181250Y-107093750D03*
D13*
X172243750Y-89693750D03*
D14*
X177323750Y-89693750D03*
X167163750Y-89693750D03*
D13*
X191293750Y-89693750D03*
D14*
X196373750Y-89693750D03*
X186213750Y-89693750D03*
X167163750Y-108743750D03*
D13*
X172243750Y-108743750D03*
D14*
X177323750Y-108743750D03*
D10*
X180181250Y-129443750D03*
X180181250Y-126143750D03*
X199231250Y-91343750D03*
X199231250Y-88043750D03*
X199231250Y-72293750D03*
X199231250Y-68993750D03*
D15*
X206787500Y-89718750D03*
X206787500Y-90718750D03*
X206787500Y-91718750D03*
X206787500Y-92718750D03*
X206787500Y-93718750D03*
X206787500Y-94718750D03*
X206787500Y-95718750D03*
X206787500Y-96718750D03*
X206787500Y-97718750D03*
X206787500Y-98718750D03*
X206787500Y-99718750D03*
X206787500Y-100718750D03*
X206787500Y-101718750D03*
X206787500Y-102718750D03*
X206787500Y-103718750D03*
X206787500Y-104718750D03*
X206787500Y-105718750D03*
X206787500Y-106718750D03*
X206787500Y-107718750D03*
X206787500Y-108718750D03*
D16*
X202912500Y-110018750D03*
X202912500Y-88418750D03*
D13*
X172243750Y-127793750D03*
D14*
X167163750Y-127793750D03*
X177323750Y-127793750D03*
M02*
