G04 #@! TF.GenerationSoftware,KiCad,Pcbnew,(6.0.9)*
G04 #@! TF.CreationDate,2023-03-10T16:44:17-06:00*
G04 #@! TF.ProjectId,Navigation Keys,4e617669-6761-4746-996f-6e204b657973,rev?*
G04 #@! TF.SameCoordinates,Original*
G04 #@! TF.FileFunction,Copper,L2,Bot*
G04 #@! TF.FilePolarity,Positive*
%FSLAX46Y46*%
G04 Gerber Fmt 4.6, Leading zero omitted, Abs format (unit mm)*
G04 Created by KiCad (PCBNEW (6.0.9)) date 2023-03-10 16:44:17*
%MOMM*%
%LPD*%
G01*
G04 APERTURE LIST*
G04 Aperture macros list*
%AMHorizOval*
0 Thick line with rounded ends*
0 $1 width*
0 $2 $3 position (X,Y) of the first rounded end (center of the circle)*
0 $4 $5 position (X,Y) of the second rounded end (center of the circle)*
0 Add line between two ends*
20,1,$1,$2,$3,$4,$5,0*
0 Add two circle primitives to create the rounded ends*
1,1,$1,$2,$3*
1,1,$1,$4,$5*%
G04 Aperture macros list end*
G04 #@! TA.AperFunction,ComponentPad*
%ADD10C,2.250000*%
G04 #@! TD*
G04 #@! TA.AperFunction,ComponentPad*
%ADD11HorizOval,2.250000X0.655001X0.730000X-0.655001X-0.730000X0*%
G04 #@! TD*
G04 #@! TA.AperFunction,ComponentPad*
%ADD12HorizOval,2.250000X0.020000X0.290000X-0.020000X-0.290000X0*%
G04 #@! TD*
G04 #@! TA.AperFunction,ComponentPad*
%ADD13R,1.700000X1.700000*%
G04 #@! TD*
G04 #@! TA.AperFunction,ComponentPad*
%ADD14O,1.700000X1.700000*%
G04 #@! TD*
G04 #@! TA.AperFunction,ViaPad*
%ADD15C,0.800000*%
G04 #@! TD*
G04 #@! TA.AperFunction,Conductor*
%ADD16C,0.250000*%
G04 #@! TD*
G04 APERTURE END LIST*
D10*
X188793750Y-123793750D03*
D11*
X188138751Y-124523750D03*
D12*
X193813750Y-123003750D03*
D10*
X193833750Y-122713750D03*
X150693750Y-66643750D03*
D11*
X150038751Y-67373750D03*
D12*
X155713750Y-65853750D03*
D10*
X155733750Y-65563750D03*
D11*
X188138751Y-67373750D03*
D10*
X188793750Y-66643750D03*
D12*
X193813750Y-65853750D03*
D10*
X193833750Y-65563750D03*
D13*
X211931250Y-88106250D03*
D14*
X214471250Y-88106250D03*
X211931250Y-90646250D03*
X214471250Y-90646250D03*
X211931250Y-93186250D03*
X214471250Y-93186250D03*
X211931250Y-95726250D03*
X214471250Y-95726250D03*
X211931250Y-98266250D03*
X214471250Y-98266250D03*
X211931250Y-100806250D03*
X214471250Y-100806250D03*
X211931250Y-103346250D03*
X214471250Y-103346250D03*
X211931250Y-105886250D03*
X214471250Y-105886250D03*
X211931250Y-108426250D03*
X214471250Y-108426250D03*
X211931250Y-110966250D03*
X214471250Y-110966250D03*
D11*
X169088751Y-67373750D03*
D10*
X169743750Y-66643750D03*
X174783750Y-65563750D03*
D12*
X174763750Y-65853750D03*
D13*
X132625000Y-87768750D03*
D14*
X130085000Y-87768750D03*
X132625000Y-90308750D03*
X130085000Y-90308750D03*
X132625000Y-92848750D03*
X130085000Y-92848750D03*
X132625000Y-95388750D03*
X130085000Y-95388750D03*
X132625000Y-97928750D03*
X130085000Y-97928750D03*
X132625000Y-100468750D03*
X130085000Y-100468750D03*
X132625000Y-103008750D03*
X130085000Y-103008750D03*
X132625000Y-105548750D03*
X130085000Y-105548750D03*
X132625000Y-108088750D03*
X130085000Y-108088750D03*
X132625000Y-110628750D03*
X130085000Y-110628750D03*
D10*
X150693750Y-123793750D03*
D11*
X150038751Y-124523750D03*
D12*
X155713750Y-123003750D03*
D10*
X155733750Y-122713750D03*
D11*
X150038751Y-86423750D03*
D10*
X150693750Y-85693750D03*
X155733750Y-84613750D03*
D12*
X155713750Y-84903750D03*
D11*
X169088751Y-86423750D03*
D10*
X169743750Y-85693750D03*
D12*
X174763750Y-84903750D03*
D10*
X174783750Y-84613750D03*
D11*
X188138751Y-86423750D03*
D10*
X188793750Y-85693750D03*
D12*
X193813750Y-84903750D03*
D10*
X193833750Y-84613750D03*
D11*
X169088751Y-105473750D03*
D10*
X169743750Y-104743750D03*
X174783750Y-103663750D03*
D12*
X174763750Y-103953750D03*
D11*
X169088751Y-124523750D03*
D10*
X169743750Y-123793750D03*
D12*
X174763750Y-123003750D03*
D10*
X174783750Y-122713750D03*
D15*
X186531250Y-74612500D03*
X204650000Y-74681750D03*
X205000000Y-102100000D03*
X167481250Y-74612500D03*
X169862500Y-74612500D03*
X144600000Y-102024500D03*
X188912500Y-74612500D03*
X150108250Y-73800000D03*
X167481250Y-93662500D03*
X169158250Y-93662500D03*
X203450000Y-99600000D03*
X150108250Y-105550000D03*
X148659250Y-105550000D03*
X165900000Y-102024500D03*
X203400000Y-102100000D03*
X188912500Y-93662500D03*
X186531250Y-93662500D03*
X165900000Y-99775500D03*
X169158250Y-111800000D03*
X150108250Y-111800000D03*
X186759250Y-107250000D03*
X188208250Y-107250000D03*
X148659250Y-111800000D03*
X167709250Y-111800000D03*
X145450000Y-113350000D03*
X145450000Y-108400000D03*
X208700000Y-111700000D03*
X208700000Y-109025500D03*
X186531250Y-76200000D03*
X167481250Y-76200000D03*
X169862500Y-76200000D03*
X147637500Y-76200000D03*
X188912500Y-76200000D03*
X150812500Y-76200000D03*
X166687500Y-75406250D03*
X148431250Y-75406250D03*
X169158250Y-75406250D03*
X150108250Y-75406250D03*
X188208250Y-75406250D03*
X185737500Y-75406250D03*
X148431250Y-77787500D03*
X188912500Y-77787500D03*
X186531250Y-77787500D03*
X169862500Y-77787500D03*
X150108250Y-77787500D03*
X167481250Y-77787500D03*
X185737500Y-76993750D03*
X188208250Y-76993750D03*
X166687500Y-76993750D03*
X169158250Y-76993750D03*
X186531250Y-79375000D03*
X148431250Y-79375000D03*
X150108250Y-79375000D03*
X188208250Y-79375000D03*
X150812500Y-78581250D03*
X166687500Y-78581250D03*
X169158250Y-78581250D03*
X147637500Y-78581250D03*
X166687500Y-80962500D03*
X186531250Y-80962500D03*
X148431250Y-80962500D03*
X188208250Y-80962500D03*
X150108250Y-80962500D03*
X169862500Y-80962500D03*
X169158250Y-80168750D03*
X167481250Y-80168750D03*
X150812500Y-80168750D03*
X188912500Y-80168750D03*
X147637500Y-80168750D03*
X185737500Y-80168750D03*
X188208250Y-82550000D03*
X150108250Y-82550000D03*
X166687500Y-82550000D03*
X169862500Y-82550000D03*
X186531250Y-82550000D03*
X148431250Y-82550000D03*
X150812500Y-81756250D03*
X185737500Y-81756250D03*
X188912500Y-81756250D03*
X147637500Y-81756250D03*
X167481250Y-81756250D03*
X169158250Y-81756250D03*
X186759250Y-100500000D03*
X150200000Y-100500000D03*
X169158250Y-100500000D03*
X167709250Y-100500000D03*
X148659250Y-100500000D03*
X188208250Y-100500000D03*
X188912500Y-83343750D03*
X150812500Y-83343750D03*
X167481250Y-83343750D03*
X169158250Y-83343750D03*
X185737500Y-83343750D03*
X147637500Y-83343750D03*
X150850000Y-101300000D03*
X169800000Y-101300000D03*
X188802635Y-101303562D03*
X186000000Y-101300000D03*
X166950000Y-101300000D03*
X148000000Y-101300000D03*
X188208250Y-111100000D03*
X146725500Y-109350000D03*
X166900000Y-111050000D03*
X150108250Y-109350000D03*
X147952460Y-112524500D03*
X166900000Y-112524500D03*
X186759250Y-112500000D03*
X170050000Y-112524500D03*
X188208250Y-112500000D03*
X150950000Y-112524500D03*
D16*
X144600000Y-74550000D02*
X145350000Y-73800000D01*
X205000000Y-75031750D02*
X204650000Y-74681750D01*
X144600000Y-102024500D02*
X144600000Y-74550000D01*
X205000000Y-102100000D02*
X205000000Y-75031750D01*
X188912500Y-74612500D02*
X186531250Y-74612500D01*
X145350000Y-73800000D02*
X150108250Y-73800000D01*
X169862500Y-74612500D02*
X167481250Y-74612500D01*
X169158250Y-93662500D02*
X167481250Y-93662500D01*
X203400000Y-102100000D02*
X203400000Y-99650000D01*
X148659250Y-105550000D02*
X150108250Y-105550000D01*
X203400000Y-99650000D02*
X203450000Y-99600000D01*
X165900000Y-102024500D02*
X165900000Y-99775500D01*
X188912500Y-93662500D02*
X186531250Y-93662500D01*
X188208250Y-107250000D02*
X186759250Y-107250000D01*
X169158250Y-111800000D02*
X167709250Y-111800000D01*
X150108250Y-111800000D02*
X148659250Y-111800000D01*
X145450000Y-108400000D02*
X145450000Y-113350000D01*
X208700000Y-109025500D02*
X208700000Y-111700000D01*
X188912500Y-76200000D02*
X186531250Y-76200000D01*
X150812500Y-76200000D02*
X147637500Y-76200000D01*
X169862500Y-76200000D02*
X167481250Y-76200000D01*
X185737500Y-75406250D02*
X188208250Y-75406250D01*
X148431250Y-75406250D02*
X150108250Y-75406250D01*
X166687500Y-75406250D02*
X169158250Y-75406250D01*
X148431250Y-77787500D02*
X150108250Y-77787500D01*
X167481250Y-77787500D02*
X169862500Y-77787500D01*
X186531250Y-77787500D02*
X188912500Y-77787500D01*
X169158250Y-76993750D02*
X166687500Y-76993750D01*
X188208250Y-76993750D02*
X185737500Y-76993750D01*
X188208250Y-79375000D02*
X186531250Y-79375000D01*
X148431250Y-79375000D02*
X150108250Y-79375000D01*
X169158250Y-78581250D02*
X166687500Y-78581250D01*
X150812500Y-78581250D02*
X147637500Y-78581250D01*
X188208250Y-80962500D02*
X186531250Y-80962500D01*
X150108250Y-80962500D02*
X148431250Y-80962500D01*
X169862500Y-80962500D02*
X166687500Y-80962500D01*
X167481250Y-80168750D02*
X169158250Y-80168750D01*
X147637500Y-80168750D02*
X150812500Y-80168750D01*
X185737500Y-80168750D02*
X188912500Y-80168750D01*
X150108250Y-82550000D02*
X148431250Y-82550000D01*
X188208250Y-82550000D02*
X186531250Y-82550000D01*
X169862500Y-82550000D02*
X166687500Y-82550000D01*
X185737500Y-81756250D02*
X188912500Y-81756250D01*
X147637500Y-81756250D02*
X150812500Y-81756250D01*
X167481250Y-81756250D02*
X169158250Y-81756250D01*
X167709250Y-100500000D02*
X169158250Y-100500000D01*
X148659250Y-100500000D02*
X150200000Y-100500000D01*
X186759250Y-100500000D02*
X188208250Y-100500000D01*
X169158250Y-83343750D02*
X167481250Y-83343750D01*
X150812500Y-83343750D02*
X147637500Y-83343750D01*
X188912500Y-83343750D02*
X185737500Y-83343750D01*
X186003562Y-101303562D02*
X186000000Y-101300000D01*
X188802635Y-101303562D02*
X186003562Y-101303562D01*
X169800000Y-101300000D02*
X166950000Y-101300000D01*
X150850000Y-101300000D02*
X148000000Y-101300000D01*
X188195599Y-111112651D02*
X188208250Y-111100000D01*
X166900000Y-111050000D02*
X170100000Y-111050000D01*
X170162651Y-111112651D02*
X188195599Y-111112651D01*
X170100000Y-111050000D02*
X170162651Y-111112651D01*
X146725500Y-109350000D02*
X150108250Y-109350000D01*
X150950000Y-112524500D02*
X147952460Y-112524500D01*
X170050000Y-112524500D02*
X166900000Y-112524500D01*
X188208250Y-112500000D02*
X186759250Y-112500000D01*
G04 #@! TA.AperFunction,Conductor*
G36*
X213488767Y-61628751D02*
G01*
X213512463Y-61632441D01*
X213528757Y-61630311D01*
X213553329Y-61629518D01*
X213692405Y-61638636D01*
X213754941Y-61642736D01*
X213771282Y-61644888D01*
X213995330Y-61689459D01*
X214011249Y-61693724D01*
X214122223Y-61731396D01*
X214227586Y-61767164D01*
X214242804Y-61773468D01*
X214447693Y-61874512D01*
X214461966Y-61882753D01*
X214651905Y-62009670D01*
X214664981Y-62019703D01*
X214836738Y-62170334D01*
X214848392Y-62181988D01*
X214999023Y-62353753D01*
X215009050Y-62366821D01*
X215135974Y-62556779D01*
X215144201Y-62571027D01*
X215245253Y-62775945D01*
X215251553Y-62791157D01*
X215324984Y-63007481D01*
X215329250Y-63023401D01*
X215373818Y-63247462D01*
X215375969Y-63263802D01*
X215388728Y-63458465D01*
X215387744Y-63480577D01*
X215387692Y-63484845D01*
X215386309Y-63493724D01*
X215387474Y-63502630D01*
X215390436Y-63525283D01*
X215391500Y-63541621D01*
X215391500Y-86848945D01*
X215371498Y-86917066D01*
X215317842Y-86963559D01*
X215247568Y-86973663D01*
X215204607Y-86959254D01*
X215128183Y-86917066D01*
X215030039Y-86862888D01*
X215025170Y-86861164D01*
X215025166Y-86861162D01*
X214824337Y-86790045D01*
X214824333Y-86790044D01*
X214819462Y-86788319D01*
X214814369Y-86787412D01*
X214814366Y-86787411D01*
X214604623Y-86750050D01*
X214604617Y-86750049D01*
X214599534Y-86749144D01*
X214525702Y-86748242D01*
X214381331Y-86746478D01*
X214381329Y-86746478D01*
X214376161Y-86746415D01*
X214155341Y-86780205D01*
X213943006Y-86849607D01*
X213744857Y-86952757D01*
X213740724Y-86955860D01*
X213740721Y-86955862D01*
X213570350Y-87083780D01*
X213566215Y-87086885D01*
X213509787Y-87145934D01*
X213485533Y-87171314D01*
X213424009Y-87206744D01*
X213353096Y-87203287D01*
X213295310Y-87162041D01*
X213276457Y-87128493D01*
X213235017Y-87017953D01*
X213231865Y-87009545D01*
X213144511Y-86892989D01*
X213027955Y-86805635D01*
X212891566Y-86754505D01*
X212829384Y-86747750D01*
X211033116Y-86747750D01*
X210970934Y-86754505D01*
X210834545Y-86805635D01*
X210717989Y-86892989D01*
X210630635Y-87009545D01*
X210579505Y-87145934D01*
X210572750Y-87208116D01*
X210572750Y-89004384D01*
X210579505Y-89066566D01*
X210630635Y-89202955D01*
X210717989Y-89319511D01*
X210834545Y-89406865D01*
X210842954Y-89410017D01*
X210842955Y-89410018D01*
X210951701Y-89450785D01*
X211008466Y-89493426D01*
X211033166Y-89559988D01*
X211017959Y-89629337D01*
X210998566Y-89655818D01*
X210871879Y-89788388D01*
X210745993Y-89972930D01*
X210651938Y-90175555D01*
X210592239Y-90390820D01*
X210568501Y-90612945D01*
X210581360Y-90835965D01*
X210582497Y-90841011D01*
X210582498Y-90841017D01*
X210606554Y-90947758D01*
X210630472Y-91053889D01*
X210714516Y-91260866D01*
X210766192Y-91345194D01*
X210828541Y-91446938D01*
X210831237Y-91451338D01*
X210977500Y-91620188D01*
X211149376Y-91762882D01*
X211219845Y-91804061D01*
X211222695Y-91805726D01*
X211271419Y-91857364D01*
X211284490Y-91927147D01*
X211257759Y-91992919D01*
X211217305Y-92026277D01*
X211204857Y-92032757D01*
X211200724Y-92035860D01*
X211200721Y-92035862D01*
X211176497Y-92054050D01*
X211026215Y-92166885D01*
X210871879Y-92328388D01*
X210745993Y-92512930D01*
X210651938Y-92715555D01*
X210592239Y-92930820D01*
X210568501Y-93152945D01*
X210581360Y-93375965D01*
X210582497Y-93381011D01*
X210582498Y-93381017D01*
X210606554Y-93487758D01*
X210630472Y-93593889D01*
X210714516Y-93800866D01*
X210766192Y-93885194D01*
X210828541Y-93986938D01*
X210831237Y-93991338D01*
X210977500Y-94160188D01*
X211149376Y-94302882D01*
X211219845Y-94344061D01*
X211222695Y-94345726D01*
X211271419Y-94397364D01*
X211284490Y-94467147D01*
X211257759Y-94532919D01*
X211217305Y-94566277D01*
X211204857Y-94572757D01*
X211200724Y-94575860D01*
X211200721Y-94575862D01*
X211176497Y-94594050D01*
X211026215Y-94706885D01*
X210871879Y-94868388D01*
X210745993Y-95052930D01*
X210651938Y-95255555D01*
X210592239Y-95470820D01*
X210568501Y-95692945D01*
X210581360Y-95915965D01*
X210582497Y-95921011D01*
X210582498Y-95921017D01*
X210606554Y-96027758D01*
X210630472Y-96133889D01*
X210714516Y-96340866D01*
X210766192Y-96425194D01*
X210828541Y-96526938D01*
X210831237Y-96531338D01*
X210977500Y-96700188D01*
X211149376Y-96842882D01*
X211219845Y-96884061D01*
X211222695Y-96885726D01*
X211271419Y-96937364D01*
X211284490Y-97007147D01*
X211257759Y-97072919D01*
X211217305Y-97106277D01*
X211204857Y-97112757D01*
X211200724Y-97115860D01*
X211200721Y-97115862D01*
X211176497Y-97134050D01*
X211026215Y-97246885D01*
X210871879Y-97408388D01*
X210745993Y-97592930D01*
X210651938Y-97795555D01*
X210592239Y-98010820D01*
X210568501Y-98232945D01*
X210581360Y-98455965D01*
X210582497Y-98461011D01*
X210582498Y-98461017D01*
X210606554Y-98567758D01*
X210630472Y-98673889D01*
X210714516Y-98880866D01*
X210766192Y-98965194D01*
X210828541Y-99066938D01*
X210831237Y-99071338D01*
X210977500Y-99240188D01*
X211149376Y-99382882D01*
X211185163Y-99403794D01*
X211222695Y-99425726D01*
X211271419Y-99477364D01*
X211284490Y-99547147D01*
X211257759Y-99612919D01*
X211217305Y-99646277D01*
X211204857Y-99652757D01*
X211200724Y-99655860D01*
X211200721Y-99655862D01*
X211176497Y-99674050D01*
X211026215Y-99786885D01*
X210871879Y-99948388D01*
X210745993Y-100132930D01*
X210651938Y-100335555D01*
X210592239Y-100550820D01*
X210568501Y-100772945D01*
X210581360Y-100995965D01*
X210582497Y-101001011D01*
X210582498Y-101001017D01*
X210606554Y-101107758D01*
X210630472Y-101213889D01*
X210714516Y-101420866D01*
X210751848Y-101481786D01*
X210828541Y-101606938D01*
X210831237Y-101611338D01*
X210977500Y-101780188D01*
X211149376Y-101922882D01*
X211219845Y-101964061D01*
X211222695Y-101965726D01*
X211271419Y-102017364D01*
X211284490Y-102087147D01*
X211257759Y-102152919D01*
X211217305Y-102186277D01*
X211204857Y-102192757D01*
X211200724Y-102195860D01*
X211200721Y-102195862D01*
X211030350Y-102323780D01*
X211026215Y-102326885D01*
X210871879Y-102488388D01*
X210745993Y-102672930D01*
X210651938Y-102875555D01*
X210592239Y-103090820D01*
X210568501Y-103312945D01*
X210581360Y-103535965D01*
X210582497Y-103541011D01*
X210582498Y-103541017D01*
X210606554Y-103647758D01*
X210630472Y-103753889D01*
X210714516Y-103960866D01*
X210766192Y-104045194D01*
X210828541Y-104146938D01*
X210831237Y-104151338D01*
X210977500Y-104320188D01*
X211149376Y-104462882D01*
X211219845Y-104504061D01*
X211222695Y-104505726D01*
X211271419Y-104557364D01*
X211284490Y-104627147D01*
X211257759Y-104692919D01*
X211217305Y-104726277D01*
X211204857Y-104732757D01*
X211200724Y-104735860D01*
X211200721Y-104735862D01*
X211176497Y-104754050D01*
X211026215Y-104866885D01*
X210871879Y-105028388D01*
X210745993Y-105212930D01*
X210651938Y-105415555D01*
X210592239Y-105630820D01*
X210568501Y-105852945D01*
X210581360Y-106075965D01*
X210582497Y-106081011D01*
X210582498Y-106081017D01*
X210606554Y-106187758D01*
X210630472Y-106293889D01*
X210714516Y-106500866D01*
X210766192Y-106585194D01*
X210828541Y-106686938D01*
X210831237Y-106691338D01*
X210977500Y-106860188D01*
X211149376Y-107002882D01*
X211219845Y-107044061D01*
X211222695Y-107045726D01*
X211271419Y-107097364D01*
X211284490Y-107167147D01*
X211257759Y-107232919D01*
X211217305Y-107266277D01*
X211204857Y-107272757D01*
X211200724Y-107275860D01*
X211200721Y-107275862D01*
X211176497Y-107294050D01*
X211026215Y-107406885D01*
X210871879Y-107568388D01*
X210745993Y-107752930D01*
X210651938Y-107955555D01*
X210592239Y-108170820D01*
X210568501Y-108392945D01*
X210581360Y-108615965D01*
X210582497Y-108621011D01*
X210582498Y-108621017D01*
X210588629Y-108648221D01*
X210630472Y-108833889D01*
X210662973Y-108913930D01*
X210708277Y-109025500D01*
X210714516Y-109040866D01*
X210766192Y-109125194D01*
X210828541Y-109226938D01*
X210831237Y-109231338D01*
X210977500Y-109400188D01*
X211149376Y-109542882D01*
X211191243Y-109567347D01*
X211223205Y-109586024D01*
X211271929Y-109637662D01*
X211285000Y-109707445D01*
X211258269Y-109773217D01*
X211217812Y-109806577D01*
X211209707Y-109810796D01*
X211200988Y-109816286D01*
X211030683Y-109944155D01*
X211022976Y-109950998D01*
X210875840Y-110104967D01*
X210869354Y-110112977D01*
X210749348Y-110288899D01*
X210744250Y-110297873D01*
X210654588Y-110491033D01*
X210651025Y-110500720D01*
X210595639Y-110700433D01*
X210597162Y-110708857D01*
X210609542Y-110712250D01*
X212059250Y-110712250D01*
X212127371Y-110732252D01*
X212173864Y-110785908D01*
X212185250Y-110838250D01*
X212185250Y-112284767D01*
X212189314Y-112298609D01*
X212202728Y-112300643D01*
X212209434Y-112299784D01*
X212219512Y-112297642D01*
X212423505Y-112236441D01*
X212433092Y-112232683D01*
X212624345Y-112138989D01*
X212633195Y-112133714D01*
X212806578Y-112010042D01*
X212814450Y-112003389D01*
X212965302Y-111853062D01*
X212971980Y-111845215D01*
X213099272Y-111668069D01*
X213100529Y-111668972D01*
X213147623Y-111625612D01*
X213217561Y-111613395D01*
X213283001Y-111640928D01*
X213310829Y-111672761D01*
X213371237Y-111771338D01*
X213517500Y-111940188D01*
X213689376Y-112082882D01*
X213882250Y-112195588D01*
X214090942Y-112275280D01*
X214096010Y-112276311D01*
X214096013Y-112276312D01*
X214191112Y-112295660D01*
X214309847Y-112319817D01*
X214315022Y-112320007D01*
X214315024Y-112320007D01*
X214527923Y-112327814D01*
X214527927Y-112327814D01*
X214533087Y-112328003D01*
X214538207Y-112327347D01*
X214538209Y-112327347D01*
X214749538Y-112300275D01*
X214749539Y-112300275D01*
X214754666Y-112299618D01*
X214759616Y-112298133D01*
X214963679Y-112236911D01*
X214963684Y-112236909D01*
X214968634Y-112235424D01*
X215169244Y-112137146D01*
X215192333Y-112120677D01*
X215259407Y-112097404D01*
X215328415Y-112114089D01*
X215377448Y-112165433D01*
X215391500Y-112223257D01*
X215391500Y-134888133D01*
X215390000Y-134907518D01*
X215387690Y-134922351D01*
X215387690Y-134922355D01*
X215386309Y-134931224D01*
X215387473Y-134940126D01*
X215387473Y-134940129D01*
X215388439Y-134947512D01*
X215389233Y-134972091D01*
X215376018Y-135173704D01*
X215373867Y-135190043D01*
X215329299Y-135414111D01*
X215325033Y-135430032D01*
X215251599Y-135646362D01*
X215245295Y-135661581D01*
X215159256Y-135836055D01*
X215144254Y-135866477D01*
X215136014Y-135880750D01*
X215009091Y-136070706D01*
X214999058Y-136083781D01*
X214848427Y-136255547D01*
X214836773Y-136267202D01*
X214665012Y-136417836D01*
X214651936Y-136427869D01*
X214461991Y-136554790D01*
X214447719Y-136563030D01*
X214242823Y-136664078D01*
X214227605Y-136670382D01*
X214122229Y-136706154D01*
X214011262Y-136743824D01*
X213995343Y-136748089D01*
X213771288Y-136792661D01*
X213754947Y-136794813D01*
X213560721Y-136807547D01*
X213536595Y-136806474D01*
X213533893Y-136806441D01*
X213525015Y-136805059D01*
X213495994Y-136808854D01*
X213493459Y-136809186D01*
X213477119Y-136810250D01*
X200944750Y-136810250D01*
X200876629Y-136790248D01*
X200830136Y-136736592D01*
X200818750Y-136684250D01*
X200818750Y-133350000D01*
X210624026Y-133350000D01*
X210643886Y-133576997D01*
X210702861Y-133797097D01*
X210705183Y-133802077D01*
X210705184Y-133802079D01*
X210796835Y-133998625D01*
X210796838Y-133998630D01*
X210799161Y-134003612D01*
X210929858Y-134190267D01*
X211090983Y-134351392D01*
X211095491Y-134354549D01*
X211095494Y-134354551D01*
X211273129Y-134478932D01*
X211277638Y-134482089D01*
X211282620Y-134484412D01*
X211282625Y-134484415D01*
X211479171Y-134576066D01*
X211484153Y-134578389D01*
X211489461Y-134579811D01*
X211489463Y-134579812D01*
X211698938Y-134635940D01*
X211698939Y-134635940D01*
X211704253Y-134637364D01*
X211931250Y-134657224D01*
X212158247Y-134637364D01*
X212163561Y-134635940D01*
X212163562Y-134635940D01*
X212373037Y-134579812D01*
X212373039Y-134579811D01*
X212378347Y-134578389D01*
X212383329Y-134576066D01*
X212579875Y-134484415D01*
X212579880Y-134484412D01*
X212584862Y-134482089D01*
X212589371Y-134478932D01*
X212767006Y-134354551D01*
X212767009Y-134354549D01*
X212771517Y-134351392D01*
X212932642Y-134190267D01*
X213063339Y-134003612D01*
X213065662Y-133998630D01*
X213065665Y-133998625D01*
X213157316Y-133802079D01*
X213157317Y-133802077D01*
X213159639Y-133797097D01*
X213218614Y-133576997D01*
X213238474Y-133350000D01*
X213218614Y-133123003D01*
X213159639Y-132902903D01*
X213157316Y-132897921D01*
X213065665Y-132701375D01*
X213065662Y-132701370D01*
X213063339Y-132696388D01*
X212932642Y-132509733D01*
X212771517Y-132348608D01*
X212767009Y-132345451D01*
X212767006Y-132345449D01*
X212589371Y-132221068D01*
X212589369Y-132221067D01*
X212584862Y-132217911D01*
X212579880Y-132215588D01*
X212579875Y-132215585D01*
X212383329Y-132123934D01*
X212383327Y-132123933D01*
X212378347Y-132121611D01*
X212373039Y-132120189D01*
X212373037Y-132120188D01*
X212163562Y-132064060D01*
X212163561Y-132064060D01*
X212158247Y-132062636D01*
X211931250Y-132042776D01*
X211704253Y-132062636D01*
X211698939Y-132064060D01*
X211698938Y-132064060D01*
X211489463Y-132120188D01*
X211489461Y-132120189D01*
X211484153Y-132121611D01*
X211479173Y-132123933D01*
X211479171Y-132123934D01*
X211282625Y-132215585D01*
X211282620Y-132215588D01*
X211277638Y-132217911D01*
X211273131Y-132221067D01*
X211273129Y-132221068D01*
X211095494Y-132345449D01*
X211095491Y-132345451D01*
X211090983Y-132348608D01*
X210929858Y-132509733D01*
X210799161Y-132696388D01*
X210796838Y-132701370D01*
X210796835Y-132701375D01*
X210705184Y-132897921D01*
X210702861Y-132902903D01*
X210643886Y-133123003D01*
X210624026Y-133350000D01*
X200818750Y-133350000D01*
X200818750Y-111700000D01*
X207786496Y-111700000D01*
X207787186Y-111706565D01*
X207801759Y-111845215D01*
X207806458Y-111889928D01*
X207865473Y-112071556D01*
X207868776Y-112077278D01*
X207868777Y-112077279D01*
X207870104Y-112079577D01*
X207960960Y-112236944D01*
X207965378Y-112241851D01*
X207965379Y-112241852D01*
X208042950Y-112328003D01*
X208088747Y-112378866D01*
X208243248Y-112491118D01*
X208249276Y-112493802D01*
X208249278Y-112493803D01*
X208411681Y-112566109D01*
X208417712Y-112568794D01*
X208511113Y-112588647D01*
X208598056Y-112607128D01*
X208598061Y-112607128D01*
X208604513Y-112608500D01*
X208795487Y-112608500D01*
X208801939Y-112607128D01*
X208801944Y-112607128D01*
X208888887Y-112588647D01*
X208982288Y-112568794D01*
X208988319Y-112566109D01*
X209150722Y-112493803D01*
X209150724Y-112493802D01*
X209156752Y-112491118D01*
X209311253Y-112378866D01*
X209357050Y-112328003D01*
X209434621Y-112241852D01*
X209434622Y-112241851D01*
X209439040Y-112236944D01*
X209529896Y-112079577D01*
X209531223Y-112077279D01*
X209531224Y-112077278D01*
X209534527Y-112071556D01*
X209593542Y-111889928D01*
X209598242Y-111845215D01*
X209612814Y-111706565D01*
X209613504Y-111700000D01*
X209593542Y-111510072D01*
X209534527Y-111328444D01*
X209480124Y-111234216D01*
X210599507Y-111234216D01*
X210629815Y-111368696D01*
X210632895Y-111378525D01*
X210713020Y-111575853D01*
X210717663Y-111585044D01*
X210828944Y-111766638D01*
X210835027Y-111774949D01*
X210974463Y-111935917D01*
X210981830Y-111943133D01*
X211145684Y-112079166D01*
X211154131Y-112085081D01*
X211338006Y-112192529D01*
X211347292Y-112196979D01*
X211546251Y-112272953D01*
X211556149Y-112275829D01*
X211659500Y-112296856D01*
X211673549Y-112295660D01*
X211677250Y-112285315D01*
X211677250Y-111238365D01*
X211672775Y-111223126D01*
X211671385Y-111221921D01*
X211663702Y-111220250D01*
X210614475Y-111220250D01*
X210600944Y-111224223D01*
X210599507Y-111234216D01*
X209480124Y-111234216D01*
X209439040Y-111163056D01*
X209365863Y-111081785D01*
X209335147Y-111017779D01*
X209333500Y-110997476D01*
X209333500Y-109728024D01*
X209353502Y-109659903D01*
X209365858Y-109643721D01*
X209439040Y-109562444D01*
X209517138Y-109427174D01*
X209531223Y-109402779D01*
X209531224Y-109402778D01*
X209534527Y-109397056D01*
X209593542Y-109215428D01*
X209613504Y-109025500D01*
X209593542Y-108835572D01*
X209534527Y-108653944D01*
X209439040Y-108488556D01*
X209311253Y-108346634D01*
X209156752Y-108234382D01*
X209150724Y-108231698D01*
X209150722Y-108231697D01*
X208988319Y-108159391D01*
X208988318Y-108159391D01*
X208982288Y-108156706D01*
X208888888Y-108136853D01*
X208801944Y-108118372D01*
X208801939Y-108118372D01*
X208795487Y-108117000D01*
X208604513Y-108117000D01*
X208598061Y-108118372D01*
X208598056Y-108118372D01*
X208511112Y-108136853D01*
X208417712Y-108156706D01*
X208411682Y-108159391D01*
X208411681Y-108159391D01*
X208249278Y-108231697D01*
X208249276Y-108231698D01*
X208243248Y-108234382D01*
X208088747Y-108346634D01*
X207960960Y-108488556D01*
X207865473Y-108653944D01*
X207806458Y-108835572D01*
X207786496Y-109025500D01*
X207806458Y-109215428D01*
X207865473Y-109397056D01*
X207868776Y-109402778D01*
X207868777Y-109402779D01*
X207882862Y-109427174D01*
X207960960Y-109562444D01*
X208034137Y-109643715D01*
X208064853Y-109707721D01*
X208066500Y-109728024D01*
X208066500Y-110997476D01*
X208046498Y-111065597D01*
X208034142Y-111081779D01*
X207960960Y-111163056D01*
X207865473Y-111328444D01*
X207806458Y-111510072D01*
X207786496Y-111700000D01*
X200818750Y-111700000D01*
X200818750Y-102100000D01*
X202486496Y-102100000D01*
X202506458Y-102289928D01*
X202565473Y-102471556D01*
X202660960Y-102636944D01*
X202665378Y-102641851D01*
X202665379Y-102641852D01*
X202697589Y-102677625D01*
X202788747Y-102778866D01*
X202943248Y-102891118D01*
X202949276Y-102893802D01*
X202949278Y-102893803D01*
X203111681Y-102966109D01*
X203117712Y-102968794D01*
X203211112Y-102988647D01*
X203298056Y-103007128D01*
X203298061Y-103007128D01*
X203304513Y-103008500D01*
X203495487Y-103008500D01*
X203501939Y-103007128D01*
X203501944Y-103007128D01*
X203588888Y-102988647D01*
X203682288Y-102968794D01*
X203688319Y-102966109D01*
X203850722Y-102893803D01*
X203850724Y-102893802D01*
X203856752Y-102891118D01*
X204011253Y-102778866D01*
X204106365Y-102673233D01*
X204166810Y-102635994D01*
X204237793Y-102637346D01*
X204293635Y-102673233D01*
X204388747Y-102778866D01*
X204543248Y-102891118D01*
X204549276Y-102893802D01*
X204549278Y-102893803D01*
X204711681Y-102966109D01*
X204717712Y-102968794D01*
X204811112Y-102988647D01*
X204898056Y-103007128D01*
X204898061Y-103007128D01*
X204904513Y-103008500D01*
X205095487Y-103008500D01*
X205101939Y-103007128D01*
X205101944Y-103007128D01*
X205188888Y-102988647D01*
X205282288Y-102968794D01*
X205288319Y-102966109D01*
X205450722Y-102893803D01*
X205450724Y-102893802D01*
X205456752Y-102891118D01*
X205611253Y-102778866D01*
X205702411Y-102677625D01*
X205734621Y-102641852D01*
X205734622Y-102641851D01*
X205739040Y-102636944D01*
X205834527Y-102471556D01*
X205893542Y-102289928D01*
X205913504Y-102100000D01*
X205900383Y-101975159D01*
X205894232Y-101916635D01*
X205894232Y-101916633D01*
X205893542Y-101910072D01*
X205834527Y-101728444D01*
X205809758Y-101685542D01*
X205797314Y-101663990D01*
X205739040Y-101563056D01*
X205665863Y-101481785D01*
X205635147Y-101417779D01*
X205633500Y-101397476D01*
X205633500Y-75110518D01*
X205634027Y-75099335D01*
X205635702Y-75091842D01*
X205633562Y-75023751D01*
X205633500Y-75019794D01*
X205633500Y-74991894D01*
X205632996Y-74987903D01*
X205632063Y-74976061D01*
X205630923Y-74939786D01*
X205630674Y-74931861D01*
X205628462Y-74924247D01*
X205628461Y-74924242D01*
X205625023Y-74912409D01*
X205621012Y-74893045D01*
X205619467Y-74880814D01*
X205618474Y-74872953D01*
X205615557Y-74865586D01*
X205615556Y-74865581D01*
X205602198Y-74831842D01*
X205598354Y-74820615D01*
X205588230Y-74785772D01*
X205586018Y-74778157D01*
X205579511Y-74767154D01*
X205562050Y-74698338D01*
X205562654Y-74689836D01*
X205562814Y-74688314D01*
X205563504Y-74681750D01*
X205543542Y-74491822D01*
X205484527Y-74310194D01*
X205389040Y-74144806D01*
X205261253Y-74002884D01*
X205106752Y-73890632D01*
X205100724Y-73887948D01*
X205100722Y-73887947D01*
X204938319Y-73815641D01*
X204938318Y-73815641D01*
X204932288Y-73812956D01*
X204838887Y-73793103D01*
X204751944Y-73774622D01*
X204751939Y-73774622D01*
X204745487Y-73773250D01*
X204554513Y-73773250D01*
X204548061Y-73774622D01*
X204548056Y-73774622D01*
X204461113Y-73793103D01*
X204367712Y-73812956D01*
X204361682Y-73815641D01*
X204361681Y-73815641D01*
X204199278Y-73887947D01*
X204199276Y-73887948D01*
X204193248Y-73890632D01*
X204038747Y-74002884D01*
X203910960Y-74144806D01*
X203815473Y-74310194D01*
X203756458Y-74491822D01*
X203736496Y-74681750D01*
X203756458Y-74871678D01*
X203815473Y-75053306D01*
X203910960Y-75218694D01*
X204038747Y-75360616D01*
X204193248Y-75472868D01*
X204291749Y-75516723D01*
X204345845Y-75562703D01*
X204366500Y-75631830D01*
X204366500Y-98931905D01*
X204346498Y-99000026D01*
X204292842Y-99046519D01*
X204222568Y-99056623D01*
X204157988Y-99027129D01*
X204146864Y-99016215D01*
X204132288Y-99000026D01*
X204061253Y-98921134D01*
X203906752Y-98808882D01*
X203900724Y-98806198D01*
X203900722Y-98806197D01*
X203738319Y-98733891D01*
X203738318Y-98733891D01*
X203732288Y-98731206D01*
X203638888Y-98711353D01*
X203551944Y-98692872D01*
X203551939Y-98692872D01*
X203545487Y-98691500D01*
X203354513Y-98691500D01*
X203348061Y-98692872D01*
X203348056Y-98692872D01*
X203261113Y-98711353D01*
X203167712Y-98731206D01*
X203161682Y-98733891D01*
X203161681Y-98733891D01*
X202999278Y-98806197D01*
X202999276Y-98806198D01*
X202993248Y-98808882D01*
X202838747Y-98921134D01*
X202710960Y-99063056D01*
X202615473Y-99228444D01*
X202556458Y-99410072D01*
X202536496Y-99600000D01*
X202556458Y-99789928D01*
X202615473Y-99971556D01*
X202710960Y-100136944D01*
X202715380Y-100141853D01*
X202715383Y-100141857D01*
X202734135Y-100162683D01*
X202764853Y-100226690D01*
X202766500Y-100246994D01*
X202766500Y-101397476D01*
X202746498Y-101465597D01*
X202734142Y-101481779D01*
X202660960Y-101563056D01*
X202602686Y-101663990D01*
X202590243Y-101685542D01*
X202565473Y-101728444D01*
X202506458Y-101910072D01*
X202505768Y-101916633D01*
X202505768Y-101916635D01*
X202499617Y-101975159D01*
X202486496Y-102100000D01*
X200818750Y-102100000D01*
X200818750Y-65087500D01*
X210624026Y-65087500D01*
X210643886Y-65314497D01*
X210702861Y-65534597D01*
X210705183Y-65539577D01*
X210705184Y-65539579D01*
X210796835Y-65736125D01*
X210796838Y-65736130D01*
X210799161Y-65741112D01*
X210929858Y-65927767D01*
X211090983Y-66088892D01*
X211095491Y-66092049D01*
X211095494Y-66092051D01*
X211273129Y-66216432D01*
X211277638Y-66219589D01*
X211282620Y-66221912D01*
X211282625Y-66221915D01*
X211479171Y-66313566D01*
X211484153Y-66315889D01*
X211489461Y-66317311D01*
X211489463Y-66317312D01*
X211698938Y-66373440D01*
X211698939Y-66373440D01*
X211704253Y-66374864D01*
X211931250Y-66394724D01*
X212158247Y-66374864D01*
X212163561Y-66373440D01*
X212163562Y-66373440D01*
X212373037Y-66317312D01*
X212373039Y-66317311D01*
X212378347Y-66315889D01*
X212383329Y-66313566D01*
X212579875Y-66221915D01*
X212579880Y-66221912D01*
X212584862Y-66219589D01*
X212589371Y-66216432D01*
X212767006Y-66092051D01*
X212767009Y-66092049D01*
X212771517Y-66088892D01*
X212932642Y-65927767D01*
X213063339Y-65741112D01*
X213065662Y-65736130D01*
X213065665Y-65736125D01*
X213157316Y-65539579D01*
X213157317Y-65539577D01*
X213159639Y-65534597D01*
X213218614Y-65314497D01*
X213238474Y-65087500D01*
X213218614Y-64860503D01*
X213159639Y-64640403D01*
X213157316Y-64635421D01*
X213065665Y-64438875D01*
X213065662Y-64438870D01*
X213063339Y-64433888D01*
X212932642Y-64247233D01*
X212771517Y-64086108D01*
X212767009Y-64082951D01*
X212767006Y-64082949D01*
X212589371Y-63958568D01*
X212589369Y-63958567D01*
X212584862Y-63955411D01*
X212579880Y-63953088D01*
X212579875Y-63953085D01*
X212383329Y-63861434D01*
X212383327Y-63861433D01*
X212378347Y-63859111D01*
X212373039Y-63857689D01*
X212373037Y-63857688D01*
X212163562Y-63801560D01*
X212163561Y-63801560D01*
X212158247Y-63800136D01*
X211931250Y-63780276D01*
X211704253Y-63800136D01*
X211698939Y-63801560D01*
X211698938Y-63801560D01*
X211489463Y-63857688D01*
X211489461Y-63857689D01*
X211484153Y-63859111D01*
X211479173Y-63861433D01*
X211479171Y-63861434D01*
X211282625Y-63953085D01*
X211282620Y-63953088D01*
X211277638Y-63955411D01*
X211273131Y-63958567D01*
X211273129Y-63958568D01*
X211095494Y-64082949D01*
X211095491Y-64082951D01*
X211090983Y-64086108D01*
X210929858Y-64247233D01*
X210799161Y-64433888D01*
X210796838Y-64438870D01*
X210796835Y-64438875D01*
X210705184Y-64635421D01*
X210702861Y-64640403D01*
X210643886Y-64860503D01*
X210624026Y-65087500D01*
X200818750Y-65087500D01*
X200818750Y-61753250D01*
X200838752Y-61685129D01*
X200892408Y-61638636D01*
X200944750Y-61627250D01*
X213469380Y-61627250D01*
X213488767Y-61628751D01*
G37*
G04 #@! TD.AperFunction*
G04 #@! TA.AperFunction,Conductor*
G36*
X143610871Y-61647252D02*
G01*
X143657364Y-61700908D01*
X143668750Y-61753250D01*
X143668750Y-136684250D01*
X143648748Y-136752371D01*
X143595092Y-136798864D01*
X143542750Y-136810250D01*
X131018120Y-136810250D01*
X130998732Y-136808749D01*
X130983912Y-136806441D01*
X130983911Y-136806441D01*
X130975037Y-136805059D01*
X130958743Y-136807189D01*
X130934171Y-136807982D01*
X130788323Y-136798420D01*
X130732559Y-136794764D01*
X130716218Y-136792612D01*
X130492170Y-136748041D01*
X130476251Y-136743776D01*
X130300901Y-136684250D01*
X130259914Y-136670336D01*
X130244696Y-136664032D01*
X130039806Y-136562987D01*
X130025534Y-136554747D01*
X129835595Y-136427830D01*
X129822519Y-136417797D01*
X129650762Y-136267166D01*
X129639108Y-136255512D01*
X129488477Y-136083747D01*
X129478450Y-136070679D01*
X129351526Y-135880721D01*
X129343299Y-135866473D01*
X129242247Y-135661555D01*
X129235947Y-135646343D01*
X129162516Y-135430019D01*
X129158250Y-135414099D01*
X129113682Y-135190038D01*
X129111531Y-135173698D01*
X129099012Y-134982693D01*
X129100175Y-134959734D01*
X129099834Y-134959703D01*
X129100270Y-134954845D01*
X129101076Y-134950052D01*
X129101229Y-134937500D01*
X129097273Y-134909876D01*
X129096000Y-134892014D01*
X129096000Y-133350000D01*
X131249026Y-133350000D01*
X131268886Y-133576997D01*
X131327861Y-133797097D01*
X131330183Y-133802077D01*
X131330184Y-133802079D01*
X131421835Y-133998625D01*
X131421838Y-133998630D01*
X131424161Y-134003612D01*
X131554858Y-134190267D01*
X131715983Y-134351392D01*
X131720491Y-134354549D01*
X131720494Y-134354551D01*
X131898129Y-134478932D01*
X131902638Y-134482089D01*
X131907620Y-134484412D01*
X131907625Y-134484415D01*
X132104171Y-134576066D01*
X132109153Y-134578389D01*
X132114461Y-134579811D01*
X132114463Y-134579812D01*
X132323938Y-134635940D01*
X132323939Y-134635940D01*
X132329253Y-134637364D01*
X132556250Y-134657224D01*
X132783247Y-134637364D01*
X132788561Y-134635940D01*
X132788562Y-134635940D01*
X132998037Y-134579812D01*
X132998039Y-134579811D01*
X133003347Y-134578389D01*
X133008329Y-134576066D01*
X133204875Y-134484415D01*
X133204880Y-134484412D01*
X133209862Y-134482089D01*
X133214371Y-134478932D01*
X133392006Y-134354551D01*
X133392009Y-134354549D01*
X133396517Y-134351392D01*
X133557642Y-134190267D01*
X133688339Y-134003612D01*
X133690662Y-133998630D01*
X133690665Y-133998625D01*
X133782316Y-133802079D01*
X133782317Y-133802077D01*
X133784639Y-133797097D01*
X133843614Y-133576997D01*
X133863474Y-133350000D01*
X133843614Y-133123003D01*
X133784639Y-132902903D01*
X133782316Y-132897921D01*
X133690665Y-132701375D01*
X133690662Y-132701370D01*
X133688339Y-132696388D01*
X133557642Y-132509733D01*
X133396517Y-132348608D01*
X133392009Y-132345451D01*
X133392006Y-132345449D01*
X133214371Y-132221068D01*
X133214369Y-132221067D01*
X133209862Y-132217911D01*
X133204880Y-132215588D01*
X133204875Y-132215585D01*
X133008329Y-132123934D01*
X133008327Y-132123933D01*
X133003347Y-132121611D01*
X132998039Y-132120189D01*
X132998037Y-132120188D01*
X132788562Y-132064060D01*
X132788561Y-132064060D01*
X132783247Y-132062636D01*
X132556250Y-132042776D01*
X132329253Y-132062636D01*
X132323939Y-132064060D01*
X132323938Y-132064060D01*
X132114463Y-132120188D01*
X132114461Y-132120189D01*
X132109153Y-132121611D01*
X132104173Y-132123933D01*
X132104171Y-132123934D01*
X131907625Y-132215585D01*
X131907620Y-132215588D01*
X131902638Y-132217911D01*
X131898131Y-132221067D01*
X131898129Y-132221068D01*
X131720494Y-132345449D01*
X131720491Y-132345451D01*
X131715983Y-132348608D01*
X131554858Y-132509733D01*
X131424161Y-132696388D01*
X131421838Y-132701370D01*
X131421835Y-132701375D01*
X131330184Y-132897921D01*
X131327861Y-132902903D01*
X131268886Y-133123003D01*
X131249026Y-133350000D01*
X129096000Y-133350000D01*
X129096000Y-111841794D01*
X129116002Y-111773673D01*
X129169658Y-111727180D01*
X129239932Y-111717076D01*
X129293647Y-111740920D01*
X129294912Y-111739113D01*
X129299145Y-111742077D01*
X129303126Y-111745382D01*
X129496000Y-111858088D01*
X129704692Y-111937780D01*
X129709760Y-111938811D01*
X129709763Y-111938812D01*
X129804862Y-111958160D01*
X129923597Y-111982317D01*
X129928772Y-111982507D01*
X129928774Y-111982507D01*
X130141673Y-111990314D01*
X130141677Y-111990314D01*
X130146837Y-111990503D01*
X130151957Y-111989847D01*
X130151959Y-111989847D01*
X130363288Y-111962775D01*
X130363289Y-111962775D01*
X130368416Y-111962118D01*
X130373366Y-111960633D01*
X130577429Y-111899411D01*
X130577434Y-111899409D01*
X130582384Y-111897924D01*
X130782994Y-111799646D01*
X130964860Y-111669923D01*
X131123096Y-111512239D01*
X131253453Y-111330827D01*
X131254640Y-111331680D01*
X131301960Y-111288112D01*
X131371897Y-111275895D01*
X131437338Y-111303428D01*
X131465166Y-111335261D01*
X131522694Y-111429138D01*
X131528777Y-111437449D01*
X131668213Y-111598417D01*
X131675580Y-111605633D01*
X131839434Y-111741666D01*
X131847881Y-111747581D01*
X132031756Y-111855029D01*
X132041042Y-111859479D01*
X132240001Y-111935453D01*
X132249899Y-111938329D01*
X132353250Y-111959356D01*
X132367299Y-111958160D01*
X132371000Y-111947815D01*
X132371000Y-111947267D01*
X132879000Y-111947267D01*
X132883064Y-111961109D01*
X132896478Y-111963143D01*
X132903184Y-111962284D01*
X132913262Y-111960142D01*
X133117255Y-111898941D01*
X133126842Y-111895183D01*
X133318095Y-111801489D01*
X133326945Y-111796214D01*
X133500328Y-111672542D01*
X133508200Y-111665889D01*
X133659052Y-111515562D01*
X133665730Y-111507715D01*
X133790003Y-111334770D01*
X133795313Y-111325933D01*
X133889670Y-111135017D01*
X133893469Y-111125422D01*
X133955377Y-110921660D01*
X133957555Y-110911587D01*
X133958986Y-110900712D01*
X133956775Y-110886528D01*
X133943617Y-110882750D01*
X132897115Y-110882750D01*
X132881876Y-110887225D01*
X132880671Y-110888615D01*
X132879000Y-110896298D01*
X132879000Y-111947267D01*
X132371000Y-111947267D01*
X132371000Y-110500750D01*
X132391002Y-110432629D01*
X132444658Y-110386136D01*
X132497000Y-110374750D01*
X133943344Y-110374750D01*
X133956875Y-110370777D01*
X133958180Y-110361697D01*
X133916214Y-110194625D01*
X133912894Y-110184874D01*
X133827972Y-109989564D01*
X133823105Y-109980489D01*
X133707426Y-109801676D01*
X133701136Y-109793507D01*
X133557806Y-109635990D01*
X133550273Y-109628965D01*
X133383139Y-109496972D01*
X133374556Y-109491270D01*
X133337602Y-109470870D01*
X133287631Y-109420437D01*
X133272859Y-109350995D01*
X133297975Y-109284589D01*
X133325327Y-109257982D01*
X133348797Y-109241241D01*
X133504860Y-109129923D01*
X133663096Y-108972239D01*
X133793453Y-108790827D01*
X133814320Y-108748607D01*
X133890136Y-108595203D01*
X133890137Y-108595201D01*
X133892430Y-108590561D01*
X133957370Y-108376819D01*
X133986529Y-108155340D01*
X133988156Y-108088750D01*
X133969852Y-107866111D01*
X133915431Y-107649452D01*
X133826354Y-107444590D01*
X133705014Y-107257027D01*
X133554670Y-107091801D01*
X133550619Y-107088602D01*
X133550615Y-107088598D01*
X133383414Y-106956550D01*
X133383410Y-106956548D01*
X133379359Y-106953348D01*
X133338053Y-106930546D01*
X133288084Y-106880114D01*
X133273312Y-106810671D01*
X133298428Y-106744266D01*
X133325780Y-106717659D01*
X133369603Y-106686400D01*
X133504860Y-106589923D01*
X133663096Y-106432239D01*
X133793453Y-106250827D01*
X133814320Y-106208607D01*
X133890136Y-106055203D01*
X133890137Y-106055201D01*
X133892430Y-106050561D01*
X133957370Y-105836819D01*
X133986529Y-105615340D01*
X133988156Y-105548750D01*
X133969852Y-105326111D01*
X133915431Y-105109452D01*
X133826354Y-104904590D01*
X133705014Y-104717027D01*
X133554670Y-104551801D01*
X133550619Y-104548602D01*
X133550615Y-104548598D01*
X133383414Y-104416550D01*
X133383410Y-104416548D01*
X133379359Y-104413348D01*
X133338053Y-104390546D01*
X133288084Y-104340114D01*
X133273312Y-104270671D01*
X133298428Y-104204266D01*
X133325780Y-104177659D01*
X133369603Y-104146400D01*
X133504860Y-104049923D01*
X133663096Y-103892239D01*
X133793453Y-103710827D01*
X133814320Y-103668607D01*
X133890136Y-103515203D01*
X133890137Y-103515201D01*
X133892430Y-103510561D01*
X133957370Y-103296819D01*
X133986529Y-103075340D01*
X133988156Y-103008750D01*
X133969852Y-102786111D01*
X133915431Y-102569452D01*
X133826354Y-102364590D01*
X133705014Y-102177027D01*
X133554670Y-102011801D01*
X133550619Y-102008602D01*
X133550615Y-102008598D01*
X133383414Y-101876550D01*
X133383410Y-101876548D01*
X133379359Y-101873348D01*
X133338053Y-101850546D01*
X133288084Y-101800114D01*
X133273312Y-101730671D01*
X133298428Y-101664266D01*
X133325780Y-101637659D01*
X133369603Y-101606400D01*
X133504860Y-101509923D01*
X133663096Y-101352239D01*
X133793453Y-101170827D01*
X133814320Y-101128607D01*
X133890136Y-100975203D01*
X133890137Y-100975201D01*
X133892430Y-100970561D01*
X133957370Y-100756819D01*
X133986529Y-100535340D01*
X133988156Y-100468750D01*
X133969852Y-100246111D01*
X133915431Y-100029452D01*
X133826354Y-99824590D01*
X133705014Y-99637027D01*
X133554670Y-99471801D01*
X133550619Y-99468602D01*
X133550615Y-99468598D01*
X133383414Y-99336550D01*
X133383410Y-99336548D01*
X133379359Y-99333348D01*
X133338053Y-99310546D01*
X133288084Y-99260114D01*
X133273312Y-99190671D01*
X133298428Y-99124266D01*
X133325780Y-99097659D01*
X133369603Y-99066400D01*
X133504860Y-98969923D01*
X133663096Y-98812239D01*
X133793453Y-98630827D01*
X133814320Y-98588607D01*
X133890136Y-98435203D01*
X133890137Y-98435201D01*
X133892430Y-98430561D01*
X133957370Y-98216819D01*
X133986529Y-97995340D01*
X133988156Y-97928750D01*
X133969852Y-97706111D01*
X133915431Y-97489452D01*
X133826354Y-97284590D01*
X133705014Y-97097027D01*
X133554670Y-96931801D01*
X133550619Y-96928602D01*
X133550615Y-96928598D01*
X133383414Y-96796550D01*
X133383410Y-96796548D01*
X133379359Y-96793348D01*
X133338053Y-96770546D01*
X133288084Y-96720114D01*
X133273312Y-96650671D01*
X133298428Y-96584266D01*
X133325780Y-96557659D01*
X133369603Y-96526400D01*
X133504860Y-96429923D01*
X133663096Y-96272239D01*
X133793453Y-96090827D01*
X133814320Y-96048607D01*
X133890136Y-95895203D01*
X133890137Y-95895201D01*
X133892430Y-95890561D01*
X133957370Y-95676819D01*
X133986529Y-95455340D01*
X133988156Y-95388750D01*
X133969852Y-95166111D01*
X133915431Y-94949452D01*
X133826354Y-94744590D01*
X133705014Y-94557027D01*
X133554670Y-94391801D01*
X133550619Y-94388602D01*
X133550615Y-94388598D01*
X133383414Y-94256550D01*
X133383410Y-94256548D01*
X133379359Y-94253348D01*
X133338053Y-94230546D01*
X133288084Y-94180114D01*
X133273312Y-94110671D01*
X133298428Y-94044266D01*
X133325780Y-94017659D01*
X133369603Y-93986400D01*
X133504860Y-93889923D01*
X133663096Y-93732239D01*
X133793453Y-93550827D01*
X133814320Y-93508607D01*
X133890136Y-93355203D01*
X133890137Y-93355201D01*
X133892430Y-93350561D01*
X133957370Y-93136819D01*
X133986529Y-92915340D01*
X133988156Y-92848750D01*
X133969852Y-92626111D01*
X133915431Y-92409452D01*
X133826354Y-92204590D01*
X133705014Y-92017027D01*
X133554670Y-91851801D01*
X133550619Y-91848602D01*
X133550615Y-91848598D01*
X133383414Y-91716550D01*
X133383410Y-91716548D01*
X133379359Y-91713348D01*
X133338053Y-91690546D01*
X133288084Y-91640114D01*
X133273312Y-91570671D01*
X133298428Y-91504266D01*
X133325780Y-91477659D01*
X133369603Y-91446400D01*
X133504860Y-91349923D01*
X133663096Y-91192239D01*
X133793453Y-91010827D01*
X133814320Y-90968607D01*
X133890136Y-90815203D01*
X133890137Y-90815201D01*
X133892430Y-90810561D01*
X133957370Y-90596819D01*
X133986529Y-90375340D01*
X133988156Y-90308750D01*
X133969852Y-90086111D01*
X133915431Y-89869452D01*
X133826354Y-89664590D01*
X133705014Y-89477027D01*
X133701532Y-89473200D01*
X133557798Y-89315238D01*
X133526746Y-89251392D01*
X133535141Y-89180893D01*
X133580317Y-89126125D01*
X133606761Y-89112456D01*
X133713297Y-89072517D01*
X133721705Y-89069365D01*
X133838261Y-88982011D01*
X133925615Y-88865455D01*
X133976745Y-88729066D01*
X133983500Y-88666884D01*
X133983500Y-86870616D01*
X133976745Y-86808434D01*
X133925615Y-86672045D01*
X133838261Y-86555489D01*
X133721705Y-86468135D01*
X133585316Y-86417005D01*
X133523134Y-86410250D01*
X131726866Y-86410250D01*
X131664684Y-86417005D01*
X131528295Y-86468135D01*
X131411739Y-86555489D01*
X131324385Y-86672045D01*
X131321233Y-86680453D01*
X131279919Y-86790657D01*
X131237277Y-86847421D01*
X131170716Y-86872121D01*
X131101367Y-86856913D01*
X131068743Y-86831226D01*
X131018151Y-86775625D01*
X131018142Y-86775616D01*
X131014670Y-86771801D01*
X131010619Y-86768602D01*
X131010615Y-86768598D01*
X130843414Y-86636550D01*
X130843410Y-86636548D01*
X130839359Y-86633348D01*
X130816638Y-86620805D01*
X130787136Y-86604519D01*
X130643789Y-86525388D01*
X130638920Y-86523664D01*
X130638916Y-86523662D01*
X130438087Y-86452545D01*
X130438083Y-86452544D01*
X130433212Y-86450819D01*
X130428119Y-86449912D01*
X130428116Y-86449911D01*
X130218373Y-86412550D01*
X130218367Y-86412549D01*
X130213284Y-86411644D01*
X130139452Y-86410742D01*
X129995081Y-86408978D01*
X129995079Y-86408978D01*
X129989911Y-86408915D01*
X129769091Y-86442705D01*
X129556756Y-86512107D01*
X129358607Y-86615257D01*
X129354473Y-86618361D01*
X129297652Y-86661023D01*
X129231167Y-86685928D01*
X129161772Y-86670935D01*
X129111498Y-86620805D01*
X129096000Y-86560262D01*
X129096000Y-65087500D01*
X131249026Y-65087500D01*
X131268886Y-65314497D01*
X131327861Y-65534597D01*
X131330183Y-65539577D01*
X131330184Y-65539579D01*
X131421835Y-65736125D01*
X131421838Y-65736130D01*
X131424161Y-65741112D01*
X131554858Y-65927767D01*
X131715983Y-66088892D01*
X131720491Y-66092049D01*
X131720494Y-66092051D01*
X131898129Y-66216432D01*
X131902638Y-66219589D01*
X131907620Y-66221912D01*
X131907625Y-66221915D01*
X132104171Y-66313566D01*
X132109153Y-66315889D01*
X132114461Y-66317311D01*
X132114463Y-66317312D01*
X132323938Y-66373440D01*
X132323939Y-66373440D01*
X132329253Y-66374864D01*
X132556250Y-66394724D01*
X132783247Y-66374864D01*
X132788561Y-66373440D01*
X132788562Y-66373440D01*
X132998037Y-66317312D01*
X132998039Y-66317311D01*
X133003347Y-66315889D01*
X133008329Y-66313566D01*
X133204875Y-66221915D01*
X133204880Y-66221912D01*
X133209862Y-66219589D01*
X133214371Y-66216432D01*
X133392006Y-66092051D01*
X133392009Y-66092049D01*
X133396517Y-66088892D01*
X133557642Y-65927767D01*
X133688339Y-65741112D01*
X133690662Y-65736130D01*
X133690665Y-65736125D01*
X133782316Y-65539579D01*
X133782317Y-65539577D01*
X133784639Y-65534597D01*
X133843614Y-65314497D01*
X133863474Y-65087500D01*
X133843614Y-64860503D01*
X133784639Y-64640403D01*
X133782316Y-64635421D01*
X133690665Y-64438875D01*
X133690662Y-64438870D01*
X133688339Y-64433888D01*
X133557642Y-64247233D01*
X133396517Y-64086108D01*
X133392009Y-64082951D01*
X133392006Y-64082949D01*
X133214371Y-63958568D01*
X133214369Y-63958567D01*
X133209862Y-63955411D01*
X133204880Y-63953088D01*
X133204875Y-63953085D01*
X133008329Y-63861434D01*
X133008327Y-63861433D01*
X133003347Y-63859111D01*
X132998039Y-63857689D01*
X132998037Y-63857688D01*
X132788562Y-63801560D01*
X132788561Y-63801560D01*
X132783247Y-63800136D01*
X132556250Y-63780276D01*
X132329253Y-63800136D01*
X132323939Y-63801560D01*
X132323938Y-63801560D01*
X132114463Y-63857688D01*
X132114461Y-63857689D01*
X132109153Y-63859111D01*
X132104173Y-63861433D01*
X132104171Y-63861434D01*
X131907625Y-63953085D01*
X131907620Y-63953088D01*
X131902638Y-63955411D01*
X131898131Y-63958567D01*
X131898129Y-63958568D01*
X131720494Y-64082949D01*
X131720491Y-64082951D01*
X131715983Y-64086108D01*
X131554858Y-64247233D01*
X131424161Y-64433888D01*
X131421838Y-64438870D01*
X131421835Y-64438875D01*
X131330184Y-64635421D01*
X131327861Y-64640403D01*
X131268886Y-64860503D01*
X131249026Y-65087500D01*
X129096000Y-65087500D01*
X129096000Y-63553250D01*
X129097746Y-63532345D01*
X129100270Y-63517344D01*
X129100270Y-63517341D01*
X129101076Y-63512552D01*
X129101229Y-63500000D01*
X129099503Y-63487947D01*
X129098501Y-63461845D01*
X129111482Y-63263796D01*
X129113633Y-63247457D01*
X129158201Y-63023389D01*
X129162467Y-63007468D01*
X129235901Y-62791138D01*
X129242205Y-62775919D01*
X129343246Y-62571023D01*
X129351486Y-62556750D01*
X129478409Y-62366794D01*
X129488442Y-62353719D01*
X129639073Y-62181953D01*
X129650727Y-62170298D01*
X129822488Y-62019664D01*
X129835564Y-62009631D01*
X130025509Y-61882710D01*
X130039782Y-61874469D01*
X130244677Y-61773422D01*
X130259895Y-61767118D01*
X130365271Y-61731346D01*
X130476238Y-61693676D01*
X130492157Y-61689411D01*
X130716212Y-61644839D01*
X130732553Y-61642687D01*
X130926779Y-61629953D01*
X130950905Y-61631026D01*
X130953607Y-61631059D01*
X130962485Y-61632441D01*
X130994040Y-61628314D01*
X131010381Y-61627250D01*
X143542750Y-61627250D01*
X143610871Y-61647252D01*
G37*
G04 #@! TD.AperFunction*
M02*
