G04 #@! TF.GenerationSoftware,KiCad,Pcbnew,(6.0.9)*
G04 #@! TF.CreationDate,2023-04-02T22:45:38-05:00*
G04 #@! TF.ProjectId,Navigation Keys,4e617669-6761-4746-996f-6e204b657973,rev?*
G04 #@! TF.SameCoordinates,Original*
G04 #@! TF.FileFunction,Legend,Top*
G04 #@! TF.FilePolarity,Positive*
%FSLAX46Y46*%
G04 Gerber Fmt 4.6, Leading zero omitted, Abs format (unit mm)*
G04 Created by KiCad (PCBNEW (6.0.9)) date 2023-04-02 22:45:38*
%MOMM*%
%LPD*%
G01*
G04 APERTURE LIST*
%ADD10C,0.150000*%
%ADD11C,0.120000*%
%ADD12R,1.200000X0.900000*%
%ADD13C,3.987800*%
%ADD14C,1.750000*%
%ADD15R,1.700000X1.700000*%
%ADD16O,1.700000X1.700000*%
G04 APERTURE END LIST*
D10*
X159583630Y-90431845D02*
X158583630Y-90431845D01*
X158583630Y-90193750D01*
X158631250Y-90050892D01*
X158726488Y-89955654D01*
X158821726Y-89908035D01*
X159012202Y-89860416D01*
X159155059Y-89860416D01*
X159345535Y-89908035D01*
X159440773Y-89955654D01*
X159536011Y-90050892D01*
X159583630Y-90193750D01*
X159583630Y-90431845D01*
X158678869Y-89479464D02*
X158631250Y-89431845D01*
X158583630Y-89336607D01*
X158583630Y-89098511D01*
X158631250Y-89003273D01*
X158678869Y-88955654D01*
X158774107Y-88908035D01*
X158869345Y-88908035D01*
X159012202Y-88955654D01*
X159583630Y-89527083D01*
X159583630Y-88908035D01*
X159583630Y-71381845D02*
X158583630Y-71381845D01*
X158583630Y-71143750D01*
X158631250Y-71000892D01*
X158726488Y-70905654D01*
X158821726Y-70858035D01*
X159012202Y-70810416D01*
X159155059Y-70810416D01*
X159345535Y-70858035D01*
X159440773Y-70905654D01*
X159536011Y-71000892D01*
X159583630Y-71143750D01*
X159583630Y-71381845D01*
X159583630Y-69858035D02*
X159583630Y-70429464D01*
X159583630Y-70143750D02*
X158583630Y-70143750D01*
X158726488Y-70238988D01*
X158821726Y-70334226D01*
X158869345Y-70429464D01*
X159583630Y-128531845D02*
X158583630Y-128531845D01*
X158583630Y-128293750D01*
X158631250Y-128150892D01*
X158726488Y-128055654D01*
X158821726Y-128008035D01*
X159012202Y-127960416D01*
X159155059Y-127960416D01*
X159345535Y-128008035D01*
X159440773Y-128055654D01*
X159536011Y-128150892D01*
X159583630Y-128293750D01*
X159583630Y-128531845D01*
X158583630Y-127627083D02*
X158583630Y-127008035D01*
X158964583Y-127341369D01*
X158964583Y-127198511D01*
X159012202Y-127103273D01*
X159059821Y-127055654D01*
X159155059Y-127008035D01*
X159393154Y-127008035D01*
X159488392Y-127055654D01*
X159536011Y-127103273D01*
X159583630Y-127198511D01*
X159583630Y-127484226D01*
X159536011Y-127579464D01*
X159488392Y-127627083D01*
X178633630Y-71381845D02*
X177633630Y-71381845D01*
X177633630Y-71143750D01*
X177681250Y-71000892D01*
X177776488Y-70905654D01*
X177871726Y-70858035D01*
X178062202Y-70810416D01*
X178205059Y-70810416D01*
X178395535Y-70858035D01*
X178490773Y-70905654D01*
X178586011Y-71000892D01*
X178633630Y-71143750D01*
X178633630Y-71381845D01*
X177966964Y-69953273D02*
X178633630Y-69953273D01*
X177586011Y-70191369D02*
X178300297Y-70429464D01*
X178300297Y-69810416D01*
X197683630Y-129008035D02*
X196683630Y-129008035D01*
X196683630Y-128769940D01*
X196731250Y-128627083D01*
X196826488Y-128531845D01*
X196921726Y-128484226D01*
X197112202Y-128436607D01*
X197255059Y-128436607D01*
X197445535Y-128484226D01*
X197540773Y-128531845D01*
X197636011Y-128627083D01*
X197683630Y-128769940D01*
X197683630Y-129008035D01*
X197683630Y-127484226D02*
X197683630Y-128055654D01*
X197683630Y-127769940D02*
X196683630Y-127769940D01*
X196826488Y-127865178D01*
X196921726Y-127960416D01*
X196969345Y-128055654D01*
X196683630Y-126865178D02*
X196683630Y-126769940D01*
X196731250Y-126674702D01*
X196778869Y-126627083D01*
X196874107Y-126579464D01*
X197064583Y-126531845D01*
X197302678Y-126531845D01*
X197493154Y-126579464D01*
X197588392Y-126627083D01*
X197636011Y-126674702D01*
X197683630Y-126769940D01*
X197683630Y-126865178D01*
X197636011Y-126960416D01*
X197588392Y-127008035D01*
X197493154Y-127055654D01*
X197302678Y-127103273D01*
X197064583Y-127103273D01*
X196874107Y-127055654D01*
X196778869Y-127008035D01*
X196731250Y-126960416D01*
X196683630Y-126865178D01*
X178633630Y-90431845D02*
X177633630Y-90431845D01*
X177633630Y-90193750D01*
X177681250Y-90050892D01*
X177776488Y-89955654D01*
X177871726Y-89908035D01*
X178062202Y-89860416D01*
X178205059Y-89860416D01*
X178395535Y-89908035D01*
X178490773Y-89955654D01*
X178586011Y-90050892D01*
X178633630Y-90193750D01*
X178633630Y-90431845D01*
X177633630Y-88955654D02*
X177633630Y-89431845D01*
X178109821Y-89479464D01*
X178062202Y-89431845D01*
X178014583Y-89336607D01*
X178014583Y-89098511D01*
X178062202Y-89003273D01*
X178109821Y-88955654D01*
X178205059Y-88908035D01*
X178443154Y-88908035D01*
X178538392Y-88955654D01*
X178586011Y-89003273D01*
X178633630Y-89098511D01*
X178633630Y-89336607D01*
X178586011Y-89431845D01*
X178538392Y-89479464D01*
X217252916Y-85288630D02*
X217252916Y-86002916D01*
X217205297Y-86145773D01*
X217110059Y-86241011D01*
X216967202Y-86288630D01*
X216871964Y-86288630D01*
X217681488Y-85383869D02*
X217729107Y-85336250D01*
X217824345Y-85288630D01*
X218062440Y-85288630D01*
X218157678Y-85336250D01*
X218205297Y-85383869D01*
X218252916Y-85479107D01*
X218252916Y-85574345D01*
X218205297Y-85717202D01*
X217633869Y-86288630D01*
X218252916Y-86288630D01*
X126641666Y-84451130D02*
X126641666Y-85165416D01*
X126594047Y-85308273D01*
X126498809Y-85403511D01*
X126355952Y-85451130D01*
X126260714Y-85451130D01*
X127641666Y-85451130D02*
X127070238Y-85451130D01*
X127355952Y-85451130D02*
X127355952Y-84451130D01*
X127260714Y-84593988D01*
X127165476Y-84689226D01*
X127070238Y-84736845D01*
X178633630Y-109481845D02*
X177633630Y-109481845D01*
X177633630Y-109243750D01*
X177681250Y-109100892D01*
X177776488Y-109005654D01*
X177871726Y-108958035D01*
X178062202Y-108910416D01*
X178205059Y-108910416D01*
X178395535Y-108958035D01*
X178490773Y-109005654D01*
X178586011Y-109100892D01*
X178633630Y-109243750D01*
X178633630Y-109481845D01*
X177633630Y-108053273D02*
X177633630Y-108243750D01*
X177681250Y-108338988D01*
X177728869Y-108386607D01*
X177871726Y-108481845D01*
X178062202Y-108529464D01*
X178443154Y-108529464D01*
X178538392Y-108481845D01*
X178586011Y-108434226D01*
X178633630Y-108338988D01*
X178633630Y-108148511D01*
X178586011Y-108053273D01*
X178538392Y-108005654D01*
X178443154Y-107958035D01*
X178205059Y-107958035D01*
X178109821Y-108005654D01*
X178062202Y-108053273D01*
X178014583Y-108148511D01*
X178014583Y-108338988D01*
X178062202Y-108434226D01*
X178109821Y-108481845D01*
X178205059Y-108529464D01*
X178633630Y-128531845D02*
X177633630Y-128531845D01*
X177633630Y-128293750D01*
X177681250Y-128150892D01*
X177776488Y-128055654D01*
X177871726Y-128008035D01*
X178062202Y-127960416D01*
X178205059Y-127960416D01*
X178395535Y-128008035D01*
X178490773Y-128055654D01*
X178586011Y-128150892D01*
X178633630Y-128293750D01*
X178633630Y-128531845D01*
X177633630Y-127627083D02*
X177633630Y-126960416D01*
X178633630Y-127388988D01*
X197683630Y-90431845D02*
X196683630Y-90431845D01*
X196683630Y-90193750D01*
X196731250Y-90050892D01*
X196826488Y-89955654D01*
X196921726Y-89908035D01*
X197112202Y-89860416D01*
X197255059Y-89860416D01*
X197445535Y-89908035D01*
X197540773Y-89955654D01*
X197636011Y-90050892D01*
X197683630Y-90193750D01*
X197683630Y-90431845D01*
X197683630Y-89384226D02*
X197683630Y-89193750D01*
X197636011Y-89098511D01*
X197588392Y-89050892D01*
X197445535Y-88955654D01*
X197255059Y-88908035D01*
X196874107Y-88908035D01*
X196778869Y-88955654D01*
X196731250Y-89003273D01*
X196683630Y-89098511D01*
X196683630Y-89288988D01*
X196731250Y-89384226D01*
X196778869Y-89431845D01*
X196874107Y-89479464D01*
X197112202Y-89479464D01*
X197207440Y-89431845D01*
X197255059Y-89384226D01*
X197302678Y-89288988D01*
X197302678Y-89098511D01*
X197255059Y-89003273D01*
X197207440Y-88955654D01*
X197112202Y-88908035D01*
X197683630Y-71381845D02*
X196683630Y-71381845D01*
X196683630Y-71143750D01*
X196731250Y-71000892D01*
X196826488Y-70905654D01*
X196921726Y-70858035D01*
X197112202Y-70810416D01*
X197255059Y-70810416D01*
X197445535Y-70858035D01*
X197540773Y-70905654D01*
X197636011Y-71000892D01*
X197683630Y-71143750D01*
X197683630Y-71381845D01*
X197112202Y-70238988D02*
X197064583Y-70334226D01*
X197016964Y-70381845D01*
X196921726Y-70429464D01*
X196874107Y-70429464D01*
X196778869Y-70381845D01*
X196731250Y-70334226D01*
X196683630Y-70238988D01*
X196683630Y-70048511D01*
X196731250Y-69953273D01*
X196778869Y-69905654D01*
X196874107Y-69858035D01*
X196921726Y-69858035D01*
X197016964Y-69905654D01*
X197064583Y-69953273D01*
X197112202Y-70048511D01*
X197112202Y-70238988D01*
X197159821Y-70334226D01*
X197207440Y-70381845D01*
X197302678Y-70429464D01*
X197493154Y-70429464D01*
X197588392Y-70381845D01*
X197636011Y-70334226D01*
X197683630Y-70238988D01*
X197683630Y-70048511D01*
X197636011Y-69953273D01*
X197588392Y-69905654D01*
X197493154Y-69858035D01*
X197302678Y-69858035D01*
X197207440Y-69905654D01*
X197159821Y-69953273D01*
X197112202Y-70048511D01*
D11*
X160131250Y-91943750D02*
X162131250Y-91943750D01*
X160131250Y-91943750D02*
X160131250Y-88043750D01*
X162131250Y-91943750D02*
X162131250Y-88043750D01*
X162131250Y-72893750D02*
X162131250Y-68993750D01*
X160131250Y-72893750D02*
X160131250Y-68993750D01*
X160131250Y-72893750D02*
X162131250Y-72893750D01*
X160131250Y-130043750D02*
X160131250Y-126143750D01*
X160131250Y-130043750D02*
X162131250Y-130043750D01*
X162131250Y-130043750D02*
X162131250Y-126143750D01*
X181181250Y-72893750D02*
X181181250Y-68993750D01*
X179181250Y-72893750D02*
X181181250Y-72893750D01*
X179181250Y-72893750D02*
X179181250Y-68993750D01*
X198231250Y-130043750D02*
X198231250Y-126143750D01*
X198231250Y-130043750D02*
X200231250Y-130043750D01*
X200231250Y-130043750D02*
X200231250Y-126143750D01*
X179181250Y-91943750D02*
X181181250Y-91943750D01*
X179181250Y-91943750D02*
X179181250Y-88043750D01*
X181181250Y-91943750D02*
X181181250Y-88043750D01*
X224571250Y-87726250D02*
X224571250Y-88486250D01*
X218571250Y-108046250D02*
X224571250Y-108046250D01*
X215514179Y-97886250D02*
X215911250Y-97886250D01*
X215514179Y-103726250D02*
X215911250Y-103726250D01*
X224571250Y-90266250D02*
X224571250Y-91026250D01*
X212974179Y-105506250D02*
X213428321Y-105506250D01*
X215514179Y-88486250D02*
X215911250Y-88486250D01*
X224571250Y-101186250D02*
X218571250Y-101186250D01*
X215514179Y-110586250D02*
X215911250Y-110586250D01*
X212974179Y-95346250D02*
X213428321Y-95346250D01*
X224571250Y-108046250D02*
X224571250Y-108806250D01*
X212974179Y-97886250D02*
X213428321Y-97886250D01*
X218571250Y-88266250D02*
X224571250Y-88266250D01*
X218571250Y-87786250D02*
X224571250Y-87786250D01*
X218571250Y-110586250D02*
X224571250Y-110586250D01*
X224571250Y-93566250D02*
X218571250Y-93566250D01*
X218571250Y-97886250D02*
X224571250Y-97886250D01*
X212974179Y-93566250D02*
X213428321Y-93566250D01*
X218571250Y-95346250D02*
X224571250Y-95346250D01*
X224571250Y-97886250D02*
X224571250Y-98646250D01*
X224571250Y-98646250D02*
X218571250Y-98646250D01*
X224571250Y-100426250D02*
X224571250Y-101186250D01*
X210661250Y-88106250D02*
X210661250Y-86836250D01*
X212974179Y-92806250D02*
X213428321Y-92806250D01*
X218571250Y-86776250D02*
X215911250Y-86776250D01*
X215514179Y-108806250D02*
X215911250Y-108806250D01*
X215514179Y-105506250D02*
X215911250Y-105506250D01*
X224571250Y-106266250D02*
X218571250Y-106266250D01*
X215911250Y-104616250D02*
X218571250Y-104616250D01*
X213041250Y-87726250D02*
X213428321Y-87726250D01*
X215514179Y-101186250D02*
X215911250Y-101186250D01*
X212974179Y-103726250D02*
X213428321Y-103726250D01*
X215514179Y-111346250D02*
X215911250Y-111346250D01*
X212974179Y-90266250D02*
X213428321Y-90266250D01*
X212974179Y-102966250D02*
X213428321Y-102966250D01*
X215514179Y-98646250D02*
X215911250Y-98646250D01*
X224571250Y-96106250D02*
X218571250Y-96106250D01*
X215911250Y-99536250D02*
X218571250Y-99536250D01*
X218571250Y-105506250D02*
X224571250Y-105506250D01*
X215911250Y-102076250D02*
X218571250Y-102076250D01*
X218571250Y-100426250D02*
X224571250Y-100426250D01*
X218571250Y-88026250D02*
X224571250Y-88026250D01*
X212974179Y-100426250D02*
X213428321Y-100426250D01*
X215911250Y-89376250D02*
X218571250Y-89376250D01*
X212974179Y-111346250D02*
X213428321Y-111346250D01*
X212974179Y-96106250D02*
X213428321Y-96106250D01*
X215911250Y-109696250D02*
X218571250Y-109696250D01*
X215911250Y-94456250D02*
X218571250Y-94456250D01*
X212974179Y-106266250D02*
X213428321Y-106266250D01*
X215911250Y-96996250D02*
X218571250Y-96996250D01*
X224571250Y-111346250D02*
X218571250Y-111346250D01*
X218571250Y-87906250D02*
X224571250Y-87906250D01*
X212974179Y-108046250D02*
X213428321Y-108046250D01*
X218571250Y-92806250D02*
X224571250Y-92806250D01*
X215911250Y-86776250D02*
X215911250Y-112296250D01*
X224571250Y-95346250D02*
X224571250Y-96106250D01*
X215514179Y-102966250D02*
X215911250Y-102966250D01*
X213041250Y-88486250D02*
X213428321Y-88486250D01*
X224571250Y-102966250D02*
X224571250Y-103726250D01*
X212974179Y-108806250D02*
X213428321Y-108806250D01*
X215514179Y-95346250D02*
X215911250Y-95346250D01*
X218571250Y-102966250D02*
X224571250Y-102966250D01*
X218571250Y-88386250D02*
X224571250Y-88386250D01*
X212974179Y-101186250D02*
X213428321Y-101186250D01*
X215514179Y-106266250D02*
X215911250Y-106266250D01*
X215514179Y-87726250D02*
X215911250Y-87726250D01*
X224571250Y-92806250D02*
X224571250Y-93566250D01*
X212974179Y-91026250D02*
X213428321Y-91026250D01*
X218571250Y-88146250D02*
X224571250Y-88146250D01*
X218571250Y-112296250D02*
X218571250Y-86776250D01*
X215514179Y-96106250D02*
X215911250Y-96106250D01*
X224571250Y-105506250D02*
X224571250Y-106266250D01*
X224571250Y-91026250D02*
X218571250Y-91026250D01*
X218571250Y-90266250D02*
X224571250Y-90266250D01*
X218571250Y-87726250D02*
X224571250Y-87726250D01*
X212974179Y-98646250D02*
X213428321Y-98646250D01*
X215514179Y-92806250D02*
X215911250Y-92806250D01*
X212974179Y-110586250D02*
X213428321Y-110586250D01*
X224571250Y-110586250D02*
X224571250Y-111346250D01*
X215514179Y-93566250D02*
X215911250Y-93566250D01*
X210661250Y-86836250D02*
X211931250Y-86836250D01*
X215514179Y-90266250D02*
X215911250Y-90266250D01*
X215911250Y-91916250D02*
X218571250Y-91916250D01*
X215911250Y-112296250D02*
X218571250Y-112296250D01*
X224571250Y-108806250D02*
X218571250Y-108806250D01*
X224571250Y-103726250D02*
X218571250Y-103726250D01*
X224571250Y-88486250D02*
X218571250Y-88486250D01*
X215514179Y-91026250D02*
X215911250Y-91026250D01*
X215514179Y-100426250D02*
X215911250Y-100426250D01*
X215911250Y-107156250D02*
X218571250Y-107156250D01*
X215514179Y-108046250D02*
X215911250Y-108046250D01*
X119995000Y-89038750D02*
X128625000Y-89038750D01*
X128625000Y-103368750D02*
X129035000Y-103368750D01*
X119995000Y-88448270D02*
X128625000Y-88448270D01*
X119995000Y-88920650D02*
X128625000Y-88920650D01*
X119995000Y-87975890D02*
X128625000Y-87975890D01*
X133735000Y-86438750D02*
X133735000Y-87768750D01*
X119995000Y-96658750D02*
X128625000Y-96658750D01*
X128625000Y-107728750D02*
X129035000Y-107728750D01*
X119995000Y-88330175D02*
X128625000Y-88330175D01*
X119995000Y-87031130D02*
X128625000Y-87031130D01*
X131135000Y-88128750D02*
X131515000Y-88128750D01*
X119995000Y-86438750D02*
X119995000Y-111958750D01*
X119995000Y-104278750D02*
X128625000Y-104278750D01*
X119995000Y-87857795D02*
X128625000Y-87857795D01*
X131135000Y-108448750D02*
X131575000Y-108448750D01*
X119995000Y-101738750D02*
X128625000Y-101738750D01*
X119995000Y-99198750D02*
X128625000Y-99198750D01*
X131135000Y-107728750D02*
X131575000Y-107728750D01*
X119995000Y-88802555D02*
X128625000Y-88802555D01*
X128625000Y-105188750D02*
X129035000Y-105188750D01*
X131135000Y-103368750D02*
X131575000Y-103368750D01*
X131135000Y-105188750D02*
X131575000Y-105188750D01*
X128625000Y-95028750D02*
X129035000Y-95028750D01*
X128625000Y-102648750D02*
X129035000Y-102648750D01*
X131135000Y-90668750D02*
X131575000Y-90668750D01*
X119995000Y-87385415D02*
X128625000Y-87385415D01*
X128625000Y-98288750D02*
X129035000Y-98288750D01*
X119995000Y-87149225D02*
X128625000Y-87149225D01*
X128625000Y-86438750D02*
X128625000Y-111958750D01*
X119995000Y-88566365D02*
X128625000Y-88566365D01*
X128625000Y-110988750D02*
X129035000Y-110988750D01*
X119995000Y-87503510D02*
X128625000Y-87503510D01*
X131135000Y-95748750D02*
X131575000Y-95748750D01*
X131135000Y-89948750D02*
X131575000Y-89948750D01*
X131135000Y-92488750D02*
X131575000Y-92488750D01*
X131135000Y-100108750D02*
X131575000Y-100108750D01*
X128625000Y-89948750D02*
X129035000Y-89948750D01*
X128625000Y-90668750D02*
X129035000Y-90668750D01*
X131135000Y-97568750D02*
X131575000Y-97568750D01*
X128625000Y-97568750D02*
X129035000Y-97568750D01*
X119995000Y-88093985D02*
X128625000Y-88093985D01*
X119995000Y-86676845D02*
X128625000Y-86676845D01*
X131135000Y-93208750D02*
X131575000Y-93208750D01*
X128625000Y-87408750D02*
X129035000Y-87408750D01*
X131135000Y-98288750D02*
X131575000Y-98288750D01*
X128625000Y-88128750D02*
X129035000Y-88128750D01*
X119995000Y-86913035D02*
X128625000Y-86913035D01*
X119995000Y-86438750D02*
X128625000Y-86438750D01*
X131135000Y-95028750D02*
X131575000Y-95028750D01*
X119995000Y-106818750D02*
X128625000Y-106818750D01*
X119995000Y-86794940D02*
X128625000Y-86794940D01*
X119995000Y-86558750D02*
X128625000Y-86558750D01*
X128625000Y-100108750D02*
X129035000Y-100108750D01*
X128625000Y-100828750D02*
X129035000Y-100828750D01*
X119995000Y-109358750D02*
X128625000Y-109358750D01*
X119995000Y-91578750D02*
X128625000Y-91578750D01*
X128625000Y-95748750D02*
X129035000Y-95748750D01*
X128625000Y-105908750D02*
X129035000Y-105908750D01*
X128625000Y-108448750D02*
X129035000Y-108448750D01*
X131135000Y-87408750D02*
X131515000Y-87408750D01*
X119995000Y-88212080D02*
X128625000Y-88212080D01*
X119995000Y-94118750D02*
X128625000Y-94118750D01*
X128625000Y-110268750D02*
X129035000Y-110268750D01*
X131135000Y-105908750D02*
X131575000Y-105908750D01*
X131135000Y-102648750D02*
X131575000Y-102648750D01*
X132625000Y-86438750D02*
X133735000Y-86438750D01*
X131135000Y-110988750D02*
X131575000Y-110988750D01*
X131135000Y-100828750D02*
X131575000Y-100828750D01*
X119995000Y-111958750D02*
X128625000Y-111958750D01*
X119995000Y-87267320D02*
X128625000Y-87267320D01*
X119995000Y-87739700D02*
X128625000Y-87739700D01*
X128625000Y-92488750D02*
X129035000Y-92488750D01*
X119995000Y-87621605D02*
X128625000Y-87621605D01*
X131135000Y-110268750D02*
X131575000Y-110268750D01*
X128625000Y-93208750D02*
X129035000Y-93208750D01*
X119995000Y-88684460D02*
X128625000Y-88684460D01*
X179181250Y-110993750D02*
X181181250Y-110993750D01*
X179181250Y-110993750D02*
X179181250Y-107093750D01*
X181181250Y-110993750D02*
X181181250Y-107093750D01*
X179181250Y-130043750D02*
X179181250Y-126143750D01*
X179181250Y-130043750D02*
X181181250Y-130043750D01*
X181181250Y-130043750D02*
X181181250Y-126143750D01*
X198231250Y-91943750D02*
X198231250Y-88043750D01*
X200231250Y-91943750D02*
X200231250Y-88043750D01*
X198231250Y-91943750D02*
X200231250Y-91943750D01*
X200231250Y-72893750D02*
X200231250Y-68993750D01*
X198231250Y-72893750D02*
X200231250Y-72893750D01*
X198231250Y-72893750D02*
X198231250Y-68993750D01*
%LPC*%
D12*
X161131250Y-91343750D03*
X161131250Y-88043750D03*
X161131250Y-72293750D03*
X161131250Y-68993750D03*
X161131250Y-129443750D03*
X161131250Y-126143750D03*
D13*
X191293750Y-127793750D03*
D14*
X196373750Y-127793750D03*
X186213750Y-127793750D03*
D12*
X180181250Y-72293750D03*
X180181250Y-68993750D03*
D14*
X148113750Y-70643750D03*
D13*
X153193750Y-70643750D03*
D14*
X158273750Y-70643750D03*
D13*
X191293750Y-70643750D03*
D14*
X186213750Y-70643750D03*
X196373750Y-70643750D03*
D12*
X199231250Y-129443750D03*
X199231250Y-126143750D03*
X180181250Y-91343750D03*
X180181250Y-88043750D03*
D15*
X211931250Y-88106250D03*
D16*
X214471250Y-88106250D03*
X211931250Y-90646250D03*
X214471250Y-90646250D03*
X211931250Y-93186250D03*
X214471250Y-93186250D03*
X211931250Y-95726250D03*
X214471250Y-95726250D03*
X211931250Y-98266250D03*
X214471250Y-98266250D03*
X211931250Y-100806250D03*
X214471250Y-100806250D03*
X211931250Y-103346250D03*
X214471250Y-103346250D03*
X211931250Y-105886250D03*
X214471250Y-105886250D03*
X211931250Y-108426250D03*
X214471250Y-108426250D03*
X211931250Y-110966250D03*
X214471250Y-110966250D03*
D14*
X177323750Y-70643750D03*
D13*
X172243750Y-70643750D03*
D14*
X167163750Y-70643750D03*
D15*
X132625000Y-87768750D03*
D16*
X130085000Y-87768750D03*
X132625000Y-90308750D03*
X130085000Y-90308750D03*
X132625000Y-92848750D03*
X130085000Y-92848750D03*
X132625000Y-95388750D03*
X130085000Y-95388750D03*
X132625000Y-97928750D03*
X130085000Y-97928750D03*
X132625000Y-100468750D03*
X130085000Y-100468750D03*
X132625000Y-103008750D03*
X130085000Y-103008750D03*
X132625000Y-105548750D03*
X130085000Y-105548750D03*
X132625000Y-108088750D03*
X130085000Y-108088750D03*
X132625000Y-110628750D03*
X130085000Y-110628750D03*
D13*
X153193750Y-127793750D03*
D14*
X158273750Y-127793750D03*
X148113750Y-127793750D03*
D13*
X153193750Y-89693750D03*
D14*
X158273750Y-89693750D03*
X148113750Y-89693750D03*
D12*
X180181250Y-110393750D03*
X180181250Y-107093750D03*
D13*
X172243750Y-89693750D03*
D14*
X177323750Y-89693750D03*
X167163750Y-89693750D03*
D13*
X191293750Y-89693750D03*
D14*
X196373750Y-89693750D03*
X186213750Y-89693750D03*
X167163750Y-108743750D03*
D13*
X172243750Y-108743750D03*
D14*
X177323750Y-108743750D03*
D12*
X180181250Y-129443750D03*
X180181250Y-126143750D03*
X199231250Y-91343750D03*
X199231250Y-88043750D03*
X199231250Y-72293750D03*
X199231250Y-68993750D03*
D13*
X172243750Y-127793750D03*
D14*
X167163750Y-127793750D03*
X177323750Y-127793750D03*
M02*
