M48
; DRILL file {KiCad (6.0.9)} date Fri Mar 10 16:44:19 2023
; FORMAT={-:-/ absolute / metric / decimal}
; #@! TF.CreationDate,2023-03-10T16:44:19-06:00
; #@! TF.GenerationSoftware,Kicad,Pcbnew,(6.0.9)
; #@! TF.FileFunction,NonPlated,1,2,NPTH
FMAT,2
METRIC
; #@! TA.AperFunction,NonPlated,NPTH,ComponentDrill
T1C1.750
; #@! TA.AperFunction,NonPlated,NPTH,ComponentDrill
T2C3.988
%
G90
G05
T1
X148.114Y-70.644
X148.114Y-89.694
X148.114Y-127.794
X158.274Y-70.644
X158.274Y-89.694
X158.274Y-127.794
X167.164Y-70.644
X167.164Y-89.694
X167.164Y-108.744
X167.164Y-127.794
X177.324Y-70.644
X177.324Y-89.694
X177.324Y-108.744
X177.324Y-127.794
X186.214Y-70.644
X186.214Y-89.694
X186.214Y-127.794
X196.374Y-70.644
X196.374Y-89.694
X196.374Y-127.794
T2
X153.194Y-70.644
X153.194Y-89.694
X153.194Y-127.794
X172.244Y-70.644
X172.244Y-89.694
X172.244Y-108.744
X172.244Y-127.794
X191.294Y-70.644
X191.294Y-89.694
X191.294Y-127.794
T0
M30
