%TF.GenerationSoftware,KiCad,Pcbnew,(6.0.9)*%
%TF.CreationDate,2023-04-02T22:45:41-05:00*%
%TF.ProjectId,Navigation Keys,4e617669-6761-4746-996f-6e204b657973,rev?*%
%TF.SameCoordinates,Original*%
%TF.FileFunction,Drillmap*%
%TF.FilePolarity,Positive*%
%FSLAX45Y45*%
G04 Gerber Fmt 4.5, Leading zero omitted, Abs format (unit mm)*
G04 Created by KiCad (PCBNEW (6.0.9)) date 2023-04-02 22:45:41*
%MOMM*%
%LPD*%
G01*
G04 APERTURE LIST*
%ADD10C,0.150000*%
%ADD11C,0.100000*%
%ADD12C,0.200000*%
%ADD13C,0.175000*%
%ADD14C,0.398780*%
G04 APERTURE END LIST*
D10*
X12620625Y-13493750D02*
G75*
G03*
X12858750Y-13731875I238125J0D01*
G01*
X21828125Y-6350000D02*
X21828125Y-13493750D01*
D11*
X13355625Y-13335000D02*
G75*
G03*
X13355625Y-13335000I-100000J0D01*
G01*
D10*
X12858750Y-6111875D02*
G75*
G03*
X12620625Y-6350000I0J-238125D01*
G01*
D11*
X19229375Y-10398125D02*
G75*
G03*
X19229375Y-10398125I-100000J0D01*
G01*
X21293125Y-13335000D02*
G75*
G03*
X21293125Y-13335000I-100000J0D01*
G01*
D10*
X21590000Y-13731875D02*
G75*
G03*
X21828125Y-13493750I0J238125D01*
G01*
X12620625Y-6350000D02*
X12620625Y-13493750D01*
X21590000Y-6111875D02*
X12858750Y-6111875D01*
D11*
X15419375Y-11588750D02*
G75*
G03*
X15419375Y-11588750I-100000J0D01*
G01*
X13355625Y-6508750D02*
G75*
G03*
X13355625Y-6508750I-100000J0D01*
G01*
D10*
X21828125Y-6350000D02*
G75*
G03*
X21590000Y-6111875I-238125J0D01*
G01*
X12858750Y-13731875D02*
X21590000Y-13731875D01*
D11*
X21293125Y-6508750D02*
G75*
G03*
X21293125Y-6508750I-100000J0D01*
G01*
D12*
D13*
X14723875Y-6976875D02*
X14898875Y-7151875D01*
X14898875Y-6976875D02*
X14723875Y-7151875D01*
X14723875Y-8881875D02*
X14898875Y-9056875D01*
X14898875Y-8881875D02*
X14723875Y-9056875D01*
X14723875Y-12691875D02*
X14898875Y-12866875D01*
X14898875Y-12691875D02*
X14723875Y-12866875D01*
X15739875Y-6976875D02*
X15914875Y-7151875D01*
X15914875Y-6976875D02*
X15739875Y-7151875D01*
X15739875Y-8881875D02*
X15914875Y-9056875D01*
X15914875Y-8881875D02*
X15739875Y-9056875D01*
X15739875Y-12691875D02*
X15914875Y-12866875D01*
X15914875Y-12691875D02*
X15739875Y-12866875D01*
X16628875Y-6976875D02*
X16803875Y-7151875D01*
X16803875Y-6976875D02*
X16628875Y-7151875D01*
X16628875Y-8881875D02*
X16803875Y-9056875D01*
X16803875Y-8881875D02*
X16628875Y-9056875D01*
X16628875Y-10786875D02*
X16803875Y-10961875D01*
X16803875Y-10786875D02*
X16628875Y-10961875D01*
X16628875Y-12691875D02*
X16803875Y-12866875D01*
X16803875Y-12691875D02*
X16628875Y-12866875D01*
X17644875Y-6976875D02*
X17819875Y-7151875D01*
X17819875Y-6976875D02*
X17644875Y-7151875D01*
X17644875Y-8881875D02*
X17819875Y-9056875D01*
X17819875Y-8881875D02*
X17644875Y-9056875D01*
X17644875Y-10786875D02*
X17819875Y-10961875D01*
X17819875Y-10786875D02*
X17644875Y-10961875D01*
X17644875Y-12691875D02*
X17819875Y-12866875D01*
X17819875Y-12691875D02*
X17644875Y-12866875D01*
X18533875Y-6976875D02*
X18708875Y-7151875D01*
X18708875Y-6976875D02*
X18533875Y-7151875D01*
X18533875Y-8881875D02*
X18708875Y-9056875D01*
X18708875Y-8881875D02*
X18533875Y-9056875D01*
X18533875Y-12691875D02*
X18708875Y-12866875D01*
X18708875Y-12691875D02*
X18533875Y-12866875D01*
X19549875Y-6976875D02*
X19724875Y-7151875D01*
X19724875Y-6976875D02*
X19549875Y-7151875D01*
X19549875Y-8881875D02*
X19724875Y-9056875D01*
X19724875Y-8881875D02*
X19549875Y-9056875D01*
X19549875Y-12691875D02*
X19724875Y-12866875D01*
X19724875Y-12691875D02*
X19549875Y-12866875D01*
D14*
X15518765Y-7064375D02*
G75*
G03*
X15518765Y-7064375I-199390J0D01*
G01*
X15518765Y-8969375D02*
G75*
G03*
X15518765Y-8969375I-199390J0D01*
G01*
X15518765Y-12779375D02*
G75*
G03*
X15518765Y-12779375I-199390J0D01*
G01*
X17423765Y-7064375D02*
G75*
G03*
X17423765Y-7064375I-199390J0D01*
G01*
X17423765Y-8969375D02*
G75*
G03*
X17423765Y-8969375I-199390J0D01*
G01*
X17423765Y-10874375D02*
G75*
G03*
X17423765Y-10874375I-199390J0D01*
G01*
X17423765Y-12779375D02*
G75*
G03*
X17423765Y-12779375I-199390J0D01*
G01*
X19328765Y-7064375D02*
G75*
G03*
X19328765Y-7064375I-199390J0D01*
G01*
X19328765Y-8969375D02*
G75*
G03*
X19328765Y-8969375I-199390J0D01*
G01*
X19328765Y-12779375D02*
G75*
G03*
X19328765Y-12779375I-199390J0D01*
G01*
D12*
X12870744Y-14049851D02*
X12870744Y-13849851D01*
X12918363Y-13849851D01*
X12946934Y-13859375D01*
X12965982Y-13878423D01*
X12975506Y-13897470D01*
X12985030Y-13935565D01*
X12985030Y-13964137D01*
X12975506Y-14002232D01*
X12965982Y-14021280D01*
X12946934Y-14040327D01*
X12918363Y-14049851D01*
X12870744Y-14049851D01*
X13070744Y-14049851D02*
X13070744Y-13916518D01*
X13070744Y-13954613D02*
X13080268Y-13935565D01*
X13089792Y-13926042D01*
X13108839Y-13916518D01*
X13127887Y-13916518D01*
X13194553Y-14049851D02*
X13194553Y-13916518D01*
X13194553Y-13849851D02*
X13185030Y-13859375D01*
X13194553Y-13868899D01*
X13204077Y-13859375D01*
X13194553Y-13849851D01*
X13194553Y-13868899D01*
X13318363Y-14049851D02*
X13299315Y-14040327D01*
X13289792Y-14021280D01*
X13289792Y-13849851D01*
X13423125Y-14049851D02*
X13404077Y-14040327D01*
X13394553Y-14021280D01*
X13394553Y-13849851D01*
X13651696Y-14049851D02*
X13651696Y-13849851D01*
X13718363Y-13992708D01*
X13785030Y-13849851D01*
X13785030Y-14049851D01*
X13965982Y-14049851D02*
X13965982Y-13945089D01*
X13956458Y-13926042D01*
X13937411Y-13916518D01*
X13899315Y-13916518D01*
X13880268Y-13926042D01*
X13965982Y-14040327D02*
X13946934Y-14049851D01*
X13899315Y-14049851D01*
X13880268Y-14040327D01*
X13870744Y-14021280D01*
X13870744Y-14002232D01*
X13880268Y-13983184D01*
X13899315Y-13973661D01*
X13946934Y-13973661D01*
X13965982Y-13964137D01*
X14061220Y-13916518D02*
X14061220Y-14116518D01*
X14061220Y-13926042D02*
X14080268Y-13916518D01*
X14118363Y-13916518D01*
X14137411Y-13926042D01*
X14146934Y-13935565D01*
X14156458Y-13954613D01*
X14156458Y-14011756D01*
X14146934Y-14030803D01*
X14137411Y-14040327D01*
X14118363Y-14049851D01*
X14080268Y-14049851D01*
X14061220Y-14040327D01*
X14242173Y-14030803D02*
X14251696Y-14040327D01*
X14242173Y-14049851D01*
X14232649Y-14040327D01*
X14242173Y-14030803D01*
X14242173Y-14049851D01*
X14242173Y-13926042D02*
X14251696Y-13935565D01*
X14242173Y-13945089D01*
X14232649Y-13935565D01*
X14242173Y-13926042D01*
X14242173Y-13945089D01*
D13*
X12438125Y-14291875D02*
X12613125Y-14466875D01*
X12613125Y-14291875D02*
X12438125Y-14466875D01*
D12*
X12975506Y-14469851D02*
X12861220Y-14469851D01*
X12918363Y-14469851D02*
X12918363Y-14269851D01*
X12899315Y-14298423D01*
X12880268Y-14317470D01*
X12861220Y-14326994D01*
X13061220Y-14450803D02*
X13070744Y-14460327D01*
X13061220Y-14469851D01*
X13051696Y-14460327D01*
X13061220Y-14450803D01*
X13061220Y-14469851D01*
X13137411Y-14269851D02*
X13270744Y-14269851D01*
X13185030Y-14469851D01*
X13442173Y-14269851D02*
X13346934Y-14269851D01*
X13337411Y-14365089D01*
X13346934Y-14355565D01*
X13365982Y-14346042D01*
X13413601Y-14346042D01*
X13432649Y-14355565D01*
X13442173Y-14365089D01*
X13451696Y-14384137D01*
X13451696Y-14431756D01*
X13442173Y-14450803D01*
X13432649Y-14460327D01*
X13413601Y-14469851D01*
X13365982Y-14469851D01*
X13346934Y-14460327D01*
X13337411Y-14450803D01*
X13575506Y-14269851D02*
X13594553Y-14269851D01*
X13613601Y-14279375D01*
X13623125Y-14288899D01*
X13632649Y-14307946D01*
X13642173Y-14346042D01*
X13642173Y-14393661D01*
X13632649Y-14431756D01*
X13623125Y-14450803D01*
X13613601Y-14460327D01*
X13594553Y-14469851D01*
X13575506Y-14469851D01*
X13556458Y-14460327D01*
X13546934Y-14450803D01*
X13537411Y-14431756D01*
X13527887Y-14393661D01*
X13527887Y-14346042D01*
X13537411Y-14307946D01*
X13546934Y-14288899D01*
X13556458Y-14279375D01*
X13575506Y-14269851D01*
X13727887Y-14469851D02*
X13727887Y-14336518D01*
X13727887Y-14355565D02*
X13737411Y-14346042D01*
X13756458Y-14336518D01*
X13785030Y-14336518D01*
X13804077Y-14346042D01*
X13813601Y-14365089D01*
X13813601Y-14469851D01*
X13813601Y-14365089D02*
X13823125Y-14346042D01*
X13842173Y-14336518D01*
X13870744Y-14336518D01*
X13889792Y-14346042D01*
X13899315Y-14365089D01*
X13899315Y-14469851D01*
X13994553Y-14469851D02*
X13994553Y-14336518D01*
X13994553Y-14355565D02*
X14004077Y-14346042D01*
X14023125Y-14336518D01*
X14051696Y-14336518D01*
X14070744Y-14346042D01*
X14080268Y-14365089D01*
X14080268Y-14469851D01*
X14080268Y-14365089D02*
X14089792Y-14346042D01*
X14108839Y-14336518D01*
X14137411Y-14336518D01*
X14156458Y-14346042D01*
X14165982Y-14365089D01*
X14165982Y-14469851D01*
X14556458Y-14260327D02*
X14385030Y-14517470D01*
X14813601Y-14269851D02*
X14832649Y-14269851D01*
X14851696Y-14279375D01*
X14861220Y-14288899D01*
X14870744Y-14307946D01*
X14880268Y-14346042D01*
X14880268Y-14393661D01*
X14870744Y-14431756D01*
X14861220Y-14450803D01*
X14851696Y-14460327D01*
X14832649Y-14469851D01*
X14813601Y-14469851D01*
X14794553Y-14460327D01*
X14785030Y-14450803D01*
X14775506Y-14431756D01*
X14765982Y-14393661D01*
X14765982Y-14346042D01*
X14775506Y-14307946D01*
X14785030Y-14288899D01*
X14794553Y-14279375D01*
X14813601Y-14269851D01*
X14965982Y-14450803D02*
X14975506Y-14460327D01*
X14965982Y-14469851D01*
X14956458Y-14460327D01*
X14965982Y-14450803D01*
X14965982Y-14469851D01*
X15099315Y-14269851D02*
X15118363Y-14269851D01*
X15137411Y-14279375D01*
X15146934Y-14288899D01*
X15156458Y-14307946D01*
X15165982Y-14346042D01*
X15165982Y-14393661D01*
X15156458Y-14431756D01*
X15146934Y-14450803D01*
X15137411Y-14460327D01*
X15118363Y-14469851D01*
X15099315Y-14469851D01*
X15080268Y-14460327D01*
X15070744Y-14450803D01*
X15061220Y-14431756D01*
X15051696Y-14393661D01*
X15051696Y-14346042D01*
X15061220Y-14307946D01*
X15070744Y-14288899D01*
X15080268Y-14279375D01*
X15099315Y-14269851D01*
X15337411Y-14269851D02*
X15299315Y-14269851D01*
X15280268Y-14279375D01*
X15270744Y-14288899D01*
X15251696Y-14317470D01*
X15242173Y-14355565D01*
X15242173Y-14431756D01*
X15251696Y-14450803D01*
X15261220Y-14460327D01*
X15280268Y-14469851D01*
X15318363Y-14469851D01*
X15337411Y-14460327D01*
X15346934Y-14450803D01*
X15356458Y-14431756D01*
X15356458Y-14384137D01*
X15346934Y-14365089D01*
X15337411Y-14355565D01*
X15318363Y-14346042D01*
X15280268Y-14346042D01*
X15261220Y-14355565D01*
X15251696Y-14365089D01*
X15242173Y-14384137D01*
X15470744Y-14355565D02*
X15451696Y-14346042D01*
X15442173Y-14336518D01*
X15432649Y-14317470D01*
X15432649Y-14307946D01*
X15442173Y-14288899D01*
X15451696Y-14279375D01*
X15470744Y-14269851D01*
X15508839Y-14269851D01*
X15527887Y-14279375D01*
X15537411Y-14288899D01*
X15546934Y-14307946D01*
X15546934Y-14317470D01*
X15537411Y-14336518D01*
X15527887Y-14346042D01*
X15508839Y-14355565D01*
X15470744Y-14355565D01*
X15451696Y-14365089D01*
X15442173Y-14374613D01*
X15432649Y-14393661D01*
X15432649Y-14431756D01*
X15442173Y-14450803D01*
X15451696Y-14460327D01*
X15470744Y-14469851D01*
X15508839Y-14469851D01*
X15527887Y-14460327D01*
X15537411Y-14450803D01*
X15546934Y-14431756D01*
X15546934Y-14393661D01*
X15537411Y-14374613D01*
X15527887Y-14365089D01*
X15508839Y-14355565D01*
X15642173Y-14469851D02*
X15680268Y-14469851D01*
X15699315Y-14460327D01*
X15708839Y-14450803D01*
X15727887Y-14422232D01*
X15737411Y-14384137D01*
X15737411Y-14307946D01*
X15727887Y-14288899D01*
X15718363Y-14279375D01*
X15699315Y-14269851D01*
X15661220Y-14269851D01*
X15642173Y-14279375D01*
X15632649Y-14288899D01*
X15623125Y-14307946D01*
X15623125Y-14355565D01*
X15632649Y-14374613D01*
X15642173Y-14384137D01*
X15661220Y-14393661D01*
X15699315Y-14393661D01*
X15718363Y-14384137D01*
X15727887Y-14374613D01*
X15737411Y-14355565D01*
X15813601Y-14269851D02*
X15813601Y-14307946D01*
X15889792Y-14269851D02*
X15889792Y-14307946D01*
X16185030Y-14546042D02*
X16175506Y-14536518D01*
X16156458Y-14507946D01*
X16146934Y-14488899D01*
X16137411Y-14460327D01*
X16127887Y-14412708D01*
X16127887Y-14374613D01*
X16137411Y-14326994D01*
X16146934Y-14298423D01*
X16156458Y-14279375D01*
X16175506Y-14250803D01*
X16185030Y-14241280D01*
X16251696Y-14288899D02*
X16261220Y-14279375D01*
X16280268Y-14269851D01*
X16327887Y-14269851D01*
X16346934Y-14279375D01*
X16356458Y-14288899D01*
X16365982Y-14307946D01*
X16365982Y-14326994D01*
X16356458Y-14355565D01*
X16242173Y-14469851D01*
X16365982Y-14469851D01*
X16489792Y-14269851D02*
X16508839Y-14269851D01*
X16527887Y-14279375D01*
X16537411Y-14288899D01*
X16546934Y-14307946D01*
X16556458Y-14346042D01*
X16556458Y-14393661D01*
X16546934Y-14431756D01*
X16537411Y-14450803D01*
X16527887Y-14460327D01*
X16508839Y-14469851D01*
X16489792Y-14469851D01*
X16470744Y-14460327D01*
X16461220Y-14450803D01*
X16451696Y-14431756D01*
X16442173Y-14393661D01*
X16442173Y-14346042D01*
X16451696Y-14307946D01*
X16461220Y-14288899D01*
X16470744Y-14279375D01*
X16489792Y-14269851D01*
X16794554Y-14469851D02*
X16794554Y-14269851D01*
X16880268Y-14469851D02*
X16880268Y-14365089D01*
X16870744Y-14346042D01*
X16851696Y-14336518D01*
X16823125Y-14336518D01*
X16804077Y-14346042D01*
X16794554Y-14355565D01*
X17004077Y-14469851D02*
X16985030Y-14460327D01*
X16975506Y-14450803D01*
X16965982Y-14431756D01*
X16965982Y-14374613D01*
X16975506Y-14355565D01*
X16985030Y-14346042D01*
X17004077Y-14336518D01*
X17032649Y-14336518D01*
X17051696Y-14346042D01*
X17061220Y-14355565D01*
X17070744Y-14374613D01*
X17070744Y-14431756D01*
X17061220Y-14450803D01*
X17051696Y-14460327D01*
X17032649Y-14469851D01*
X17004077Y-14469851D01*
X17185030Y-14469851D02*
X17165982Y-14460327D01*
X17156458Y-14441280D01*
X17156458Y-14269851D01*
X17337411Y-14460327D02*
X17318363Y-14469851D01*
X17280268Y-14469851D01*
X17261220Y-14460327D01*
X17251696Y-14441280D01*
X17251696Y-14365089D01*
X17261220Y-14346042D01*
X17280268Y-14336518D01*
X17318363Y-14336518D01*
X17337411Y-14346042D01*
X17346935Y-14365089D01*
X17346935Y-14384137D01*
X17251696Y-14403184D01*
X17423125Y-14460327D02*
X17442173Y-14469851D01*
X17480268Y-14469851D01*
X17499315Y-14460327D01*
X17508839Y-14441280D01*
X17508839Y-14431756D01*
X17499315Y-14412708D01*
X17480268Y-14403184D01*
X17451696Y-14403184D01*
X17432649Y-14393661D01*
X17423125Y-14374613D01*
X17423125Y-14365089D01*
X17432649Y-14346042D01*
X17451696Y-14336518D01*
X17480268Y-14336518D01*
X17499315Y-14346042D01*
X17575506Y-14546042D02*
X17585030Y-14536518D01*
X17604077Y-14507946D01*
X17613601Y-14488899D01*
X17623125Y-14460327D01*
X17632649Y-14412708D01*
X17632649Y-14374613D01*
X17623125Y-14326994D01*
X17613601Y-14298423D01*
X17604077Y-14279375D01*
X17585030Y-14250803D01*
X17575506Y-14241280D01*
X17937411Y-14546042D02*
X17927887Y-14536518D01*
X17908839Y-14507946D01*
X17899315Y-14488899D01*
X17889792Y-14460327D01*
X17880268Y-14412708D01*
X17880268Y-14374613D01*
X17889792Y-14326994D01*
X17899315Y-14298423D01*
X17908839Y-14279375D01*
X17927887Y-14250803D01*
X17937411Y-14241280D01*
X18013601Y-14336518D02*
X18013601Y-14469851D01*
X18013601Y-14355565D02*
X18023125Y-14346042D01*
X18042173Y-14336518D01*
X18070744Y-14336518D01*
X18089792Y-14346042D01*
X18099315Y-14365089D01*
X18099315Y-14469851D01*
X18223125Y-14469851D02*
X18204077Y-14460327D01*
X18194554Y-14450803D01*
X18185030Y-14431756D01*
X18185030Y-14374613D01*
X18194554Y-14355565D01*
X18204077Y-14346042D01*
X18223125Y-14336518D01*
X18251696Y-14336518D01*
X18270744Y-14346042D01*
X18280268Y-14355565D01*
X18289792Y-14374613D01*
X18289792Y-14431756D01*
X18280268Y-14450803D01*
X18270744Y-14460327D01*
X18251696Y-14469851D01*
X18223125Y-14469851D01*
X18346935Y-14336518D02*
X18423125Y-14336518D01*
X18375506Y-14269851D02*
X18375506Y-14441280D01*
X18385030Y-14460327D01*
X18404077Y-14469851D01*
X18423125Y-14469851D01*
X18642173Y-14336518D02*
X18642173Y-14536518D01*
X18642173Y-14346042D02*
X18661220Y-14336518D01*
X18699315Y-14336518D01*
X18718363Y-14346042D01*
X18727887Y-14355565D01*
X18737411Y-14374613D01*
X18737411Y-14431756D01*
X18727887Y-14450803D01*
X18718363Y-14460327D01*
X18699315Y-14469851D01*
X18661220Y-14469851D01*
X18642173Y-14460327D01*
X18851696Y-14469851D02*
X18832649Y-14460327D01*
X18823125Y-14441280D01*
X18823125Y-14269851D01*
X19013601Y-14469851D02*
X19013601Y-14365089D01*
X19004077Y-14346042D01*
X18985030Y-14336518D01*
X18946935Y-14336518D01*
X18927887Y-14346042D01*
X19013601Y-14460327D02*
X18994554Y-14469851D01*
X18946935Y-14469851D01*
X18927887Y-14460327D01*
X18918363Y-14441280D01*
X18918363Y-14422232D01*
X18927887Y-14403184D01*
X18946935Y-14393661D01*
X18994554Y-14393661D01*
X19013601Y-14384137D01*
X19080268Y-14336518D02*
X19156458Y-14336518D01*
X19108839Y-14269851D02*
X19108839Y-14441280D01*
X19118363Y-14460327D01*
X19137411Y-14469851D01*
X19156458Y-14469851D01*
X19299315Y-14460327D02*
X19280268Y-14469851D01*
X19242173Y-14469851D01*
X19223125Y-14460327D01*
X19213601Y-14441280D01*
X19213601Y-14365089D01*
X19223125Y-14346042D01*
X19242173Y-14336518D01*
X19280268Y-14336518D01*
X19299315Y-14346042D01*
X19308839Y-14365089D01*
X19308839Y-14384137D01*
X19213601Y-14403184D01*
X19480268Y-14469851D02*
X19480268Y-14269851D01*
X19480268Y-14460327D02*
X19461220Y-14469851D01*
X19423125Y-14469851D01*
X19404077Y-14460327D01*
X19394554Y-14450803D01*
X19385030Y-14431756D01*
X19385030Y-14374613D01*
X19394554Y-14355565D01*
X19404077Y-14346042D01*
X19423125Y-14336518D01*
X19461220Y-14336518D01*
X19480268Y-14346042D01*
X19556458Y-14546042D02*
X19565982Y-14536518D01*
X19585030Y-14507946D01*
X19594554Y-14488899D01*
X19604077Y-14460327D01*
X19613601Y-14412708D01*
X19613601Y-14374613D01*
X19604077Y-14326994D01*
X19594554Y-14298423D01*
X19585030Y-14279375D01*
X19565982Y-14250803D01*
X19556458Y-14241280D01*
X12613125Y-14674375D02*
G75*
G03*
X12613125Y-14674375I-100000J0D01*
G01*
X12851696Y-14564851D02*
X12975506Y-14564851D01*
X12908839Y-14641042D01*
X12937411Y-14641042D01*
X12956458Y-14650565D01*
X12965982Y-14660089D01*
X12975506Y-14679137D01*
X12975506Y-14726756D01*
X12965982Y-14745803D01*
X12956458Y-14755327D01*
X12937411Y-14764851D01*
X12880268Y-14764851D01*
X12861220Y-14755327D01*
X12851696Y-14745803D01*
X13061220Y-14745803D02*
X13070744Y-14755327D01*
X13061220Y-14764851D01*
X13051696Y-14755327D01*
X13061220Y-14745803D01*
X13061220Y-14764851D01*
X13165982Y-14764851D02*
X13204077Y-14764851D01*
X13223125Y-14755327D01*
X13232649Y-14745803D01*
X13251696Y-14717232D01*
X13261220Y-14679137D01*
X13261220Y-14602946D01*
X13251696Y-14583899D01*
X13242173Y-14574375D01*
X13223125Y-14564851D01*
X13185030Y-14564851D01*
X13165982Y-14574375D01*
X13156458Y-14583899D01*
X13146934Y-14602946D01*
X13146934Y-14650565D01*
X13156458Y-14669613D01*
X13165982Y-14679137D01*
X13185030Y-14688661D01*
X13223125Y-14688661D01*
X13242173Y-14679137D01*
X13251696Y-14669613D01*
X13261220Y-14650565D01*
X13375506Y-14650565D02*
X13356458Y-14641042D01*
X13346934Y-14631518D01*
X13337411Y-14612470D01*
X13337411Y-14602946D01*
X13346934Y-14583899D01*
X13356458Y-14574375D01*
X13375506Y-14564851D01*
X13413601Y-14564851D01*
X13432649Y-14574375D01*
X13442173Y-14583899D01*
X13451696Y-14602946D01*
X13451696Y-14612470D01*
X13442173Y-14631518D01*
X13432649Y-14641042D01*
X13413601Y-14650565D01*
X13375506Y-14650565D01*
X13356458Y-14660089D01*
X13346934Y-14669613D01*
X13337411Y-14688661D01*
X13337411Y-14726756D01*
X13346934Y-14745803D01*
X13356458Y-14755327D01*
X13375506Y-14764851D01*
X13413601Y-14764851D01*
X13432649Y-14755327D01*
X13442173Y-14745803D01*
X13451696Y-14726756D01*
X13451696Y-14688661D01*
X13442173Y-14669613D01*
X13432649Y-14660089D01*
X13413601Y-14650565D01*
X13565982Y-14650565D02*
X13546934Y-14641042D01*
X13537411Y-14631518D01*
X13527887Y-14612470D01*
X13527887Y-14602946D01*
X13537411Y-14583899D01*
X13546934Y-14574375D01*
X13565982Y-14564851D01*
X13604077Y-14564851D01*
X13623125Y-14574375D01*
X13632649Y-14583899D01*
X13642173Y-14602946D01*
X13642173Y-14612470D01*
X13632649Y-14631518D01*
X13623125Y-14641042D01*
X13604077Y-14650565D01*
X13565982Y-14650565D01*
X13546934Y-14660089D01*
X13537411Y-14669613D01*
X13527887Y-14688661D01*
X13527887Y-14726756D01*
X13537411Y-14745803D01*
X13546934Y-14755327D01*
X13565982Y-14764851D01*
X13604077Y-14764851D01*
X13623125Y-14755327D01*
X13632649Y-14745803D01*
X13642173Y-14726756D01*
X13642173Y-14688661D01*
X13632649Y-14669613D01*
X13623125Y-14660089D01*
X13604077Y-14650565D01*
X13727887Y-14764851D02*
X13727887Y-14631518D01*
X13727887Y-14650565D02*
X13737411Y-14641042D01*
X13756458Y-14631518D01*
X13785030Y-14631518D01*
X13804077Y-14641042D01*
X13813601Y-14660089D01*
X13813601Y-14764851D01*
X13813601Y-14660089D02*
X13823125Y-14641042D01*
X13842173Y-14631518D01*
X13870744Y-14631518D01*
X13889792Y-14641042D01*
X13899315Y-14660089D01*
X13899315Y-14764851D01*
X13994553Y-14764851D02*
X13994553Y-14631518D01*
X13994553Y-14650565D02*
X14004077Y-14641042D01*
X14023125Y-14631518D01*
X14051696Y-14631518D01*
X14070744Y-14641042D01*
X14080268Y-14660089D01*
X14080268Y-14764851D01*
X14080268Y-14660089D02*
X14089792Y-14641042D01*
X14108839Y-14631518D01*
X14137411Y-14631518D01*
X14156458Y-14641042D01*
X14165982Y-14660089D01*
X14165982Y-14764851D01*
X14556458Y-14555327D02*
X14385030Y-14812470D01*
X14813601Y-14564851D02*
X14832649Y-14564851D01*
X14851696Y-14574375D01*
X14861220Y-14583899D01*
X14870744Y-14602946D01*
X14880268Y-14641042D01*
X14880268Y-14688661D01*
X14870744Y-14726756D01*
X14861220Y-14745803D01*
X14851696Y-14755327D01*
X14832649Y-14764851D01*
X14813601Y-14764851D01*
X14794553Y-14755327D01*
X14785030Y-14745803D01*
X14775506Y-14726756D01*
X14765982Y-14688661D01*
X14765982Y-14641042D01*
X14775506Y-14602946D01*
X14785030Y-14583899D01*
X14794553Y-14574375D01*
X14813601Y-14564851D01*
X14965982Y-14745803D02*
X14975506Y-14755327D01*
X14965982Y-14764851D01*
X14956458Y-14755327D01*
X14965982Y-14745803D01*
X14965982Y-14764851D01*
X15165982Y-14764851D02*
X15051696Y-14764851D01*
X15108839Y-14764851D02*
X15108839Y-14564851D01*
X15089792Y-14593423D01*
X15070744Y-14612470D01*
X15051696Y-14621994D01*
X15346934Y-14564851D02*
X15251696Y-14564851D01*
X15242173Y-14660089D01*
X15251696Y-14650565D01*
X15270744Y-14641042D01*
X15318363Y-14641042D01*
X15337411Y-14650565D01*
X15346934Y-14660089D01*
X15356458Y-14679137D01*
X15356458Y-14726756D01*
X15346934Y-14745803D01*
X15337411Y-14755327D01*
X15318363Y-14764851D01*
X15270744Y-14764851D01*
X15251696Y-14755327D01*
X15242173Y-14745803D01*
X15423125Y-14564851D02*
X15556458Y-14564851D01*
X15470744Y-14764851D01*
X15670744Y-14564851D02*
X15689792Y-14564851D01*
X15708839Y-14574375D01*
X15718363Y-14583899D01*
X15727887Y-14602946D01*
X15737411Y-14641042D01*
X15737411Y-14688661D01*
X15727887Y-14726756D01*
X15718363Y-14745803D01*
X15708839Y-14755327D01*
X15689792Y-14764851D01*
X15670744Y-14764851D01*
X15651696Y-14755327D01*
X15642173Y-14745803D01*
X15632649Y-14726756D01*
X15623125Y-14688661D01*
X15623125Y-14641042D01*
X15632649Y-14602946D01*
X15642173Y-14583899D01*
X15651696Y-14574375D01*
X15670744Y-14564851D01*
X15813601Y-14564851D02*
X15813601Y-14602946D01*
X15889792Y-14564851D02*
X15889792Y-14602946D01*
X16185030Y-14841042D02*
X16175506Y-14831518D01*
X16156458Y-14802946D01*
X16146934Y-14783899D01*
X16137411Y-14755327D01*
X16127887Y-14707708D01*
X16127887Y-14669613D01*
X16137411Y-14621994D01*
X16146934Y-14593423D01*
X16156458Y-14574375D01*
X16175506Y-14545803D01*
X16185030Y-14536280D01*
X16365982Y-14764851D02*
X16251696Y-14764851D01*
X16308839Y-14764851D02*
X16308839Y-14564851D01*
X16289792Y-14593423D01*
X16270744Y-14612470D01*
X16251696Y-14621994D01*
X16489792Y-14564851D02*
X16508839Y-14564851D01*
X16527887Y-14574375D01*
X16537411Y-14583899D01*
X16546934Y-14602946D01*
X16556458Y-14641042D01*
X16556458Y-14688661D01*
X16546934Y-14726756D01*
X16537411Y-14745803D01*
X16527887Y-14755327D01*
X16508839Y-14764851D01*
X16489792Y-14764851D01*
X16470744Y-14755327D01*
X16461220Y-14745803D01*
X16451696Y-14726756D01*
X16442173Y-14688661D01*
X16442173Y-14641042D01*
X16451696Y-14602946D01*
X16461220Y-14583899D01*
X16470744Y-14574375D01*
X16489792Y-14564851D01*
X16794554Y-14764851D02*
X16794554Y-14564851D01*
X16880268Y-14764851D02*
X16880268Y-14660089D01*
X16870744Y-14641042D01*
X16851696Y-14631518D01*
X16823125Y-14631518D01*
X16804077Y-14641042D01*
X16794554Y-14650565D01*
X17004077Y-14764851D02*
X16985030Y-14755327D01*
X16975506Y-14745803D01*
X16965982Y-14726756D01*
X16965982Y-14669613D01*
X16975506Y-14650565D01*
X16985030Y-14641042D01*
X17004077Y-14631518D01*
X17032649Y-14631518D01*
X17051696Y-14641042D01*
X17061220Y-14650565D01*
X17070744Y-14669613D01*
X17070744Y-14726756D01*
X17061220Y-14745803D01*
X17051696Y-14755327D01*
X17032649Y-14764851D01*
X17004077Y-14764851D01*
X17185030Y-14764851D02*
X17165982Y-14755327D01*
X17156458Y-14736280D01*
X17156458Y-14564851D01*
X17337411Y-14755327D02*
X17318363Y-14764851D01*
X17280268Y-14764851D01*
X17261220Y-14755327D01*
X17251696Y-14736280D01*
X17251696Y-14660089D01*
X17261220Y-14641042D01*
X17280268Y-14631518D01*
X17318363Y-14631518D01*
X17337411Y-14641042D01*
X17346935Y-14660089D01*
X17346935Y-14679137D01*
X17251696Y-14698184D01*
X17423125Y-14755327D02*
X17442173Y-14764851D01*
X17480268Y-14764851D01*
X17499315Y-14755327D01*
X17508839Y-14736280D01*
X17508839Y-14726756D01*
X17499315Y-14707708D01*
X17480268Y-14698184D01*
X17451696Y-14698184D01*
X17432649Y-14688661D01*
X17423125Y-14669613D01*
X17423125Y-14660089D01*
X17432649Y-14641042D01*
X17451696Y-14631518D01*
X17480268Y-14631518D01*
X17499315Y-14641042D01*
X17575506Y-14841042D02*
X17585030Y-14831518D01*
X17604077Y-14802946D01*
X17613601Y-14783899D01*
X17623125Y-14755327D01*
X17632649Y-14707708D01*
X17632649Y-14669613D01*
X17623125Y-14621994D01*
X17613601Y-14593423D01*
X17604077Y-14574375D01*
X17585030Y-14545803D01*
X17575506Y-14536280D01*
X17937411Y-14841042D02*
X17927887Y-14831518D01*
X17908839Y-14802946D01*
X17899315Y-14783899D01*
X17889792Y-14755327D01*
X17880268Y-14707708D01*
X17880268Y-14669613D01*
X17889792Y-14621994D01*
X17899315Y-14593423D01*
X17908839Y-14574375D01*
X17927887Y-14545803D01*
X17937411Y-14536280D01*
X18013601Y-14631518D02*
X18013601Y-14764851D01*
X18013601Y-14650565D02*
X18023125Y-14641042D01*
X18042173Y-14631518D01*
X18070744Y-14631518D01*
X18089792Y-14641042D01*
X18099315Y-14660089D01*
X18099315Y-14764851D01*
X18223125Y-14764851D02*
X18204077Y-14755327D01*
X18194554Y-14745803D01*
X18185030Y-14726756D01*
X18185030Y-14669613D01*
X18194554Y-14650565D01*
X18204077Y-14641042D01*
X18223125Y-14631518D01*
X18251696Y-14631518D01*
X18270744Y-14641042D01*
X18280268Y-14650565D01*
X18289792Y-14669613D01*
X18289792Y-14726756D01*
X18280268Y-14745803D01*
X18270744Y-14755327D01*
X18251696Y-14764851D01*
X18223125Y-14764851D01*
X18346935Y-14631518D02*
X18423125Y-14631518D01*
X18375506Y-14564851D02*
X18375506Y-14736280D01*
X18385030Y-14755327D01*
X18404077Y-14764851D01*
X18423125Y-14764851D01*
X18642173Y-14631518D02*
X18642173Y-14831518D01*
X18642173Y-14641042D02*
X18661220Y-14631518D01*
X18699315Y-14631518D01*
X18718363Y-14641042D01*
X18727887Y-14650565D01*
X18737411Y-14669613D01*
X18737411Y-14726756D01*
X18727887Y-14745803D01*
X18718363Y-14755327D01*
X18699315Y-14764851D01*
X18661220Y-14764851D01*
X18642173Y-14755327D01*
X18851696Y-14764851D02*
X18832649Y-14755327D01*
X18823125Y-14736280D01*
X18823125Y-14564851D01*
X19013601Y-14764851D02*
X19013601Y-14660089D01*
X19004077Y-14641042D01*
X18985030Y-14631518D01*
X18946935Y-14631518D01*
X18927887Y-14641042D01*
X19013601Y-14755327D02*
X18994554Y-14764851D01*
X18946935Y-14764851D01*
X18927887Y-14755327D01*
X18918363Y-14736280D01*
X18918363Y-14717232D01*
X18927887Y-14698184D01*
X18946935Y-14688661D01*
X18994554Y-14688661D01*
X19013601Y-14679137D01*
X19080268Y-14631518D02*
X19156458Y-14631518D01*
X19108839Y-14564851D02*
X19108839Y-14736280D01*
X19118363Y-14755327D01*
X19137411Y-14764851D01*
X19156458Y-14764851D01*
X19299315Y-14755327D02*
X19280268Y-14764851D01*
X19242173Y-14764851D01*
X19223125Y-14755327D01*
X19213601Y-14736280D01*
X19213601Y-14660089D01*
X19223125Y-14641042D01*
X19242173Y-14631518D01*
X19280268Y-14631518D01*
X19299315Y-14641042D01*
X19308839Y-14660089D01*
X19308839Y-14679137D01*
X19213601Y-14698184D01*
X19480268Y-14764851D02*
X19480268Y-14564851D01*
X19480268Y-14755327D02*
X19461220Y-14764851D01*
X19423125Y-14764851D01*
X19404077Y-14755327D01*
X19394554Y-14745803D01*
X19385030Y-14726756D01*
X19385030Y-14669613D01*
X19394554Y-14650565D01*
X19404077Y-14641042D01*
X19423125Y-14631518D01*
X19461220Y-14631518D01*
X19480268Y-14641042D01*
X19556458Y-14841042D02*
X19565982Y-14831518D01*
X19585030Y-14802946D01*
X19594554Y-14783899D01*
X19604077Y-14755327D01*
X19613601Y-14707708D01*
X19613601Y-14669613D01*
X19604077Y-14621994D01*
X19594554Y-14593423D01*
X19585030Y-14574375D01*
X19565982Y-14545803D01*
X19556458Y-14536280D01*
M02*
