G04 #@! TF.GenerationSoftware,KiCad,Pcbnew,(6.0.9)*
G04 #@! TF.CreationDate,2022-12-29T20:25:28-06:00*
G04 #@! TF.ProjectId,Navigation Keys,4e617669-6761-4746-996f-6e204b657973,rev?*
G04 #@! TF.SameCoordinates,Original*
G04 #@! TF.FileFunction,Copper,L1,Top*
G04 #@! TF.FilePolarity,Positive*
%FSLAX46Y46*%
G04 Gerber Fmt 4.6, Leading zero omitted, Abs format (unit mm)*
G04 Created by KiCad (PCBNEW (6.0.9)) date 2022-12-29 20:25:28*
%MOMM*%
%LPD*%
G01*
G04 APERTURE LIST*
G04 Aperture macros list*
%AMRoundRect*
0 Rectangle with rounded corners*
0 $1 Rounding radius*
0 $2 $3 $4 $5 $6 $7 $8 $9 X,Y pos of 4 corners*
0 Add a 4 corners polygon primitive as box body*
4,1,4,$2,$3,$4,$5,$6,$7,$8,$9,$2,$3,0*
0 Add four circle primitives for the rounded corners*
1,1,$1+$1,$2,$3*
1,1,$1+$1,$4,$5*
1,1,$1+$1,$6,$7*
1,1,$1+$1,$8,$9*
0 Add four rect primitives between the rounded corners*
20,1,$1+$1,$2,$3,$4,$5,0*
20,1,$1+$1,$4,$5,$6,$7,0*
20,1,$1+$1,$6,$7,$8,$9,0*
20,1,$1+$1,$8,$9,$2,$3,0*%
%AMHorizOval*
0 Thick line with rounded ends*
0 $1 width*
0 $2 $3 position (X,Y) of the first rounded end (center of the circle)*
0 $4 $5 position (X,Y) of the second rounded end (center of the circle)*
0 Add line between two ends*
20,1,$1,$2,$3,$4,$5,0*
0 Add two circle primitives to create the rounded ends*
1,1,$1,$2,$3*
1,1,$1,$4,$5*%
G04 Aperture macros list end*
G04 #@! TA.AperFunction,SMDPad,CuDef*
%ADD10R,1.200000X0.900000*%
G04 #@! TD*
G04 #@! TA.AperFunction,SMDPad,CuDef*
%ADD11RoundRect,0.150000X0.625000X-0.150000X0.625000X0.150000X-0.625000X0.150000X-0.625000X-0.150000X0*%
G04 #@! TD*
G04 #@! TA.AperFunction,SMDPad,CuDef*
%ADD12RoundRect,0.250000X0.650000X-0.350000X0.650000X0.350000X-0.650000X0.350000X-0.650000X-0.350000X0*%
G04 #@! TD*
G04 #@! TA.AperFunction,ComponentPad*
%ADD13C,2.250000*%
G04 #@! TD*
G04 #@! TA.AperFunction,ComponentPad*
%ADD14HorizOval,2.250000X0.655001X0.730000X-0.655001X-0.730000X0*%
G04 #@! TD*
G04 #@! TA.AperFunction,ComponentPad*
%ADD15HorizOval,2.250000X0.020000X0.290000X-0.020000X-0.290000X0*%
G04 #@! TD*
G04 #@! TA.AperFunction,SMDPad,CuDef*
%ADD16RoundRect,0.150000X-0.625000X0.150000X-0.625000X-0.150000X0.625000X-0.150000X0.625000X0.150000X0*%
G04 #@! TD*
G04 #@! TA.AperFunction,SMDPad,CuDef*
%ADD17RoundRect,0.250000X-0.650000X0.350000X-0.650000X-0.350000X0.650000X-0.350000X0.650000X0.350000X0*%
G04 #@! TD*
G04 #@! TA.AperFunction,ViaPad*
%ADD18C,0.800000*%
G04 #@! TD*
G04 #@! TA.AperFunction,Conductor*
%ADD19C,0.250000*%
G04 #@! TD*
G04 APERTURE END LIST*
D10*
X161131250Y-91343750D03*
X161131250Y-88043750D03*
D11*
X136906250Y-108718750D03*
X136906250Y-107718750D03*
X136906250Y-106718750D03*
X136906250Y-105718750D03*
X136906250Y-104718750D03*
X136906250Y-103718750D03*
X136906250Y-102718750D03*
X136906250Y-101718750D03*
X136906250Y-100718750D03*
X136906250Y-99718750D03*
X136906250Y-98718750D03*
X136906250Y-97718750D03*
X136906250Y-96718750D03*
X136906250Y-95718750D03*
X136906250Y-94718750D03*
X136906250Y-93718750D03*
X136906250Y-92718750D03*
X136906250Y-91718750D03*
X136906250Y-90718750D03*
X136906250Y-89718750D03*
D12*
X140781250Y-88418750D03*
X140781250Y-110018750D03*
D10*
X161131250Y-72293750D03*
X161131250Y-68993750D03*
X161131250Y-129443750D03*
X161131250Y-126143750D03*
D13*
X188793750Y-123793750D03*
D14*
X188138751Y-124523750D03*
D15*
X193813750Y-123003750D03*
D13*
X193833750Y-122713750D03*
D10*
X180181250Y-72293750D03*
X180181250Y-68993750D03*
D13*
X150693750Y-66643750D03*
D14*
X150038751Y-67373750D03*
D15*
X155713750Y-65853750D03*
D13*
X155733750Y-65563750D03*
D14*
X188138751Y-67373750D03*
D13*
X188793750Y-66643750D03*
D15*
X193813750Y-65853750D03*
D13*
X193833750Y-65563750D03*
D10*
X199231250Y-129443750D03*
X199231250Y-126143750D03*
X180181250Y-91343750D03*
X180181250Y-88043750D03*
D14*
X169088751Y-67373750D03*
D13*
X169743750Y-66643750D03*
X174783750Y-65563750D03*
D15*
X174763750Y-65853750D03*
D13*
X150693750Y-123793750D03*
D14*
X150038751Y-124523750D03*
D15*
X155713750Y-123003750D03*
D13*
X155733750Y-122713750D03*
D14*
X150038751Y-86423750D03*
D13*
X150693750Y-85693750D03*
X155733750Y-84613750D03*
D15*
X155713750Y-84903750D03*
D10*
X180181250Y-110393750D03*
X180181250Y-107093750D03*
D14*
X169088751Y-86423750D03*
D13*
X169743750Y-85693750D03*
D15*
X174763750Y-84903750D03*
D13*
X174783750Y-84613750D03*
D14*
X188138751Y-86423750D03*
D13*
X188793750Y-85693750D03*
D15*
X193813750Y-84903750D03*
D13*
X193833750Y-84613750D03*
D14*
X169088751Y-105473750D03*
D13*
X169743750Y-104743750D03*
X174783750Y-103663750D03*
D15*
X174763750Y-103953750D03*
D10*
X180181250Y-129443750D03*
X180181250Y-126143750D03*
X199231250Y-91343750D03*
X199231250Y-88043750D03*
X199231250Y-72293750D03*
X199231250Y-68993750D03*
D16*
X206787500Y-89718750D03*
X206787500Y-90718750D03*
X206787500Y-91718750D03*
X206787500Y-92718750D03*
X206787500Y-93718750D03*
X206787500Y-94718750D03*
X206787500Y-95718750D03*
X206787500Y-96718750D03*
X206787500Y-97718750D03*
X206787500Y-98718750D03*
X206787500Y-99718750D03*
X206787500Y-100718750D03*
X206787500Y-101718750D03*
X206787500Y-102718750D03*
X206787500Y-103718750D03*
X206787500Y-104718750D03*
X206787500Y-105718750D03*
X206787500Y-106718750D03*
X206787500Y-107718750D03*
X206787500Y-108718750D03*
D17*
X202912500Y-110018750D03*
X202912500Y-88418750D03*
D14*
X169088751Y-124523750D03*
D13*
X169743750Y-123793750D03*
D15*
X174763750Y-123003750D03*
D13*
X174783750Y-122713750D03*
D18*
X186531250Y-74612500D03*
X199517000Y-84963000D03*
X147637500Y-74612500D03*
X146812000Y-88646000D03*
X167481250Y-74612500D03*
X146680701Y-92460299D03*
X169862500Y-74612500D03*
X199517000Y-102489000D03*
X188912500Y-74612500D03*
X150812500Y-74612500D03*
X167481250Y-93662500D03*
X169158250Y-93662500D03*
X198437500Y-94456250D03*
X188912500Y-93662500D03*
X152400000Y-93662500D03*
X186531250Y-93662500D03*
X145796000Y-94742000D03*
X198437500Y-102443250D03*
X186531250Y-109537500D03*
X195262500Y-105568750D03*
X145288000Y-93599000D03*
X174879000Y-109855000D03*
X204089000Y-117475000D03*
X204978000Y-105791000D03*
X169418000Y-114046000D03*
X148336000Y-114046000D03*
X167513000Y-114046000D03*
X186436000Y-114046000D03*
X150495000Y-114046000D03*
X188595000Y-114046000D03*
X188722000Y-115570000D03*
X207776299Y-114177299D03*
X143256000Y-112649000D03*
X148336000Y-115570000D03*
X143256000Y-114808000D03*
X186690000Y-115570000D03*
X205232000Y-90170000D03*
X167513000Y-115570000D03*
X169545000Y-115570000D03*
X150622000Y-115570000D03*
X170180000Y-116586000D03*
X186690000Y-116586000D03*
X204978000Y-91443250D03*
X167456326Y-116567894D03*
X144145000Y-116294500D03*
X188214000Y-116586000D03*
X150108250Y-116515788D03*
X144145000Y-113321500D03*
X148659250Y-116515788D03*
X207010000Y-116294500D03*
X167709250Y-81026000D03*
X196342000Y-81026000D03*
X198146000Y-81042497D03*
X186690000Y-81026000D03*
X169158250Y-81026000D03*
X188208250Y-81026000D03*
X163068000Y-112141000D03*
X188595000Y-82042000D03*
X198146000Y-82042000D03*
X148336000Y-112141000D03*
X186690000Y-82042000D03*
X165866299Y-110866701D03*
X150495000Y-112141000D03*
X196697000Y-82042000D03*
X169418000Y-117475000D03*
X161798000Y-111252000D03*
X148209000Y-110871000D03*
X150749000Y-110744000D03*
X198628000Y-83058000D03*
X196342000Y-83058000D03*
X147447000Y-103632000D03*
X191897000Y-97954500D03*
X169164000Y-113030000D03*
X186759250Y-113086788D03*
X191897000Y-103759000D03*
X150495000Y-103632000D03*
X191829200Y-110676200D03*
X165354000Y-112903000D03*
X192659000Y-102997000D03*
X186436000Y-112141000D03*
X169926000Y-112141000D03*
X166751000Y-112141000D03*
X151638000Y-102870000D03*
X192913000Y-97917000D03*
X148590000Y-102870000D03*
X188722000Y-112141000D03*
X169158250Y-102113099D03*
X150368000Y-102108000D03*
X147701000Y-102108000D03*
X188214000Y-102108000D03*
X194310000Y-97954500D03*
X186736424Y-102177636D03*
X167709250Y-102108000D03*
X193548000Y-102070500D03*
X167005000Y-101346000D03*
X148463000Y-101219000D03*
X197231000Y-98806000D03*
X186182000Y-101346000D03*
X188976000Y-101346000D03*
X169799000Y-101346000D03*
X194940701Y-101223299D03*
X151257000Y-101346000D03*
X167640000Y-98679000D03*
X150241000Y-98679000D03*
X186759250Y-98679000D03*
X169164000Y-98679000D03*
X188214000Y-98679000D03*
X148659250Y-98679000D03*
X147320000Y-97994250D03*
X150880866Y-99446839D03*
X189103000Y-99568000D03*
X169799000Y-99568000D03*
X166624000Y-99568000D03*
X185928000Y-99568000D03*
X146431000Y-96901000D03*
X150622000Y-100457000D03*
X169164000Y-100457000D03*
X167513000Y-100457000D03*
X188341000Y-100457000D03*
X186759250Y-100457000D03*
X169291000Y-95377000D03*
X167640000Y-95377000D03*
X150114000Y-95377000D03*
X184568500Y-97227774D03*
X193548000Y-106680000D03*
X188341000Y-106680000D03*
X148659250Y-95341045D03*
X191172500Y-106680000D03*
X170053000Y-94387000D03*
X185293000Y-102902136D03*
X191135000Y-107696000D03*
X193802000Y-107696000D03*
X148463000Y-94361000D03*
X188341000Y-107696000D03*
X186563000Y-107696000D03*
X166624000Y-94387000D03*
X185293000Y-97954500D03*
X150342000Y-94387000D03*
D19*
X180181250Y-73818750D02*
X180181250Y-72293750D01*
X197421500Y-74612500D02*
X188912500Y-74612500D01*
X180975000Y-74612500D02*
X169862500Y-74612500D01*
X206787500Y-102718750D02*
X199746750Y-102718750D01*
X180975000Y-74612500D02*
X180181250Y-73818750D01*
X186531250Y-74612500D02*
X180975000Y-74612500D01*
X197421500Y-83629500D02*
X197421500Y-74612500D01*
X146470250Y-95718750D02*
X146685000Y-95504000D01*
X199746750Y-102718750D02*
X199517000Y-102489000D01*
X161925000Y-74612500D02*
X161131250Y-73818750D01*
X162718750Y-74612500D02*
X161925000Y-74612500D01*
X146812000Y-88646000D02*
X146812000Y-75438000D01*
X146685000Y-95504000D02*
X146685000Y-92464598D01*
X197993000Y-84201000D02*
X197421500Y-83629500D01*
X167481250Y-74612500D02*
X162718750Y-74612500D01*
X136906250Y-95718750D02*
X146470250Y-95718750D01*
X146685000Y-92464598D02*
X146680701Y-92460299D01*
X199517000Y-84963000D02*
X198755000Y-84201000D01*
X198437500Y-74612500D02*
X197421500Y-74612500D01*
X146812000Y-75438000D02*
X147637500Y-74612500D01*
X199231250Y-73818750D02*
X198437500Y-74612500D01*
X199231250Y-72293750D02*
X199231250Y-73818750D01*
X161131250Y-73818750D02*
X161131250Y-72293750D01*
X198755000Y-84201000D02*
X197993000Y-84201000D01*
X150812500Y-74612500D02*
X162718750Y-74612500D01*
X159806250Y-66143750D02*
X155693750Y-66143750D01*
X161131250Y-67468750D02*
X159806250Y-66143750D01*
X161131250Y-68993750D02*
X161131250Y-67468750D01*
X145772750Y-94718750D02*
X145796000Y-94742000D01*
X161131250Y-92868750D02*
X161131250Y-91343750D01*
X206787500Y-103718750D02*
X198968750Y-103718750D01*
X198437500Y-102393750D02*
X198437500Y-102443250D01*
X199231250Y-91343750D02*
X199231250Y-92868750D01*
X161925000Y-93662500D02*
X161131250Y-92868750D01*
X180975000Y-93662500D02*
X169158250Y-93662500D01*
X136906250Y-94718750D02*
X145772750Y-94718750D01*
X197643750Y-93662500D02*
X188912500Y-93662500D01*
X198968750Y-103718750D02*
X198437500Y-103187500D01*
X198437500Y-93662500D02*
X197643750Y-93662500D01*
X199231250Y-92868750D02*
X198437500Y-93662500D01*
X161925000Y-93662500D02*
X152400000Y-93662500D01*
X186531250Y-93662500D02*
X180975000Y-93662500D01*
X198437500Y-94456250D02*
X198437500Y-93662500D01*
X167481250Y-93662500D02*
X162369500Y-93662500D01*
X180181250Y-92868750D02*
X180181250Y-91343750D01*
X198437500Y-103187500D02*
X198437500Y-102393750D01*
X180975000Y-93662500D02*
X180181250Y-92868750D01*
X162369500Y-93662500D02*
X161925000Y-93662500D01*
X161131250Y-88043750D02*
X161131250Y-86518750D01*
X161131250Y-86518750D02*
X159806250Y-85193750D01*
X159806250Y-85193750D02*
X155693750Y-85193750D01*
X179260500Y-111252000D02*
X175387000Y-111252000D01*
X196112500Y-104718750D02*
X195262500Y-105568750D01*
X179832000Y-111252000D02*
X179260500Y-111252000D01*
X174879000Y-110744000D02*
X174879000Y-109855000D01*
X136906250Y-93718750D02*
X145168250Y-93718750D01*
X180181250Y-110393750D02*
X180181250Y-110902750D01*
X186531250Y-109537500D02*
X184816750Y-111252000D01*
X145168250Y-93718750D02*
X145288000Y-93599000D01*
X184816750Y-111252000D02*
X179260500Y-111252000D01*
X175387000Y-111252000D02*
X174879000Y-110744000D01*
X180181250Y-110902750D02*
X179832000Y-111252000D01*
X206787500Y-104718750D02*
X196112500Y-104718750D01*
X159806250Y-123293750D02*
X155693750Y-123293750D01*
X161131250Y-126143750D02*
X161131250Y-124618750D01*
X161131250Y-124618750D02*
X159806250Y-123293750D01*
X178856250Y-66143750D02*
X174743750Y-66143750D01*
X180181250Y-68993750D02*
X180181250Y-67468750D01*
X180181250Y-67468750D02*
X178856250Y-66143750D01*
X180181250Y-86518750D02*
X178856250Y-85193750D01*
X178856250Y-85193750D02*
X174743750Y-85193750D01*
X180181250Y-88043750D02*
X180181250Y-86518750D01*
X180181250Y-107093750D02*
X180181250Y-105568750D01*
X180181250Y-105568750D02*
X178856250Y-104243750D01*
X178856250Y-104243750D02*
X174743750Y-104243750D01*
X198437500Y-131762500D02*
X196850000Y-131762500D01*
X199231250Y-130968750D02*
X198437500Y-131762500D01*
X136459499Y-92718750D02*
X135567000Y-93611249D01*
X136525000Y-131762500D02*
X163512500Y-131762500D01*
X161131250Y-130968750D02*
X161131250Y-129443750D01*
X206787500Y-105718750D02*
X205050250Y-105718750D01*
X205050250Y-105718750D02*
X204978000Y-105791000D01*
X180181250Y-130968750D02*
X180181250Y-129443750D01*
X199231250Y-129443750D02*
X199231250Y-130968750D01*
X203200000Y-131762500D02*
X196850000Y-131762500D01*
X135567000Y-130804500D02*
X136525000Y-131762500D01*
X180975000Y-131762500D02*
X180181250Y-130968750D01*
X135567000Y-93611249D02*
X135567000Y-130804500D01*
X136906250Y-92718750D02*
X136459499Y-92718750D01*
X161925000Y-131762500D02*
X161131250Y-130968750D01*
X204089000Y-130873500D02*
X203200000Y-131762500D01*
X163512500Y-131762500D02*
X161925000Y-131762500D01*
X196850000Y-131762500D02*
X180975000Y-131762500D01*
X180975000Y-131762500D02*
X163512500Y-131762500D01*
X204089000Y-117475000D02*
X204089000Y-130873500D01*
X180181250Y-126143750D02*
X180181250Y-124618750D01*
X178856250Y-123293750D02*
X174743750Y-123293750D01*
X180181250Y-124618750D02*
X178856250Y-123293750D01*
X199231250Y-68993750D02*
X199231250Y-67468750D01*
X197906250Y-66143750D02*
X193793750Y-66143750D01*
X199231250Y-67468750D02*
X197906250Y-66143750D01*
X199231250Y-88043750D02*
X199231250Y-86518750D01*
X199231250Y-86518750D02*
X197906250Y-85193750D01*
X197906250Y-85193750D02*
X193793750Y-85193750D01*
X199231250Y-126175000D02*
X199231250Y-124650000D01*
X199231250Y-124618750D02*
X197906250Y-123293750D01*
X197906250Y-123293750D02*
X193793750Y-123293750D01*
X143256000Y-114046000D02*
X142494000Y-113284000D01*
X208026000Y-112903000D02*
X207264000Y-113665000D01*
X167513000Y-114046000D02*
X150495000Y-114046000D01*
X186436000Y-114046000D02*
X169418000Y-114046000D01*
X206883000Y-114046000D02*
X188595000Y-114046000D01*
X207264000Y-113665000D02*
X206883000Y-114046000D01*
X208026000Y-90043000D02*
X208026000Y-112903000D01*
X142494000Y-113284000D02*
X142494000Y-109474000D01*
X148336000Y-114046000D02*
X143256000Y-114046000D01*
X142494000Y-109474000D02*
X141738750Y-108718750D01*
X206787500Y-89718750D02*
X207701750Y-89718750D01*
X141738750Y-108718750D02*
X136906250Y-108718750D01*
X207701750Y-89718750D02*
X208026000Y-90043000D01*
X141754750Y-107718750D02*
X143256000Y-109220000D01*
X143256000Y-114808000D02*
X144018000Y-115570000D01*
X205780750Y-90718750D02*
X206787500Y-90718750D01*
X205232000Y-90170000D02*
X205780750Y-90718750D01*
X207776299Y-114930701D02*
X207776299Y-114177299D01*
X207518000Y-115189000D02*
X207776299Y-114930701D01*
X150622000Y-115570000D02*
X167513000Y-115570000D01*
X143256000Y-109220000D02*
X143256000Y-112776000D01*
X136906250Y-107718750D02*
X141754750Y-107718750D01*
X144018000Y-115570000D02*
X148336000Y-115570000D01*
X169545000Y-115570000D02*
X186690000Y-115570000D01*
X207137000Y-115570000D02*
X207518000Y-115189000D01*
X188722000Y-115570000D02*
X207137000Y-115570000D01*
X141643750Y-106718750D02*
X143891000Y-108966000D01*
X136906250Y-106718750D02*
X139280250Y-106718750D01*
X144145000Y-109220000D02*
X144145000Y-113321500D01*
X188214000Y-116586000D02*
X206718500Y-116586000D01*
X204978000Y-91443250D02*
X205253500Y-91718750D01*
X170180000Y-116586000D02*
X186690000Y-116586000D01*
X148659250Y-116515788D02*
X144366288Y-116515788D01*
X139280250Y-106718750D02*
X141643750Y-106718750D01*
X143891000Y-108966000D02*
X144145000Y-109220000D01*
X205253500Y-91718750D02*
X206787500Y-91718750D01*
X206718500Y-116586000D02*
X207010000Y-116294500D01*
X144366288Y-116515788D02*
X144145000Y-116294500D01*
X150108250Y-116515788D02*
X167459285Y-116515788D01*
X149383750Y-125253750D02*
X149383750Y-113061750D01*
X145827750Y-113061750D02*
X149383750Y-113061750D01*
X149383750Y-113061750D02*
X149383750Y-87153750D01*
X136906250Y-105718750D02*
X142167750Y-105718750D01*
X199787497Y-81042497D02*
X198146000Y-81042497D01*
X201295000Y-92329000D02*
X201295000Y-82550000D01*
X186690000Y-81026000D02*
X169158250Y-81026000D01*
X145034000Y-112268000D02*
X145827750Y-113061750D01*
X149383750Y-80295750D02*
X149383750Y-68103750D01*
X206787500Y-92718750D02*
X201684750Y-92718750D01*
X142167750Y-105718750D02*
X145034000Y-108585000D01*
X201295000Y-82550000D02*
X199787497Y-81042497D01*
X167709250Y-81026000D02*
X150114000Y-81026000D01*
X201422000Y-92456000D02*
X201295000Y-92329000D01*
X196342000Y-81026000D02*
X188208250Y-81026000D01*
X149383750Y-87153750D02*
X149383750Y-80295750D01*
X201684750Y-92718750D02*
X201422000Y-92456000D01*
X150114000Y-81026000D02*
X149383750Y-80295750D01*
X145034000Y-108585000D02*
X145034000Y-112268000D01*
X199263000Y-82042000D02*
X198146000Y-82042000D01*
X186690000Y-82042000D02*
X168973500Y-82042000D01*
X168433750Y-110077250D02*
X168021000Y-110490000D01*
X145923000Y-108839000D02*
X145923000Y-111760000D01*
X150495000Y-112141000D02*
X163068000Y-112141000D01*
X145923000Y-111760000D02*
X146177000Y-112014000D01*
X145288000Y-107950000D02*
X145923000Y-108585000D01*
X168433750Y-110077250D02*
X168433750Y-110521750D01*
X168973500Y-82042000D02*
X168433750Y-82581750D01*
X136906250Y-104718750D02*
X142056750Y-104718750D01*
X206787500Y-93718750D02*
X201668750Y-93718750D01*
X168433750Y-82581750D02*
X168433750Y-87153750D01*
X142056750Y-104718750D02*
X145288000Y-107950000D01*
X200787000Y-83566000D02*
X199263000Y-82042000D01*
X200787000Y-92837000D02*
X200787000Y-83566000D01*
X146304000Y-112141000D02*
X148082000Y-112141000D01*
X201668750Y-93718750D02*
X201041000Y-93091000D01*
X168433750Y-106203750D02*
X168433750Y-110077250D01*
X196697000Y-82042000D02*
X188595000Y-82042000D01*
X166243000Y-110490000D02*
X165866299Y-110866701D01*
X201041000Y-93091000D02*
X200787000Y-92837000D01*
X168433750Y-110521750D02*
X168433750Y-125253750D01*
X146177000Y-112014000D02*
X146304000Y-112141000D01*
X148082000Y-112141000D02*
X148336000Y-112141000D01*
X145923000Y-108585000D02*
X145923000Y-108839000D01*
X168433750Y-87153750D02*
X168433750Y-106203750D01*
X168433750Y-68103750D02*
X168433750Y-82581750D01*
X168021000Y-110490000D02*
X166243000Y-110490000D01*
X187483750Y-83470750D02*
X187483750Y-87153750D01*
X198755000Y-83185000D02*
X198628000Y-83058000D01*
X186880500Y-117475000D02*
X187483750Y-116871750D01*
X199263000Y-83185000D02*
X199009000Y-83185000D01*
X147193000Y-110871000D02*
X148209000Y-110871000D01*
X200279000Y-84201000D02*
X199263000Y-83185000D01*
X169418000Y-117475000D02*
X186880500Y-117475000D01*
X146304000Y-107188000D02*
X147066000Y-107950000D01*
X142834750Y-103718750D02*
X146304000Y-107188000D01*
X200279000Y-93599000D02*
X200279000Y-84201000D01*
X201398750Y-94718750D02*
X200914000Y-94234000D01*
X136906250Y-103718750D02*
X142834750Y-103718750D01*
X161290000Y-110744000D02*
X161798000Y-111252000D01*
X187483750Y-87153750D02*
X187483750Y-116871750D01*
X147066000Y-110744000D02*
X147193000Y-110871000D01*
X206787500Y-94718750D02*
X201398750Y-94718750D01*
X187483750Y-68103750D02*
X187483750Y-83470750D01*
X200914000Y-94234000D02*
X200279000Y-93599000D01*
X147066000Y-107950000D02*
X147066000Y-110744000D01*
X150749000Y-110744000D02*
X160401000Y-110744000D01*
X187896500Y-83058000D02*
X187483750Y-83470750D01*
X187483750Y-116871750D02*
X187483750Y-125253750D01*
X160401000Y-110744000D02*
X161290000Y-110744000D01*
X196342000Y-83058000D02*
X187896500Y-83058000D01*
X199009000Y-83185000D02*
X198755000Y-83185000D01*
X191897000Y-110608400D02*
X191829200Y-110676200D01*
X206787500Y-95718750D02*
X204938750Y-95718750D01*
X163830000Y-104267000D02*
X163957000Y-104394000D01*
X193714250Y-95718750D02*
X192278000Y-97155000D01*
X145669000Y-103632000D02*
X147447000Y-103632000D01*
X191897000Y-97536000D02*
X191897000Y-97954500D01*
X192278000Y-97155000D02*
X191897000Y-97536000D01*
X204938750Y-95718750D02*
X193714250Y-95718750D01*
X169164000Y-113030000D02*
X186702462Y-113030000D01*
X186702462Y-113030000D02*
X186759250Y-113086788D01*
X144755750Y-102718750D02*
X145415000Y-103378000D01*
X165100000Y-112903000D02*
X165354000Y-112903000D01*
X136906250Y-102718750D02*
X139470250Y-102718750D01*
X191897000Y-103759000D02*
X191897000Y-110608400D01*
X163957000Y-104394000D02*
X163957000Y-111760000D01*
X139470250Y-102718750D02*
X144755750Y-102718750D01*
X163195000Y-103632000D02*
X163830000Y-104267000D01*
X145415000Y-103378000D02*
X145669000Y-103632000D01*
X150495000Y-103632000D02*
X163195000Y-103632000D01*
X163957000Y-111760000D02*
X165100000Y-112903000D01*
X148590000Y-102870000D02*
X146304000Y-102870000D01*
X191262000Y-112268000D02*
X188849000Y-112268000D01*
X206787500Y-96718750D02*
X204414750Y-96718750D01*
X164719000Y-110744000D02*
X164719000Y-103251000D01*
X188849000Y-112268000D02*
X188722000Y-112141000D01*
X146304000Y-102870000D02*
X145152750Y-101718750D01*
X166751000Y-112141000D02*
X166116000Y-112141000D01*
X192659000Y-102997000D02*
X192659000Y-110871000D01*
X166116000Y-112141000D02*
X165354000Y-111379000D01*
X164338000Y-102870000D02*
X151638000Y-102870000D01*
X204414750Y-96718750D02*
X194111250Y-96718750D01*
X192659000Y-110871000D02*
X191262000Y-112268000D01*
X164719000Y-103251000D02*
X164338000Y-102870000D01*
X145152750Y-101718750D02*
X136906250Y-101718750D01*
X186436000Y-112141000D02*
X169926000Y-112141000D01*
X194111250Y-96718750D02*
X192913000Y-97917000D01*
X165354000Y-111379000D02*
X164719000Y-110744000D01*
X169222787Y-102177636D02*
X186736424Y-102177636D01*
X206787500Y-97718750D02*
X194545750Y-97718750D01*
X140073250Y-100718750D02*
X145295750Y-100718750D01*
X145796000Y-101219000D02*
X146685000Y-102108000D01*
X169158250Y-102113099D02*
X169222787Y-102177636D01*
X150368000Y-102108000D02*
X167709250Y-102108000D01*
X194545750Y-97718750D02*
X194310000Y-97954500D01*
X146685000Y-102108000D02*
X147701000Y-102108000D01*
X136906250Y-100718750D02*
X140073250Y-100718750D01*
X193510500Y-102108000D02*
X193548000Y-102070500D01*
X188214000Y-102108000D02*
X193510500Y-102108000D01*
X145295750Y-100718750D02*
X145796000Y-101219000D01*
X206787500Y-98718750D02*
X203747750Y-98718750D01*
X194818000Y-101346000D02*
X194940701Y-101223299D01*
X203747750Y-98718750D02*
X197318250Y-98718750D01*
X140311250Y-99718750D02*
X145438750Y-99718750D01*
X146431000Y-100711000D02*
X146939000Y-101219000D01*
X169799000Y-101346000D02*
X186182000Y-101346000D01*
X146939000Y-101219000D02*
X148463000Y-101219000D01*
X197318250Y-98718750D02*
X197231000Y-98806000D01*
X151257000Y-101346000D02*
X167005000Y-101346000D01*
X145438750Y-99718750D02*
X146431000Y-100711000D01*
X188976000Y-101346000D02*
X194818000Y-101346000D01*
X136906250Y-99718750D02*
X140311250Y-99718750D01*
X196873750Y-99718750D02*
X206787500Y-99718750D01*
X148619500Y-98718750D02*
X148659250Y-98679000D01*
X169164000Y-98679000D02*
X186759250Y-98679000D01*
X150241000Y-98679000D02*
X167640000Y-98679000D01*
X136906250Y-98718750D02*
X148619500Y-98718750D01*
X188214000Y-98679000D02*
X195834000Y-98679000D01*
X195834000Y-98679000D02*
X196873750Y-99718750D01*
X136088250Y-97718750D02*
X136017000Y-97790000D01*
X151002027Y-99568000D02*
X150880866Y-99446839D01*
X147044500Y-97718750D02*
X147320000Y-97994250D01*
X139628750Y-97718750D02*
X136088250Y-97718750D01*
X196603750Y-100718750D02*
X195707000Y-99822000D01*
X203715750Y-100718750D02*
X203708000Y-100711000D01*
X206787500Y-100718750D02*
X203715750Y-100718750D01*
X195707000Y-99822000D02*
X195453000Y-99568000D01*
X166624000Y-99568000D02*
X151002027Y-99568000D01*
X139628750Y-97718750D02*
X147044500Y-97718750D01*
X203715750Y-100718750D02*
X196603750Y-100718750D01*
X195453000Y-99568000D02*
X189103000Y-99568000D01*
X185928000Y-99568000D02*
X169799000Y-99568000D01*
X195326000Y-100584000D02*
X195199000Y-100457000D01*
X206787500Y-101718750D02*
X203826750Y-101718750D01*
X203826750Y-101718750D02*
X196460750Y-101718750D01*
X196460750Y-101718750D02*
X195326000Y-100584000D01*
X146248750Y-96718750D02*
X146431000Y-96901000D01*
X195199000Y-100457000D02*
X188341000Y-100457000D01*
X186759250Y-100457000D02*
X169164000Y-100457000D01*
X136906250Y-96718750D02*
X146248750Y-96718750D01*
X167513000Y-100457000D02*
X150622000Y-100457000D01*
X193586750Y-106718750D02*
X193548000Y-106680000D01*
X206787500Y-106718750D02*
X203492750Y-106718750D01*
X136906250Y-91718750D02*
X139597750Y-91718750D01*
X148300045Y-95341045D02*
X148659250Y-95341045D01*
X147574000Y-92329000D02*
X147574000Y-94615000D01*
X184277000Y-95631000D02*
X184568500Y-95922500D01*
X203492750Y-106718750D02*
X193586750Y-106718750D01*
X191172500Y-106680000D02*
X188341000Y-106680000D01*
X139597750Y-91718750D02*
X146963750Y-91718750D01*
X150114000Y-95377000D02*
X167640000Y-95377000D01*
X147574000Y-94615000D02*
X148300045Y-95341045D01*
X184023000Y-95377000D02*
X184277000Y-95631000D01*
X184568500Y-95922500D02*
X184568500Y-97227774D01*
X169291000Y-95377000D02*
X184023000Y-95377000D01*
X146963750Y-91718750D02*
X147574000Y-92329000D01*
X185547000Y-106680000D02*
X185420000Y-106553000D01*
X147233750Y-90718750D02*
X148463000Y-91948000D01*
X185420000Y-106553000D02*
X185293000Y-106426000D01*
X148463000Y-91948000D02*
X148463000Y-94361000D01*
X193824750Y-107718750D02*
X193802000Y-107696000D01*
X185509500Y-97954500D02*
X185547000Y-97917000D01*
X185293000Y-106426000D02*
X185293000Y-102902136D01*
X185293000Y-94996000D02*
X184658000Y-94361000D01*
X203349750Y-107718750D02*
X193824750Y-107718750D01*
X184658000Y-94361000D02*
X170079000Y-94361000D01*
X166624000Y-94387000D02*
X150342000Y-94387000D01*
X185293000Y-97954500D02*
X185509500Y-97954500D01*
X206787500Y-107718750D02*
X203349750Y-107718750D01*
X136906250Y-90718750D02*
X147233750Y-90718750D01*
X186563000Y-107696000D02*
X185674000Y-106807000D01*
X185674000Y-106807000D02*
X185547000Y-106680000D01*
X170079000Y-94361000D02*
X170053000Y-94387000D01*
X188722000Y-107696000D02*
X188341000Y-107696000D01*
X191135000Y-107696000D02*
X188722000Y-107696000D01*
X185293000Y-97954500D02*
X185293000Y-94996000D01*
M02*
