M48
; DRILL file {KiCad (6.0.9)} date Fri Mar 10 16:44:19 2023
; FORMAT={-:-/ absolute / metric / decimal}
; #@! TF.CreationDate,2023-03-10T16:44:19-06:00
; #@! TF.GenerationSoftware,Kicad,Pcbnew,(6.0.9)
; #@! TF.FileFunction,Plated,1,2,PTH
FMAT,2
METRIC
; #@! TA.AperFunction,Plated,PTH,ViaDrill
T1C0.400
; #@! TA.AperFunction,Plated,PTH,ComponentDrill
T2C1.000
; #@! TA.AperFunction,Plated,PTH,ComponentDrill
T3C1.470
%
G90
G05
T1
X144.6Y-102.024
X145.45Y-108.4
X145.45Y-113.35
X146.725Y-109.35
X147.637Y-76.2
X147.637Y-78.581
X147.637Y-80.169
X147.637Y-81.756
X147.637Y-83.344
X147.952Y-112.524
X148.0Y-101.3
X148.431Y-75.406
X148.431Y-77.787
X148.431Y-79.375
X148.431Y-80.962
X148.431Y-82.55
X148.659Y-100.5
X148.659Y-105.55
X148.659Y-111.8
X150.108Y-73.8
X150.108Y-75.406
X150.108Y-77.787
X150.108Y-79.375
X150.108Y-80.962
X150.108Y-82.55
X150.108Y-105.55
X150.108Y-109.35
X150.108Y-111.8
X150.2Y-100.5
X150.812Y-76.2
X150.812Y-78.581
X150.812Y-80.169
X150.812Y-81.756
X150.812Y-83.344
X150.85Y-101.3
X150.95Y-112.524
X165.9Y-99.775
X165.9Y-102.024
X166.688Y-75.406
X166.688Y-76.994
X166.688Y-78.581
X166.688Y-80.962
X166.688Y-82.55
X166.9Y-111.05
X166.9Y-112.524
X166.95Y-101.3
X167.481Y-74.612
X167.481Y-76.2
X167.481Y-77.787
X167.481Y-80.169
X167.481Y-81.756
X167.481Y-83.344
X167.481Y-93.662
X167.709Y-100.5
X167.709Y-111.8
X169.158Y-75.406
X169.158Y-76.994
X169.158Y-78.581
X169.158Y-80.169
X169.158Y-81.756
X169.158Y-83.344
X169.158Y-93.662
X169.158Y-100.5
X169.158Y-111.8
X169.8Y-101.3
X169.862Y-74.612
X169.862Y-76.2
X169.862Y-77.787
X169.862Y-80.962
X169.862Y-82.55
X170.05Y-112.524
X185.737Y-75.406
X185.737Y-76.994
X185.737Y-80.169
X185.737Y-81.756
X185.737Y-83.344
X186.0Y-101.3
X186.531Y-74.612
X186.531Y-76.2
X186.531Y-77.787
X186.531Y-79.375
X186.531Y-80.962
X186.531Y-82.55
X186.531Y-93.662
X186.759Y-100.5
X186.759Y-107.25
X186.759Y-112.5
X188.208Y-75.406
X188.208Y-76.994
X188.208Y-79.375
X188.208Y-80.962
X188.208Y-82.55
X188.208Y-100.5
X188.208Y-107.25
X188.208Y-111.1
X188.208Y-112.5
X188.803Y-101.304
X188.912Y-74.612
X188.912Y-76.2
X188.912Y-77.787
X188.912Y-80.169
X188.912Y-81.756
X188.912Y-83.344
X188.912Y-93.662
X203.4Y-102.1
X203.45Y-99.6
X204.65Y-74.682
X205.0Y-102.1
X208.7Y-109.025
X208.7Y-111.7
T2
X130.085Y-87.769
X130.085Y-90.309
X130.085Y-92.849
X130.085Y-95.389
X130.085Y-97.929
X130.085Y-100.469
X130.085Y-103.009
X130.085Y-105.549
X130.085Y-108.089
X130.085Y-110.629
X132.625Y-87.769
X132.625Y-90.309
X132.625Y-92.849
X132.625Y-95.389
X132.625Y-97.929
X132.625Y-100.469
X132.625Y-103.009
X132.625Y-105.549
X132.625Y-108.089
X132.625Y-110.629
X211.931Y-88.106
X211.931Y-90.646
X211.931Y-93.186
X211.931Y-95.726
X211.931Y-98.266
X211.931Y-100.806
X211.931Y-103.346
X211.931Y-105.886
X211.931Y-108.426
X211.931Y-110.966
X214.471Y-88.106
X214.471Y-90.646
X214.471Y-93.186
X214.471Y-95.726
X214.471Y-98.266
X214.471Y-100.806
X214.471Y-103.346
X214.471Y-105.886
X214.471Y-108.426
X214.471Y-110.966
T3
X149.384Y-68.104
X149.384Y-87.154
X149.384Y-125.254
X150.694Y-66.644
X150.694Y-85.694
X150.694Y-123.794
X155.694Y-66.144
X155.694Y-85.194
X155.694Y-123.294
X155.734Y-65.564
X155.734Y-84.614
X155.734Y-122.714
X168.434Y-68.104
X168.434Y-87.154
X168.434Y-106.204
X168.434Y-125.254
X169.744Y-66.644
X169.744Y-85.694
X169.744Y-104.744
X169.744Y-123.794
X174.744Y-66.144
X174.744Y-85.194
X174.744Y-104.244
X174.744Y-123.294
X174.784Y-65.564
X174.784Y-84.614
X174.784Y-103.664
X174.784Y-122.714
X187.484Y-68.104
X187.484Y-87.154
X187.484Y-125.254
X188.794Y-66.644
X188.794Y-85.694
X188.794Y-123.794
X193.794Y-66.144
X193.794Y-85.194
X193.794Y-123.294
X193.834Y-65.564
X193.834Y-84.614
X193.834Y-122.714
T0
M30
