G04 #@! TF.GenerationSoftware,KiCad,Pcbnew,(6.0.9)*
G04 #@! TF.CreationDate,2022-12-29T20:25:28-06:00*
G04 #@! TF.ProjectId,Navigation Keys,4e617669-6761-4746-996f-6e204b657973,rev?*
G04 #@! TF.SameCoordinates,Original*
G04 #@! TF.FileFunction,Copper,L2,Bot*
G04 #@! TF.FilePolarity,Positive*
%FSLAX46Y46*%
G04 Gerber Fmt 4.6, Leading zero omitted, Abs format (unit mm)*
G04 Created by KiCad (PCBNEW (6.0.9)) date 2022-12-29 20:25:28*
%MOMM*%
%LPD*%
G01*
G04 APERTURE LIST*
G04 Aperture macros list*
%AMHorizOval*
0 Thick line with rounded ends*
0 $1 width*
0 $2 $3 position (X,Y) of the first rounded end (center of the circle)*
0 $4 $5 position (X,Y) of the second rounded end (center of the circle)*
0 Add line between two ends*
20,1,$1,$2,$3,$4,$5,0*
0 Add two circle primitives to create the rounded ends*
1,1,$1,$2,$3*
1,1,$1,$4,$5*%
G04 Aperture macros list end*
G04 #@! TA.AperFunction,ComponentPad*
%ADD10C,2.250000*%
G04 #@! TD*
G04 #@! TA.AperFunction,ComponentPad*
%ADD11HorizOval,2.250000X0.655001X0.730000X-0.655001X-0.730000X0*%
G04 #@! TD*
G04 #@! TA.AperFunction,ComponentPad*
%ADD12HorizOval,2.250000X0.020000X0.290000X-0.020000X-0.290000X0*%
G04 #@! TD*
G04 #@! TA.AperFunction,ViaPad*
%ADD13C,0.800000*%
G04 #@! TD*
G04 #@! TA.AperFunction,Conductor*
%ADD14C,0.250000*%
G04 #@! TD*
G04 APERTURE END LIST*
D10*
X188793750Y-123793750D03*
D11*
X188138751Y-124523750D03*
D12*
X193813750Y-123003750D03*
D10*
X193833750Y-122713750D03*
X150693750Y-66643750D03*
D11*
X150038751Y-67373750D03*
D12*
X155713750Y-65853750D03*
D10*
X155733750Y-65563750D03*
D11*
X188138751Y-67373750D03*
D10*
X188793750Y-66643750D03*
D12*
X193813750Y-65853750D03*
D10*
X193833750Y-65563750D03*
D11*
X169088751Y-67373750D03*
D10*
X169743750Y-66643750D03*
X174783750Y-65563750D03*
D12*
X174763750Y-65853750D03*
D10*
X150693750Y-123793750D03*
D11*
X150038751Y-124523750D03*
D12*
X155713750Y-123003750D03*
D10*
X155733750Y-122713750D03*
D11*
X150038751Y-86423750D03*
D10*
X150693750Y-85693750D03*
X155733750Y-84613750D03*
D12*
X155713750Y-84903750D03*
D11*
X169088751Y-86423750D03*
D10*
X169743750Y-85693750D03*
D12*
X174763750Y-84903750D03*
D10*
X174783750Y-84613750D03*
D11*
X188138751Y-86423750D03*
D10*
X188793750Y-85693750D03*
D12*
X193813750Y-84903750D03*
D10*
X193833750Y-84613750D03*
D11*
X169088751Y-105473750D03*
D10*
X169743750Y-104743750D03*
X174783750Y-103663750D03*
D12*
X174763750Y-103953750D03*
D11*
X169088751Y-124523750D03*
D10*
X169743750Y-123793750D03*
D12*
X174763750Y-123003750D03*
D10*
X174783750Y-122713750D03*
D13*
X186531250Y-74612500D03*
X199517000Y-84963000D03*
X147637500Y-74612500D03*
X146812000Y-88646000D03*
X167481250Y-74612500D03*
X146680701Y-92460299D03*
X169862500Y-74612500D03*
X199517000Y-102489000D03*
X188912500Y-74612500D03*
X150812500Y-74612500D03*
X167481250Y-93662500D03*
X169158250Y-93662500D03*
X198437500Y-94456250D03*
X188912500Y-93662500D03*
X152400000Y-93662500D03*
X186531250Y-93662500D03*
X145796000Y-94742000D03*
X198437500Y-102443250D03*
X186531250Y-109537500D03*
X195262500Y-105568750D03*
X145288000Y-93599000D03*
X174879000Y-109855000D03*
X204089000Y-117475000D03*
X204978000Y-105791000D03*
X169418000Y-114046000D03*
X148336000Y-114046000D03*
X167513000Y-114046000D03*
X186436000Y-114046000D03*
X150495000Y-114046000D03*
X188595000Y-114046000D03*
X188722000Y-115570000D03*
X207776299Y-114177299D03*
X143256000Y-112649000D03*
X148336000Y-115570000D03*
X143256000Y-114808000D03*
X186690000Y-115570000D03*
X205232000Y-90170000D03*
X167513000Y-115570000D03*
X169545000Y-115570000D03*
X150622000Y-115570000D03*
X170180000Y-116586000D03*
X186690000Y-116586000D03*
X204978000Y-91443250D03*
X167456326Y-116567894D03*
X144145000Y-116294500D03*
X188214000Y-116586000D03*
X150108250Y-116515788D03*
X144145000Y-113321500D03*
X148659250Y-116515788D03*
X207010000Y-116294500D03*
X167709250Y-81026000D03*
X196342000Y-81026000D03*
X198146000Y-81042497D03*
X186690000Y-81026000D03*
X169158250Y-81026000D03*
X188208250Y-81026000D03*
X163068000Y-112141000D03*
X188595000Y-82042000D03*
X198146000Y-82042000D03*
X148336000Y-112141000D03*
X186690000Y-82042000D03*
X165866299Y-110866701D03*
X150495000Y-112141000D03*
X196697000Y-82042000D03*
X169418000Y-117475000D03*
X161798000Y-111252000D03*
X148209000Y-110871000D03*
X150749000Y-110744000D03*
X198628000Y-83058000D03*
X196342000Y-83058000D03*
X147447000Y-103632000D03*
X191897000Y-97954500D03*
X169164000Y-113030000D03*
X186759250Y-113086788D03*
X191897000Y-103759000D03*
X150495000Y-103632000D03*
X191829200Y-110676200D03*
X165354000Y-112903000D03*
X192659000Y-102997000D03*
X186436000Y-112141000D03*
X169926000Y-112141000D03*
X166751000Y-112141000D03*
X151638000Y-102870000D03*
X192913000Y-97917000D03*
X148590000Y-102870000D03*
X188722000Y-112141000D03*
X169158250Y-102113099D03*
X150368000Y-102108000D03*
X147701000Y-102108000D03*
X188214000Y-102108000D03*
X194310000Y-97954500D03*
X186736424Y-102177636D03*
X167709250Y-102108000D03*
X193548000Y-102070500D03*
X167005000Y-101346000D03*
X148463000Y-101219000D03*
X197231000Y-98806000D03*
X186182000Y-101346000D03*
X188976000Y-101346000D03*
X169799000Y-101346000D03*
X194940701Y-101223299D03*
X151257000Y-101346000D03*
X167640000Y-98679000D03*
X150241000Y-98679000D03*
X186759250Y-98679000D03*
X169164000Y-98679000D03*
X188214000Y-98679000D03*
X148659250Y-98679000D03*
X147320000Y-97994250D03*
X150880866Y-99446839D03*
X189103000Y-99568000D03*
X169799000Y-99568000D03*
X166624000Y-99568000D03*
X185928000Y-99568000D03*
X146431000Y-96901000D03*
X150622000Y-100457000D03*
X169164000Y-100457000D03*
X167513000Y-100457000D03*
X188341000Y-100457000D03*
X186759250Y-100457000D03*
X169291000Y-95377000D03*
X167640000Y-95377000D03*
X150114000Y-95377000D03*
X184568500Y-97227774D03*
X193548000Y-106680000D03*
X188341000Y-106680000D03*
X148659250Y-95341045D03*
X191172500Y-106680000D03*
X170053000Y-94387000D03*
X185293000Y-102902136D03*
X191135000Y-107696000D03*
X193802000Y-107696000D03*
X148463000Y-94361000D03*
X188341000Y-107696000D03*
X186563000Y-107696000D03*
X166624000Y-94387000D03*
X185293000Y-97954500D03*
X150342000Y-94387000D03*
D14*
X146685000Y-88773000D02*
X146812000Y-88646000D01*
X199517000Y-85217000D02*
X199517000Y-84963000D01*
X188912500Y-74612500D02*
X186531250Y-74612500D01*
X146680701Y-92460299D02*
X146685000Y-92456000D01*
X146685000Y-92456000D02*
X146685000Y-89535000D01*
X147637500Y-74612500D02*
X150812500Y-74612500D01*
X169862500Y-74612500D02*
X167481250Y-74612500D01*
X199517000Y-102489000D02*
X199517000Y-85217000D01*
X146685000Y-89535000D02*
X146685000Y-88773000D01*
X151257000Y-96901000D02*
X151257000Y-96012000D01*
X169158250Y-93662500D02*
X167481250Y-93662500D01*
X151257000Y-96012000D02*
X151257000Y-94107000D01*
X148209000Y-97536000D02*
X148590000Y-97536000D01*
X151701500Y-93662500D02*
X152400000Y-93662500D01*
X147320000Y-95250000D02*
X147320000Y-96647000D01*
X148590000Y-97536000D02*
X150622000Y-97536000D01*
X147320000Y-96647000D02*
X148209000Y-97536000D01*
X150622000Y-97536000D02*
X151257000Y-96901000D01*
X146812000Y-94742000D02*
X147066000Y-94996000D01*
X198437500Y-102443250D02*
X198437500Y-94456250D01*
X188912500Y-93662500D02*
X186531250Y-93662500D01*
X145796000Y-94742000D02*
X146812000Y-94742000D01*
X151257000Y-94107000D02*
X151701500Y-93662500D01*
X147066000Y-94996000D02*
X147320000Y-95250000D01*
X171577000Y-105664000D02*
X172212000Y-106299000D01*
X171196000Y-92837000D02*
X171577000Y-93218000D01*
X171577000Y-93218000D02*
X171577000Y-105664000D01*
X151765000Y-92837000D02*
X156464000Y-92837000D01*
X172212000Y-106299000D02*
X172974000Y-106299000D01*
X151257000Y-93345000D02*
X151765000Y-92837000D01*
X174879000Y-108028867D02*
X174879000Y-109093000D01*
X156464000Y-92837000D02*
X171196000Y-92837000D01*
X145288000Y-93599000D02*
X151003000Y-93599000D01*
X174879000Y-109093000D02*
X174879000Y-109855000D01*
X173149133Y-106299000D02*
X174879000Y-108028867D01*
X195262500Y-108743750D02*
X194468750Y-109537500D01*
X194468750Y-109537500D02*
X186531250Y-109537500D01*
X172974000Y-106299000D02*
X173149133Y-106299000D01*
X195262500Y-105568750D02*
X195262500Y-108743750D01*
X151003000Y-93599000D02*
X151257000Y-93345000D01*
X204978000Y-105791000D02*
X204089000Y-106680000D01*
X204089000Y-106680000D02*
X204089000Y-117475000D01*
X204089000Y-117602000D02*
X204089000Y-117475000D01*
X188595000Y-114046000D02*
X186436000Y-114046000D01*
X169418000Y-114046000D02*
X167513000Y-114046000D01*
X150495000Y-114046000D02*
X148336000Y-114046000D01*
X205232000Y-90170000D02*
X205867000Y-89535000D01*
X186690000Y-115570000D02*
X188722000Y-115570000D01*
X167513000Y-115570000D02*
X169545000Y-115570000D01*
X205867000Y-89535000D02*
X207010000Y-89535000D01*
X207776299Y-90301299D02*
X207776299Y-114177299D01*
X148336000Y-115570000D02*
X150622000Y-115570000D01*
X207010000Y-89535000D02*
X207776299Y-90301299D01*
X143256000Y-112649000D02*
X143256000Y-114808000D01*
X170161894Y-116567894D02*
X170180000Y-116586000D01*
X207326299Y-91186000D02*
X207326299Y-111887000D01*
X144145000Y-113321500D02*
X144145000Y-116078000D01*
X205362250Y-91059000D02*
X207199299Y-91059000D01*
X204978000Y-91443250D02*
X205362250Y-91059000D01*
X207199299Y-91059000D02*
X207326299Y-91186000D01*
X207010000Y-112203299D02*
X207010000Y-116294500D01*
X148659250Y-116515788D02*
X150057212Y-116515788D01*
X144145000Y-116078000D02*
X144145000Y-116294500D01*
X186690000Y-116586000D02*
X188214000Y-116586000D01*
X207326299Y-111887000D02*
X207010000Y-112203299D01*
X167456326Y-116567894D02*
X170161894Y-116567894D01*
X198146000Y-81042497D02*
X196358497Y-81042497D01*
X196358497Y-81042497D02*
X196342000Y-81026000D01*
X169158250Y-81026000D02*
X167709250Y-81026000D01*
X188208250Y-81026000D02*
X186690000Y-81026000D01*
X148336000Y-112141000D02*
X150495000Y-112141000D01*
X188595000Y-82042000D02*
X186690000Y-82042000D01*
X163068000Y-112141000D02*
X164592000Y-112141000D01*
X198146000Y-82042000D02*
X196697000Y-82042000D01*
X164592000Y-112141000D02*
X165866299Y-110866701D01*
X163068000Y-117348000D02*
X163195000Y-117475000D01*
X163195000Y-117475000D02*
X169418000Y-117475000D01*
X148209000Y-110871000D02*
X150622000Y-110871000D01*
X161798000Y-116078000D02*
X163068000Y-117348000D01*
X161798000Y-111252000D02*
X161798000Y-116078000D01*
X150622000Y-110871000D02*
X150749000Y-110744000D01*
X198628000Y-83058000D02*
X196342000Y-83058000D01*
X191897000Y-97954500D02*
X191897000Y-103759000D01*
X186759250Y-113086788D02*
X191196612Y-113086788D01*
X147447000Y-103632000D02*
X150495000Y-103632000D01*
X169037000Y-112903000D02*
X169164000Y-113030000D01*
X191829200Y-110676200D02*
X191829200Y-112454200D01*
X165354000Y-112903000D02*
X169037000Y-112903000D01*
X191196612Y-113086788D02*
X191829200Y-112454200D01*
X188722000Y-112141000D02*
X186436000Y-112141000D01*
X192913000Y-97917000D02*
X192659000Y-98171000D01*
X192659000Y-98171000D02*
X192659000Y-102997000D01*
X151638000Y-102870000D02*
X148590000Y-102870000D01*
X169926000Y-112141000D02*
X166751000Y-112141000D01*
X167709250Y-102108000D02*
X169153151Y-102108000D01*
X147701000Y-102108000D02*
X150368000Y-102108000D01*
X169153151Y-102108000D02*
X169158250Y-102113099D01*
X193548000Y-98716500D02*
X194310000Y-97954500D01*
X186736424Y-102177636D02*
X188144364Y-102177636D01*
X188144364Y-102177636D02*
X188214000Y-102108000D01*
X193548000Y-102070500D02*
X193548000Y-98716500D01*
X151130000Y-101219000D02*
X151257000Y-101346000D01*
X148463000Y-101219000D02*
X151130000Y-101219000D01*
X167005000Y-101346000D02*
X169799000Y-101346000D01*
X186182000Y-101346000D02*
X188976000Y-101346000D01*
X194940701Y-100588299D02*
X194940701Y-101223299D01*
X196850000Y-99187000D02*
X196342000Y-99187000D01*
X196342000Y-99187000D02*
X194940701Y-100588299D01*
X197231000Y-98806000D02*
X196850000Y-99187000D01*
X186759250Y-98679000D02*
X188214000Y-98679000D01*
X167640000Y-98679000D02*
X169164000Y-98679000D01*
X148659250Y-98679000D02*
X150241000Y-98679000D01*
X147320000Y-98933000D02*
X147320000Y-98298000D01*
X150880866Y-99446839D02*
X147833839Y-99446839D01*
X147701000Y-99314000D02*
X147320000Y-98933000D01*
X147320000Y-98298000D02*
X147320000Y-97994250D01*
X169799000Y-99568000D02*
X166624000Y-99568000D01*
X147833839Y-99446839D02*
X147701000Y-99314000D01*
X189103000Y-99568000D02*
X185928000Y-99568000D01*
X150880866Y-99446839D02*
X150877277Y-99443250D01*
X146812000Y-99822000D02*
X146558000Y-99568000D01*
X150622000Y-100457000D02*
X147447000Y-100457000D01*
X188341000Y-100457000D02*
X186759250Y-100457000D01*
X169164000Y-100457000D02*
X167513000Y-100457000D01*
X146558000Y-99568000D02*
X146558000Y-97028000D01*
X146558000Y-97028000D02*
X146431000Y-96901000D01*
X147447000Y-100457000D02*
X146812000Y-99822000D01*
X185166000Y-106680000D02*
X184568500Y-106082500D01*
X193548000Y-106680000D02*
X191172500Y-106680000D01*
X184568500Y-106082500D02*
X184568500Y-97227774D01*
X188341000Y-106680000D02*
X185166000Y-106680000D01*
X150078045Y-95341045D02*
X150114000Y-95377000D01*
X148659250Y-95341045D02*
X150078045Y-95341045D01*
X167640000Y-95377000D02*
X169291000Y-95377000D01*
X148489000Y-94387000D02*
X148463000Y-94361000D01*
X193802000Y-107696000D02*
X191135000Y-107696000D01*
X185203000Y-98044500D02*
X185293000Y-97954500D01*
X170053000Y-94387000D02*
X166624000Y-94387000D01*
X185203000Y-102812136D02*
X185203000Y-98044500D01*
X150342000Y-94387000D02*
X148489000Y-94387000D01*
X185293000Y-102902136D02*
X185203000Y-102812136D01*
X188341000Y-107696000D02*
X186563000Y-107696000D01*
M02*
