%TF.GenerationSoftware,KiCad,Pcbnew,(6.0.9)*%
%TF.CreationDate,2023-03-10T16:44:19-06:00*%
%TF.ProjectId,Navigation Keys,4e617669-6761-4746-996f-6e204b657973,rev?*%
%TF.SameCoordinates,Original*%
%TF.FileFunction,Drillmap*%
%TF.FilePolarity,Positive*%
%FSLAX45Y45*%
G04 Gerber Fmt 4.5, Leading zero omitted, Abs format (unit mm)*
G04 Created by KiCad (PCBNEW (6.0.9)) date 2023-03-10 16:44:19*
%MOMM*%
%LPD*%
G01*
G04 APERTURE LIST*
%ADD10C,0.150000*%
%ADD11C,0.100000*%
%ADD12C,0.200000*%
%ADD13C,0.040000*%
%ADD14C,0.147000*%
G04 APERTURE END LIST*
D10*
X21351875Y-13731880D02*
G75*
G03*
X21590000Y-13493750I-5J238130D01*
G01*
X13096875Y-6111870D02*
G75*
G03*
X12858750Y-6350000I5J-238130D01*
G01*
X21590000Y-6350000D02*
X21590000Y-13493750D01*
D11*
X13335000Y-13335000D02*
G75*
G03*
X13335000Y-13335000I-79375J0D01*
G01*
X19208750Y-10398125D02*
G75*
G03*
X19208750Y-10398125I-79375J0D01*
G01*
X21272500Y-13335000D02*
G75*
G03*
X21272500Y-13335000I-79375J0D01*
G01*
D10*
X12858750Y-6350000D02*
X12858750Y-13493750D01*
X21351875Y-6111875D02*
X13096875Y-6111875D01*
X12858755Y-13493750D02*
G75*
G03*
X13096875Y-13731875I238125J0D01*
G01*
D11*
X15398750Y-11588750D02*
G75*
G03*
X15398750Y-11588750I-79375J0D01*
G01*
X13335000Y-6508750D02*
G75*
G03*
X13335000Y-6508750I-79375J0D01*
G01*
D10*
X13096875Y-13731875D02*
X21351875Y-13731875D01*
D11*
X21272500Y-6508750D02*
G75*
G03*
X21272500Y-6508750I-79375J0D01*
G01*
D10*
X21589995Y-6350000D02*
G75*
G03*
X21351875Y-6111875I-238125J0D01*
G01*
D12*
D13*
X14440000Y-10182450D02*
X14480000Y-10222450D01*
X14480000Y-10182450D02*
X14440000Y-10222450D01*
X14525000Y-10820000D02*
X14565000Y-10860000D01*
X14565000Y-10820000D02*
X14525000Y-10860000D01*
X14525000Y-11315000D02*
X14565000Y-11355000D01*
X14565000Y-11315000D02*
X14525000Y-11355000D01*
X14652550Y-10915000D02*
X14692550Y-10955000D01*
X14692550Y-10915000D02*
X14652550Y-10955000D01*
X14743750Y-7600000D02*
X14783750Y-7640000D01*
X14783750Y-7600000D02*
X14743750Y-7640000D01*
X14743750Y-7838125D02*
X14783750Y-7878125D01*
X14783750Y-7838125D02*
X14743750Y-7878125D01*
X14743750Y-7996875D02*
X14783750Y-8036875D01*
X14783750Y-7996875D02*
X14743750Y-8036875D01*
X14743750Y-8155625D02*
X14783750Y-8195625D01*
X14783750Y-8155625D02*
X14743750Y-8195625D01*
X14743750Y-8314375D02*
X14783750Y-8354375D01*
X14783750Y-8314375D02*
X14743750Y-8354375D01*
X14775246Y-11232450D02*
X14815246Y-11272450D01*
X14815246Y-11232450D02*
X14775246Y-11272450D01*
X14780000Y-10110000D02*
X14820000Y-10150000D01*
X14820000Y-10110000D02*
X14780000Y-10150000D01*
X14823125Y-7520625D02*
X14863125Y-7560625D01*
X14863125Y-7520625D02*
X14823125Y-7560625D01*
X14823125Y-7758750D02*
X14863125Y-7798750D01*
X14863125Y-7758750D02*
X14823125Y-7798750D01*
X14823125Y-7917500D02*
X14863125Y-7957500D01*
X14863125Y-7917500D02*
X14823125Y-7957500D01*
X14823125Y-8076250D02*
X14863125Y-8116250D01*
X14863125Y-8076250D02*
X14823125Y-8116250D01*
X14823125Y-8235000D02*
X14863125Y-8275000D01*
X14863125Y-8235000D02*
X14823125Y-8275000D01*
X14845925Y-10030000D02*
X14885925Y-10070000D01*
X14885925Y-10030000D02*
X14845925Y-10070000D01*
X14845925Y-10535000D02*
X14885925Y-10575000D01*
X14885925Y-10535000D02*
X14845925Y-10575000D01*
X14845925Y-11160000D02*
X14885925Y-11200000D01*
X14885925Y-11160000D02*
X14845925Y-11200000D01*
X14990825Y-7360000D02*
X15030825Y-7400000D01*
X15030825Y-7360000D02*
X14990825Y-7400000D01*
X14990825Y-7520625D02*
X15030825Y-7560625D01*
X15030825Y-7520625D02*
X14990825Y-7560625D01*
X14990825Y-7758750D02*
X15030825Y-7798750D01*
X15030825Y-7758750D02*
X14990825Y-7798750D01*
X14990825Y-7917500D02*
X15030825Y-7957500D01*
X15030825Y-7917500D02*
X14990825Y-7957500D01*
X14990825Y-8076250D02*
X15030825Y-8116250D01*
X15030825Y-8076250D02*
X14990825Y-8116250D01*
X14990825Y-8235000D02*
X15030825Y-8275000D01*
X15030825Y-8235000D02*
X14990825Y-8275000D01*
X14990825Y-10535000D02*
X15030825Y-10575000D01*
X15030825Y-10535000D02*
X14990825Y-10575000D01*
X14990825Y-10915000D02*
X15030825Y-10955000D01*
X15030825Y-10915000D02*
X14990825Y-10955000D01*
X14990825Y-11160000D02*
X15030825Y-11200000D01*
X15030825Y-11160000D02*
X14990825Y-11200000D01*
X15000000Y-10030000D02*
X15040000Y-10070000D01*
X15040000Y-10030000D02*
X15000000Y-10070000D01*
X15061250Y-7600000D02*
X15101250Y-7640000D01*
X15101250Y-7600000D02*
X15061250Y-7640000D01*
X15061250Y-7838125D02*
X15101250Y-7878125D01*
X15101250Y-7838125D02*
X15061250Y-7878125D01*
X15061250Y-7996875D02*
X15101250Y-8036875D01*
X15101250Y-7996875D02*
X15061250Y-8036875D01*
X15061250Y-8155625D02*
X15101250Y-8195625D01*
X15101250Y-8155625D02*
X15061250Y-8195625D01*
X15061250Y-8314375D02*
X15101250Y-8354375D01*
X15101250Y-8314375D02*
X15061250Y-8354375D01*
X15065000Y-10110000D02*
X15105000Y-10150000D01*
X15105000Y-10110000D02*
X15065000Y-10150000D01*
X15075000Y-11232450D02*
X15115000Y-11272450D01*
X15115000Y-11232450D02*
X15075000Y-11272450D01*
X16570000Y-9957550D02*
X16610000Y-9997550D01*
X16610000Y-9957550D02*
X16570000Y-9997550D01*
X16570000Y-10182450D02*
X16610000Y-10222450D01*
X16610000Y-10182450D02*
X16570000Y-10222450D01*
X16648750Y-7520625D02*
X16688750Y-7560625D01*
X16688750Y-7520625D02*
X16648750Y-7560625D01*
X16648750Y-7679375D02*
X16688750Y-7719375D01*
X16688750Y-7679375D02*
X16648750Y-7719375D01*
X16648750Y-7838125D02*
X16688750Y-7878125D01*
X16688750Y-7838125D02*
X16648750Y-7878125D01*
X16648750Y-8076250D02*
X16688750Y-8116250D01*
X16688750Y-8076250D02*
X16648750Y-8116250D01*
X16648750Y-8235000D02*
X16688750Y-8275000D01*
X16688750Y-8235000D02*
X16648750Y-8275000D01*
X16670000Y-11085000D02*
X16710000Y-11125000D01*
X16710000Y-11085000D02*
X16670000Y-11125000D01*
X16670000Y-11232450D02*
X16710000Y-11272450D01*
X16710000Y-11232450D02*
X16670000Y-11272450D01*
X16675000Y-10110000D02*
X16715000Y-10150000D01*
X16715000Y-10110000D02*
X16675000Y-10150000D01*
X16728125Y-7441250D02*
X16768125Y-7481250D01*
X16768125Y-7441250D02*
X16728125Y-7481250D01*
X16728125Y-7600000D02*
X16768125Y-7640000D01*
X16768125Y-7600000D02*
X16728125Y-7640000D01*
X16728125Y-7758750D02*
X16768125Y-7798750D01*
X16768125Y-7758750D02*
X16728125Y-7798750D01*
X16728125Y-7996875D02*
X16768125Y-8036875D01*
X16768125Y-7996875D02*
X16728125Y-8036875D01*
X16728125Y-8155625D02*
X16768125Y-8195625D01*
X16768125Y-8155625D02*
X16728125Y-8195625D01*
X16728125Y-8314375D02*
X16768125Y-8354375D01*
X16768125Y-8314375D02*
X16728125Y-8354375D01*
X16728125Y-9346250D02*
X16768125Y-9386250D01*
X16768125Y-9346250D02*
X16728125Y-9386250D01*
X16750925Y-10030000D02*
X16790925Y-10070000D01*
X16790925Y-10030000D02*
X16750925Y-10070000D01*
X16750925Y-11160000D02*
X16790925Y-11200000D01*
X16790925Y-11160000D02*
X16750925Y-11200000D01*
X16895825Y-7520625D02*
X16935825Y-7560625D01*
X16935825Y-7520625D02*
X16895825Y-7560625D01*
X16895825Y-7679375D02*
X16935825Y-7719375D01*
X16935825Y-7679375D02*
X16895825Y-7719375D01*
X16895825Y-7838125D02*
X16935825Y-7878125D01*
X16935825Y-7838125D02*
X16895825Y-7878125D01*
X16895825Y-7996875D02*
X16935825Y-8036875D01*
X16935825Y-7996875D02*
X16895825Y-8036875D01*
X16895825Y-8155625D02*
X16935825Y-8195625D01*
X16935825Y-8155625D02*
X16895825Y-8195625D01*
X16895825Y-8314375D02*
X16935825Y-8354375D01*
X16935825Y-8314375D02*
X16895825Y-8354375D01*
X16895825Y-9346250D02*
X16935825Y-9386250D01*
X16935825Y-9346250D02*
X16895825Y-9386250D01*
X16895825Y-10030000D02*
X16935825Y-10070000D01*
X16935825Y-10030000D02*
X16895825Y-10070000D01*
X16895825Y-11160000D02*
X16935825Y-11200000D01*
X16935825Y-11160000D02*
X16895825Y-11200000D01*
X16960000Y-10110000D02*
X17000000Y-10150000D01*
X17000000Y-10110000D02*
X16960000Y-10150000D01*
X16966250Y-7441250D02*
X17006250Y-7481250D01*
X17006250Y-7441250D02*
X16966250Y-7481250D01*
X16966250Y-7600000D02*
X17006250Y-7640000D01*
X17006250Y-7600000D02*
X16966250Y-7640000D01*
X16966250Y-7758750D02*
X17006250Y-7798750D01*
X17006250Y-7758750D02*
X16966250Y-7798750D01*
X16966250Y-8076250D02*
X17006250Y-8116250D01*
X17006250Y-8076250D02*
X16966250Y-8116250D01*
X16966250Y-8235000D02*
X17006250Y-8275000D01*
X17006250Y-8235000D02*
X16966250Y-8275000D01*
X16985000Y-11232450D02*
X17025000Y-11272450D01*
X17025000Y-11232450D02*
X16985000Y-11272450D01*
X18553750Y-7520625D02*
X18593750Y-7560625D01*
X18593750Y-7520625D02*
X18553750Y-7560625D01*
X18553750Y-7679375D02*
X18593750Y-7719375D01*
X18593750Y-7679375D02*
X18553750Y-7719375D01*
X18553750Y-7996875D02*
X18593750Y-8036875D01*
X18593750Y-7996875D02*
X18553750Y-8036875D01*
X18553750Y-8155625D02*
X18593750Y-8195625D01*
X18593750Y-8155625D02*
X18553750Y-8195625D01*
X18553750Y-8314375D02*
X18593750Y-8354375D01*
X18593750Y-8314375D02*
X18553750Y-8354375D01*
X18580000Y-10110000D02*
X18620000Y-10150000D01*
X18620000Y-10110000D02*
X18580000Y-10150000D01*
X18633125Y-7441250D02*
X18673125Y-7481250D01*
X18673125Y-7441250D02*
X18633125Y-7481250D01*
X18633125Y-7600000D02*
X18673125Y-7640000D01*
X18673125Y-7600000D02*
X18633125Y-7640000D01*
X18633125Y-7758750D02*
X18673125Y-7798750D01*
X18673125Y-7758750D02*
X18633125Y-7798750D01*
X18633125Y-7917500D02*
X18673125Y-7957500D01*
X18673125Y-7917500D02*
X18633125Y-7957500D01*
X18633125Y-8076250D02*
X18673125Y-8116250D01*
X18673125Y-8076250D02*
X18633125Y-8116250D01*
X18633125Y-8235000D02*
X18673125Y-8275000D01*
X18673125Y-8235000D02*
X18633125Y-8275000D01*
X18633125Y-9346250D02*
X18673125Y-9386250D01*
X18673125Y-9346250D02*
X18633125Y-9386250D01*
X18655925Y-10030000D02*
X18695925Y-10070000D01*
X18695925Y-10030000D02*
X18655925Y-10070000D01*
X18655925Y-10705000D02*
X18695925Y-10745000D01*
X18695925Y-10705000D02*
X18655925Y-10745000D01*
X18655925Y-11230000D02*
X18695925Y-11270000D01*
X18695925Y-11230000D02*
X18655925Y-11270000D01*
X18800825Y-7520625D02*
X18840825Y-7560625D01*
X18840825Y-7520625D02*
X18800825Y-7560625D01*
X18800825Y-7679375D02*
X18840825Y-7719375D01*
X18840825Y-7679375D02*
X18800825Y-7719375D01*
X18800825Y-7917500D02*
X18840825Y-7957500D01*
X18840825Y-7917500D02*
X18800825Y-7957500D01*
X18800825Y-8076250D02*
X18840825Y-8116250D01*
X18840825Y-8076250D02*
X18800825Y-8116250D01*
X18800825Y-8235000D02*
X18840825Y-8275000D01*
X18840825Y-8235000D02*
X18800825Y-8275000D01*
X18800825Y-10030000D02*
X18840825Y-10070000D01*
X18840825Y-10030000D02*
X18800825Y-10070000D01*
X18800825Y-10705000D02*
X18840825Y-10745000D01*
X18840825Y-10705000D02*
X18800825Y-10745000D01*
X18800825Y-11090000D02*
X18840825Y-11130000D01*
X18840825Y-11090000D02*
X18800825Y-11130000D01*
X18800825Y-11230000D02*
X18840825Y-11270000D01*
X18840825Y-11230000D02*
X18800825Y-11270000D01*
X18860264Y-10110356D02*
X18900264Y-10150356D01*
X18900264Y-10110356D02*
X18860264Y-10150356D01*
X18871250Y-7441250D02*
X18911250Y-7481250D01*
X18911250Y-7441250D02*
X18871250Y-7481250D01*
X18871250Y-7600000D02*
X18911250Y-7640000D01*
X18911250Y-7600000D02*
X18871250Y-7640000D01*
X18871250Y-7758750D02*
X18911250Y-7798750D01*
X18911250Y-7758750D02*
X18871250Y-7798750D01*
X18871250Y-7996875D02*
X18911250Y-8036875D01*
X18911250Y-7996875D02*
X18871250Y-8036875D01*
X18871250Y-8155625D02*
X18911250Y-8195625D01*
X18911250Y-8155625D02*
X18871250Y-8195625D01*
X18871250Y-8314375D02*
X18911250Y-8354375D01*
X18911250Y-8314375D02*
X18871250Y-8354375D01*
X18871250Y-9346250D02*
X18911250Y-9386250D01*
X18911250Y-9346250D02*
X18871250Y-9386250D01*
X20320000Y-10190000D02*
X20360000Y-10230000D01*
X20360000Y-10190000D02*
X20320000Y-10230000D01*
X20325000Y-9940000D02*
X20365000Y-9980000D01*
X20365000Y-9940000D02*
X20325000Y-9980000D01*
X20445000Y-7448175D02*
X20485000Y-7488175D01*
X20485000Y-7448175D02*
X20445000Y-7488175D01*
X20480000Y-10190000D02*
X20520000Y-10230000D01*
X20520000Y-10190000D02*
X20480000Y-10230000D01*
X20850000Y-10882550D02*
X20890000Y-10922550D01*
X20890000Y-10882550D02*
X20850000Y-10922550D01*
X20850000Y-11150000D02*
X20890000Y-11190000D01*
X20890000Y-11150000D02*
X20850000Y-11190000D01*
D11*
X13058500Y-8776875D02*
G75*
G03*
X13058500Y-8776875I-50000J0D01*
G01*
X13058500Y-9030875D02*
G75*
G03*
X13058500Y-9030875I-50000J0D01*
G01*
X13058500Y-9284875D02*
G75*
G03*
X13058500Y-9284875I-50000J0D01*
G01*
X13058500Y-9538875D02*
G75*
G03*
X13058500Y-9538875I-50000J0D01*
G01*
X13058500Y-9792875D02*
G75*
G03*
X13058500Y-9792875I-50000J0D01*
G01*
X13058500Y-10046875D02*
G75*
G03*
X13058500Y-10046875I-50000J0D01*
G01*
X13058500Y-10300875D02*
G75*
G03*
X13058500Y-10300875I-50000J0D01*
G01*
X13058500Y-10554875D02*
G75*
G03*
X13058500Y-10554875I-50000J0D01*
G01*
X13058500Y-10808875D02*
G75*
G03*
X13058500Y-10808875I-50000J0D01*
G01*
X13058500Y-11062875D02*
G75*
G03*
X13058500Y-11062875I-50000J0D01*
G01*
X13312500Y-8776875D02*
G75*
G03*
X13312500Y-8776875I-50000J0D01*
G01*
X13312500Y-9030875D02*
G75*
G03*
X13312500Y-9030875I-50000J0D01*
G01*
X13312500Y-9284875D02*
G75*
G03*
X13312500Y-9284875I-50000J0D01*
G01*
X13312500Y-9538875D02*
G75*
G03*
X13312500Y-9538875I-50000J0D01*
G01*
X13312500Y-9792875D02*
G75*
G03*
X13312500Y-9792875I-50000J0D01*
G01*
X13312500Y-10046875D02*
G75*
G03*
X13312500Y-10046875I-50000J0D01*
G01*
X13312500Y-10300875D02*
G75*
G03*
X13312500Y-10300875I-50000J0D01*
G01*
X13312500Y-10554875D02*
G75*
G03*
X13312500Y-10554875I-50000J0D01*
G01*
X13312500Y-10808875D02*
G75*
G03*
X13312500Y-10808875I-50000J0D01*
G01*
X13312500Y-11062875D02*
G75*
G03*
X13312500Y-11062875I-50000J0D01*
G01*
X21243125Y-8810625D02*
G75*
G03*
X21243125Y-8810625I-50000J0D01*
G01*
X21243125Y-9064625D02*
G75*
G03*
X21243125Y-9064625I-50000J0D01*
G01*
X21243125Y-9318625D02*
G75*
G03*
X21243125Y-9318625I-50000J0D01*
G01*
X21243125Y-9572625D02*
G75*
G03*
X21243125Y-9572625I-50000J0D01*
G01*
X21243125Y-9826625D02*
G75*
G03*
X21243125Y-9826625I-50000J0D01*
G01*
X21243125Y-10080625D02*
G75*
G03*
X21243125Y-10080625I-50000J0D01*
G01*
X21243125Y-10334625D02*
G75*
G03*
X21243125Y-10334625I-50000J0D01*
G01*
X21243125Y-10588625D02*
G75*
G03*
X21243125Y-10588625I-50000J0D01*
G01*
X21243125Y-10842625D02*
G75*
G03*
X21243125Y-10842625I-50000J0D01*
G01*
X21243125Y-11096625D02*
G75*
G03*
X21243125Y-11096625I-50000J0D01*
G01*
X21497125Y-8810625D02*
G75*
G03*
X21497125Y-8810625I-50000J0D01*
G01*
X21497125Y-9064625D02*
G75*
G03*
X21497125Y-9064625I-50000J0D01*
G01*
X21497125Y-9318625D02*
G75*
G03*
X21497125Y-9318625I-50000J0D01*
G01*
X21497125Y-9572625D02*
G75*
G03*
X21497125Y-9572625I-50000J0D01*
G01*
X21497125Y-9826625D02*
G75*
G03*
X21497125Y-9826625I-50000J0D01*
G01*
X21497125Y-10080625D02*
G75*
G03*
X21497125Y-10080625I-50000J0D01*
G01*
X21497125Y-10334625D02*
G75*
G03*
X21497125Y-10334625I-50000J0D01*
G01*
X21497125Y-10588625D02*
G75*
G03*
X21497125Y-10588625I-50000J0D01*
G01*
X21497125Y-10842625D02*
G75*
G03*
X21497125Y-10842625I-50000J0D01*
G01*
X21497125Y-11096625D02*
G75*
G03*
X21497125Y-11096625I-50000J0D01*
G01*
D14*
X14938375Y-6736875D02*
X14938375Y-6883875D01*
X14864875Y-6810375D02*
X15011875Y-6810375D01*
X14938375Y-8641875D02*
X14938375Y-8788875D01*
X14864875Y-8715375D02*
X15011875Y-8715375D01*
X14938375Y-12451875D02*
X14938375Y-12598875D01*
X14864875Y-12525375D02*
X15011875Y-12525375D01*
X15069375Y-6590875D02*
X15069375Y-6737875D01*
X14995875Y-6664375D02*
X15142875Y-6664375D01*
X15069375Y-8495875D02*
X15069375Y-8642875D01*
X14995875Y-8569375D02*
X15142875Y-8569375D01*
X15069375Y-12305875D02*
X15069375Y-12452875D01*
X14995875Y-12379375D02*
X15142875Y-12379375D01*
X15569375Y-6540875D02*
X15569375Y-6687875D01*
X15495875Y-6614375D02*
X15642875Y-6614375D01*
X15569375Y-8445875D02*
X15569375Y-8592875D01*
X15495875Y-8519375D02*
X15642875Y-8519375D01*
X15569375Y-12255875D02*
X15569375Y-12402875D01*
X15495875Y-12329375D02*
X15642875Y-12329375D01*
X15573375Y-6482875D02*
X15573375Y-6629875D01*
X15499875Y-6556375D02*
X15646875Y-6556375D01*
X15573375Y-8387875D02*
X15573375Y-8534875D01*
X15499875Y-8461375D02*
X15646875Y-8461375D01*
X15573375Y-12197875D02*
X15573375Y-12344875D01*
X15499875Y-12271375D02*
X15646875Y-12271375D01*
X16843375Y-6736875D02*
X16843375Y-6883875D01*
X16769875Y-6810375D02*
X16916875Y-6810375D01*
X16843375Y-8641875D02*
X16843375Y-8788875D01*
X16769875Y-8715375D02*
X16916875Y-8715375D01*
X16843375Y-10546875D02*
X16843375Y-10693875D01*
X16769875Y-10620375D02*
X16916875Y-10620375D01*
X16843375Y-12451875D02*
X16843375Y-12598875D01*
X16769875Y-12525375D02*
X16916875Y-12525375D01*
X16974375Y-6590875D02*
X16974375Y-6737875D01*
X16900875Y-6664375D02*
X17047875Y-6664375D01*
X16974375Y-8495875D02*
X16974375Y-8642875D01*
X16900875Y-8569375D02*
X17047875Y-8569375D01*
X16974375Y-10400875D02*
X16974375Y-10547875D01*
X16900875Y-10474375D02*
X17047875Y-10474375D01*
X16974375Y-12305875D02*
X16974375Y-12452875D01*
X16900875Y-12379375D02*
X17047875Y-12379375D01*
X17474375Y-6540875D02*
X17474375Y-6687875D01*
X17400875Y-6614375D02*
X17547875Y-6614375D01*
X17474375Y-8445875D02*
X17474375Y-8592875D01*
X17400875Y-8519375D02*
X17547875Y-8519375D01*
X17474375Y-10350875D02*
X17474375Y-10497875D01*
X17400875Y-10424375D02*
X17547875Y-10424375D01*
X17474375Y-12255875D02*
X17474375Y-12402875D01*
X17400875Y-12329375D02*
X17547875Y-12329375D01*
X17478375Y-6482875D02*
X17478375Y-6629875D01*
X17404875Y-6556375D02*
X17551875Y-6556375D01*
X17478375Y-8387875D02*
X17478375Y-8534875D01*
X17404875Y-8461375D02*
X17551875Y-8461375D01*
X17478375Y-10292875D02*
X17478375Y-10439875D01*
X17404875Y-10366375D02*
X17551875Y-10366375D01*
X17478375Y-12197875D02*
X17478375Y-12344875D01*
X17404875Y-12271375D02*
X17551875Y-12271375D01*
X18748375Y-6736875D02*
X18748375Y-6883875D01*
X18674875Y-6810375D02*
X18821875Y-6810375D01*
X18748375Y-8641875D02*
X18748375Y-8788875D01*
X18674875Y-8715375D02*
X18821875Y-8715375D01*
X18748375Y-12451875D02*
X18748375Y-12598875D01*
X18674875Y-12525375D02*
X18821875Y-12525375D01*
X18879375Y-6590875D02*
X18879375Y-6737875D01*
X18805875Y-6664375D02*
X18952875Y-6664375D01*
X18879375Y-8495875D02*
X18879375Y-8642875D01*
X18805875Y-8569375D02*
X18952875Y-8569375D01*
X18879375Y-12305875D02*
X18879375Y-12452875D01*
X18805875Y-12379375D02*
X18952875Y-12379375D01*
X19379375Y-6540875D02*
X19379375Y-6687875D01*
X19305875Y-6614375D02*
X19452875Y-6614375D01*
X19379375Y-8445875D02*
X19379375Y-8592875D01*
X19305875Y-8519375D02*
X19452875Y-8519375D01*
X19379375Y-12255875D02*
X19379375Y-12402875D01*
X19305875Y-12329375D02*
X19452875Y-12329375D01*
X19383375Y-6482875D02*
X19383375Y-6629875D01*
X19309875Y-6556375D02*
X19456875Y-6556375D01*
X19383375Y-8387875D02*
X19383375Y-8534875D01*
X19309875Y-8461375D02*
X19456875Y-8461375D01*
X19383375Y-12197875D02*
X19383375Y-12344875D01*
X19309875Y-12271375D02*
X19456875Y-12271375D01*
D12*
X13108869Y-14049851D02*
X13108869Y-13849851D01*
X13156488Y-13849851D01*
X13185059Y-13859375D01*
X13204107Y-13878423D01*
X13213631Y-13897470D01*
X13223155Y-13935565D01*
X13223155Y-13964137D01*
X13213631Y-14002232D01*
X13204107Y-14021280D01*
X13185059Y-14040327D01*
X13156488Y-14049851D01*
X13108869Y-14049851D01*
X13308869Y-14049851D02*
X13308869Y-13916518D01*
X13308869Y-13954613D02*
X13318393Y-13935565D01*
X13327917Y-13926042D01*
X13346964Y-13916518D01*
X13366012Y-13916518D01*
X13432678Y-14049851D02*
X13432678Y-13916518D01*
X13432678Y-13849851D02*
X13423155Y-13859375D01*
X13432678Y-13868899D01*
X13442202Y-13859375D01*
X13432678Y-13849851D01*
X13432678Y-13868899D01*
X13556488Y-14049851D02*
X13537440Y-14040327D01*
X13527917Y-14021280D01*
X13527917Y-13849851D01*
X13661250Y-14049851D02*
X13642202Y-14040327D01*
X13632678Y-14021280D01*
X13632678Y-13849851D01*
X13889821Y-14049851D02*
X13889821Y-13849851D01*
X13956488Y-13992708D01*
X14023155Y-13849851D01*
X14023155Y-14049851D01*
X14204107Y-14049851D02*
X14204107Y-13945089D01*
X14194583Y-13926042D01*
X14175536Y-13916518D01*
X14137440Y-13916518D01*
X14118393Y-13926042D01*
X14204107Y-14040327D02*
X14185059Y-14049851D01*
X14137440Y-14049851D01*
X14118393Y-14040327D01*
X14108869Y-14021280D01*
X14108869Y-14002232D01*
X14118393Y-13983184D01*
X14137440Y-13973661D01*
X14185059Y-13973661D01*
X14204107Y-13964137D01*
X14299345Y-13916518D02*
X14299345Y-14116518D01*
X14299345Y-13926042D02*
X14318393Y-13916518D01*
X14356488Y-13916518D01*
X14375536Y-13926042D01*
X14385059Y-13935565D01*
X14394583Y-13954613D01*
X14394583Y-14011756D01*
X14385059Y-14030803D01*
X14375536Y-14040327D01*
X14356488Y-14049851D01*
X14318393Y-14049851D01*
X14299345Y-14040327D01*
X14480298Y-14030803D02*
X14489821Y-14040327D01*
X14480298Y-14049851D01*
X14470774Y-14040327D01*
X14480298Y-14030803D01*
X14480298Y-14049851D01*
X14480298Y-13926042D02*
X14489821Y-13935565D01*
X14480298Y-13945089D01*
X14470774Y-13935565D01*
X14480298Y-13926042D01*
X14480298Y-13945089D01*
D13*
X12811250Y-14359375D02*
X12851250Y-14399375D01*
X12851250Y-14359375D02*
X12811250Y-14399375D01*
D12*
X13146964Y-14269851D02*
X13166012Y-14269851D01*
X13185059Y-14279375D01*
X13194583Y-14288899D01*
X13204107Y-14307946D01*
X13213631Y-14346042D01*
X13213631Y-14393661D01*
X13204107Y-14431756D01*
X13194583Y-14450803D01*
X13185059Y-14460327D01*
X13166012Y-14469851D01*
X13146964Y-14469851D01*
X13127917Y-14460327D01*
X13118393Y-14450803D01*
X13108869Y-14431756D01*
X13099345Y-14393661D01*
X13099345Y-14346042D01*
X13108869Y-14307946D01*
X13118393Y-14288899D01*
X13127917Y-14279375D01*
X13146964Y-14269851D01*
X13299345Y-14450803D02*
X13308869Y-14460327D01*
X13299345Y-14469851D01*
X13289821Y-14460327D01*
X13299345Y-14450803D01*
X13299345Y-14469851D01*
X13480298Y-14336518D02*
X13480298Y-14469851D01*
X13432678Y-14260327D02*
X13385059Y-14403184D01*
X13508869Y-14403184D01*
X13623155Y-14269851D02*
X13642202Y-14269851D01*
X13661250Y-14279375D01*
X13670774Y-14288899D01*
X13680298Y-14307946D01*
X13689821Y-14346042D01*
X13689821Y-14393661D01*
X13680298Y-14431756D01*
X13670774Y-14450803D01*
X13661250Y-14460327D01*
X13642202Y-14469851D01*
X13623155Y-14469851D01*
X13604107Y-14460327D01*
X13594583Y-14450803D01*
X13585059Y-14431756D01*
X13575536Y-14393661D01*
X13575536Y-14346042D01*
X13585059Y-14307946D01*
X13594583Y-14288899D01*
X13604107Y-14279375D01*
X13623155Y-14269851D01*
X13813631Y-14269851D02*
X13832678Y-14269851D01*
X13851726Y-14279375D01*
X13861250Y-14288899D01*
X13870774Y-14307946D01*
X13880298Y-14346042D01*
X13880298Y-14393661D01*
X13870774Y-14431756D01*
X13861250Y-14450803D01*
X13851726Y-14460327D01*
X13832678Y-14469851D01*
X13813631Y-14469851D01*
X13794583Y-14460327D01*
X13785059Y-14450803D01*
X13775536Y-14431756D01*
X13766012Y-14393661D01*
X13766012Y-14346042D01*
X13775536Y-14307946D01*
X13785059Y-14288899D01*
X13794583Y-14279375D01*
X13813631Y-14269851D01*
X13966012Y-14469851D02*
X13966012Y-14336518D01*
X13966012Y-14355565D02*
X13975536Y-14346042D01*
X13994583Y-14336518D01*
X14023155Y-14336518D01*
X14042202Y-14346042D01*
X14051726Y-14365089D01*
X14051726Y-14469851D01*
X14051726Y-14365089D02*
X14061250Y-14346042D01*
X14080298Y-14336518D01*
X14108869Y-14336518D01*
X14127917Y-14346042D01*
X14137440Y-14365089D01*
X14137440Y-14469851D01*
X14232678Y-14469851D02*
X14232678Y-14336518D01*
X14232678Y-14355565D02*
X14242202Y-14346042D01*
X14261250Y-14336518D01*
X14289821Y-14336518D01*
X14308869Y-14346042D01*
X14318393Y-14365089D01*
X14318393Y-14469851D01*
X14318393Y-14365089D02*
X14327917Y-14346042D01*
X14346964Y-14336518D01*
X14375536Y-14336518D01*
X14394583Y-14346042D01*
X14404107Y-14365089D01*
X14404107Y-14469851D01*
X14794583Y-14260327D02*
X14623155Y-14517470D01*
X15051726Y-14269851D02*
X15070774Y-14269851D01*
X15089821Y-14279375D01*
X15099345Y-14288899D01*
X15108869Y-14307946D01*
X15118393Y-14346042D01*
X15118393Y-14393661D01*
X15108869Y-14431756D01*
X15099345Y-14450803D01*
X15089821Y-14460327D01*
X15070774Y-14469851D01*
X15051726Y-14469851D01*
X15032678Y-14460327D01*
X15023155Y-14450803D01*
X15013631Y-14431756D01*
X15004107Y-14393661D01*
X15004107Y-14346042D01*
X15013631Y-14307946D01*
X15023155Y-14288899D01*
X15032678Y-14279375D01*
X15051726Y-14269851D01*
X15204107Y-14450803D02*
X15213631Y-14460327D01*
X15204107Y-14469851D01*
X15194583Y-14460327D01*
X15204107Y-14450803D01*
X15204107Y-14469851D01*
X15337440Y-14269851D02*
X15356488Y-14269851D01*
X15375536Y-14279375D01*
X15385059Y-14288899D01*
X15394583Y-14307946D01*
X15404107Y-14346042D01*
X15404107Y-14393661D01*
X15394583Y-14431756D01*
X15385059Y-14450803D01*
X15375536Y-14460327D01*
X15356488Y-14469851D01*
X15337440Y-14469851D01*
X15318393Y-14460327D01*
X15308869Y-14450803D01*
X15299345Y-14431756D01*
X15289821Y-14393661D01*
X15289821Y-14346042D01*
X15299345Y-14307946D01*
X15308869Y-14288899D01*
X15318393Y-14279375D01*
X15337440Y-14269851D01*
X15594583Y-14469851D02*
X15480298Y-14469851D01*
X15537440Y-14469851D02*
X15537440Y-14269851D01*
X15518393Y-14298423D01*
X15499345Y-14317470D01*
X15480298Y-14326994D01*
X15775536Y-14269851D02*
X15680298Y-14269851D01*
X15670774Y-14365089D01*
X15680298Y-14355565D01*
X15699345Y-14346042D01*
X15746964Y-14346042D01*
X15766012Y-14355565D01*
X15775536Y-14365089D01*
X15785059Y-14384137D01*
X15785059Y-14431756D01*
X15775536Y-14450803D01*
X15766012Y-14460327D01*
X15746964Y-14469851D01*
X15699345Y-14469851D01*
X15680298Y-14460327D01*
X15670774Y-14450803D01*
X15851726Y-14269851D02*
X15985059Y-14269851D01*
X15899345Y-14469851D01*
X16051726Y-14269851D02*
X16051726Y-14307946D01*
X16127917Y-14269851D02*
X16127917Y-14307946D01*
X16423155Y-14546042D02*
X16413631Y-14536518D01*
X16394583Y-14507946D01*
X16385059Y-14488899D01*
X16375536Y-14460327D01*
X16366012Y-14412708D01*
X16366012Y-14374613D01*
X16375536Y-14326994D01*
X16385059Y-14298423D01*
X16394583Y-14279375D01*
X16413631Y-14250803D01*
X16423155Y-14241280D01*
X16604107Y-14469851D02*
X16489821Y-14469851D01*
X16546964Y-14469851D02*
X16546964Y-14269851D01*
X16527917Y-14298423D01*
X16508869Y-14317470D01*
X16489821Y-14326994D01*
X16794583Y-14469851D02*
X16680298Y-14469851D01*
X16737440Y-14469851D02*
X16737440Y-14269851D01*
X16718393Y-14298423D01*
X16699345Y-14317470D01*
X16680298Y-14326994D01*
X16918393Y-14269851D02*
X16937440Y-14269851D01*
X16956488Y-14279375D01*
X16966012Y-14288899D01*
X16975536Y-14307946D01*
X16985060Y-14346042D01*
X16985060Y-14393661D01*
X16975536Y-14431756D01*
X16966012Y-14450803D01*
X16956488Y-14460327D01*
X16937440Y-14469851D01*
X16918393Y-14469851D01*
X16899345Y-14460327D01*
X16889821Y-14450803D01*
X16880298Y-14431756D01*
X16870774Y-14393661D01*
X16870774Y-14346042D01*
X16880298Y-14307946D01*
X16889821Y-14288899D01*
X16899345Y-14279375D01*
X16918393Y-14269851D01*
X17223155Y-14469851D02*
X17223155Y-14269851D01*
X17308869Y-14469851D02*
X17308869Y-14365089D01*
X17299345Y-14346042D01*
X17280298Y-14336518D01*
X17251726Y-14336518D01*
X17232679Y-14346042D01*
X17223155Y-14355565D01*
X17432679Y-14469851D02*
X17413631Y-14460327D01*
X17404107Y-14450803D01*
X17394583Y-14431756D01*
X17394583Y-14374613D01*
X17404107Y-14355565D01*
X17413631Y-14346042D01*
X17432679Y-14336518D01*
X17461250Y-14336518D01*
X17480298Y-14346042D01*
X17489821Y-14355565D01*
X17499345Y-14374613D01*
X17499345Y-14431756D01*
X17489821Y-14450803D01*
X17480298Y-14460327D01*
X17461250Y-14469851D01*
X17432679Y-14469851D01*
X17613631Y-14469851D02*
X17594583Y-14460327D01*
X17585060Y-14441280D01*
X17585060Y-14269851D01*
X17766012Y-14460327D02*
X17746964Y-14469851D01*
X17708869Y-14469851D01*
X17689821Y-14460327D01*
X17680298Y-14441280D01*
X17680298Y-14365089D01*
X17689821Y-14346042D01*
X17708869Y-14336518D01*
X17746964Y-14336518D01*
X17766012Y-14346042D01*
X17775536Y-14365089D01*
X17775536Y-14384137D01*
X17680298Y-14403184D01*
X17851726Y-14460327D02*
X17870774Y-14469851D01*
X17908869Y-14469851D01*
X17927917Y-14460327D01*
X17937440Y-14441280D01*
X17937440Y-14431756D01*
X17927917Y-14412708D01*
X17908869Y-14403184D01*
X17880298Y-14403184D01*
X17861250Y-14393661D01*
X17851726Y-14374613D01*
X17851726Y-14365089D01*
X17861250Y-14346042D01*
X17880298Y-14336518D01*
X17908869Y-14336518D01*
X17927917Y-14346042D01*
X18004107Y-14546042D02*
X18013631Y-14536518D01*
X18032679Y-14507946D01*
X18042202Y-14488899D01*
X18051726Y-14460327D01*
X18061250Y-14412708D01*
X18061250Y-14374613D01*
X18051726Y-14326994D01*
X18042202Y-14298423D01*
X18032679Y-14279375D01*
X18013631Y-14250803D01*
X18004107Y-14241280D01*
D11*
X12851250Y-14643375D02*
G75*
G03*
X12851250Y-14643375I-50000J0D01*
G01*
D12*
X13213631Y-14733851D02*
X13099345Y-14733851D01*
X13156488Y-14733851D02*
X13156488Y-14533851D01*
X13137440Y-14562423D01*
X13118393Y-14581470D01*
X13099345Y-14590994D01*
X13299345Y-14714803D02*
X13308869Y-14724327D01*
X13299345Y-14733851D01*
X13289821Y-14724327D01*
X13299345Y-14714803D01*
X13299345Y-14733851D01*
X13432678Y-14533851D02*
X13451726Y-14533851D01*
X13470774Y-14543375D01*
X13480298Y-14552899D01*
X13489821Y-14571946D01*
X13499345Y-14610042D01*
X13499345Y-14657661D01*
X13489821Y-14695756D01*
X13480298Y-14714803D01*
X13470774Y-14724327D01*
X13451726Y-14733851D01*
X13432678Y-14733851D01*
X13413631Y-14724327D01*
X13404107Y-14714803D01*
X13394583Y-14695756D01*
X13385059Y-14657661D01*
X13385059Y-14610042D01*
X13394583Y-14571946D01*
X13404107Y-14552899D01*
X13413631Y-14543375D01*
X13432678Y-14533851D01*
X13623155Y-14533851D02*
X13642202Y-14533851D01*
X13661250Y-14543375D01*
X13670774Y-14552899D01*
X13680298Y-14571946D01*
X13689821Y-14610042D01*
X13689821Y-14657661D01*
X13680298Y-14695756D01*
X13670774Y-14714803D01*
X13661250Y-14724327D01*
X13642202Y-14733851D01*
X13623155Y-14733851D01*
X13604107Y-14724327D01*
X13594583Y-14714803D01*
X13585059Y-14695756D01*
X13575536Y-14657661D01*
X13575536Y-14610042D01*
X13585059Y-14571946D01*
X13594583Y-14552899D01*
X13604107Y-14543375D01*
X13623155Y-14533851D01*
X13813631Y-14533851D02*
X13832678Y-14533851D01*
X13851726Y-14543375D01*
X13861250Y-14552899D01*
X13870774Y-14571946D01*
X13880298Y-14610042D01*
X13880298Y-14657661D01*
X13870774Y-14695756D01*
X13861250Y-14714803D01*
X13851726Y-14724327D01*
X13832678Y-14733851D01*
X13813631Y-14733851D01*
X13794583Y-14724327D01*
X13785059Y-14714803D01*
X13775536Y-14695756D01*
X13766012Y-14657661D01*
X13766012Y-14610042D01*
X13775536Y-14571946D01*
X13785059Y-14552899D01*
X13794583Y-14543375D01*
X13813631Y-14533851D01*
X13966012Y-14733851D02*
X13966012Y-14600518D01*
X13966012Y-14619565D02*
X13975536Y-14610042D01*
X13994583Y-14600518D01*
X14023155Y-14600518D01*
X14042202Y-14610042D01*
X14051726Y-14629089D01*
X14051726Y-14733851D01*
X14051726Y-14629089D02*
X14061250Y-14610042D01*
X14080298Y-14600518D01*
X14108869Y-14600518D01*
X14127917Y-14610042D01*
X14137440Y-14629089D01*
X14137440Y-14733851D01*
X14232678Y-14733851D02*
X14232678Y-14600518D01*
X14232678Y-14619565D02*
X14242202Y-14610042D01*
X14261250Y-14600518D01*
X14289821Y-14600518D01*
X14308869Y-14610042D01*
X14318393Y-14629089D01*
X14318393Y-14733851D01*
X14318393Y-14629089D02*
X14327917Y-14610042D01*
X14346964Y-14600518D01*
X14375536Y-14600518D01*
X14394583Y-14610042D01*
X14404107Y-14629089D01*
X14404107Y-14733851D01*
X14794583Y-14524327D02*
X14623155Y-14781470D01*
X15051726Y-14533851D02*
X15070774Y-14533851D01*
X15089821Y-14543375D01*
X15099345Y-14552899D01*
X15108869Y-14571946D01*
X15118393Y-14610042D01*
X15118393Y-14657661D01*
X15108869Y-14695756D01*
X15099345Y-14714803D01*
X15089821Y-14724327D01*
X15070774Y-14733851D01*
X15051726Y-14733851D01*
X15032678Y-14724327D01*
X15023155Y-14714803D01*
X15013631Y-14695756D01*
X15004107Y-14657661D01*
X15004107Y-14610042D01*
X15013631Y-14571946D01*
X15023155Y-14552899D01*
X15032678Y-14543375D01*
X15051726Y-14533851D01*
X15204107Y-14714803D02*
X15213631Y-14724327D01*
X15204107Y-14733851D01*
X15194583Y-14724327D01*
X15204107Y-14714803D01*
X15204107Y-14733851D01*
X15337440Y-14533851D02*
X15356488Y-14533851D01*
X15375536Y-14543375D01*
X15385059Y-14552899D01*
X15394583Y-14571946D01*
X15404107Y-14610042D01*
X15404107Y-14657661D01*
X15394583Y-14695756D01*
X15385059Y-14714803D01*
X15375536Y-14724327D01*
X15356488Y-14733851D01*
X15337440Y-14733851D01*
X15318393Y-14724327D01*
X15308869Y-14714803D01*
X15299345Y-14695756D01*
X15289821Y-14657661D01*
X15289821Y-14610042D01*
X15299345Y-14571946D01*
X15308869Y-14552899D01*
X15318393Y-14543375D01*
X15337440Y-14533851D01*
X15470774Y-14533851D02*
X15594583Y-14533851D01*
X15527917Y-14610042D01*
X15556488Y-14610042D01*
X15575536Y-14619565D01*
X15585059Y-14629089D01*
X15594583Y-14648137D01*
X15594583Y-14695756D01*
X15585059Y-14714803D01*
X15575536Y-14724327D01*
X15556488Y-14733851D01*
X15499345Y-14733851D01*
X15480298Y-14724327D01*
X15470774Y-14714803D01*
X15689821Y-14733851D02*
X15727917Y-14733851D01*
X15746964Y-14724327D01*
X15756488Y-14714803D01*
X15775536Y-14686232D01*
X15785059Y-14648137D01*
X15785059Y-14571946D01*
X15775536Y-14552899D01*
X15766012Y-14543375D01*
X15746964Y-14533851D01*
X15708869Y-14533851D01*
X15689821Y-14543375D01*
X15680298Y-14552899D01*
X15670774Y-14571946D01*
X15670774Y-14619565D01*
X15680298Y-14638613D01*
X15689821Y-14648137D01*
X15708869Y-14657661D01*
X15746964Y-14657661D01*
X15766012Y-14648137D01*
X15775536Y-14638613D01*
X15785059Y-14619565D01*
X15956488Y-14600518D02*
X15956488Y-14733851D01*
X15908869Y-14524327D02*
X15861250Y-14667184D01*
X15985059Y-14667184D01*
X16051726Y-14533851D02*
X16051726Y-14571946D01*
X16127917Y-14533851D02*
X16127917Y-14571946D01*
X16423155Y-14810042D02*
X16413631Y-14800518D01*
X16394583Y-14771946D01*
X16385059Y-14752899D01*
X16375536Y-14724327D01*
X16366012Y-14676708D01*
X16366012Y-14638613D01*
X16375536Y-14590994D01*
X16385059Y-14562423D01*
X16394583Y-14543375D01*
X16413631Y-14514803D01*
X16423155Y-14505280D01*
X16585059Y-14600518D02*
X16585059Y-14733851D01*
X16537440Y-14524327D02*
X16489821Y-14667184D01*
X16613631Y-14667184D01*
X16727917Y-14533851D02*
X16746964Y-14533851D01*
X16766012Y-14543375D01*
X16775536Y-14552899D01*
X16785060Y-14571946D01*
X16794583Y-14610042D01*
X16794583Y-14657661D01*
X16785060Y-14695756D01*
X16775536Y-14714803D01*
X16766012Y-14724327D01*
X16746964Y-14733851D01*
X16727917Y-14733851D01*
X16708869Y-14724327D01*
X16699345Y-14714803D01*
X16689821Y-14695756D01*
X16680298Y-14657661D01*
X16680298Y-14610042D01*
X16689821Y-14571946D01*
X16699345Y-14552899D01*
X16708869Y-14543375D01*
X16727917Y-14533851D01*
X17032679Y-14733851D02*
X17032679Y-14533851D01*
X17118393Y-14733851D02*
X17118393Y-14629089D01*
X17108869Y-14610042D01*
X17089821Y-14600518D01*
X17061250Y-14600518D01*
X17042202Y-14610042D01*
X17032679Y-14619565D01*
X17242202Y-14733851D02*
X17223155Y-14724327D01*
X17213631Y-14714803D01*
X17204107Y-14695756D01*
X17204107Y-14638613D01*
X17213631Y-14619565D01*
X17223155Y-14610042D01*
X17242202Y-14600518D01*
X17270774Y-14600518D01*
X17289821Y-14610042D01*
X17299345Y-14619565D01*
X17308869Y-14638613D01*
X17308869Y-14695756D01*
X17299345Y-14714803D01*
X17289821Y-14724327D01*
X17270774Y-14733851D01*
X17242202Y-14733851D01*
X17423155Y-14733851D02*
X17404107Y-14724327D01*
X17394583Y-14705280D01*
X17394583Y-14533851D01*
X17575536Y-14724327D02*
X17556488Y-14733851D01*
X17518393Y-14733851D01*
X17499345Y-14724327D01*
X17489821Y-14705280D01*
X17489821Y-14629089D01*
X17499345Y-14610042D01*
X17518393Y-14600518D01*
X17556488Y-14600518D01*
X17575536Y-14610042D01*
X17585060Y-14629089D01*
X17585060Y-14648137D01*
X17489821Y-14667184D01*
X17661250Y-14724327D02*
X17680298Y-14733851D01*
X17718393Y-14733851D01*
X17737440Y-14724327D01*
X17746964Y-14705280D01*
X17746964Y-14695756D01*
X17737440Y-14676708D01*
X17718393Y-14667184D01*
X17689821Y-14667184D01*
X17670774Y-14657661D01*
X17661250Y-14638613D01*
X17661250Y-14629089D01*
X17670774Y-14610042D01*
X17689821Y-14600518D01*
X17718393Y-14600518D01*
X17737440Y-14610042D01*
X17813631Y-14810042D02*
X17823155Y-14800518D01*
X17842202Y-14771946D01*
X17851726Y-14752899D01*
X17861250Y-14724327D01*
X17870774Y-14676708D01*
X17870774Y-14638613D01*
X17861250Y-14590994D01*
X17851726Y-14562423D01*
X17842202Y-14543375D01*
X17823155Y-14514803D01*
X17813631Y-14505280D01*
D14*
X12777750Y-14833875D02*
X12777750Y-14980875D01*
X12704250Y-14907375D02*
X12851250Y-14907375D01*
D12*
X13213631Y-14997851D02*
X13099345Y-14997851D01*
X13156488Y-14997851D02*
X13156488Y-14797851D01*
X13137440Y-14826423D01*
X13118393Y-14845470D01*
X13099345Y-14854994D01*
X13299345Y-14978803D02*
X13308869Y-14988327D01*
X13299345Y-14997851D01*
X13289821Y-14988327D01*
X13299345Y-14978803D01*
X13299345Y-14997851D01*
X13480298Y-14864518D02*
X13480298Y-14997851D01*
X13432678Y-14788327D02*
X13385059Y-14931184D01*
X13508869Y-14931184D01*
X13566012Y-14797851D02*
X13699345Y-14797851D01*
X13613631Y-14997851D01*
X13813631Y-14797851D02*
X13832678Y-14797851D01*
X13851726Y-14807375D01*
X13861250Y-14816899D01*
X13870774Y-14835946D01*
X13880298Y-14874042D01*
X13880298Y-14921661D01*
X13870774Y-14959756D01*
X13861250Y-14978803D01*
X13851726Y-14988327D01*
X13832678Y-14997851D01*
X13813631Y-14997851D01*
X13794583Y-14988327D01*
X13785059Y-14978803D01*
X13775536Y-14959756D01*
X13766012Y-14921661D01*
X13766012Y-14874042D01*
X13775536Y-14835946D01*
X13785059Y-14816899D01*
X13794583Y-14807375D01*
X13813631Y-14797851D01*
X13966012Y-14997851D02*
X13966012Y-14864518D01*
X13966012Y-14883565D02*
X13975536Y-14874042D01*
X13994583Y-14864518D01*
X14023155Y-14864518D01*
X14042202Y-14874042D01*
X14051726Y-14893089D01*
X14051726Y-14997851D01*
X14051726Y-14893089D02*
X14061250Y-14874042D01*
X14080298Y-14864518D01*
X14108869Y-14864518D01*
X14127917Y-14874042D01*
X14137440Y-14893089D01*
X14137440Y-14997851D01*
X14232678Y-14997851D02*
X14232678Y-14864518D01*
X14232678Y-14883565D02*
X14242202Y-14874042D01*
X14261250Y-14864518D01*
X14289821Y-14864518D01*
X14308869Y-14874042D01*
X14318393Y-14893089D01*
X14318393Y-14997851D01*
X14318393Y-14893089D02*
X14327917Y-14874042D01*
X14346964Y-14864518D01*
X14375536Y-14864518D01*
X14394583Y-14874042D01*
X14404107Y-14893089D01*
X14404107Y-14997851D01*
X14794583Y-14788327D02*
X14623155Y-15045470D01*
X15051726Y-14797851D02*
X15070774Y-14797851D01*
X15089821Y-14807375D01*
X15099345Y-14816899D01*
X15108869Y-14835946D01*
X15118393Y-14874042D01*
X15118393Y-14921661D01*
X15108869Y-14959756D01*
X15099345Y-14978803D01*
X15089821Y-14988327D01*
X15070774Y-14997851D01*
X15051726Y-14997851D01*
X15032678Y-14988327D01*
X15023155Y-14978803D01*
X15013631Y-14959756D01*
X15004107Y-14921661D01*
X15004107Y-14874042D01*
X15013631Y-14835946D01*
X15023155Y-14816899D01*
X15032678Y-14807375D01*
X15051726Y-14797851D01*
X15204107Y-14978803D02*
X15213631Y-14988327D01*
X15204107Y-14997851D01*
X15194583Y-14988327D01*
X15204107Y-14978803D01*
X15204107Y-14997851D01*
X15337440Y-14797851D02*
X15356488Y-14797851D01*
X15375536Y-14807375D01*
X15385059Y-14816899D01*
X15394583Y-14835946D01*
X15404107Y-14874042D01*
X15404107Y-14921661D01*
X15394583Y-14959756D01*
X15385059Y-14978803D01*
X15375536Y-14988327D01*
X15356488Y-14997851D01*
X15337440Y-14997851D01*
X15318393Y-14988327D01*
X15308869Y-14978803D01*
X15299345Y-14959756D01*
X15289821Y-14921661D01*
X15289821Y-14874042D01*
X15299345Y-14835946D01*
X15308869Y-14816899D01*
X15318393Y-14807375D01*
X15337440Y-14797851D01*
X15585059Y-14797851D02*
X15489821Y-14797851D01*
X15480298Y-14893089D01*
X15489821Y-14883565D01*
X15508869Y-14874042D01*
X15556488Y-14874042D01*
X15575536Y-14883565D01*
X15585059Y-14893089D01*
X15594583Y-14912137D01*
X15594583Y-14959756D01*
X15585059Y-14978803D01*
X15575536Y-14988327D01*
X15556488Y-14997851D01*
X15508869Y-14997851D01*
X15489821Y-14988327D01*
X15480298Y-14978803D01*
X15661250Y-14797851D02*
X15794583Y-14797851D01*
X15708869Y-14997851D01*
X15880298Y-14997851D02*
X15918393Y-14997851D01*
X15937440Y-14988327D01*
X15946964Y-14978803D01*
X15966012Y-14950232D01*
X15975536Y-14912137D01*
X15975536Y-14835946D01*
X15966012Y-14816899D01*
X15956488Y-14807375D01*
X15937440Y-14797851D01*
X15899345Y-14797851D01*
X15880298Y-14807375D01*
X15870774Y-14816899D01*
X15861250Y-14835946D01*
X15861250Y-14883565D01*
X15870774Y-14902613D01*
X15880298Y-14912137D01*
X15899345Y-14921661D01*
X15937440Y-14921661D01*
X15956488Y-14912137D01*
X15966012Y-14902613D01*
X15975536Y-14883565D01*
X16051726Y-14797851D02*
X16051726Y-14835946D01*
X16127917Y-14797851D02*
X16127917Y-14835946D01*
X16423155Y-15074042D02*
X16413631Y-15064518D01*
X16394583Y-15035946D01*
X16385059Y-15016899D01*
X16375536Y-14988327D01*
X16366012Y-14940708D01*
X16366012Y-14902613D01*
X16375536Y-14854994D01*
X16385059Y-14826423D01*
X16394583Y-14807375D01*
X16413631Y-14778803D01*
X16423155Y-14769280D01*
X16585059Y-14864518D02*
X16585059Y-14997851D01*
X16537440Y-14788327D02*
X16489821Y-14931184D01*
X16613631Y-14931184D01*
X16727917Y-14797851D02*
X16746964Y-14797851D01*
X16766012Y-14807375D01*
X16775536Y-14816899D01*
X16785060Y-14835946D01*
X16794583Y-14874042D01*
X16794583Y-14921661D01*
X16785060Y-14959756D01*
X16775536Y-14978803D01*
X16766012Y-14988327D01*
X16746964Y-14997851D01*
X16727917Y-14997851D01*
X16708869Y-14988327D01*
X16699345Y-14978803D01*
X16689821Y-14959756D01*
X16680298Y-14921661D01*
X16680298Y-14874042D01*
X16689821Y-14835946D01*
X16699345Y-14816899D01*
X16708869Y-14807375D01*
X16727917Y-14797851D01*
X17032679Y-14997851D02*
X17032679Y-14797851D01*
X17118393Y-14997851D02*
X17118393Y-14893089D01*
X17108869Y-14874042D01*
X17089821Y-14864518D01*
X17061250Y-14864518D01*
X17042202Y-14874042D01*
X17032679Y-14883565D01*
X17242202Y-14997851D02*
X17223155Y-14988327D01*
X17213631Y-14978803D01*
X17204107Y-14959756D01*
X17204107Y-14902613D01*
X17213631Y-14883565D01*
X17223155Y-14874042D01*
X17242202Y-14864518D01*
X17270774Y-14864518D01*
X17289821Y-14874042D01*
X17299345Y-14883565D01*
X17308869Y-14902613D01*
X17308869Y-14959756D01*
X17299345Y-14978803D01*
X17289821Y-14988327D01*
X17270774Y-14997851D01*
X17242202Y-14997851D01*
X17423155Y-14997851D02*
X17404107Y-14988327D01*
X17394583Y-14969280D01*
X17394583Y-14797851D01*
X17575536Y-14988327D02*
X17556488Y-14997851D01*
X17518393Y-14997851D01*
X17499345Y-14988327D01*
X17489821Y-14969280D01*
X17489821Y-14893089D01*
X17499345Y-14874042D01*
X17518393Y-14864518D01*
X17556488Y-14864518D01*
X17575536Y-14874042D01*
X17585060Y-14893089D01*
X17585060Y-14912137D01*
X17489821Y-14931184D01*
X17661250Y-14988327D02*
X17680298Y-14997851D01*
X17718393Y-14997851D01*
X17737440Y-14988327D01*
X17746964Y-14969280D01*
X17746964Y-14959756D01*
X17737440Y-14940708D01*
X17718393Y-14931184D01*
X17689821Y-14931184D01*
X17670774Y-14921661D01*
X17661250Y-14902613D01*
X17661250Y-14893089D01*
X17670774Y-14874042D01*
X17689821Y-14864518D01*
X17718393Y-14864518D01*
X17737440Y-14874042D01*
X17813631Y-15074042D02*
X17823155Y-15064518D01*
X17842202Y-15035946D01*
X17851726Y-15016899D01*
X17861250Y-14988327D01*
X17870774Y-14940708D01*
X17870774Y-14902613D01*
X17861250Y-14854994D01*
X17851726Y-14826423D01*
X17842202Y-14807375D01*
X17823155Y-14778803D01*
X17813631Y-14769280D01*
M02*
