%TF.GenerationSoftware,KiCad,Pcbnew,(6.0.9)*%
%TF.CreationDate,2023-03-10T16:44:19-06:00*%
%TF.ProjectId,Navigation Keys,4e617669-6761-4746-996f-6e204b657973,rev?*%
%TF.SameCoordinates,Original*%
%TF.FileFunction,Drillmap*%
%TF.FilePolarity,Positive*%
%FSLAX45Y45*%
G04 Gerber Fmt 4.5, Leading zero omitted, Abs format (unit mm)*
G04 Created by KiCad (PCBNEW (6.0.9)) date 2023-03-10 16:44:19*
%MOMM*%
%LPD*%
G01*
G04 APERTURE LIST*
%ADD10C,0.150000*%
%ADD11C,0.100000*%
%ADD12C,0.200000*%
%ADD13C,0.175000*%
%ADD14C,0.398780*%
G04 APERTURE END LIST*
D10*
X21351875Y-13731880D02*
G75*
G03*
X21590000Y-13493750I-5J238130D01*
G01*
X13096875Y-6111870D02*
G75*
G03*
X12858750Y-6350000I5J-238130D01*
G01*
X21590000Y-6350000D02*
X21590000Y-13493750D01*
D11*
X13335000Y-13335000D02*
G75*
G03*
X13335000Y-13335000I-79375J0D01*
G01*
X19208750Y-10398125D02*
G75*
G03*
X19208750Y-10398125I-79375J0D01*
G01*
X21272500Y-13335000D02*
G75*
G03*
X21272500Y-13335000I-79375J0D01*
G01*
D10*
X12858750Y-6350000D02*
X12858750Y-13493750D01*
X21351875Y-6111875D02*
X13096875Y-6111875D01*
X12858755Y-13493750D02*
G75*
G03*
X13096875Y-13731875I238125J0D01*
G01*
D11*
X15398750Y-11588750D02*
G75*
G03*
X15398750Y-11588750I-79375J0D01*
G01*
X13335000Y-6508750D02*
G75*
G03*
X13335000Y-6508750I-79375J0D01*
G01*
D10*
X13096875Y-13731875D02*
X21351875Y-13731875D01*
D11*
X21272500Y-6508750D02*
G75*
G03*
X21272500Y-6508750I-79375J0D01*
G01*
D10*
X21589995Y-6350000D02*
G75*
G03*
X21351875Y-6111875I-238125J0D01*
G01*
D12*
D13*
X14723875Y-6976875D02*
X14898875Y-7151875D01*
X14898875Y-6976875D02*
X14723875Y-7151875D01*
X14723875Y-8881875D02*
X14898875Y-9056875D01*
X14898875Y-8881875D02*
X14723875Y-9056875D01*
X14723875Y-12691875D02*
X14898875Y-12866875D01*
X14898875Y-12691875D02*
X14723875Y-12866875D01*
X15739875Y-6976875D02*
X15914875Y-7151875D01*
X15914875Y-6976875D02*
X15739875Y-7151875D01*
X15739875Y-8881875D02*
X15914875Y-9056875D01*
X15914875Y-8881875D02*
X15739875Y-9056875D01*
X15739875Y-12691875D02*
X15914875Y-12866875D01*
X15914875Y-12691875D02*
X15739875Y-12866875D01*
X16628875Y-6976875D02*
X16803875Y-7151875D01*
X16803875Y-6976875D02*
X16628875Y-7151875D01*
X16628875Y-8881875D02*
X16803875Y-9056875D01*
X16803875Y-8881875D02*
X16628875Y-9056875D01*
X16628875Y-10786875D02*
X16803875Y-10961875D01*
X16803875Y-10786875D02*
X16628875Y-10961875D01*
X16628875Y-12691875D02*
X16803875Y-12866875D01*
X16803875Y-12691875D02*
X16628875Y-12866875D01*
X17644875Y-6976875D02*
X17819875Y-7151875D01*
X17819875Y-6976875D02*
X17644875Y-7151875D01*
X17644875Y-8881875D02*
X17819875Y-9056875D01*
X17819875Y-8881875D02*
X17644875Y-9056875D01*
X17644875Y-10786875D02*
X17819875Y-10961875D01*
X17819875Y-10786875D02*
X17644875Y-10961875D01*
X17644875Y-12691875D02*
X17819875Y-12866875D01*
X17819875Y-12691875D02*
X17644875Y-12866875D01*
X18533875Y-6976875D02*
X18708875Y-7151875D01*
X18708875Y-6976875D02*
X18533875Y-7151875D01*
X18533875Y-8881875D02*
X18708875Y-9056875D01*
X18708875Y-8881875D02*
X18533875Y-9056875D01*
X18533875Y-12691875D02*
X18708875Y-12866875D01*
X18708875Y-12691875D02*
X18533875Y-12866875D01*
X19549875Y-6976875D02*
X19724875Y-7151875D01*
X19724875Y-6976875D02*
X19549875Y-7151875D01*
X19549875Y-8881875D02*
X19724875Y-9056875D01*
X19724875Y-8881875D02*
X19549875Y-9056875D01*
X19549875Y-12691875D02*
X19724875Y-12866875D01*
X19724875Y-12691875D02*
X19549875Y-12866875D01*
D14*
X15518765Y-7064375D02*
G75*
G03*
X15518765Y-7064375I-199390J0D01*
G01*
X15518765Y-8969375D02*
G75*
G03*
X15518765Y-8969375I-199390J0D01*
G01*
X15518765Y-12779375D02*
G75*
G03*
X15518765Y-12779375I-199390J0D01*
G01*
X17423765Y-7064375D02*
G75*
G03*
X17423765Y-7064375I-199390J0D01*
G01*
X17423765Y-8969375D02*
G75*
G03*
X17423765Y-8969375I-199390J0D01*
G01*
X17423765Y-10874375D02*
G75*
G03*
X17423765Y-10874375I-199390J0D01*
G01*
X17423765Y-12779375D02*
G75*
G03*
X17423765Y-12779375I-199390J0D01*
G01*
X19328765Y-7064375D02*
G75*
G03*
X19328765Y-7064375I-199390J0D01*
G01*
X19328765Y-8969375D02*
G75*
G03*
X19328765Y-8969375I-199390J0D01*
G01*
X19328765Y-12779375D02*
G75*
G03*
X19328765Y-12779375I-199390J0D01*
G01*
D12*
X13108869Y-14049851D02*
X13108869Y-13849851D01*
X13156488Y-13849851D01*
X13185059Y-13859375D01*
X13204107Y-13878423D01*
X13213631Y-13897470D01*
X13223155Y-13935565D01*
X13223155Y-13964137D01*
X13213631Y-14002232D01*
X13204107Y-14021280D01*
X13185059Y-14040327D01*
X13156488Y-14049851D01*
X13108869Y-14049851D01*
X13308869Y-14049851D02*
X13308869Y-13916518D01*
X13308869Y-13954613D02*
X13318393Y-13935565D01*
X13327917Y-13926042D01*
X13346964Y-13916518D01*
X13366012Y-13916518D01*
X13432678Y-14049851D02*
X13432678Y-13916518D01*
X13432678Y-13849851D02*
X13423155Y-13859375D01*
X13432678Y-13868899D01*
X13442202Y-13859375D01*
X13432678Y-13849851D01*
X13432678Y-13868899D01*
X13556488Y-14049851D02*
X13537440Y-14040327D01*
X13527917Y-14021280D01*
X13527917Y-13849851D01*
X13661250Y-14049851D02*
X13642202Y-14040327D01*
X13632678Y-14021280D01*
X13632678Y-13849851D01*
X13889821Y-14049851D02*
X13889821Y-13849851D01*
X13956488Y-13992708D01*
X14023155Y-13849851D01*
X14023155Y-14049851D01*
X14204107Y-14049851D02*
X14204107Y-13945089D01*
X14194583Y-13926042D01*
X14175536Y-13916518D01*
X14137440Y-13916518D01*
X14118393Y-13926042D01*
X14204107Y-14040327D02*
X14185059Y-14049851D01*
X14137440Y-14049851D01*
X14118393Y-14040327D01*
X14108869Y-14021280D01*
X14108869Y-14002232D01*
X14118393Y-13983184D01*
X14137440Y-13973661D01*
X14185059Y-13973661D01*
X14204107Y-13964137D01*
X14299345Y-13916518D02*
X14299345Y-14116518D01*
X14299345Y-13926042D02*
X14318393Y-13916518D01*
X14356488Y-13916518D01*
X14375536Y-13926042D01*
X14385059Y-13935565D01*
X14394583Y-13954613D01*
X14394583Y-14011756D01*
X14385059Y-14030803D01*
X14375536Y-14040327D01*
X14356488Y-14049851D01*
X14318393Y-14049851D01*
X14299345Y-14040327D01*
X14480298Y-14030803D02*
X14489821Y-14040327D01*
X14480298Y-14049851D01*
X14470774Y-14040327D01*
X14480298Y-14030803D01*
X14480298Y-14049851D01*
X14480298Y-13926042D02*
X14489821Y-13935565D01*
X14480298Y-13945089D01*
X14470774Y-13935565D01*
X14480298Y-13926042D01*
X14480298Y-13945089D01*
D13*
X12676250Y-14291875D02*
X12851250Y-14466875D01*
X12851250Y-14291875D02*
X12676250Y-14466875D01*
D12*
X13213631Y-14469851D02*
X13099345Y-14469851D01*
X13156488Y-14469851D02*
X13156488Y-14269851D01*
X13137440Y-14298423D01*
X13118393Y-14317470D01*
X13099345Y-14326994D01*
X13299345Y-14450803D02*
X13308869Y-14460327D01*
X13299345Y-14469851D01*
X13289821Y-14460327D01*
X13299345Y-14450803D01*
X13299345Y-14469851D01*
X13375536Y-14269851D02*
X13508869Y-14269851D01*
X13423155Y-14469851D01*
X13680298Y-14269851D02*
X13585059Y-14269851D01*
X13575536Y-14365089D01*
X13585059Y-14355565D01*
X13604107Y-14346042D01*
X13651726Y-14346042D01*
X13670774Y-14355565D01*
X13680298Y-14365089D01*
X13689821Y-14384137D01*
X13689821Y-14431756D01*
X13680298Y-14450803D01*
X13670774Y-14460327D01*
X13651726Y-14469851D01*
X13604107Y-14469851D01*
X13585059Y-14460327D01*
X13575536Y-14450803D01*
X13813631Y-14269851D02*
X13832678Y-14269851D01*
X13851726Y-14279375D01*
X13861250Y-14288899D01*
X13870774Y-14307946D01*
X13880298Y-14346042D01*
X13880298Y-14393661D01*
X13870774Y-14431756D01*
X13861250Y-14450803D01*
X13851726Y-14460327D01*
X13832678Y-14469851D01*
X13813631Y-14469851D01*
X13794583Y-14460327D01*
X13785059Y-14450803D01*
X13775536Y-14431756D01*
X13766012Y-14393661D01*
X13766012Y-14346042D01*
X13775536Y-14307946D01*
X13785059Y-14288899D01*
X13794583Y-14279375D01*
X13813631Y-14269851D01*
X13966012Y-14469851D02*
X13966012Y-14336518D01*
X13966012Y-14355565D02*
X13975536Y-14346042D01*
X13994583Y-14336518D01*
X14023155Y-14336518D01*
X14042202Y-14346042D01*
X14051726Y-14365089D01*
X14051726Y-14469851D01*
X14051726Y-14365089D02*
X14061250Y-14346042D01*
X14080298Y-14336518D01*
X14108869Y-14336518D01*
X14127917Y-14346042D01*
X14137440Y-14365089D01*
X14137440Y-14469851D01*
X14232678Y-14469851D02*
X14232678Y-14336518D01*
X14232678Y-14355565D02*
X14242202Y-14346042D01*
X14261250Y-14336518D01*
X14289821Y-14336518D01*
X14308869Y-14346042D01*
X14318393Y-14365089D01*
X14318393Y-14469851D01*
X14318393Y-14365089D02*
X14327917Y-14346042D01*
X14346964Y-14336518D01*
X14375536Y-14336518D01*
X14394583Y-14346042D01*
X14404107Y-14365089D01*
X14404107Y-14469851D01*
X14794583Y-14260327D02*
X14623155Y-14517470D01*
X15051726Y-14269851D02*
X15070774Y-14269851D01*
X15089821Y-14279375D01*
X15099345Y-14288899D01*
X15108869Y-14307946D01*
X15118393Y-14346042D01*
X15118393Y-14393661D01*
X15108869Y-14431756D01*
X15099345Y-14450803D01*
X15089821Y-14460327D01*
X15070774Y-14469851D01*
X15051726Y-14469851D01*
X15032678Y-14460327D01*
X15023155Y-14450803D01*
X15013631Y-14431756D01*
X15004107Y-14393661D01*
X15004107Y-14346042D01*
X15013631Y-14307946D01*
X15023155Y-14288899D01*
X15032678Y-14279375D01*
X15051726Y-14269851D01*
X15204107Y-14450803D02*
X15213631Y-14460327D01*
X15204107Y-14469851D01*
X15194583Y-14460327D01*
X15204107Y-14450803D01*
X15204107Y-14469851D01*
X15337440Y-14269851D02*
X15356488Y-14269851D01*
X15375536Y-14279375D01*
X15385059Y-14288899D01*
X15394583Y-14307946D01*
X15404107Y-14346042D01*
X15404107Y-14393661D01*
X15394583Y-14431756D01*
X15385059Y-14450803D01*
X15375536Y-14460327D01*
X15356488Y-14469851D01*
X15337440Y-14469851D01*
X15318393Y-14460327D01*
X15308869Y-14450803D01*
X15299345Y-14431756D01*
X15289821Y-14393661D01*
X15289821Y-14346042D01*
X15299345Y-14307946D01*
X15308869Y-14288899D01*
X15318393Y-14279375D01*
X15337440Y-14269851D01*
X15575536Y-14269851D02*
X15537440Y-14269851D01*
X15518393Y-14279375D01*
X15508869Y-14288899D01*
X15489821Y-14317470D01*
X15480298Y-14355565D01*
X15480298Y-14431756D01*
X15489821Y-14450803D01*
X15499345Y-14460327D01*
X15518393Y-14469851D01*
X15556488Y-14469851D01*
X15575536Y-14460327D01*
X15585059Y-14450803D01*
X15594583Y-14431756D01*
X15594583Y-14384137D01*
X15585059Y-14365089D01*
X15575536Y-14355565D01*
X15556488Y-14346042D01*
X15518393Y-14346042D01*
X15499345Y-14355565D01*
X15489821Y-14365089D01*
X15480298Y-14384137D01*
X15708869Y-14355565D02*
X15689821Y-14346042D01*
X15680298Y-14336518D01*
X15670774Y-14317470D01*
X15670774Y-14307946D01*
X15680298Y-14288899D01*
X15689821Y-14279375D01*
X15708869Y-14269851D01*
X15746964Y-14269851D01*
X15766012Y-14279375D01*
X15775536Y-14288899D01*
X15785059Y-14307946D01*
X15785059Y-14317470D01*
X15775536Y-14336518D01*
X15766012Y-14346042D01*
X15746964Y-14355565D01*
X15708869Y-14355565D01*
X15689821Y-14365089D01*
X15680298Y-14374613D01*
X15670774Y-14393661D01*
X15670774Y-14431756D01*
X15680298Y-14450803D01*
X15689821Y-14460327D01*
X15708869Y-14469851D01*
X15746964Y-14469851D01*
X15766012Y-14460327D01*
X15775536Y-14450803D01*
X15785059Y-14431756D01*
X15785059Y-14393661D01*
X15775536Y-14374613D01*
X15766012Y-14365089D01*
X15746964Y-14355565D01*
X15880298Y-14469851D02*
X15918393Y-14469851D01*
X15937440Y-14460327D01*
X15946964Y-14450803D01*
X15966012Y-14422232D01*
X15975536Y-14384137D01*
X15975536Y-14307946D01*
X15966012Y-14288899D01*
X15956488Y-14279375D01*
X15937440Y-14269851D01*
X15899345Y-14269851D01*
X15880298Y-14279375D01*
X15870774Y-14288899D01*
X15861250Y-14307946D01*
X15861250Y-14355565D01*
X15870774Y-14374613D01*
X15880298Y-14384137D01*
X15899345Y-14393661D01*
X15937440Y-14393661D01*
X15956488Y-14384137D01*
X15966012Y-14374613D01*
X15975536Y-14355565D01*
X16051726Y-14269851D02*
X16051726Y-14307946D01*
X16127917Y-14269851D02*
X16127917Y-14307946D01*
X16423155Y-14546042D02*
X16413631Y-14536518D01*
X16394583Y-14507946D01*
X16385059Y-14488899D01*
X16375536Y-14460327D01*
X16366012Y-14412708D01*
X16366012Y-14374613D01*
X16375536Y-14326994D01*
X16385059Y-14298423D01*
X16394583Y-14279375D01*
X16413631Y-14250803D01*
X16423155Y-14241280D01*
X16489821Y-14288899D02*
X16499345Y-14279375D01*
X16518393Y-14269851D01*
X16566012Y-14269851D01*
X16585059Y-14279375D01*
X16594583Y-14288899D01*
X16604107Y-14307946D01*
X16604107Y-14326994D01*
X16594583Y-14355565D01*
X16480298Y-14469851D01*
X16604107Y-14469851D01*
X16727917Y-14269851D02*
X16746964Y-14269851D01*
X16766012Y-14279375D01*
X16775536Y-14288899D01*
X16785060Y-14307946D01*
X16794583Y-14346042D01*
X16794583Y-14393661D01*
X16785060Y-14431756D01*
X16775536Y-14450803D01*
X16766012Y-14460327D01*
X16746964Y-14469851D01*
X16727917Y-14469851D01*
X16708869Y-14460327D01*
X16699345Y-14450803D01*
X16689821Y-14431756D01*
X16680298Y-14393661D01*
X16680298Y-14346042D01*
X16689821Y-14307946D01*
X16699345Y-14288899D01*
X16708869Y-14279375D01*
X16727917Y-14269851D01*
X17032679Y-14469851D02*
X17032679Y-14269851D01*
X17118393Y-14469851D02*
X17118393Y-14365089D01*
X17108869Y-14346042D01*
X17089821Y-14336518D01*
X17061250Y-14336518D01*
X17042202Y-14346042D01*
X17032679Y-14355565D01*
X17242202Y-14469851D02*
X17223155Y-14460327D01*
X17213631Y-14450803D01*
X17204107Y-14431756D01*
X17204107Y-14374613D01*
X17213631Y-14355565D01*
X17223155Y-14346042D01*
X17242202Y-14336518D01*
X17270774Y-14336518D01*
X17289821Y-14346042D01*
X17299345Y-14355565D01*
X17308869Y-14374613D01*
X17308869Y-14431756D01*
X17299345Y-14450803D01*
X17289821Y-14460327D01*
X17270774Y-14469851D01*
X17242202Y-14469851D01*
X17423155Y-14469851D02*
X17404107Y-14460327D01*
X17394583Y-14441280D01*
X17394583Y-14269851D01*
X17575536Y-14460327D02*
X17556488Y-14469851D01*
X17518393Y-14469851D01*
X17499345Y-14460327D01*
X17489821Y-14441280D01*
X17489821Y-14365089D01*
X17499345Y-14346042D01*
X17518393Y-14336518D01*
X17556488Y-14336518D01*
X17575536Y-14346042D01*
X17585060Y-14365089D01*
X17585060Y-14384137D01*
X17489821Y-14403184D01*
X17661250Y-14460327D02*
X17680298Y-14469851D01*
X17718393Y-14469851D01*
X17737440Y-14460327D01*
X17746964Y-14441280D01*
X17746964Y-14431756D01*
X17737440Y-14412708D01*
X17718393Y-14403184D01*
X17689821Y-14403184D01*
X17670774Y-14393661D01*
X17661250Y-14374613D01*
X17661250Y-14365089D01*
X17670774Y-14346042D01*
X17689821Y-14336518D01*
X17718393Y-14336518D01*
X17737440Y-14346042D01*
X17813631Y-14546042D02*
X17823155Y-14536518D01*
X17842202Y-14507946D01*
X17851726Y-14488899D01*
X17861250Y-14460327D01*
X17870774Y-14412708D01*
X17870774Y-14374613D01*
X17861250Y-14326994D01*
X17851726Y-14298423D01*
X17842202Y-14279375D01*
X17823155Y-14250803D01*
X17813631Y-14241280D01*
X18175536Y-14546042D02*
X18166012Y-14536518D01*
X18146964Y-14507946D01*
X18137440Y-14488899D01*
X18127917Y-14460327D01*
X18118393Y-14412708D01*
X18118393Y-14374613D01*
X18127917Y-14326994D01*
X18137440Y-14298423D01*
X18146964Y-14279375D01*
X18166012Y-14250803D01*
X18175536Y-14241280D01*
X18251726Y-14336518D02*
X18251726Y-14469851D01*
X18251726Y-14355565D02*
X18261250Y-14346042D01*
X18280298Y-14336518D01*
X18308869Y-14336518D01*
X18327917Y-14346042D01*
X18337440Y-14365089D01*
X18337440Y-14469851D01*
X18461250Y-14469851D02*
X18442202Y-14460327D01*
X18432679Y-14450803D01*
X18423155Y-14431756D01*
X18423155Y-14374613D01*
X18432679Y-14355565D01*
X18442202Y-14346042D01*
X18461250Y-14336518D01*
X18489821Y-14336518D01*
X18508869Y-14346042D01*
X18518393Y-14355565D01*
X18527917Y-14374613D01*
X18527917Y-14431756D01*
X18518393Y-14450803D01*
X18508869Y-14460327D01*
X18489821Y-14469851D01*
X18461250Y-14469851D01*
X18585060Y-14336518D02*
X18661250Y-14336518D01*
X18613631Y-14269851D02*
X18613631Y-14441280D01*
X18623155Y-14460327D01*
X18642202Y-14469851D01*
X18661250Y-14469851D01*
X18880298Y-14336518D02*
X18880298Y-14536518D01*
X18880298Y-14346042D02*
X18899345Y-14336518D01*
X18937440Y-14336518D01*
X18956488Y-14346042D01*
X18966012Y-14355565D01*
X18975536Y-14374613D01*
X18975536Y-14431756D01*
X18966012Y-14450803D01*
X18956488Y-14460327D01*
X18937440Y-14469851D01*
X18899345Y-14469851D01*
X18880298Y-14460327D01*
X19089821Y-14469851D02*
X19070774Y-14460327D01*
X19061250Y-14441280D01*
X19061250Y-14269851D01*
X19251726Y-14469851D02*
X19251726Y-14365089D01*
X19242202Y-14346042D01*
X19223155Y-14336518D01*
X19185060Y-14336518D01*
X19166012Y-14346042D01*
X19251726Y-14460327D02*
X19232679Y-14469851D01*
X19185060Y-14469851D01*
X19166012Y-14460327D01*
X19156488Y-14441280D01*
X19156488Y-14422232D01*
X19166012Y-14403184D01*
X19185060Y-14393661D01*
X19232679Y-14393661D01*
X19251726Y-14384137D01*
X19318393Y-14336518D02*
X19394583Y-14336518D01*
X19346964Y-14269851D02*
X19346964Y-14441280D01*
X19356488Y-14460327D01*
X19375536Y-14469851D01*
X19394583Y-14469851D01*
X19537440Y-14460327D02*
X19518393Y-14469851D01*
X19480298Y-14469851D01*
X19461250Y-14460327D01*
X19451726Y-14441280D01*
X19451726Y-14365089D01*
X19461250Y-14346042D01*
X19480298Y-14336518D01*
X19518393Y-14336518D01*
X19537440Y-14346042D01*
X19546964Y-14365089D01*
X19546964Y-14384137D01*
X19451726Y-14403184D01*
X19718393Y-14469851D02*
X19718393Y-14269851D01*
X19718393Y-14460327D02*
X19699345Y-14469851D01*
X19661250Y-14469851D01*
X19642202Y-14460327D01*
X19632679Y-14450803D01*
X19623155Y-14431756D01*
X19623155Y-14374613D01*
X19632679Y-14355565D01*
X19642202Y-14346042D01*
X19661250Y-14336518D01*
X19699345Y-14336518D01*
X19718393Y-14346042D01*
X19794583Y-14546042D02*
X19804107Y-14536518D01*
X19823155Y-14507946D01*
X19832679Y-14488899D01*
X19842202Y-14460327D01*
X19851726Y-14412708D01*
X19851726Y-14374613D01*
X19842202Y-14326994D01*
X19832679Y-14298423D01*
X19823155Y-14279375D01*
X19804107Y-14250803D01*
X19794583Y-14241280D01*
X12851250Y-14674375D02*
G75*
G03*
X12851250Y-14674375I-100000J0D01*
G01*
X13089821Y-14564851D02*
X13213631Y-14564851D01*
X13146964Y-14641042D01*
X13175536Y-14641042D01*
X13194583Y-14650565D01*
X13204107Y-14660089D01*
X13213631Y-14679137D01*
X13213631Y-14726756D01*
X13204107Y-14745803D01*
X13194583Y-14755327D01*
X13175536Y-14764851D01*
X13118393Y-14764851D01*
X13099345Y-14755327D01*
X13089821Y-14745803D01*
X13299345Y-14745803D02*
X13308869Y-14755327D01*
X13299345Y-14764851D01*
X13289821Y-14755327D01*
X13299345Y-14745803D01*
X13299345Y-14764851D01*
X13404107Y-14764851D02*
X13442202Y-14764851D01*
X13461250Y-14755327D01*
X13470774Y-14745803D01*
X13489821Y-14717232D01*
X13499345Y-14679137D01*
X13499345Y-14602946D01*
X13489821Y-14583899D01*
X13480298Y-14574375D01*
X13461250Y-14564851D01*
X13423155Y-14564851D01*
X13404107Y-14574375D01*
X13394583Y-14583899D01*
X13385059Y-14602946D01*
X13385059Y-14650565D01*
X13394583Y-14669613D01*
X13404107Y-14679137D01*
X13423155Y-14688661D01*
X13461250Y-14688661D01*
X13480298Y-14679137D01*
X13489821Y-14669613D01*
X13499345Y-14650565D01*
X13613631Y-14650565D02*
X13594583Y-14641042D01*
X13585059Y-14631518D01*
X13575536Y-14612470D01*
X13575536Y-14602946D01*
X13585059Y-14583899D01*
X13594583Y-14574375D01*
X13613631Y-14564851D01*
X13651726Y-14564851D01*
X13670774Y-14574375D01*
X13680298Y-14583899D01*
X13689821Y-14602946D01*
X13689821Y-14612470D01*
X13680298Y-14631518D01*
X13670774Y-14641042D01*
X13651726Y-14650565D01*
X13613631Y-14650565D01*
X13594583Y-14660089D01*
X13585059Y-14669613D01*
X13575536Y-14688661D01*
X13575536Y-14726756D01*
X13585059Y-14745803D01*
X13594583Y-14755327D01*
X13613631Y-14764851D01*
X13651726Y-14764851D01*
X13670774Y-14755327D01*
X13680298Y-14745803D01*
X13689821Y-14726756D01*
X13689821Y-14688661D01*
X13680298Y-14669613D01*
X13670774Y-14660089D01*
X13651726Y-14650565D01*
X13804107Y-14650565D02*
X13785059Y-14641042D01*
X13775536Y-14631518D01*
X13766012Y-14612470D01*
X13766012Y-14602946D01*
X13775536Y-14583899D01*
X13785059Y-14574375D01*
X13804107Y-14564851D01*
X13842202Y-14564851D01*
X13861250Y-14574375D01*
X13870774Y-14583899D01*
X13880298Y-14602946D01*
X13880298Y-14612470D01*
X13870774Y-14631518D01*
X13861250Y-14641042D01*
X13842202Y-14650565D01*
X13804107Y-14650565D01*
X13785059Y-14660089D01*
X13775536Y-14669613D01*
X13766012Y-14688661D01*
X13766012Y-14726756D01*
X13775536Y-14745803D01*
X13785059Y-14755327D01*
X13804107Y-14764851D01*
X13842202Y-14764851D01*
X13861250Y-14755327D01*
X13870774Y-14745803D01*
X13880298Y-14726756D01*
X13880298Y-14688661D01*
X13870774Y-14669613D01*
X13861250Y-14660089D01*
X13842202Y-14650565D01*
X13966012Y-14764851D02*
X13966012Y-14631518D01*
X13966012Y-14650565D02*
X13975536Y-14641042D01*
X13994583Y-14631518D01*
X14023155Y-14631518D01*
X14042202Y-14641042D01*
X14051726Y-14660089D01*
X14051726Y-14764851D01*
X14051726Y-14660089D02*
X14061250Y-14641042D01*
X14080298Y-14631518D01*
X14108869Y-14631518D01*
X14127917Y-14641042D01*
X14137440Y-14660089D01*
X14137440Y-14764851D01*
X14232678Y-14764851D02*
X14232678Y-14631518D01*
X14232678Y-14650565D02*
X14242202Y-14641042D01*
X14261250Y-14631518D01*
X14289821Y-14631518D01*
X14308869Y-14641042D01*
X14318393Y-14660089D01*
X14318393Y-14764851D01*
X14318393Y-14660089D02*
X14327917Y-14641042D01*
X14346964Y-14631518D01*
X14375536Y-14631518D01*
X14394583Y-14641042D01*
X14404107Y-14660089D01*
X14404107Y-14764851D01*
X14794583Y-14555327D02*
X14623155Y-14812470D01*
X15051726Y-14564851D02*
X15070774Y-14564851D01*
X15089821Y-14574375D01*
X15099345Y-14583899D01*
X15108869Y-14602946D01*
X15118393Y-14641042D01*
X15118393Y-14688661D01*
X15108869Y-14726756D01*
X15099345Y-14745803D01*
X15089821Y-14755327D01*
X15070774Y-14764851D01*
X15051726Y-14764851D01*
X15032678Y-14755327D01*
X15023155Y-14745803D01*
X15013631Y-14726756D01*
X15004107Y-14688661D01*
X15004107Y-14641042D01*
X15013631Y-14602946D01*
X15023155Y-14583899D01*
X15032678Y-14574375D01*
X15051726Y-14564851D01*
X15204107Y-14745803D02*
X15213631Y-14755327D01*
X15204107Y-14764851D01*
X15194583Y-14755327D01*
X15204107Y-14745803D01*
X15204107Y-14764851D01*
X15404107Y-14764851D02*
X15289821Y-14764851D01*
X15346964Y-14764851D02*
X15346964Y-14564851D01*
X15327917Y-14593423D01*
X15308869Y-14612470D01*
X15289821Y-14621994D01*
X15585059Y-14564851D02*
X15489821Y-14564851D01*
X15480298Y-14660089D01*
X15489821Y-14650565D01*
X15508869Y-14641042D01*
X15556488Y-14641042D01*
X15575536Y-14650565D01*
X15585059Y-14660089D01*
X15594583Y-14679137D01*
X15594583Y-14726756D01*
X15585059Y-14745803D01*
X15575536Y-14755327D01*
X15556488Y-14764851D01*
X15508869Y-14764851D01*
X15489821Y-14755327D01*
X15480298Y-14745803D01*
X15661250Y-14564851D02*
X15794583Y-14564851D01*
X15708869Y-14764851D01*
X15908869Y-14564851D02*
X15927917Y-14564851D01*
X15946964Y-14574375D01*
X15956488Y-14583899D01*
X15966012Y-14602946D01*
X15975536Y-14641042D01*
X15975536Y-14688661D01*
X15966012Y-14726756D01*
X15956488Y-14745803D01*
X15946964Y-14755327D01*
X15927917Y-14764851D01*
X15908869Y-14764851D01*
X15889821Y-14755327D01*
X15880298Y-14745803D01*
X15870774Y-14726756D01*
X15861250Y-14688661D01*
X15861250Y-14641042D01*
X15870774Y-14602946D01*
X15880298Y-14583899D01*
X15889821Y-14574375D01*
X15908869Y-14564851D01*
X16051726Y-14564851D02*
X16051726Y-14602946D01*
X16127917Y-14564851D02*
X16127917Y-14602946D01*
X16423155Y-14841042D02*
X16413631Y-14831518D01*
X16394583Y-14802946D01*
X16385059Y-14783899D01*
X16375536Y-14755327D01*
X16366012Y-14707708D01*
X16366012Y-14669613D01*
X16375536Y-14621994D01*
X16385059Y-14593423D01*
X16394583Y-14574375D01*
X16413631Y-14545803D01*
X16423155Y-14536280D01*
X16604107Y-14764851D02*
X16489821Y-14764851D01*
X16546964Y-14764851D02*
X16546964Y-14564851D01*
X16527917Y-14593423D01*
X16508869Y-14612470D01*
X16489821Y-14621994D01*
X16727917Y-14564851D02*
X16746964Y-14564851D01*
X16766012Y-14574375D01*
X16775536Y-14583899D01*
X16785060Y-14602946D01*
X16794583Y-14641042D01*
X16794583Y-14688661D01*
X16785060Y-14726756D01*
X16775536Y-14745803D01*
X16766012Y-14755327D01*
X16746964Y-14764851D01*
X16727917Y-14764851D01*
X16708869Y-14755327D01*
X16699345Y-14745803D01*
X16689821Y-14726756D01*
X16680298Y-14688661D01*
X16680298Y-14641042D01*
X16689821Y-14602946D01*
X16699345Y-14583899D01*
X16708869Y-14574375D01*
X16727917Y-14564851D01*
X17032679Y-14764851D02*
X17032679Y-14564851D01*
X17118393Y-14764851D02*
X17118393Y-14660089D01*
X17108869Y-14641042D01*
X17089821Y-14631518D01*
X17061250Y-14631518D01*
X17042202Y-14641042D01*
X17032679Y-14650565D01*
X17242202Y-14764851D02*
X17223155Y-14755327D01*
X17213631Y-14745803D01*
X17204107Y-14726756D01*
X17204107Y-14669613D01*
X17213631Y-14650565D01*
X17223155Y-14641042D01*
X17242202Y-14631518D01*
X17270774Y-14631518D01*
X17289821Y-14641042D01*
X17299345Y-14650565D01*
X17308869Y-14669613D01*
X17308869Y-14726756D01*
X17299345Y-14745803D01*
X17289821Y-14755327D01*
X17270774Y-14764851D01*
X17242202Y-14764851D01*
X17423155Y-14764851D02*
X17404107Y-14755327D01*
X17394583Y-14736280D01*
X17394583Y-14564851D01*
X17575536Y-14755327D02*
X17556488Y-14764851D01*
X17518393Y-14764851D01*
X17499345Y-14755327D01*
X17489821Y-14736280D01*
X17489821Y-14660089D01*
X17499345Y-14641042D01*
X17518393Y-14631518D01*
X17556488Y-14631518D01*
X17575536Y-14641042D01*
X17585060Y-14660089D01*
X17585060Y-14679137D01*
X17489821Y-14698184D01*
X17661250Y-14755327D02*
X17680298Y-14764851D01*
X17718393Y-14764851D01*
X17737440Y-14755327D01*
X17746964Y-14736280D01*
X17746964Y-14726756D01*
X17737440Y-14707708D01*
X17718393Y-14698184D01*
X17689821Y-14698184D01*
X17670774Y-14688661D01*
X17661250Y-14669613D01*
X17661250Y-14660089D01*
X17670774Y-14641042D01*
X17689821Y-14631518D01*
X17718393Y-14631518D01*
X17737440Y-14641042D01*
X17813631Y-14841042D02*
X17823155Y-14831518D01*
X17842202Y-14802946D01*
X17851726Y-14783899D01*
X17861250Y-14755327D01*
X17870774Y-14707708D01*
X17870774Y-14669613D01*
X17861250Y-14621994D01*
X17851726Y-14593423D01*
X17842202Y-14574375D01*
X17823155Y-14545803D01*
X17813631Y-14536280D01*
X18175536Y-14841042D02*
X18166012Y-14831518D01*
X18146964Y-14802946D01*
X18137440Y-14783899D01*
X18127917Y-14755327D01*
X18118393Y-14707708D01*
X18118393Y-14669613D01*
X18127917Y-14621994D01*
X18137440Y-14593423D01*
X18146964Y-14574375D01*
X18166012Y-14545803D01*
X18175536Y-14536280D01*
X18251726Y-14631518D02*
X18251726Y-14764851D01*
X18251726Y-14650565D02*
X18261250Y-14641042D01*
X18280298Y-14631518D01*
X18308869Y-14631518D01*
X18327917Y-14641042D01*
X18337440Y-14660089D01*
X18337440Y-14764851D01*
X18461250Y-14764851D02*
X18442202Y-14755327D01*
X18432679Y-14745803D01*
X18423155Y-14726756D01*
X18423155Y-14669613D01*
X18432679Y-14650565D01*
X18442202Y-14641042D01*
X18461250Y-14631518D01*
X18489821Y-14631518D01*
X18508869Y-14641042D01*
X18518393Y-14650565D01*
X18527917Y-14669613D01*
X18527917Y-14726756D01*
X18518393Y-14745803D01*
X18508869Y-14755327D01*
X18489821Y-14764851D01*
X18461250Y-14764851D01*
X18585060Y-14631518D02*
X18661250Y-14631518D01*
X18613631Y-14564851D02*
X18613631Y-14736280D01*
X18623155Y-14755327D01*
X18642202Y-14764851D01*
X18661250Y-14764851D01*
X18880298Y-14631518D02*
X18880298Y-14831518D01*
X18880298Y-14641042D02*
X18899345Y-14631518D01*
X18937440Y-14631518D01*
X18956488Y-14641042D01*
X18966012Y-14650565D01*
X18975536Y-14669613D01*
X18975536Y-14726756D01*
X18966012Y-14745803D01*
X18956488Y-14755327D01*
X18937440Y-14764851D01*
X18899345Y-14764851D01*
X18880298Y-14755327D01*
X19089821Y-14764851D02*
X19070774Y-14755327D01*
X19061250Y-14736280D01*
X19061250Y-14564851D01*
X19251726Y-14764851D02*
X19251726Y-14660089D01*
X19242202Y-14641042D01*
X19223155Y-14631518D01*
X19185060Y-14631518D01*
X19166012Y-14641042D01*
X19251726Y-14755327D02*
X19232679Y-14764851D01*
X19185060Y-14764851D01*
X19166012Y-14755327D01*
X19156488Y-14736280D01*
X19156488Y-14717232D01*
X19166012Y-14698184D01*
X19185060Y-14688661D01*
X19232679Y-14688661D01*
X19251726Y-14679137D01*
X19318393Y-14631518D02*
X19394583Y-14631518D01*
X19346964Y-14564851D02*
X19346964Y-14736280D01*
X19356488Y-14755327D01*
X19375536Y-14764851D01*
X19394583Y-14764851D01*
X19537440Y-14755327D02*
X19518393Y-14764851D01*
X19480298Y-14764851D01*
X19461250Y-14755327D01*
X19451726Y-14736280D01*
X19451726Y-14660089D01*
X19461250Y-14641042D01*
X19480298Y-14631518D01*
X19518393Y-14631518D01*
X19537440Y-14641042D01*
X19546964Y-14660089D01*
X19546964Y-14679137D01*
X19451726Y-14698184D01*
X19718393Y-14764851D02*
X19718393Y-14564851D01*
X19718393Y-14755327D02*
X19699345Y-14764851D01*
X19661250Y-14764851D01*
X19642202Y-14755327D01*
X19632679Y-14745803D01*
X19623155Y-14726756D01*
X19623155Y-14669613D01*
X19632679Y-14650565D01*
X19642202Y-14641042D01*
X19661250Y-14631518D01*
X19699345Y-14631518D01*
X19718393Y-14641042D01*
X19794583Y-14841042D02*
X19804107Y-14831518D01*
X19823155Y-14802946D01*
X19832679Y-14783899D01*
X19842202Y-14755327D01*
X19851726Y-14707708D01*
X19851726Y-14669613D01*
X19842202Y-14621994D01*
X19832679Y-14593423D01*
X19823155Y-14574375D01*
X19804107Y-14545803D01*
X19794583Y-14536280D01*
M02*
