G04 #@! TF.GenerationSoftware,KiCad,Pcbnew,(6.0.9)*
G04 #@! TF.CreationDate,2023-04-02T22:45:38-05:00*
G04 #@! TF.ProjectId,Navigation Keys,4e617669-6761-4746-996f-6e204b657973,rev?*
G04 #@! TF.SameCoordinates,Original*
G04 #@! TF.FileFunction,Profile,NP*
%FSLAX46Y46*%
G04 Gerber Fmt 4.6, Leading zero omitted, Abs format (unit mm)*
G04 Created by KiCad (PCBNEW (6.0.9)) date 2023-04-02 22:45:38*
%MOMM*%
%LPD*%
G01*
G04 APERTURE LIST*
G04 #@! TA.AperFunction,Profile*
%ADD10C,0.150000*%
G04 #@! TD*
G04 #@! TA.AperFunction,Profile*
%ADD11C,0.100000*%
G04 #@! TD*
%ADD12C,0.150000*%
G04 APERTURE END LIST*
D10*
X126206250Y-134937500D02*
G75*
G03*
X128587500Y-137318750I2381250J0D01*
G01*
X218281250Y-63500000D02*
X218281250Y-134937500D01*
D11*
X133556250Y-133350000D02*
G75*
G03*
X133556250Y-133350000I-1000000J0D01*
G01*
D10*
X128587500Y-61118750D02*
G75*
G03*
X126206250Y-63500000I0J-2381250D01*
G01*
D11*
X192293750Y-103981250D02*
G75*
G03*
X192293750Y-103981250I-1000000J0D01*
G01*
X212931250Y-133350000D02*
G75*
G03*
X212931250Y-133350000I-1000000J0D01*
G01*
D10*
X215900000Y-137318750D02*
G75*
G03*
X218281250Y-134937500I0J2381250D01*
G01*
X126206250Y-63500000D02*
X126206250Y-134937500D01*
X215900000Y-61118750D02*
X128587500Y-61118750D01*
D11*
X154193750Y-115887500D02*
G75*
G03*
X154193750Y-115887500I-1000000J0D01*
G01*
X133556250Y-65087500D02*
G75*
G03*
X133556250Y-65087500I-1000000J0D01*
G01*
D10*
X218281250Y-63500000D02*
G75*
G03*
X215900000Y-61118750I-2381250J0D01*
G01*
X128587500Y-137318750D02*
X215900000Y-137318750D01*
D11*
X212931250Y-65087500D02*
G75*
G03*
X212931250Y-65087500I-1000000J0D01*
G01*
D12*
X149146130Y-111221130D02*
X148574702Y-111221130D01*
X148860416Y-111221130D02*
X148860416Y-110221130D01*
X148765178Y-110363988D01*
X148669940Y-110459226D01*
X148574702Y-110506845D01*
X149622321Y-111221130D02*
X149812797Y-111221130D01*
X149908035Y-111173511D01*
X149955654Y-111125892D01*
X150050892Y-110983035D01*
X150098511Y-110792559D01*
X150098511Y-110411607D01*
X150050892Y-110316369D01*
X150003273Y-110268750D01*
X149908035Y-110221130D01*
X149717559Y-110221130D01*
X149622321Y-110268750D01*
X149574702Y-110316369D01*
X149527083Y-110411607D01*
X149527083Y-110649702D01*
X149574702Y-110744940D01*
X149622321Y-110792559D01*
X149717559Y-110840178D01*
X149908035Y-110840178D01*
X150003273Y-110792559D01*
X150050892Y-110744940D01*
X150098511Y-110649702D01*
X150527083Y-111125892D02*
X150574702Y-111173511D01*
X150527083Y-111221130D01*
X150479464Y-111173511D01*
X150527083Y-111125892D01*
X150527083Y-111221130D01*
X151193750Y-110221130D02*
X151288988Y-110221130D01*
X151384226Y-110268750D01*
X151431845Y-110316369D01*
X151479464Y-110411607D01*
X151527083Y-110602083D01*
X151527083Y-110840178D01*
X151479464Y-111030654D01*
X151431845Y-111125892D01*
X151384226Y-111173511D01*
X151288988Y-111221130D01*
X151193750Y-111221130D01*
X151098511Y-111173511D01*
X151050892Y-111125892D01*
X151003273Y-111030654D01*
X150955654Y-110840178D01*
X150955654Y-110602083D01*
X151003273Y-110411607D01*
X151050892Y-110316369D01*
X151098511Y-110268750D01*
X151193750Y-110221130D01*
X152431845Y-110221130D02*
X151955654Y-110221130D01*
X151908035Y-110697321D01*
X151955654Y-110649702D01*
X152050892Y-110602083D01*
X152288988Y-110602083D01*
X152384226Y-110649702D01*
X152431845Y-110697321D01*
X152479464Y-110792559D01*
X152479464Y-111030654D01*
X152431845Y-111125892D01*
X152384226Y-111173511D01*
X152288988Y-111221130D01*
X152050892Y-111221130D01*
X151955654Y-111173511D01*
X151908035Y-111125892D01*
X153098511Y-110221130D02*
X153193750Y-110221130D01*
X153288988Y-110268750D01*
X153336607Y-110316369D01*
X153384226Y-110411607D01*
X153431845Y-110602083D01*
X153431845Y-110840178D01*
X153384226Y-111030654D01*
X153336607Y-111125892D01*
X153288988Y-111173511D01*
X153193750Y-111221130D01*
X153098511Y-111221130D01*
X153003273Y-111173511D01*
X152955654Y-111125892D01*
X152908035Y-111030654D01*
X152860416Y-110840178D01*
X152860416Y-110602083D01*
X152908035Y-110411607D01*
X152955654Y-110316369D01*
X153003273Y-110268750D01*
X153098511Y-110221130D01*
X154050892Y-110221130D02*
X154146130Y-110221130D01*
X154241369Y-110268750D01*
X154288988Y-110316369D01*
X154336607Y-110411607D01*
X154384226Y-110602083D01*
X154384226Y-110840178D01*
X154336607Y-111030654D01*
X154288988Y-111125892D01*
X154241369Y-111173511D01*
X154146130Y-111221130D01*
X154050892Y-111221130D01*
X153955654Y-111173511D01*
X153908035Y-111125892D01*
X153860416Y-111030654D01*
X153812797Y-110840178D01*
X153812797Y-110602083D01*
X153860416Y-110411607D01*
X153908035Y-110316369D01*
X153955654Y-110268750D01*
X154050892Y-110221130D01*
X155574702Y-111221130D02*
X155574702Y-110554464D01*
X155574702Y-110649702D02*
X155622321Y-110602083D01*
X155717559Y-110554464D01*
X155860416Y-110554464D01*
X155955654Y-110602083D01*
X156003273Y-110697321D01*
X156003273Y-111221130D01*
X156003273Y-110697321D02*
X156050892Y-110602083D01*
X156146130Y-110554464D01*
X156288988Y-110554464D01*
X156384226Y-110602083D01*
X156431845Y-110697321D01*
X156431845Y-111221130D01*
X156908035Y-111221130D02*
X156908035Y-110554464D01*
X156908035Y-110649702D02*
X156955654Y-110602083D01*
X157050892Y-110554464D01*
X157193750Y-110554464D01*
X157288988Y-110602083D01*
X157336607Y-110697321D01*
X157336607Y-111221130D01*
X157336607Y-110697321D02*
X157384226Y-110602083D01*
X157479464Y-110554464D01*
X157622321Y-110554464D01*
X157717559Y-110602083D01*
X157765178Y-110697321D01*
X157765178Y-111221130D01*
D11*
X162718750Y-117768750D02*
X162718750Y-111332330D01*
X143668750Y-117768750D02*
X143668750Y-111332330D01*
X162718750Y-111918750D02*
X143668750Y-111918750D01*
X162718750Y-111918750D02*
X143668750Y-111918750D01*
X162718750Y-111918750D02*
X161592246Y-111332329D01*
X162718750Y-111918750D02*
X161592246Y-112505171D01*
X143668750Y-111918750D02*
X144795254Y-112505171D01*
X143668750Y-111918750D02*
X144795254Y-111332329D01*
M02*
