%TF.GenerationSoftware,KiCad,Pcbnew,(6.0.9)*%
%TF.CreationDate,2023-01-13T15:25:33-06:00*%
%TF.ProjectId,Programmable Keys,50726f67-7261-46d6-9d61-626c65204b65,rev?*%
%TF.SameCoordinates,Original*%
%TF.FileFunction,Soldermask,Top*%
%TF.FilePolarity,Negative*%
%FSLAX46Y46*%
G04 Gerber Fmt 4.6, Leading zero omitted, Abs format (unit mm)*
G04 Created by KiCad (PCBNEW (6.0.9)) date 2023-01-13 15:25:33*
%MOMM*%
%LPD*%
G01*
G04 APERTURE LIST*
G04 Aperture macros list*
%AMRoundRect*
0 Rectangle with rounded corners*
0 $1 Rounding radius*
0 $2 $3 $4 $5 $6 $7 $8 $9 X,Y pos of 4 corners*
0 Add a 4 corners polygon primitive as box body*
4,1,4,$2,$3,$4,$5,$6,$7,$8,$9,$2,$3,0*
0 Add four circle primitives for the rounded corners*
1,1,$1+$1,$2,$3*
1,1,$1+$1,$4,$5*
1,1,$1+$1,$6,$7*
1,1,$1+$1,$8,$9*
0 Add four rect primitives between the rounded corners*
20,1,$1+$1,$2,$3,$4,$5,0*
20,1,$1+$1,$4,$5,$6,$7,0*
20,1,$1+$1,$6,$7,$8,$9,0*
20,1,$1+$1,$8,$9,$2,$3,0*%
G04 Aperture macros list end*
%ADD10C,1.750000*%
%ADD11C,3.987800*%
%ADD12R,1.200000X0.900000*%
%ADD13RoundRect,0.150000X-0.625000X0.150000X-0.625000X-0.150000X0.625000X-0.150000X0.625000X0.150000X0*%
%ADD14RoundRect,0.250000X-0.650000X0.350000X-0.650000X-0.350000X0.650000X-0.350000X0.650000X0.350000X0*%
%ADD15RoundRect,0.150000X0.625000X-0.150000X0.625000X0.150000X-0.625000X0.150000X-0.625000X-0.150000X0*%
%ADD16RoundRect,0.250000X0.650000X-0.350000X0.650000X0.350000X-0.650000X0.350000X-0.650000X-0.350000X0*%
G04 APERTURE END LIST*
D10*
%TO.C,MX8*%
X181451250Y-100012500D03*
D11*
X186531250Y-100012500D03*
D10*
X191611250Y-100012500D03*
%TD*%
D12*
%TO.C,D3*%
X175418750Y-101725000D03*
X175418750Y-98425000D03*
%TD*%
%TO.C,D9*%
X213518750Y-101725000D03*
X213518750Y-98425000D03*
%TD*%
%TO.C,D1*%
X175418750Y-63562500D03*
X175418750Y-60262500D03*
%TD*%
D11*
%TO.C,MX1*%
X167481250Y-61912500D03*
D10*
X162401250Y-61912500D03*
X172561250Y-61912500D03*
%TD*%
D12*
%TO.C,D4*%
X194468750Y-63562500D03*
X194468750Y-60262500D03*
%TD*%
%TO.C,D5*%
X194468750Y-82612500D03*
X194468750Y-79312500D03*
%TD*%
D13*
%TO.C,J2*%
X222662500Y-71462500D03*
X222662500Y-72462500D03*
X222662500Y-73462500D03*
X222662500Y-74462500D03*
X222662500Y-75462500D03*
X222662500Y-76462500D03*
X222662500Y-77462500D03*
X222662500Y-78462500D03*
X222662500Y-79462500D03*
X222662500Y-80462500D03*
X222662500Y-81462500D03*
X222662500Y-82462500D03*
X222662500Y-83462500D03*
X222662500Y-84462500D03*
X222662500Y-85462500D03*
X222662500Y-86462500D03*
X222662500Y-87462500D03*
X222662500Y-88462500D03*
X222662500Y-89462500D03*
X222662500Y-90462500D03*
D14*
X218787500Y-70162500D03*
X218787500Y-91762500D03*
%TD*%
D12*
%TO.C,D6*%
X194468750Y-101662500D03*
X194468750Y-98362500D03*
%TD*%
D11*
%TO.C,MX9*%
X205581250Y-100012500D03*
D10*
X200501250Y-100012500D03*
X210661250Y-100012500D03*
%TD*%
D11*
%TO.C,MX4*%
X167481250Y-80962500D03*
D10*
X162401250Y-80962500D03*
X172561250Y-80962500D03*
%TD*%
D15*
%TO.C,J1*%
X150400000Y-90462500D03*
X150400000Y-89462500D03*
X150400000Y-88462500D03*
X150400000Y-87462500D03*
X150400000Y-86462500D03*
X150400000Y-85462500D03*
X150400000Y-84462500D03*
X150400000Y-83462500D03*
X150400000Y-82462500D03*
X150400000Y-81462500D03*
X150400000Y-80462500D03*
X150400000Y-79462500D03*
X150400000Y-78462500D03*
X150400000Y-77462500D03*
X150400000Y-76462500D03*
X150400000Y-75462500D03*
X150400000Y-74462500D03*
X150400000Y-73462500D03*
X150400000Y-72462500D03*
X150400000Y-71462500D03*
D16*
X154275000Y-91762500D03*
X154275000Y-70162500D03*
%TD*%
D11*
%TO.C,MX3*%
X205581250Y-61912500D03*
D10*
X210661250Y-61912500D03*
X200501250Y-61912500D03*
%TD*%
D12*
%TO.C,D8*%
X213518750Y-82612500D03*
X213518750Y-79312500D03*
%TD*%
%TO.C,D7*%
X213518750Y-63562500D03*
X213518750Y-60262500D03*
%TD*%
D10*
%TO.C,MX7*%
X172561250Y-100012500D03*
D11*
X167481250Y-100012500D03*
D10*
X162401250Y-100012500D03*
%TD*%
%TO.C,MX2*%
X191611250Y-61912500D03*
D11*
X186531250Y-61912500D03*
D10*
X181451250Y-61912500D03*
%TD*%
D11*
%TO.C,MX6*%
X205581250Y-80962500D03*
D10*
X200501250Y-80962500D03*
X210661250Y-80962500D03*
%TD*%
%TO.C,MX5*%
X191611250Y-80962500D03*
X181451250Y-80962500D03*
D11*
X186531250Y-80962500D03*
%TD*%
D12*
%TO.C,D2*%
X175418750Y-82612500D03*
X175418750Y-79312500D03*
%TD*%
M02*
