%TF.GenerationSoftware,KiCad,Pcbnew,(6.0.9)*%
%TF.CreationDate,2023-03-10T16:46:27-06:00*%
%TF.ProjectId,Programmable Keys,50726f67-7261-46d6-9d61-626c65204b65,rev?*%
%TF.SameCoordinates,Original*%
%TF.FileFunction,Legend,Bot*%
%TF.FilePolarity,Positive*%
%FSLAX46Y46*%
G04 Gerber Fmt 4.6, Leading zero omitted, Abs format (unit mm)*
G04 Created by KiCad (PCBNEW (6.0.9)) date 2023-03-10 16:46:27*
%MOMM*%
%LPD*%
G01*
G04 APERTURE LIST*
G04 Aperture macros list*
%AMHorizOval*
0 Thick line with rounded ends*
0 $1 width*
0 $2 $3 position (X,Y) of the first rounded end (center of the circle)*
0 $4 $5 position (X,Y) of the second rounded end (center of the circle)*
0 Add line between two ends*
20,1,$1,$2,$3,$4,$5,0*
0 Add two circle primitives to create the rounded ends*
1,1,$1,$2,$3*
1,1,$1,$4,$5*%
G04 Aperture macros list end*
%ADD10C,1.750000*%
%ADD11C,3.987800*%
%ADD12C,2.250000*%
%ADD13HorizOval,2.250000X0.655001X0.730000X-0.655001X-0.730000X0*%
%ADD14HorizOval,2.250000X0.020000X0.290000X-0.020000X-0.290000X0*%
%ADD15R,1.700000X1.700000*%
%ADD16O,1.700000X1.700000*%
G04 APERTURE END LIST*
%LPC*%
D10*
%TO.C,MX8*%
X181451250Y-100012500D03*
D11*
X186531250Y-100012500D03*
D10*
X191611250Y-100012500D03*
D12*
X184031250Y-96012500D03*
D13*
X183376251Y-96742500D03*
D12*
X189071250Y-94932500D03*
D14*
X189051250Y-95222500D03*
%TD*%
D15*
%TO.C,J2*%
X222156250Y-69537500D03*
D16*
X224696250Y-69537500D03*
X222156250Y-72077500D03*
X224696250Y-72077500D03*
X222156250Y-74617500D03*
X224696250Y-74617500D03*
X222156250Y-77157500D03*
X224696250Y-77157500D03*
X222156250Y-79697500D03*
X224696250Y-79697500D03*
X222156250Y-82237500D03*
X224696250Y-82237500D03*
X222156250Y-84777500D03*
X224696250Y-84777500D03*
X222156250Y-87317500D03*
X224696250Y-87317500D03*
X222156250Y-89857500D03*
X224696250Y-89857500D03*
X222156250Y-92397500D03*
X224696250Y-92397500D03*
%TD*%
D11*
%TO.C,MX1*%
X167481250Y-61912500D03*
D10*
X162401250Y-61912500D03*
X172561250Y-61912500D03*
D12*
X164981250Y-57912500D03*
D13*
X164326251Y-58642500D03*
D12*
X170021250Y-56832500D03*
D14*
X170001250Y-57122500D03*
%TD*%
D11*
%TO.C,MX9*%
X205581250Y-100012500D03*
D10*
X200501250Y-100012500D03*
X210661250Y-100012500D03*
D12*
X203081250Y-96012500D03*
D13*
X202426251Y-96742500D03*
D14*
X208101250Y-95222500D03*
D12*
X208121250Y-94932500D03*
%TD*%
D11*
%TO.C,MX4*%
X167481250Y-80962500D03*
D10*
X162401250Y-80962500D03*
X172561250Y-80962500D03*
D12*
X164981250Y-76962500D03*
D13*
X164326251Y-77692500D03*
D12*
X170021250Y-75882500D03*
D14*
X170001250Y-76172500D03*
%TD*%
D11*
%TO.C,MX3*%
X205581250Y-61912500D03*
D10*
X210661250Y-61912500D03*
X200501250Y-61912500D03*
D13*
X202426251Y-58642500D03*
D12*
X203081250Y-57912500D03*
X208121250Y-56832500D03*
D14*
X208101250Y-57122500D03*
%TD*%
D15*
%TO.C,J1*%
X151675000Y-69512500D03*
D16*
X149135000Y-69512500D03*
X151675000Y-72052500D03*
X149135000Y-72052500D03*
X151675000Y-74592500D03*
X149135000Y-74592500D03*
X151675000Y-77132500D03*
X149135000Y-77132500D03*
X151675000Y-79672500D03*
X149135000Y-79672500D03*
X151675000Y-82212500D03*
X149135000Y-82212500D03*
X151675000Y-84752500D03*
X149135000Y-84752500D03*
X151675000Y-87292500D03*
X149135000Y-87292500D03*
X151675000Y-89832500D03*
X149135000Y-89832500D03*
X151675000Y-92372500D03*
X149135000Y-92372500D03*
%TD*%
D10*
%TO.C,MX7*%
X172561250Y-100012500D03*
D11*
X167481250Y-100012500D03*
D10*
X162401250Y-100012500D03*
D12*
X164981250Y-96012500D03*
D13*
X164326251Y-96742500D03*
D14*
X170001250Y-95222500D03*
D12*
X170021250Y-94932500D03*
%TD*%
D10*
%TO.C,MX2*%
X191611250Y-61912500D03*
D11*
X186531250Y-61912500D03*
D10*
X181451250Y-61912500D03*
D13*
X183376251Y-58642500D03*
D12*
X184031250Y-57912500D03*
D14*
X189051250Y-57122500D03*
D12*
X189071250Y-56832500D03*
%TD*%
D11*
%TO.C,MX6*%
X205581250Y-80962500D03*
D10*
X200501250Y-80962500D03*
X210661250Y-80962500D03*
D12*
X203081250Y-76962500D03*
D13*
X202426251Y-77692500D03*
D12*
X208121250Y-75882500D03*
D14*
X208101250Y-76172500D03*
%TD*%
D10*
%TO.C,MX5*%
X191611250Y-80962500D03*
X181451250Y-80962500D03*
D11*
X186531250Y-80962500D03*
D12*
X184031250Y-76962500D03*
D13*
X183376251Y-77692500D03*
D12*
X189071250Y-75882500D03*
D14*
X189051250Y-76172500D03*
%TD*%
M02*
