%TF.GenerationSoftware,KiCad,Pcbnew,(6.0.9)*%
%TF.CreationDate,2023-01-13T15:25:33-06:00*%
%TF.ProjectId,Programmable Keys,50726f67-7261-46d6-9d61-626c65204b65,rev?*%
%TF.SameCoordinates,Original*%
%TF.FileFunction,Copper,L2,Bot*%
%TF.FilePolarity,Positive*%
%FSLAX46Y46*%
G04 Gerber Fmt 4.6, Leading zero omitted, Abs format (unit mm)*
G04 Created by KiCad (PCBNEW (6.0.9)) date 2023-01-13 15:25:33*
%MOMM*%
%LPD*%
G01*
G04 APERTURE LIST*
G04 Aperture macros list*
%AMHorizOval*
0 Thick line with rounded ends*
0 $1 width*
0 $2 $3 position (X,Y) of the first rounded end (center of the circle)*
0 $4 $5 position (X,Y) of the second rounded end (center of the circle)*
0 Add line between two ends*
20,1,$1,$2,$3,$4,$5,0*
0 Add two circle primitives to create the rounded ends*
1,1,$1,$2,$3*
1,1,$1,$4,$5*%
G04 Aperture macros list end*
%TA.AperFunction,ComponentPad*%
%ADD10C,2.250000*%
%TD*%
%TA.AperFunction,ComponentPad*%
%ADD11HorizOval,2.250000X0.655001X0.730000X-0.655001X-0.730000X0*%
%TD*%
%TA.AperFunction,ComponentPad*%
%ADD12HorizOval,2.250000X0.020000X0.290000X-0.020000X-0.290000X0*%
%TD*%
%TA.AperFunction,ViaPad*%
%ADD13C,0.800000*%
%TD*%
%TA.AperFunction,Conductor*%
%ADD14C,0.250000*%
%TD*%
G04 APERTURE END LIST*
D10*
%TO.P,MX8,1,COL*%
%TO.N,COL9*%
X184031250Y-96012500D03*
D11*
X183376251Y-96742500D03*
D10*
%TO.P,MX8,2,ROW*%
%TO.N,Net-(D6-Pad2)*%
X189071250Y-94932500D03*
D12*
X189051250Y-95222500D03*
%TD*%
D10*
%TO.P,MX1,1,COL*%
%TO.N,COL8*%
X164981250Y-57912500D03*
D11*
X164326251Y-58642500D03*
D10*
%TO.P,MX1,2,ROW*%
%TO.N,Net-(D1-Pad2)*%
X170021250Y-56832500D03*
D12*
X170001250Y-57122500D03*
%TD*%
D10*
%TO.P,MX9,1,COL*%
%TO.N,COL10*%
X203081250Y-96012500D03*
D11*
X202426251Y-96742500D03*
D12*
%TO.P,MX9,2,ROW*%
%TO.N,Net-(D9-Pad2)*%
X208101250Y-95222500D03*
D10*
X208121250Y-94932500D03*
%TD*%
%TO.P,MX4,1,COL*%
%TO.N,COL8*%
X164981250Y-76962500D03*
D11*
X164326251Y-77692500D03*
D10*
%TO.P,MX4,2,ROW*%
%TO.N,Net-(D2-Pad2)*%
X170021250Y-75882500D03*
D12*
X170001250Y-76172500D03*
%TD*%
D11*
%TO.P,MX3,1,COL*%
%TO.N,COL10*%
X202426251Y-58642500D03*
D10*
X203081250Y-57912500D03*
%TO.P,MX3,2,ROW*%
%TO.N,Net-(D7-Pad2)*%
X208121250Y-56832500D03*
D12*
X208101250Y-57122500D03*
%TD*%
D10*
%TO.P,MX7,1,COL*%
%TO.N,COL8*%
X164981250Y-96012500D03*
D11*
X164326251Y-96742500D03*
D12*
%TO.P,MX7,2,ROW*%
%TO.N,Net-(D3-Pad2)*%
X170001250Y-95222500D03*
D10*
X170021250Y-94932500D03*
%TD*%
D11*
%TO.P,MX2,1,COL*%
%TO.N,COL9*%
X183376251Y-58642500D03*
D10*
X184031250Y-57912500D03*
D12*
%TO.P,MX2,2,ROW*%
%TO.N,Net-(D4-Pad2)*%
X189051250Y-57122500D03*
D10*
X189071250Y-56832500D03*
%TD*%
%TO.P,MX6,1,COL*%
%TO.N,COL10*%
X203081250Y-76962500D03*
D11*
X202426251Y-77692500D03*
D10*
%TO.P,MX6,2,ROW*%
%TO.N,Net-(D8-Pad2)*%
X208121250Y-75882500D03*
D12*
X208101250Y-76172500D03*
%TD*%
D10*
%TO.P,MX5,1,COL*%
%TO.N,COL9*%
X184031250Y-76962500D03*
D11*
X183376251Y-77692500D03*
D10*
%TO.P,MX5,2,ROW*%
%TO.N,Net-(D5-Pad2)*%
X189071250Y-75882500D03*
D12*
X189051250Y-76172500D03*
%TD*%
D13*
%TO.N,ROW5*%
X160528000Y-77187000D03*
X220853000Y-84455000D03*
X215392000Y-66421000D03*
X164973000Y-70358000D03*
X181768750Y-65881250D03*
X200818750Y-65881250D03*
X203200000Y-65881250D03*
X184150000Y-65881250D03*
%TO.N,ROW6*%
X162946750Y-76327000D03*
X213463951Y-84723451D03*
X200025000Y-84931250D03*
X180975000Y-84931250D03*
X220099500Y-85462500D03*
X166751000Y-76200000D03*
X184150000Y-84931250D03*
X203200000Y-84931250D03*
%TO.N,ROW7*%
X221298581Y-90187000D03*
X221361000Y-86614000D03*
%TO.N,VCC*%
X183769000Y-92202000D03*
X181864000Y-92202000D03*
X162941000Y-92202000D03*
X201046750Y-92202000D03*
X221361000Y-72738000D03*
X216662000Y-92202000D03*
X164395750Y-92202000D03*
X202565000Y-92202000D03*
%TO.N,COL3*%
X201046750Y-88773000D03*
X162941000Y-88773000D03*
X218318839Y-81919866D03*
X218694000Y-76581000D03*
X202495750Y-88773000D03*
X183445750Y-88773000D03*
X164395750Y-88773000D03*
X181991000Y-88773000D03*
%TO.N,COL4*%
X203581000Y-88011000D03*
X217551000Y-81280000D03*
X217805000Y-77597000D03*
X200025000Y-87973500D03*
X184277000Y-87973500D03*
X165189500Y-87973500D03*
X181096161Y-87973500D03*
X161671000Y-87973500D03*
%TO.N,GND*%
X203212723Y-91342687D03*
X183642000Y-74295000D03*
X162814000Y-72136000D03*
X181864000Y-74295000D03*
X196088000Y-83947000D03*
X164719000Y-72136000D03*
%TO.N,COL5*%
X216667839Y-82046866D03*
X164465000Y-87249000D03*
X162687000Y-87249000D03*
X181864000Y-87249000D03*
X183445750Y-87249000D03*
X202692000Y-87249000D03*
X201041000Y-87249000D03*
X216789000Y-78613000D03*
%TO.N,COL6*%
X215921093Y-79738000D03*
X165481000Y-86449500D03*
X199898000Y-86449500D03*
X203454000Y-86487000D03*
X184531000Y-86487000D03*
X181102000Y-86449500D03*
X161925000Y-86360000D03*
X215900000Y-81407000D03*
%TO.N,COL0*%
X161925000Y-91186000D03*
X197866000Y-91148500D03*
X212217000Y-75311000D03*
X184404000Y-91186000D03*
X203200000Y-83931747D03*
X165354000Y-91186000D03*
X212090000Y-77724000D03*
X180848000Y-91148500D03*
%TO.N,COL1*%
X221511273Y-74187000D03*
X202819000Y-90424000D03*
X201041000Y-90424000D03*
X183445750Y-90424000D03*
X164465000Y-90424000D03*
X216403701Y-90419701D03*
X181996750Y-90424000D03*
X162814000Y-90424000D03*
%TO.N,COL2*%
X219583000Y-75738000D03*
X219329000Y-81187000D03*
X184277000Y-89535000D03*
X165354000Y-89497500D03*
X203581000Y-89535000D03*
X199898000Y-89535000D03*
X180975000Y-89535000D03*
X162052000Y-89497500D03*
%TO.N,COL7*%
X181864000Y-85725000D03*
X183515000Y-85725000D03*
X200914000Y-85725000D03*
X162814000Y-85598000D03*
X202495750Y-85725000D03*
X164592000Y-85598000D03*
%TO.N,COL8*%
X200914000Y-67945000D03*
X159893000Y-80645000D03*
X177292000Y-67945000D03*
X181991000Y-67945000D03*
X175124400Y-67945000D03*
X220346667Y-81187000D03*
X213419200Y-73084200D03*
X161760500Y-83820000D03*
X202692000Y-67945000D03*
X183769000Y-67945000D03*
%TO.N,COL9*%
X200784305Y-66880159D03*
X202565000Y-66802000D03*
X164973000Y-68834000D03*
X221234000Y-82187000D03*
X176530000Y-68834000D03*
X173990000Y-68871500D03*
X214376000Y-72738000D03*
X158623000Y-79187000D03*
%TO.N,COL10*%
X173101000Y-69596000D03*
X159720638Y-78187000D03*
X181996750Y-69596000D03*
X220053500Y-83312000D03*
X211323701Y-83222500D03*
X183445750Y-69596000D03*
X175518299Y-69600299D03*
X165862000Y-69596000D03*
%TO.N,ROW8*%
X217805000Y-88646000D03*
X199879000Y-82460500D03*
X183445750Y-72808500D03*
X181991000Y-72808500D03*
X165481000Y-71374000D03*
X161544000Y-74187000D03*
%TO.N,ROW9*%
X197358000Y-83185000D03*
X184531000Y-73570500D03*
X180721000Y-73533000D03*
X162814000Y-73533000D03*
X218694000Y-89662000D03*
X167072800Y-73465200D03*
%TO.N,+5V*%
X200914000Y-93472000D03*
X181864000Y-93472000D03*
X162433000Y-93472000D03*
X222377000Y-93472000D03*
X183642000Y-93472000D03*
X202692000Y-93472000D03*
X219329000Y-93472000D03*
X164592000Y-93472000D03*
%TD*%
D14*
%TO.N,ROW5*%
X210439000Y-76199232D02*
X210439000Y-69088000D01*
X214757000Y-84455000D02*
X214300451Y-83998451D01*
X184150000Y-65881250D02*
X181768750Y-65881250D01*
X161290000Y-70993000D02*
X161925000Y-70358000D01*
X209411249Y-83808249D02*
X209411249Y-77226983D01*
X209804000Y-84201000D02*
X209411249Y-83808249D01*
X214757000Y-68580000D02*
X215392000Y-67945000D01*
X165227000Y-70358000D02*
X164973000Y-70358000D01*
X203200000Y-65881250D02*
X200818750Y-65881250D01*
X160528000Y-77187000D02*
X160528000Y-71755000D01*
X209411249Y-77226983D02*
X210439000Y-76199232D01*
X212673549Y-83998451D02*
X212471000Y-84201000D01*
X210439000Y-69088000D02*
X210947000Y-68580000D01*
X220853000Y-84455000D02*
X214757000Y-84455000D01*
X160528000Y-71755000D02*
X161290000Y-70993000D01*
X214300451Y-83998451D02*
X212673549Y-83998451D01*
X210947000Y-68580000D02*
X214757000Y-68580000D01*
X161925000Y-70358000D02*
X164973000Y-70358000D01*
X212471000Y-84201000D02*
X209804000Y-84201000D01*
X215392000Y-67945000D02*
X215392000Y-66421000D01*
%TO.N,ROW6*%
X166751000Y-75946000D02*
X166751000Y-76200000D01*
X165989000Y-75184000D02*
X166116000Y-75311000D01*
X162946750Y-76327000D02*
X163957000Y-75316750D01*
X203200000Y-84931250D02*
X200025000Y-84931250D01*
X166116000Y-75311000D02*
X166751000Y-75946000D01*
X163957000Y-75316750D02*
X163957000Y-75184000D01*
X214203000Y-85462500D02*
X213463951Y-84723451D01*
X163957000Y-75184000D02*
X165989000Y-75184000D01*
X220099500Y-85462500D02*
X214203000Y-85462500D01*
X184150000Y-84931250D02*
X180975000Y-84931250D01*
%TO.N,ROW7*%
X221315581Y-90170000D02*
X221298581Y-90187000D01*
X221361000Y-86614000D02*
X221361000Y-90170000D01*
X221361000Y-90170000D02*
X221315581Y-90170000D01*
%TO.N,VCC*%
X181864000Y-92202000D02*
X183769000Y-92202000D01*
X223520000Y-91821000D02*
X223139000Y-92202000D01*
X221361000Y-72738000D02*
X221775000Y-73152000D01*
X162941000Y-92202000D02*
X164395750Y-92202000D01*
X221775000Y-73152000D02*
X223520000Y-73152000D01*
X223139000Y-92202000D02*
X216662000Y-92202000D01*
X223520000Y-73152000D02*
X223520000Y-91821000D01*
X201046750Y-92202000D02*
X202565000Y-92202000D01*
%TO.N,COL3*%
X218694000Y-77851000D02*
X218694000Y-76581000D01*
X201046750Y-88773000D02*
X202495750Y-88773000D01*
X218318839Y-78237839D02*
X218318839Y-78226161D01*
X218318839Y-78226161D02*
X218694000Y-77851000D01*
X218318839Y-81919866D02*
X218318839Y-78237839D01*
X218318839Y-78237839D02*
X218313000Y-78232000D01*
X181991000Y-88773000D02*
X183445750Y-88773000D01*
X162941000Y-88773000D02*
X164395750Y-88773000D01*
%TO.N,COL4*%
X203543500Y-87973500D02*
X203581000Y-88011000D01*
X181096161Y-87973500D02*
X184277000Y-87973500D01*
X161671000Y-87973500D02*
X165189500Y-87973500D01*
X200025000Y-87973500D02*
X203543500Y-87973500D01*
X217551000Y-77851000D02*
X217805000Y-77597000D01*
X217551000Y-81280000D02*
X217551000Y-77851000D01*
%TO.N,GND*%
X196088000Y-91313000D02*
X196088000Y-83947000D01*
X183642000Y-74295000D02*
X181864000Y-74295000D01*
X200122313Y-91342687D02*
X203212723Y-91342687D01*
X200122313Y-91342687D02*
X199517000Y-91948000D01*
X164719000Y-72136000D02*
X162814000Y-72136000D01*
X196723000Y-91948000D02*
X196088000Y-91313000D01*
X199517000Y-91948000D02*
X196723000Y-91948000D01*
%TO.N,COL5*%
X162687000Y-87249000D02*
X164465000Y-87249000D01*
X181864000Y-87249000D02*
X183445750Y-87249000D01*
X216667839Y-78734161D02*
X216789000Y-78613000D01*
X201041000Y-87249000D02*
X202692000Y-87249000D01*
X216667839Y-82046866D02*
X216667839Y-78734161D01*
%TO.N,COL6*%
X184493500Y-86449500D02*
X184531000Y-86487000D01*
X215900000Y-79759093D02*
X215900000Y-81407000D01*
X181102000Y-86449500D02*
X184493500Y-86449500D01*
X199935500Y-86487000D02*
X203454000Y-86487000D01*
X161925000Y-86360000D02*
X165391500Y-86360000D01*
X165391500Y-86360000D02*
X165481000Y-86449500D01*
X215921093Y-79738000D02*
X215900000Y-79759093D01*
X199898000Y-86449500D02*
X199935500Y-86487000D01*
%TO.N,COL0*%
X212090000Y-77724000D02*
X212090000Y-75438000D01*
X161925000Y-91186000D02*
X165354000Y-91186000D01*
X180848000Y-91148500D02*
X180885500Y-91186000D01*
X212090000Y-75438000D02*
X212217000Y-75311000D01*
X203200000Y-83947000D02*
X203200000Y-83931747D01*
X198374000Y-83947000D02*
X197866000Y-84455000D01*
X180885500Y-91186000D02*
X184404000Y-91186000D01*
X203200000Y-83931747D02*
X203184747Y-83947000D01*
X203184747Y-83947000D02*
X198374000Y-83947000D01*
X197866000Y-84455000D02*
X197866000Y-91148500D01*
%TO.N,COL1*%
X216403701Y-90419701D02*
X216916000Y-90932000D01*
X162814000Y-90424000D02*
X164465000Y-90424000D01*
X201041000Y-90424000D02*
X202819000Y-90424000D01*
X221511273Y-74187000D02*
X221657273Y-74041000D01*
X221869000Y-90932000D02*
X222631000Y-90170000D01*
X223070000Y-74041000D02*
X223070000Y-89731000D01*
X222377000Y-90424000D02*
X222631000Y-90170000D01*
X216916000Y-90932000D02*
X221869000Y-90932000D01*
X223070000Y-89731000D02*
X222631000Y-90170000D01*
X221657273Y-74041000D02*
X223070000Y-74041000D01*
X181996750Y-90424000D02*
X183445750Y-90424000D01*
%TO.N,COL2*%
X180975000Y-89535000D02*
X184277000Y-89535000D01*
X219329000Y-81187000D02*
X219329000Y-77724000D01*
X162052000Y-89497500D02*
X165354000Y-89497500D01*
X199898000Y-89535000D02*
X203581000Y-89535000D01*
X219329000Y-77724000D02*
X219583000Y-77470000D01*
X219583000Y-77470000D02*
X219583000Y-75738000D01*
%TO.N,COL7*%
X202495750Y-85725000D02*
X200914000Y-85725000D01*
X164592000Y-85598000D02*
X162814000Y-85598000D01*
X183515000Y-85725000D02*
X181864000Y-85725000D01*
%TO.N,COL8*%
X220345000Y-75057000D02*
X220218000Y-74930000D01*
X159893000Y-80645000D02*
X160528000Y-81280000D01*
X219837000Y-74930000D02*
X218694000Y-74930000D01*
X213487000Y-73279000D02*
X213487000Y-73152000D01*
X213487000Y-73152000D02*
X213419200Y-73084200D01*
X218694000Y-74930000D02*
X214249000Y-74930000D01*
X220345000Y-81185333D02*
X220345000Y-75057000D01*
X160528000Y-83185000D02*
X161163000Y-83820000D01*
X160528000Y-81280000D02*
X160528000Y-83185000D01*
X161163000Y-83820000D02*
X161760500Y-83820000D01*
X177292000Y-67945000D02*
X175124400Y-67945000D01*
X202692000Y-67945000D02*
X200914000Y-67945000D01*
X213995000Y-74676000D02*
X213487000Y-74168000D01*
X220218000Y-74930000D02*
X219837000Y-74930000D01*
X183769000Y-67945000D02*
X181991000Y-67945000D01*
X213487000Y-74168000D02*
X213487000Y-73279000D01*
X214249000Y-74930000D02*
X213995000Y-74676000D01*
X220346667Y-81187000D02*
X220345000Y-81185333D01*
%TO.N,COL9*%
X200862464Y-66802000D02*
X200784305Y-66880159D01*
X161290000Y-68834000D02*
X164973000Y-68834000D01*
X214376000Y-73787000D02*
X215011000Y-74422000D01*
X215011000Y-74422000D02*
X220599000Y-74422000D01*
X174027500Y-68834000D02*
X176530000Y-68834000D01*
X220599000Y-74422000D02*
X221234000Y-75057000D01*
X214376000Y-72738000D02*
X214376000Y-73787000D01*
X161163000Y-68961000D02*
X161290000Y-68834000D01*
X158623000Y-71501000D02*
X161163000Y-68961000D01*
X221234000Y-75057000D02*
X221234000Y-82187000D01*
X158623000Y-79187000D02*
X158623000Y-71501000D01*
X202565000Y-66802000D02*
X200862464Y-66802000D01*
X173990000Y-68871500D02*
X174027500Y-68834000D01*
%TO.N,COL10*%
X181996750Y-69596000D02*
X183445750Y-69596000D01*
X160020000Y-71120000D02*
X161290000Y-69850000D01*
X173101000Y-69596000D02*
X175387000Y-69596000D01*
X161544000Y-69596000D02*
X165862000Y-69596000D01*
X159803000Y-71337000D02*
X160020000Y-71120000D01*
X159720638Y-78187000D02*
X159803000Y-78104638D01*
X211328000Y-83226799D02*
X211323701Y-83222500D01*
X211328000Y-83312000D02*
X211328000Y-83226799D01*
X161290000Y-69850000D02*
X161544000Y-69596000D01*
X220053500Y-83312000D02*
X211328000Y-83312000D01*
X159803000Y-78104638D02*
X159803000Y-71337000D01*
%TO.N,ROW8*%
X161544000Y-74168000D02*
X161544000Y-74187000D01*
X161798000Y-71755000D02*
X161798000Y-73914000D01*
X162179000Y-71374000D02*
X161798000Y-71755000D01*
X161798000Y-73914000D02*
X161544000Y-74168000D01*
X205613000Y-84582000D02*
X203581000Y-82550000D01*
X203581000Y-82550000D02*
X200533000Y-82550000D01*
X165481000Y-71374000D02*
X162179000Y-71374000D01*
X217805000Y-88646000D02*
X206375000Y-88646000D01*
X183445750Y-72808500D02*
X181991000Y-72808500D01*
X206375000Y-88646000D02*
X205613000Y-87884000D01*
X200533000Y-82550000D02*
X199968500Y-82550000D01*
X199968500Y-82550000D02*
X199879000Y-82460500D01*
X205613000Y-87884000D02*
X205613000Y-84582000D01*
%TO.N,ROW9*%
X205994000Y-89535000D02*
X218694000Y-89535000D01*
X204978000Y-84963000D02*
X204978000Y-88519000D01*
X184493500Y-73533000D02*
X184531000Y-73570500D01*
X204978000Y-88519000D02*
X205994000Y-89535000D01*
X162814000Y-73533000D02*
X167005000Y-73533000D01*
X167005000Y-73533000D02*
X167072800Y-73465200D01*
X218694000Y-89535000D02*
X218694000Y-89662000D01*
X180721000Y-73533000D02*
X184493500Y-73533000D01*
X203478558Y-83185000D02*
X204978000Y-84684442D01*
X203454000Y-83185000D02*
X203478558Y-83185000D01*
X204978000Y-84684442D02*
X204978000Y-84963000D01*
X202819000Y-83185000D02*
X203454000Y-83185000D01*
X197358000Y-83185000D02*
X202819000Y-83185000D01*
%TO.N,+5V*%
X164592000Y-93472000D02*
X162433000Y-93472000D01*
X183642000Y-93472000D02*
X181864000Y-93472000D01*
X202692000Y-93472000D02*
X200914000Y-93472000D01*
X222377000Y-93472000D02*
X219329000Y-93472000D01*
%TD*%
M02*
