%TF.GenerationSoftware,KiCad,Pcbnew,(6.0.9)*%
%TF.CreationDate,2023-01-13T15:25:53-06:00*%
%TF.ProjectId,Programmable Keys,50726f67-7261-46d6-9d61-626c65204b65,rev?*%
%TF.SameCoordinates,Original*%
%TF.FileFunction,Drillmap*%
%TF.FilePolarity,Positive*%
%FSLAX45Y45*%
G04 Gerber Fmt 4.5, Leading zero omitted, Abs format (unit mm)*
G04 Created by KiCad (PCBNEW (6.0.9)) date 2023-01-13 15:25:53*
%MOMM*%
%LPD*%
G01*
G04 APERTURE LIST*
%ADD10C,0.150000*%
%ADD11C,0.200000*%
%ADD12C,0.175000*%
%ADD13C,0.398780*%
G04 APERTURE END LIST*
D10*
X22463125Y-5476875D02*
X22463125Y-10715625D01*
X14843120Y-10715625D02*
G75*
G03*
X15081250Y-10953750I238130J5D01*
G01*
X15081250Y-5238750D02*
X22225000Y-5238750D01*
X22225000Y-10953745D02*
G75*
G03*
X22463125Y-10715625I0J238125D01*
G01*
X15081250Y-10953750D02*
X22225000Y-10953750D01*
X22463130Y-5476875D02*
G75*
G03*
X22225000Y-5238750I-238130J-5D01*
G01*
X14843125Y-10715625D02*
X14843125Y-5476875D01*
X15081250Y-5238755D02*
G75*
G03*
X14843125Y-5476875I0J-238125D01*
G01*
D11*
D12*
X16152625Y-6103750D02*
X16327625Y-6278750D01*
X16327625Y-6103750D02*
X16152625Y-6278750D01*
X16152625Y-8008750D02*
X16327625Y-8183750D01*
X16327625Y-8008750D02*
X16152625Y-8183750D01*
X16152625Y-9913750D02*
X16327625Y-10088750D01*
X16327625Y-9913750D02*
X16152625Y-10088750D01*
X17168625Y-6103750D02*
X17343625Y-6278750D01*
X17343625Y-6103750D02*
X17168625Y-6278750D01*
X17168625Y-8008750D02*
X17343625Y-8183750D01*
X17343625Y-8008750D02*
X17168625Y-8183750D01*
X17168625Y-9913750D02*
X17343625Y-10088750D01*
X17343625Y-9913750D02*
X17168625Y-10088750D01*
X18057625Y-6103750D02*
X18232625Y-6278750D01*
X18232625Y-6103750D02*
X18057625Y-6278750D01*
X18057625Y-8008750D02*
X18232625Y-8183750D01*
X18232625Y-8008750D02*
X18057625Y-8183750D01*
X18057625Y-9913750D02*
X18232625Y-10088750D01*
X18232625Y-9913750D02*
X18057625Y-10088750D01*
X19073625Y-6103750D02*
X19248625Y-6278750D01*
X19248625Y-6103750D02*
X19073625Y-6278750D01*
X19073625Y-8008750D02*
X19248625Y-8183750D01*
X19248625Y-8008750D02*
X19073625Y-8183750D01*
X19073625Y-9913750D02*
X19248625Y-10088750D01*
X19248625Y-9913750D02*
X19073625Y-10088750D01*
X19962625Y-6103750D02*
X20137625Y-6278750D01*
X20137625Y-6103750D02*
X19962625Y-6278750D01*
X19962625Y-8008750D02*
X20137625Y-8183750D01*
X20137625Y-8008750D02*
X19962625Y-8183750D01*
X19962625Y-9913750D02*
X20137625Y-10088750D01*
X20137625Y-9913750D02*
X19962625Y-10088750D01*
X20978625Y-6103750D02*
X21153625Y-6278750D01*
X21153625Y-6103750D02*
X20978625Y-6278750D01*
X20978625Y-8008750D02*
X21153625Y-8183750D01*
X21153625Y-8008750D02*
X20978625Y-8183750D01*
X20978625Y-9913750D02*
X21153625Y-10088750D01*
X21153625Y-9913750D02*
X20978625Y-10088750D01*
D13*
X16947515Y-6191250D02*
G75*
G03*
X16947515Y-6191250I-199390J0D01*
G01*
X16947515Y-8096250D02*
G75*
G03*
X16947515Y-8096250I-199390J0D01*
G01*
X16947515Y-10001250D02*
G75*
G03*
X16947515Y-10001250I-199390J0D01*
G01*
X18852515Y-6191250D02*
G75*
G03*
X18852515Y-6191250I-199390J0D01*
G01*
X18852515Y-8096250D02*
G75*
G03*
X18852515Y-8096250I-199390J0D01*
G01*
X18852515Y-10001250D02*
G75*
G03*
X18852515Y-10001250I-199390J0D01*
G01*
X20757515Y-6191250D02*
G75*
G03*
X20757515Y-6191250I-199390J0D01*
G01*
X20757515Y-8096250D02*
G75*
G03*
X20757515Y-8096250I-199390J0D01*
G01*
X20757515Y-10001250D02*
G75*
G03*
X20757515Y-10001250I-199390J0D01*
G01*
D11*
X15093244Y-11271726D02*
X15093244Y-11071726D01*
X15140863Y-11071726D01*
X15169434Y-11081250D01*
X15188482Y-11100298D01*
X15198006Y-11119345D01*
X15207530Y-11157440D01*
X15207530Y-11186012D01*
X15198006Y-11224107D01*
X15188482Y-11243155D01*
X15169434Y-11262202D01*
X15140863Y-11271726D01*
X15093244Y-11271726D01*
X15293244Y-11271726D02*
X15293244Y-11138393D01*
X15293244Y-11176488D02*
X15302768Y-11157440D01*
X15312292Y-11147917D01*
X15331339Y-11138393D01*
X15350387Y-11138393D01*
X15417053Y-11271726D02*
X15417053Y-11138393D01*
X15417053Y-11071726D02*
X15407530Y-11081250D01*
X15417053Y-11090774D01*
X15426577Y-11081250D01*
X15417053Y-11071726D01*
X15417053Y-11090774D01*
X15540863Y-11271726D02*
X15521815Y-11262202D01*
X15512292Y-11243155D01*
X15512292Y-11071726D01*
X15645625Y-11271726D02*
X15626577Y-11262202D01*
X15617053Y-11243155D01*
X15617053Y-11071726D01*
X15874196Y-11271726D02*
X15874196Y-11071726D01*
X15940863Y-11214583D01*
X16007530Y-11071726D01*
X16007530Y-11271726D01*
X16188482Y-11271726D02*
X16188482Y-11166964D01*
X16178958Y-11147917D01*
X16159911Y-11138393D01*
X16121815Y-11138393D01*
X16102768Y-11147917D01*
X16188482Y-11262202D02*
X16169434Y-11271726D01*
X16121815Y-11271726D01*
X16102768Y-11262202D01*
X16093244Y-11243155D01*
X16093244Y-11224107D01*
X16102768Y-11205059D01*
X16121815Y-11195536D01*
X16169434Y-11195536D01*
X16188482Y-11186012D01*
X16283720Y-11138393D02*
X16283720Y-11338393D01*
X16283720Y-11147917D02*
X16302768Y-11138393D01*
X16340863Y-11138393D01*
X16359911Y-11147917D01*
X16369434Y-11157440D01*
X16378958Y-11176488D01*
X16378958Y-11233631D01*
X16369434Y-11252678D01*
X16359911Y-11262202D01*
X16340863Y-11271726D01*
X16302768Y-11271726D01*
X16283720Y-11262202D01*
X16464673Y-11252678D02*
X16474196Y-11262202D01*
X16464673Y-11271726D01*
X16455149Y-11262202D01*
X16464673Y-11252678D01*
X16464673Y-11271726D01*
X16464673Y-11147917D02*
X16474196Y-11157440D01*
X16464673Y-11166964D01*
X16455149Y-11157440D01*
X16464673Y-11147917D01*
X16464673Y-11166964D01*
D12*
X14660625Y-11513750D02*
X14835625Y-11688750D01*
X14835625Y-11513750D02*
X14660625Y-11688750D01*
D11*
X15198006Y-11691726D02*
X15083720Y-11691726D01*
X15140863Y-11691726D02*
X15140863Y-11491726D01*
X15121815Y-11520298D01*
X15102768Y-11539345D01*
X15083720Y-11548869D01*
X15283720Y-11672678D02*
X15293244Y-11682202D01*
X15283720Y-11691726D01*
X15274196Y-11682202D01*
X15283720Y-11672678D01*
X15283720Y-11691726D01*
X15359911Y-11491726D02*
X15493244Y-11491726D01*
X15407530Y-11691726D01*
X15664673Y-11491726D02*
X15569434Y-11491726D01*
X15559911Y-11586964D01*
X15569434Y-11577440D01*
X15588482Y-11567917D01*
X15636101Y-11567917D01*
X15655149Y-11577440D01*
X15664673Y-11586964D01*
X15674196Y-11606012D01*
X15674196Y-11653631D01*
X15664673Y-11672678D01*
X15655149Y-11682202D01*
X15636101Y-11691726D01*
X15588482Y-11691726D01*
X15569434Y-11682202D01*
X15559911Y-11672678D01*
X15798006Y-11491726D02*
X15817053Y-11491726D01*
X15836101Y-11501250D01*
X15845625Y-11510774D01*
X15855149Y-11529821D01*
X15864673Y-11567917D01*
X15864673Y-11615536D01*
X15855149Y-11653631D01*
X15845625Y-11672678D01*
X15836101Y-11682202D01*
X15817053Y-11691726D01*
X15798006Y-11691726D01*
X15778958Y-11682202D01*
X15769434Y-11672678D01*
X15759911Y-11653631D01*
X15750387Y-11615536D01*
X15750387Y-11567917D01*
X15759911Y-11529821D01*
X15769434Y-11510774D01*
X15778958Y-11501250D01*
X15798006Y-11491726D01*
X15950387Y-11691726D02*
X15950387Y-11558393D01*
X15950387Y-11577440D02*
X15959911Y-11567917D01*
X15978958Y-11558393D01*
X16007530Y-11558393D01*
X16026577Y-11567917D01*
X16036101Y-11586964D01*
X16036101Y-11691726D01*
X16036101Y-11586964D02*
X16045625Y-11567917D01*
X16064673Y-11558393D01*
X16093244Y-11558393D01*
X16112292Y-11567917D01*
X16121815Y-11586964D01*
X16121815Y-11691726D01*
X16217053Y-11691726D02*
X16217053Y-11558393D01*
X16217053Y-11577440D02*
X16226577Y-11567917D01*
X16245625Y-11558393D01*
X16274196Y-11558393D01*
X16293244Y-11567917D01*
X16302768Y-11586964D01*
X16302768Y-11691726D01*
X16302768Y-11586964D02*
X16312292Y-11567917D01*
X16331339Y-11558393D01*
X16359911Y-11558393D01*
X16378958Y-11567917D01*
X16388482Y-11586964D01*
X16388482Y-11691726D01*
X16778958Y-11482202D02*
X16607530Y-11739345D01*
X17036101Y-11491726D02*
X17055149Y-11491726D01*
X17074196Y-11501250D01*
X17083720Y-11510774D01*
X17093244Y-11529821D01*
X17102768Y-11567917D01*
X17102768Y-11615536D01*
X17093244Y-11653631D01*
X17083720Y-11672678D01*
X17074196Y-11682202D01*
X17055149Y-11691726D01*
X17036101Y-11691726D01*
X17017054Y-11682202D01*
X17007530Y-11672678D01*
X16998006Y-11653631D01*
X16988482Y-11615536D01*
X16988482Y-11567917D01*
X16998006Y-11529821D01*
X17007530Y-11510774D01*
X17017054Y-11501250D01*
X17036101Y-11491726D01*
X17188482Y-11672678D02*
X17198006Y-11682202D01*
X17188482Y-11691726D01*
X17178958Y-11682202D01*
X17188482Y-11672678D01*
X17188482Y-11691726D01*
X17321815Y-11491726D02*
X17340863Y-11491726D01*
X17359911Y-11501250D01*
X17369435Y-11510774D01*
X17378958Y-11529821D01*
X17388482Y-11567917D01*
X17388482Y-11615536D01*
X17378958Y-11653631D01*
X17369435Y-11672678D01*
X17359911Y-11682202D01*
X17340863Y-11691726D01*
X17321815Y-11691726D01*
X17302768Y-11682202D01*
X17293244Y-11672678D01*
X17283720Y-11653631D01*
X17274196Y-11615536D01*
X17274196Y-11567917D01*
X17283720Y-11529821D01*
X17293244Y-11510774D01*
X17302768Y-11501250D01*
X17321815Y-11491726D01*
X17559911Y-11491726D02*
X17521815Y-11491726D01*
X17502768Y-11501250D01*
X17493244Y-11510774D01*
X17474196Y-11539345D01*
X17464673Y-11577440D01*
X17464673Y-11653631D01*
X17474196Y-11672678D01*
X17483720Y-11682202D01*
X17502768Y-11691726D01*
X17540863Y-11691726D01*
X17559911Y-11682202D01*
X17569435Y-11672678D01*
X17578958Y-11653631D01*
X17578958Y-11606012D01*
X17569435Y-11586964D01*
X17559911Y-11577440D01*
X17540863Y-11567917D01*
X17502768Y-11567917D01*
X17483720Y-11577440D01*
X17474196Y-11586964D01*
X17464673Y-11606012D01*
X17693244Y-11577440D02*
X17674196Y-11567917D01*
X17664673Y-11558393D01*
X17655149Y-11539345D01*
X17655149Y-11529821D01*
X17664673Y-11510774D01*
X17674196Y-11501250D01*
X17693244Y-11491726D01*
X17731339Y-11491726D01*
X17750387Y-11501250D01*
X17759911Y-11510774D01*
X17769435Y-11529821D01*
X17769435Y-11539345D01*
X17759911Y-11558393D01*
X17750387Y-11567917D01*
X17731339Y-11577440D01*
X17693244Y-11577440D01*
X17674196Y-11586964D01*
X17664673Y-11596488D01*
X17655149Y-11615536D01*
X17655149Y-11653631D01*
X17664673Y-11672678D01*
X17674196Y-11682202D01*
X17693244Y-11691726D01*
X17731339Y-11691726D01*
X17750387Y-11682202D01*
X17759911Y-11672678D01*
X17769435Y-11653631D01*
X17769435Y-11615536D01*
X17759911Y-11596488D01*
X17750387Y-11586964D01*
X17731339Y-11577440D01*
X17864673Y-11691726D02*
X17902768Y-11691726D01*
X17921815Y-11682202D01*
X17931339Y-11672678D01*
X17950387Y-11644107D01*
X17959911Y-11606012D01*
X17959911Y-11529821D01*
X17950387Y-11510774D01*
X17940863Y-11501250D01*
X17921815Y-11491726D01*
X17883720Y-11491726D01*
X17864673Y-11501250D01*
X17855149Y-11510774D01*
X17845625Y-11529821D01*
X17845625Y-11577440D01*
X17855149Y-11596488D01*
X17864673Y-11606012D01*
X17883720Y-11615536D01*
X17921815Y-11615536D01*
X17940863Y-11606012D01*
X17950387Y-11596488D01*
X17959911Y-11577440D01*
X18036101Y-11491726D02*
X18036101Y-11529821D01*
X18112292Y-11491726D02*
X18112292Y-11529821D01*
X18407530Y-11767917D02*
X18398006Y-11758393D01*
X18378958Y-11729821D01*
X18369435Y-11710774D01*
X18359911Y-11682202D01*
X18350387Y-11634583D01*
X18350387Y-11596488D01*
X18359911Y-11548869D01*
X18369435Y-11520298D01*
X18378958Y-11501250D01*
X18398006Y-11472678D01*
X18407530Y-11463155D01*
X18588482Y-11691726D02*
X18474196Y-11691726D01*
X18531339Y-11691726D02*
X18531339Y-11491726D01*
X18512292Y-11520298D01*
X18493244Y-11539345D01*
X18474196Y-11548869D01*
X18702768Y-11577440D02*
X18683720Y-11567917D01*
X18674196Y-11558393D01*
X18664673Y-11539345D01*
X18664673Y-11529821D01*
X18674196Y-11510774D01*
X18683720Y-11501250D01*
X18702768Y-11491726D01*
X18740863Y-11491726D01*
X18759911Y-11501250D01*
X18769435Y-11510774D01*
X18778958Y-11529821D01*
X18778958Y-11539345D01*
X18769435Y-11558393D01*
X18759911Y-11567917D01*
X18740863Y-11577440D01*
X18702768Y-11577440D01*
X18683720Y-11586964D01*
X18674196Y-11596488D01*
X18664673Y-11615536D01*
X18664673Y-11653631D01*
X18674196Y-11672678D01*
X18683720Y-11682202D01*
X18702768Y-11691726D01*
X18740863Y-11691726D01*
X18759911Y-11682202D01*
X18769435Y-11672678D01*
X18778958Y-11653631D01*
X18778958Y-11615536D01*
X18769435Y-11596488D01*
X18759911Y-11586964D01*
X18740863Y-11577440D01*
X19017054Y-11691726D02*
X19017054Y-11491726D01*
X19102768Y-11691726D02*
X19102768Y-11586964D01*
X19093244Y-11567917D01*
X19074196Y-11558393D01*
X19045625Y-11558393D01*
X19026577Y-11567917D01*
X19017054Y-11577440D01*
X19226577Y-11691726D02*
X19207530Y-11682202D01*
X19198006Y-11672678D01*
X19188482Y-11653631D01*
X19188482Y-11596488D01*
X19198006Y-11577440D01*
X19207530Y-11567917D01*
X19226577Y-11558393D01*
X19255149Y-11558393D01*
X19274196Y-11567917D01*
X19283720Y-11577440D01*
X19293244Y-11596488D01*
X19293244Y-11653631D01*
X19283720Y-11672678D01*
X19274196Y-11682202D01*
X19255149Y-11691726D01*
X19226577Y-11691726D01*
X19407530Y-11691726D02*
X19388482Y-11682202D01*
X19378958Y-11663155D01*
X19378958Y-11491726D01*
X19559911Y-11682202D02*
X19540863Y-11691726D01*
X19502768Y-11691726D01*
X19483720Y-11682202D01*
X19474196Y-11663155D01*
X19474196Y-11586964D01*
X19483720Y-11567917D01*
X19502768Y-11558393D01*
X19540863Y-11558393D01*
X19559911Y-11567917D01*
X19569435Y-11586964D01*
X19569435Y-11606012D01*
X19474196Y-11625059D01*
X19645625Y-11682202D02*
X19664673Y-11691726D01*
X19702768Y-11691726D01*
X19721815Y-11682202D01*
X19731339Y-11663155D01*
X19731339Y-11653631D01*
X19721815Y-11634583D01*
X19702768Y-11625059D01*
X19674196Y-11625059D01*
X19655149Y-11615536D01*
X19645625Y-11596488D01*
X19645625Y-11586964D01*
X19655149Y-11567917D01*
X19674196Y-11558393D01*
X19702768Y-11558393D01*
X19721815Y-11567917D01*
X19798006Y-11767917D02*
X19807530Y-11758393D01*
X19826577Y-11729821D01*
X19836101Y-11710774D01*
X19845625Y-11682202D01*
X19855149Y-11634583D01*
X19855149Y-11596488D01*
X19845625Y-11548869D01*
X19836101Y-11520298D01*
X19826577Y-11501250D01*
X19807530Y-11472678D01*
X19798006Y-11463155D01*
X20159911Y-11767917D02*
X20150387Y-11758393D01*
X20131339Y-11729821D01*
X20121815Y-11710774D01*
X20112292Y-11682202D01*
X20102768Y-11634583D01*
X20102768Y-11596488D01*
X20112292Y-11548869D01*
X20121815Y-11520298D01*
X20131339Y-11501250D01*
X20150387Y-11472678D01*
X20159911Y-11463155D01*
X20236101Y-11558393D02*
X20236101Y-11691726D01*
X20236101Y-11577440D02*
X20245625Y-11567917D01*
X20264673Y-11558393D01*
X20293244Y-11558393D01*
X20312292Y-11567917D01*
X20321815Y-11586964D01*
X20321815Y-11691726D01*
X20445625Y-11691726D02*
X20426577Y-11682202D01*
X20417054Y-11672678D01*
X20407530Y-11653631D01*
X20407530Y-11596488D01*
X20417054Y-11577440D01*
X20426577Y-11567917D01*
X20445625Y-11558393D01*
X20474196Y-11558393D01*
X20493244Y-11567917D01*
X20502768Y-11577440D01*
X20512292Y-11596488D01*
X20512292Y-11653631D01*
X20502768Y-11672678D01*
X20493244Y-11682202D01*
X20474196Y-11691726D01*
X20445625Y-11691726D01*
X20569435Y-11558393D02*
X20645625Y-11558393D01*
X20598006Y-11491726D02*
X20598006Y-11663155D01*
X20607530Y-11682202D01*
X20626577Y-11691726D01*
X20645625Y-11691726D01*
X20864673Y-11558393D02*
X20864673Y-11758393D01*
X20864673Y-11567917D02*
X20883720Y-11558393D01*
X20921815Y-11558393D01*
X20940863Y-11567917D01*
X20950387Y-11577440D01*
X20959911Y-11596488D01*
X20959911Y-11653631D01*
X20950387Y-11672678D01*
X20940863Y-11682202D01*
X20921815Y-11691726D01*
X20883720Y-11691726D01*
X20864673Y-11682202D01*
X21074196Y-11691726D02*
X21055149Y-11682202D01*
X21045625Y-11663155D01*
X21045625Y-11491726D01*
X21236101Y-11691726D02*
X21236101Y-11586964D01*
X21226577Y-11567917D01*
X21207530Y-11558393D01*
X21169435Y-11558393D01*
X21150387Y-11567917D01*
X21236101Y-11682202D02*
X21217054Y-11691726D01*
X21169435Y-11691726D01*
X21150387Y-11682202D01*
X21140863Y-11663155D01*
X21140863Y-11644107D01*
X21150387Y-11625059D01*
X21169435Y-11615536D01*
X21217054Y-11615536D01*
X21236101Y-11606012D01*
X21302768Y-11558393D02*
X21378958Y-11558393D01*
X21331339Y-11491726D02*
X21331339Y-11663155D01*
X21340863Y-11682202D01*
X21359911Y-11691726D01*
X21378958Y-11691726D01*
X21521815Y-11682202D02*
X21502768Y-11691726D01*
X21464673Y-11691726D01*
X21445625Y-11682202D01*
X21436101Y-11663155D01*
X21436101Y-11586964D01*
X21445625Y-11567917D01*
X21464673Y-11558393D01*
X21502768Y-11558393D01*
X21521815Y-11567917D01*
X21531339Y-11586964D01*
X21531339Y-11606012D01*
X21436101Y-11625059D01*
X21702768Y-11691726D02*
X21702768Y-11491726D01*
X21702768Y-11682202D02*
X21683720Y-11691726D01*
X21645625Y-11691726D01*
X21626577Y-11682202D01*
X21617054Y-11672678D01*
X21607530Y-11653631D01*
X21607530Y-11596488D01*
X21617054Y-11577440D01*
X21626577Y-11567917D01*
X21645625Y-11558393D01*
X21683720Y-11558393D01*
X21702768Y-11567917D01*
X21778958Y-11767917D02*
X21788482Y-11758393D01*
X21807530Y-11729821D01*
X21817054Y-11710774D01*
X21826577Y-11682202D01*
X21836101Y-11634583D01*
X21836101Y-11596488D01*
X21826577Y-11548869D01*
X21817054Y-11520298D01*
X21807530Y-11501250D01*
X21788482Y-11472678D01*
X21778958Y-11463155D01*
X14835625Y-11896250D02*
G75*
G03*
X14835625Y-11896250I-100000J0D01*
G01*
X15074196Y-11786726D02*
X15198006Y-11786726D01*
X15131339Y-11862917D01*
X15159911Y-11862917D01*
X15178958Y-11872440D01*
X15188482Y-11881964D01*
X15198006Y-11901012D01*
X15198006Y-11948631D01*
X15188482Y-11967678D01*
X15178958Y-11977202D01*
X15159911Y-11986726D01*
X15102768Y-11986726D01*
X15083720Y-11977202D01*
X15074196Y-11967678D01*
X15283720Y-11967678D02*
X15293244Y-11977202D01*
X15283720Y-11986726D01*
X15274196Y-11977202D01*
X15283720Y-11967678D01*
X15283720Y-11986726D01*
X15388482Y-11986726D02*
X15426577Y-11986726D01*
X15445625Y-11977202D01*
X15455149Y-11967678D01*
X15474196Y-11939107D01*
X15483720Y-11901012D01*
X15483720Y-11824821D01*
X15474196Y-11805774D01*
X15464673Y-11796250D01*
X15445625Y-11786726D01*
X15407530Y-11786726D01*
X15388482Y-11796250D01*
X15378958Y-11805774D01*
X15369434Y-11824821D01*
X15369434Y-11872440D01*
X15378958Y-11891488D01*
X15388482Y-11901012D01*
X15407530Y-11910536D01*
X15445625Y-11910536D01*
X15464673Y-11901012D01*
X15474196Y-11891488D01*
X15483720Y-11872440D01*
X15598006Y-11872440D02*
X15578958Y-11862917D01*
X15569434Y-11853393D01*
X15559911Y-11834345D01*
X15559911Y-11824821D01*
X15569434Y-11805774D01*
X15578958Y-11796250D01*
X15598006Y-11786726D01*
X15636101Y-11786726D01*
X15655149Y-11796250D01*
X15664673Y-11805774D01*
X15674196Y-11824821D01*
X15674196Y-11834345D01*
X15664673Y-11853393D01*
X15655149Y-11862917D01*
X15636101Y-11872440D01*
X15598006Y-11872440D01*
X15578958Y-11881964D01*
X15569434Y-11891488D01*
X15559911Y-11910536D01*
X15559911Y-11948631D01*
X15569434Y-11967678D01*
X15578958Y-11977202D01*
X15598006Y-11986726D01*
X15636101Y-11986726D01*
X15655149Y-11977202D01*
X15664673Y-11967678D01*
X15674196Y-11948631D01*
X15674196Y-11910536D01*
X15664673Y-11891488D01*
X15655149Y-11881964D01*
X15636101Y-11872440D01*
X15788482Y-11872440D02*
X15769434Y-11862917D01*
X15759911Y-11853393D01*
X15750387Y-11834345D01*
X15750387Y-11824821D01*
X15759911Y-11805774D01*
X15769434Y-11796250D01*
X15788482Y-11786726D01*
X15826577Y-11786726D01*
X15845625Y-11796250D01*
X15855149Y-11805774D01*
X15864673Y-11824821D01*
X15864673Y-11834345D01*
X15855149Y-11853393D01*
X15845625Y-11862917D01*
X15826577Y-11872440D01*
X15788482Y-11872440D01*
X15769434Y-11881964D01*
X15759911Y-11891488D01*
X15750387Y-11910536D01*
X15750387Y-11948631D01*
X15759911Y-11967678D01*
X15769434Y-11977202D01*
X15788482Y-11986726D01*
X15826577Y-11986726D01*
X15845625Y-11977202D01*
X15855149Y-11967678D01*
X15864673Y-11948631D01*
X15864673Y-11910536D01*
X15855149Y-11891488D01*
X15845625Y-11881964D01*
X15826577Y-11872440D01*
X15950387Y-11986726D02*
X15950387Y-11853393D01*
X15950387Y-11872440D02*
X15959911Y-11862917D01*
X15978958Y-11853393D01*
X16007530Y-11853393D01*
X16026577Y-11862917D01*
X16036101Y-11881964D01*
X16036101Y-11986726D01*
X16036101Y-11881964D02*
X16045625Y-11862917D01*
X16064673Y-11853393D01*
X16093244Y-11853393D01*
X16112292Y-11862917D01*
X16121815Y-11881964D01*
X16121815Y-11986726D01*
X16217053Y-11986726D02*
X16217053Y-11853393D01*
X16217053Y-11872440D02*
X16226577Y-11862917D01*
X16245625Y-11853393D01*
X16274196Y-11853393D01*
X16293244Y-11862917D01*
X16302768Y-11881964D01*
X16302768Y-11986726D01*
X16302768Y-11881964D02*
X16312292Y-11862917D01*
X16331339Y-11853393D01*
X16359911Y-11853393D01*
X16378958Y-11862917D01*
X16388482Y-11881964D01*
X16388482Y-11986726D01*
X16778958Y-11777202D02*
X16607530Y-12034345D01*
X17036101Y-11786726D02*
X17055149Y-11786726D01*
X17074196Y-11796250D01*
X17083720Y-11805774D01*
X17093244Y-11824821D01*
X17102768Y-11862917D01*
X17102768Y-11910536D01*
X17093244Y-11948631D01*
X17083720Y-11967678D01*
X17074196Y-11977202D01*
X17055149Y-11986726D01*
X17036101Y-11986726D01*
X17017054Y-11977202D01*
X17007530Y-11967678D01*
X16998006Y-11948631D01*
X16988482Y-11910536D01*
X16988482Y-11862917D01*
X16998006Y-11824821D01*
X17007530Y-11805774D01*
X17017054Y-11796250D01*
X17036101Y-11786726D01*
X17188482Y-11967678D02*
X17198006Y-11977202D01*
X17188482Y-11986726D01*
X17178958Y-11977202D01*
X17188482Y-11967678D01*
X17188482Y-11986726D01*
X17388482Y-11986726D02*
X17274196Y-11986726D01*
X17331339Y-11986726D02*
X17331339Y-11786726D01*
X17312292Y-11815298D01*
X17293244Y-11834345D01*
X17274196Y-11843869D01*
X17569435Y-11786726D02*
X17474196Y-11786726D01*
X17464673Y-11881964D01*
X17474196Y-11872440D01*
X17493244Y-11862917D01*
X17540863Y-11862917D01*
X17559911Y-11872440D01*
X17569435Y-11881964D01*
X17578958Y-11901012D01*
X17578958Y-11948631D01*
X17569435Y-11967678D01*
X17559911Y-11977202D01*
X17540863Y-11986726D01*
X17493244Y-11986726D01*
X17474196Y-11977202D01*
X17464673Y-11967678D01*
X17645625Y-11786726D02*
X17778958Y-11786726D01*
X17693244Y-11986726D01*
X17893244Y-11786726D02*
X17912292Y-11786726D01*
X17931339Y-11796250D01*
X17940863Y-11805774D01*
X17950387Y-11824821D01*
X17959911Y-11862917D01*
X17959911Y-11910536D01*
X17950387Y-11948631D01*
X17940863Y-11967678D01*
X17931339Y-11977202D01*
X17912292Y-11986726D01*
X17893244Y-11986726D01*
X17874196Y-11977202D01*
X17864673Y-11967678D01*
X17855149Y-11948631D01*
X17845625Y-11910536D01*
X17845625Y-11862917D01*
X17855149Y-11824821D01*
X17864673Y-11805774D01*
X17874196Y-11796250D01*
X17893244Y-11786726D01*
X18036101Y-11786726D02*
X18036101Y-11824821D01*
X18112292Y-11786726D02*
X18112292Y-11824821D01*
X18407530Y-12062917D02*
X18398006Y-12053393D01*
X18378958Y-12024821D01*
X18369435Y-12005774D01*
X18359911Y-11977202D01*
X18350387Y-11929583D01*
X18350387Y-11891488D01*
X18359911Y-11843869D01*
X18369435Y-11815298D01*
X18378958Y-11796250D01*
X18398006Y-11767678D01*
X18407530Y-11758155D01*
X18493244Y-11986726D02*
X18531339Y-11986726D01*
X18550387Y-11977202D01*
X18559911Y-11967678D01*
X18578958Y-11939107D01*
X18588482Y-11901012D01*
X18588482Y-11824821D01*
X18578958Y-11805774D01*
X18569435Y-11796250D01*
X18550387Y-11786726D01*
X18512292Y-11786726D01*
X18493244Y-11796250D01*
X18483720Y-11805774D01*
X18474196Y-11824821D01*
X18474196Y-11872440D01*
X18483720Y-11891488D01*
X18493244Y-11901012D01*
X18512292Y-11910536D01*
X18550387Y-11910536D01*
X18569435Y-11901012D01*
X18578958Y-11891488D01*
X18588482Y-11872440D01*
X18826577Y-11986726D02*
X18826577Y-11786726D01*
X18912292Y-11986726D02*
X18912292Y-11881964D01*
X18902768Y-11862917D01*
X18883720Y-11853393D01*
X18855149Y-11853393D01*
X18836101Y-11862917D01*
X18826577Y-11872440D01*
X19036101Y-11986726D02*
X19017054Y-11977202D01*
X19007530Y-11967678D01*
X18998006Y-11948631D01*
X18998006Y-11891488D01*
X19007530Y-11872440D01*
X19017054Y-11862917D01*
X19036101Y-11853393D01*
X19064673Y-11853393D01*
X19083720Y-11862917D01*
X19093244Y-11872440D01*
X19102768Y-11891488D01*
X19102768Y-11948631D01*
X19093244Y-11967678D01*
X19083720Y-11977202D01*
X19064673Y-11986726D01*
X19036101Y-11986726D01*
X19217054Y-11986726D02*
X19198006Y-11977202D01*
X19188482Y-11958155D01*
X19188482Y-11786726D01*
X19369435Y-11977202D02*
X19350387Y-11986726D01*
X19312292Y-11986726D01*
X19293244Y-11977202D01*
X19283720Y-11958155D01*
X19283720Y-11881964D01*
X19293244Y-11862917D01*
X19312292Y-11853393D01*
X19350387Y-11853393D01*
X19369435Y-11862917D01*
X19378958Y-11881964D01*
X19378958Y-11901012D01*
X19283720Y-11920059D01*
X19455149Y-11977202D02*
X19474196Y-11986726D01*
X19512292Y-11986726D01*
X19531339Y-11977202D01*
X19540863Y-11958155D01*
X19540863Y-11948631D01*
X19531339Y-11929583D01*
X19512292Y-11920059D01*
X19483720Y-11920059D01*
X19464673Y-11910536D01*
X19455149Y-11891488D01*
X19455149Y-11881964D01*
X19464673Y-11862917D01*
X19483720Y-11853393D01*
X19512292Y-11853393D01*
X19531339Y-11862917D01*
X19607530Y-12062917D02*
X19617054Y-12053393D01*
X19636101Y-12024821D01*
X19645625Y-12005774D01*
X19655149Y-11977202D01*
X19664673Y-11929583D01*
X19664673Y-11891488D01*
X19655149Y-11843869D01*
X19645625Y-11815298D01*
X19636101Y-11796250D01*
X19617054Y-11767678D01*
X19607530Y-11758155D01*
X19969435Y-12062917D02*
X19959911Y-12053393D01*
X19940863Y-12024821D01*
X19931339Y-12005774D01*
X19921815Y-11977202D01*
X19912292Y-11929583D01*
X19912292Y-11891488D01*
X19921815Y-11843869D01*
X19931339Y-11815298D01*
X19940863Y-11796250D01*
X19959911Y-11767678D01*
X19969435Y-11758155D01*
X20045625Y-11853393D02*
X20045625Y-11986726D01*
X20045625Y-11872440D02*
X20055149Y-11862917D01*
X20074196Y-11853393D01*
X20102768Y-11853393D01*
X20121815Y-11862917D01*
X20131339Y-11881964D01*
X20131339Y-11986726D01*
X20255149Y-11986726D02*
X20236101Y-11977202D01*
X20226577Y-11967678D01*
X20217054Y-11948631D01*
X20217054Y-11891488D01*
X20226577Y-11872440D01*
X20236101Y-11862917D01*
X20255149Y-11853393D01*
X20283720Y-11853393D01*
X20302768Y-11862917D01*
X20312292Y-11872440D01*
X20321815Y-11891488D01*
X20321815Y-11948631D01*
X20312292Y-11967678D01*
X20302768Y-11977202D01*
X20283720Y-11986726D01*
X20255149Y-11986726D01*
X20378958Y-11853393D02*
X20455149Y-11853393D01*
X20407530Y-11786726D02*
X20407530Y-11958155D01*
X20417054Y-11977202D01*
X20436101Y-11986726D01*
X20455149Y-11986726D01*
X20674196Y-11853393D02*
X20674196Y-12053393D01*
X20674196Y-11862917D02*
X20693244Y-11853393D01*
X20731339Y-11853393D01*
X20750387Y-11862917D01*
X20759911Y-11872440D01*
X20769435Y-11891488D01*
X20769435Y-11948631D01*
X20759911Y-11967678D01*
X20750387Y-11977202D01*
X20731339Y-11986726D01*
X20693244Y-11986726D01*
X20674196Y-11977202D01*
X20883720Y-11986726D02*
X20864673Y-11977202D01*
X20855149Y-11958155D01*
X20855149Y-11786726D01*
X21045625Y-11986726D02*
X21045625Y-11881964D01*
X21036101Y-11862917D01*
X21017054Y-11853393D01*
X20978958Y-11853393D01*
X20959911Y-11862917D01*
X21045625Y-11977202D02*
X21026577Y-11986726D01*
X20978958Y-11986726D01*
X20959911Y-11977202D01*
X20950387Y-11958155D01*
X20950387Y-11939107D01*
X20959911Y-11920059D01*
X20978958Y-11910536D01*
X21026577Y-11910536D01*
X21045625Y-11901012D01*
X21112292Y-11853393D02*
X21188482Y-11853393D01*
X21140863Y-11786726D02*
X21140863Y-11958155D01*
X21150387Y-11977202D01*
X21169435Y-11986726D01*
X21188482Y-11986726D01*
X21331339Y-11977202D02*
X21312292Y-11986726D01*
X21274196Y-11986726D01*
X21255149Y-11977202D01*
X21245625Y-11958155D01*
X21245625Y-11881964D01*
X21255149Y-11862917D01*
X21274196Y-11853393D01*
X21312292Y-11853393D01*
X21331339Y-11862917D01*
X21340863Y-11881964D01*
X21340863Y-11901012D01*
X21245625Y-11920059D01*
X21512292Y-11986726D02*
X21512292Y-11786726D01*
X21512292Y-11977202D02*
X21493244Y-11986726D01*
X21455149Y-11986726D01*
X21436101Y-11977202D01*
X21426577Y-11967678D01*
X21417054Y-11948631D01*
X21417054Y-11891488D01*
X21426577Y-11872440D01*
X21436101Y-11862917D01*
X21455149Y-11853393D01*
X21493244Y-11853393D01*
X21512292Y-11862917D01*
X21588482Y-12062917D02*
X21598006Y-12053393D01*
X21617054Y-12024821D01*
X21626577Y-12005774D01*
X21636101Y-11977202D01*
X21645625Y-11929583D01*
X21645625Y-11891488D01*
X21636101Y-11843869D01*
X21626577Y-11815298D01*
X21617054Y-11796250D01*
X21598006Y-11767678D01*
X21588482Y-11758155D01*
M02*
