M48
; DRILL file {KiCad (6.0.9)} date Fri Mar 10 16:46:29 2023
; FORMAT={-:-/ absolute / metric / decimal}
; #@! TF.CreationDate,2023-03-10T16:46:29-06:00
; #@! TF.GenerationSoftware,Kicad,Pcbnew,(6.0.9)
; #@! TF.FileFunction,Plated,1,2,PTH
FMAT,2
METRIC
; #@! TA.AperFunction,Plated,PTH,ViaDrill
T1C0.400
; #@! TA.AperFunction,Plated,PTH,ComponentDrill
T2C1.000
; #@! TA.AperFunction,Plated,PTH,ComponentDrill
T3C1.470
%
G90
G05
T1
X157.85Y-80.397
X158.75Y-79.075
X160.2Y-88.95
X160.2Y-93.4
X160.375Y-77.05
X160.9Y-86.05
X162.1Y-68.788
X162.2Y-76.0
X162.3Y-90.65
X162.85Y-69.55
X162.85Y-74.6
X162.85Y-83.45
X162.85Y-87.3
X162.9Y-70.9
X162.9Y-84.75
X162.947Y-72.05
X162.947Y-73.4
X162.947Y-89.85
X162.947Y-92.35
X164.396Y-69.55
X164.396Y-72.05
X164.396Y-73.4
X164.396Y-74.55
X164.396Y-74.55
X164.396Y-83.45
X164.396Y-84.75
X164.396Y-87.3
X164.396Y-92.4
X164.4Y-89.85
X164.45Y-70.85
X164.6Y-67.221
X165.05Y-90.65
X165.45Y-68.8
X166.3Y-68.0
X173.8Y-83.8
X174.95Y-84.75
X178.8Y-83.35
X180.975Y-84.931
X181.1Y-68.75
X181.15Y-90.65
X181.3Y-74.2
X181.382Y-89.027
X181.769Y-65.881
X181.95Y-68.025
X181.95Y-89.85
X181.997Y-69.55
X181.997Y-70.85
X181.997Y-72.05
X181.997Y-73.4
X181.997Y-92.4
X183.446Y-69.55
X183.446Y-70.85
X183.446Y-72.05
X183.446Y-73.4
X183.45Y-68.025
X183.45Y-89.85
X183.5Y-92.4
X184.041Y-89.044
X184.05Y-74.2
X184.105Y-90.605
X184.15Y-65.881
X184.15Y-84.931
X184.7Y-68.75
X196.45Y-84.15
X199.7Y-91.6
X200.025Y-84.931
X200.25Y-68.75
X200.25Y-90.6
X200.3Y-89.05
X200.4Y-74.2
X200.819Y-65.881
X201.0Y-89.85
X201.047Y-68.025
X201.047Y-69.55
X201.047Y-70.85
X201.047Y-72.05
X201.047Y-73.4
X201.047Y-92.4
X202.496Y-68.025
X202.496Y-70.85
X202.496Y-89.85
X202.5Y-72.05
X202.5Y-73.45
X202.55Y-69.55
X202.55Y-92.4
X203.141Y-91.594
X203.155Y-74.205
X203.2Y-65.881
X203.2Y-84.931
X203.25Y-89.05
X203.5Y-68.75
X203.55Y-90.6
X210.3Y-75.25
X211.85Y-85.656
X213.35Y-68.025
X213.75Y-85.55
X214.0Y-75.2
X214.4Y-88.042
X214.6Y-89.05
X214.6Y-93.122
X214.95Y-84.0
X215.9Y-91.6
X215.95Y-68.0
X215.95Y-86.05
X216.95Y-78.25
X217.05Y-83.65
X217.882Y-77.888
T2
X149.135Y-69.513
X149.135Y-72.052
X149.135Y-74.593
X149.135Y-77.132
X149.135Y-79.672
X149.135Y-82.212
X149.135Y-84.752
X149.135Y-87.292
X149.135Y-89.832
X149.135Y-92.373
X151.675Y-69.513
X151.675Y-72.052
X151.675Y-74.593
X151.675Y-77.132
X151.675Y-79.672
X151.675Y-82.212
X151.675Y-84.752
X151.675Y-87.292
X151.675Y-89.832
X151.675Y-92.373
X222.156Y-69.537
X222.156Y-72.078
X222.156Y-74.617
X222.156Y-77.157
X222.156Y-79.697
X222.156Y-82.237
X222.156Y-84.777
X222.156Y-87.317
X222.156Y-89.858
X222.156Y-92.397
X224.696Y-69.537
X224.696Y-72.078
X224.696Y-74.617
X224.696Y-77.157
X224.696Y-79.697
X224.696Y-82.237
X224.696Y-84.777
X224.696Y-87.317
X224.696Y-89.858
X224.696Y-92.397
T3
X163.671Y-59.372
X163.671Y-78.422
X163.671Y-97.472
X164.981Y-57.912
X164.981Y-76.962
X164.981Y-96.012
X169.981Y-57.412
X169.981Y-76.462
X169.981Y-95.512
X170.021Y-56.832
X170.021Y-75.882
X170.021Y-94.932
X182.721Y-59.372
X182.721Y-78.422
X182.721Y-97.472
X184.031Y-57.912
X184.031Y-76.962
X184.031Y-96.012
X189.031Y-57.412
X189.031Y-76.462
X189.031Y-95.512
X189.071Y-56.832
X189.071Y-75.882
X189.071Y-94.932
X201.771Y-59.372
X201.771Y-78.422
X201.771Y-97.472
X203.081Y-57.912
X203.081Y-76.962
X203.081Y-96.012
X208.081Y-57.412
X208.081Y-76.462
X208.081Y-95.512
X208.121Y-56.832
X208.121Y-75.882
X208.121Y-94.932
T0
M30
