%TF.GenerationSoftware,KiCad,Pcbnew,(6.0.9)*%
%TF.CreationDate,2023-04-02T22:43:45-05:00*%
%TF.ProjectId,Programmable Keys,50726f67-7261-46d6-9d61-626c65204b65,rev?*%
%TF.SameCoordinates,Original*%
%TF.FileFunction,Copper,L2,Bot*%
%TF.FilePolarity,Positive*%
%FSLAX46Y46*%
G04 Gerber Fmt 4.6, Leading zero omitted, Abs format (unit mm)*
G04 Created by KiCad (PCBNEW (6.0.9)) date 2023-04-02 22:43:45*
%MOMM*%
%LPD*%
G01*
G04 APERTURE LIST*
G04 Aperture macros list*
%AMHorizOval*
0 Thick line with rounded ends*
0 $1 width*
0 $2 $3 position (X,Y) of the first rounded end (center of the circle)*
0 $4 $5 position (X,Y) of the second rounded end (center of the circle)*
0 Add line between two ends*
20,1,$1,$2,$3,$4,$5,0*
0 Add two circle primitives to create the rounded ends*
1,1,$1,$2,$3*
1,1,$1,$4,$5*%
G04 Aperture macros list end*
%TA.AperFunction,ComponentPad*%
%ADD10C,2.250000*%
%TD*%
%TA.AperFunction,ComponentPad*%
%ADD11HorizOval,2.250000X0.655001X0.730000X-0.655001X-0.730000X0*%
%TD*%
%TA.AperFunction,ComponentPad*%
%ADD12HorizOval,2.250000X0.020000X0.290000X-0.020000X-0.290000X0*%
%TD*%
%TA.AperFunction,ComponentPad*%
%ADD13R,1.700000X1.700000*%
%TD*%
%TA.AperFunction,ComponentPad*%
%ADD14O,1.700000X1.700000*%
%TD*%
%TA.AperFunction,ViaPad*%
%ADD15C,0.800000*%
%TD*%
%TA.AperFunction,Conductor*%
%ADD16C,0.250000*%
%TD*%
G04 APERTURE END LIST*
D10*
%TO.P,MX8,1,COL*%
%TO.N,COL9*%
X184031250Y-96012500D03*
D11*
X183376251Y-96742500D03*
D10*
%TO.P,MX8,2,ROW*%
%TO.N,Net-(D6-Pad2)*%
X189071250Y-94932500D03*
D12*
X189051250Y-95222500D03*
%TD*%
D13*
%TO.P,J2,1,Pin_1*%
%TO.N,+5V*%
X222156250Y-69537500D03*
D14*
%TO.P,J2,2,Pin_2*%
%TO.N,VCC*%
X224696250Y-69537500D03*
%TO.P,J2,3,Pin_3*%
%TO.N,COL0*%
X222156250Y-72077500D03*
%TO.P,J2,4,Pin_4*%
%TO.N,COL1*%
X224696250Y-72077500D03*
%TO.P,J2,5,Pin_5*%
%TO.N,COL2*%
X222156250Y-74617500D03*
%TO.P,J2,6,Pin_6*%
%TO.N,COL3*%
X224696250Y-74617500D03*
%TO.P,J2,7,Pin_7*%
%TO.N,COL4*%
X222156250Y-77157500D03*
%TO.P,J2,8,Pin_8*%
%TO.N,COL5*%
X224696250Y-77157500D03*
%TO.P,J2,9,Pin_9*%
%TO.N,COL6*%
X222156250Y-79697500D03*
%TO.P,J2,10,Pin_10*%
%TO.N,COL7*%
X224696250Y-79697500D03*
%TO.P,J2,11,Pin_11*%
%TO.N,COL8*%
X222156250Y-82237500D03*
%TO.P,J2,12,Pin_12*%
%TO.N,COL9*%
X224696250Y-82237500D03*
%TO.P,J2,13,Pin_13*%
%TO.N,COL10*%
X222156250Y-84777500D03*
%TO.P,J2,14,Pin_14*%
%TO.N,ROW5*%
X224696250Y-84777500D03*
%TO.P,J2,15,Pin_15*%
%TO.N,ROW6*%
X222156250Y-87317500D03*
%TO.P,J2,16,Pin_16*%
%TO.N,ROW7*%
X224696250Y-87317500D03*
%TO.P,J2,17,Pin_17*%
%TO.N,ROW8*%
X222156250Y-89857500D03*
%TO.P,J2,18,Pin_18*%
%TO.N,ROW9*%
X224696250Y-89857500D03*
%TO.P,J2,19,Pin_19*%
%TO.N,GND*%
X222156250Y-92397500D03*
%TO.P,J2,20,Pin_20*%
%TO.N,unconnected-(J2-Pad20)*%
X224696250Y-92397500D03*
%TD*%
D10*
%TO.P,MX1,1,COL*%
%TO.N,COL8*%
X164981250Y-57912500D03*
D11*
X164326251Y-58642500D03*
D10*
%TO.P,MX1,2,ROW*%
%TO.N,Net-(D1-Pad2)*%
X170021250Y-56832500D03*
D12*
X170001250Y-57122500D03*
%TD*%
D10*
%TO.P,MX9,1,COL*%
%TO.N,COL10*%
X203081250Y-96012500D03*
D11*
X202426251Y-96742500D03*
D12*
%TO.P,MX9,2,ROW*%
%TO.N,Net-(D9-Pad2)*%
X208101250Y-95222500D03*
D10*
X208121250Y-94932500D03*
%TD*%
%TO.P,MX4,1,COL*%
%TO.N,COL8*%
X164981250Y-76962500D03*
D11*
X164326251Y-77692500D03*
D10*
%TO.P,MX4,2,ROW*%
%TO.N,Net-(D2-Pad2)*%
X170021250Y-75882500D03*
D12*
X170001250Y-76172500D03*
%TD*%
D11*
%TO.P,MX3,1,COL*%
%TO.N,COL10*%
X202426251Y-58642500D03*
D10*
X203081250Y-57912500D03*
%TO.P,MX3,2,ROW*%
%TO.N,Net-(D7-Pad2)*%
X208121250Y-56832500D03*
D12*
X208101250Y-57122500D03*
%TD*%
D13*
%TO.P,J1,1,Pin_1*%
%TO.N,+5V*%
X151675000Y-69512500D03*
D14*
%TO.P,J1,2,Pin_2*%
%TO.N,VCC*%
X149135000Y-69512500D03*
%TO.P,J1,3,Pin_3*%
%TO.N,COL0*%
X151675000Y-72052500D03*
%TO.P,J1,4,Pin_4*%
%TO.N,COL1*%
X149135000Y-72052500D03*
%TO.P,J1,5,Pin_5*%
%TO.N,COL2*%
X151675000Y-74592500D03*
%TO.P,J1,6,Pin_6*%
%TO.N,COL3*%
X149135000Y-74592500D03*
%TO.P,J1,7,Pin_7*%
%TO.N,COL4*%
X151675000Y-77132500D03*
%TO.P,J1,8,Pin_8*%
%TO.N,COL5*%
X149135000Y-77132500D03*
%TO.P,J1,9,Pin_9*%
%TO.N,COL6*%
X151675000Y-79672500D03*
%TO.P,J1,10,Pin_10*%
%TO.N,COL7*%
X149135000Y-79672500D03*
%TO.P,J1,11,Pin_11*%
%TO.N,COL8*%
X151675000Y-82212500D03*
%TO.P,J1,12,Pin_12*%
%TO.N,COL9*%
X149135000Y-82212500D03*
%TO.P,J1,13,Pin_13*%
%TO.N,COL10*%
X151675000Y-84752500D03*
%TO.P,J1,14,Pin_14*%
%TO.N,ROW5*%
X149135000Y-84752500D03*
%TO.P,J1,15,Pin_15*%
%TO.N,ROW6*%
X151675000Y-87292500D03*
%TO.P,J1,16,Pin_16*%
%TO.N,ROW7*%
X149135000Y-87292500D03*
%TO.P,J1,17,Pin_17*%
%TO.N,ROW8*%
X151675000Y-89832500D03*
%TO.P,J1,18,Pin_18*%
%TO.N,ROW9*%
X149135000Y-89832500D03*
%TO.P,J1,19,Pin_19*%
%TO.N,GND*%
X151675000Y-92372500D03*
%TO.P,J1,20,Pin_20*%
%TO.N,unconnected-(J1-Pad20)*%
X149135000Y-92372500D03*
%TD*%
D10*
%TO.P,MX7,1,COL*%
%TO.N,COL8*%
X164981250Y-96012500D03*
D11*
X164326251Y-96742500D03*
D12*
%TO.P,MX7,2,ROW*%
%TO.N,Net-(D3-Pad2)*%
X170001250Y-95222500D03*
D10*
X170021250Y-94932500D03*
%TD*%
D11*
%TO.P,MX2,1,COL*%
%TO.N,COL9*%
X183376251Y-58642500D03*
D10*
X184031250Y-57912500D03*
D12*
%TO.P,MX2,2,ROW*%
%TO.N,Net-(D4-Pad2)*%
X189051250Y-57122500D03*
D10*
X189071250Y-56832500D03*
%TD*%
%TO.P,MX6,1,COL*%
%TO.N,COL10*%
X203081250Y-76962500D03*
D11*
X202426251Y-77692500D03*
D10*
%TO.P,MX6,2,ROW*%
%TO.N,Net-(D8-Pad2)*%
X208121250Y-75882500D03*
D12*
X208101250Y-76172500D03*
%TD*%
D10*
%TO.P,MX5,1,COL*%
%TO.N,COL9*%
X184031250Y-76962500D03*
D11*
X183376251Y-77692500D03*
D10*
%TO.P,MX5,2,ROW*%
%TO.N,Net-(D5-Pad2)*%
X189071250Y-75882500D03*
D12*
X189051250Y-76172500D03*
%TD*%
D15*
%TO.N,ROW5*%
X164600000Y-67220500D03*
X181768750Y-65881250D03*
X200818750Y-65881250D03*
X160900000Y-86050000D03*
X203200000Y-65881250D03*
X215950000Y-86050000D03*
X184150000Y-65881250D03*
X215950000Y-68000000D03*
%TO.N,ROW6*%
X200025000Y-84931250D03*
X180975000Y-84931250D03*
X164395750Y-87300000D03*
X184150000Y-84931250D03*
X203200000Y-84931250D03*
X162850000Y-87300000D03*
%TO.N,ROW7*%
X214600000Y-93122000D03*
X160200000Y-88950000D03*
X160200000Y-93400000D03*
X214600000Y-89050000D03*
%TO.N,VCC*%
X165450000Y-68800000D03*
X200250000Y-68750000D03*
X181100000Y-68750000D03*
X184700000Y-68750000D03*
X203500000Y-68750000D03*
X162100000Y-68788000D03*
%TO.N,COL3*%
X181996750Y-73400000D03*
X202500000Y-73450000D03*
X183445750Y-73400000D03*
X164395750Y-73400000D03*
X201046750Y-73400000D03*
X162946750Y-73400000D03*
%TO.N,COL4*%
X210300000Y-75250000D03*
X162200000Y-76000000D03*
%TO.N,GND*%
X162946750Y-92350000D03*
X201046750Y-92400000D03*
X164395750Y-92400000D03*
X181996750Y-92400000D03*
X202550000Y-92400000D03*
X183500000Y-92400000D03*
%TO.N,COL5*%
X202495750Y-68025500D03*
X214000000Y-75200000D03*
X160375500Y-77050000D03*
X181950000Y-68025500D03*
X201046750Y-68025500D03*
X166300000Y-68000000D03*
X213350000Y-68025500D03*
X183450000Y-68025500D03*
%TO.N,COL6*%
X158750000Y-79074500D03*
X216950000Y-78250000D03*
%TO.N,COL0*%
X181996750Y-72050000D03*
X201046750Y-72050000D03*
X202500000Y-72050000D03*
X162946750Y-72050000D03*
X183445750Y-72050000D03*
X164395750Y-72050000D03*
%TO.N,COL1*%
X202495750Y-70850000D03*
X162900000Y-70900000D03*
X164450000Y-70850000D03*
X201046750Y-70850000D03*
X183445750Y-70850000D03*
X181996750Y-70850000D03*
%TO.N,COL2*%
X162850000Y-74600000D03*
X164395750Y-74550000D03*
X184050000Y-74200000D03*
X181300000Y-74200000D03*
X164395750Y-74550000D03*
X203154605Y-74205313D03*
X200400000Y-74200000D03*
%TO.N,COL7*%
X157850000Y-80397000D03*
X217881541Y-77887734D03*
%TO.N,COL8*%
X214400000Y-88042000D03*
X214950000Y-84000000D03*
X200300000Y-89050000D03*
X203250000Y-89050000D03*
X181382284Y-89027380D03*
X184041070Y-89043996D03*
%TO.N,COL9*%
X162850000Y-83450000D03*
X173800000Y-83800000D03*
X217050000Y-83650000D03*
X203141070Y-91593996D03*
X164395750Y-83450000D03*
X178800000Y-83350000D03*
X199700000Y-91600000D03*
X215900000Y-91600000D03*
%TO.N,COL10*%
X213750000Y-85550000D03*
X162900000Y-84750000D03*
X164395750Y-84750000D03*
X174950000Y-84750000D03*
X196450000Y-84150000D03*
X211850000Y-85655750D03*
%TO.N,ROW8*%
X202495750Y-89850000D03*
X164400000Y-89850000D03*
X183450000Y-89850000D03*
X181950000Y-89850000D03*
X201000000Y-89850000D03*
X162946750Y-89850000D03*
%TO.N,ROW9*%
X203550000Y-90600000D03*
X165050000Y-90650000D03*
X200250000Y-90600000D03*
X181150000Y-90650000D03*
X184104605Y-90605313D03*
X162300000Y-90650000D03*
%TO.N,+5V*%
X162850000Y-69550000D03*
X201046750Y-69550000D03*
X164395750Y-69550000D03*
X183445750Y-69550000D03*
X181996750Y-69550000D03*
X202550000Y-69550000D03*
%TD*%
D16*
%TO.N,ROW5*%
X184150000Y-65881250D02*
X181768750Y-65881250D01*
X161100000Y-68762695D02*
X161850000Y-68012695D01*
X162629500Y-67220500D02*
X164600000Y-67220500D01*
X160900000Y-86050000D02*
X161100000Y-85850000D01*
X203200000Y-65881250D02*
X200818750Y-65881250D01*
X161100000Y-85850000D02*
X161100000Y-82100000D01*
X215950000Y-68000000D02*
X215950000Y-86050000D01*
X161850000Y-68000000D02*
X162350000Y-67500000D01*
X161100000Y-82100000D02*
X161100000Y-68762695D01*
X161850000Y-68012695D02*
X161850000Y-68000000D01*
X162350000Y-67500000D02*
X162629500Y-67220500D01*
%TO.N,ROW6*%
X203200000Y-84931250D02*
X200025000Y-84931250D01*
X184150000Y-84931250D02*
X180975000Y-84931250D01*
X162850000Y-87300000D02*
X164395750Y-87300000D01*
%TO.N,ROW7*%
X214600000Y-89050000D02*
X214600000Y-93122000D01*
X160200000Y-88950000D02*
X160200000Y-93400000D01*
%TO.N,VCC*%
X200250000Y-68750000D02*
X203500000Y-68750000D01*
X162100000Y-68788000D02*
X165438000Y-68788000D01*
X181100000Y-68750000D02*
X184700000Y-68750000D01*
X165438000Y-68788000D02*
X165450000Y-68800000D01*
%TO.N,COL3*%
X183445750Y-73400000D02*
X181996750Y-73400000D01*
X201096750Y-73450000D02*
X201046750Y-73400000D01*
X202500000Y-73450000D02*
X201096750Y-73450000D01*
X164395750Y-73400000D02*
X162946750Y-73400000D01*
%TO.N,COL4*%
X168475000Y-75275000D02*
X163475000Y-75275000D01*
X187400000Y-74800000D02*
X187400000Y-75000000D01*
X190700000Y-75200000D02*
X190100000Y-74600000D01*
X168600000Y-75150000D02*
X168475000Y-75275000D01*
X190100000Y-74350000D02*
X187850000Y-74350000D01*
X187400000Y-75000000D02*
X171650000Y-75000000D01*
X190100000Y-74600000D02*
X190100000Y-74350000D01*
X163475000Y-75275000D02*
X162750000Y-76000000D01*
X169250000Y-74300000D02*
X168600000Y-74950000D01*
X171650000Y-75000000D02*
X170950000Y-74300000D01*
X170950000Y-74300000D02*
X169250000Y-74300000D01*
X187850000Y-74350000D02*
X187400000Y-74800000D01*
X210300000Y-74550000D02*
X209850000Y-74100000D01*
X209850000Y-74100000D02*
X204800000Y-74100000D01*
X168600000Y-74950000D02*
X168600000Y-75150000D01*
X210300000Y-75250000D02*
X210300000Y-74550000D01*
X203700000Y-75200000D02*
X190700000Y-75200000D01*
X162750000Y-76000000D02*
X162200000Y-76000000D01*
X204800000Y-74100000D02*
X203700000Y-75200000D01*
%TO.N,GND*%
X164345750Y-92350000D02*
X164395750Y-92400000D01*
X201046750Y-92400000D02*
X202550000Y-92400000D01*
X181996750Y-92400000D02*
X183500000Y-92400000D01*
X162946750Y-92350000D02*
X164345750Y-92350000D01*
%TO.N,COL5*%
X165145500Y-66495500D02*
X163254500Y-66495500D01*
X163250000Y-66500000D02*
X162500000Y-66500000D01*
X160750000Y-68150000D02*
X160375500Y-68524500D01*
X202495750Y-68025500D02*
X201046750Y-68025500D01*
X160375500Y-68524500D02*
X160375500Y-77050000D01*
X213775500Y-68025500D02*
X213350000Y-68025500D01*
X163254500Y-66495500D02*
X163250000Y-66500000D01*
X213850000Y-68100000D02*
X213775500Y-68025500D01*
X162400000Y-66500000D02*
X160750000Y-68150000D01*
X214000000Y-75200000D02*
X214000000Y-68250000D01*
X166300000Y-68000000D02*
X165400000Y-67100000D01*
X183450000Y-68025500D02*
X181950000Y-68025500D01*
X165400000Y-66750000D02*
X165145500Y-66495500D01*
X165400000Y-67100000D02*
X165400000Y-66750000D01*
X162500000Y-66500000D02*
X162400000Y-66500000D01*
X214000000Y-68250000D02*
X213850000Y-68100000D01*
%TO.N,COL6*%
X216450000Y-67100000D02*
X216950000Y-67600000D01*
X216950000Y-67600000D02*
X216950000Y-78250000D01*
X161300000Y-65950000D02*
X166200000Y-65950000D01*
X161000000Y-66250000D02*
X161300000Y-65950000D01*
X167350000Y-67100000D02*
X214600000Y-67100000D01*
X158750000Y-68500000D02*
X161000000Y-66250000D01*
X166200000Y-65950000D02*
X167350000Y-67100000D01*
X158750000Y-79074500D02*
X158750000Y-68500000D01*
X214600000Y-67100000D02*
X216450000Y-67100000D01*
%TO.N,COL0*%
X202500000Y-72050000D02*
X201046750Y-72050000D01*
X183445750Y-72050000D02*
X181996750Y-72050000D01*
X164395750Y-72050000D02*
X162946750Y-72050000D01*
%TO.N,COL1*%
X162900000Y-70900000D02*
X164400000Y-70900000D01*
X201046750Y-70850000D02*
X202495750Y-70850000D01*
X181996750Y-70850000D02*
X183445750Y-70850000D01*
X164400000Y-70900000D02*
X164450000Y-70850000D01*
%TO.N,COL2*%
X200400000Y-74200000D02*
X203149292Y-74200000D01*
X203149292Y-74200000D02*
X203154605Y-74205313D01*
X181300000Y-74200000D02*
X184050000Y-74200000D01*
X164345750Y-74600000D02*
X164395750Y-74550000D01*
X162850000Y-74600000D02*
X164345750Y-74600000D01*
%TO.N,COL7*%
X167950000Y-66500000D02*
X168056250Y-66606250D01*
X217400000Y-67150000D02*
X217881541Y-67631541D01*
X160800000Y-65400000D02*
X166850000Y-65400000D01*
X157850000Y-68350000D02*
X160750000Y-65450000D01*
X166850000Y-65400000D02*
X167950000Y-66500000D01*
X186206250Y-66606250D02*
X216856250Y-66606250D01*
X216856250Y-66606250D02*
X217400000Y-67150000D01*
X217881541Y-67631541D02*
X217881541Y-77887734D01*
X168056250Y-66606250D02*
X186193750Y-66606250D01*
X160750000Y-65450000D02*
X160800000Y-65400000D01*
X186193750Y-66606250D02*
X186200000Y-66600000D01*
X186200000Y-66600000D02*
X186206250Y-66606250D01*
X157850000Y-80397000D02*
X157850000Y-68350000D01*
%TO.N,COL8*%
X181398900Y-89043996D02*
X184041070Y-89043996D01*
X200300000Y-89050000D02*
X203250000Y-89050000D01*
X181382284Y-89027380D02*
X181398900Y-89043996D01*
X214950000Y-87492000D02*
X214950000Y-84000000D01*
X214400000Y-88042000D02*
X214950000Y-87492000D01*
%TO.N,COL9*%
X176950000Y-83350000D02*
X178800000Y-83350000D01*
X216300000Y-91600000D02*
X215900000Y-91600000D01*
X176500000Y-83800000D02*
X176900000Y-83400000D01*
X176900000Y-83400000D02*
X176950000Y-83350000D01*
X203135066Y-91600000D02*
X199700000Y-91600000D01*
X162850000Y-83450000D02*
X164395750Y-83450000D01*
X217050000Y-83650000D02*
X217050000Y-90850000D01*
X203141070Y-91593996D02*
X203135066Y-91600000D01*
X217050000Y-90850000D02*
X216300000Y-91600000D01*
X173800000Y-83800000D02*
X176500000Y-83800000D01*
%TO.N,COL10*%
X211955750Y-85550000D02*
X211850000Y-85655750D01*
X177050000Y-84150000D02*
X196450000Y-84150000D01*
X174950000Y-84750000D02*
X176450000Y-84750000D01*
X162900000Y-84750000D02*
X164395750Y-84750000D01*
X176450000Y-84750000D02*
X177050000Y-84150000D01*
X213750000Y-85550000D02*
X211955750Y-85550000D01*
%TO.N,ROW8*%
X201000000Y-89850000D02*
X202495750Y-89850000D01*
X181950000Y-89850000D02*
X183450000Y-89850000D01*
X162946750Y-89850000D02*
X164400000Y-89850000D01*
%TO.N,ROW9*%
X184104605Y-90605313D02*
X184059918Y-90650000D01*
X165050000Y-90650000D02*
X162300000Y-90650000D01*
X203550000Y-90600000D02*
X200250000Y-90600000D01*
X184059918Y-90650000D02*
X181150000Y-90650000D01*
%TO.N,+5V*%
X202550000Y-69550000D02*
X201046750Y-69550000D01*
X164395750Y-69550000D02*
X162850000Y-69550000D01*
X183445750Y-69550000D02*
X181996750Y-69550000D01*
%TD*%
%TA.AperFunction,Conductor*%
%TO.N,GND*%
G36*
X226188767Y-52897501D02*
G01*
X226212463Y-52901191D01*
X226228757Y-52899061D01*
X226253329Y-52898268D01*
X226454942Y-52911486D01*
X226471272Y-52913635D01*
X226695349Y-52958211D01*
X226711260Y-52962475D01*
X226829728Y-53002691D01*
X226927595Y-53035914D01*
X226942821Y-53042222D01*
X227147701Y-53143260D01*
X227161974Y-53151500D01*
X227351924Y-53278422D01*
X227364999Y-53288455D01*
X227536760Y-53439085D01*
X227548415Y-53450740D01*
X227699045Y-53622501D01*
X227709078Y-53635576D01*
X227836000Y-53825526D01*
X227844240Y-53839799D01*
X227945278Y-54044679D01*
X227951586Y-54059905D01*
X228025024Y-54276236D01*
X228029289Y-54292151D01*
X228059633Y-54444684D01*
X228073864Y-54516223D01*
X228076015Y-54532564D01*
X228088762Y-54727004D01*
X228087733Y-54750131D01*
X228087691Y-54753610D01*
X228086309Y-54762485D01*
X228087474Y-54771389D01*
X228090436Y-54794041D01*
X228091500Y-54810381D01*
X228091500Y-107106880D01*
X228089999Y-107126267D01*
X228086309Y-107149963D01*
X228087473Y-107158866D01*
X228088439Y-107166254D01*
X228089232Y-107190831D01*
X228076015Y-107392436D01*
X228073865Y-107408772D01*
X228029290Y-107632845D01*
X228025024Y-107648764D01*
X227951586Y-107865095D01*
X227945278Y-107880321D01*
X227844240Y-108085201D01*
X227836000Y-108099474D01*
X227709078Y-108289424D01*
X227699045Y-108302499D01*
X227548415Y-108474260D01*
X227536760Y-108485915D01*
X227364999Y-108636545D01*
X227351924Y-108646578D01*
X227161974Y-108773500D01*
X227147701Y-108781740D01*
X226942821Y-108882778D01*
X226927595Y-108889086D01*
X226886608Y-108903000D01*
X226711260Y-108962525D01*
X226695349Y-108966789D01*
X226471272Y-109011365D01*
X226454942Y-109013514D01*
X226315614Y-109022649D01*
X226260496Y-109026262D01*
X226237369Y-109025233D01*
X226233890Y-109025191D01*
X226225015Y-109023809D01*
X226195994Y-109027604D01*
X226193459Y-109027936D01*
X226177119Y-109029000D01*
X215232250Y-109029000D01*
X215164129Y-109008998D01*
X215117636Y-108955342D01*
X215106250Y-108903000D01*
X215106250Y-105568750D01*
X220736835Y-105568750D01*
X220755465Y-105805461D01*
X220756619Y-105810268D01*
X220756620Y-105810274D01*
X220786601Y-105935151D01*
X220810895Y-106036344D01*
X220901760Y-106255713D01*
X220904346Y-106259933D01*
X221023241Y-106453952D01*
X221023245Y-106453958D01*
X221025824Y-106458166D01*
X221180031Y-106638719D01*
X221360584Y-106792926D01*
X221364792Y-106795505D01*
X221364798Y-106795509D01*
X221558817Y-106914404D01*
X221563037Y-106916990D01*
X221567607Y-106918883D01*
X221567611Y-106918885D01*
X221777833Y-107005961D01*
X221782406Y-107007855D01*
X221862609Y-107027110D01*
X222008476Y-107062130D01*
X222008482Y-107062131D01*
X222013289Y-107063285D01*
X222250000Y-107081915D01*
X222486711Y-107063285D01*
X222491518Y-107062131D01*
X222491524Y-107062130D01*
X222637391Y-107027110D01*
X222717594Y-107007855D01*
X222722167Y-107005961D01*
X222932389Y-106918885D01*
X222932393Y-106918883D01*
X222936963Y-106916990D01*
X222941183Y-106914404D01*
X223135202Y-106795509D01*
X223135208Y-106795505D01*
X223139416Y-106792926D01*
X223319969Y-106638719D01*
X223474176Y-106458166D01*
X223476755Y-106453958D01*
X223476759Y-106453952D01*
X223595654Y-106259933D01*
X223598240Y-106255713D01*
X223689105Y-106036344D01*
X223713399Y-105935151D01*
X223743380Y-105810274D01*
X223743381Y-105810268D01*
X223744535Y-105805461D01*
X223763165Y-105568750D01*
X223744535Y-105332039D01*
X223736581Y-105298905D01*
X223690260Y-105105968D01*
X223689105Y-105101156D01*
X223598240Y-104881787D01*
X223595654Y-104877567D01*
X223476759Y-104683548D01*
X223476755Y-104683542D01*
X223474176Y-104679334D01*
X223319969Y-104498781D01*
X223139416Y-104344574D01*
X223135208Y-104341995D01*
X223135202Y-104341991D01*
X222941183Y-104223096D01*
X222936963Y-104220510D01*
X222932393Y-104218617D01*
X222932389Y-104218615D01*
X222722167Y-104131539D01*
X222722165Y-104131538D01*
X222717594Y-104129645D01*
X222637391Y-104110390D01*
X222491524Y-104075370D01*
X222491518Y-104075369D01*
X222486711Y-104074215D01*
X222250000Y-104055585D01*
X222013289Y-104074215D01*
X222008482Y-104075369D01*
X222008476Y-104075370D01*
X221862609Y-104110390D01*
X221782406Y-104129645D01*
X221777835Y-104131538D01*
X221777833Y-104131539D01*
X221567611Y-104218615D01*
X221567607Y-104218617D01*
X221563037Y-104220510D01*
X221558817Y-104223096D01*
X221364798Y-104341991D01*
X221364792Y-104341995D01*
X221360584Y-104344574D01*
X221180031Y-104498781D01*
X221025824Y-104679334D01*
X221023245Y-104683542D01*
X221023241Y-104683548D01*
X220904346Y-104877567D01*
X220901760Y-104881787D01*
X220810895Y-105101156D01*
X220809740Y-105105968D01*
X220763420Y-105298905D01*
X220755465Y-105332039D01*
X220737308Y-105562745D01*
X220736835Y-105568750D01*
X215106250Y-105568750D01*
X215106250Y-93941355D01*
X215126252Y-93873234D01*
X215158188Y-93839420D01*
X215211253Y-93800866D01*
X215215675Y-93795955D01*
X215334621Y-93663852D01*
X215334622Y-93663851D01*
X215339040Y-93658944D01*
X215421378Y-93516331D01*
X215431223Y-93499279D01*
X215431224Y-93499278D01*
X215434527Y-93493556D01*
X215493542Y-93311928D01*
X215496411Y-93284637D01*
X215512814Y-93128565D01*
X215513504Y-93122000D01*
X215493542Y-92932072D01*
X215434527Y-92750444D01*
X215385465Y-92665466D01*
X220824507Y-92665466D01*
X220854815Y-92799946D01*
X220857895Y-92809775D01*
X220938020Y-93007103D01*
X220942663Y-93016294D01*
X221053944Y-93197888D01*
X221060027Y-93206199D01*
X221199463Y-93367167D01*
X221206830Y-93374383D01*
X221370684Y-93510416D01*
X221379131Y-93516331D01*
X221563006Y-93623779D01*
X221572292Y-93628229D01*
X221771251Y-93704203D01*
X221781149Y-93707079D01*
X221884500Y-93728106D01*
X221898549Y-93726910D01*
X221902250Y-93716565D01*
X221902250Y-92669615D01*
X221897775Y-92654376D01*
X221896385Y-92653171D01*
X221888702Y-92651500D01*
X220839475Y-92651500D01*
X220825944Y-92655473D01*
X220824507Y-92665466D01*
X215385465Y-92665466D01*
X215346168Y-92597401D01*
X215329430Y-92528408D01*
X215352650Y-92461316D01*
X215408457Y-92417429D01*
X215479132Y-92410680D01*
X215506535Y-92419296D01*
X215611677Y-92466108D01*
X215611685Y-92466111D01*
X215617712Y-92468794D01*
X215711113Y-92488647D01*
X215798056Y-92507128D01*
X215798061Y-92507128D01*
X215804513Y-92508500D01*
X215995487Y-92508500D01*
X216001939Y-92507128D01*
X216001944Y-92507128D01*
X216088888Y-92488647D01*
X216182288Y-92468794D01*
X216188321Y-92466108D01*
X216350722Y-92393803D01*
X216350724Y-92393802D01*
X216356752Y-92391118D01*
X216511253Y-92278866D01*
X216628948Y-92148152D01*
X216658442Y-92124012D01*
X216684532Y-92108582D01*
X216684536Y-92108579D01*
X216691362Y-92104542D01*
X216705683Y-92090221D01*
X216720717Y-92077380D01*
X216730694Y-92070131D01*
X216737107Y-92065472D01*
X216765298Y-92031395D01*
X216773288Y-92022616D01*
X217442247Y-91353657D01*
X217450537Y-91346113D01*
X217457018Y-91342000D01*
X217503659Y-91292332D01*
X217506413Y-91289491D01*
X217526134Y-91269770D01*
X217528612Y-91266575D01*
X217536318Y-91257553D01*
X217546123Y-91247112D01*
X217566586Y-91225321D01*
X217576346Y-91207568D01*
X217587199Y-91191045D01*
X217594753Y-91181306D01*
X217599613Y-91175041D01*
X217617176Y-91134457D01*
X217622383Y-91123827D01*
X217643695Y-91085060D01*
X217645666Y-91077383D01*
X217645668Y-91077378D01*
X217648732Y-91065442D01*
X217655138Y-91046730D01*
X217660033Y-91035419D01*
X217663181Y-91028145D01*
X217664421Y-91020317D01*
X217664423Y-91020310D01*
X217670099Y-90984476D01*
X217672505Y-90972856D01*
X217681528Y-90937711D01*
X217681528Y-90937710D01*
X217683500Y-90930030D01*
X217683500Y-90909776D01*
X217685051Y-90890065D01*
X217686980Y-90877886D01*
X217688220Y-90870057D01*
X217684059Y-90826038D01*
X217683500Y-90814181D01*
X217683500Y-89824195D01*
X220793501Y-89824195D01*
X220793798Y-89829348D01*
X220793798Y-89829351D01*
X220799261Y-89924090D01*
X220806360Y-90047215D01*
X220807497Y-90052261D01*
X220807498Y-90052267D01*
X220827369Y-90140439D01*
X220855472Y-90265139D01*
X220939516Y-90472116D01*
X220978299Y-90535405D01*
X221053541Y-90658188D01*
X221056237Y-90662588D01*
X221202500Y-90831438D01*
X221374376Y-90974132D01*
X221392078Y-90984476D01*
X221448205Y-91017274D01*
X221496929Y-91068912D01*
X221510000Y-91138695D01*
X221483269Y-91204467D01*
X221442812Y-91237827D01*
X221434707Y-91242046D01*
X221425988Y-91247536D01*
X221255683Y-91375405D01*
X221247976Y-91382248D01*
X221100840Y-91536217D01*
X221094354Y-91544227D01*
X220974348Y-91720149D01*
X220969250Y-91729123D01*
X220879588Y-91922283D01*
X220876025Y-91931970D01*
X220820639Y-92131683D01*
X220822162Y-92140107D01*
X220834542Y-92143500D01*
X222284250Y-92143500D01*
X222352371Y-92163502D01*
X222398864Y-92217158D01*
X222410250Y-92269500D01*
X222410250Y-93716017D01*
X222414314Y-93729859D01*
X222427728Y-93731893D01*
X222434434Y-93731034D01*
X222444512Y-93728892D01*
X222648505Y-93667691D01*
X222658092Y-93663933D01*
X222849345Y-93570239D01*
X222858195Y-93564964D01*
X223031578Y-93441292D01*
X223039450Y-93434639D01*
X223190302Y-93284312D01*
X223196980Y-93276465D01*
X223324272Y-93099319D01*
X223325529Y-93100222D01*
X223372623Y-93056862D01*
X223442561Y-93044645D01*
X223508001Y-93072178D01*
X223535829Y-93104011D01*
X223596237Y-93202588D01*
X223742500Y-93371438D01*
X223914376Y-93514132D01*
X224107250Y-93626838D01*
X224315942Y-93706530D01*
X224321010Y-93707561D01*
X224321013Y-93707562D01*
X224416112Y-93726910D01*
X224534847Y-93751067D01*
X224540022Y-93751257D01*
X224540024Y-93751257D01*
X224752923Y-93759064D01*
X224752927Y-93759064D01*
X224758087Y-93759253D01*
X224763207Y-93758597D01*
X224763209Y-93758597D01*
X224974538Y-93731525D01*
X224974539Y-93731525D01*
X224979666Y-93730868D01*
X224984616Y-93729383D01*
X225188679Y-93668161D01*
X225188684Y-93668159D01*
X225193634Y-93666674D01*
X225394244Y-93568396D01*
X225576110Y-93438673D01*
X225734346Y-93280989D01*
X225864703Y-93099577D01*
X225878245Y-93072178D01*
X225961386Y-92903953D01*
X225961387Y-92903951D01*
X225963680Y-92899311D01*
X226028620Y-92685569D01*
X226057779Y-92464090D01*
X226057861Y-92460740D01*
X226059324Y-92400865D01*
X226059324Y-92400861D01*
X226059406Y-92397500D01*
X226041102Y-92174861D01*
X225986681Y-91958202D01*
X225897604Y-91753340D01*
X225776264Y-91565777D01*
X225625920Y-91400551D01*
X225621869Y-91397352D01*
X225621865Y-91397348D01*
X225454664Y-91265300D01*
X225454660Y-91265298D01*
X225450609Y-91262098D01*
X225409303Y-91239296D01*
X225359334Y-91188864D01*
X225344562Y-91119421D01*
X225369678Y-91053016D01*
X225397030Y-91026409D01*
X225464040Y-90978611D01*
X225576110Y-90898673D01*
X225734346Y-90740989D01*
X225739447Y-90733891D01*
X225861685Y-90563777D01*
X225864703Y-90559577D01*
X225876650Y-90535405D01*
X225961386Y-90363953D01*
X225961387Y-90363951D01*
X225963680Y-90359311D01*
X226028620Y-90145569D01*
X226057779Y-89924090D01*
X226059406Y-89857500D01*
X226041102Y-89634861D01*
X225986681Y-89418202D01*
X225897604Y-89213340D01*
X225791935Y-89050000D01*
X225779072Y-89030117D01*
X225779070Y-89030114D01*
X225776264Y-89025777D01*
X225625920Y-88860551D01*
X225621869Y-88857352D01*
X225621865Y-88857348D01*
X225454664Y-88725300D01*
X225454660Y-88725298D01*
X225450609Y-88722098D01*
X225409303Y-88699296D01*
X225359334Y-88648864D01*
X225344562Y-88579421D01*
X225369678Y-88513016D01*
X225397030Y-88486409D01*
X225440853Y-88455150D01*
X225576110Y-88358673D01*
X225734346Y-88200989D01*
X225793844Y-88118189D01*
X225861685Y-88023777D01*
X225864703Y-88019577D01*
X225882428Y-87983714D01*
X225961386Y-87823953D01*
X225961387Y-87823951D01*
X225963680Y-87819311D01*
X226011378Y-87662318D01*
X226027115Y-87610523D01*
X226027115Y-87610521D01*
X226028620Y-87605569D01*
X226057779Y-87384090D01*
X226059406Y-87317500D01*
X226041102Y-87094861D01*
X225986681Y-86878202D01*
X225897604Y-86673340D01*
X225776264Y-86485777D01*
X225625920Y-86320551D01*
X225621869Y-86317352D01*
X225621865Y-86317348D01*
X225454664Y-86185300D01*
X225454660Y-86185298D01*
X225450609Y-86182098D01*
X225409303Y-86159296D01*
X225359334Y-86108864D01*
X225344562Y-86039421D01*
X225369678Y-85973016D01*
X225397030Y-85946409D01*
X225440853Y-85915150D01*
X225576110Y-85818673D01*
X225734346Y-85660989D01*
X225793844Y-85578189D01*
X225861685Y-85483777D01*
X225864703Y-85479577D01*
X225885570Y-85437357D01*
X225961386Y-85283953D01*
X225961387Y-85283951D01*
X225963680Y-85279311D01*
X226028620Y-85065569D01*
X226057779Y-84844090D01*
X226059406Y-84777500D01*
X226041102Y-84554861D01*
X225986681Y-84338202D01*
X225897604Y-84133340D01*
X225821222Y-84015271D01*
X225779072Y-83950117D01*
X225779070Y-83950114D01*
X225776264Y-83945777D01*
X225625920Y-83780551D01*
X225621869Y-83777352D01*
X225621865Y-83777348D01*
X225454664Y-83645300D01*
X225454660Y-83645298D01*
X225450609Y-83642098D01*
X225409303Y-83619296D01*
X225359334Y-83568864D01*
X225344562Y-83499421D01*
X225369678Y-83433016D01*
X225397030Y-83406409D01*
X225440853Y-83375150D01*
X225576110Y-83278673D01*
X225734346Y-83120989D01*
X225740047Y-83113056D01*
X225861685Y-82943777D01*
X225864703Y-82939577D01*
X225885570Y-82897357D01*
X225961386Y-82743953D01*
X225961387Y-82743951D01*
X225963680Y-82739311D01*
X226028620Y-82525569D01*
X226057779Y-82304090D01*
X226059406Y-82237500D01*
X226041102Y-82014861D01*
X225986681Y-81798202D01*
X225897604Y-81593340D01*
X225776264Y-81405777D01*
X225625920Y-81240551D01*
X225621869Y-81237352D01*
X225621865Y-81237348D01*
X225454664Y-81105300D01*
X225454660Y-81105298D01*
X225450609Y-81102098D01*
X225409303Y-81079296D01*
X225359334Y-81028864D01*
X225344562Y-80959421D01*
X225369678Y-80893016D01*
X225397030Y-80866409D01*
X225440853Y-80835150D01*
X225576110Y-80738673D01*
X225734346Y-80580989D01*
X225793844Y-80498189D01*
X225861685Y-80403777D01*
X225864703Y-80399577D01*
X225885570Y-80357357D01*
X225961386Y-80203953D01*
X225961387Y-80203951D01*
X225963680Y-80199311D01*
X226028620Y-79985569D01*
X226057779Y-79764090D01*
X226059406Y-79697500D01*
X226041102Y-79474861D01*
X225986681Y-79258202D01*
X225897604Y-79053340D01*
X225776264Y-78865777D01*
X225625920Y-78700551D01*
X225621869Y-78697352D01*
X225621865Y-78697348D01*
X225454664Y-78565300D01*
X225454660Y-78565298D01*
X225450609Y-78562098D01*
X225409303Y-78539296D01*
X225359334Y-78488864D01*
X225344562Y-78419421D01*
X225369678Y-78353016D01*
X225397030Y-78326409D01*
X225440853Y-78295150D01*
X225576110Y-78198673D01*
X225734346Y-78040989D01*
X225793844Y-77958189D01*
X225861685Y-77863777D01*
X225864703Y-77859577D01*
X225885570Y-77817357D01*
X225961386Y-77663953D01*
X225961387Y-77663951D01*
X225963680Y-77659311D01*
X226028620Y-77445569D01*
X226057779Y-77224090D01*
X226059406Y-77157500D01*
X226041102Y-76934861D01*
X225986681Y-76718202D01*
X225897604Y-76513340D01*
X225776264Y-76325777D01*
X225625920Y-76160551D01*
X225621869Y-76157352D01*
X225621865Y-76157348D01*
X225454664Y-76025300D01*
X225454660Y-76025298D01*
X225450609Y-76022098D01*
X225409303Y-75999296D01*
X225359334Y-75948864D01*
X225344562Y-75879421D01*
X225369678Y-75813016D01*
X225397030Y-75786409D01*
X225440853Y-75755150D01*
X225576110Y-75658673D01*
X225734346Y-75500989D01*
X225793844Y-75418189D01*
X225861685Y-75323777D01*
X225864703Y-75319577D01*
X225885570Y-75277357D01*
X225961386Y-75123953D01*
X225961387Y-75123951D01*
X225963680Y-75119311D01*
X226028620Y-74905569D01*
X226057779Y-74684090D01*
X226059406Y-74617500D01*
X226041102Y-74394861D01*
X225986681Y-74178202D01*
X225897604Y-73973340D01*
X225776264Y-73785777D01*
X225625920Y-73620551D01*
X225621869Y-73617352D01*
X225621865Y-73617348D01*
X225454664Y-73485300D01*
X225454660Y-73485298D01*
X225450609Y-73482098D01*
X225409303Y-73459296D01*
X225359334Y-73408864D01*
X225344562Y-73339421D01*
X225369678Y-73273016D01*
X225397030Y-73246409D01*
X225440853Y-73215150D01*
X225576110Y-73118673D01*
X225734346Y-72960989D01*
X225793844Y-72878189D01*
X225861685Y-72783777D01*
X225864703Y-72779577D01*
X225885570Y-72737357D01*
X225961386Y-72583953D01*
X225961387Y-72583951D01*
X225963680Y-72579311D01*
X226028620Y-72365569D01*
X226057779Y-72144090D01*
X226059406Y-72077500D01*
X226041102Y-71854861D01*
X225986681Y-71638202D01*
X225897604Y-71433340D01*
X225776264Y-71245777D01*
X225625920Y-71080551D01*
X225621869Y-71077352D01*
X225621865Y-71077348D01*
X225454664Y-70945300D01*
X225454660Y-70945298D01*
X225450609Y-70942098D01*
X225409303Y-70919296D01*
X225359334Y-70868864D01*
X225344562Y-70799421D01*
X225369678Y-70733016D01*
X225397030Y-70706409D01*
X225440853Y-70675150D01*
X225576110Y-70578673D01*
X225734346Y-70420989D01*
X225864703Y-70239577D01*
X225963680Y-70039311D01*
X226028620Y-69825569D01*
X226057779Y-69604090D01*
X226059406Y-69537500D01*
X226041102Y-69314861D01*
X225986681Y-69098202D01*
X225897604Y-68893340D01*
X225776264Y-68705777D01*
X225625920Y-68540551D01*
X225621869Y-68537352D01*
X225621865Y-68537348D01*
X225454664Y-68405300D01*
X225454660Y-68405298D01*
X225450609Y-68402098D01*
X225255039Y-68294138D01*
X225250170Y-68292414D01*
X225250166Y-68292412D01*
X225049337Y-68221295D01*
X225049333Y-68221294D01*
X225044462Y-68219569D01*
X225039369Y-68218662D01*
X225039366Y-68218661D01*
X224829623Y-68181300D01*
X224829617Y-68181299D01*
X224824534Y-68180394D01*
X224750702Y-68179492D01*
X224606331Y-68177728D01*
X224606329Y-68177728D01*
X224601161Y-68177665D01*
X224380341Y-68211455D01*
X224168006Y-68280857D01*
X223969857Y-68384007D01*
X223965724Y-68387110D01*
X223965721Y-68387112D01*
X223795350Y-68515030D01*
X223791215Y-68518135D01*
X223734787Y-68577184D01*
X223710533Y-68602564D01*
X223649009Y-68637994D01*
X223578096Y-68634537D01*
X223520310Y-68593291D01*
X223501457Y-68559743D01*
X223460017Y-68449203D01*
X223456865Y-68440795D01*
X223369511Y-68324239D01*
X223252955Y-68236885D01*
X223116566Y-68185755D01*
X223054384Y-68179000D01*
X221258116Y-68179000D01*
X221195934Y-68185755D01*
X221059545Y-68236885D01*
X220942989Y-68324239D01*
X220855635Y-68440795D01*
X220804505Y-68577184D01*
X220797750Y-68639366D01*
X220797750Y-70435634D01*
X220804505Y-70497816D01*
X220855635Y-70634205D01*
X220942989Y-70750761D01*
X221059545Y-70838115D01*
X221067954Y-70841267D01*
X221067955Y-70841268D01*
X221176701Y-70882035D01*
X221233466Y-70924676D01*
X221258166Y-70991238D01*
X221242959Y-71060587D01*
X221223566Y-71087068D01*
X221096879Y-71219638D01*
X220970993Y-71404180D01*
X220876938Y-71606805D01*
X220817239Y-71822070D01*
X220793501Y-72044195D01*
X220793798Y-72049348D01*
X220793798Y-72049351D01*
X220799261Y-72144090D01*
X220806360Y-72267215D01*
X220807497Y-72272261D01*
X220807498Y-72272267D01*
X220827369Y-72360439D01*
X220855472Y-72485139D01*
X220939516Y-72692116D01*
X220990269Y-72774938D01*
X221053541Y-72878188D01*
X221056237Y-72882588D01*
X221202500Y-73051438D01*
X221374376Y-73194132D01*
X221444845Y-73235311D01*
X221447695Y-73236976D01*
X221496419Y-73288614D01*
X221509490Y-73358397D01*
X221482759Y-73424169D01*
X221442305Y-73457527D01*
X221429857Y-73464007D01*
X221425724Y-73467110D01*
X221425721Y-73467112D01*
X221401497Y-73485300D01*
X221251215Y-73598135D01*
X221096879Y-73759638D01*
X220970993Y-73944180D01*
X220876938Y-74146805D01*
X220817239Y-74362070D01*
X220793501Y-74584195D01*
X220793798Y-74589348D01*
X220793798Y-74589351D01*
X220799261Y-74684090D01*
X220806360Y-74807215D01*
X220807497Y-74812261D01*
X220807498Y-74812267D01*
X220827369Y-74900439D01*
X220855472Y-75025139D01*
X220939516Y-75232116D01*
X220990269Y-75314938D01*
X221053541Y-75418188D01*
X221056237Y-75422588D01*
X221202500Y-75591438D01*
X221374376Y-75734132D01*
X221444845Y-75775311D01*
X221447695Y-75776976D01*
X221496419Y-75828614D01*
X221509490Y-75898397D01*
X221482759Y-75964169D01*
X221442305Y-75997527D01*
X221429857Y-76004007D01*
X221425724Y-76007110D01*
X221425721Y-76007112D01*
X221401497Y-76025300D01*
X221251215Y-76138135D01*
X221096879Y-76299638D01*
X220970993Y-76484180D01*
X220876938Y-76686805D01*
X220817239Y-76902070D01*
X220793501Y-77124195D01*
X220793798Y-77129348D01*
X220793798Y-77129351D01*
X220799261Y-77224090D01*
X220806360Y-77347215D01*
X220807497Y-77352261D01*
X220807498Y-77352267D01*
X220808454Y-77356508D01*
X220855472Y-77565139D01*
X220939516Y-77772116D01*
X220990269Y-77854938D01*
X221053541Y-77958188D01*
X221056237Y-77962588D01*
X221202500Y-78131438D01*
X221374376Y-78274132D01*
X221444845Y-78315311D01*
X221447695Y-78316976D01*
X221496419Y-78368614D01*
X221509490Y-78438397D01*
X221482759Y-78504169D01*
X221442305Y-78537527D01*
X221429857Y-78544007D01*
X221425724Y-78547110D01*
X221425721Y-78547112D01*
X221394594Y-78570483D01*
X221251215Y-78678135D01*
X221247643Y-78681873D01*
X221104662Y-78831494D01*
X221096879Y-78839638D01*
X220970993Y-79024180D01*
X220876938Y-79226805D01*
X220817239Y-79442070D01*
X220793501Y-79664195D01*
X220793798Y-79669348D01*
X220793798Y-79669351D01*
X220799261Y-79764090D01*
X220806360Y-79887215D01*
X220807497Y-79892261D01*
X220807498Y-79892267D01*
X220827369Y-79980439D01*
X220855472Y-80105139D01*
X220939516Y-80312116D01*
X220990269Y-80394938D01*
X221053541Y-80498188D01*
X221056237Y-80502588D01*
X221202500Y-80671438D01*
X221374376Y-80814132D01*
X221444845Y-80855311D01*
X221447695Y-80856976D01*
X221496419Y-80908614D01*
X221509490Y-80978397D01*
X221482759Y-81044169D01*
X221442305Y-81077527D01*
X221429857Y-81084007D01*
X221425724Y-81087110D01*
X221425721Y-81087112D01*
X221401497Y-81105300D01*
X221251215Y-81218135D01*
X221096879Y-81379638D01*
X220970993Y-81564180D01*
X220876938Y-81766805D01*
X220817239Y-81982070D01*
X220793501Y-82204195D01*
X220793798Y-82209348D01*
X220793798Y-82209351D01*
X220799261Y-82304090D01*
X220806360Y-82427215D01*
X220807497Y-82432261D01*
X220807498Y-82432267D01*
X220827369Y-82520439D01*
X220855472Y-82645139D01*
X220939516Y-82852116D01*
X220990269Y-82934938D01*
X221053541Y-83038188D01*
X221056237Y-83042588D01*
X221202500Y-83211438D01*
X221374376Y-83354132D01*
X221444845Y-83395311D01*
X221447695Y-83396976D01*
X221496419Y-83448614D01*
X221509490Y-83518397D01*
X221482759Y-83584169D01*
X221442305Y-83617527D01*
X221429857Y-83624007D01*
X221425724Y-83627110D01*
X221425721Y-83627112D01*
X221255350Y-83755030D01*
X221251215Y-83758135D01*
X221096879Y-83919638D01*
X220970993Y-84104180D01*
X220955253Y-84138090D01*
X220887337Y-84284403D01*
X220876938Y-84306805D01*
X220817239Y-84522070D01*
X220793501Y-84744195D01*
X220793798Y-84749348D01*
X220793798Y-84749351D01*
X220799261Y-84844090D01*
X220806360Y-84967215D01*
X220807497Y-84972261D01*
X220807498Y-84972267D01*
X220827369Y-85060439D01*
X220855472Y-85185139D01*
X220939516Y-85392116D01*
X220990269Y-85474938D01*
X221053541Y-85578188D01*
X221056237Y-85582588D01*
X221202500Y-85751438D01*
X221374376Y-85894132D01*
X221444845Y-85935311D01*
X221447695Y-85936976D01*
X221496419Y-85988614D01*
X221509490Y-86058397D01*
X221482759Y-86124169D01*
X221442305Y-86157527D01*
X221429857Y-86164007D01*
X221425724Y-86167110D01*
X221425721Y-86167112D01*
X221401497Y-86185300D01*
X221251215Y-86298135D01*
X221096879Y-86459638D01*
X220970993Y-86644180D01*
X220955253Y-86678090D01*
X220879578Y-86841118D01*
X220876938Y-86846805D01*
X220817239Y-87062070D01*
X220793501Y-87284195D01*
X220793798Y-87289348D01*
X220793798Y-87289351D01*
X220799261Y-87384090D01*
X220806360Y-87507215D01*
X220807497Y-87512261D01*
X220807498Y-87512267D01*
X220819180Y-87564101D01*
X220855472Y-87725139D01*
X220905997Y-87849568D01*
X220929960Y-87908581D01*
X220939516Y-87932116D01*
X220982324Y-88001972D01*
X221053541Y-88118188D01*
X221056237Y-88122588D01*
X221202500Y-88291438D01*
X221374376Y-88434132D01*
X221410837Y-88455438D01*
X221447695Y-88476976D01*
X221496419Y-88528614D01*
X221509490Y-88598397D01*
X221482759Y-88664169D01*
X221442305Y-88697527D01*
X221429857Y-88704007D01*
X221425724Y-88707110D01*
X221425721Y-88707112D01*
X221401497Y-88725300D01*
X221251215Y-88838135D01*
X221096879Y-88999638D01*
X220970993Y-89184180D01*
X220876938Y-89386805D01*
X220817239Y-89602070D01*
X220793501Y-89824195D01*
X217683500Y-89824195D01*
X217683500Y-84352524D01*
X217703502Y-84284403D01*
X217715858Y-84268221D01*
X217789040Y-84186944D01*
X217884527Y-84021556D01*
X217943542Y-83839928D01*
X217963504Y-83650000D01*
X217943542Y-83460072D01*
X217884527Y-83278444D01*
X217789040Y-83113056D01*
X217725591Y-83042588D01*
X217665675Y-82976045D01*
X217665674Y-82976044D01*
X217661253Y-82971134D01*
X217542872Y-82885125D01*
X217512094Y-82862763D01*
X217512093Y-82862762D01*
X217506752Y-82858882D01*
X217500724Y-82856198D01*
X217500722Y-82856197D01*
X217338319Y-82783891D01*
X217338318Y-82783891D01*
X217332288Y-82781206D01*
X217238887Y-82761353D01*
X217151944Y-82742872D01*
X217151939Y-82742872D01*
X217145487Y-82741500D01*
X216954513Y-82741500D01*
X216948061Y-82742872D01*
X216948056Y-82742872D01*
X216861113Y-82761353D01*
X216767712Y-82781206D01*
X216761682Y-82783891D01*
X216761681Y-82783891D01*
X216760747Y-82784307D01*
X216760158Y-82784386D01*
X216755400Y-82785932D01*
X216755117Y-82785062D01*
X216690380Y-82793740D01*
X216626083Y-82763632D01*
X216588271Y-82703543D01*
X216583500Y-82669199D01*
X216583500Y-79256492D01*
X216603502Y-79188371D01*
X216657158Y-79141878D01*
X216727432Y-79131774D01*
X216735697Y-79133245D01*
X216848056Y-79157128D01*
X216848061Y-79157128D01*
X216854513Y-79158500D01*
X217045487Y-79158500D01*
X217051939Y-79157128D01*
X217051944Y-79157128D01*
X217138887Y-79138647D01*
X217232288Y-79118794D01*
X217238319Y-79116109D01*
X217400722Y-79043803D01*
X217400724Y-79043802D01*
X217406752Y-79041118D01*
X217437143Y-79019038D01*
X217470842Y-78994554D01*
X217561253Y-78928866D01*
X217648927Y-78831494D01*
X217709373Y-78794254D01*
X217768761Y-78792558D01*
X217786054Y-78796234D01*
X217977028Y-78796234D01*
X217983480Y-78794862D01*
X217983485Y-78794862D01*
X218070428Y-78776381D01*
X218163829Y-78756528D01*
X218169860Y-78753843D01*
X218332263Y-78681537D01*
X218332265Y-78681536D01*
X218338293Y-78678852D01*
X218492794Y-78566600D01*
X218517378Y-78539297D01*
X218616162Y-78429586D01*
X218616163Y-78429585D01*
X218620581Y-78424678D01*
X218716068Y-78259290D01*
X218775083Y-78077662D01*
X218778938Y-78040989D01*
X218794355Y-77894299D01*
X218795045Y-77887734D01*
X218775083Y-77697806D01*
X218716068Y-77516178D01*
X218620581Y-77350790D01*
X218547404Y-77269519D01*
X218516688Y-77205513D01*
X218515041Y-77185210D01*
X218515041Y-67710308D01*
X218515568Y-67699125D01*
X218517243Y-67691632D01*
X218515103Y-67623541D01*
X218515041Y-67619584D01*
X218515041Y-67591685D01*
X218514537Y-67587694D01*
X218513604Y-67575852D01*
X218512464Y-67539577D01*
X218512215Y-67531652D01*
X218510003Y-67524038D01*
X218510002Y-67524033D01*
X218506564Y-67512200D01*
X218502553Y-67492836D01*
X218501008Y-67480605D01*
X218500015Y-67472744D01*
X218497098Y-67465377D01*
X218497097Y-67465372D01*
X218483739Y-67431633D01*
X218479895Y-67420406D01*
X218469771Y-67385563D01*
X218467559Y-67377948D01*
X218457248Y-67360513D01*
X218448553Y-67342765D01*
X218441093Y-67323924D01*
X218415105Y-67288154D01*
X218408589Y-67278234D01*
X218390121Y-67247006D01*
X218390119Y-67247003D01*
X218386083Y-67240179D01*
X218371762Y-67225858D01*
X218358921Y-67210824D01*
X218351673Y-67200848D01*
X218347013Y-67194434D01*
X218312948Y-67166253D01*
X218304167Y-67158263D01*
X217819778Y-66673873D01*
X217819770Y-66673865D01*
X217819766Y-66673862D01*
X217359897Y-66213992D01*
X217352363Y-66205713D01*
X217348250Y-66199232D01*
X217298598Y-66152606D01*
X217295757Y-66149852D01*
X217276020Y-66130115D01*
X217272823Y-66127635D01*
X217263801Y-66119930D01*
X217237350Y-66095091D01*
X217231571Y-66089664D01*
X217224625Y-66085845D01*
X217224622Y-66085843D01*
X217213816Y-66079902D01*
X217197297Y-66069051D01*
X217196833Y-66068691D01*
X217181291Y-66056636D01*
X217174022Y-66053491D01*
X217174018Y-66053488D01*
X217140713Y-66039076D01*
X217130063Y-66033859D01*
X217091310Y-66012555D01*
X217071687Y-66007517D01*
X217052984Y-66001113D01*
X217041670Y-65996217D01*
X217041669Y-65996217D01*
X217034395Y-65993069D01*
X217026572Y-65991830D01*
X217026562Y-65991827D01*
X216990726Y-65986151D01*
X216979106Y-65983745D01*
X216943961Y-65974722D01*
X216943960Y-65974722D01*
X216936280Y-65972750D01*
X216916026Y-65972750D01*
X216896315Y-65971199D01*
X216884136Y-65969270D01*
X216876307Y-65968030D01*
X216868415Y-65968776D01*
X216832289Y-65972191D01*
X216820431Y-65972750D01*
X215232250Y-65972750D01*
X215164129Y-65952748D01*
X215117636Y-65899092D01*
X215106250Y-65846750D01*
X215106250Y-56356250D01*
X220736835Y-56356250D01*
X220755465Y-56592961D01*
X220756619Y-56597768D01*
X220756620Y-56597774D01*
X220786601Y-56722651D01*
X220810895Y-56823844D01*
X220901760Y-57043213D01*
X220904346Y-57047433D01*
X221023241Y-57241452D01*
X221023245Y-57241458D01*
X221025824Y-57245666D01*
X221180031Y-57426219D01*
X221360584Y-57580426D01*
X221364792Y-57583005D01*
X221364798Y-57583009D01*
X221558817Y-57701904D01*
X221563037Y-57704490D01*
X221567607Y-57706383D01*
X221567611Y-57706385D01*
X221777833Y-57793461D01*
X221782406Y-57795355D01*
X221862609Y-57814610D01*
X222008476Y-57849630D01*
X222008482Y-57849631D01*
X222013289Y-57850785D01*
X222250000Y-57869415D01*
X222486711Y-57850785D01*
X222491518Y-57849631D01*
X222491524Y-57849630D01*
X222637391Y-57814610D01*
X222717594Y-57795355D01*
X222722167Y-57793461D01*
X222932389Y-57706385D01*
X222932393Y-57706383D01*
X222936963Y-57704490D01*
X222941183Y-57701904D01*
X223135202Y-57583009D01*
X223135208Y-57583005D01*
X223139416Y-57580426D01*
X223319969Y-57426219D01*
X223474176Y-57245666D01*
X223476755Y-57241458D01*
X223476759Y-57241452D01*
X223595654Y-57047433D01*
X223598240Y-57043213D01*
X223689105Y-56823844D01*
X223713399Y-56722651D01*
X223743380Y-56597774D01*
X223743381Y-56597768D01*
X223744535Y-56592961D01*
X223763165Y-56356250D01*
X223744535Y-56119539D01*
X223736581Y-56086405D01*
X223690260Y-55893468D01*
X223689105Y-55888656D01*
X223598240Y-55669287D01*
X223595654Y-55665067D01*
X223476759Y-55471048D01*
X223476755Y-55471042D01*
X223474176Y-55466834D01*
X223319969Y-55286281D01*
X223139416Y-55132074D01*
X223135208Y-55129495D01*
X223135202Y-55129491D01*
X222941183Y-55010596D01*
X222936963Y-55008010D01*
X222932393Y-55006117D01*
X222932389Y-55006115D01*
X222722167Y-54919039D01*
X222722165Y-54919038D01*
X222717594Y-54917145D01*
X222637391Y-54897890D01*
X222491524Y-54862870D01*
X222491518Y-54862869D01*
X222486711Y-54861715D01*
X222250000Y-54843085D01*
X222013289Y-54861715D01*
X222008482Y-54862869D01*
X222008476Y-54862870D01*
X221862609Y-54897890D01*
X221782406Y-54917145D01*
X221777835Y-54919038D01*
X221777833Y-54919039D01*
X221567611Y-55006115D01*
X221567607Y-55006117D01*
X221563037Y-55008010D01*
X221558817Y-55010596D01*
X221364798Y-55129491D01*
X221364792Y-55129495D01*
X221360584Y-55132074D01*
X221180031Y-55286281D01*
X221025824Y-55466834D01*
X221023245Y-55471042D01*
X221023241Y-55471048D01*
X220904346Y-55665067D01*
X220901760Y-55669287D01*
X220810895Y-55888656D01*
X220809740Y-55893468D01*
X220763420Y-56086405D01*
X220755465Y-56119539D01*
X220737308Y-56350245D01*
X220736835Y-56356250D01*
X215106250Y-56356250D01*
X215106250Y-53022000D01*
X215126252Y-52953879D01*
X215179908Y-52907386D01*
X215232250Y-52896000D01*
X226169380Y-52896000D01*
X226188767Y-52897501D01*
G37*
%TD.AperFunction*%
%TD*%
%TA.AperFunction,Conductor*%
%TO.N,GND*%
G36*
X157898371Y-52916002D02*
G01*
X157944864Y-52969658D01*
X157956250Y-53022000D01*
X157956250Y-67295655D01*
X157936248Y-67363776D01*
X157919345Y-67384750D01*
X157457747Y-67846348D01*
X157449461Y-67853888D01*
X157442982Y-67858000D01*
X157437557Y-67863777D01*
X157396357Y-67907651D01*
X157393602Y-67910493D01*
X157373865Y-67930230D01*
X157371385Y-67933427D01*
X157363682Y-67942447D01*
X157333414Y-67974679D01*
X157329595Y-67981625D01*
X157329593Y-67981628D01*
X157323652Y-67992434D01*
X157312801Y-68008953D01*
X157300386Y-68024959D01*
X157297241Y-68032228D01*
X157297238Y-68032232D01*
X157282826Y-68065537D01*
X157277609Y-68076187D01*
X157256305Y-68114940D01*
X157254334Y-68122615D01*
X157254334Y-68122616D01*
X157251267Y-68134562D01*
X157244863Y-68153266D01*
X157243970Y-68155331D01*
X157236819Y-68171855D01*
X157235580Y-68179678D01*
X157235577Y-68179688D01*
X157229901Y-68215524D01*
X157227495Y-68227144D01*
X157216500Y-68269970D01*
X157216500Y-68290224D01*
X157214949Y-68309934D01*
X157211780Y-68329943D01*
X157212526Y-68337835D01*
X157215941Y-68373961D01*
X157216500Y-68385819D01*
X157216500Y-79694476D01*
X157196498Y-79762597D01*
X157184142Y-79778779D01*
X157110960Y-79860056D01*
X157015473Y-80025444D01*
X156956458Y-80207072D01*
X156936496Y-80397000D01*
X156937186Y-80403565D01*
X156953590Y-80559637D01*
X156956458Y-80586928D01*
X157015473Y-80768556D01*
X157018776Y-80774278D01*
X157018777Y-80774279D01*
X157028859Y-80791742D01*
X157110960Y-80933944D01*
X157115378Y-80938851D01*
X157115379Y-80938852D01*
X157142649Y-80969138D01*
X157238747Y-81075866D01*
X157393248Y-81188118D01*
X157399276Y-81190802D01*
X157399278Y-81190803D01*
X157463441Y-81219370D01*
X157567712Y-81265794D01*
X157661112Y-81285647D01*
X157748056Y-81304128D01*
X157748061Y-81304128D01*
X157754513Y-81305500D01*
X157830250Y-81305500D01*
X157898371Y-81325502D01*
X157944864Y-81379158D01*
X157956250Y-81431500D01*
X157956250Y-108903000D01*
X157936248Y-108971121D01*
X157882592Y-109017614D01*
X157830250Y-109029000D01*
X147686867Y-109029000D01*
X147667482Y-109027500D01*
X147652649Y-109025190D01*
X147652645Y-109025190D01*
X147643776Y-109023809D01*
X147634874Y-109024973D01*
X147634871Y-109024973D01*
X147627488Y-109025939D01*
X147602909Y-109026733D01*
X147558299Y-109023809D01*
X147401296Y-109013518D01*
X147384957Y-109011367D01*
X147160889Y-108966799D01*
X147144971Y-108962534D01*
X146928636Y-108889098D01*
X146913419Y-108882795D01*
X146708523Y-108781754D01*
X146694250Y-108773514D01*
X146504294Y-108646591D01*
X146491219Y-108636558D01*
X146319453Y-108485927D01*
X146307798Y-108474273D01*
X146157164Y-108302512D01*
X146147131Y-108289436D01*
X146020210Y-108099491D01*
X146011969Y-108085218D01*
X145910924Y-107880327D01*
X145904616Y-107865100D01*
X145831176Y-107648762D01*
X145826911Y-107632843D01*
X145782339Y-107408788D01*
X145780187Y-107392447D01*
X145767453Y-107198221D01*
X145768526Y-107174095D01*
X145768559Y-107171393D01*
X145769941Y-107162515D01*
X145765814Y-107130959D01*
X145764750Y-107114619D01*
X145764750Y-105568750D01*
X150093085Y-105568750D01*
X150111715Y-105805461D01*
X150112869Y-105810268D01*
X150112870Y-105810274D01*
X150142851Y-105935151D01*
X150167145Y-106036344D01*
X150258010Y-106255713D01*
X150260596Y-106259933D01*
X150379491Y-106453952D01*
X150379495Y-106453958D01*
X150382074Y-106458166D01*
X150536281Y-106638719D01*
X150716834Y-106792926D01*
X150721042Y-106795505D01*
X150721048Y-106795509D01*
X150915067Y-106914404D01*
X150919287Y-106916990D01*
X150923857Y-106918883D01*
X150923861Y-106918885D01*
X151134083Y-107005961D01*
X151138656Y-107007855D01*
X151218859Y-107027110D01*
X151364726Y-107062130D01*
X151364732Y-107062131D01*
X151369539Y-107063285D01*
X151606250Y-107081915D01*
X151842961Y-107063285D01*
X151847768Y-107062131D01*
X151847774Y-107062130D01*
X151993641Y-107027110D01*
X152073844Y-107007855D01*
X152078417Y-107005961D01*
X152288639Y-106918885D01*
X152288643Y-106918883D01*
X152293213Y-106916990D01*
X152297433Y-106914404D01*
X152491452Y-106795509D01*
X152491458Y-106795505D01*
X152495666Y-106792926D01*
X152676219Y-106638719D01*
X152830426Y-106458166D01*
X152833005Y-106453958D01*
X152833009Y-106453952D01*
X152951904Y-106259933D01*
X152954490Y-106255713D01*
X153045355Y-106036344D01*
X153069649Y-105935151D01*
X153099630Y-105810274D01*
X153099631Y-105810268D01*
X153100785Y-105805461D01*
X153119415Y-105568750D01*
X153100785Y-105332039D01*
X153092831Y-105298905D01*
X153046510Y-105105968D01*
X153045355Y-105101156D01*
X152954490Y-104881787D01*
X152951904Y-104877567D01*
X152833009Y-104683548D01*
X152833005Y-104683542D01*
X152830426Y-104679334D01*
X152676219Y-104498781D01*
X152495666Y-104344574D01*
X152491458Y-104341995D01*
X152491452Y-104341991D01*
X152297433Y-104223096D01*
X152293213Y-104220510D01*
X152288643Y-104218617D01*
X152288639Y-104218615D01*
X152078417Y-104131539D01*
X152078415Y-104131538D01*
X152073844Y-104129645D01*
X151993641Y-104110390D01*
X151847774Y-104075370D01*
X151847768Y-104075369D01*
X151842961Y-104074215D01*
X151606250Y-104055585D01*
X151369539Y-104074215D01*
X151364732Y-104075369D01*
X151364726Y-104075370D01*
X151218859Y-104110390D01*
X151138656Y-104129645D01*
X151134085Y-104131538D01*
X151134083Y-104131539D01*
X150923861Y-104218615D01*
X150923857Y-104218617D01*
X150919287Y-104220510D01*
X150915067Y-104223096D01*
X150721048Y-104341991D01*
X150721042Y-104341995D01*
X150716834Y-104344574D01*
X150536281Y-104498781D01*
X150382074Y-104679334D01*
X150379495Y-104683542D01*
X150379491Y-104683548D01*
X150260596Y-104877567D01*
X150258010Y-104881787D01*
X150167145Y-105101156D01*
X150165990Y-105105968D01*
X150119670Y-105298905D01*
X150111715Y-105332039D01*
X150093558Y-105562745D01*
X150093085Y-105568750D01*
X145764750Y-105568750D01*
X145764750Y-92339195D01*
X147772251Y-92339195D01*
X147785110Y-92562215D01*
X147786247Y-92567261D01*
X147786248Y-92567267D01*
X147799597Y-92626500D01*
X147834222Y-92780139D01*
X147918266Y-92987116D01*
X148034987Y-93177588D01*
X148181250Y-93346438D01*
X148353126Y-93489132D01*
X148546000Y-93601838D01*
X148754692Y-93681530D01*
X148759760Y-93682561D01*
X148759763Y-93682562D01*
X148854862Y-93701910D01*
X148973597Y-93726067D01*
X148978772Y-93726257D01*
X148978774Y-93726257D01*
X149191673Y-93734064D01*
X149191677Y-93734064D01*
X149196837Y-93734253D01*
X149201957Y-93733597D01*
X149201959Y-93733597D01*
X149413288Y-93706525D01*
X149413289Y-93706525D01*
X149418416Y-93705868D01*
X149423366Y-93704383D01*
X149627429Y-93643161D01*
X149627434Y-93643159D01*
X149632384Y-93641674D01*
X149832994Y-93543396D01*
X150014860Y-93413673D01*
X150173096Y-93255989D01*
X150232594Y-93173189D01*
X150303453Y-93074577D01*
X150304640Y-93075430D01*
X150351960Y-93031862D01*
X150421897Y-93019645D01*
X150487338Y-93047178D01*
X150515166Y-93079011D01*
X150572694Y-93172888D01*
X150578777Y-93181199D01*
X150718213Y-93342167D01*
X150725580Y-93349383D01*
X150889434Y-93485416D01*
X150897881Y-93491331D01*
X151081756Y-93598779D01*
X151091042Y-93603229D01*
X151290001Y-93679203D01*
X151299899Y-93682079D01*
X151403250Y-93703106D01*
X151417299Y-93701910D01*
X151421000Y-93691565D01*
X151421000Y-93691017D01*
X151929000Y-93691017D01*
X151933064Y-93704859D01*
X151946478Y-93706893D01*
X151953184Y-93706034D01*
X151963262Y-93703892D01*
X152167255Y-93642691D01*
X152176842Y-93638933D01*
X152368095Y-93545239D01*
X152376945Y-93539964D01*
X152550328Y-93416292D01*
X152558200Y-93409639D01*
X152709052Y-93259312D01*
X152715730Y-93251465D01*
X152840003Y-93078520D01*
X152845313Y-93069683D01*
X152939670Y-92878767D01*
X152943469Y-92869172D01*
X153005377Y-92665410D01*
X153007555Y-92655337D01*
X153008986Y-92644462D01*
X153006775Y-92630278D01*
X152993617Y-92626500D01*
X151947115Y-92626500D01*
X151931876Y-92630975D01*
X151930671Y-92632365D01*
X151929000Y-92640048D01*
X151929000Y-93691017D01*
X151421000Y-93691017D01*
X151421000Y-92244500D01*
X151441002Y-92176379D01*
X151494658Y-92129886D01*
X151547000Y-92118500D01*
X152993344Y-92118500D01*
X153006875Y-92114527D01*
X153008180Y-92105447D01*
X152966214Y-91938375D01*
X152962894Y-91928624D01*
X152877972Y-91733314D01*
X152873105Y-91724239D01*
X152757426Y-91545426D01*
X152751136Y-91537257D01*
X152607806Y-91379740D01*
X152600273Y-91372715D01*
X152433139Y-91240722D01*
X152424556Y-91235020D01*
X152387602Y-91214620D01*
X152337631Y-91164187D01*
X152322859Y-91094745D01*
X152347975Y-91028339D01*
X152375327Y-91001732D01*
X152398797Y-90984991D01*
X152554860Y-90873673D01*
X152713096Y-90715989D01*
X152772594Y-90633189D01*
X152840435Y-90538777D01*
X152843453Y-90534577D01*
X152864320Y-90492357D01*
X152940136Y-90338953D01*
X152940137Y-90338951D01*
X152942430Y-90334311D01*
X153007370Y-90120569D01*
X153036529Y-89899090D01*
X153038156Y-89832500D01*
X153019852Y-89609861D01*
X152965431Y-89393202D01*
X152876354Y-89188340D01*
X152755014Y-89000777D01*
X152604670Y-88835551D01*
X152600619Y-88832352D01*
X152600615Y-88832348D01*
X152433414Y-88700300D01*
X152433410Y-88700298D01*
X152429359Y-88697098D01*
X152388053Y-88674296D01*
X152338084Y-88623864D01*
X152323312Y-88554421D01*
X152348428Y-88488016D01*
X152375780Y-88461409D01*
X152419603Y-88430150D01*
X152554860Y-88333673D01*
X152713096Y-88175989D01*
X152772594Y-88093189D01*
X152840435Y-87998777D01*
X152843453Y-87994577D01*
X152864320Y-87952357D01*
X152940136Y-87798953D01*
X152940137Y-87798951D01*
X152942430Y-87794311D01*
X153007370Y-87580569D01*
X153036529Y-87359090D01*
X153038156Y-87292500D01*
X153019852Y-87069861D01*
X152965431Y-86853202D01*
X152876354Y-86648340D01*
X152755014Y-86460777D01*
X152604670Y-86295551D01*
X152600619Y-86292352D01*
X152600615Y-86292348D01*
X152433414Y-86160300D01*
X152433410Y-86160298D01*
X152429359Y-86157098D01*
X152388053Y-86134296D01*
X152338084Y-86083864D01*
X152323312Y-86014421D01*
X152348428Y-85948016D01*
X152375780Y-85921409D01*
X152419603Y-85890150D01*
X152554860Y-85793673D01*
X152713096Y-85635989D01*
X152772594Y-85553189D01*
X152840435Y-85458777D01*
X152843453Y-85454577D01*
X152864320Y-85412357D01*
X152940136Y-85258953D01*
X152940137Y-85258951D01*
X152942430Y-85254311D01*
X153007370Y-85040569D01*
X153036529Y-84819090D01*
X153038156Y-84752500D01*
X153019852Y-84529861D01*
X152965431Y-84313202D01*
X152876354Y-84108340D01*
X152755014Y-83920777D01*
X152604670Y-83755551D01*
X152600619Y-83752352D01*
X152600615Y-83752348D01*
X152433414Y-83620300D01*
X152433410Y-83620298D01*
X152429359Y-83617098D01*
X152388053Y-83594296D01*
X152338084Y-83543864D01*
X152323312Y-83474421D01*
X152348428Y-83408016D01*
X152375780Y-83381409D01*
X152419603Y-83350150D01*
X152554860Y-83253673D01*
X152713096Y-83095989D01*
X152772594Y-83013189D01*
X152840435Y-82918777D01*
X152843453Y-82914577D01*
X152864320Y-82872357D01*
X152940136Y-82718953D01*
X152940137Y-82718951D01*
X152942430Y-82714311D01*
X153007370Y-82500569D01*
X153036529Y-82279090D01*
X153038156Y-82212500D01*
X153019852Y-81989861D01*
X152965431Y-81773202D01*
X152876354Y-81568340D01*
X152755014Y-81380777D01*
X152604670Y-81215551D01*
X152600619Y-81212352D01*
X152600615Y-81212348D01*
X152433414Y-81080300D01*
X152433410Y-81080298D01*
X152429359Y-81077098D01*
X152388053Y-81054296D01*
X152338084Y-81003864D01*
X152323312Y-80934421D01*
X152348428Y-80868016D01*
X152375780Y-80841409D01*
X152419603Y-80810150D01*
X152554860Y-80713673D01*
X152713096Y-80555989D01*
X152772594Y-80473189D01*
X152840435Y-80378777D01*
X152843453Y-80374577D01*
X152864320Y-80332357D01*
X152940136Y-80178953D01*
X152940137Y-80178951D01*
X152942430Y-80174311D01*
X153007370Y-79960569D01*
X153036529Y-79739090D01*
X153038156Y-79672500D01*
X153019852Y-79449861D01*
X152965431Y-79233202D01*
X152876354Y-79028340D01*
X152755014Y-78840777D01*
X152604670Y-78675551D01*
X152600619Y-78672352D01*
X152600615Y-78672348D01*
X152433414Y-78540300D01*
X152433410Y-78540298D01*
X152429359Y-78537098D01*
X152388053Y-78514296D01*
X152338084Y-78463864D01*
X152323312Y-78394421D01*
X152348428Y-78328016D01*
X152375780Y-78301409D01*
X152419603Y-78270150D01*
X152554860Y-78173673D01*
X152713096Y-78015989D01*
X152772594Y-77933189D01*
X152840435Y-77838777D01*
X152843453Y-77834577D01*
X152864320Y-77792357D01*
X152940136Y-77638953D01*
X152940137Y-77638951D01*
X152942430Y-77634311D01*
X153007370Y-77420569D01*
X153036529Y-77199090D01*
X153038156Y-77132500D01*
X153019852Y-76909861D01*
X152965431Y-76693202D01*
X152876354Y-76488340D01*
X152755014Y-76300777D01*
X152604670Y-76135551D01*
X152600619Y-76132352D01*
X152600615Y-76132348D01*
X152433414Y-76000300D01*
X152433410Y-76000298D01*
X152429359Y-75997098D01*
X152388053Y-75974296D01*
X152338084Y-75923864D01*
X152323312Y-75854421D01*
X152348428Y-75788016D01*
X152375780Y-75761409D01*
X152419603Y-75730150D01*
X152554860Y-75633673D01*
X152713096Y-75475989D01*
X152772594Y-75393189D01*
X152840435Y-75298777D01*
X152843453Y-75294577D01*
X152864320Y-75252357D01*
X152940136Y-75098953D01*
X152940137Y-75098951D01*
X152942430Y-75094311D01*
X153007370Y-74880569D01*
X153036529Y-74659090D01*
X153038156Y-74592500D01*
X153019852Y-74369861D01*
X152965431Y-74153202D01*
X152876354Y-73948340D01*
X152755014Y-73760777D01*
X152604670Y-73595551D01*
X152600619Y-73592352D01*
X152600615Y-73592348D01*
X152433414Y-73460300D01*
X152433410Y-73460298D01*
X152429359Y-73457098D01*
X152388053Y-73434296D01*
X152338084Y-73383864D01*
X152323312Y-73314421D01*
X152348428Y-73248016D01*
X152375780Y-73221409D01*
X152419603Y-73190150D01*
X152554860Y-73093673D01*
X152713096Y-72935989D01*
X152772594Y-72853189D01*
X152840435Y-72758777D01*
X152843453Y-72754577D01*
X152864320Y-72712357D01*
X152940136Y-72558953D01*
X152940137Y-72558951D01*
X152942430Y-72554311D01*
X153007370Y-72340569D01*
X153036529Y-72119090D01*
X153038156Y-72052500D01*
X153019852Y-71829861D01*
X152965431Y-71613202D01*
X152876354Y-71408340D01*
X152755014Y-71220777D01*
X152751532Y-71216950D01*
X152607798Y-71058988D01*
X152576746Y-70995142D01*
X152585141Y-70924643D01*
X152630317Y-70869875D01*
X152656761Y-70856206D01*
X152763297Y-70816267D01*
X152771705Y-70813115D01*
X152888261Y-70725761D01*
X152975615Y-70609205D01*
X153026745Y-70472816D01*
X153033500Y-70410634D01*
X153033500Y-68614366D01*
X153026745Y-68552184D01*
X152975615Y-68415795D01*
X152888261Y-68299239D01*
X152771705Y-68211885D01*
X152635316Y-68160755D01*
X152573134Y-68154000D01*
X150776866Y-68154000D01*
X150714684Y-68160755D01*
X150578295Y-68211885D01*
X150461739Y-68299239D01*
X150374385Y-68415795D01*
X150371233Y-68424203D01*
X150329919Y-68534407D01*
X150287277Y-68591171D01*
X150220716Y-68615871D01*
X150151367Y-68600663D01*
X150118743Y-68574976D01*
X150068151Y-68519375D01*
X150068142Y-68519366D01*
X150064670Y-68515551D01*
X150060619Y-68512352D01*
X150060615Y-68512348D01*
X149893414Y-68380300D01*
X149893410Y-68380298D01*
X149889359Y-68377098D01*
X149883677Y-68373961D01*
X149818234Y-68337835D01*
X149693789Y-68269138D01*
X149688920Y-68267414D01*
X149688916Y-68267412D01*
X149488087Y-68196295D01*
X149488083Y-68196294D01*
X149483212Y-68194569D01*
X149478119Y-68193662D01*
X149478116Y-68193661D01*
X149268373Y-68156300D01*
X149268367Y-68156299D01*
X149263284Y-68155394D01*
X149189452Y-68154492D01*
X149045081Y-68152728D01*
X149045079Y-68152728D01*
X149039911Y-68152665D01*
X148819091Y-68186455D01*
X148606756Y-68255857D01*
X148408607Y-68359007D01*
X148404474Y-68362110D01*
X148404471Y-68362112D01*
X148234100Y-68490030D01*
X148229965Y-68493135D01*
X148190525Y-68534407D01*
X148136280Y-68591171D01*
X148075629Y-68654638D01*
X147949743Y-68839180D01*
X147855688Y-69041805D01*
X147795989Y-69257070D01*
X147772251Y-69479195D01*
X147785110Y-69702215D01*
X147786247Y-69707261D01*
X147786248Y-69707267D01*
X147810304Y-69814008D01*
X147834222Y-69920139D01*
X147918266Y-70127116D01*
X148034987Y-70317588D01*
X148181250Y-70486438D01*
X148353126Y-70629132D01*
X148423595Y-70670311D01*
X148426445Y-70671976D01*
X148475169Y-70723614D01*
X148488240Y-70793397D01*
X148461509Y-70859169D01*
X148421055Y-70892527D01*
X148408607Y-70899007D01*
X148404474Y-70902110D01*
X148404471Y-70902112D01*
X148280567Y-70995142D01*
X148229965Y-71033135D01*
X148075629Y-71194638D01*
X147949743Y-71379180D01*
X147855688Y-71581805D01*
X147795989Y-71797070D01*
X147772251Y-72019195D01*
X147772548Y-72024348D01*
X147772548Y-72024351D01*
X147778011Y-72119090D01*
X147785110Y-72242215D01*
X147786247Y-72247261D01*
X147786248Y-72247267D01*
X147806119Y-72335439D01*
X147834222Y-72460139D01*
X147918266Y-72667116D01*
X147969019Y-72749938D01*
X148032291Y-72853188D01*
X148034987Y-72857588D01*
X148181250Y-73026438D01*
X148353126Y-73169132D01*
X148423595Y-73210311D01*
X148426445Y-73211976D01*
X148475169Y-73263614D01*
X148488240Y-73333397D01*
X148461509Y-73399169D01*
X148421055Y-73432527D01*
X148408607Y-73439007D01*
X148404474Y-73442110D01*
X148404471Y-73442112D01*
X148380247Y-73460300D01*
X148229965Y-73573135D01*
X148075629Y-73734638D01*
X147949743Y-73919180D01*
X147855688Y-74121805D01*
X147795989Y-74337070D01*
X147772251Y-74559195D01*
X147772548Y-74564348D01*
X147772548Y-74564351D01*
X147778011Y-74659090D01*
X147785110Y-74782215D01*
X147786247Y-74787261D01*
X147786248Y-74787267D01*
X147806119Y-74875439D01*
X147834222Y-75000139D01*
X147918266Y-75207116D01*
X147969019Y-75289938D01*
X148032291Y-75393188D01*
X148034987Y-75397588D01*
X148181250Y-75566438D01*
X148353126Y-75709132D01*
X148423595Y-75750311D01*
X148426445Y-75751976D01*
X148475169Y-75803614D01*
X148488240Y-75873397D01*
X148461509Y-75939169D01*
X148421055Y-75972527D01*
X148408607Y-75979007D01*
X148404474Y-75982110D01*
X148404471Y-75982112D01*
X148380247Y-76000300D01*
X148229965Y-76113135D01*
X148075629Y-76274638D01*
X147949743Y-76459180D01*
X147855688Y-76661805D01*
X147795989Y-76877070D01*
X147772251Y-77099195D01*
X147772548Y-77104348D01*
X147772548Y-77104351D01*
X147778011Y-77199090D01*
X147785110Y-77322215D01*
X147786247Y-77327261D01*
X147786248Y-77327267D01*
X147806119Y-77415439D01*
X147834222Y-77540139D01*
X147918266Y-77747116D01*
X147969019Y-77829938D01*
X148032291Y-77933188D01*
X148034987Y-77937588D01*
X148181250Y-78106438D01*
X148353126Y-78249132D01*
X148411738Y-78283382D01*
X148426445Y-78291976D01*
X148475169Y-78343614D01*
X148488240Y-78413397D01*
X148461509Y-78479169D01*
X148421055Y-78512527D01*
X148408607Y-78519007D01*
X148404474Y-78522110D01*
X148404471Y-78522112D01*
X148380247Y-78540300D01*
X148229965Y-78653135D01*
X148075629Y-78814638D01*
X147949743Y-78999180D01*
X147855688Y-79201805D01*
X147795989Y-79417070D01*
X147772251Y-79639195D01*
X147772548Y-79644348D01*
X147772548Y-79644351D01*
X147778011Y-79739090D01*
X147785110Y-79862215D01*
X147786247Y-79867261D01*
X147786248Y-79867267D01*
X147803382Y-79943294D01*
X147834222Y-80080139D01*
X147918266Y-80287116D01*
X147969019Y-80369938D01*
X148032291Y-80473188D01*
X148034987Y-80477588D01*
X148181250Y-80646438D01*
X148353126Y-80789132D01*
X148423595Y-80830311D01*
X148426445Y-80831976D01*
X148475169Y-80883614D01*
X148488240Y-80953397D01*
X148461509Y-81019169D01*
X148421055Y-81052527D01*
X148408607Y-81059007D01*
X148404474Y-81062110D01*
X148404471Y-81062112D01*
X148380981Y-81079749D01*
X148229965Y-81193135D01*
X148226393Y-81196873D01*
X148123898Y-81304128D01*
X148075629Y-81354638D01*
X148072720Y-81358903D01*
X148072714Y-81358911D01*
X148057798Y-81380777D01*
X147949743Y-81539180D01*
X147855688Y-81741805D01*
X147795989Y-81957070D01*
X147772251Y-82179195D01*
X147772548Y-82184348D01*
X147772548Y-82184351D01*
X147778011Y-82279090D01*
X147785110Y-82402215D01*
X147786247Y-82407261D01*
X147786248Y-82407267D01*
X147806119Y-82495439D01*
X147834222Y-82620139D01*
X147918266Y-82827116D01*
X147969019Y-82909938D01*
X148032291Y-83013188D01*
X148034987Y-83017588D01*
X148181250Y-83186438D01*
X148353126Y-83329132D01*
X148423595Y-83370311D01*
X148426445Y-83371976D01*
X148475169Y-83423614D01*
X148488240Y-83493397D01*
X148461509Y-83559169D01*
X148421055Y-83592527D01*
X148408607Y-83599007D01*
X148404474Y-83602110D01*
X148404471Y-83602112D01*
X148380247Y-83620300D01*
X148229965Y-83733135D01*
X148075629Y-83894638D01*
X147949743Y-84079180D01*
X147855688Y-84281805D01*
X147795989Y-84497070D01*
X147772251Y-84719195D01*
X147772548Y-84724348D01*
X147772548Y-84724351D01*
X147778011Y-84819090D01*
X147785110Y-84942215D01*
X147786247Y-84947261D01*
X147786248Y-84947267D01*
X147806119Y-85035439D01*
X147834222Y-85160139D01*
X147918266Y-85367116D01*
X147969019Y-85449938D01*
X148032291Y-85553188D01*
X148034987Y-85557588D01*
X148181250Y-85726438D01*
X148353126Y-85869132D01*
X148423595Y-85910311D01*
X148426445Y-85911976D01*
X148475169Y-85963614D01*
X148488240Y-86033397D01*
X148461509Y-86099169D01*
X148421055Y-86132527D01*
X148408607Y-86139007D01*
X148404474Y-86142110D01*
X148404471Y-86142112D01*
X148380247Y-86160300D01*
X148229965Y-86273135D01*
X148075629Y-86434638D01*
X147949743Y-86619180D01*
X147855688Y-86821805D01*
X147795989Y-87037070D01*
X147772251Y-87259195D01*
X147772548Y-87264348D01*
X147772548Y-87264351D01*
X147778011Y-87359090D01*
X147785110Y-87482215D01*
X147786247Y-87487261D01*
X147786248Y-87487267D01*
X147806119Y-87575439D01*
X147834222Y-87700139D01*
X147918266Y-87907116D01*
X147969019Y-87989938D01*
X148032291Y-88093188D01*
X148034987Y-88097588D01*
X148181250Y-88266438D01*
X148353126Y-88409132D01*
X148423595Y-88450311D01*
X148426445Y-88451976D01*
X148475169Y-88503614D01*
X148488240Y-88573397D01*
X148461509Y-88639169D01*
X148421055Y-88672527D01*
X148408607Y-88679007D01*
X148404474Y-88682110D01*
X148404471Y-88682112D01*
X148380247Y-88700300D01*
X148229965Y-88813135D01*
X148075629Y-88974638D01*
X147949743Y-89159180D01*
X147855688Y-89361805D01*
X147795989Y-89577070D01*
X147772251Y-89799195D01*
X147772548Y-89804348D01*
X147772548Y-89804351D01*
X147778011Y-89899090D01*
X147785110Y-90022215D01*
X147786247Y-90027261D01*
X147786248Y-90027267D01*
X147806119Y-90115439D01*
X147834222Y-90240139D01*
X147918266Y-90447116D01*
X147969019Y-90529938D01*
X148032291Y-90633188D01*
X148034987Y-90637588D01*
X148181250Y-90806438D01*
X148353126Y-90949132D01*
X148423595Y-90990311D01*
X148426445Y-90991976D01*
X148475169Y-91043614D01*
X148488240Y-91113397D01*
X148461509Y-91179169D01*
X148421055Y-91212527D01*
X148408607Y-91219007D01*
X148404474Y-91222110D01*
X148404471Y-91222112D01*
X148380247Y-91240300D01*
X148229965Y-91353135D01*
X148075629Y-91514638D01*
X147949743Y-91699180D01*
X147855688Y-91901805D01*
X147795989Y-92117070D01*
X147772251Y-92339195D01*
X145764750Y-92339195D01*
X145764750Y-56356250D01*
X150093085Y-56356250D01*
X150111715Y-56592961D01*
X150112869Y-56597768D01*
X150112870Y-56597774D01*
X150142851Y-56722651D01*
X150167145Y-56823844D01*
X150258010Y-57043213D01*
X150260596Y-57047433D01*
X150379491Y-57241452D01*
X150379495Y-57241458D01*
X150382074Y-57245666D01*
X150536281Y-57426219D01*
X150716834Y-57580426D01*
X150721042Y-57583005D01*
X150721048Y-57583009D01*
X150915067Y-57701904D01*
X150919287Y-57704490D01*
X150923857Y-57706383D01*
X150923861Y-57706385D01*
X151134083Y-57793461D01*
X151138656Y-57795355D01*
X151218859Y-57814610D01*
X151364726Y-57849630D01*
X151364732Y-57849631D01*
X151369539Y-57850785D01*
X151606250Y-57869415D01*
X151842961Y-57850785D01*
X151847768Y-57849631D01*
X151847774Y-57849630D01*
X151993641Y-57814610D01*
X152073844Y-57795355D01*
X152078417Y-57793461D01*
X152288639Y-57706385D01*
X152288643Y-57706383D01*
X152293213Y-57704490D01*
X152297433Y-57701904D01*
X152491452Y-57583009D01*
X152491458Y-57583005D01*
X152495666Y-57580426D01*
X152676219Y-57426219D01*
X152830426Y-57245666D01*
X152833005Y-57241458D01*
X152833009Y-57241452D01*
X152951904Y-57047433D01*
X152954490Y-57043213D01*
X153045355Y-56823844D01*
X153069649Y-56722651D01*
X153099630Y-56597774D01*
X153099631Y-56597768D01*
X153100785Y-56592961D01*
X153119415Y-56356250D01*
X153100785Y-56119539D01*
X153092831Y-56086405D01*
X153046510Y-55893468D01*
X153045355Y-55888656D01*
X152954490Y-55669287D01*
X152951904Y-55665067D01*
X152833009Y-55471048D01*
X152833005Y-55471042D01*
X152830426Y-55466834D01*
X152676219Y-55286281D01*
X152495666Y-55132074D01*
X152491458Y-55129495D01*
X152491452Y-55129491D01*
X152297433Y-55010596D01*
X152293213Y-55008010D01*
X152288643Y-55006117D01*
X152288639Y-55006115D01*
X152078417Y-54919039D01*
X152078415Y-54919038D01*
X152073844Y-54917145D01*
X151993641Y-54897890D01*
X151847774Y-54862870D01*
X151847768Y-54862869D01*
X151842961Y-54861715D01*
X151606250Y-54843085D01*
X151369539Y-54861715D01*
X151364732Y-54862869D01*
X151364726Y-54862870D01*
X151218859Y-54897890D01*
X151138656Y-54917145D01*
X151134085Y-54919038D01*
X151134083Y-54919039D01*
X150923861Y-55006115D01*
X150923857Y-55006117D01*
X150919287Y-55008010D01*
X150915067Y-55010596D01*
X150721048Y-55129491D01*
X150721042Y-55129495D01*
X150716834Y-55132074D01*
X150536281Y-55286281D01*
X150382074Y-55466834D01*
X150379495Y-55471042D01*
X150379491Y-55471048D01*
X150260596Y-55665067D01*
X150258010Y-55669287D01*
X150167145Y-55888656D01*
X150165990Y-55893468D01*
X150119670Y-56086405D01*
X150111715Y-56119539D01*
X150093558Y-56350245D01*
X150093085Y-56356250D01*
X145764750Y-56356250D01*
X145764750Y-54818120D01*
X145766251Y-54798732D01*
X145768559Y-54783912D01*
X145768559Y-54783911D01*
X145769941Y-54775037D01*
X145767811Y-54758743D01*
X145767018Y-54734169D01*
X145780236Y-54532559D01*
X145782388Y-54516218D01*
X145826959Y-54292170D01*
X145831224Y-54276251D01*
X145904662Y-54059919D01*
X145910970Y-54044692D01*
X146012012Y-53839807D01*
X146020253Y-53825534D01*
X146147170Y-53635595D01*
X146157203Y-53622519D01*
X146307834Y-53450762D01*
X146319488Y-53439108D01*
X146491253Y-53288477D01*
X146504321Y-53278450D01*
X146694279Y-53151526D01*
X146708527Y-53143299D01*
X146913445Y-53042247D01*
X146928655Y-53035948D01*
X147144983Y-52962515D01*
X147160898Y-52958251D01*
X147272931Y-52935966D01*
X147384962Y-52913682D01*
X147401302Y-52911531D01*
X147595965Y-52898772D01*
X147618077Y-52899756D01*
X147622345Y-52899808D01*
X147631224Y-52901191D01*
X147662786Y-52897064D01*
X147679121Y-52896000D01*
X157830250Y-52896000D01*
X157898371Y-52916002D01*
G37*
%TD.AperFunction*%
%TD*%
M02*
