%TF.GenerationSoftware,KiCad,Pcbnew,(6.0.9)*%
%TF.CreationDate,2023-04-02T22:43:45-05:00*%
%TF.ProjectId,Programmable Keys,50726f67-7261-46d6-9d61-626c65204b65,rev?*%
%TF.SameCoordinates,Original*%
%TF.FileFunction,Copper,L1,Top*%
%TF.FilePolarity,Positive*%
%FSLAX46Y46*%
G04 Gerber Fmt 4.6, Leading zero omitted, Abs format (unit mm)*
G04 Created by KiCad (PCBNEW (6.0.9)) date 2023-04-02 22:43:45*
%MOMM*%
%LPD*%
G01*
G04 APERTURE LIST*
G04 Aperture macros list*
%AMHorizOval*
0 Thick line with rounded ends*
0 $1 width*
0 $2 $3 position (X,Y) of the first rounded end (center of the circle)*
0 $4 $5 position (X,Y) of the second rounded end (center of the circle)*
0 Add line between two ends*
20,1,$1,$2,$3,$4,$5,0*
0 Add two circle primitives to create the rounded ends*
1,1,$1,$2,$3*
1,1,$1,$4,$5*%
G04 Aperture macros list end*
%TA.AperFunction,ComponentPad*%
%ADD10C,2.250000*%
%TD*%
%TA.AperFunction,ComponentPad*%
%ADD11HorizOval,2.250000X0.655001X0.730000X-0.655001X-0.730000X0*%
%TD*%
%TA.AperFunction,ComponentPad*%
%ADD12HorizOval,2.250000X0.020000X0.290000X-0.020000X-0.290000X0*%
%TD*%
%TA.AperFunction,SMDPad,CuDef*%
%ADD13R,1.200000X0.900000*%
%TD*%
%TA.AperFunction,ComponentPad*%
%ADD14R,1.700000X1.700000*%
%TD*%
%TA.AperFunction,ComponentPad*%
%ADD15O,1.700000X1.700000*%
%TD*%
%TA.AperFunction,ViaPad*%
%ADD16C,0.800000*%
%TD*%
%TA.AperFunction,Conductor*%
%ADD17C,0.250000*%
%TD*%
G04 APERTURE END LIST*
D10*
%TO.P,MX8,1,COL*%
%TO.N,COL9*%
X184031250Y-96012500D03*
D11*
X183376251Y-96742500D03*
D10*
%TO.P,MX8,2,ROW*%
%TO.N,Net-(D6-Pad2)*%
X189071250Y-94932500D03*
D12*
X189051250Y-95222500D03*
%TD*%
D13*
%TO.P,D3,1,K*%
%TO.N,ROW7*%
X175418750Y-101725000D03*
%TO.P,D3,2,A*%
%TO.N,Net-(D3-Pad2)*%
X175418750Y-98425000D03*
%TD*%
%TO.P,D9,1,K*%
%TO.N,ROW7*%
X213518750Y-101725000D03*
%TO.P,D9,2,A*%
%TO.N,Net-(D9-Pad2)*%
X213518750Y-98425000D03*
%TD*%
%TO.P,D1,1,K*%
%TO.N,ROW5*%
X175418750Y-63562500D03*
%TO.P,D1,2,A*%
%TO.N,Net-(D1-Pad2)*%
X175418750Y-60262500D03*
%TD*%
D14*
%TO.P,J2,1,Pin_1*%
%TO.N,+5V*%
X222156250Y-69537500D03*
D15*
%TO.P,J2,2,Pin_2*%
%TO.N,VCC*%
X224696250Y-69537500D03*
%TO.P,J2,3,Pin_3*%
%TO.N,COL0*%
X222156250Y-72077500D03*
%TO.P,J2,4,Pin_4*%
%TO.N,COL1*%
X224696250Y-72077500D03*
%TO.P,J2,5,Pin_5*%
%TO.N,COL2*%
X222156250Y-74617500D03*
%TO.P,J2,6,Pin_6*%
%TO.N,COL3*%
X224696250Y-74617500D03*
%TO.P,J2,7,Pin_7*%
%TO.N,COL4*%
X222156250Y-77157500D03*
%TO.P,J2,8,Pin_8*%
%TO.N,COL5*%
X224696250Y-77157500D03*
%TO.P,J2,9,Pin_9*%
%TO.N,COL6*%
X222156250Y-79697500D03*
%TO.P,J2,10,Pin_10*%
%TO.N,COL7*%
X224696250Y-79697500D03*
%TO.P,J2,11,Pin_11*%
%TO.N,COL8*%
X222156250Y-82237500D03*
%TO.P,J2,12,Pin_12*%
%TO.N,COL9*%
X224696250Y-82237500D03*
%TO.P,J2,13,Pin_13*%
%TO.N,COL10*%
X222156250Y-84777500D03*
%TO.P,J2,14,Pin_14*%
%TO.N,ROW5*%
X224696250Y-84777500D03*
%TO.P,J2,15,Pin_15*%
%TO.N,ROW6*%
X222156250Y-87317500D03*
%TO.P,J2,16,Pin_16*%
%TO.N,ROW7*%
X224696250Y-87317500D03*
%TO.P,J2,17,Pin_17*%
%TO.N,ROW8*%
X222156250Y-89857500D03*
%TO.P,J2,18,Pin_18*%
%TO.N,ROW9*%
X224696250Y-89857500D03*
%TO.P,J2,19,Pin_19*%
%TO.N,GND*%
X222156250Y-92397500D03*
%TO.P,J2,20,Pin_20*%
%TO.N,unconnected-(J2-Pad20)*%
X224696250Y-92397500D03*
%TD*%
D10*
%TO.P,MX1,1,COL*%
%TO.N,COL8*%
X164981250Y-57912500D03*
D11*
X164326251Y-58642500D03*
D10*
%TO.P,MX1,2,ROW*%
%TO.N,Net-(D1-Pad2)*%
X170021250Y-56832500D03*
D12*
X170001250Y-57122500D03*
%TD*%
D13*
%TO.P,D4,1,K*%
%TO.N,ROW5*%
X194468750Y-63562500D03*
%TO.P,D4,2,A*%
%TO.N,Net-(D4-Pad2)*%
X194468750Y-60262500D03*
%TD*%
%TO.P,D5,1,K*%
%TO.N,ROW6*%
X194468750Y-82612500D03*
%TO.P,D5,2,A*%
%TO.N,Net-(D5-Pad2)*%
X194468750Y-79312500D03*
%TD*%
%TO.P,D6,1,K*%
%TO.N,ROW7*%
X194468750Y-101662500D03*
%TO.P,D6,2,A*%
%TO.N,Net-(D6-Pad2)*%
X194468750Y-98362500D03*
%TD*%
D10*
%TO.P,MX9,1,COL*%
%TO.N,COL10*%
X203081250Y-96012500D03*
D11*
X202426251Y-96742500D03*
D12*
%TO.P,MX9,2,ROW*%
%TO.N,Net-(D9-Pad2)*%
X208101250Y-95222500D03*
D10*
X208121250Y-94932500D03*
%TD*%
%TO.P,MX4,1,COL*%
%TO.N,COL8*%
X164981250Y-76962500D03*
D11*
X164326251Y-77692500D03*
D10*
%TO.P,MX4,2,ROW*%
%TO.N,Net-(D2-Pad2)*%
X170021250Y-75882500D03*
D12*
X170001250Y-76172500D03*
%TD*%
D11*
%TO.P,MX3,1,COL*%
%TO.N,COL10*%
X202426251Y-58642500D03*
D10*
X203081250Y-57912500D03*
%TO.P,MX3,2,ROW*%
%TO.N,Net-(D7-Pad2)*%
X208121250Y-56832500D03*
D12*
X208101250Y-57122500D03*
%TD*%
D13*
%TO.P,D8,1,K*%
%TO.N,ROW6*%
X213518750Y-82612500D03*
%TO.P,D8,2,A*%
%TO.N,Net-(D8-Pad2)*%
X213518750Y-79312500D03*
%TD*%
D14*
%TO.P,J1,1,Pin_1*%
%TO.N,+5V*%
X151675000Y-69512500D03*
D15*
%TO.P,J1,2,Pin_2*%
%TO.N,VCC*%
X149135000Y-69512500D03*
%TO.P,J1,3,Pin_3*%
%TO.N,COL0*%
X151675000Y-72052500D03*
%TO.P,J1,4,Pin_4*%
%TO.N,COL1*%
X149135000Y-72052500D03*
%TO.P,J1,5,Pin_5*%
%TO.N,COL2*%
X151675000Y-74592500D03*
%TO.P,J1,6,Pin_6*%
%TO.N,COL3*%
X149135000Y-74592500D03*
%TO.P,J1,7,Pin_7*%
%TO.N,COL4*%
X151675000Y-77132500D03*
%TO.P,J1,8,Pin_8*%
%TO.N,COL5*%
X149135000Y-77132500D03*
%TO.P,J1,9,Pin_9*%
%TO.N,COL6*%
X151675000Y-79672500D03*
%TO.P,J1,10,Pin_10*%
%TO.N,COL7*%
X149135000Y-79672500D03*
%TO.P,J1,11,Pin_11*%
%TO.N,COL8*%
X151675000Y-82212500D03*
%TO.P,J1,12,Pin_12*%
%TO.N,COL9*%
X149135000Y-82212500D03*
%TO.P,J1,13,Pin_13*%
%TO.N,COL10*%
X151675000Y-84752500D03*
%TO.P,J1,14,Pin_14*%
%TO.N,ROW5*%
X149135000Y-84752500D03*
%TO.P,J1,15,Pin_15*%
%TO.N,ROW6*%
X151675000Y-87292500D03*
%TO.P,J1,16,Pin_16*%
%TO.N,ROW7*%
X149135000Y-87292500D03*
%TO.P,J1,17,Pin_17*%
%TO.N,ROW8*%
X151675000Y-89832500D03*
%TO.P,J1,18,Pin_18*%
%TO.N,ROW9*%
X149135000Y-89832500D03*
%TO.P,J1,19,Pin_19*%
%TO.N,GND*%
X151675000Y-92372500D03*
%TO.P,J1,20,Pin_20*%
%TO.N,unconnected-(J1-Pad20)*%
X149135000Y-92372500D03*
%TD*%
D13*
%TO.P,D7,1,K*%
%TO.N,ROW5*%
X213518750Y-63562500D03*
%TO.P,D7,2,A*%
%TO.N,Net-(D7-Pad2)*%
X213518750Y-60262500D03*
%TD*%
D10*
%TO.P,MX7,1,COL*%
%TO.N,COL8*%
X164981250Y-96012500D03*
D11*
X164326251Y-96742500D03*
D12*
%TO.P,MX7,2,ROW*%
%TO.N,Net-(D3-Pad2)*%
X170001250Y-95222500D03*
D10*
X170021250Y-94932500D03*
%TD*%
D11*
%TO.P,MX2,1,COL*%
%TO.N,COL9*%
X183376251Y-58642500D03*
D10*
X184031250Y-57912500D03*
D12*
%TO.P,MX2,2,ROW*%
%TO.N,Net-(D4-Pad2)*%
X189051250Y-57122500D03*
D10*
X189071250Y-56832500D03*
%TD*%
%TO.P,MX6,1,COL*%
%TO.N,COL10*%
X203081250Y-76962500D03*
D11*
X202426251Y-77692500D03*
D10*
%TO.P,MX6,2,ROW*%
%TO.N,Net-(D8-Pad2)*%
X208121250Y-75882500D03*
D12*
X208101250Y-76172500D03*
%TD*%
D10*
%TO.P,MX5,1,COL*%
%TO.N,COL9*%
X184031250Y-76962500D03*
D11*
X183376251Y-77692500D03*
D10*
%TO.P,MX5,2,ROW*%
%TO.N,Net-(D5-Pad2)*%
X189071250Y-75882500D03*
D12*
X189051250Y-76172500D03*
%TD*%
D13*
%TO.P,D2,1,K*%
%TO.N,ROW6*%
X175418750Y-82612500D03*
%TO.P,D2,2,A*%
%TO.N,Net-(D2-Pad2)*%
X175418750Y-79312500D03*
%TD*%
D16*
%TO.N,ROW5*%
X164600000Y-67220500D03*
X181768750Y-65881250D03*
X200818750Y-65881250D03*
X160900000Y-86050000D03*
X203200000Y-65881250D03*
X215950000Y-86050000D03*
X184150000Y-65881250D03*
X215950000Y-68000000D03*
%TO.N,ROW6*%
X200025000Y-84931250D03*
X180975000Y-84931250D03*
X164395750Y-87300000D03*
X184150000Y-84931250D03*
X203200000Y-84931250D03*
X162850000Y-87300000D03*
%TO.N,ROW7*%
X214600000Y-93122000D03*
X160200000Y-88950000D03*
X160200000Y-93400000D03*
X214600000Y-89050000D03*
%TO.N,VCC*%
X165450000Y-68800000D03*
X200250000Y-68750000D03*
X181100000Y-68750000D03*
X184700000Y-68750000D03*
X203500000Y-68750000D03*
X162100000Y-68788000D03*
%TO.N,COL3*%
X181996750Y-73400000D03*
X202500000Y-73450000D03*
X183445750Y-73400000D03*
X164395750Y-73400000D03*
X201046750Y-73400000D03*
X162946750Y-73400000D03*
%TO.N,COL4*%
X210300000Y-75250000D03*
X162200000Y-76000000D03*
%TO.N,GND*%
X162946750Y-92350000D03*
X201046750Y-92400000D03*
X164395750Y-92400000D03*
X181996750Y-92400000D03*
X202550000Y-92400000D03*
X183500000Y-92400000D03*
%TO.N,COL5*%
X202495750Y-68025500D03*
X214000000Y-75200000D03*
X160375500Y-77050000D03*
X181950000Y-68025500D03*
X201046750Y-68025500D03*
X166300000Y-68000000D03*
X213350000Y-68025500D03*
X183450000Y-68025500D03*
%TO.N,COL6*%
X158750000Y-79074500D03*
X216950000Y-78250000D03*
%TO.N,COL0*%
X181996750Y-72050000D03*
X201046750Y-72050000D03*
X202500000Y-72050000D03*
X162946750Y-72050000D03*
X183445750Y-72050000D03*
X164395750Y-72050000D03*
%TO.N,COL1*%
X202495750Y-70850000D03*
X162900000Y-70900000D03*
X164450000Y-70850000D03*
X201046750Y-70850000D03*
X183445750Y-70850000D03*
X181996750Y-70850000D03*
%TO.N,COL2*%
X162850000Y-74600000D03*
X164395750Y-74550000D03*
X184050000Y-74200000D03*
X181300000Y-74200000D03*
X164395750Y-74550000D03*
X203154605Y-74205313D03*
X200400000Y-74200000D03*
%TO.N,COL7*%
X157850000Y-80397000D03*
X217881541Y-77887734D03*
%TO.N,COL8*%
X214400000Y-88042000D03*
X214950000Y-84000000D03*
X200300000Y-89050000D03*
X203250000Y-89050000D03*
X181382284Y-89027380D03*
X184041070Y-89043996D03*
%TO.N,COL9*%
X162850000Y-83450000D03*
X173800000Y-83800000D03*
X217050000Y-83650000D03*
X203141070Y-91593996D03*
X164395750Y-83450000D03*
X178800000Y-83350000D03*
X199700000Y-91600000D03*
X215900000Y-91600000D03*
%TO.N,COL10*%
X213750000Y-85550000D03*
X162900000Y-84750000D03*
X164395750Y-84750000D03*
X174950000Y-84750000D03*
X196450000Y-84150000D03*
X211850000Y-85655750D03*
%TO.N,ROW8*%
X202495750Y-89850000D03*
X164400000Y-89850000D03*
X183450000Y-89850000D03*
X181950000Y-89850000D03*
X201000000Y-89850000D03*
X162946750Y-89850000D03*
%TO.N,ROW9*%
X203550000Y-90600000D03*
X165050000Y-90650000D03*
X200250000Y-90600000D03*
X181150000Y-90650000D03*
X184104605Y-90605313D03*
X162300000Y-90650000D03*
%TO.N,+5V*%
X162850000Y-69550000D03*
X201046750Y-69550000D03*
X164395750Y-69550000D03*
X183445750Y-69550000D03*
X181996750Y-69550000D03*
X202550000Y-69550000D03*
%TD*%
D17*
%TO.N,ROW5*%
X195262500Y-65881250D02*
X184150000Y-65881250D01*
X215950000Y-68000000D02*
X213831250Y-65881250D01*
X213831250Y-65881250D02*
X212725000Y-65881250D01*
X176196625Y-65865375D02*
X175418750Y-65087500D01*
X194468750Y-65087500D02*
X194468750Y-63562500D01*
X164600000Y-67220500D02*
X174929500Y-67220500D01*
X215950000Y-86050000D02*
X224306250Y-86050000D01*
X213518750Y-65087500D02*
X213217125Y-65389125D01*
X175418750Y-66731250D02*
X175418750Y-64981250D01*
X175418750Y-64981250D02*
X175418750Y-63562500D01*
X224306250Y-86050000D02*
X224696250Y-85660000D01*
X200818750Y-65881250D02*
X195262500Y-65881250D01*
X213518750Y-63562500D02*
X213518750Y-65087500D01*
X160900000Y-86050000D02*
X149550000Y-86050000D01*
X195262500Y-65881250D02*
X194468750Y-65087500D01*
X175418750Y-65087500D02*
X175418750Y-64981250D01*
X224696250Y-85660000D02*
X224696250Y-84777500D01*
X212725000Y-65881250D02*
X203200000Y-65881250D01*
X149550000Y-86050000D02*
X149135000Y-85635000D01*
X181768750Y-65881250D02*
X176212500Y-65881250D01*
X176212500Y-65881250D02*
X176196625Y-65865375D01*
X213217125Y-65389125D02*
X212725000Y-65881250D01*
X149135000Y-85635000D02*
X149135000Y-84752500D01*
X174929500Y-67220500D02*
X175418750Y-66731250D01*
%TO.N,Net-(D1-Pad2)*%
X174093750Y-57412500D02*
X169981250Y-57412500D01*
X175418750Y-58737500D02*
X174093750Y-57412500D01*
X175418750Y-60262500D02*
X175418750Y-58737500D01*
%TO.N,ROW6*%
X195262500Y-84931250D02*
X184150000Y-84931250D01*
X200025000Y-84931250D02*
X195262500Y-84931250D01*
X194468750Y-84137500D02*
X194468750Y-82612500D01*
X175650000Y-87300000D02*
X176212500Y-86737500D01*
X180975000Y-84931250D02*
X177387250Y-84931250D01*
X162842500Y-87292500D02*
X151675000Y-87292500D01*
X212725000Y-86475000D02*
X212725000Y-84931250D01*
X162850000Y-87300000D02*
X162842500Y-87292500D01*
X176212500Y-84931250D02*
X175418750Y-84137500D01*
X213567500Y-87317500D02*
X212725000Y-86475000D01*
X212725000Y-84931250D02*
X203200000Y-84931250D01*
X213518750Y-84137500D02*
X213090125Y-84566125D01*
X164395750Y-87300000D02*
X175650000Y-87300000D01*
X220657500Y-87317500D02*
X213567500Y-87317500D01*
X175418750Y-84137500D02*
X175418750Y-82612500D01*
X213090125Y-84566125D02*
X212725000Y-84931250D01*
X176212500Y-86737500D02*
X176212500Y-84931250D01*
X220657500Y-87317500D02*
X222156250Y-87317500D01*
X213518750Y-82612500D02*
X213518750Y-84137500D01*
X195262500Y-84931250D02*
X194468750Y-84137500D01*
X177387250Y-84931250D02*
X176212500Y-84931250D01*
%TO.N,Net-(D2-Pad2)*%
X174093750Y-76462500D02*
X169981250Y-76462500D01*
X175418750Y-77787500D02*
X174093750Y-76462500D01*
X175418750Y-79312500D02*
X175418750Y-77787500D01*
%TO.N,ROW7*%
X159900000Y-88650000D02*
X149768750Y-88650000D01*
X215000000Y-88650000D02*
X224087500Y-88650000D01*
X214600000Y-89050000D02*
X215000000Y-88650000D01*
X214225000Y-101725000D02*
X214600000Y-101350000D01*
X195262500Y-103981250D02*
X176212500Y-103981250D01*
X176212500Y-103981250D02*
X175418750Y-103187500D01*
X160531250Y-103981250D02*
X176212500Y-103981250D01*
X214600000Y-93122000D02*
X214600000Y-101350000D01*
X175418750Y-103187500D02*
X175418750Y-101725000D01*
X160200000Y-88950000D02*
X159900000Y-88650000D01*
X224696250Y-88041250D02*
X224696250Y-87317500D01*
X194468750Y-103187500D02*
X194468750Y-101662500D01*
X195262500Y-103981250D02*
X194468750Y-103187500D01*
X213518750Y-101725000D02*
X213518750Y-103187500D01*
X213518750Y-101725000D02*
X214225000Y-101725000D01*
X212725000Y-103981250D02*
X211931250Y-103981250D01*
X211931250Y-103981250D02*
X195262500Y-103981250D01*
X149768750Y-88650000D02*
X149135000Y-88016250D01*
X160200000Y-93400000D02*
X160200000Y-103650000D01*
X213518750Y-103187500D02*
X212725000Y-103981250D01*
X149135000Y-88016250D02*
X149135000Y-87292500D01*
X224087500Y-88650000D02*
X224696250Y-88041250D01*
X160200000Y-103650000D02*
X160531250Y-103981250D01*
%TO.N,Net-(D3-Pad2)*%
X175418750Y-98425000D02*
X175418750Y-96837500D01*
X175418750Y-96837500D02*
X174093750Y-95512500D01*
X174093750Y-95512500D02*
X169981250Y-95512500D01*
%TO.N,Net-(D4-Pad2)*%
X194468750Y-58737500D02*
X193143750Y-57412500D01*
X194468750Y-60262500D02*
X194468750Y-58737500D01*
X193143750Y-57412500D02*
X189031250Y-57412500D01*
%TO.N,Net-(D5-Pad2)*%
X194468750Y-77787500D02*
X193143750Y-76462500D01*
X193143750Y-76462500D02*
X189031250Y-76462500D01*
X194468750Y-79312500D02*
X194468750Y-77787500D01*
%TO.N,Net-(D6-Pad2)*%
X193143750Y-95512500D02*
X189031250Y-95512500D01*
X194468750Y-98362500D02*
X194468750Y-96837500D01*
X194468750Y-96837500D02*
X193143750Y-95512500D01*
%TO.N,Net-(D7-Pad2)*%
X212193750Y-57412500D02*
X208081250Y-57412500D01*
X213518750Y-58737500D02*
X212193750Y-57412500D01*
X213518750Y-60262500D02*
X213518750Y-58737500D01*
%TO.N,Net-(D8-Pad2)*%
X213518750Y-77787500D02*
X212193750Y-76462500D01*
X212193750Y-76462500D02*
X208081250Y-76462500D01*
X213518750Y-79312500D02*
X213518750Y-77787500D01*
%TO.N,Net-(D9-Pad2)*%
X213518750Y-98425000D02*
X213518750Y-96837500D01*
X212193750Y-95512500D02*
X208081250Y-95512500D01*
X213518750Y-96837500D02*
X212193750Y-95512500D01*
%TO.N,VCC*%
X203500000Y-68750000D02*
X220175000Y-68750000D01*
X181050000Y-68800000D02*
X181100000Y-68750000D01*
X224696250Y-69537500D02*
X224696250Y-68327500D01*
X153781250Y-68850000D02*
X153193750Y-68262500D01*
X224696250Y-68327500D02*
X224631250Y-68262500D01*
X165450000Y-68800000D02*
X181050000Y-68800000D01*
X220662500Y-68262500D02*
X220175000Y-68750000D01*
X184700000Y-68750000D02*
X200250000Y-68750000D01*
X162100000Y-68788000D02*
X162038000Y-68850000D01*
X153193750Y-68262500D02*
X149225000Y-68262500D01*
X149135000Y-68352500D02*
X149135000Y-69512500D01*
X224631250Y-68262500D02*
X220662500Y-68262500D01*
X149225000Y-68262500D02*
X149135000Y-68352500D01*
X162038000Y-68850000D02*
X153781250Y-68850000D01*
%TO.N,COL3*%
X181996750Y-73400000D02*
X164395750Y-73400000D01*
X201046750Y-73400000D02*
X183445750Y-73400000D01*
X202500000Y-73450000D02*
X202507500Y-73442500D01*
X202507500Y-73442500D02*
X224255000Y-73442500D01*
X149643750Y-73400000D02*
X149135000Y-73908750D01*
X149135000Y-73908750D02*
X149135000Y-74592500D01*
X162946750Y-73400000D02*
X149643750Y-73400000D01*
X224696250Y-73883750D02*
X224696250Y-74617500D01*
X224255000Y-73442500D02*
X224696250Y-73883750D01*
%TO.N,COL4*%
X210550000Y-75500000D02*
X212700000Y-75500000D01*
X151675000Y-77132500D02*
X151675000Y-76725000D01*
X212700000Y-75500000D02*
X214357500Y-77157500D01*
X151675000Y-76725000D02*
X152400000Y-76000000D01*
X214357500Y-77157500D02*
X222156250Y-77157500D01*
X210300000Y-75250000D02*
X210550000Y-75500000D01*
X162200000Y-76000000D02*
X152400000Y-76000000D01*
%TO.N,GND*%
X162946750Y-92350000D02*
X162924250Y-92372500D01*
X183500000Y-92400000D02*
X201046750Y-92400000D01*
X202550000Y-92400000D02*
X202552500Y-92397500D01*
X164395750Y-92400000D02*
X181996750Y-92400000D01*
X202552500Y-92397500D02*
X222156250Y-92397500D01*
X162924250Y-92372500D02*
X151675000Y-92372500D01*
%TO.N,COL5*%
X160375500Y-77624500D02*
X159650000Y-78350000D01*
X149787500Y-78350000D02*
X149135000Y-77697500D01*
X213350000Y-68025500D02*
X202495750Y-68025500D01*
X159650000Y-78350000D02*
X149787500Y-78350000D01*
X181950000Y-68025500D02*
X166325500Y-68025500D01*
X214000000Y-75350000D02*
X214600000Y-75950000D01*
X160375500Y-77050000D02*
X160375500Y-77624500D01*
X201046750Y-68025500D02*
X183450000Y-68025500D01*
X224696250Y-76265000D02*
X224696250Y-77157500D01*
X149135000Y-77697500D02*
X149135000Y-77132500D01*
X214000000Y-75200000D02*
X214000000Y-75350000D01*
X224381250Y-75950000D02*
X224696250Y-76265000D01*
X166325500Y-68025500D02*
X166300000Y-68000000D01*
X214600000Y-75950000D02*
X224381250Y-75950000D01*
%TO.N,COL6*%
X216950000Y-79400000D02*
X217247500Y-79697500D01*
X216950000Y-78250000D02*
X216950000Y-79400000D01*
X217247500Y-79697500D02*
X222156250Y-79697500D01*
X158750000Y-79200000D02*
X158277500Y-79672500D01*
X158750000Y-79074500D02*
X158750000Y-79200000D01*
X158277500Y-79672500D02*
X151675000Y-79672500D01*
%TO.N,COL0*%
X181996750Y-72050000D02*
X164395750Y-72050000D01*
X155047500Y-72052500D02*
X151675000Y-72052500D01*
X162946750Y-72050000D02*
X155050000Y-72050000D01*
X222156250Y-72077500D02*
X202527500Y-72077500D01*
X202527500Y-72077500D02*
X202500000Y-72050000D01*
X155050000Y-72050000D02*
X155047500Y-72052500D01*
X201046750Y-72050000D02*
X183445750Y-72050000D01*
%TO.N,COL1*%
X149785000Y-70877500D02*
X149135000Y-71527500D01*
X164450000Y-70850000D02*
X181996750Y-70850000D01*
X224043750Y-70850000D02*
X224696250Y-71502500D01*
X162877500Y-70877500D02*
X149785000Y-70877500D01*
X183445750Y-70850000D02*
X201046750Y-70850000D01*
X202495750Y-70850000D02*
X224043750Y-70850000D01*
X149135000Y-71527500D02*
X149135000Y-72052500D01*
X224696250Y-71502500D02*
X224696250Y-72077500D01*
X162900000Y-70900000D02*
X162877500Y-70877500D01*
%TO.N,COL2*%
X164395750Y-74550000D02*
X168450000Y-74550000D01*
X155107500Y-74592500D02*
X162842500Y-74592500D01*
X221788750Y-74250000D02*
X222156250Y-74617500D01*
X155100000Y-74600000D02*
X155092500Y-74592500D01*
X168800000Y-74200000D02*
X172450000Y-74200000D01*
X155092500Y-74592500D02*
X151675000Y-74592500D01*
X168450000Y-74550000D02*
X168550000Y-74450000D01*
X172450000Y-74200000D02*
X181300000Y-74200000D01*
X203154605Y-74205313D02*
X203199292Y-74250000D01*
X162842500Y-74592500D02*
X162850000Y-74600000D01*
X155100000Y-74600000D02*
X155107500Y-74592500D01*
X168550000Y-74450000D02*
X168800000Y-74200000D01*
X184050000Y-74200000D02*
X200400000Y-74200000D01*
X203199292Y-74250000D02*
X221788750Y-74250000D01*
%TO.N,COL7*%
X157397000Y-80850000D02*
X149906250Y-80850000D01*
X149135000Y-80078750D02*
X149135000Y-79672500D01*
X224696250Y-78646250D02*
X224696250Y-79697500D01*
X217881541Y-77926541D02*
X218477500Y-78522500D01*
X224572500Y-78522500D02*
X224696250Y-78646250D01*
X149906250Y-80850000D02*
X149135000Y-80078750D01*
X217881541Y-77887734D02*
X217881541Y-77926541D01*
X157850000Y-80397000D02*
X157397000Y-80850000D01*
X218477500Y-78522500D02*
X224572500Y-78522500D01*
%TO.N,COL8*%
X163373750Y-82212500D02*
X163671250Y-81915000D01*
X163671250Y-78422500D02*
X163671250Y-81915000D01*
X155912500Y-82212500D02*
X163373750Y-82212500D01*
X214950000Y-83150000D02*
X215862500Y-82237500D01*
X155887500Y-82212500D02*
X151675000Y-82212500D01*
X163671250Y-81915000D02*
X163671250Y-83343750D01*
X200293996Y-89043996D02*
X200300000Y-89050000D01*
X163671250Y-68421250D02*
X163671250Y-78422500D01*
X163671250Y-89021250D02*
X163671250Y-97472500D01*
X213550000Y-89050000D02*
X213600000Y-89000000D01*
X214400000Y-88200000D02*
X214400000Y-88042000D01*
X214950000Y-84000000D02*
X214950000Y-83150000D01*
X155900000Y-82200000D02*
X155912500Y-82212500D01*
X163671250Y-89021250D02*
X181376154Y-89021250D01*
X181376154Y-89021250D02*
X181382284Y-89027380D01*
X163671250Y-59372500D02*
X163671250Y-68421250D01*
X163671250Y-83343750D02*
X163671250Y-89021250D01*
X203250000Y-89050000D02*
X213550000Y-89050000D01*
X184041070Y-89043996D02*
X200293996Y-89043996D01*
X155900000Y-82200000D02*
X155887500Y-82212500D01*
X213600000Y-89000000D02*
X214400000Y-88200000D01*
X215862500Y-82237500D02*
X222156250Y-82237500D01*
%TO.N,COL9*%
X203147074Y-91600000D02*
X203141070Y-91593996D01*
X217050000Y-83650000D02*
X217050000Y-83600000D01*
X164395750Y-83450000D02*
X173450000Y-83450000D01*
X224696250Y-83278750D02*
X224696250Y-82237500D01*
X162850000Y-83450000D02*
X149331250Y-83450000D01*
X173450000Y-83450000D02*
X173800000Y-83800000D01*
X182721250Y-68294250D02*
X182721250Y-67214750D01*
X215900000Y-91600000D02*
X213750000Y-91600000D01*
X182721250Y-78422500D02*
X182721250Y-68294250D01*
X224375000Y-83600000D02*
X224696250Y-83278750D01*
X178800000Y-83350000D02*
X182142500Y-83350000D01*
X213750000Y-91600000D02*
X203147074Y-91600000D01*
X149135000Y-83253750D02*
X149135000Y-82212500D01*
X182721250Y-67214750D02*
X182721250Y-59372500D01*
X182721250Y-91228750D02*
X182721250Y-82771250D01*
X199700000Y-91600000D02*
X183092500Y-91600000D01*
X217050000Y-83600000D02*
X224375000Y-83600000D01*
X182721250Y-97472500D02*
X182721250Y-91228750D01*
X182721250Y-82771250D02*
X182721250Y-78422500D01*
X149331250Y-83450000D02*
X149135000Y-83253750D01*
X183092500Y-91600000D02*
X182721250Y-91228750D01*
X182142500Y-83350000D02*
X182721250Y-82771250D01*
%TO.N,COL10*%
X201392500Y-84150000D02*
X201771250Y-83771250D01*
X162897500Y-84752500D02*
X162900000Y-84750000D01*
X201834750Y-78486000D02*
X201771250Y-78422500D01*
X211655750Y-85850000D02*
X202250000Y-85850000D01*
X164395750Y-84750000D02*
X174950000Y-84750000D01*
X202250000Y-85850000D02*
X201771250Y-85371250D01*
X201771250Y-97472500D02*
X201771250Y-85371250D01*
X201771250Y-68992750D02*
X201771250Y-78422500D01*
X211850000Y-85655750D02*
X211655750Y-85850000D01*
X214522500Y-84777500D02*
X213750000Y-85550000D01*
X201771250Y-59372500D02*
X201771250Y-68992750D01*
X222156250Y-84777500D02*
X214522500Y-84777500D01*
X201771250Y-83771250D02*
X201771250Y-78422500D01*
X201771250Y-85371250D02*
X201771250Y-83771250D01*
X151675000Y-84752500D02*
X162897500Y-84752500D01*
X196450000Y-84150000D02*
X201392500Y-84150000D01*
%TO.N,ROW8*%
X164400000Y-89850000D02*
X181950000Y-89850000D01*
X202495750Y-89850000D02*
X202503250Y-89857500D01*
X183450000Y-89850000D02*
X201000000Y-89850000D01*
X162929250Y-89832500D02*
X151675000Y-89832500D01*
X162946750Y-89850000D02*
X162929250Y-89832500D01*
X202503250Y-89857500D02*
X222156250Y-89857500D01*
%TO.N,ROW9*%
X221397500Y-91222500D02*
X220775000Y-90600000D01*
X149745000Y-91007500D02*
X149135000Y-90397500D01*
X184109918Y-90600000D02*
X184104605Y-90605313D01*
X224631250Y-91222500D02*
X221397500Y-91222500D01*
X224696250Y-89857500D02*
X224696250Y-91157500D01*
X220662500Y-90600000D02*
X220775000Y-90600000D01*
X220662500Y-90600000D02*
X203550000Y-90600000D01*
X224696250Y-91157500D02*
X224631250Y-91222500D01*
X157162500Y-90650000D02*
X156805000Y-91007500D01*
X200250000Y-90600000D02*
X184109918Y-90600000D01*
X162300000Y-90650000D02*
X157162500Y-90650000D01*
X156805000Y-91007500D02*
X149745000Y-91007500D01*
X181150000Y-90650000D02*
X165050000Y-90650000D01*
X149135000Y-90397500D02*
X149135000Y-89832500D01*
%TO.N,+5V*%
X202550000Y-69550000D02*
X202562500Y-69537500D01*
X181996750Y-69550000D02*
X164395750Y-69550000D01*
X202562500Y-69537500D02*
X222156250Y-69537500D01*
X162812500Y-69512500D02*
X151675000Y-69512500D01*
X201046750Y-69550000D02*
X183445750Y-69550000D01*
X162850000Y-69550000D02*
X162812500Y-69512500D01*
%TD*%
M02*
