%TF.GenerationSoftware,KiCad,Pcbnew,(6.0.9)*%
%TF.CreationDate,2023-03-10T16:46:29-06:00*%
%TF.ProjectId,Programmable Keys,50726f67-7261-46d6-9d61-626c65204b65,rev?*%
%TF.SameCoordinates,Original*%
%TF.FileFunction,Drillmap*%
%TF.FilePolarity,Positive*%
%FSLAX45Y45*%
G04 Gerber Fmt 4.5, Leading zero omitted, Abs format (unit mm)*
G04 Created by KiCad (PCBNEW (6.0.9)) date 2023-03-10 16:46:29*
%MOMM*%
%LPD*%
G01*
G04 APERTURE LIST*
%ADD10C,0.150000*%
%ADD11C,0.100000*%
%ADD12C,0.200000*%
%ADD13C,0.040000*%
%ADD14C,0.147000*%
G04 APERTURE END LIST*
D10*
X14763750Y-10715625D02*
G75*
G03*
X15001875Y-10953750I237600J-525D01*
G01*
D11*
X15240000Y-10556875D02*
G75*
G03*
X15240000Y-10556875I-79375J0D01*
G01*
D10*
X15001875Y-5238750D02*
X22383750Y-5238750D01*
D11*
X22304375Y-10556875D02*
G75*
G03*
X22304375Y-10556875I-79375J0D01*
G01*
D10*
X22383750Y-10953755D02*
G75*
G03*
X22621875Y-10715625I-10J238135D01*
G01*
X14763750Y-10715625D02*
X14763750Y-5476875D01*
X15001875Y-10953750D02*
X22383750Y-10953750D01*
D11*
X22304375Y-5635625D02*
G75*
G03*
X22304375Y-5635625I-79375J0D01*
G01*
D10*
X22621870Y-5476875D02*
G75*
G03*
X22383750Y-5238750I-238120J5D01*
G01*
X22621875Y-5476875D02*
X22621875Y-10715625D01*
D11*
X15240000Y-5635625D02*
G75*
G03*
X15240000Y-5635625I-79375J0D01*
G01*
D10*
X15001875Y-5238750D02*
G75*
G03*
X14763750Y-5476875I5J-238130D01*
G01*
D12*
D13*
X15765000Y-8019700D02*
X15805000Y-8059700D01*
X15805000Y-8019700D02*
X15765000Y-8059700D01*
X15855000Y-7887450D02*
X15895000Y-7927450D01*
X15895000Y-7887450D02*
X15855000Y-7927450D01*
X16000000Y-8875000D02*
X16040000Y-8915000D01*
X16040000Y-8875000D02*
X16000000Y-8915000D01*
X16000000Y-9320000D02*
X16040000Y-9360000D01*
X16040000Y-9320000D02*
X16000000Y-9360000D01*
X16017550Y-7685000D02*
X16057550Y-7725000D01*
X16057550Y-7685000D02*
X16017550Y-7725000D01*
X16070000Y-8585000D02*
X16110000Y-8625000D01*
X16110000Y-8585000D02*
X16070000Y-8625000D01*
X16190000Y-6858800D02*
X16230000Y-6898800D01*
X16230000Y-6858800D02*
X16190000Y-6898800D01*
X16200000Y-7580000D02*
X16240000Y-7620000D01*
X16240000Y-7580000D02*
X16200000Y-7620000D01*
X16210000Y-9045000D02*
X16250000Y-9085000D01*
X16250000Y-9045000D02*
X16210000Y-9085000D01*
X16265000Y-6935000D02*
X16305000Y-6975000D01*
X16305000Y-6935000D02*
X16265000Y-6975000D01*
X16265000Y-7440000D02*
X16305000Y-7480000D01*
X16305000Y-7440000D02*
X16265000Y-7480000D01*
X16265000Y-8325000D02*
X16305000Y-8365000D01*
X16305000Y-8325000D02*
X16265000Y-8365000D01*
X16265000Y-8710000D02*
X16305000Y-8750000D01*
X16305000Y-8710000D02*
X16265000Y-8750000D01*
X16270000Y-7070000D02*
X16310000Y-7110000D01*
X16310000Y-7070000D02*
X16270000Y-7110000D01*
X16270000Y-8455000D02*
X16310000Y-8495000D01*
X16310000Y-8455000D02*
X16270000Y-8495000D01*
X16274675Y-7185000D02*
X16314675Y-7225000D01*
X16314675Y-7185000D02*
X16274675Y-7225000D01*
X16274675Y-7320000D02*
X16314675Y-7360000D01*
X16314675Y-7320000D02*
X16274675Y-7360000D01*
X16274675Y-8965000D02*
X16314675Y-9005000D01*
X16314675Y-8965000D02*
X16274675Y-9005000D01*
X16274675Y-9215000D02*
X16314675Y-9255000D01*
X16314675Y-9215000D02*
X16274675Y-9255000D01*
X16419575Y-6935000D02*
X16459575Y-6975000D01*
X16459575Y-6935000D02*
X16419575Y-6975000D01*
X16419575Y-7185000D02*
X16459575Y-7225000D01*
X16459575Y-7185000D02*
X16419575Y-7225000D01*
X16419575Y-7320000D02*
X16459575Y-7360000D01*
X16459575Y-7320000D02*
X16419575Y-7360000D01*
X16419575Y-7435000D02*
X16459575Y-7475000D01*
X16459575Y-7435000D02*
X16419575Y-7475000D01*
X16419575Y-7435000D02*
X16459575Y-7475000D01*
X16459575Y-7435000D02*
X16419575Y-7475000D01*
X16419575Y-8325000D02*
X16459575Y-8365000D01*
X16459575Y-8325000D02*
X16419575Y-8365000D01*
X16419575Y-8455000D02*
X16459575Y-8495000D01*
X16459575Y-8455000D02*
X16419575Y-8495000D01*
X16419575Y-8710000D02*
X16459575Y-8750000D01*
X16459575Y-8710000D02*
X16419575Y-8750000D01*
X16419575Y-9220000D02*
X16459575Y-9260000D01*
X16459575Y-9220000D02*
X16419575Y-9260000D01*
X16420000Y-8965000D02*
X16460000Y-9005000D01*
X16460000Y-8965000D02*
X16420000Y-9005000D01*
X16425000Y-7065000D02*
X16465000Y-7105000D01*
X16465000Y-7065000D02*
X16425000Y-7105000D01*
X16440000Y-6702050D02*
X16480000Y-6742050D01*
X16480000Y-6702050D02*
X16440000Y-6742050D01*
X16485000Y-9045000D02*
X16525000Y-9085000D01*
X16525000Y-9045000D02*
X16485000Y-9085000D01*
X16525000Y-6860000D02*
X16565000Y-6900000D01*
X16565000Y-6860000D02*
X16525000Y-6900000D01*
X16610000Y-6780000D02*
X16650000Y-6820000D01*
X16650000Y-6780000D02*
X16610000Y-6820000D01*
X17360000Y-8360000D02*
X17400000Y-8400000D01*
X17400000Y-8360000D02*
X17360000Y-8400000D01*
X17475000Y-8455000D02*
X17515000Y-8495000D01*
X17515000Y-8455000D02*
X17475000Y-8495000D01*
X17860000Y-8315000D02*
X17900000Y-8355000D01*
X17900000Y-8315000D02*
X17860000Y-8355000D01*
X18077500Y-8473125D02*
X18117500Y-8513125D01*
X18117500Y-8473125D02*
X18077500Y-8513125D01*
X18090000Y-6855000D02*
X18130000Y-6895000D01*
X18130000Y-6855000D02*
X18090000Y-6895000D01*
X18095000Y-9045000D02*
X18135000Y-9085000D01*
X18135000Y-9045000D02*
X18095000Y-9085000D01*
X18110000Y-7400000D02*
X18150000Y-7440000D01*
X18150000Y-7400000D02*
X18110000Y-7440000D01*
X18118228Y-8882738D02*
X18158228Y-8922738D01*
X18158228Y-8882738D02*
X18118228Y-8922738D01*
X18156875Y-6568125D02*
X18196875Y-6608125D01*
X18196875Y-6568125D02*
X18156875Y-6608125D01*
X18175000Y-6782550D02*
X18215000Y-6822550D01*
X18215000Y-6782550D02*
X18175000Y-6822550D01*
X18175000Y-8965000D02*
X18215000Y-9005000D01*
X18215000Y-8965000D02*
X18175000Y-9005000D01*
X18179675Y-6935000D02*
X18219675Y-6975000D01*
X18219675Y-6935000D02*
X18179675Y-6975000D01*
X18179675Y-7065000D02*
X18219675Y-7105000D01*
X18219675Y-7065000D02*
X18179675Y-7105000D01*
X18179675Y-7185000D02*
X18219675Y-7225000D01*
X18219675Y-7185000D02*
X18179675Y-7225000D01*
X18179675Y-7320000D02*
X18219675Y-7360000D01*
X18219675Y-7320000D02*
X18179675Y-7360000D01*
X18179675Y-9220000D02*
X18219675Y-9260000D01*
X18219675Y-9220000D02*
X18179675Y-9260000D01*
X18324575Y-6935000D02*
X18364575Y-6975000D01*
X18364575Y-6935000D02*
X18324575Y-6975000D01*
X18324575Y-7065000D02*
X18364575Y-7105000D01*
X18364575Y-7065000D02*
X18324575Y-7105000D01*
X18324575Y-7185000D02*
X18364575Y-7225000D01*
X18364575Y-7185000D02*
X18324575Y-7225000D01*
X18324575Y-7320000D02*
X18364575Y-7360000D01*
X18364575Y-7320000D02*
X18324575Y-7360000D01*
X18325000Y-6782550D02*
X18365000Y-6822550D01*
X18365000Y-6782550D02*
X18325000Y-6822550D01*
X18325000Y-8965000D02*
X18365000Y-9005000D01*
X18365000Y-8965000D02*
X18325000Y-9005000D01*
X18330000Y-9220000D02*
X18370000Y-9260000D01*
X18370000Y-9220000D02*
X18330000Y-9260000D01*
X18384107Y-8884400D02*
X18424107Y-8924400D01*
X18424107Y-8884400D02*
X18384107Y-8924400D01*
X18385000Y-7400000D02*
X18425000Y-7440000D01*
X18425000Y-7400000D02*
X18385000Y-7440000D01*
X18390461Y-9040531D02*
X18430461Y-9080531D01*
X18430461Y-9040531D02*
X18390461Y-9080531D01*
X18395000Y-6568125D02*
X18435000Y-6608125D01*
X18435000Y-6568125D02*
X18395000Y-6608125D01*
X18395000Y-8473125D02*
X18435000Y-8513125D01*
X18435000Y-8473125D02*
X18395000Y-8513125D01*
X18450000Y-6855000D02*
X18490000Y-6895000D01*
X18490000Y-6855000D02*
X18450000Y-6895000D01*
X19625000Y-8395000D02*
X19665000Y-8435000D01*
X19665000Y-8395000D02*
X19625000Y-8435000D01*
X19950000Y-9140000D02*
X19990000Y-9180000D01*
X19990000Y-9140000D02*
X19950000Y-9180000D01*
X19982500Y-8473125D02*
X20022500Y-8513125D01*
X20022500Y-8473125D02*
X19982500Y-8513125D01*
X20005000Y-6855000D02*
X20045000Y-6895000D01*
X20045000Y-6855000D02*
X20005000Y-6895000D01*
X20005000Y-9040000D02*
X20045000Y-9080000D01*
X20045000Y-9040000D02*
X20005000Y-9080000D01*
X20010000Y-8885000D02*
X20050000Y-8925000D01*
X20050000Y-8885000D02*
X20010000Y-8925000D01*
X20020000Y-7400000D02*
X20060000Y-7440000D01*
X20060000Y-7400000D02*
X20020000Y-7440000D01*
X20061875Y-6568125D02*
X20101875Y-6608125D01*
X20101875Y-6568125D02*
X20061875Y-6608125D01*
X20080000Y-8965000D02*
X20120000Y-9005000D01*
X20120000Y-8965000D02*
X20080000Y-9005000D01*
X20084675Y-6782550D02*
X20124675Y-6822550D01*
X20124675Y-6782550D02*
X20084675Y-6822550D01*
X20084675Y-6935000D02*
X20124675Y-6975000D01*
X20124675Y-6935000D02*
X20084675Y-6975000D01*
X20084675Y-7065000D02*
X20124675Y-7105000D01*
X20124675Y-7065000D02*
X20084675Y-7105000D01*
X20084675Y-7185000D02*
X20124675Y-7225000D01*
X20124675Y-7185000D02*
X20084675Y-7225000D01*
X20084675Y-7320000D02*
X20124675Y-7360000D01*
X20124675Y-7320000D02*
X20084675Y-7360000D01*
X20084675Y-9220000D02*
X20124675Y-9260000D01*
X20124675Y-9220000D02*
X20084675Y-9260000D01*
X20229575Y-6782550D02*
X20269575Y-6822550D01*
X20269575Y-6782550D02*
X20229575Y-6822550D01*
X20229575Y-7065000D02*
X20269575Y-7105000D01*
X20269575Y-7065000D02*
X20229575Y-7105000D01*
X20229575Y-8965000D02*
X20269575Y-9005000D01*
X20269575Y-8965000D02*
X20229575Y-9005000D01*
X20230000Y-7185000D02*
X20270000Y-7225000D01*
X20270000Y-7185000D02*
X20230000Y-7225000D01*
X20230000Y-7325000D02*
X20270000Y-7365000D01*
X20270000Y-7325000D02*
X20230000Y-7365000D01*
X20235000Y-6935000D02*
X20275000Y-6975000D01*
X20275000Y-6935000D02*
X20235000Y-6975000D01*
X20235000Y-9220000D02*
X20275000Y-9260000D01*
X20275000Y-9220000D02*
X20235000Y-9260000D01*
X20294107Y-9139400D02*
X20334107Y-9179400D01*
X20334107Y-9139400D02*
X20294107Y-9179400D01*
X20295461Y-7400531D02*
X20335461Y-7440531D01*
X20335461Y-7400531D02*
X20295461Y-7440531D01*
X20300000Y-6568125D02*
X20340000Y-6608125D01*
X20340000Y-6568125D02*
X20300000Y-6608125D01*
X20300000Y-8473125D02*
X20340000Y-8513125D01*
X20340000Y-8473125D02*
X20300000Y-8513125D01*
X20305000Y-8885000D02*
X20345000Y-8925000D01*
X20345000Y-8885000D02*
X20305000Y-8925000D01*
X20330000Y-6855000D02*
X20370000Y-6895000D01*
X20370000Y-6855000D02*
X20330000Y-6895000D01*
X20335000Y-9040000D02*
X20375000Y-9080000D01*
X20375000Y-9040000D02*
X20335000Y-9080000D01*
X21010000Y-7505000D02*
X21050000Y-7545000D01*
X21050000Y-7505000D02*
X21010000Y-7545000D01*
X21165000Y-8545575D02*
X21205000Y-8585575D01*
X21205000Y-8545575D02*
X21165000Y-8585575D01*
X21315000Y-6782550D02*
X21355000Y-6822550D01*
X21355000Y-6782550D02*
X21315000Y-6822550D01*
X21355000Y-8535000D02*
X21395000Y-8575000D01*
X21395000Y-8535000D02*
X21355000Y-8575000D01*
X21380000Y-7500000D02*
X21420000Y-7540000D01*
X21420000Y-7500000D02*
X21380000Y-7540000D01*
X21420000Y-8784200D02*
X21460000Y-8824200D01*
X21460000Y-8784200D02*
X21420000Y-8824200D01*
X21440000Y-8885000D02*
X21480000Y-8925000D01*
X21480000Y-8885000D02*
X21440000Y-8925000D01*
X21440000Y-9292200D02*
X21480000Y-9332200D01*
X21480000Y-9292200D02*
X21440000Y-9332200D01*
X21475000Y-8380000D02*
X21515000Y-8420000D01*
X21515000Y-8380000D02*
X21475000Y-8420000D01*
X21570000Y-9140000D02*
X21610000Y-9180000D01*
X21610000Y-9140000D02*
X21570000Y-9180000D01*
X21575000Y-6780000D02*
X21615000Y-6820000D01*
X21615000Y-6780000D02*
X21575000Y-6820000D01*
X21575000Y-8585000D02*
X21615000Y-8625000D01*
X21615000Y-8585000D02*
X21575000Y-8625000D01*
X21675000Y-7805000D02*
X21715000Y-7845000D01*
X21715000Y-7805000D02*
X21675000Y-7845000D01*
X21685000Y-8345000D02*
X21725000Y-8385000D01*
X21725000Y-8345000D02*
X21685000Y-8385000D01*
X21768154Y-7768773D02*
X21808154Y-7808773D01*
X21808154Y-7768773D02*
X21768154Y-7808773D01*
D11*
X14963500Y-6951250D02*
G75*
G03*
X14963500Y-6951250I-50000J0D01*
G01*
X14963500Y-7205250D02*
G75*
G03*
X14963500Y-7205250I-50000J0D01*
G01*
X14963500Y-7459250D02*
G75*
G03*
X14963500Y-7459250I-50000J0D01*
G01*
X14963500Y-7713250D02*
G75*
G03*
X14963500Y-7713250I-50000J0D01*
G01*
X14963500Y-7967250D02*
G75*
G03*
X14963500Y-7967250I-50000J0D01*
G01*
X14963500Y-8221250D02*
G75*
G03*
X14963500Y-8221250I-50000J0D01*
G01*
X14963500Y-8475250D02*
G75*
G03*
X14963500Y-8475250I-50000J0D01*
G01*
X14963500Y-8729250D02*
G75*
G03*
X14963500Y-8729250I-50000J0D01*
G01*
X14963500Y-8983250D02*
G75*
G03*
X14963500Y-8983250I-50000J0D01*
G01*
X14963500Y-9237250D02*
G75*
G03*
X14963500Y-9237250I-50000J0D01*
G01*
X15217500Y-6951250D02*
G75*
G03*
X15217500Y-6951250I-50000J0D01*
G01*
X15217500Y-7205250D02*
G75*
G03*
X15217500Y-7205250I-50000J0D01*
G01*
X15217500Y-7459250D02*
G75*
G03*
X15217500Y-7459250I-50000J0D01*
G01*
X15217500Y-7713250D02*
G75*
G03*
X15217500Y-7713250I-50000J0D01*
G01*
X15217500Y-7967250D02*
G75*
G03*
X15217500Y-7967250I-50000J0D01*
G01*
X15217500Y-8221250D02*
G75*
G03*
X15217500Y-8221250I-50000J0D01*
G01*
X15217500Y-8475250D02*
G75*
G03*
X15217500Y-8475250I-50000J0D01*
G01*
X15217500Y-8729250D02*
G75*
G03*
X15217500Y-8729250I-50000J0D01*
G01*
X15217500Y-8983250D02*
G75*
G03*
X15217500Y-8983250I-50000J0D01*
G01*
X15217500Y-9237250D02*
G75*
G03*
X15217500Y-9237250I-50000J0D01*
G01*
X22265625Y-6953750D02*
G75*
G03*
X22265625Y-6953750I-50000J0D01*
G01*
X22265625Y-7207750D02*
G75*
G03*
X22265625Y-7207750I-50000J0D01*
G01*
X22265625Y-7461750D02*
G75*
G03*
X22265625Y-7461750I-50000J0D01*
G01*
X22265625Y-7715750D02*
G75*
G03*
X22265625Y-7715750I-50000J0D01*
G01*
X22265625Y-7969750D02*
G75*
G03*
X22265625Y-7969750I-50000J0D01*
G01*
X22265625Y-8223750D02*
G75*
G03*
X22265625Y-8223750I-50000J0D01*
G01*
X22265625Y-8477750D02*
G75*
G03*
X22265625Y-8477750I-50000J0D01*
G01*
X22265625Y-8731750D02*
G75*
G03*
X22265625Y-8731750I-50000J0D01*
G01*
X22265625Y-8985750D02*
G75*
G03*
X22265625Y-8985750I-50000J0D01*
G01*
X22265625Y-9239750D02*
G75*
G03*
X22265625Y-9239750I-50000J0D01*
G01*
X22519625Y-6953750D02*
G75*
G03*
X22519625Y-6953750I-50000J0D01*
G01*
X22519625Y-7207750D02*
G75*
G03*
X22519625Y-7207750I-50000J0D01*
G01*
X22519625Y-7461750D02*
G75*
G03*
X22519625Y-7461750I-50000J0D01*
G01*
X22519625Y-7715750D02*
G75*
G03*
X22519625Y-7715750I-50000J0D01*
G01*
X22519625Y-7969750D02*
G75*
G03*
X22519625Y-7969750I-50000J0D01*
G01*
X22519625Y-8223750D02*
G75*
G03*
X22519625Y-8223750I-50000J0D01*
G01*
X22519625Y-8477750D02*
G75*
G03*
X22519625Y-8477750I-50000J0D01*
G01*
X22519625Y-8731750D02*
G75*
G03*
X22519625Y-8731750I-50000J0D01*
G01*
X22519625Y-8985750D02*
G75*
G03*
X22519625Y-8985750I-50000J0D01*
G01*
X22519625Y-9239750D02*
G75*
G03*
X22519625Y-9239750I-50000J0D01*
G01*
D14*
X16367125Y-5863750D02*
X16367125Y-6010750D01*
X16293625Y-5937250D02*
X16440625Y-5937250D01*
X16367125Y-7768750D02*
X16367125Y-7915750D01*
X16293625Y-7842250D02*
X16440625Y-7842250D01*
X16367125Y-9673750D02*
X16367125Y-9820750D01*
X16293625Y-9747250D02*
X16440625Y-9747250D01*
X16498125Y-5717750D02*
X16498125Y-5864750D01*
X16424625Y-5791250D02*
X16571625Y-5791250D01*
X16498125Y-7622750D02*
X16498125Y-7769750D01*
X16424625Y-7696250D02*
X16571625Y-7696250D01*
X16498125Y-9527750D02*
X16498125Y-9674750D01*
X16424625Y-9601250D02*
X16571625Y-9601250D01*
X16998125Y-5667750D02*
X16998125Y-5814750D01*
X16924625Y-5741250D02*
X17071625Y-5741250D01*
X16998125Y-7572750D02*
X16998125Y-7719750D01*
X16924625Y-7646250D02*
X17071625Y-7646250D01*
X16998125Y-9477750D02*
X16998125Y-9624750D01*
X16924625Y-9551250D02*
X17071625Y-9551250D01*
X17002125Y-5609750D02*
X17002125Y-5756750D01*
X16928625Y-5683250D02*
X17075625Y-5683250D01*
X17002125Y-7514750D02*
X17002125Y-7661750D01*
X16928625Y-7588250D02*
X17075625Y-7588250D01*
X17002125Y-9419750D02*
X17002125Y-9566750D01*
X16928625Y-9493250D02*
X17075625Y-9493250D01*
X18272125Y-5863750D02*
X18272125Y-6010750D01*
X18198625Y-5937250D02*
X18345625Y-5937250D01*
X18272125Y-7768750D02*
X18272125Y-7915750D01*
X18198625Y-7842250D02*
X18345625Y-7842250D01*
X18272125Y-9673750D02*
X18272125Y-9820750D01*
X18198625Y-9747250D02*
X18345625Y-9747250D01*
X18403125Y-5717750D02*
X18403125Y-5864750D01*
X18329625Y-5791250D02*
X18476625Y-5791250D01*
X18403125Y-7622750D02*
X18403125Y-7769750D01*
X18329625Y-7696250D02*
X18476625Y-7696250D01*
X18403125Y-9527750D02*
X18403125Y-9674750D01*
X18329625Y-9601250D02*
X18476625Y-9601250D01*
X18903125Y-5667750D02*
X18903125Y-5814750D01*
X18829625Y-5741250D02*
X18976625Y-5741250D01*
X18903125Y-7572750D02*
X18903125Y-7719750D01*
X18829625Y-7646250D02*
X18976625Y-7646250D01*
X18903125Y-9477750D02*
X18903125Y-9624750D01*
X18829625Y-9551250D02*
X18976625Y-9551250D01*
X18907125Y-5609750D02*
X18907125Y-5756750D01*
X18833625Y-5683250D02*
X18980625Y-5683250D01*
X18907125Y-7514750D02*
X18907125Y-7661750D01*
X18833625Y-7588250D02*
X18980625Y-7588250D01*
X18907125Y-9419750D02*
X18907125Y-9566750D01*
X18833625Y-9493250D02*
X18980625Y-9493250D01*
X20177125Y-5863750D02*
X20177125Y-6010750D01*
X20103625Y-5937250D02*
X20250625Y-5937250D01*
X20177125Y-7768750D02*
X20177125Y-7915750D01*
X20103625Y-7842250D02*
X20250625Y-7842250D01*
X20177125Y-9673750D02*
X20177125Y-9820750D01*
X20103625Y-9747250D02*
X20250625Y-9747250D01*
X20308125Y-5717750D02*
X20308125Y-5864750D01*
X20234625Y-5791250D02*
X20381625Y-5791250D01*
X20308125Y-7622750D02*
X20308125Y-7769750D01*
X20234625Y-7696250D02*
X20381625Y-7696250D01*
X20308125Y-9527750D02*
X20308125Y-9674750D01*
X20234625Y-9601250D02*
X20381625Y-9601250D01*
X20808125Y-5667750D02*
X20808125Y-5814750D01*
X20734625Y-5741250D02*
X20881625Y-5741250D01*
X20808125Y-7572750D02*
X20808125Y-7719750D01*
X20734625Y-7646250D02*
X20881625Y-7646250D01*
X20808125Y-9477750D02*
X20808125Y-9624750D01*
X20734625Y-9551250D02*
X20881625Y-9551250D01*
X20812125Y-5609750D02*
X20812125Y-5756750D01*
X20738625Y-5683250D02*
X20885625Y-5683250D01*
X20812125Y-7514750D02*
X20812125Y-7661750D01*
X20738625Y-7588250D02*
X20885625Y-7588250D01*
X20812125Y-9419750D02*
X20812125Y-9566750D01*
X20738625Y-9493250D02*
X20885625Y-9493250D01*
D12*
X15013869Y-11271727D02*
X15013869Y-11071727D01*
X15061488Y-11071727D01*
X15090059Y-11081251D01*
X15109107Y-11100298D01*
X15118631Y-11119346D01*
X15128155Y-11157441D01*
X15128155Y-11186012D01*
X15118631Y-11224108D01*
X15109107Y-11243155D01*
X15090059Y-11262203D01*
X15061488Y-11271727D01*
X15013869Y-11271727D01*
X15213869Y-11271727D02*
X15213869Y-11138393D01*
X15213869Y-11176489D02*
X15223393Y-11157441D01*
X15232917Y-11147917D01*
X15251964Y-11138393D01*
X15271012Y-11138393D01*
X15337678Y-11271727D02*
X15337678Y-11138393D01*
X15337678Y-11071727D02*
X15328155Y-11081251D01*
X15337678Y-11090774D01*
X15347202Y-11081251D01*
X15337678Y-11071727D01*
X15337678Y-11090774D01*
X15461488Y-11271727D02*
X15442440Y-11262203D01*
X15432917Y-11243155D01*
X15432917Y-11071727D01*
X15566250Y-11271727D02*
X15547202Y-11262203D01*
X15537678Y-11243155D01*
X15537678Y-11071727D01*
X15794821Y-11271727D02*
X15794821Y-11071727D01*
X15861488Y-11214584D01*
X15928155Y-11071727D01*
X15928155Y-11271727D01*
X16109107Y-11271727D02*
X16109107Y-11166965D01*
X16099583Y-11147917D01*
X16080536Y-11138393D01*
X16042440Y-11138393D01*
X16023393Y-11147917D01*
X16109107Y-11262203D02*
X16090059Y-11271727D01*
X16042440Y-11271727D01*
X16023393Y-11262203D01*
X16013869Y-11243155D01*
X16013869Y-11224108D01*
X16023393Y-11205060D01*
X16042440Y-11195536D01*
X16090059Y-11195536D01*
X16109107Y-11186012D01*
X16204345Y-11138393D02*
X16204345Y-11338393D01*
X16204345Y-11147917D02*
X16223393Y-11138393D01*
X16261488Y-11138393D01*
X16280536Y-11147917D01*
X16290059Y-11157441D01*
X16299583Y-11176489D01*
X16299583Y-11233631D01*
X16290059Y-11252679D01*
X16280536Y-11262203D01*
X16261488Y-11271727D01*
X16223393Y-11271727D01*
X16204345Y-11262203D01*
X16385298Y-11252679D02*
X16394821Y-11262203D01*
X16385298Y-11271727D01*
X16375774Y-11262203D01*
X16385298Y-11252679D01*
X16385298Y-11271727D01*
X16385298Y-11147917D02*
X16394821Y-11157441D01*
X16385298Y-11166965D01*
X16375774Y-11157441D01*
X16385298Y-11147917D01*
X16385298Y-11166965D01*
D13*
X14716250Y-11581251D02*
X14756250Y-11621251D01*
X14756250Y-11581251D02*
X14716250Y-11621251D01*
D12*
X15051964Y-11491727D02*
X15071012Y-11491727D01*
X15090059Y-11501251D01*
X15099583Y-11510774D01*
X15109107Y-11529822D01*
X15118631Y-11567917D01*
X15118631Y-11615536D01*
X15109107Y-11653631D01*
X15099583Y-11672679D01*
X15090059Y-11682203D01*
X15071012Y-11691727D01*
X15051964Y-11691727D01*
X15032917Y-11682203D01*
X15023393Y-11672679D01*
X15013869Y-11653631D01*
X15004345Y-11615536D01*
X15004345Y-11567917D01*
X15013869Y-11529822D01*
X15023393Y-11510774D01*
X15032917Y-11501251D01*
X15051964Y-11491727D01*
X15204345Y-11672679D02*
X15213869Y-11682203D01*
X15204345Y-11691727D01*
X15194821Y-11682203D01*
X15204345Y-11672679D01*
X15204345Y-11691727D01*
X15385298Y-11558393D02*
X15385298Y-11691727D01*
X15337678Y-11482203D02*
X15290059Y-11625060D01*
X15413869Y-11625060D01*
X15528155Y-11491727D02*
X15547202Y-11491727D01*
X15566250Y-11501251D01*
X15575774Y-11510774D01*
X15585298Y-11529822D01*
X15594821Y-11567917D01*
X15594821Y-11615536D01*
X15585298Y-11653631D01*
X15575774Y-11672679D01*
X15566250Y-11682203D01*
X15547202Y-11691727D01*
X15528155Y-11691727D01*
X15509107Y-11682203D01*
X15499583Y-11672679D01*
X15490059Y-11653631D01*
X15480536Y-11615536D01*
X15480536Y-11567917D01*
X15490059Y-11529822D01*
X15499583Y-11510774D01*
X15509107Y-11501251D01*
X15528155Y-11491727D01*
X15718631Y-11491727D02*
X15737678Y-11491727D01*
X15756726Y-11501251D01*
X15766250Y-11510774D01*
X15775774Y-11529822D01*
X15785298Y-11567917D01*
X15785298Y-11615536D01*
X15775774Y-11653631D01*
X15766250Y-11672679D01*
X15756726Y-11682203D01*
X15737678Y-11691727D01*
X15718631Y-11691727D01*
X15699583Y-11682203D01*
X15690059Y-11672679D01*
X15680536Y-11653631D01*
X15671012Y-11615536D01*
X15671012Y-11567917D01*
X15680536Y-11529822D01*
X15690059Y-11510774D01*
X15699583Y-11501251D01*
X15718631Y-11491727D01*
X15871012Y-11691727D02*
X15871012Y-11558393D01*
X15871012Y-11577441D02*
X15880536Y-11567917D01*
X15899583Y-11558393D01*
X15928155Y-11558393D01*
X15947202Y-11567917D01*
X15956726Y-11586965D01*
X15956726Y-11691727D01*
X15956726Y-11586965D02*
X15966250Y-11567917D01*
X15985298Y-11558393D01*
X16013869Y-11558393D01*
X16032917Y-11567917D01*
X16042440Y-11586965D01*
X16042440Y-11691727D01*
X16137678Y-11691727D02*
X16137678Y-11558393D01*
X16137678Y-11577441D02*
X16147202Y-11567917D01*
X16166250Y-11558393D01*
X16194821Y-11558393D01*
X16213869Y-11567917D01*
X16223393Y-11586965D01*
X16223393Y-11691727D01*
X16223393Y-11586965D02*
X16232917Y-11567917D01*
X16251964Y-11558393D01*
X16280536Y-11558393D01*
X16299583Y-11567917D01*
X16309107Y-11586965D01*
X16309107Y-11691727D01*
X16699583Y-11482203D02*
X16528155Y-11739346D01*
X16956726Y-11491727D02*
X16975774Y-11491727D01*
X16994821Y-11501251D01*
X17004345Y-11510774D01*
X17013869Y-11529822D01*
X17023393Y-11567917D01*
X17023393Y-11615536D01*
X17013869Y-11653631D01*
X17004345Y-11672679D01*
X16994821Y-11682203D01*
X16975774Y-11691727D01*
X16956726Y-11691727D01*
X16937679Y-11682203D01*
X16928155Y-11672679D01*
X16918631Y-11653631D01*
X16909107Y-11615536D01*
X16909107Y-11567917D01*
X16918631Y-11529822D01*
X16928155Y-11510774D01*
X16937679Y-11501251D01*
X16956726Y-11491727D01*
X17109107Y-11672679D02*
X17118631Y-11682203D01*
X17109107Y-11691727D01*
X17099583Y-11682203D01*
X17109107Y-11672679D01*
X17109107Y-11691727D01*
X17242440Y-11491727D02*
X17261488Y-11491727D01*
X17280536Y-11501251D01*
X17290060Y-11510774D01*
X17299583Y-11529822D01*
X17309107Y-11567917D01*
X17309107Y-11615536D01*
X17299583Y-11653631D01*
X17290060Y-11672679D01*
X17280536Y-11682203D01*
X17261488Y-11691727D01*
X17242440Y-11691727D01*
X17223393Y-11682203D01*
X17213869Y-11672679D01*
X17204345Y-11653631D01*
X17194821Y-11615536D01*
X17194821Y-11567917D01*
X17204345Y-11529822D01*
X17213869Y-11510774D01*
X17223393Y-11501251D01*
X17242440Y-11491727D01*
X17499583Y-11691727D02*
X17385298Y-11691727D01*
X17442440Y-11691727D02*
X17442440Y-11491727D01*
X17423393Y-11520298D01*
X17404345Y-11539346D01*
X17385298Y-11548870D01*
X17680536Y-11491727D02*
X17585298Y-11491727D01*
X17575774Y-11586965D01*
X17585298Y-11577441D01*
X17604345Y-11567917D01*
X17651964Y-11567917D01*
X17671012Y-11577441D01*
X17680536Y-11586965D01*
X17690060Y-11606012D01*
X17690060Y-11653631D01*
X17680536Y-11672679D01*
X17671012Y-11682203D01*
X17651964Y-11691727D01*
X17604345Y-11691727D01*
X17585298Y-11682203D01*
X17575774Y-11672679D01*
X17756726Y-11491727D02*
X17890060Y-11491727D01*
X17804345Y-11691727D01*
X17956726Y-11491727D02*
X17956726Y-11529822D01*
X18032917Y-11491727D02*
X18032917Y-11529822D01*
X18328155Y-11767917D02*
X18318631Y-11758393D01*
X18299583Y-11729822D01*
X18290060Y-11710774D01*
X18280536Y-11682203D01*
X18271012Y-11634584D01*
X18271012Y-11596489D01*
X18280536Y-11548870D01*
X18290060Y-11520298D01*
X18299583Y-11501251D01*
X18318631Y-11472679D01*
X18328155Y-11463155D01*
X18509107Y-11691727D02*
X18394821Y-11691727D01*
X18451964Y-11691727D02*
X18451964Y-11491727D01*
X18432917Y-11520298D01*
X18413869Y-11539346D01*
X18394821Y-11548870D01*
X18632917Y-11491727D02*
X18651964Y-11491727D01*
X18671012Y-11501251D01*
X18680536Y-11510774D01*
X18690060Y-11529822D01*
X18699583Y-11567917D01*
X18699583Y-11615536D01*
X18690060Y-11653631D01*
X18680536Y-11672679D01*
X18671012Y-11682203D01*
X18651964Y-11691727D01*
X18632917Y-11691727D01*
X18613869Y-11682203D01*
X18604345Y-11672679D01*
X18594821Y-11653631D01*
X18585298Y-11615536D01*
X18585298Y-11567917D01*
X18594821Y-11529822D01*
X18604345Y-11510774D01*
X18613869Y-11501251D01*
X18632917Y-11491727D01*
X18766250Y-11491727D02*
X18899583Y-11491727D01*
X18813869Y-11691727D01*
X19128155Y-11691727D02*
X19128155Y-11491727D01*
X19213869Y-11691727D02*
X19213869Y-11586965D01*
X19204345Y-11567917D01*
X19185298Y-11558393D01*
X19156726Y-11558393D01*
X19137679Y-11567917D01*
X19128155Y-11577441D01*
X19337679Y-11691727D02*
X19318631Y-11682203D01*
X19309107Y-11672679D01*
X19299583Y-11653631D01*
X19299583Y-11596489D01*
X19309107Y-11577441D01*
X19318631Y-11567917D01*
X19337679Y-11558393D01*
X19366250Y-11558393D01*
X19385298Y-11567917D01*
X19394821Y-11577441D01*
X19404345Y-11596489D01*
X19404345Y-11653631D01*
X19394821Y-11672679D01*
X19385298Y-11682203D01*
X19366250Y-11691727D01*
X19337679Y-11691727D01*
X19518631Y-11691727D02*
X19499583Y-11682203D01*
X19490060Y-11663155D01*
X19490060Y-11491727D01*
X19671012Y-11682203D02*
X19651964Y-11691727D01*
X19613869Y-11691727D01*
X19594821Y-11682203D01*
X19585298Y-11663155D01*
X19585298Y-11586965D01*
X19594821Y-11567917D01*
X19613869Y-11558393D01*
X19651964Y-11558393D01*
X19671012Y-11567917D01*
X19680536Y-11586965D01*
X19680536Y-11606012D01*
X19585298Y-11625060D01*
X19756726Y-11682203D02*
X19775774Y-11691727D01*
X19813869Y-11691727D01*
X19832917Y-11682203D01*
X19842440Y-11663155D01*
X19842440Y-11653631D01*
X19832917Y-11634584D01*
X19813869Y-11625060D01*
X19785298Y-11625060D01*
X19766250Y-11615536D01*
X19756726Y-11596489D01*
X19756726Y-11586965D01*
X19766250Y-11567917D01*
X19785298Y-11558393D01*
X19813869Y-11558393D01*
X19832917Y-11567917D01*
X19909107Y-11767917D02*
X19918631Y-11758393D01*
X19937679Y-11729822D01*
X19947202Y-11710774D01*
X19956726Y-11682203D01*
X19966250Y-11634584D01*
X19966250Y-11596489D01*
X19956726Y-11548870D01*
X19947202Y-11520298D01*
X19937679Y-11501251D01*
X19918631Y-11472679D01*
X19909107Y-11463155D01*
D11*
X14756250Y-11865251D02*
G75*
G03*
X14756250Y-11865251I-50000J0D01*
G01*
D12*
X15118631Y-11955727D02*
X15004345Y-11955727D01*
X15061488Y-11955727D02*
X15061488Y-11755727D01*
X15042440Y-11784298D01*
X15023393Y-11803346D01*
X15004345Y-11812870D01*
X15204345Y-11936679D02*
X15213869Y-11946203D01*
X15204345Y-11955727D01*
X15194821Y-11946203D01*
X15204345Y-11936679D01*
X15204345Y-11955727D01*
X15337678Y-11755727D02*
X15356726Y-11755727D01*
X15375774Y-11765251D01*
X15385298Y-11774774D01*
X15394821Y-11793822D01*
X15404345Y-11831917D01*
X15404345Y-11879536D01*
X15394821Y-11917631D01*
X15385298Y-11936679D01*
X15375774Y-11946203D01*
X15356726Y-11955727D01*
X15337678Y-11955727D01*
X15318631Y-11946203D01*
X15309107Y-11936679D01*
X15299583Y-11917631D01*
X15290059Y-11879536D01*
X15290059Y-11831917D01*
X15299583Y-11793822D01*
X15309107Y-11774774D01*
X15318631Y-11765251D01*
X15337678Y-11755727D01*
X15528155Y-11755727D02*
X15547202Y-11755727D01*
X15566250Y-11765251D01*
X15575774Y-11774774D01*
X15585298Y-11793822D01*
X15594821Y-11831917D01*
X15594821Y-11879536D01*
X15585298Y-11917631D01*
X15575774Y-11936679D01*
X15566250Y-11946203D01*
X15547202Y-11955727D01*
X15528155Y-11955727D01*
X15509107Y-11946203D01*
X15499583Y-11936679D01*
X15490059Y-11917631D01*
X15480536Y-11879536D01*
X15480536Y-11831917D01*
X15490059Y-11793822D01*
X15499583Y-11774774D01*
X15509107Y-11765251D01*
X15528155Y-11755727D01*
X15718631Y-11755727D02*
X15737678Y-11755727D01*
X15756726Y-11765251D01*
X15766250Y-11774774D01*
X15775774Y-11793822D01*
X15785298Y-11831917D01*
X15785298Y-11879536D01*
X15775774Y-11917631D01*
X15766250Y-11936679D01*
X15756726Y-11946203D01*
X15737678Y-11955727D01*
X15718631Y-11955727D01*
X15699583Y-11946203D01*
X15690059Y-11936679D01*
X15680536Y-11917631D01*
X15671012Y-11879536D01*
X15671012Y-11831917D01*
X15680536Y-11793822D01*
X15690059Y-11774774D01*
X15699583Y-11765251D01*
X15718631Y-11755727D01*
X15871012Y-11955727D02*
X15871012Y-11822393D01*
X15871012Y-11841441D02*
X15880536Y-11831917D01*
X15899583Y-11822393D01*
X15928155Y-11822393D01*
X15947202Y-11831917D01*
X15956726Y-11850965D01*
X15956726Y-11955727D01*
X15956726Y-11850965D02*
X15966250Y-11831917D01*
X15985298Y-11822393D01*
X16013869Y-11822393D01*
X16032917Y-11831917D01*
X16042440Y-11850965D01*
X16042440Y-11955727D01*
X16137678Y-11955727D02*
X16137678Y-11822393D01*
X16137678Y-11841441D02*
X16147202Y-11831917D01*
X16166250Y-11822393D01*
X16194821Y-11822393D01*
X16213869Y-11831917D01*
X16223393Y-11850965D01*
X16223393Y-11955727D01*
X16223393Y-11850965D02*
X16232917Y-11831917D01*
X16251964Y-11822393D01*
X16280536Y-11822393D01*
X16299583Y-11831917D01*
X16309107Y-11850965D01*
X16309107Y-11955727D01*
X16699583Y-11746203D02*
X16528155Y-12003346D01*
X16956726Y-11755727D02*
X16975774Y-11755727D01*
X16994821Y-11765251D01*
X17004345Y-11774774D01*
X17013869Y-11793822D01*
X17023393Y-11831917D01*
X17023393Y-11879536D01*
X17013869Y-11917631D01*
X17004345Y-11936679D01*
X16994821Y-11946203D01*
X16975774Y-11955727D01*
X16956726Y-11955727D01*
X16937679Y-11946203D01*
X16928155Y-11936679D01*
X16918631Y-11917631D01*
X16909107Y-11879536D01*
X16909107Y-11831917D01*
X16918631Y-11793822D01*
X16928155Y-11774774D01*
X16937679Y-11765251D01*
X16956726Y-11755727D01*
X17109107Y-11936679D02*
X17118631Y-11946203D01*
X17109107Y-11955727D01*
X17099583Y-11946203D01*
X17109107Y-11936679D01*
X17109107Y-11955727D01*
X17242440Y-11755727D02*
X17261488Y-11755727D01*
X17280536Y-11765251D01*
X17290060Y-11774774D01*
X17299583Y-11793822D01*
X17309107Y-11831917D01*
X17309107Y-11879536D01*
X17299583Y-11917631D01*
X17290060Y-11936679D01*
X17280536Y-11946203D01*
X17261488Y-11955727D01*
X17242440Y-11955727D01*
X17223393Y-11946203D01*
X17213869Y-11936679D01*
X17204345Y-11917631D01*
X17194821Y-11879536D01*
X17194821Y-11831917D01*
X17204345Y-11793822D01*
X17213869Y-11774774D01*
X17223393Y-11765251D01*
X17242440Y-11755727D01*
X17375774Y-11755727D02*
X17499583Y-11755727D01*
X17432917Y-11831917D01*
X17461488Y-11831917D01*
X17480536Y-11841441D01*
X17490060Y-11850965D01*
X17499583Y-11870012D01*
X17499583Y-11917631D01*
X17490060Y-11936679D01*
X17480536Y-11946203D01*
X17461488Y-11955727D01*
X17404345Y-11955727D01*
X17385298Y-11946203D01*
X17375774Y-11936679D01*
X17594821Y-11955727D02*
X17632917Y-11955727D01*
X17651964Y-11946203D01*
X17661488Y-11936679D01*
X17680536Y-11908108D01*
X17690060Y-11870012D01*
X17690060Y-11793822D01*
X17680536Y-11774774D01*
X17671012Y-11765251D01*
X17651964Y-11755727D01*
X17613869Y-11755727D01*
X17594821Y-11765251D01*
X17585298Y-11774774D01*
X17575774Y-11793822D01*
X17575774Y-11841441D01*
X17585298Y-11860489D01*
X17594821Y-11870012D01*
X17613869Y-11879536D01*
X17651964Y-11879536D01*
X17671012Y-11870012D01*
X17680536Y-11860489D01*
X17690060Y-11841441D01*
X17861488Y-11822393D02*
X17861488Y-11955727D01*
X17813869Y-11746203D02*
X17766250Y-11889060D01*
X17890060Y-11889060D01*
X17956726Y-11755727D02*
X17956726Y-11793822D01*
X18032917Y-11755727D02*
X18032917Y-11793822D01*
X18328155Y-12031917D02*
X18318631Y-12022393D01*
X18299583Y-11993822D01*
X18290060Y-11974774D01*
X18280536Y-11946203D01*
X18271012Y-11898584D01*
X18271012Y-11860489D01*
X18280536Y-11812870D01*
X18290060Y-11784298D01*
X18299583Y-11765251D01*
X18318631Y-11736679D01*
X18328155Y-11727155D01*
X18490060Y-11822393D02*
X18490060Y-11955727D01*
X18442440Y-11746203D02*
X18394821Y-11889060D01*
X18518631Y-11889060D01*
X18632917Y-11755727D02*
X18651964Y-11755727D01*
X18671012Y-11765251D01*
X18680536Y-11774774D01*
X18690060Y-11793822D01*
X18699583Y-11831917D01*
X18699583Y-11879536D01*
X18690060Y-11917631D01*
X18680536Y-11936679D01*
X18671012Y-11946203D01*
X18651964Y-11955727D01*
X18632917Y-11955727D01*
X18613869Y-11946203D01*
X18604345Y-11936679D01*
X18594821Y-11917631D01*
X18585298Y-11879536D01*
X18585298Y-11831917D01*
X18594821Y-11793822D01*
X18604345Y-11774774D01*
X18613869Y-11765251D01*
X18632917Y-11755727D01*
X18937679Y-11955727D02*
X18937679Y-11755727D01*
X19023393Y-11955727D02*
X19023393Y-11850965D01*
X19013869Y-11831917D01*
X18994821Y-11822393D01*
X18966250Y-11822393D01*
X18947202Y-11831917D01*
X18937679Y-11841441D01*
X19147202Y-11955727D02*
X19128155Y-11946203D01*
X19118631Y-11936679D01*
X19109107Y-11917631D01*
X19109107Y-11860489D01*
X19118631Y-11841441D01*
X19128155Y-11831917D01*
X19147202Y-11822393D01*
X19175774Y-11822393D01*
X19194821Y-11831917D01*
X19204345Y-11841441D01*
X19213869Y-11860489D01*
X19213869Y-11917631D01*
X19204345Y-11936679D01*
X19194821Y-11946203D01*
X19175774Y-11955727D01*
X19147202Y-11955727D01*
X19328155Y-11955727D02*
X19309107Y-11946203D01*
X19299583Y-11927155D01*
X19299583Y-11755727D01*
X19480536Y-11946203D02*
X19461488Y-11955727D01*
X19423393Y-11955727D01*
X19404345Y-11946203D01*
X19394821Y-11927155D01*
X19394821Y-11850965D01*
X19404345Y-11831917D01*
X19423393Y-11822393D01*
X19461488Y-11822393D01*
X19480536Y-11831917D01*
X19490060Y-11850965D01*
X19490060Y-11870012D01*
X19394821Y-11889060D01*
X19566250Y-11946203D02*
X19585298Y-11955727D01*
X19623393Y-11955727D01*
X19642440Y-11946203D01*
X19651964Y-11927155D01*
X19651964Y-11917631D01*
X19642440Y-11898584D01*
X19623393Y-11889060D01*
X19594821Y-11889060D01*
X19575774Y-11879536D01*
X19566250Y-11860489D01*
X19566250Y-11850965D01*
X19575774Y-11831917D01*
X19594821Y-11822393D01*
X19623393Y-11822393D01*
X19642440Y-11831917D01*
X19718631Y-12031917D02*
X19728155Y-12022393D01*
X19747202Y-11993822D01*
X19756726Y-11974774D01*
X19766250Y-11946203D01*
X19775774Y-11898584D01*
X19775774Y-11860489D01*
X19766250Y-11812870D01*
X19756726Y-11784298D01*
X19747202Y-11765251D01*
X19728155Y-11736679D01*
X19718631Y-11727155D01*
D14*
X14682750Y-12055751D02*
X14682750Y-12202751D01*
X14609250Y-12129251D02*
X14756250Y-12129251D01*
D12*
X15118631Y-12219727D02*
X15004345Y-12219727D01*
X15061488Y-12219727D02*
X15061488Y-12019727D01*
X15042440Y-12048298D01*
X15023393Y-12067346D01*
X15004345Y-12076870D01*
X15204345Y-12200679D02*
X15213869Y-12210203D01*
X15204345Y-12219727D01*
X15194821Y-12210203D01*
X15204345Y-12200679D01*
X15204345Y-12219727D01*
X15385298Y-12086393D02*
X15385298Y-12219727D01*
X15337678Y-12010203D02*
X15290059Y-12153060D01*
X15413869Y-12153060D01*
X15471012Y-12019727D02*
X15604345Y-12019727D01*
X15518631Y-12219727D01*
X15718631Y-12019727D02*
X15737678Y-12019727D01*
X15756726Y-12029251D01*
X15766250Y-12038774D01*
X15775774Y-12057822D01*
X15785298Y-12095917D01*
X15785298Y-12143536D01*
X15775774Y-12181631D01*
X15766250Y-12200679D01*
X15756726Y-12210203D01*
X15737678Y-12219727D01*
X15718631Y-12219727D01*
X15699583Y-12210203D01*
X15690059Y-12200679D01*
X15680536Y-12181631D01*
X15671012Y-12143536D01*
X15671012Y-12095917D01*
X15680536Y-12057822D01*
X15690059Y-12038774D01*
X15699583Y-12029251D01*
X15718631Y-12019727D01*
X15871012Y-12219727D02*
X15871012Y-12086393D01*
X15871012Y-12105441D02*
X15880536Y-12095917D01*
X15899583Y-12086393D01*
X15928155Y-12086393D01*
X15947202Y-12095917D01*
X15956726Y-12114965D01*
X15956726Y-12219727D01*
X15956726Y-12114965D02*
X15966250Y-12095917D01*
X15985298Y-12086393D01*
X16013869Y-12086393D01*
X16032917Y-12095917D01*
X16042440Y-12114965D01*
X16042440Y-12219727D01*
X16137678Y-12219727D02*
X16137678Y-12086393D01*
X16137678Y-12105441D02*
X16147202Y-12095917D01*
X16166250Y-12086393D01*
X16194821Y-12086393D01*
X16213869Y-12095917D01*
X16223393Y-12114965D01*
X16223393Y-12219727D01*
X16223393Y-12114965D02*
X16232917Y-12095917D01*
X16251964Y-12086393D01*
X16280536Y-12086393D01*
X16299583Y-12095917D01*
X16309107Y-12114965D01*
X16309107Y-12219727D01*
X16699583Y-12010203D02*
X16528155Y-12267346D01*
X16956726Y-12019727D02*
X16975774Y-12019727D01*
X16994821Y-12029251D01*
X17004345Y-12038774D01*
X17013869Y-12057822D01*
X17023393Y-12095917D01*
X17023393Y-12143536D01*
X17013869Y-12181631D01*
X17004345Y-12200679D01*
X16994821Y-12210203D01*
X16975774Y-12219727D01*
X16956726Y-12219727D01*
X16937679Y-12210203D01*
X16928155Y-12200679D01*
X16918631Y-12181631D01*
X16909107Y-12143536D01*
X16909107Y-12095917D01*
X16918631Y-12057822D01*
X16928155Y-12038774D01*
X16937679Y-12029251D01*
X16956726Y-12019727D01*
X17109107Y-12200679D02*
X17118631Y-12210203D01*
X17109107Y-12219727D01*
X17099583Y-12210203D01*
X17109107Y-12200679D01*
X17109107Y-12219727D01*
X17242440Y-12019727D02*
X17261488Y-12019727D01*
X17280536Y-12029251D01*
X17290060Y-12038774D01*
X17299583Y-12057822D01*
X17309107Y-12095917D01*
X17309107Y-12143536D01*
X17299583Y-12181631D01*
X17290060Y-12200679D01*
X17280536Y-12210203D01*
X17261488Y-12219727D01*
X17242440Y-12219727D01*
X17223393Y-12210203D01*
X17213869Y-12200679D01*
X17204345Y-12181631D01*
X17194821Y-12143536D01*
X17194821Y-12095917D01*
X17204345Y-12057822D01*
X17213869Y-12038774D01*
X17223393Y-12029251D01*
X17242440Y-12019727D01*
X17490060Y-12019727D02*
X17394821Y-12019727D01*
X17385298Y-12114965D01*
X17394821Y-12105441D01*
X17413869Y-12095917D01*
X17461488Y-12095917D01*
X17480536Y-12105441D01*
X17490060Y-12114965D01*
X17499583Y-12134012D01*
X17499583Y-12181631D01*
X17490060Y-12200679D01*
X17480536Y-12210203D01*
X17461488Y-12219727D01*
X17413869Y-12219727D01*
X17394821Y-12210203D01*
X17385298Y-12200679D01*
X17566250Y-12019727D02*
X17699583Y-12019727D01*
X17613869Y-12219727D01*
X17785298Y-12219727D02*
X17823393Y-12219727D01*
X17842440Y-12210203D01*
X17851964Y-12200679D01*
X17871012Y-12172108D01*
X17880536Y-12134012D01*
X17880536Y-12057822D01*
X17871012Y-12038774D01*
X17861488Y-12029251D01*
X17842440Y-12019727D01*
X17804345Y-12019727D01*
X17785298Y-12029251D01*
X17775774Y-12038774D01*
X17766250Y-12057822D01*
X17766250Y-12105441D01*
X17775774Y-12124489D01*
X17785298Y-12134012D01*
X17804345Y-12143536D01*
X17842440Y-12143536D01*
X17861488Y-12134012D01*
X17871012Y-12124489D01*
X17880536Y-12105441D01*
X17956726Y-12019727D02*
X17956726Y-12057822D01*
X18032917Y-12019727D02*
X18032917Y-12057822D01*
X18328155Y-12295917D02*
X18318631Y-12286393D01*
X18299583Y-12257822D01*
X18290060Y-12238774D01*
X18280536Y-12210203D01*
X18271012Y-12162584D01*
X18271012Y-12124489D01*
X18280536Y-12076870D01*
X18290060Y-12048298D01*
X18299583Y-12029251D01*
X18318631Y-12000679D01*
X18328155Y-11991155D01*
X18385298Y-12019727D02*
X18509107Y-12019727D01*
X18442440Y-12095917D01*
X18471012Y-12095917D01*
X18490060Y-12105441D01*
X18499583Y-12114965D01*
X18509107Y-12134012D01*
X18509107Y-12181631D01*
X18499583Y-12200679D01*
X18490060Y-12210203D01*
X18471012Y-12219727D01*
X18413869Y-12219727D01*
X18394821Y-12210203D01*
X18385298Y-12200679D01*
X18680536Y-12019727D02*
X18642440Y-12019727D01*
X18623393Y-12029251D01*
X18613869Y-12038774D01*
X18594821Y-12067346D01*
X18585298Y-12105441D01*
X18585298Y-12181631D01*
X18594821Y-12200679D01*
X18604345Y-12210203D01*
X18623393Y-12219727D01*
X18661488Y-12219727D01*
X18680536Y-12210203D01*
X18690060Y-12200679D01*
X18699583Y-12181631D01*
X18699583Y-12134012D01*
X18690060Y-12114965D01*
X18680536Y-12105441D01*
X18661488Y-12095917D01*
X18623393Y-12095917D01*
X18604345Y-12105441D01*
X18594821Y-12114965D01*
X18585298Y-12134012D01*
X18937679Y-12219727D02*
X18937679Y-12019727D01*
X19023393Y-12219727D02*
X19023393Y-12114965D01*
X19013869Y-12095917D01*
X18994821Y-12086393D01*
X18966250Y-12086393D01*
X18947202Y-12095917D01*
X18937679Y-12105441D01*
X19147202Y-12219727D02*
X19128155Y-12210203D01*
X19118631Y-12200679D01*
X19109107Y-12181631D01*
X19109107Y-12124489D01*
X19118631Y-12105441D01*
X19128155Y-12095917D01*
X19147202Y-12086393D01*
X19175774Y-12086393D01*
X19194821Y-12095917D01*
X19204345Y-12105441D01*
X19213869Y-12124489D01*
X19213869Y-12181631D01*
X19204345Y-12200679D01*
X19194821Y-12210203D01*
X19175774Y-12219727D01*
X19147202Y-12219727D01*
X19328155Y-12219727D02*
X19309107Y-12210203D01*
X19299583Y-12191155D01*
X19299583Y-12019727D01*
X19480536Y-12210203D02*
X19461488Y-12219727D01*
X19423393Y-12219727D01*
X19404345Y-12210203D01*
X19394821Y-12191155D01*
X19394821Y-12114965D01*
X19404345Y-12095917D01*
X19423393Y-12086393D01*
X19461488Y-12086393D01*
X19480536Y-12095917D01*
X19490060Y-12114965D01*
X19490060Y-12134012D01*
X19394821Y-12153060D01*
X19566250Y-12210203D02*
X19585298Y-12219727D01*
X19623393Y-12219727D01*
X19642440Y-12210203D01*
X19651964Y-12191155D01*
X19651964Y-12181631D01*
X19642440Y-12162584D01*
X19623393Y-12153060D01*
X19594821Y-12153060D01*
X19575774Y-12143536D01*
X19566250Y-12124489D01*
X19566250Y-12114965D01*
X19575774Y-12095917D01*
X19594821Y-12086393D01*
X19623393Y-12086393D01*
X19642440Y-12095917D01*
X19718631Y-12295917D02*
X19728155Y-12286393D01*
X19747202Y-12257822D01*
X19756726Y-12238774D01*
X19766250Y-12210203D01*
X19775774Y-12162584D01*
X19775774Y-12124489D01*
X19766250Y-12076870D01*
X19756726Y-12048298D01*
X19747202Y-12029251D01*
X19728155Y-12000679D01*
X19718631Y-11991155D01*
M02*
