M48
; DRILL file {KiCad (6.0.9)} date Fri Mar 10 16:46:29 2023
; FORMAT={-:-/ absolute / metric / decimal}
; #@! TF.CreationDate,2023-03-10T16:46:29-06:00
; #@! TF.GenerationSoftware,Kicad,Pcbnew,(6.0.9)
; #@! TF.FileFunction,NonPlated,1,2,NPTH
FMAT,2
METRIC
; #@! TA.AperFunction,NonPlated,NPTH,ComponentDrill
T1C1.750
; #@! TA.AperFunction,NonPlated,NPTH,ComponentDrill
T2C3.988
%
G90
G05
T1
X162.401Y-61.912
X162.401Y-80.962
X162.401Y-100.012
X172.561Y-61.912
X172.561Y-80.962
X172.561Y-100.012
X181.451Y-61.912
X181.451Y-80.962
X181.451Y-100.012
X191.611Y-61.912
X191.611Y-80.962
X191.611Y-100.012
X200.501Y-61.912
X200.501Y-80.962
X200.501Y-100.012
X210.661Y-61.912
X210.661Y-80.962
X210.661Y-100.012
T2
X167.481Y-61.912
X167.481Y-80.962
X167.481Y-100.012
X186.531Y-61.912
X186.531Y-80.962
X186.531Y-100.012
X205.581Y-61.912
X205.581Y-80.962
X205.581Y-100.012
T0
M30
