%TF.GenerationSoftware,KiCad,Pcbnew,(6.0.9)*%
%TF.CreationDate,2023-04-02T22:43:47-05:00*%
%TF.ProjectId,Programmable Keys,50726f67-7261-46d6-9d61-626c65204b65,rev?*%
%TF.SameCoordinates,Original*%
%TF.FileFunction,Drillmap*%
%TF.FilePolarity,Positive*%
%FSLAX45Y45*%
G04 Gerber Fmt 4.5, Leading zero omitted, Abs format (unit mm)*
G04 Created by KiCad (PCBNEW (6.0.9)) date 2023-04-02 22:43:47*
%MOMM*%
%LPD*%
G01*
G04 APERTURE LIST*
%ADD10C,0.150000*%
%ADD11C,0.100000*%
%ADD12C,0.200000*%
%ADD13C,0.040000*%
%ADD14C,0.147000*%
G04 APERTURE END LIST*
D10*
X14525620Y-10715625D02*
G75*
G03*
X14763750Y-10953750I238130J5D01*
G01*
D11*
X15260625Y-10556875D02*
G75*
G03*
X15260625Y-10556875I-100000J0D01*
G01*
D10*
X22860000Y-5476875D02*
G75*
G03*
X22621875Y-5238750I-238130J-5D01*
G01*
X14763750Y-5238750D02*
X22621875Y-5238750D01*
D11*
X22325000Y-10556875D02*
G75*
G03*
X22325000Y-10556875I-100000J0D01*
G01*
D10*
X14525625Y-10715625D02*
X14525625Y-5476875D01*
X14763750Y-10953750D02*
X22621875Y-10953750D01*
D11*
X22325000Y-5635625D02*
G75*
G03*
X22325000Y-5635625I-100000J0D01*
G01*
D10*
X22621875Y-10953750D02*
G75*
G03*
X22860000Y-10715625I-5J238130D01*
G01*
X22860000Y-5476875D02*
X22860000Y-10715625D01*
D11*
X15260625Y-5635625D02*
G75*
G03*
X15260625Y-5635625I-100000J0D01*
G01*
D10*
X14763750Y-5238755D02*
G75*
G03*
X14525625Y-5476875I0J-238125D01*
G01*
D12*
D13*
X15765000Y-8019700D02*
X15805000Y-8059700D01*
X15805000Y-8019700D02*
X15765000Y-8059700D01*
X15855000Y-7887450D02*
X15895000Y-7927450D01*
X15895000Y-7887450D02*
X15855000Y-7927450D01*
X16000000Y-8875000D02*
X16040000Y-8915000D01*
X16040000Y-8875000D02*
X16000000Y-8915000D01*
X16000000Y-9320000D02*
X16040000Y-9360000D01*
X16040000Y-9320000D02*
X16000000Y-9360000D01*
X16017550Y-7685000D02*
X16057550Y-7725000D01*
X16057550Y-7685000D02*
X16017550Y-7725000D01*
X16070000Y-8585000D02*
X16110000Y-8625000D01*
X16110000Y-8585000D02*
X16070000Y-8625000D01*
X16190000Y-6858800D02*
X16230000Y-6898800D01*
X16230000Y-6858800D02*
X16190000Y-6898800D01*
X16200000Y-7580000D02*
X16240000Y-7620000D01*
X16240000Y-7580000D02*
X16200000Y-7620000D01*
X16210000Y-9045000D02*
X16250000Y-9085000D01*
X16250000Y-9045000D02*
X16210000Y-9085000D01*
X16265000Y-6935000D02*
X16305000Y-6975000D01*
X16305000Y-6935000D02*
X16265000Y-6975000D01*
X16265000Y-7440000D02*
X16305000Y-7480000D01*
X16305000Y-7440000D02*
X16265000Y-7480000D01*
X16265000Y-8325000D02*
X16305000Y-8365000D01*
X16305000Y-8325000D02*
X16265000Y-8365000D01*
X16265000Y-8710000D02*
X16305000Y-8750000D01*
X16305000Y-8710000D02*
X16265000Y-8750000D01*
X16270000Y-7070000D02*
X16310000Y-7110000D01*
X16310000Y-7070000D02*
X16270000Y-7110000D01*
X16270000Y-8455000D02*
X16310000Y-8495000D01*
X16310000Y-8455000D02*
X16270000Y-8495000D01*
X16274675Y-7185000D02*
X16314675Y-7225000D01*
X16314675Y-7185000D02*
X16274675Y-7225000D01*
X16274675Y-7320000D02*
X16314675Y-7360000D01*
X16314675Y-7320000D02*
X16274675Y-7360000D01*
X16274675Y-8965000D02*
X16314675Y-9005000D01*
X16314675Y-8965000D02*
X16274675Y-9005000D01*
X16274675Y-9215000D02*
X16314675Y-9255000D01*
X16314675Y-9215000D02*
X16274675Y-9255000D01*
X16419575Y-6935000D02*
X16459575Y-6975000D01*
X16459575Y-6935000D02*
X16419575Y-6975000D01*
X16419575Y-7185000D02*
X16459575Y-7225000D01*
X16459575Y-7185000D02*
X16419575Y-7225000D01*
X16419575Y-7320000D02*
X16459575Y-7360000D01*
X16459575Y-7320000D02*
X16419575Y-7360000D01*
X16419575Y-7435000D02*
X16459575Y-7475000D01*
X16459575Y-7435000D02*
X16419575Y-7475000D01*
X16419575Y-7435000D02*
X16459575Y-7475000D01*
X16459575Y-7435000D02*
X16419575Y-7475000D01*
X16419575Y-8325000D02*
X16459575Y-8365000D01*
X16459575Y-8325000D02*
X16419575Y-8365000D01*
X16419575Y-8455000D02*
X16459575Y-8495000D01*
X16459575Y-8455000D02*
X16419575Y-8495000D01*
X16419575Y-8710000D02*
X16459575Y-8750000D01*
X16459575Y-8710000D02*
X16419575Y-8750000D01*
X16419575Y-9220000D02*
X16459575Y-9260000D01*
X16459575Y-9220000D02*
X16419575Y-9260000D01*
X16420000Y-8965000D02*
X16460000Y-9005000D01*
X16460000Y-8965000D02*
X16420000Y-9005000D01*
X16425000Y-7065000D02*
X16465000Y-7105000D01*
X16465000Y-7065000D02*
X16425000Y-7105000D01*
X16440000Y-6702050D02*
X16480000Y-6742050D01*
X16480000Y-6702050D02*
X16440000Y-6742050D01*
X16485000Y-9045000D02*
X16525000Y-9085000D01*
X16525000Y-9045000D02*
X16485000Y-9085000D01*
X16525000Y-6860000D02*
X16565000Y-6900000D01*
X16565000Y-6860000D02*
X16525000Y-6900000D01*
X16610000Y-6780000D02*
X16650000Y-6820000D01*
X16650000Y-6780000D02*
X16610000Y-6820000D01*
X17360000Y-8360000D02*
X17400000Y-8400000D01*
X17400000Y-8360000D02*
X17360000Y-8400000D01*
X17475000Y-8455000D02*
X17515000Y-8495000D01*
X17515000Y-8455000D02*
X17475000Y-8495000D01*
X17860000Y-8315000D02*
X17900000Y-8355000D01*
X17900000Y-8315000D02*
X17860000Y-8355000D01*
X18077500Y-8473125D02*
X18117500Y-8513125D01*
X18117500Y-8473125D02*
X18077500Y-8513125D01*
X18090000Y-6855000D02*
X18130000Y-6895000D01*
X18130000Y-6855000D02*
X18090000Y-6895000D01*
X18095000Y-9045000D02*
X18135000Y-9085000D01*
X18135000Y-9045000D02*
X18095000Y-9085000D01*
X18110000Y-7400000D02*
X18150000Y-7440000D01*
X18150000Y-7400000D02*
X18110000Y-7440000D01*
X18118228Y-8882738D02*
X18158228Y-8922738D01*
X18158228Y-8882738D02*
X18118228Y-8922738D01*
X18156875Y-6568125D02*
X18196875Y-6608125D01*
X18196875Y-6568125D02*
X18156875Y-6608125D01*
X18175000Y-6782550D02*
X18215000Y-6822550D01*
X18215000Y-6782550D02*
X18175000Y-6822550D01*
X18175000Y-8965000D02*
X18215000Y-9005000D01*
X18215000Y-8965000D02*
X18175000Y-9005000D01*
X18179675Y-6935000D02*
X18219675Y-6975000D01*
X18219675Y-6935000D02*
X18179675Y-6975000D01*
X18179675Y-7065000D02*
X18219675Y-7105000D01*
X18219675Y-7065000D02*
X18179675Y-7105000D01*
X18179675Y-7185000D02*
X18219675Y-7225000D01*
X18219675Y-7185000D02*
X18179675Y-7225000D01*
X18179675Y-7320000D02*
X18219675Y-7360000D01*
X18219675Y-7320000D02*
X18179675Y-7360000D01*
X18179675Y-9220000D02*
X18219675Y-9260000D01*
X18219675Y-9220000D02*
X18179675Y-9260000D01*
X18324575Y-6935000D02*
X18364575Y-6975000D01*
X18364575Y-6935000D02*
X18324575Y-6975000D01*
X18324575Y-7065000D02*
X18364575Y-7105000D01*
X18364575Y-7065000D02*
X18324575Y-7105000D01*
X18324575Y-7185000D02*
X18364575Y-7225000D01*
X18364575Y-7185000D02*
X18324575Y-7225000D01*
X18324575Y-7320000D02*
X18364575Y-7360000D01*
X18364575Y-7320000D02*
X18324575Y-7360000D01*
X18325000Y-6782550D02*
X18365000Y-6822550D01*
X18365000Y-6782550D02*
X18325000Y-6822550D01*
X18325000Y-8965000D02*
X18365000Y-9005000D01*
X18365000Y-8965000D02*
X18325000Y-9005000D01*
X18330000Y-9220000D02*
X18370000Y-9260000D01*
X18370000Y-9220000D02*
X18330000Y-9260000D01*
X18384107Y-8884400D02*
X18424107Y-8924400D01*
X18424107Y-8884400D02*
X18384107Y-8924400D01*
X18385000Y-7400000D02*
X18425000Y-7440000D01*
X18425000Y-7400000D02*
X18385000Y-7440000D01*
X18390461Y-9040531D02*
X18430461Y-9080531D01*
X18430461Y-9040531D02*
X18390461Y-9080531D01*
X18395000Y-6568125D02*
X18435000Y-6608125D01*
X18435000Y-6568125D02*
X18395000Y-6608125D01*
X18395000Y-8473125D02*
X18435000Y-8513125D01*
X18435000Y-8473125D02*
X18395000Y-8513125D01*
X18450000Y-6855000D02*
X18490000Y-6895000D01*
X18490000Y-6855000D02*
X18450000Y-6895000D01*
X19625000Y-8395000D02*
X19665000Y-8435000D01*
X19665000Y-8395000D02*
X19625000Y-8435000D01*
X19950000Y-9140000D02*
X19990000Y-9180000D01*
X19990000Y-9140000D02*
X19950000Y-9180000D01*
X19982500Y-8473125D02*
X20022500Y-8513125D01*
X20022500Y-8473125D02*
X19982500Y-8513125D01*
X20005000Y-6855000D02*
X20045000Y-6895000D01*
X20045000Y-6855000D02*
X20005000Y-6895000D01*
X20005000Y-9040000D02*
X20045000Y-9080000D01*
X20045000Y-9040000D02*
X20005000Y-9080000D01*
X20010000Y-8885000D02*
X20050000Y-8925000D01*
X20050000Y-8885000D02*
X20010000Y-8925000D01*
X20020000Y-7400000D02*
X20060000Y-7440000D01*
X20060000Y-7400000D02*
X20020000Y-7440000D01*
X20061875Y-6568125D02*
X20101875Y-6608125D01*
X20101875Y-6568125D02*
X20061875Y-6608125D01*
X20080000Y-8965000D02*
X20120000Y-9005000D01*
X20120000Y-8965000D02*
X20080000Y-9005000D01*
X20084675Y-6782550D02*
X20124675Y-6822550D01*
X20124675Y-6782550D02*
X20084675Y-6822550D01*
X20084675Y-6935000D02*
X20124675Y-6975000D01*
X20124675Y-6935000D02*
X20084675Y-6975000D01*
X20084675Y-7065000D02*
X20124675Y-7105000D01*
X20124675Y-7065000D02*
X20084675Y-7105000D01*
X20084675Y-7185000D02*
X20124675Y-7225000D01*
X20124675Y-7185000D02*
X20084675Y-7225000D01*
X20084675Y-7320000D02*
X20124675Y-7360000D01*
X20124675Y-7320000D02*
X20084675Y-7360000D01*
X20084675Y-9220000D02*
X20124675Y-9260000D01*
X20124675Y-9220000D02*
X20084675Y-9260000D01*
X20229575Y-6782550D02*
X20269575Y-6822550D01*
X20269575Y-6782550D02*
X20229575Y-6822550D01*
X20229575Y-7065000D02*
X20269575Y-7105000D01*
X20269575Y-7065000D02*
X20229575Y-7105000D01*
X20229575Y-8965000D02*
X20269575Y-9005000D01*
X20269575Y-8965000D02*
X20229575Y-9005000D01*
X20230000Y-7185000D02*
X20270000Y-7225000D01*
X20270000Y-7185000D02*
X20230000Y-7225000D01*
X20230000Y-7325000D02*
X20270000Y-7365000D01*
X20270000Y-7325000D02*
X20230000Y-7365000D01*
X20235000Y-6935000D02*
X20275000Y-6975000D01*
X20275000Y-6935000D02*
X20235000Y-6975000D01*
X20235000Y-9220000D02*
X20275000Y-9260000D01*
X20275000Y-9220000D02*
X20235000Y-9260000D01*
X20294107Y-9139400D02*
X20334107Y-9179400D01*
X20334107Y-9139400D02*
X20294107Y-9179400D01*
X20295461Y-7400531D02*
X20335461Y-7440531D01*
X20335461Y-7400531D02*
X20295461Y-7440531D01*
X20300000Y-6568125D02*
X20340000Y-6608125D01*
X20340000Y-6568125D02*
X20300000Y-6608125D01*
X20300000Y-8473125D02*
X20340000Y-8513125D01*
X20340000Y-8473125D02*
X20300000Y-8513125D01*
X20305000Y-8885000D02*
X20345000Y-8925000D01*
X20345000Y-8885000D02*
X20305000Y-8925000D01*
X20330000Y-6855000D02*
X20370000Y-6895000D01*
X20370000Y-6855000D02*
X20330000Y-6895000D01*
X20335000Y-9040000D02*
X20375000Y-9080000D01*
X20375000Y-9040000D02*
X20335000Y-9080000D01*
X21010000Y-7505000D02*
X21050000Y-7545000D01*
X21050000Y-7505000D02*
X21010000Y-7545000D01*
X21165000Y-8545575D02*
X21205000Y-8585575D01*
X21205000Y-8545575D02*
X21165000Y-8585575D01*
X21315000Y-6782550D02*
X21355000Y-6822550D01*
X21355000Y-6782550D02*
X21315000Y-6822550D01*
X21355000Y-8535000D02*
X21395000Y-8575000D01*
X21395000Y-8535000D02*
X21355000Y-8575000D01*
X21380000Y-7500000D02*
X21420000Y-7540000D01*
X21420000Y-7500000D02*
X21380000Y-7540000D01*
X21420000Y-8784200D02*
X21460000Y-8824200D01*
X21460000Y-8784200D02*
X21420000Y-8824200D01*
X21440000Y-8885000D02*
X21480000Y-8925000D01*
X21480000Y-8885000D02*
X21440000Y-8925000D01*
X21440000Y-9292200D02*
X21480000Y-9332200D01*
X21480000Y-9292200D02*
X21440000Y-9332200D01*
X21475000Y-8380000D02*
X21515000Y-8420000D01*
X21515000Y-8380000D02*
X21475000Y-8420000D01*
X21570000Y-9140000D02*
X21610000Y-9180000D01*
X21610000Y-9140000D02*
X21570000Y-9180000D01*
X21575000Y-6780000D02*
X21615000Y-6820000D01*
X21615000Y-6780000D02*
X21575000Y-6820000D01*
X21575000Y-8585000D02*
X21615000Y-8625000D01*
X21615000Y-8585000D02*
X21575000Y-8625000D01*
X21675000Y-7805000D02*
X21715000Y-7845000D01*
X21715000Y-7805000D02*
X21675000Y-7845000D01*
X21685000Y-8345000D02*
X21725000Y-8385000D01*
X21725000Y-8345000D02*
X21685000Y-8385000D01*
X21768154Y-7768773D02*
X21808154Y-7808773D01*
X21808154Y-7768773D02*
X21768154Y-7808773D01*
D11*
X14963500Y-6951250D02*
G75*
G03*
X14963500Y-6951250I-50000J0D01*
G01*
X14963500Y-7205250D02*
G75*
G03*
X14963500Y-7205250I-50000J0D01*
G01*
X14963500Y-7459250D02*
G75*
G03*
X14963500Y-7459250I-50000J0D01*
G01*
X14963500Y-7713250D02*
G75*
G03*
X14963500Y-7713250I-50000J0D01*
G01*
X14963500Y-7967250D02*
G75*
G03*
X14963500Y-7967250I-50000J0D01*
G01*
X14963500Y-8221250D02*
G75*
G03*
X14963500Y-8221250I-50000J0D01*
G01*
X14963500Y-8475250D02*
G75*
G03*
X14963500Y-8475250I-50000J0D01*
G01*
X14963500Y-8729250D02*
G75*
G03*
X14963500Y-8729250I-50000J0D01*
G01*
X14963500Y-8983250D02*
G75*
G03*
X14963500Y-8983250I-50000J0D01*
G01*
X14963500Y-9237250D02*
G75*
G03*
X14963500Y-9237250I-50000J0D01*
G01*
X15217500Y-6951250D02*
G75*
G03*
X15217500Y-6951250I-50000J0D01*
G01*
X15217500Y-7205250D02*
G75*
G03*
X15217500Y-7205250I-50000J0D01*
G01*
X15217500Y-7459250D02*
G75*
G03*
X15217500Y-7459250I-50000J0D01*
G01*
X15217500Y-7713250D02*
G75*
G03*
X15217500Y-7713250I-50000J0D01*
G01*
X15217500Y-7967250D02*
G75*
G03*
X15217500Y-7967250I-50000J0D01*
G01*
X15217500Y-8221250D02*
G75*
G03*
X15217500Y-8221250I-50000J0D01*
G01*
X15217500Y-8475250D02*
G75*
G03*
X15217500Y-8475250I-50000J0D01*
G01*
X15217500Y-8729250D02*
G75*
G03*
X15217500Y-8729250I-50000J0D01*
G01*
X15217500Y-8983250D02*
G75*
G03*
X15217500Y-8983250I-50000J0D01*
G01*
X15217500Y-9237250D02*
G75*
G03*
X15217500Y-9237250I-50000J0D01*
G01*
X22265625Y-6953750D02*
G75*
G03*
X22265625Y-6953750I-50000J0D01*
G01*
X22265625Y-7207750D02*
G75*
G03*
X22265625Y-7207750I-50000J0D01*
G01*
X22265625Y-7461750D02*
G75*
G03*
X22265625Y-7461750I-50000J0D01*
G01*
X22265625Y-7715750D02*
G75*
G03*
X22265625Y-7715750I-50000J0D01*
G01*
X22265625Y-7969750D02*
G75*
G03*
X22265625Y-7969750I-50000J0D01*
G01*
X22265625Y-8223750D02*
G75*
G03*
X22265625Y-8223750I-50000J0D01*
G01*
X22265625Y-8477750D02*
G75*
G03*
X22265625Y-8477750I-50000J0D01*
G01*
X22265625Y-8731750D02*
G75*
G03*
X22265625Y-8731750I-50000J0D01*
G01*
X22265625Y-8985750D02*
G75*
G03*
X22265625Y-8985750I-50000J0D01*
G01*
X22265625Y-9239750D02*
G75*
G03*
X22265625Y-9239750I-50000J0D01*
G01*
X22519625Y-6953750D02*
G75*
G03*
X22519625Y-6953750I-50000J0D01*
G01*
X22519625Y-7207750D02*
G75*
G03*
X22519625Y-7207750I-50000J0D01*
G01*
X22519625Y-7461750D02*
G75*
G03*
X22519625Y-7461750I-50000J0D01*
G01*
X22519625Y-7715750D02*
G75*
G03*
X22519625Y-7715750I-50000J0D01*
G01*
X22519625Y-7969750D02*
G75*
G03*
X22519625Y-7969750I-50000J0D01*
G01*
X22519625Y-8223750D02*
G75*
G03*
X22519625Y-8223750I-50000J0D01*
G01*
X22519625Y-8477750D02*
G75*
G03*
X22519625Y-8477750I-50000J0D01*
G01*
X22519625Y-8731750D02*
G75*
G03*
X22519625Y-8731750I-50000J0D01*
G01*
X22519625Y-8985750D02*
G75*
G03*
X22519625Y-8985750I-50000J0D01*
G01*
X22519625Y-9239750D02*
G75*
G03*
X22519625Y-9239750I-50000J0D01*
G01*
D14*
X16367125Y-5863750D02*
X16367125Y-6010750D01*
X16293625Y-5937250D02*
X16440625Y-5937250D01*
X16367125Y-7768750D02*
X16367125Y-7915750D01*
X16293625Y-7842250D02*
X16440625Y-7842250D01*
X16367125Y-9673750D02*
X16367125Y-9820750D01*
X16293625Y-9747250D02*
X16440625Y-9747250D01*
X16498125Y-5717750D02*
X16498125Y-5864750D01*
X16424625Y-5791250D02*
X16571625Y-5791250D01*
X16498125Y-7622750D02*
X16498125Y-7769750D01*
X16424625Y-7696250D02*
X16571625Y-7696250D01*
X16498125Y-9527750D02*
X16498125Y-9674750D01*
X16424625Y-9601250D02*
X16571625Y-9601250D01*
X16998125Y-5667750D02*
X16998125Y-5814750D01*
X16924625Y-5741250D02*
X17071625Y-5741250D01*
X16998125Y-7572750D02*
X16998125Y-7719750D01*
X16924625Y-7646250D02*
X17071625Y-7646250D01*
X16998125Y-9477750D02*
X16998125Y-9624750D01*
X16924625Y-9551250D02*
X17071625Y-9551250D01*
X17002125Y-5609750D02*
X17002125Y-5756750D01*
X16928625Y-5683250D02*
X17075625Y-5683250D01*
X17002125Y-7514750D02*
X17002125Y-7661750D01*
X16928625Y-7588250D02*
X17075625Y-7588250D01*
X17002125Y-9419750D02*
X17002125Y-9566750D01*
X16928625Y-9493250D02*
X17075625Y-9493250D01*
X18272125Y-5863750D02*
X18272125Y-6010750D01*
X18198625Y-5937250D02*
X18345625Y-5937250D01*
X18272125Y-7768750D02*
X18272125Y-7915750D01*
X18198625Y-7842250D02*
X18345625Y-7842250D01*
X18272125Y-9673750D02*
X18272125Y-9820750D01*
X18198625Y-9747250D02*
X18345625Y-9747250D01*
X18403125Y-5717750D02*
X18403125Y-5864750D01*
X18329625Y-5791250D02*
X18476625Y-5791250D01*
X18403125Y-7622750D02*
X18403125Y-7769750D01*
X18329625Y-7696250D02*
X18476625Y-7696250D01*
X18403125Y-9527750D02*
X18403125Y-9674750D01*
X18329625Y-9601250D02*
X18476625Y-9601250D01*
X18903125Y-5667750D02*
X18903125Y-5814750D01*
X18829625Y-5741250D02*
X18976625Y-5741250D01*
X18903125Y-7572750D02*
X18903125Y-7719750D01*
X18829625Y-7646250D02*
X18976625Y-7646250D01*
X18903125Y-9477750D02*
X18903125Y-9624750D01*
X18829625Y-9551250D02*
X18976625Y-9551250D01*
X18907125Y-5609750D02*
X18907125Y-5756750D01*
X18833625Y-5683250D02*
X18980625Y-5683250D01*
X18907125Y-7514750D02*
X18907125Y-7661750D01*
X18833625Y-7588250D02*
X18980625Y-7588250D01*
X18907125Y-9419750D02*
X18907125Y-9566750D01*
X18833625Y-9493250D02*
X18980625Y-9493250D01*
X20177125Y-5863750D02*
X20177125Y-6010750D01*
X20103625Y-5937250D02*
X20250625Y-5937250D01*
X20177125Y-7768750D02*
X20177125Y-7915750D01*
X20103625Y-7842250D02*
X20250625Y-7842250D01*
X20177125Y-9673750D02*
X20177125Y-9820750D01*
X20103625Y-9747250D02*
X20250625Y-9747250D01*
X20308125Y-5717750D02*
X20308125Y-5864750D01*
X20234625Y-5791250D02*
X20381625Y-5791250D01*
X20308125Y-7622750D02*
X20308125Y-7769750D01*
X20234625Y-7696250D02*
X20381625Y-7696250D01*
X20308125Y-9527750D02*
X20308125Y-9674750D01*
X20234625Y-9601250D02*
X20381625Y-9601250D01*
X20808125Y-5667750D02*
X20808125Y-5814750D01*
X20734625Y-5741250D02*
X20881625Y-5741250D01*
X20808125Y-7572750D02*
X20808125Y-7719750D01*
X20734625Y-7646250D02*
X20881625Y-7646250D01*
X20808125Y-9477750D02*
X20808125Y-9624750D01*
X20734625Y-9551250D02*
X20881625Y-9551250D01*
X20812125Y-5609750D02*
X20812125Y-5756750D01*
X20738625Y-5683250D02*
X20885625Y-5683250D01*
X20812125Y-7514750D02*
X20812125Y-7661750D01*
X20738625Y-7588250D02*
X20885625Y-7588250D01*
X20812125Y-9419750D02*
X20812125Y-9566750D01*
X20738625Y-9493250D02*
X20885625Y-9493250D01*
D12*
X14775744Y-11271726D02*
X14775744Y-11071726D01*
X14823363Y-11071726D01*
X14851934Y-11081250D01*
X14870982Y-11100298D01*
X14880506Y-11119345D01*
X14890030Y-11157440D01*
X14890030Y-11186012D01*
X14880506Y-11224107D01*
X14870982Y-11243155D01*
X14851934Y-11262202D01*
X14823363Y-11271726D01*
X14775744Y-11271726D01*
X14975744Y-11271726D02*
X14975744Y-11138393D01*
X14975744Y-11176488D02*
X14985268Y-11157440D01*
X14994792Y-11147917D01*
X15013839Y-11138393D01*
X15032887Y-11138393D01*
X15099553Y-11271726D02*
X15099553Y-11138393D01*
X15099553Y-11071726D02*
X15090030Y-11081250D01*
X15099553Y-11090774D01*
X15109077Y-11081250D01*
X15099553Y-11071726D01*
X15099553Y-11090774D01*
X15223363Y-11271726D02*
X15204315Y-11262202D01*
X15194792Y-11243155D01*
X15194792Y-11071726D01*
X15328125Y-11271726D02*
X15309077Y-11262202D01*
X15299553Y-11243155D01*
X15299553Y-11071726D01*
X15556696Y-11271726D02*
X15556696Y-11071726D01*
X15623363Y-11214583D01*
X15690030Y-11071726D01*
X15690030Y-11271726D01*
X15870982Y-11271726D02*
X15870982Y-11166964D01*
X15861458Y-11147917D01*
X15842411Y-11138393D01*
X15804315Y-11138393D01*
X15785268Y-11147917D01*
X15870982Y-11262202D02*
X15851934Y-11271726D01*
X15804315Y-11271726D01*
X15785268Y-11262202D01*
X15775744Y-11243155D01*
X15775744Y-11224107D01*
X15785268Y-11205059D01*
X15804315Y-11195536D01*
X15851934Y-11195536D01*
X15870982Y-11186012D01*
X15966220Y-11138393D02*
X15966220Y-11338393D01*
X15966220Y-11147917D02*
X15985268Y-11138393D01*
X16023363Y-11138393D01*
X16042411Y-11147917D01*
X16051934Y-11157440D01*
X16061458Y-11176488D01*
X16061458Y-11233631D01*
X16051934Y-11252678D01*
X16042411Y-11262202D01*
X16023363Y-11271726D01*
X15985268Y-11271726D01*
X15966220Y-11262202D01*
X16147173Y-11252678D02*
X16156696Y-11262202D01*
X16147173Y-11271726D01*
X16137649Y-11262202D01*
X16147173Y-11252678D01*
X16147173Y-11271726D01*
X16147173Y-11147917D02*
X16156696Y-11157440D01*
X16147173Y-11166964D01*
X16137649Y-11157440D01*
X16147173Y-11147917D01*
X16147173Y-11166964D01*
D13*
X14478125Y-11581250D02*
X14518125Y-11621250D01*
X14518125Y-11581250D02*
X14478125Y-11621250D01*
D12*
X14813839Y-11491726D02*
X14832887Y-11491726D01*
X14851934Y-11501250D01*
X14861458Y-11510774D01*
X14870982Y-11529821D01*
X14880506Y-11567917D01*
X14880506Y-11615536D01*
X14870982Y-11653631D01*
X14861458Y-11672678D01*
X14851934Y-11682202D01*
X14832887Y-11691726D01*
X14813839Y-11691726D01*
X14794792Y-11682202D01*
X14785268Y-11672678D01*
X14775744Y-11653631D01*
X14766220Y-11615536D01*
X14766220Y-11567917D01*
X14775744Y-11529821D01*
X14785268Y-11510774D01*
X14794792Y-11501250D01*
X14813839Y-11491726D01*
X14966220Y-11672678D02*
X14975744Y-11682202D01*
X14966220Y-11691726D01*
X14956696Y-11682202D01*
X14966220Y-11672678D01*
X14966220Y-11691726D01*
X15147173Y-11558393D02*
X15147173Y-11691726D01*
X15099553Y-11482202D02*
X15051934Y-11625059D01*
X15175744Y-11625059D01*
X15290030Y-11491726D02*
X15309077Y-11491726D01*
X15328125Y-11501250D01*
X15337649Y-11510774D01*
X15347173Y-11529821D01*
X15356696Y-11567917D01*
X15356696Y-11615536D01*
X15347173Y-11653631D01*
X15337649Y-11672678D01*
X15328125Y-11682202D01*
X15309077Y-11691726D01*
X15290030Y-11691726D01*
X15270982Y-11682202D01*
X15261458Y-11672678D01*
X15251934Y-11653631D01*
X15242411Y-11615536D01*
X15242411Y-11567917D01*
X15251934Y-11529821D01*
X15261458Y-11510774D01*
X15270982Y-11501250D01*
X15290030Y-11491726D01*
X15480506Y-11491726D02*
X15499553Y-11491726D01*
X15518601Y-11501250D01*
X15528125Y-11510774D01*
X15537649Y-11529821D01*
X15547173Y-11567917D01*
X15547173Y-11615536D01*
X15537649Y-11653631D01*
X15528125Y-11672678D01*
X15518601Y-11682202D01*
X15499553Y-11691726D01*
X15480506Y-11691726D01*
X15461458Y-11682202D01*
X15451934Y-11672678D01*
X15442411Y-11653631D01*
X15432887Y-11615536D01*
X15432887Y-11567917D01*
X15442411Y-11529821D01*
X15451934Y-11510774D01*
X15461458Y-11501250D01*
X15480506Y-11491726D01*
X15632887Y-11691726D02*
X15632887Y-11558393D01*
X15632887Y-11577440D02*
X15642411Y-11567917D01*
X15661458Y-11558393D01*
X15690030Y-11558393D01*
X15709077Y-11567917D01*
X15718601Y-11586964D01*
X15718601Y-11691726D01*
X15718601Y-11586964D02*
X15728125Y-11567917D01*
X15747173Y-11558393D01*
X15775744Y-11558393D01*
X15794792Y-11567917D01*
X15804315Y-11586964D01*
X15804315Y-11691726D01*
X15899553Y-11691726D02*
X15899553Y-11558393D01*
X15899553Y-11577440D02*
X15909077Y-11567917D01*
X15928125Y-11558393D01*
X15956696Y-11558393D01*
X15975744Y-11567917D01*
X15985268Y-11586964D01*
X15985268Y-11691726D01*
X15985268Y-11586964D02*
X15994792Y-11567917D01*
X16013839Y-11558393D01*
X16042411Y-11558393D01*
X16061458Y-11567917D01*
X16070982Y-11586964D01*
X16070982Y-11691726D01*
X16461458Y-11482202D02*
X16290030Y-11739345D01*
X16718601Y-11491726D02*
X16737649Y-11491726D01*
X16756696Y-11501250D01*
X16766220Y-11510774D01*
X16775744Y-11529821D01*
X16785268Y-11567917D01*
X16785268Y-11615536D01*
X16775744Y-11653631D01*
X16766220Y-11672678D01*
X16756696Y-11682202D01*
X16737649Y-11691726D01*
X16718601Y-11691726D01*
X16699553Y-11682202D01*
X16690030Y-11672678D01*
X16680506Y-11653631D01*
X16670982Y-11615536D01*
X16670982Y-11567917D01*
X16680506Y-11529821D01*
X16690030Y-11510774D01*
X16699553Y-11501250D01*
X16718601Y-11491726D01*
X16870982Y-11672678D02*
X16880506Y-11682202D01*
X16870982Y-11691726D01*
X16861458Y-11682202D01*
X16870982Y-11672678D01*
X16870982Y-11691726D01*
X17004315Y-11491726D02*
X17023363Y-11491726D01*
X17042411Y-11501250D01*
X17051935Y-11510774D01*
X17061458Y-11529821D01*
X17070982Y-11567917D01*
X17070982Y-11615536D01*
X17061458Y-11653631D01*
X17051935Y-11672678D01*
X17042411Y-11682202D01*
X17023363Y-11691726D01*
X17004315Y-11691726D01*
X16985268Y-11682202D01*
X16975744Y-11672678D01*
X16966220Y-11653631D01*
X16956696Y-11615536D01*
X16956696Y-11567917D01*
X16966220Y-11529821D01*
X16975744Y-11510774D01*
X16985268Y-11501250D01*
X17004315Y-11491726D01*
X17261458Y-11691726D02*
X17147173Y-11691726D01*
X17204315Y-11691726D02*
X17204315Y-11491726D01*
X17185268Y-11520298D01*
X17166220Y-11539345D01*
X17147173Y-11548869D01*
X17442411Y-11491726D02*
X17347173Y-11491726D01*
X17337649Y-11586964D01*
X17347173Y-11577440D01*
X17366220Y-11567917D01*
X17413839Y-11567917D01*
X17432887Y-11577440D01*
X17442411Y-11586964D01*
X17451935Y-11606012D01*
X17451935Y-11653631D01*
X17442411Y-11672678D01*
X17432887Y-11682202D01*
X17413839Y-11691726D01*
X17366220Y-11691726D01*
X17347173Y-11682202D01*
X17337649Y-11672678D01*
X17518601Y-11491726D02*
X17651935Y-11491726D01*
X17566220Y-11691726D01*
X17718601Y-11491726D02*
X17718601Y-11529821D01*
X17794792Y-11491726D02*
X17794792Y-11529821D01*
X18090030Y-11767917D02*
X18080506Y-11758393D01*
X18061458Y-11729821D01*
X18051935Y-11710774D01*
X18042411Y-11682202D01*
X18032887Y-11634583D01*
X18032887Y-11596488D01*
X18042411Y-11548869D01*
X18051935Y-11520298D01*
X18061458Y-11501250D01*
X18080506Y-11472678D01*
X18090030Y-11463155D01*
X18270982Y-11691726D02*
X18156696Y-11691726D01*
X18213839Y-11691726D02*
X18213839Y-11491726D01*
X18194792Y-11520298D01*
X18175744Y-11539345D01*
X18156696Y-11548869D01*
X18394792Y-11491726D02*
X18413839Y-11491726D01*
X18432887Y-11501250D01*
X18442411Y-11510774D01*
X18451935Y-11529821D01*
X18461458Y-11567917D01*
X18461458Y-11615536D01*
X18451935Y-11653631D01*
X18442411Y-11672678D01*
X18432887Y-11682202D01*
X18413839Y-11691726D01*
X18394792Y-11691726D01*
X18375744Y-11682202D01*
X18366220Y-11672678D01*
X18356696Y-11653631D01*
X18347173Y-11615536D01*
X18347173Y-11567917D01*
X18356696Y-11529821D01*
X18366220Y-11510774D01*
X18375744Y-11501250D01*
X18394792Y-11491726D01*
X18528125Y-11491726D02*
X18661458Y-11491726D01*
X18575744Y-11691726D01*
X18890030Y-11691726D02*
X18890030Y-11491726D01*
X18975744Y-11691726D02*
X18975744Y-11586964D01*
X18966220Y-11567917D01*
X18947173Y-11558393D01*
X18918601Y-11558393D01*
X18899554Y-11567917D01*
X18890030Y-11577440D01*
X19099554Y-11691726D02*
X19080506Y-11682202D01*
X19070982Y-11672678D01*
X19061458Y-11653631D01*
X19061458Y-11596488D01*
X19070982Y-11577440D01*
X19080506Y-11567917D01*
X19099554Y-11558393D01*
X19128125Y-11558393D01*
X19147173Y-11567917D01*
X19156696Y-11577440D01*
X19166220Y-11596488D01*
X19166220Y-11653631D01*
X19156696Y-11672678D01*
X19147173Y-11682202D01*
X19128125Y-11691726D01*
X19099554Y-11691726D01*
X19280506Y-11691726D02*
X19261458Y-11682202D01*
X19251935Y-11663155D01*
X19251935Y-11491726D01*
X19432887Y-11682202D02*
X19413839Y-11691726D01*
X19375744Y-11691726D01*
X19356696Y-11682202D01*
X19347173Y-11663155D01*
X19347173Y-11586964D01*
X19356696Y-11567917D01*
X19375744Y-11558393D01*
X19413839Y-11558393D01*
X19432887Y-11567917D01*
X19442411Y-11586964D01*
X19442411Y-11606012D01*
X19347173Y-11625059D01*
X19518601Y-11682202D02*
X19537649Y-11691726D01*
X19575744Y-11691726D01*
X19594792Y-11682202D01*
X19604315Y-11663155D01*
X19604315Y-11653631D01*
X19594792Y-11634583D01*
X19575744Y-11625059D01*
X19547173Y-11625059D01*
X19528125Y-11615536D01*
X19518601Y-11596488D01*
X19518601Y-11586964D01*
X19528125Y-11567917D01*
X19547173Y-11558393D01*
X19575744Y-11558393D01*
X19594792Y-11567917D01*
X19670982Y-11767917D02*
X19680506Y-11758393D01*
X19699554Y-11729821D01*
X19709077Y-11710774D01*
X19718601Y-11682202D01*
X19728125Y-11634583D01*
X19728125Y-11596488D01*
X19718601Y-11548869D01*
X19709077Y-11520298D01*
X19699554Y-11501250D01*
X19680506Y-11472678D01*
X19670982Y-11463155D01*
D11*
X14518125Y-11865250D02*
G75*
G03*
X14518125Y-11865250I-50000J0D01*
G01*
D12*
X14880506Y-11955726D02*
X14766220Y-11955726D01*
X14823363Y-11955726D02*
X14823363Y-11755726D01*
X14804315Y-11784298D01*
X14785268Y-11803345D01*
X14766220Y-11812869D01*
X14966220Y-11936678D02*
X14975744Y-11946202D01*
X14966220Y-11955726D01*
X14956696Y-11946202D01*
X14966220Y-11936678D01*
X14966220Y-11955726D01*
X15099553Y-11755726D02*
X15118601Y-11755726D01*
X15137649Y-11765250D01*
X15147173Y-11774774D01*
X15156696Y-11793821D01*
X15166220Y-11831917D01*
X15166220Y-11879536D01*
X15156696Y-11917631D01*
X15147173Y-11936678D01*
X15137649Y-11946202D01*
X15118601Y-11955726D01*
X15099553Y-11955726D01*
X15080506Y-11946202D01*
X15070982Y-11936678D01*
X15061458Y-11917631D01*
X15051934Y-11879536D01*
X15051934Y-11831917D01*
X15061458Y-11793821D01*
X15070982Y-11774774D01*
X15080506Y-11765250D01*
X15099553Y-11755726D01*
X15290030Y-11755726D02*
X15309077Y-11755726D01*
X15328125Y-11765250D01*
X15337649Y-11774774D01*
X15347173Y-11793821D01*
X15356696Y-11831917D01*
X15356696Y-11879536D01*
X15347173Y-11917631D01*
X15337649Y-11936678D01*
X15328125Y-11946202D01*
X15309077Y-11955726D01*
X15290030Y-11955726D01*
X15270982Y-11946202D01*
X15261458Y-11936678D01*
X15251934Y-11917631D01*
X15242411Y-11879536D01*
X15242411Y-11831917D01*
X15251934Y-11793821D01*
X15261458Y-11774774D01*
X15270982Y-11765250D01*
X15290030Y-11755726D01*
X15480506Y-11755726D02*
X15499553Y-11755726D01*
X15518601Y-11765250D01*
X15528125Y-11774774D01*
X15537649Y-11793821D01*
X15547173Y-11831917D01*
X15547173Y-11879536D01*
X15537649Y-11917631D01*
X15528125Y-11936678D01*
X15518601Y-11946202D01*
X15499553Y-11955726D01*
X15480506Y-11955726D01*
X15461458Y-11946202D01*
X15451934Y-11936678D01*
X15442411Y-11917631D01*
X15432887Y-11879536D01*
X15432887Y-11831917D01*
X15442411Y-11793821D01*
X15451934Y-11774774D01*
X15461458Y-11765250D01*
X15480506Y-11755726D01*
X15632887Y-11955726D02*
X15632887Y-11822393D01*
X15632887Y-11841440D02*
X15642411Y-11831917D01*
X15661458Y-11822393D01*
X15690030Y-11822393D01*
X15709077Y-11831917D01*
X15718601Y-11850964D01*
X15718601Y-11955726D01*
X15718601Y-11850964D02*
X15728125Y-11831917D01*
X15747173Y-11822393D01*
X15775744Y-11822393D01*
X15794792Y-11831917D01*
X15804315Y-11850964D01*
X15804315Y-11955726D01*
X15899553Y-11955726D02*
X15899553Y-11822393D01*
X15899553Y-11841440D02*
X15909077Y-11831917D01*
X15928125Y-11822393D01*
X15956696Y-11822393D01*
X15975744Y-11831917D01*
X15985268Y-11850964D01*
X15985268Y-11955726D01*
X15985268Y-11850964D02*
X15994792Y-11831917D01*
X16013839Y-11822393D01*
X16042411Y-11822393D01*
X16061458Y-11831917D01*
X16070982Y-11850964D01*
X16070982Y-11955726D01*
X16461458Y-11746202D02*
X16290030Y-12003345D01*
X16718601Y-11755726D02*
X16737649Y-11755726D01*
X16756696Y-11765250D01*
X16766220Y-11774774D01*
X16775744Y-11793821D01*
X16785268Y-11831917D01*
X16785268Y-11879536D01*
X16775744Y-11917631D01*
X16766220Y-11936678D01*
X16756696Y-11946202D01*
X16737649Y-11955726D01*
X16718601Y-11955726D01*
X16699553Y-11946202D01*
X16690030Y-11936678D01*
X16680506Y-11917631D01*
X16670982Y-11879536D01*
X16670982Y-11831917D01*
X16680506Y-11793821D01*
X16690030Y-11774774D01*
X16699553Y-11765250D01*
X16718601Y-11755726D01*
X16870982Y-11936678D02*
X16880506Y-11946202D01*
X16870982Y-11955726D01*
X16861458Y-11946202D01*
X16870982Y-11936678D01*
X16870982Y-11955726D01*
X17004315Y-11755726D02*
X17023363Y-11755726D01*
X17042411Y-11765250D01*
X17051935Y-11774774D01*
X17061458Y-11793821D01*
X17070982Y-11831917D01*
X17070982Y-11879536D01*
X17061458Y-11917631D01*
X17051935Y-11936678D01*
X17042411Y-11946202D01*
X17023363Y-11955726D01*
X17004315Y-11955726D01*
X16985268Y-11946202D01*
X16975744Y-11936678D01*
X16966220Y-11917631D01*
X16956696Y-11879536D01*
X16956696Y-11831917D01*
X16966220Y-11793821D01*
X16975744Y-11774774D01*
X16985268Y-11765250D01*
X17004315Y-11755726D01*
X17137649Y-11755726D02*
X17261458Y-11755726D01*
X17194792Y-11831917D01*
X17223363Y-11831917D01*
X17242411Y-11841440D01*
X17251935Y-11850964D01*
X17261458Y-11870012D01*
X17261458Y-11917631D01*
X17251935Y-11936678D01*
X17242411Y-11946202D01*
X17223363Y-11955726D01*
X17166220Y-11955726D01*
X17147173Y-11946202D01*
X17137649Y-11936678D01*
X17356696Y-11955726D02*
X17394792Y-11955726D01*
X17413839Y-11946202D01*
X17423363Y-11936678D01*
X17442411Y-11908107D01*
X17451935Y-11870012D01*
X17451935Y-11793821D01*
X17442411Y-11774774D01*
X17432887Y-11765250D01*
X17413839Y-11755726D01*
X17375744Y-11755726D01*
X17356696Y-11765250D01*
X17347173Y-11774774D01*
X17337649Y-11793821D01*
X17337649Y-11841440D01*
X17347173Y-11860488D01*
X17356696Y-11870012D01*
X17375744Y-11879536D01*
X17413839Y-11879536D01*
X17432887Y-11870012D01*
X17442411Y-11860488D01*
X17451935Y-11841440D01*
X17623363Y-11822393D02*
X17623363Y-11955726D01*
X17575744Y-11746202D02*
X17528125Y-11889059D01*
X17651935Y-11889059D01*
X17718601Y-11755726D02*
X17718601Y-11793821D01*
X17794792Y-11755726D02*
X17794792Y-11793821D01*
X18090030Y-12031917D02*
X18080506Y-12022393D01*
X18061458Y-11993821D01*
X18051935Y-11974774D01*
X18042411Y-11946202D01*
X18032887Y-11898583D01*
X18032887Y-11860488D01*
X18042411Y-11812869D01*
X18051935Y-11784298D01*
X18061458Y-11765250D01*
X18080506Y-11736678D01*
X18090030Y-11727155D01*
X18251935Y-11822393D02*
X18251935Y-11955726D01*
X18204315Y-11746202D02*
X18156696Y-11889059D01*
X18280506Y-11889059D01*
X18394792Y-11755726D02*
X18413839Y-11755726D01*
X18432887Y-11765250D01*
X18442411Y-11774774D01*
X18451935Y-11793821D01*
X18461458Y-11831917D01*
X18461458Y-11879536D01*
X18451935Y-11917631D01*
X18442411Y-11936678D01*
X18432887Y-11946202D01*
X18413839Y-11955726D01*
X18394792Y-11955726D01*
X18375744Y-11946202D01*
X18366220Y-11936678D01*
X18356696Y-11917631D01*
X18347173Y-11879536D01*
X18347173Y-11831917D01*
X18356696Y-11793821D01*
X18366220Y-11774774D01*
X18375744Y-11765250D01*
X18394792Y-11755726D01*
X18699554Y-11955726D02*
X18699554Y-11755726D01*
X18785268Y-11955726D02*
X18785268Y-11850964D01*
X18775744Y-11831917D01*
X18756696Y-11822393D01*
X18728125Y-11822393D01*
X18709077Y-11831917D01*
X18699554Y-11841440D01*
X18909077Y-11955726D02*
X18890030Y-11946202D01*
X18880506Y-11936678D01*
X18870982Y-11917631D01*
X18870982Y-11860488D01*
X18880506Y-11841440D01*
X18890030Y-11831917D01*
X18909077Y-11822393D01*
X18937649Y-11822393D01*
X18956696Y-11831917D01*
X18966220Y-11841440D01*
X18975744Y-11860488D01*
X18975744Y-11917631D01*
X18966220Y-11936678D01*
X18956696Y-11946202D01*
X18937649Y-11955726D01*
X18909077Y-11955726D01*
X19090030Y-11955726D02*
X19070982Y-11946202D01*
X19061458Y-11927155D01*
X19061458Y-11755726D01*
X19242411Y-11946202D02*
X19223363Y-11955726D01*
X19185268Y-11955726D01*
X19166220Y-11946202D01*
X19156696Y-11927155D01*
X19156696Y-11850964D01*
X19166220Y-11831917D01*
X19185268Y-11822393D01*
X19223363Y-11822393D01*
X19242411Y-11831917D01*
X19251935Y-11850964D01*
X19251935Y-11870012D01*
X19156696Y-11889059D01*
X19328125Y-11946202D02*
X19347173Y-11955726D01*
X19385268Y-11955726D01*
X19404315Y-11946202D01*
X19413839Y-11927155D01*
X19413839Y-11917631D01*
X19404315Y-11898583D01*
X19385268Y-11889059D01*
X19356696Y-11889059D01*
X19337649Y-11879536D01*
X19328125Y-11860488D01*
X19328125Y-11850964D01*
X19337649Y-11831917D01*
X19356696Y-11822393D01*
X19385268Y-11822393D01*
X19404315Y-11831917D01*
X19480506Y-12031917D02*
X19490030Y-12022393D01*
X19509077Y-11993821D01*
X19518601Y-11974774D01*
X19528125Y-11946202D01*
X19537649Y-11898583D01*
X19537649Y-11860488D01*
X19528125Y-11812869D01*
X19518601Y-11784298D01*
X19509077Y-11765250D01*
X19490030Y-11736678D01*
X19480506Y-11727155D01*
D14*
X14444625Y-12055750D02*
X14444625Y-12202750D01*
X14371125Y-12129250D02*
X14518125Y-12129250D01*
D12*
X14880506Y-12219726D02*
X14766220Y-12219726D01*
X14823363Y-12219726D02*
X14823363Y-12019726D01*
X14804315Y-12048298D01*
X14785268Y-12067345D01*
X14766220Y-12076869D01*
X14966220Y-12200678D02*
X14975744Y-12210202D01*
X14966220Y-12219726D01*
X14956696Y-12210202D01*
X14966220Y-12200678D01*
X14966220Y-12219726D01*
X15147173Y-12086393D02*
X15147173Y-12219726D01*
X15099553Y-12010202D02*
X15051934Y-12153059D01*
X15175744Y-12153059D01*
X15232887Y-12019726D02*
X15366220Y-12019726D01*
X15280506Y-12219726D01*
X15480506Y-12019726D02*
X15499553Y-12019726D01*
X15518601Y-12029250D01*
X15528125Y-12038774D01*
X15537649Y-12057821D01*
X15547173Y-12095917D01*
X15547173Y-12143536D01*
X15537649Y-12181631D01*
X15528125Y-12200678D01*
X15518601Y-12210202D01*
X15499553Y-12219726D01*
X15480506Y-12219726D01*
X15461458Y-12210202D01*
X15451934Y-12200678D01*
X15442411Y-12181631D01*
X15432887Y-12143536D01*
X15432887Y-12095917D01*
X15442411Y-12057821D01*
X15451934Y-12038774D01*
X15461458Y-12029250D01*
X15480506Y-12019726D01*
X15632887Y-12219726D02*
X15632887Y-12086393D01*
X15632887Y-12105440D02*
X15642411Y-12095917D01*
X15661458Y-12086393D01*
X15690030Y-12086393D01*
X15709077Y-12095917D01*
X15718601Y-12114964D01*
X15718601Y-12219726D01*
X15718601Y-12114964D02*
X15728125Y-12095917D01*
X15747173Y-12086393D01*
X15775744Y-12086393D01*
X15794792Y-12095917D01*
X15804315Y-12114964D01*
X15804315Y-12219726D01*
X15899553Y-12219726D02*
X15899553Y-12086393D01*
X15899553Y-12105440D02*
X15909077Y-12095917D01*
X15928125Y-12086393D01*
X15956696Y-12086393D01*
X15975744Y-12095917D01*
X15985268Y-12114964D01*
X15985268Y-12219726D01*
X15985268Y-12114964D02*
X15994792Y-12095917D01*
X16013839Y-12086393D01*
X16042411Y-12086393D01*
X16061458Y-12095917D01*
X16070982Y-12114964D01*
X16070982Y-12219726D01*
X16461458Y-12010202D02*
X16290030Y-12267345D01*
X16718601Y-12019726D02*
X16737649Y-12019726D01*
X16756696Y-12029250D01*
X16766220Y-12038774D01*
X16775744Y-12057821D01*
X16785268Y-12095917D01*
X16785268Y-12143536D01*
X16775744Y-12181631D01*
X16766220Y-12200678D01*
X16756696Y-12210202D01*
X16737649Y-12219726D01*
X16718601Y-12219726D01*
X16699553Y-12210202D01*
X16690030Y-12200678D01*
X16680506Y-12181631D01*
X16670982Y-12143536D01*
X16670982Y-12095917D01*
X16680506Y-12057821D01*
X16690030Y-12038774D01*
X16699553Y-12029250D01*
X16718601Y-12019726D01*
X16870982Y-12200678D02*
X16880506Y-12210202D01*
X16870982Y-12219726D01*
X16861458Y-12210202D01*
X16870982Y-12200678D01*
X16870982Y-12219726D01*
X17004315Y-12019726D02*
X17023363Y-12019726D01*
X17042411Y-12029250D01*
X17051935Y-12038774D01*
X17061458Y-12057821D01*
X17070982Y-12095917D01*
X17070982Y-12143536D01*
X17061458Y-12181631D01*
X17051935Y-12200678D01*
X17042411Y-12210202D01*
X17023363Y-12219726D01*
X17004315Y-12219726D01*
X16985268Y-12210202D01*
X16975744Y-12200678D01*
X16966220Y-12181631D01*
X16956696Y-12143536D01*
X16956696Y-12095917D01*
X16966220Y-12057821D01*
X16975744Y-12038774D01*
X16985268Y-12029250D01*
X17004315Y-12019726D01*
X17251935Y-12019726D02*
X17156696Y-12019726D01*
X17147173Y-12114964D01*
X17156696Y-12105440D01*
X17175744Y-12095917D01*
X17223363Y-12095917D01*
X17242411Y-12105440D01*
X17251935Y-12114964D01*
X17261458Y-12134012D01*
X17261458Y-12181631D01*
X17251935Y-12200678D01*
X17242411Y-12210202D01*
X17223363Y-12219726D01*
X17175744Y-12219726D01*
X17156696Y-12210202D01*
X17147173Y-12200678D01*
X17328125Y-12019726D02*
X17461458Y-12019726D01*
X17375744Y-12219726D01*
X17547173Y-12219726D02*
X17585268Y-12219726D01*
X17604315Y-12210202D01*
X17613839Y-12200678D01*
X17632887Y-12172107D01*
X17642411Y-12134012D01*
X17642411Y-12057821D01*
X17632887Y-12038774D01*
X17623363Y-12029250D01*
X17604315Y-12019726D01*
X17566220Y-12019726D01*
X17547173Y-12029250D01*
X17537649Y-12038774D01*
X17528125Y-12057821D01*
X17528125Y-12105440D01*
X17537649Y-12124488D01*
X17547173Y-12134012D01*
X17566220Y-12143536D01*
X17604315Y-12143536D01*
X17623363Y-12134012D01*
X17632887Y-12124488D01*
X17642411Y-12105440D01*
X17718601Y-12019726D02*
X17718601Y-12057821D01*
X17794792Y-12019726D02*
X17794792Y-12057821D01*
X18090030Y-12295917D02*
X18080506Y-12286393D01*
X18061458Y-12257821D01*
X18051935Y-12238774D01*
X18042411Y-12210202D01*
X18032887Y-12162583D01*
X18032887Y-12124488D01*
X18042411Y-12076869D01*
X18051935Y-12048298D01*
X18061458Y-12029250D01*
X18080506Y-12000678D01*
X18090030Y-11991155D01*
X18147173Y-12019726D02*
X18270982Y-12019726D01*
X18204315Y-12095917D01*
X18232887Y-12095917D01*
X18251935Y-12105440D01*
X18261458Y-12114964D01*
X18270982Y-12134012D01*
X18270982Y-12181631D01*
X18261458Y-12200678D01*
X18251935Y-12210202D01*
X18232887Y-12219726D01*
X18175744Y-12219726D01*
X18156696Y-12210202D01*
X18147173Y-12200678D01*
X18442411Y-12019726D02*
X18404315Y-12019726D01*
X18385268Y-12029250D01*
X18375744Y-12038774D01*
X18356696Y-12067345D01*
X18347173Y-12105440D01*
X18347173Y-12181631D01*
X18356696Y-12200678D01*
X18366220Y-12210202D01*
X18385268Y-12219726D01*
X18423363Y-12219726D01*
X18442411Y-12210202D01*
X18451935Y-12200678D01*
X18461458Y-12181631D01*
X18461458Y-12134012D01*
X18451935Y-12114964D01*
X18442411Y-12105440D01*
X18423363Y-12095917D01*
X18385268Y-12095917D01*
X18366220Y-12105440D01*
X18356696Y-12114964D01*
X18347173Y-12134012D01*
X18699554Y-12219726D02*
X18699554Y-12019726D01*
X18785268Y-12219726D02*
X18785268Y-12114964D01*
X18775744Y-12095917D01*
X18756696Y-12086393D01*
X18728125Y-12086393D01*
X18709077Y-12095917D01*
X18699554Y-12105440D01*
X18909077Y-12219726D02*
X18890030Y-12210202D01*
X18880506Y-12200678D01*
X18870982Y-12181631D01*
X18870982Y-12124488D01*
X18880506Y-12105440D01*
X18890030Y-12095917D01*
X18909077Y-12086393D01*
X18937649Y-12086393D01*
X18956696Y-12095917D01*
X18966220Y-12105440D01*
X18975744Y-12124488D01*
X18975744Y-12181631D01*
X18966220Y-12200678D01*
X18956696Y-12210202D01*
X18937649Y-12219726D01*
X18909077Y-12219726D01*
X19090030Y-12219726D02*
X19070982Y-12210202D01*
X19061458Y-12191155D01*
X19061458Y-12019726D01*
X19242411Y-12210202D02*
X19223363Y-12219726D01*
X19185268Y-12219726D01*
X19166220Y-12210202D01*
X19156696Y-12191155D01*
X19156696Y-12114964D01*
X19166220Y-12095917D01*
X19185268Y-12086393D01*
X19223363Y-12086393D01*
X19242411Y-12095917D01*
X19251935Y-12114964D01*
X19251935Y-12134012D01*
X19156696Y-12153059D01*
X19328125Y-12210202D02*
X19347173Y-12219726D01*
X19385268Y-12219726D01*
X19404315Y-12210202D01*
X19413839Y-12191155D01*
X19413839Y-12181631D01*
X19404315Y-12162583D01*
X19385268Y-12153059D01*
X19356696Y-12153059D01*
X19337649Y-12143536D01*
X19328125Y-12124488D01*
X19328125Y-12114964D01*
X19337649Y-12095917D01*
X19356696Y-12086393D01*
X19385268Y-12086393D01*
X19404315Y-12095917D01*
X19480506Y-12295917D02*
X19490030Y-12286393D01*
X19509077Y-12257821D01*
X19518601Y-12238774D01*
X19528125Y-12210202D01*
X19537649Y-12162583D01*
X19537649Y-12124488D01*
X19528125Y-12076869D01*
X19518601Y-12048298D01*
X19509077Y-12029250D01*
X19490030Y-12000678D01*
X19480506Y-11991155D01*
M02*
