%TF.GenerationSoftware,KiCad,Pcbnew,(6.0.9)*%
%TF.CreationDate,2023-03-10T16:46:29-06:00*%
%TF.ProjectId,Programmable Keys,50726f67-7261-46d6-9d61-626c65204b65,rev?*%
%TF.SameCoordinates,Original*%
%TF.FileFunction,Drillmap*%
%TF.FilePolarity,Positive*%
%FSLAX45Y45*%
G04 Gerber Fmt 4.5, Leading zero omitted, Abs format (unit mm)*
G04 Created by KiCad (PCBNEW (6.0.9)) date 2023-03-10 16:46:29*
%MOMM*%
%LPD*%
G01*
G04 APERTURE LIST*
%ADD10C,0.150000*%
%ADD11C,0.100000*%
%ADD12C,0.200000*%
%ADD13C,0.175000*%
%ADD14C,0.398780*%
G04 APERTURE END LIST*
D10*
X14763750Y-10715625D02*
G75*
G03*
X15001875Y-10953750I237600J-525D01*
G01*
D11*
X15240000Y-10556875D02*
G75*
G03*
X15240000Y-10556875I-79375J0D01*
G01*
D10*
X15001875Y-5238750D02*
X22383750Y-5238750D01*
D11*
X22304375Y-10556875D02*
G75*
G03*
X22304375Y-10556875I-79375J0D01*
G01*
D10*
X22383750Y-10953755D02*
G75*
G03*
X22621875Y-10715625I-10J238135D01*
G01*
X14763750Y-10715625D02*
X14763750Y-5476875D01*
X15001875Y-10953750D02*
X22383750Y-10953750D01*
D11*
X22304375Y-5635625D02*
G75*
G03*
X22304375Y-5635625I-79375J0D01*
G01*
D10*
X22621870Y-5476875D02*
G75*
G03*
X22383750Y-5238750I-238120J5D01*
G01*
X22621875Y-5476875D02*
X22621875Y-10715625D01*
D11*
X15240000Y-5635625D02*
G75*
G03*
X15240000Y-5635625I-79375J0D01*
G01*
D10*
X15001875Y-5238750D02*
G75*
G03*
X14763750Y-5476875I5J-238130D01*
G01*
D12*
D13*
X16152625Y-6103750D02*
X16327625Y-6278750D01*
X16327625Y-6103750D02*
X16152625Y-6278750D01*
X16152625Y-8008750D02*
X16327625Y-8183750D01*
X16327625Y-8008750D02*
X16152625Y-8183750D01*
X16152625Y-9913750D02*
X16327625Y-10088750D01*
X16327625Y-9913750D02*
X16152625Y-10088750D01*
X17168625Y-6103750D02*
X17343625Y-6278750D01*
X17343625Y-6103750D02*
X17168625Y-6278750D01*
X17168625Y-8008750D02*
X17343625Y-8183750D01*
X17343625Y-8008750D02*
X17168625Y-8183750D01*
X17168625Y-9913750D02*
X17343625Y-10088750D01*
X17343625Y-9913750D02*
X17168625Y-10088750D01*
X18057625Y-6103750D02*
X18232625Y-6278750D01*
X18232625Y-6103750D02*
X18057625Y-6278750D01*
X18057625Y-8008750D02*
X18232625Y-8183750D01*
X18232625Y-8008750D02*
X18057625Y-8183750D01*
X18057625Y-9913750D02*
X18232625Y-10088750D01*
X18232625Y-9913750D02*
X18057625Y-10088750D01*
X19073625Y-6103750D02*
X19248625Y-6278750D01*
X19248625Y-6103750D02*
X19073625Y-6278750D01*
X19073625Y-8008750D02*
X19248625Y-8183750D01*
X19248625Y-8008750D02*
X19073625Y-8183750D01*
X19073625Y-9913750D02*
X19248625Y-10088750D01*
X19248625Y-9913750D02*
X19073625Y-10088750D01*
X19962625Y-6103750D02*
X20137625Y-6278750D01*
X20137625Y-6103750D02*
X19962625Y-6278750D01*
X19962625Y-8008750D02*
X20137625Y-8183750D01*
X20137625Y-8008750D02*
X19962625Y-8183750D01*
X19962625Y-9913750D02*
X20137625Y-10088750D01*
X20137625Y-9913750D02*
X19962625Y-10088750D01*
X20978625Y-6103750D02*
X21153625Y-6278750D01*
X21153625Y-6103750D02*
X20978625Y-6278750D01*
X20978625Y-8008750D02*
X21153625Y-8183750D01*
X21153625Y-8008750D02*
X20978625Y-8183750D01*
X20978625Y-9913750D02*
X21153625Y-10088750D01*
X21153625Y-9913750D02*
X20978625Y-10088750D01*
D14*
X16947515Y-6191250D02*
G75*
G03*
X16947515Y-6191250I-199390J0D01*
G01*
X16947515Y-8096250D02*
G75*
G03*
X16947515Y-8096250I-199390J0D01*
G01*
X16947515Y-10001250D02*
G75*
G03*
X16947515Y-10001250I-199390J0D01*
G01*
X18852515Y-6191250D02*
G75*
G03*
X18852515Y-6191250I-199390J0D01*
G01*
X18852515Y-8096250D02*
G75*
G03*
X18852515Y-8096250I-199390J0D01*
G01*
X18852515Y-10001250D02*
G75*
G03*
X18852515Y-10001250I-199390J0D01*
G01*
X20757515Y-6191250D02*
G75*
G03*
X20757515Y-6191250I-199390J0D01*
G01*
X20757515Y-8096250D02*
G75*
G03*
X20757515Y-8096250I-199390J0D01*
G01*
X20757515Y-10001250D02*
G75*
G03*
X20757515Y-10001250I-199390J0D01*
G01*
D12*
X15013869Y-11271727D02*
X15013869Y-11071727D01*
X15061488Y-11071727D01*
X15090059Y-11081251D01*
X15109107Y-11100298D01*
X15118631Y-11119346D01*
X15128155Y-11157441D01*
X15128155Y-11186012D01*
X15118631Y-11224108D01*
X15109107Y-11243155D01*
X15090059Y-11262203D01*
X15061488Y-11271727D01*
X15013869Y-11271727D01*
X15213869Y-11271727D02*
X15213869Y-11138393D01*
X15213869Y-11176489D02*
X15223393Y-11157441D01*
X15232917Y-11147917D01*
X15251964Y-11138393D01*
X15271012Y-11138393D01*
X15337678Y-11271727D02*
X15337678Y-11138393D01*
X15337678Y-11071727D02*
X15328155Y-11081251D01*
X15337678Y-11090774D01*
X15347202Y-11081251D01*
X15337678Y-11071727D01*
X15337678Y-11090774D01*
X15461488Y-11271727D02*
X15442440Y-11262203D01*
X15432917Y-11243155D01*
X15432917Y-11071727D01*
X15566250Y-11271727D02*
X15547202Y-11262203D01*
X15537678Y-11243155D01*
X15537678Y-11071727D01*
X15794821Y-11271727D02*
X15794821Y-11071727D01*
X15861488Y-11214584D01*
X15928155Y-11071727D01*
X15928155Y-11271727D01*
X16109107Y-11271727D02*
X16109107Y-11166965D01*
X16099583Y-11147917D01*
X16080536Y-11138393D01*
X16042440Y-11138393D01*
X16023393Y-11147917D01*
X16109107Y-11262203D02*
X16090059Y-11271727D01*
X16042440Y-11271727D01*
X16023393Y-11262203D01*
X16013869Y-11243155D01*
X16013869Y-11224108D01*
X16023393Y-11205060D01*
X16042440Y-11195536D01*
X16090059Y-11195536D01*
X16109107Y-11186012D01*
X16204345Y-11138393D02*
X16204345Y-11338393D01*
X16204345Y-11147917D02*
X16223393Y-11138393D01*
X16261488Y-11138393D01*
X16280536Y-11147917D01*
X16290059Y-11157441D01*
X16299583Y-11176489D01*
X16299583Y-11233631D01*
X16290059Y-11252679D01*
X16280536Y-11262203D01*
X16261488Y-11271727D01*
X16223393Y-11271727D01*
X16204345Y-11262203D01*
X16385298Y-11252679D02*
X16394821Y-11262203D01*
X16385298Y-11271727D01*
X16375774Y-11262203D01*
X16385298Y-11252679D01*
X16385298Y-11271727D01*
X16385298Y-11147917D02*
X16394821Y-11157441D01*
X16385298Y-11166965D01*
X16375774Y-11157441D01*
X16385298Y-11147917D01*
X16385298Y-11166965D01*
D13*
X14581250Y-11513751D02*
X14756250Y-11688751D01*
X14756250Y-11513751D02*
X14581250Y-11688751D01*
D12*
X15118631Y-11691727D02*
X15004345Y-11691727D01*
X15061488Y-11691727D02*
X15061488Y-11491727D01*
X15042440Y-11520298D01*
X15023393Y-11539346D01*
X15004345Y-11548870D01*
X15204345Y-11672679D02*
X15213869Y-11682203D01*
X15204345Y-11691727D01*
X15194821Y-11682203D01*
X15204345Y-11672679D01*
X15204345Y-11691727D01*
X15280536Y-11491727D02*
X15413869Y-11491727D01*
X15328155Y-11691727D01*
X15585298Y-11491727D02*
X15490059Y-11491727D01*
X15480536Y-11586965D01*
X15490059Y-11577441D01*
X15509107Y-11567917D01*
X15556726Y-11567917D01*
X15575774Y-11577441D01*
X15585298Y-11586965D01*
X15594821Y-11606012D01*
X15594821Y-11653631D01*
X15585298Y-11672679D01*
X15575774Y-11682203D01*
X15556726Y-11691727D01*
X15509107Y-11691727D01*
X15490059Y-11682203D01*
X15480536Y-11672679D01*
X15718631Y-11491727D02*
X15737678Y-11491727D01*
X15756726Y-11501251D01*
X15766250Y-11510774D01*
X15775774Y-11529822D01*
X15785298Y-11567917D01*
X15785298Y-11615536D01*
X15775774Y-11653631D01*
X15766250Y-11672679D01*
X15756726Y-11682203D01*
X15737678Y-11691727D01*
X15718631Y-11691727D01*
X15699583Y-11682203D01*
X15690059Y-11672679D01*
X15680536Y-11653631D01*
X15671012Y-11615536D01*
X15671012Y-11567917D01*
X15680536Y-11529822D01*
X15690059Y-11510774D01*
X15699583Y-11501251D01*
X15718631Y-11491727D01*
X15871012Y-11691727D02*
X15871012Y-11558393D01*
X15871012Y-11577441D02*
X15880536Y-11567917D01*
X15899583Y-11558393D01*
X15928155Y-11558393D01*
X15947202Y-11567917D01*
X15956726Y-11586965D01*
X15956726Y-11691727D01*
X15956726Y-11586965D02*
X15966250Y-11567917D01*
X15985298Y-11558393D01*
X16013869Y-11558393D01*
X16032917Y-11567917D01*
X16042440Y-11586965D01*
X16042440Y-11691727D01*
X16137678Y-11691727D02*
X16137678Y-11558393D01*
X16137678Y-11577441D02*
X16147202Y-11567917D01*
X16166250Y-11558393D01*
X16194821Y-11558393D01*
X16213869Y-11567917D01*
X16223393Y-11586965D01*
X16223393Y-11691727D01*
X16223393Y-11586965D02*
X16232917Y-11567917D01*
X16251964Y-11558393D01*
X16280536Y-11558393D01*
X16299583Y-11567917D01*
X16309107Y-11586965D01*
X16309107Y-11691727D01*
X16699583Y-11482203D02*
X16528155Y-11739346D01*
X16956726Y-11491727D02*
X16975774Y-11491727D01*
X16994821Y-11501251D01*
X17004345Y-11510774D01*
X17013869Y-11529822D01*
X17023393Y-11567917D01*
X17023393Y-11615536D01*
X17013869Y-11653631D01*
X17004345Y-11672679D01*
X16994821Y-11682203D01*
X16975774Y-11691727D01*
X16956726Y-11691727D01*
X16937679Y-11682203D01*
X16928155Y-11672679D01*
X16918631Y-11653631D01*
X16909107Y-11615536D01*
X16909107Y-11567917D01*
X16918631Y-11529822D01*
X16928155Y-11510774D01*
X16937679Y-11501251D01*
X16956726Y-11491727D01*
X17109107Y-11672679D02*
X17118631Y-11682203D01*
X17109107Y-11691727D01*
X17099583Y-11682203D01*
X17109107Y-11672679D01*
X17109107Y-11691727D01*
X17242440Y-11491727D02*
X17261488Y-11491727D01*
X17280536Y-11501251D01*
X17290060Y-11510774D01*
X17299583Y-11529822D01*
X17309107Y-11567917D01*
X17309107Y-11615536D01*
X17299583Y-11653631D01*
X17290060Y-11672679D01*
X17280536Y-11682203D01*
X17261488Y-11691727D01*
X17242440Y-11691727D01*
X17223393Y-11682203D01*
X17213869Y-11672679D01*
X17204345Y-11653631D01*
X17194821Y-11615536D01*
X17194821Y-11567917D01*
X17204345Y-11529822D01*
X17213869Y-11510774D01*
X17223393Y-11501251D01*
X17242440Y-11491727D01*
X17480536Y-11491727D02*
X17442440Y-11491727D01*
X17423393Y-11501251D01*
X17413869Y-11510774D01*
X17394821Y-11539346D01*
X17385298Y-11577441D01*
X17385298Y-11653631D01*
X17394821Y-11672679D01*
X17404345Y-11682203D01*
X17423393Y-11691727D01*
X17461488Y-11691727D01*
X17480536Y-11682203D01*
X17490060Y-11672679D01*
X17499583Y-11653631D01*
X17499583Y-11606012D01*
X17490060Y-11586965D01*
X17480536Y-11577441D01*
X17461488Y-11567917D01*
X17423393Y-11567917D01*
X17404345Y-11577441D01*
X17394821Y-11586965D01*
X17385298Y-11606012D01*
X17613869Y-11577441D02*
X17594821Y-11567917D01*
X17585298Y-11558393D01*
X17575774Y-11539346D01*
X17575774Y-11529822D01*
X17585298Y-11510774D01*
X17594821Y-11501251D01*
X17613869Y-11491727D01*
X17651964Y-11491727D01*
X17671012Y-11501251D01*
X17680536Y-11510774D01*
X17690060Y-11529822D01*
X17690060Y-11539346D01*
X17680536Y-11558393D01*
X17671012Y-11567917D01*
X17651964Y-11577441D01*
X17613869Y-11577441D01*
X17594821Y-11586965D01*
X17585298Y-11596489D01*
X17575774Y-11615536D01*
X17575774Y-11653631D01*
X17585298Y-11672679D01*
X17594821Y-11682203D01*
X17613869Y-11691727D01*
X17651964Y-11691727D01*
X17671012Y-11682203D01*
X17680536Y-11672679D01*
X17690060Y-11653631D01*
X17690060Y-11615536D01*
X17680536Y-11596489D01*
X17671012Y-11586965D01*
X17651964Y-11577441D01*
X17785298Y-11691727D02*
X17823393Y-11691727D01*
X17842440Y-11682203D01*
X17851964Y-11672679D01*
X17871012Y-11644108D01*
X17880536Y-11606012D01*
X17880536Y-11529822D01*
X17871012Y-11510774D01*
X17861488Y-11501251D01*
X17842440Y-11491727D01*
X17804345Y-11491727D01*
X17785298Y-11501251D01*
X17775774Y-11510774D01*
X17766250Y-11529822D01*
X17766250Y-11577441D01*
X17775774Y-11596489D01*
X17785298Y-11606012D01*
X17804345Y-11615536D01*
X17842440Y-11615536D01*
X17861488Y-11606012D01*
X17871012Y-11596489D01*
X17880536Y-11577441D01*
X17956726Y-11491727D02*
X17956726Y-11529822D01*
X18032917Y-11491727D02*
X18032917Y-11529822D01*
X18328155Y-11767917D02*
X18318631Y-11758393D01*
X18299583Y-11729822D01*
X18290060Y-11710774D01*
X18280536Y-11682203D01*
X18271012Y-11634584D01*
X18271012Y-11596489D01*
X18280536Y-11548870D01*
X18290060Y-11520298D01*
X18299583Y-11501251D01*
X18318631Y-11472679D01*
X18328155Y-11463155D01*
X18509107Y-11691727D02*
X18394821Y-11691727D01*
X18451964Y-11691727D02*
X18451964Y-11491727D01*
X18432917Y-11520298D01*
X18413869Y-11539346D01*
X18394821Y-11548870D01*
X18623393Y-11577441D02*
X18604345Y-11567917D01*
X18594821Y-11558393D01*
X18585298Y-11539346D01*
X18585298Y-11529822D01*
X18594821Y-11510774D01*
X18604345Y-11501251D01*
X18623393Y-11491727D01*
X18661488Y-11491727D01*
X18680536Y-11501251D01*
X18690060Y-11510774D01*
X18699583Y-11529822D01*
X18699583Y-11539346D01*
X18690060Y-11558393D01*
X18680536Y-11567917D01*
X18661488Y-11577441D01*
X18623393Y-11577441D01*
X18604345Y-11586965D01*
X18594821Y-11596489D01*
X18585298Y-11615536D01*
X18585298Y-11653631D01*
X18594821Y-11672679D01*
X18604345Y-11682203D01*
X18623393Y-11691727D01*
X18661488Y-11691727D01*
X18680536Y-11682203D01*
X18690060Y-11672679D01*
X18699583Y-11653631D01*
X18699583Y-11615536D01*
X18690060Y-11596489D01*
X18680536Y-11586965D01*
X18661488Y-11577441D01*
X18937679Y-11691727D02*
X18937679Y-11491727D01*
X19023393Y-11691727D02*
X19023393Y-11586965D01*
X19013869Y-11567917D01*
X18994821Y-11558393D01*
X18966250Y-11558393D01*
X18947202Y-11567917D01*
X18937679Y-11577441D01*
X19147202Y-11691727D02*
X19128155Y-11682203D01*
X19118631Y-11672679D01*
X19109107Y-11653631D01*
X19109107Y-11596489D01*
X19118631Y-11577441D01*
X19128155Y-11567917D01*
X19147202Y-11558393D01*
X19175774Y-11558393D01*
X19194821Y-11567917D01*
X19204345Y-11577441D01*
X19213869Y-11596489D01*
X19213869Y-11653631D01*
X19204345Y-11672679D01*
X19194821Y-11682203D01*
X19175774Y-11691727D01*
X19147202Y-11691727D01*
X19328155Y-11691727D02*
X19309107Y-11682203D01*
X19299583Y-11663155D01*
X19299583Y-11491727D01*
X19480536Y-11682203D02*
X19461488Y-11691727D01*
X19423393Y-11691727D01*
X19404345Y-11682203D01*
X19394821Y-11663155D01*
X19394821Y-11586965D01*
X19404345Y-11567917D01*
X19423393Y-11558393D01*
X19461488Y-11558393D01*
X19480536Y-11567917D01*
X19490060Y-11586965D01*
X19490060Y-11606012D01*
X19394821Y-11625060D01*
X19566250Y-11682203D02*
X19585298Y-11691727D01*
X19623393Y-11691727D01*
X19642440Y-11682203D01*
X19651964Y-11663155D01*
X19651964Y-11653631D01*
X19642440Y-11634584D01*
X19623393Y-11625060D01*
X19594821Y-11625060D01*
X19575774Y-11615536D01*
X19566250Y-11596489D01*
X19566250Y-11586965D01*
X19575774Y-11567917D01*
X19594821Y-11558393D01*
X19623393Y-11558393D01*
X19642440Y-11567917D01*
X19718631Y-11767917D02*
X19728155Y-11758393D01*
X19747202Y-11729822D01*
X19756726Y-11710774D01*
X19766250Y-11682203D01*
X19775774Y-11634584D01*
X19775774Y-11596489D01*
X19766250Y-11548870D01*
X19756726Y-11520298D01*
X19747202Y-11501251D01*
X19728155Y-11472679D01*
X19718631Y-11463155D01*
X20080536Y-11767917D02*
X20071012Y-11758393D01*
X20051964Y-11729822D01*
X20042440Y-11710774D01*
X20032917Y-11682203D01*
X20023393Y-11634584D01*
X20023393Y-11596489D01*
X20032917Y-11548870D01*
X20042440Y-11520298D01*
X20051964Y-11501251D01*
X20071012Y-11472679D01*
X20080536Y-11463155D01*
X20156726Y-11558393D02*
X20156726Y-11691727D01*
X20156726Y-11577441D02*
X20166250Y-11567917D01*
X20185298Y-11558393D01*
X20213869Y-11558393D01*
X20232917Y-11567917D01*
X20242440Y-11586965D01*
X20242440Y-11691727D01*
X20366250Y-11691727D02*
X20347202Y-11682203D01*
X20337679Y-11672679D01*
X20328155Y-11653631D01*
X20328155Y-11596489D01*
X20337679Y-11577441D01*
X20347202Y-11567917D01*
X20366250Y-11558393D01*
X20394821Y-11558393D01*
X20413869Y-11567917D01*
X20423393Y-11577441D01*
X20432917Y-11596489D01*
X20432917Y-11653631D01*
X20423393Y-11672679D01*
X20413869Y-11682203D01*
X20394821Y-11691727D01*
X20366250Y-11691727D01*
X20490060Y-11558393D02*
X20566250Y-11558393D01*
X20518631Y-11491727D02*
X20518631Y-11663155D01*
X20528155Y-11682203D01*
X20547202Y-11691727D01*
X20566250Y-11691727D01*
X20785298Y-11558393D02*
X20785298Y-11758393D01*
X20785298Y-11567917D02*
X20804345Y-11558393D01*
X20842440Y-11558393D01*
X20861488Y-11567917D01*
X20871012Y-11577441D01*
X20880536Y-11596489D01*
X20880536Y-11653631D01*
X20871012Y-11672679D01*
X20861488Y-11682203D01*
X20842440Y-11691727D01*
X20804345Y-11691727D01*
X20785298Y-11682203D01*
X20994821Y-11691727D02*
X20975774Y-11682203D01*
X20966250Y-11663155D01*
X20966250Y-11491727D01*
X21156726Y-11691727D02*
X21156726Y-11586965D01*
X21147202Y-11567917D01*
X21128155Y-11558393D01*
X21090060Y-11558393D01*
X21071012Y-11567917D01*
X21156726Y-11682203D02*
X21137679Y-11691727D01*
X21090060Y-11691727D01*
X21071012Y-11682203D01*
X21061488Y-11663155D01*
X21061488Y-11644108D01*
X21071012Y-11625060D01*
X21090060Y-11615536D01*
X21137679Y-11615536D01*
X21156726Y-11606012D01*
X21223393Y-11558393D02*
X21299583Y-11558393D01*
X21251964Y-11491727D02*
X21251964Y-11663155D01*
X21261488Y-11682203D01*
X21280536Y-11691727D01*
X21299583Y-11691727D01*
X21442440Y-11682203D02*
X21423393Y-11691727D01*
X21385298Y-11691727D01*
X21366250Y-11682203D01*
X21356726Y-11663155D01*
X21356726Y-11586965D01*
X21366250Y-11567917D01*
X21385298Y-11558393D01*
X21423393Y-11558393D01*
X21442440Y-11567917D01*
X21451964Y-11586965D01*
X21451964Y-11606012D01*
X21356726Y-11625060D01*
X21623393Y-11691727D02*
X21623393Y-11491727D01*
X21623393Y-11682203D02*
X21604345Y-11691727D01*
X21566250Y-11691727D01*
X21547202Y-11682203D01*
X21537679Y-11672679D01*
X21528155Y-11653631D01*
X21528155Y-11596489D01*
X21537679Y-11577441D01*
X21547202Y-11567917D01*
X21566250Y-11558393D01*
X21604345Y-11558393D01*
X21623393Y-11567917D01*
X21699583Y-11767917D02*
X21709107Y-11758393D01*
X21728155Y-11729822D01*
X21737679Y-11710774D01*
X21747202Y-11682203D01*
X21756726Y-11634584D01*
X21756726Y-11596489D01*
X21747202Y-11548870D01*
X21737679Y-11520298D01*
X21728155Y-11501251D01*
X21709107Y-11472679D01*
X21699583Y-11463155D01*
X14756250Y-11896251D02*
G75*
G03*
X14756250Y-11896251I-100000J0D01*
G01*
X14994821Y-11786727D02*
X15118631Y-11786727D01*
X15051964Y-11862917D01*
X15080536Y-11862917D01*
X15099583Y-11872441D01*
X15109107Y-11881965D01*
X15118631Y-11901012D01*
X15118631Y-11948631D01*
X15109107Y-11967679D01*
X15099583Y-11977203D01*
X15080536Y-11986727D01*
X15023393Y-11986727D01*
X15004345Y-11977203D01*
X14994821Y-11967679D01*
X15204345Y-11967679D02*
X15213869Y-11977203D01*
X15204345Y-11986727D01*
X15194821Y-11977203D01*
X15204345Y-11967679D01*
X15204345Y-11986727D01*
X15309107Y-11986727D02*
X15347202Y-11986727D01*
X15366250Y-11977203D01*
X15375774Y-11967679D01*
X15394821Y-11939108D01*
X15404345Y-11901012D01*
X15404345Y-11824822D01*
X15394821Y-11805774D01*
X15385298Y-11796251D01*
X15366250Y-11786727D01*
X15328155Y-11786727D01*
X15309107Y-11796251D01*
X15299583Y-11805774D01*
X15290059Y-11824822D01*
X15290059Y-11872441D01*
X15299583Y-11891489D01*
X15309107Y-11901012D01*
X15328155Y-11910536D01*
X15366250Y-11910536D01*
X15385298Y-11901012D01*
X15394821Y-11891489D01*
X15404345Y-11872441D01*
X15518631Y-11872441D02*
X15499583Y-11862917D01*
X15490059Y-11853393D01*
X15480536Y-11834346D01*
X15480536Y-11824822D01*
X15490059Y-11805774D01*
X15499583Y-11796251D01*
X15518631Y-11786727D01*
X15556726Y-11786727D01*
X15575774Y-11796251D01*
X15585298Y-11805774D01*
X15594821Y-11824822D01*
X15594821Y-11834346D01*
X15585298Y-11853393D01*
X15575774Y-11862917D01*
X15556726Y-11872441D01*
X15518631Y-11872441D01*
X15499583Y-11881965D01*
X15490059Y-11891489D01*
X15480536Y-11910536D01*
X15480536Y-11948631D01*
X15490059Y-11967679D01*
X15499583Y-11977203D01*
X15518631Y-11986727D01*
X15556726Y-11986727D01*
X15575774Y-11977203D01*
X15585298Y-11967679D01*
X15594821Y-11948631D01*
X15594821Y-11910536D01*
X15585298Y-11891489D01*
X15575774Y-11881965D01*
X15556726Y-11872441D01*
X15709107Y-11872441D02*
X15690059Y-11862917D01*
X15680536Y-11853393D01*
X15671012Y-11834346D01*
X15671012Y-11824822D01*
X15680536Y-11805774D01*
X15690059Y-11796251D01*
X15709107Y-11786727D01*
X15747202Y-11786727D01*
X15766250Y-11796251D01*
X15775774Y-11805774D01*
X15785298Y-11824822D01*
X15785298Y-11834346D01*
X15775774Y-11853393D01*
X15766250Y-11862917D01*
X15747202Y-11872441D01*
X15709107Y-11872441D01*
X15690059Y-11881965D01*
X15680536Y-11891489D01*
X15671012Y-11910536D01*
X15671012Y-11948631D01*
X15680536Y-11967679D01*
X15690059Y-11977203D01*
X15709107Y-11986727D01*
X15747202Y-11986727D01*
X15766250Y-11977203D01*
X15775774Y-11967679D01*
X15785298Y-11948631D01*
X15785298Y-11910536D01*
X15775774Y-11891489D01*
X15766250Y-11881965D01*
X15747202Y-11872441D01*
X15871012Y-11986727D02*
X15871012Y-11853393D01*
X15871012Y-11872441D02*
X15880536Y-11862917D01*
X15899583Y-11853393D01*
X15928155Y-11853393D01*
X15947202Y-11862917D01*
X15956726Y-11881965D01*
X15956726Y-11986727D01*
X15956726Y-11881965D02*
X15966250Y-11862917D01*
X15985298Y-11853393D01*
X16013869Y-11853393D01*
X16032917Y-11862917D01*
X16042440Y-11881965D01*
X16042440Y-11986727D01*
X16137678Y-11986727D02*
X16137678Y-11853393D01*
X16137678Y-11872441D02*
X16147202Y-11862917D01*
X16166250Y-11853393D01*
X16194821Y-11853393D01*
X16213869Y-11862917D01*
X16223393Y-11881965D01*
X16223393Y-11986727D01*
X16223393Y-11881965D02*
X16232917Y-11862917D01*
X16251964Y-11853393D01*
X16280536Y-11853393D01*
X16299583Y-11862917D01*
X16309107Y-11881965D01*
X16309107Y-11986727D01*
X16699583Y-11777203D02*
X16528155Y-12034346D01*
X16956726Y-11786727D02*
X16975774Y-11786727D01*
X16994821Y-11796251D01*
X17004345Y-11805774D01*
X17013869Y-11824822D01*
X17023393Y-11862917D01*
X17023393Y-11910536D01*
X17013869Y-11948631D01*
X17004345Y-11967679D01*
X16994821Y-11977203D01*
X16975774Y-11986727D01*
X16956726Y-11986727D01*
X16937679Y-11977203D01*
X16928155Y-11967679D01*
X16918631Y-11948631D01*
X16909107Y-11910536D01*
X16909107Y-11862917D01*
X16918631Y-11824822D01*
X16928155Y-11805774D01*
X16937679Y-11796251D01*
X16956726Y-11786727D01*
X17109107Y-11967679D02*
X17118631Y-11977203D01*
X17109107Y-11986727D01*
X17099583Y-11977203D01*
X17109107Y-11967679D01*
X17109107Y-11986727D01*
X17309107Y-11986727D02*
X17194821Y-11986727D01*
X17251964Y-11986727D02*
X17251964Y-11786727D01*
X17232917Y-11815298D01*
X17213869Y-11834346D01*
X17194821Y-11843870D01*
X17490060Y-11786727D02*
X17394821Y-11786727D01*
X17385298Y-11881965D01*
X17394821Y-11872441D01*
X17413869Y-11862917D01*
X17461488Y-11862917D01*
X17480536Y-11872441D01*
X17490060Y-11881965D01*
X17499583Y-11901012D01*
X17499583Y-11948631D01*
X17490060Y-11967679D01*
X17480536Y-11977203D01*
X17461488Y-11986727D01*
X17413869Y-11986727D01*
X17394821Y-11977203D01*
X17385298Y-11967679D01*
X17566250Y-11786727D02*
X17699583Y-11786727D01*
X17613869Y-11986727D01*
X17813869Y-11786727D02*
X17832917Y-11786727D01*
X17851964Y-11796251D01*
X17861488Y-11805774D01*
X17871012Y-11824822D01*
X17880536Y-11862917D01*
X17880536Y-11910536D01*
X17871012Y-11948631D01*
X17861488Y-11967679D01*
X17851964Y-11977203D01*
X17832917Y-11986727D01*
X17813869Y-11986727D01*
X17794821Y-11977203D01*
X17785298Y-11967679D01*
X17775774Y-11948631D01*
X17766250Y-11910536D01*
X17766250Y-11862917D01*
X17775774Y-11824822D01*
X17785298Y-11805774D01*
X17794821Y-11796251D01*
X17813869Y-11786727D01*
X17956726Y-11786727D02*
X17956726Y-11824822D01*
X18032917Y-11786727D02*
X18032917Y-11824822D01*
X18328155Y-12062917D02*
X18318631Y-12053393D01*
X18299583Y-12024822D01*
X18290060Y-12005774D01*
X18280536Y-11977203D01*
X18271012Y-11929584D01*
X18271012Y-11891489D01*
X18280536Y-11843870D01*
X18290060Y-11815298D01*
X18299583Y-11796251D01*
X18318631Y-11767679D01*
X18328155Y-11758155D01*
X18413869Y-11986727D02*
X18451964Y-11986727D01*
X18471012Y-11977203D01*
X18480536Y-11967679D01*
X18499583Y-11939108D01*
X18509107Y-11901012D01*
X18509107Y-11824822D01*
X18499583Y-11805774D01*
X18490060Y-11796251D01*
X18471012Y-11786727D01*
X18432917Y-11786727D01*
X18413869Y-11796251D01*
X18404345Y-11805774D01*
X18394821Y-11824822D01*
X18394821Y-11872441D01*
X18404345Y-11891489D01*
X18413869Y-11901012D01*
X18432917Y-11910536D01*
X18471012Y-11910536D01*
X18490060Y-11901012D01*
X18499583Y-11891489D01*
X18509107Y-11872441D01*
X18747202Y-11986727D02*
X18747202Y-11786727D01*
X18832917Y-11986727D02*
X18832917Y-11881965D01*
X18823393Y-11862917D01*
X18804345Y-11853393D01*
X18775774Y-11853393D01*
X18756726Y-11862917D01*
X18747202Y-11872441D01*
X18956726Y-11986727D02*
X18937679Y-11977203D01*
X18928155Y-11967679D01*
X18918631Y-11948631D01*
X18918631Y-11891489D01*
X18928155Y-11872441D01*
X18937679Y-11862917D01*
X18956726Y-11853393D01*
X18985298Y-11853393D01*
X19004345Y-11862917D01*
X19013869Y-11872441D01*
X19023393Y-11891489D01*
X19023393Y-11948631D01*
X19013869Y-11967679D01*
X19004345Y-11977203D01*
X18985298Y-11986727D01*
X18956726Y-11986727D01*
X19137679Y-11986727D02*
X19118631Y-11977203D01*
X19109107Y-11958155D01*
X19109107Y-11786727D01*
X19290060Y-11977203D02*
X19271012Y-11986727D01*
X19232917Y-11986727D01*
X19213869Y-11977203D01*
X19204345Y-11958155D01*
X19204345Y-11881965D01*
X19213869Y-11862917D01*
X19232917Y-11853393D01*
X19271012Y-11853393D01*
X19290060Y-11862917D01*
X19299583Y-11881965D01*
X19299583Y-11901012D01*
X19204345Y-11920060D01*
X19375774Y-11977203D02*
X19394821Y-11986727D01*
X19432917Y-11986727D01*
X19451964Y-11977203D01*
X19461488Y-11958155D01*
X19461488Y-11948631D01*
X19451964Y-11929584D01*
X19432917Y-11920060D01*
X19404345Y-11920060D01*
X19385298Y-11910536D01*
X19375774Y-11891489D01*
X19375774Y-11881965D01*
X19385298Y-11862917D01*
X19404345Y-11853393D01*
X19432917Y-11853393D01*
X19451964Y-11862917D01*
X19528155Y-12062917D02*
X19537679Y-12053393D01*
X19556726Y-12024822D01*
X19566250Y-12005774D01*
X19575774Y-11977203D01*
X19585298Y-11929584D01*
X19585298Y-11891489D01*
X19575774Y-11843870D01*
X19566250Y-11815298D01*
X19556726Y-11796251D01*
X19537679Y-11767679D01*
X19528155Y-11758155D01*
X19890060Y-12062917D02*
X19880536Y-12053393D01*
X19861488Y-12024822D01*
X19851964Y-12005774D01*
X19842440Y-11977203D01*
X19832917Y-11929584D01*
X19832917Y-11891489D01*
X19842440Y-11843870D01*
X19851964Y-11815298D01*
X19861488Y-11796251D01*
X19880536Y-11767679D01*
X19890060Y-11758155D01*
X19966250Y-11853393D02*
X19966250Y-11986727D01*
X19966250Y-11872441D02*
X19975774Y-11862917D01*
X19994821Y-11853393D01*
X20023393Y-11853393D01*
X20042440Y-11862917D01*
X20051964Y-11881965D01*
X20051964Y-11986727D01*
X20175774Y-11986727D02*
X20156726Y-11977203D01*
X20147202Y-11967679D01*
X20137679Y-11948631D01*
X20137679Y-11891489D01*
X20147202Y-11872441D01*
X20156726Y-11862917D01*
X20175774Y-11853393D01*
X20204345Y-11853393D01*
X20223393Y-11862917D01*
X20232917Y-11872441D01*
X20242440Y-11891489D01*
X20242440Y-11948631D01*
X20232917Y-11967679D01*
X20223393Y-11977203D01*
X20204345Y-11986727D01*
X20175774Y-11986727D01*
X20299583Y-11853393D02*
X20375774Y-11853393D01*
X20328155Y-11786727D02*
X20328155Y-11958155D01*
X20337679Y-11977203D01*
X20356726Y-11986727D01*
X20375774Y-11986727D01*
X20594821Y-11853393D02*
X20594821Y-12053393D01*
X20594821Y-11862917D02*
X20613869Y-11853393D01*
X20651964Y-11853393D01*
X20671012Y-11862917D01*
X20680536Y-11872441D01*
X20690060Y-11891489D01*
X20690060Y-11948631D01*
X20680536Y-11967679D01*
X20671012Y-11977203D01*
X20651964Y-11986727D01*
X20613869Y-11986727D01*
X20594821Y-11977203D01*
X20804345Y-11986727D02*
X20785298Y-11977203D01*
X20775774Y-11958155D01*
X20775774Y-11786727D01*
X20966250Y-11986727D02*
X20966250Y-11881965D01*
X20956726Y-11862917D01*
X20937679Y-11853393D01*
X20899583Y-11853393D01*
X20880536Y-11862917D01*
X20966250Y-11977203D02*
X20947202Y-11986727D01*
X20899583Y-11986727D01*
X20880536Y-11977203D01*
X20871012Y-11958155D01*
X20871012Y-11939108D01*
X20880536Y-11920060D01*
X20899583Y-11910536D01*
X20947202Y-11910536D01*
X20966250Y-11901012D01*
X21032917Y-11853393D02*
X21109107Y-11853393D01*
X21061488Y-11786727D02*
X21061488Y-11958155D01*
X21071012Y-11977203D01*
X21090060Y-11986727D01*
X21109107Y-11986727D01*
X21251964Y-11977203D02*
X21232917Y-11986727D01*
X21194821Y-11986727D01*
X21175774Y-11977203D01*
X21166250Y-11958155D01*
X21166250Y-11881965D01*
X21175774Y-11862917D01*
X21194821Y-11853393D01*
X21232917Y-11853393D01*
X21251964Y-11862917D01*
X21261488Y-11881965D01*
X21261488Y-11901012D01*
X21166250Y-11920060D01*
X21432917Y-11986727D02*
X21432917Y-11786727D01*
X21432917Y-11977203D02*
X21413869Y-11986727D01*
X21375774Y-11986727D01*
X21356726Y-11977203D01*
X21347202Y-11967679D01*
X21337679Y-11948631D01*
X21337679Y-11891489D01*
X21347202Y-11872441D01*
X21356726Y-11862917D01*
X21375774Y-11853393D01*
X21413869Y-11853393D01*
X21432917Y-11862917D01*
X21509107Y-12062917D02*
X21518631Y-12053393D01*
X21537679Y-12024822D01*
X21547202Y-12005774D01*
X21556726Y-11977203D01*
X21566250Y-11929584D01*
X21566250Y-11891489D01*
X21556726Y-11843870D01*
X21547202Y-11815298D01*
X21537679Y-11796251D01*
X21518631Y-11767679D01*
X21509107Y-11758155D01*
M02*
