%TF.GenerationSoftware,KiCad,Pcbnew,(6.0.9)*%
%TF.CreationDate,2023-03-10T16:46:27-06:00*%
%TF.ProjectId,Programmable Keys,50726f67-7261-46d6-9d61-626c65204b65,rev?*%
%TF.SameCoordinates,Original*%
%TF.FileFunction,Legend,Top*%
%TF.FilePolarity,Positive*%
%FSLAX46Y46*%
G04 Gerber Fmt 4.6, Leading zero omitted, Abs format (unit mm)*
G04 Created by KiCad (PCBNEW (6.0.9)) date 2023-03-10 16:46:27*
%MOMM*%
%LPD*%
G01*
G04 APERTURE LIST*
%ADD10C,0.150000*%
%ADD11C,0.120000*%
%ADD12C,1.750000*%
%ADD13C,3.987800*%
%ADD14R,1.200000X0.900000*%
%ADD15R,1.700000X1.700000*%
%ADD16O,1.700000X1.700000*%
G04 APERTURE END LIST*
D10*
%TO.C,D3*%
X173871130Y-100813095D02*
X172871130Y-100813095D01*
X172871130Y-100575000D01*
X172918750Y-100432142D01*
X173013988Y-100336904D01*
X173109226Y-100289285D01*
X173299702Y-100241666D01*
X173442559Y-100241666D01*
X173633035Y-100289285D01*
X173728273Y-100336904D01*
X173823511Y-100432142D01*
X173871130Y-100575000D01*
X173871130Y-100813095D01*
X172871130Y-99908333D02*
X172871130Y-99289285D01*
X173252083Y-99622619D01*
X173252083Y-99479761D01*
X173299702Y-99384523D01*
X173347321Y-99336904D01*
X173442559Y-99289285D01*
X173680654Y-99289285D01*
X173775892Y-99336904D01*
X173823511Y-99384523D01*
X173871130Y-99479761D01*
X173871130Y-99765476D01*
X173823511Y-99860714D01*
X173775892Y-99908333D01*
%TO.C,D9*%
X211971130Y-100813095D02*
X210971130Y-100813095D01*
X210971130Y-100575000D01*
X211018750Y-100432142D01*
X211113988Y-100336904D01*
X211209226Y-100289285D01*
X211399702Y-100241666D01*
X211542559Y-100241666D01*
X211733035Y-100289285D01*
X211828273Y-100336904D01*
X211923511Y-100432142D01*
X211971130Y-100575000D01*
X211971130Y-100813095D01*
X211971130Y-99765476D02*
X211971130Y-99575000D01*
X211923511Y-99479761D01*
X211875892Y-99432142D01*
X211733035Y-99336904D01*
X211542559Y-99289285D01*
X211161607Y-99289285D01*
X211066369Y-99336904D01*
X211018750Y-99384523D01*
X210971130Y-99479761D01*
X210971130Y-99670238D01*
X211018750Y-99765476D01*
X211066369Y-99813095D01*
X211161607Y-99860714D01*
X211399702Y-99860714D01*
X211494940Y-99813095D01*
X211542559Y-99765476D01*
X211590178Y-99670238D01*
X211590178Y-99479761D01*
X211542559Y-99384523D01*
X211494940Y-99336904D01*
X211399702Y-99289285D01*
%TO.C,D1*%
X173871130Y-62650595D02*
X172871130Y-62650595D01*
X172871130Y-62412500D01*
X172918750Y-62269642D01*
X173013988Y-62174404D01*
X173109226Y-62126785D01*
X173299702Y-62079166D01*
X173442559Y-62079166D01*
X173633035Y-62126785D01*
X173728273Y-62174404D01*
X173823511Y-62269642D01*
X173871130Y-62412500D01*
X173871130Y-62650595D01*
X173871130Y-61126785D02*
X173871130Y-61698214D01*
X173871130Y-61412500D02*
X172871130Y-61412500D01*
X173013988Y-61507738D01*
X173109226Y-61602976D01*
X173156845Y-61698214D01*
%TO.C,J2*%
X227477916Y-66719880D02*
X227477916Y-67434166D01*
X227430297Y-67577023D01*
X227335059Y-67672261D01*
X227192202Y-67719880D01*
X227096964Y-67719880D01*
X227906488Y-66815119D02*
X227954107Y-66767500D01*
X228049345Y-66719880D01*
X228287440Y-66719880D01*
X228382678Y-66767500D01*
X228430297Y-66815119D01*
X228477916Y-66910357D01*
X228477916Y-67005595D01*
X228430297Y-67148452D01*
X227858869Y-67719880D01*
X228477916Y-67719880D01*
%TO.C,D4*%
X192921130Y-62650595D02*
X191921130Y-62650595D01*
X191921130Y-62412500D01*
X191968750Y-62269642D01*
X192063988Y-62174404D01*
X192159226Y-62126785D01*
X192349702Y-62079166D01*
X192492559Y-62079166D01*
X192683035Y-62126785D01*
X192778273Y-62174404D01*
X192873511Y-62269642D01*
X192921130Y-62412500D01*
X192921130Y-62650595D01*
X192254464Y-61222023D02*
X192921130Y-61222023D01*
X191873511Y-61460119D02*
X192587797Y-61698214D01*
X192587797Y-61079166D01*
%TO.C,D5*%
X192921130Y-81700595D02*
X191921130Y-81700595D01*
X191921130Y-81462500D01*
X191968750Y-81319642D01*
X192063988Y-81224404D01*
X192159226Y-81176785D01*
X192349702Y-81129166D01*
X192492559Y-81129166D01*
X192683035Y-81176785D01*
X192778273Y-81224404D01*
X192873511Y-81319642D01*
X192921130Y-81462500D01*
X192921130Y-81700595D01*
X191921130Y-80224404D02*
X191921130Y-80700595D01*
X192397321Y-80748214D01*
X192349702Y-80700595D01*
X192302083Y-80605357D01*
X192302083Y-80367261D01*
X192349702Y-80272023D01*
X192397321Y-80224404D01*
X192492559Y-80176785D01*
X192730654Y-80176785D01*
X192825892Y-80224404D01*
X192873511Y-80272023D01*
X192921130Y-80367261D01*
X192921130Y-80605357D01*
X192873511Y-80700595D01*
X192825892Y-80748214D01*
%TO.C,D6*%
X192921130Y-100750595D02*
X191921130Y-100750595D01*
X191921130Y-100512500D01*
X191968750Y-100369642D01*
X192063988Y-100274404D01*
X192159226Y-100226785D01*
X192349702Y-100179166D01*
X192492559Y-100179166D01*
X192683035Y-100226785D01*
X192778273Y-100274404D01*
X192873511Y-100369642D01*
X192921130Y-100512500D01*
X192921130Y-100750595D01*
X191921130Y-99322023D02*
X191921130Y-99512500D01*
X191968750Y-99607738D01*
X192016369Y-99655357D01*
X192159226Y-99750595D01*
X192349702Y-99798214D01*
X192730654Y-99798214D01*
X192825892Y-99750595D01*
X192873511Y-99702976D01*
X192921130Y-99607738D01*
X192921130Y-99417261D01*
X192873511Y-99322023D01*
X192825892Y-99274404D01*
X192730654Y-99226785D01*
X192492559Y-99226785D01*
X192397321Y-99274404D01*
X192349702Y-99322023D01*
X192302083Y-99417261D01*
X192302083Y-99607738D01*
X192349702Y-99702976D01*
X192397321Y-99750595D01*
X192492559Y-99798214D01*
%TO.C,D8*%
X211971130Y-81700595D02*
X210971130Y-81700595D01*
X210971130Y-81462500D01*
X211018750Y-81319642D01*
X211113988Y-81224404D01*
X211209226Y-81176785D01*
X211399702Y-81129166D01*
X211542559Y-81129166D01*
X211733035Y-81176785D01*
X211828273Y-81224404D01*
X211923511Y-81319642D01*
X211971130Y-81462500D01*
X211971130Y-81700595D01*
X211399702Y-80557738D02*
X211352083Y-80652976D01*
X211304464Y-80700595D01*
X211209226Y-80748214D01*
X211161607Y-80748214D01*
X211066369Y-80700595D01*
X211018750Y-80652976D01*
X210971130Y-80557738D01*
X210971130Y-80367261D01*
X211018750Y-80272023D01*
X211066369Y-80224404D01*
X211161607Y-80176785D01*
X211209226Y-80176785D01*
X211304464Y-80224404D01*
X211352083Y-80272023D01*
X211399702Y-80367261D01*
X211399702Y-80557738D01*
X211447321Y-80652976D01*
X211494940Y-80700595D01*
X211590178Y-80748214D01*
X211780654Y-80748214D01*
X211875892Y-80700595D01*
X211923511Y-80652976D01*
X211971130Y-80557738D01*
X211971130Y-80367261D01*
X211923511Y-80272023D01*
X211875892Y-80224404D01*
X211780654Y-80176785D01*
X211590178Y-80176785D01*
X211494940Y-80224404D01*
X211447321Y-80272023D01*
X211399702Y-80367261D01*
%TO.C,J1*%
X145691666Y-66194880D02*
X145691666Y-66909166D01*
X145644047Y-67052023D01*
X145548809Y-67147261D01*
X145405952Y-67194880D01*
X145310714Y-67194880D01*
X146691666Y-67194880D02*
X146120238Y-67194880D01*
X146405952Y-67194880D02*
X146405952Y-66194880D01*
X146310714Y-66337738D01*
X146215476Y-66432976D01*
X146120238Y-66480595D01*
%TO.C,D7*%
X211971130Y-62650595D02*
X210971130Y-62650595D01*
X210971130Y-62412500D01*
X211018750Y-62269642D01*
X211113988Y-62174404D01*
X211209226Y-62126785D01*
X211399702Y-62079166D01*
X211542559Y-62079166D01*
X211733035Y-62126785D01*
X211828273Y-62174404D01*
X211923511Y-62269642D01*
X211971130Y-62412500D01*
X211971130Y-62650595D01*
X210971130Y-61745833D02*
X210971130Y-61079166D01*
X211971130Y-61507738D01*
%TO.C,D2*%
X173871130Y-81700595D02*
X172871130Y-81700595D01*
X172871130Y-81462500D01*
X172918750Y-81319642D01*
X173013988Y-81224404D01*
X173109226Y-81176785D01*
X173299702Y-81129166D01*
X173442559Y-81129166D01*
X173633035Y-81176785D01*
X173728273Y-81224404D01*
X173823511Y-81319642D01*
X173871130Y-81462500D01*
X173871130Y-81700595D01*
X172966369Y-80748214D02*
X172918750Y-80700595D01*
X172871130Y-80605357D01*
X172871130Y-80367261D01*
X172918750Y-80272023D01*
X172966369Y-80224404D01*
X173061607Y-80176785D01*
X173156845Y-80176785D01*
X173299702Y-80224404D01*
X173871130Y-80795833D01*
X173871130Y-80176785D01*
D11*
%TO.C,D3*%
X174418750Y-102325000D02*
X176418750Y-102325000D01*
X174418750Y-102325000D02*
X174418750Y-98425000D01*
X176418750Y-102325000D02*
X176418750Y-98425000D01*
%TO.C,D9*%
X212518750Y-102325000D02*
X212518750Y-98425000D01*
X214518750Y-102325000D02*
X214518750Y-98425000D01*
X212518750Y-102325000D02*
X214518750Y-102325000D01*
%TO.C,D1*%
X176418750Y-64162500D02*
X176418750Y-60262500D01*
X174418750Y-64162500D02*
X176418750Y-64162500D01*
X174418750Y-64162500D02*
X174418750Y-60262500D01*
%TO.C,J2*%
X223199179Y-72457500D02*
X223653321Y-72457500D01*
X234796250Y-79317500D02*
X234796250Y-80077500D01*
X225739179Y-90237500D02*
X226136250Y-90237500D01*
X223199179Y-90237500D02*
X223653321Y-90237500D01*
X223199179Y-79317500D02*
X223653321Y-79317500D01*
X234796250Y-87697500D02*
X228796250Y-87697500D01*
X225739179Y-84397500D02*
X226136250Y-84397500D01*
X225739179Y-74237500D02*
X226136250Y-74237500D01*
X226136250Y-70807500D02*
X228796250Y-70807500D01*
X223199179Y-92017500D02*
X223653321Y-92017500D01*
X234796250Y-92777500D02*
X228796250Y-92777500D01*
X228796250Y-81857500D02*
X234796250Y-81857500D01*
X226136250Y-88587500D02*
X228796250Y-88587500D01*
X228796250Y-68207500D02*
X226136250Y-68207500D01*
X223199179Y-71697500D02*
X223653321Y-71697500D01*
X225739179Y-86937500D02*
X226136250Y-86937500D01*
X226136250Y-68207500D02*
X226136250Y-93727500D01*
X226136250Y-78427500D02*
X228796250Y-78427500D01*
X223199179Y-92777500D02*
X223653321Y-92777500D01*
X225739179Y-85157500D02*
X226136250Y-85157500D01*
X223199179Y-86937500D02*
X223653321Y-86937500D01*
X225739179Y-79317500D02*
X226136250Y-79317500D01*
X225739179Y-80077500D02*
X226136250Y-80077500D01*
X234796250Y-71697500D02*
X234796250Y-72457500D01*
X234796250Y-90237500D02*
X228796250Y-90237500D01*
X220886250Y-68267500D02*
X222156250Y-68267500D01*
X226136250Y-86047500D02*
X228796250Y-86047500D01*
X234796250Y-72457500D02*
X228796250Y-72457500D01*
X234796250Y-74997500D02*
X228796250Y-74997500D01*
X226136250Y-73347500D02*
X228796250Y-73347500D01*
X223199179Y-74237500D02*
X223653321Y-74237500D01*
X225739179Y-77537500D02*
X226136250Y-77537500D01*
X220886250Y-69537500D02*
X220886250Y-68267500D01*
X223199179Y-84397500D02*
X223653321Y-84397500D01*
X228796250Y-76777500D02*
X234796250Y-76777500D01*
X228796250Y-69817500D02*
X234796250Y-69817500D01*
X223199179Y-80077500D02*
X223653321Y-80077500D01*
X226136250Y-75887500D02*
X228796250Y-75887500D01*
X223199179Y-77537500D02*
X223653321Y-77537500D01*
X225739179Y-74997500D02*
X226136250Y-74997500D01*
X225739179Y-89477500D02*
X226136250Y-89477500D01*
X225739179Y-69917500D02*
X226136250Y-69917500D01*
X228796250Y-86937500D02*
X234796250Y-86937500D01*
X234796250Y-80077500D02*
X228796250Y-80077500D01*
X225739179Y-82617500D02*
X226136250Y-82617500D01*
X228796250Y-84397500D02*
X234796250Y-84397500D01*
X234796250Y-69917500D02*
X228796250Y-69917500D01*
X234796250Y-74237500D02*
X234796250Y-74997500D01*
X234796250Y-84397500D02*
X234796250Y-85157500D01*
X228796250Y-69157500D02*
X234796250Y-69157500D01*
X223199179Y-82617500D02*
X223653321Y-82617500D01*
X225739179Y-69157500D02*
X226136250Y-69157500D01*
X225739179Y-71697500D02*
X226136250Y-71697500D01*
X234796250Y-77537500D02*
X228796250Y-77537500D01*
X225739179Y-76777500D02*
X226136250Y-76777500D01*
X228796250Y-71697500D02*
X234796250Y-71697500D01*
X234796250Y-89477500D02*
X234796250Y-90237500D01*
X226136250Y-80967500D02*
X228796250Y-80967500D01*
X234796250Y-82617500D02*
X228796250Y-82617500D01*
X226136250Y-91127500D02*
X228796250Y-91127500D01*
X234796250Y-85157500D02*
X228796250Y-85157500D01*
X223199179Y-89477500D02*
X223653321Y-89477500D01*
X225739179Y-92777500D02*
X226136250Y-92777500D01*
X228796250Y-69217500D02*
X234796250Y-69217500D01*
X228796250Y-74237500D02*
X234796250Y-74237500D01*
X228796250Y-69697500D02*
X234796250Y-69697500D01*
X223199179Y-81857500D02*
X223653321Y-81857500D01*
X234796250Y-76777500D02*
X234796250Y-77537500D01*
X223266250Y-69157500D02*
X223653321Y-69157500D01*
X225739179Y-72457500D02*
X226136250Y-72457500D01*
X225739179Y-81857500D02*
X226136250Y-81857500D01*
X225739179Y-92017500D02*
X226136250Y-92017500D01*
X223199179Y-76777500D02*
X223653321Y-76777500D01*
X223266250Y-69917500D02*
X223653321Y-69917500D01*
X226136250Y-93727500D02*
X228796250Y-93727500D01*
X228796250Y-89477500D02*
X234796250Y-89477500D01*
X225739179Y-87697500D02*
X226136250Y-87697500D01*
X223199179Y-74997500D02*
X223653321Y-74997500D01*
X228796250Y-93727500D02*
X228796250Y-68207500D01*
X234796250Y-92017500D02*
X234796250Y-92777500D01*
X234796250Y-86937500D02*
X234796250Y-87697500D01*
X228796250Y-69457500D02*
X234796250Y-69457500D01*
X234796250Y-69157500D02*
X234796250Y-69917500D01*
X228796250Y-69577500D02*
X234796250Y-69577500D01*
X223199179Y-87697500D02*
X223653321Y-87697500D01*
X223199179Y-85157500D02*
X223653321Y-85157500D01*
X228796250Y-79317500D02*
X234796250Y-79317500D01*
X234796250Y-81857500D02*
X234796250Y-82617500D01*
X226136250Y-83507500D02*
X228796250Y-83507500D01*
X228796250Y-92017500D02*
X234796250Y-92017500D01*
X228796250Y-69337500D02*
X234796250Y-69337500D01*
%TO.C,D4*%
X195468750Y-64162500D02*
X195468750Y-60262500D01*
X193468750Y-64162500D02*
X195468750Y-64162500D01*
X193468750Y-64162500D02*
X193468750Y-60262500D01*
%TO.C,D5*%
X193468750Y-83212500D02*
X195468750Y-83212500D01*
X195468750Y-83212500D02*
X195468750Y-79312500D01*
X193468750Y-83212500D02*
X193468750Y-79312500D01*
%TO.C,D6*%
X195468750Y-102262500D02*
X195468750Y-98362500D01*
X193468750Y-102262500D02*
X193468750Y-98362500D01*
X193468750Y-102262500D02*
X195468750Y-102262500D01*
%TO.C,D8*%
X212518750Y-83212500D02*
X214518750Y-83212500D01*
X214518750Y-83212500D02*
X214518750Y-79312500D01*
X212518750Y-83212500D02*
X212518750Y-79312500D01*
%TO.C,J1*%
X139045000Y-68182500D02*
X147675000Y-68182500D01*
X139045000Y-68538690D02*
X147675000Y-68538690D01*
X150185000Y-76772500D02*
X150625000Y-76772500D01*
X147675000Y-85112500D02*
X148085000Y-85112500D01*
X139045000Y-68182500D02*
X139045000Y-93702500D01*
X147675000Y-74232500D02*
X148085000Y-74232500D01*
X147675000Y-79312500D02*
X148085000Y-79312500D01*
X150185000Y-69872500D02*
X150565000Y-69872500D01*
X150185000Y-74952500D02*
X150625000Y-74952500D01*
X150185000Y-85112500D02*
X150625000Y-85112500D01*
X139045000Y-68656785D02*
X147675000Y-68656785D01*
X139045000Y-73322500D02*
X147675000Y-73322500D01*
X139045000Y-69483450D02*
X147675000Y-69483450D01*
X150185000Y-89472500D02*
X150625000Y-89472500D01*
X147675000Y-84392500D02*
X148085000Y-84392500D01*
X139045000Y-70310115D02*
X147675000Y-70310115D01*
X139045000Y-80942500D02*
X147675000Y-80942500D01*
X147675000Y-77492500D02*
X148085000Y-77492500D01*
X150185000Y-79312500D02*
X150625000Y-79312500D01*
X139045000Y-70428210D02*
X147675000Y-70428210D01*
X150185000Y-92012500D02*
X150625000Y-92012500D01*
X139045000Y-69601545D02*
X147675000Y-69601545D01*
X147675000Y-72412500D02*
X148085000Y-72412500D01*
X147675000Y-89472500D02*
X148085000Y-89472500D01*
X150185000Y-80032500D02*
X150625000Y-80032500D01*
X147675000Y-90192500D02*
X148085000Y-90192500D01*
X139045000Y-69129165D02*
X147675000Y-69129165D01*
X139045000Y-69011070D02*
X147675000Y-69011070D01*
X147675000Y-69152500D02*
X148085000Y-69152500D01*
X139045000Y-70782500D02*
X147675000Y-70782500D01*
X147675000Y-86932500D02*
X148085000Y-86932500D01*
X150185000Y-72412500D02*
X150625000Y-72412500D01*
X139045000Y-91102500D02*
X147675000Y-91102500D01*
X150185000Y-74232500D02*
X150625000Y-74232500D01*
X147675000Y-92012500D02*
X148085000Y-92012500D01*
X147675000Y-68182500D02*
X147675000Y-93702500D01*
X139045000Y-69365355D02*
X147675000Y-69365355D01*
X150185000Y-90192500D02*
X150625000Y-90192500D01*
X139045000Y-68302500D02*
X147675000Y-68302500D01*
X147675000Y-82572500D02*
X148085000Y-82572500D01*
X139045000Y-69837735D02*
X147675000Y-69837735D01*
X150185000Y-71692500D02*
X150625000Y-71692500D01*
X139045000Y-93702500D02*
X147675000Y-93702500D01*
X139045000Y-70073925D02*
X147675000Y-70073925D01*
X139045000Y-78402500D02*
X147675000Y-78402500D01*
X139045000Y-69719640D02*
X147675000Y-69719640D01*
X139045000Y-68420595D02*
X147675000Y-68420595D01*
X151675000Y-68182500D02*
X152785000Y-68182500D01*
X152785000Y-68182500D02*
X152785000Y-69512500D01*
X139045000Y-86022500D02*
X147675000Y-86022500D01*
X139045000Y-68892975D02*
X147675000Y-68892975D01*
X150185000Y-84392500D02*
X150625000Y-84392500D01*
X150185000Y-82572500D02*
X150625000Y-82572500D01*
X150185000Y-92732500D02*
X150625000Y-92732500D01*
X150185000Y-87652500D02*
X150625000Y-87652500D01*
X139045000Y-70664400D02*
X147675000Y-70664400D01*
X139045000Y-75862500D02*
X147675000Y-75862500D01*
X139045000Y-70192020D02*
X147675000Y-70192020D01*
X147675000Y-69872500D02*
X148085000Y-69872500D01*
X150185000Y-81852500D02*
X150625000Y-81852500D01*
X139045000Y-83482500D02*
X147675000Y-83482500D01*
X139045000Y-88562500D02*
X147675000Y-88562500D01*
X139045000Y-69955830D02*
X147675000Y-69955830D01*
X147675000Y-81852500D02*
X148085000Y-81852500D01*
X147675000Y-76772500D02*
X148085000Y-76772500D01*
X150185000Y-77492500D02*
X150625000Y-77492500D01*
X139045000Y-69247260D02*
X147675000Y-69247260D01*
X147675000Y-74952500D02*
X148085000Y-74952500D01*
X150185000Y-86932500D02*
X150625000Y-86932500D01*
X147675000Y-92732500D02*
X148085000Y-92732500D01*
X147675000Y-71692500D02*
X148085000Y-71692500D01*
X147675000Y-80032500D02*
X148085000Y-80032500D01*
X139045000Y-70546305D02*
X147675000Y-70546305D01*
X147675000Y-87652500D02*
X148085000Y-87652500D01*
X139045000Y-68774880D02*
X147675000Y-68774880D01*
X150185000Y-69152500D02*
X150565000Y-69152500D01*
%TO.C,D7*%
X212518750Y-64162500D02*
X214518750Y-64162500D01*
X212518750Y-64162500D02*
X212518750Y-60262500D01*
X214518750Y-64162500D02*
X214518750Y-60262500D01*
%TO.C,D2*%
X176418750Y-83212500D02*
X176418750Y-79312500D01*
X174418750Y-83212500D02*
X174418750Y-79312500D01*
X174418750Y-83212500D02*
X176418750Y-83212500D01*
%TD*%
%LPC*%
D12*
%TO.C,MX8*%
X181451250Y-100012500D03*
D13*
X186531250Y-100012500D03*
D12*
X191611250Y-100012500D03*
%TD*%
D14*
%TO.C,D3*%
X175418750Y-101725000D03*
X175418750Y-98425000D03*
%TD*%
%TO.C,D9*%
X213518750Y-101725000D03*
X213518750Y-98425000D03*
%TD*%
%TO.C,D1*%
X175418750Y-63562500D03*
X175418750Y-60262500D03*
%TD*%
D15*
%TO.C,J2*%
X222156250Y-69537500D03*
D16*
X224696250Y-69537500D03*
X222156250Y-72077500D03*
X224696250Y-72077500D03*
X222156250Y-74617500D03*
X224696250Y-74617500D03*
X222156250Y-77157500D03*
X224696250Y-77157500D03*
X222156250Y-79697500D03*
X224696250Y-79697500D03*
X222156250Y-82237500D03*
X224696250Y-82237500D03*
X222156250Y-84777500D03*
X224696250Y-84777500D03*
X222156250Y-87317500D03*
X224696250Y-87317500D03*
X222156250Y-89857500D03*
X224696250Y-89857500D03*
X222156250Y-92397500D03*
X224696250Y-92397500D03*
%TD*%
D13*
%TO.C,MX1*%
X167481250Y-61912500D03*
D12*
X162401250Y-61912500D03*
X172561250Y-61912500D03*
%TD*%
D14*
%TO.C,D4*%
X194468750Y-63562500D03*
X194468750Y-60262500D03*
%TD*%
%TO.C,D5*%
X194468750Y-82612500D03*
X194468750Y-79312500D03*
%TD*%
%TO.C,D6*%
X194468750Y-101662500D03*
X194468750Y-98362500D03*
%TD*%
D13*
%TO.C,MX9*%
X205581250Y-100012500D03*
D12*
X200501250Y-100012500D03*
X210661250Y-100012500D03*
%TD*%
D13*
%TO.C,MX4*%
X167481250Y-80962500D03*
D12*
X162401250Y-80962500D03*
X172561250Y-80962500D03*
%TD*%
D13*
%TO.C,MX3*%
X205581250Y-61912500D03*
D12*
X210661250Y-61912500D03*
X200501250Y-61912500D03*
%TD*%
D14*
%TO.C,D8*%
X213518750Y-82612500D03*
X213518750Y-79312500D03*
%TD*%
D15*
%TO.C,J1*%
X151675000Y-69512500D03*
D16*
X149135000Y-69512500D03*
X151675000Y-72052500D03*
X149135000Y-72052500D03*
X151675000Y-74592500D03*
X149135000Y-74592500D03*
X151675000Y-77132500D03*
X149135000Y-77132500D03*
X151675000Y-79672500D03*
X149135000Y-79672500D03*
X151675000Y-82212500D03*
X149135000Y-82212500D03*
X151675000Y-84752500D03*
X149135000Y-84752500D03*
X151675000Y-87292500D03*
X149135000Y-87292500D03*
X151675000Y-89832500D03*
X149135000Y-89832500D03*
X151675000Y-92372500D03*
X149135000Y-92372500D03*
%TD*%
D14*
%TO.C,D7*%
X213518750Y-63562500D03*
X213518750Y-60262500D03*
%TD*%
D12*
%TO.C,MX7*%
X172561250Y-100012500D03*
D13*
X167481250Y-100012500D03*
D12*
X162401250Y-100012500D03*
%TD*%
%TO.C,MX2*%
X191611250Y-61912500D03*
D13*
X186531250Y-61912500D03*
D12*
X181451250Y-61912500D03*
%TD*%
D13*
%TO.C,MX6*%
X205581250Y-80962500D03*
D12*
X200501250Y-80962500D03*
X210661250Y-80962500D03*
%TD*%
%TO.C,MX5*%
X191611250Y-80962500D03*
X181451250Y-80962500D03*
D13*
X186531250Y-80962500D03*
%TD*%
D14*
%TO.C,D2*%
X175418750Y-82612500D03*
X175418750Y-79312500D03*
%TD*%
M02*
