M48
; DRILL file {KiCad (6.0.9)} date Fri Jan 13 15:25:51 2023
; FORMAT={-:-/ absolute / metric / decimal}
; #@! TF.CreationDate,2023-01-13T15:25:51-06:00
; #@! TF.GenerationSoftware,Kicad,Pcbnew,(6.0.9)
; #@! TF.FileFunction,Plated,1,2,PTH
FMAT,2
METRIC
; #@! TA.AperFunction,Plated,PTH,ViaDrill
T1C0.400
; #@! TA.AperFunction,Plated,PTH,ComponentDrill
T2C1.470
%
G90
G05
T1
X158.623Y-79.187
X159.721Y-78.187
X159.893Y-80.645
X160.528Y-77.187
X161.544Y-74.187
X161.671Y-87.974
X161.76Y-83.82
X161.925Y-86.36
X161.925Y-91.186
X162.052Y-89.498
X162.433Y-93.472
X162.687Y-87.249
X162.814Y-72.136
X162.814Y-73.533
X162.814Y-85.598
X162.814Y-90.424
X162.941Y-88.773
X162.941Y-92.202
X162.947Y-76.327
X164.396Y-88.773
X164.396Y-92.202
X164.465Y-87.249
X164.465Y-90.424
X164.592Y-85.598
X164.592Y-93.472
X164.719Y-72.136
X164.973Y-68.834
X164.973Y-70.358
X165.189Y-87.974
X165.354Y-89.498
X165.354Y-91.186
X165.481Y-71.374
X165.481Y-86.45
X165.862Y-69.596
X166.751Y-76.2
X167.073Y-73.465
X173.101Y-69.596
X173.99Y-68.871
X175.124Y-67.945
X175.518Y-69.6
X176.53Y-68.834
X177.292Y-67.945
X180.721Y-73.533
X180.848Y-91.148
X180.975Y-84.931
X180.975Y-89.535
X181.096Y-87.974
X181.102Y-86.45
X181.769Y-65.881
X181.864Y-74.295
X181.864Y-85.725
X181.864Y-87.249
X181.864Y-92.202
X181.864Y-93.472
X181.991Y-67.945
X181.991Y-72.808
X181.991Y-88.773
X181.997Y-69.596
X181.997Y-90.424
X183.446Y-69.596
X183.446Y-72.808
X183.446Y-87.249
X183.446Y-88.773
X183.446Y-90.424
X183.515Y-85.725
X183.642Y-74.295
X183.642Y-93.472
X183.769Y-67.945
X183.769Y-92.202
X184.15Y-65.881
X184.15Y-84.931
X184.277Y-87.974
X184.277Y-89.535
X184.404Y-91.186
X184.531Y-73.57
X184.531Y-86.487
X196.088Y-83.947
X197.358Y-83.185
X197.866Y-91.148
X199.879Y-82.46
X199.898Y-86.45
X199.898Y-89.535
X200.025Y-84.931
X200.025Y-87.974
X200.784Y-66.88
X200.819Y-65.881
X200.914Y-67.945
X200.914Y-85.725
X200.914Y-93.472
X201.041Y-87.249
X201.041Y-90.424
X201.047Y-88.773
X201.047Y-92.202
X202.496Y-85.725
X202.496Y-88.773
X202.565Y-66.802
X202.565Y-92.202
X202.692Y-67.945
X202.692Y-87.249
X202.692Y-93.472
X202.819Y-90.424
X203.2Y-65.881
X203.2Y-83.932
X203.2Y-84.931
X203.213Y-91.343
X203.454Y-86.487
X203.581Y-88.011
X203.581Y-89.535
X211.324Y-83.222
X212.09Y-77.724
X212.217Y-75.311
X213.419Y-73.084
X213.464Y-84.723
X214.376Y-72.738
X215.392Y-66.421
X215.9Y-81.407
X215.921Y-79.738
X216.404Y-90.42
X216.662Y-92.202
X216.668Y-82.047
X216.789Y-78.613
X217.551Y-81.28
X217.805Y-77.597
X217.805Y-88.646
X218.319Y-81.92
X218.694Y-76.581
X218.694Y-89.662
X219.329Y-81.187
X219.329Y-93.472
X219.583Y-75.738
X220.053Y-83.312
X220.099Y-85.462
X220.347Y-81.187
X220.853Y-84.455
X221.234Y-82.187
X221.299Y-90.187
X221.361Y-72.738
X221.361Y-86.614
X221.511Y-74.187
X222.377Y-93.472
T2
X163.671Y-59.372
X163.671Y-78.422
X163.671Y-97.472
X164.981Y-57.912
X164.981Y-76.962
X164.981Y-96.012
X169.981Y-57.412
X169.981Y-76.462
X169.981Y-95.512
X170.021Y-56.832
X170.021Y-75.882
X170.021Y-94.932
X182.721Y-59.372
X182.721Y-78.422
X182.721Y-97.472
X184.031Y-57.912
X184.031Y-76.962
X184.031Y-96.012
X189.031Y-57.412
X189.031Y-76.462
X189.031Y-95.512
X189.071Y-56.832
X189.071Y-75.882
X189.071Y-94.932
X201.771Y-59.372
X201.771Y-78.422
X201.771Y-97.472
X203.081Y-57.912
X203.081Y-76.962
X203.081Y-96.012
X208.081Y-57.412
X208.081Y-76.462
X208.081Y-95.512
X208.121Y-56.832
X208.121Y-75.882
X208.121Y-94.932
T0
M30
