G04 #@! TF.GenerationSoftware,KiCad,Pcbnew,(6.0.9)*
G04 #@! TF.CreationDate,2023-03-10T16:35:17-06:00*
G04 #@! TF.ProjectId,BasePCB,42617365-5043-4422-9e6b-696361645f70,rev?*
G04 #@! TF.SameCoordinates,Original*
G04 #@! TF.FileFunction,Paste,Top*
G04 #@! TF.FilePolarity,Positive*
%FSLAX46Y46*%
G04 Gerber Fmt 4.6, Leading zero omitted, Abs format (unit mm)*
G04 Created by KiCad (PCBNEW (6.0.9)) date 2023-03-10 16:35:17*
%MOMM*%
%LPD*%
G01*
G04 APERTURE LIST*
G04 Aperture macros list*
%AMRoundRect*
0 Rectangle with rounded corners*
0 $1 Rounding radius*
0 $2 $3 $4 $5 $6 $7 $8 $9 X,Y pos of 4 corners*
0 Add a 4 corners polygon primitive as box body*
4,1,4,$2,$3,$4,$5,$6,$7,$8,$9,$2,$3,0*
0 Add four circle primitives for the rounded corners*
1,1,$1+$1,$2,$3*
1,1,$1+$1,$4,$5*
1,1,$1+$1,$6,$7*
1,1,$1+$1,$8,$9*
0 Add four rect primitives between the rounded corners*
20,1,$1+$1,$2,$3,$4,$5,0*
20,1,$1+$1,$4,$5,$6,$7,0*
20,1,$1+$1,$6,$7,$8,$9,0*
20,1,$1+$1,$8,$9,$2,$3,0*%
G04 Aperture macros list end*
%ADD10RoundRect,0.250000X-0.450000X0.262500X-0.450000X-0.262500X0.450000X-0.262500X0.450000X0.262500X0*%
%ADD11RoundRect,0.250000X0.250000X0.475000X-0.250000X0.475000X-0.250000X-0.475000X0.250000X-0.475000X0*%
%ADD12R,1.200000X0.900000*%
%ADD13RoundRect,0.250000X0.450000X-0.262500X0.450000X0.262500X-0.450000X0.262500X-0.450000X-0.262500X0*%
%ADD14R,1.800000X1.100000*%
%ADD15R,1.500000X0.550000*%
%ADD16R,0.550000X1.500000*%
%ADD17RoundRect,0.250000X0.475000X-0.250000X0.475000X0.250000X-0.475000X0.250000X-0.475000X-0.250000X0*%
%ADD18R,1.400000X1.200000*%
%ADD19RoundRect,0.250000X0.625000X-0.375000X0.625000X0.375000X-0.625000X0.375000X-0.625000X-0.375000X0*%
%ADD20RoundRect,0.250000X-0.250000X-0.475000X0.250000X-0.475000X0.250000X0.475000X-0.250000X0.475000X0*%
%ADD21RoundRect,0.250000X-0.475000X0.250000X-0.475000X-0.250000X0.475000X-0.250000X0.475000X0.250000X0*%
G04 APERTURE END LIST*
D10*
X-128524000Y120546500D03*
X-128524000Y118721500D03*
D11*
X-114143750Y111125000D03*
X-116043750Y111125000D03*
D12*
X-19050000Y88837500D03*
X-19050000Y92137500D03*
D13*
X-107156250Y105450000D03*
X-107156250Y107275000D03*
D12*
X128587500Y107887500D03*
X128587500Y111187500D03*
X-52387500Y126937500D03*
X-52387500Y130237500D03*
D14*
X-110819000Y66412500D03*
X-117019000Y70112500D03*
X-110819000Y70112500D03*
X-117019000Y66412500D03*
D12*
X0Y88837500D03*
X0Y92137500D03*
X-90487500Y127000000D03*
X-90487500Y130300000D03*
D15*
X-124762500Y104806250D03*
X-124762500Y104006250D03*
X-124762500Y103206250D03*
X-124762500Y102406250D03*
X-124762500Y101606250D03*
X-124762500Y100806250D03*
X-124762500Y100006250D03*
X-124762500Y99206250D03*
X-124762500Y98406250D03*
X-124762500Y97606250D03*
X-124762500Y96806250D03*
D16*
X-123062500Y95106250D03*
X-122262500Y95106250D03*
X-121462500Y95106250D03*
X-120662500Y95106250D03*
X-119862500Y95106250D03*
X-119062500Y95106250D03*
X-118262500Y95106250D03*
X-117462500Y95106250D03*
X-116662500Y95106250D03*
X-115862500Y95106250D03*
X-115062500Y95106250D03*
D15*
X-113362500Y96806250D03*
X-113362500Y97606250D03*
X-113362500Y98406250D03*
X-113362500Y99206250D03*
X-113362500Y100006250D03*
X-113362500Y100806250D03*
X-113362500Y101606250D03*
X-113362500Y102406250D03*
X-113362500Y103206250D03*
X-113362500Y104006250D03*
X-113362500Y104806250D03*
D16*
X-115062500Y106506250D03*
X-115862500Y106506250D03*
X-116662500Y106506250D03*
X-117462500Y106506250D03*
X-118262500Y106506250D03*
X-119062500Y106506250D03*
X-119862500Y106506250D03*
X-120662500Y106506250D03*
X-121462500Y106506250D03*
X-122262500Y106506250D03*
X-123062500Y106506250D03*
D12*
X-78581250Y69787500D03*
X-78581250Y73087500D03*
X38100000Y88837500D03*
X38100000Y92137500D03*
X47625000Y69787500D03*
X47625000Y73087500D03*
X114300000Y88837500D03*
X114300000Y92137500D03*
X173831250Y50737500D03*
X173831250Y54037500D03*
D17*
X-110744000Y77216000D03*
X-110744000Y79116000D03*
D12*
X-61912500Y107887500D03*
X-61912500Y111187500D03*
X4762500Y126937500D03*
X4762500Y130237500D03*
X30956250Y50737500D03*
X30956250Y54037500D03*
X-9525000Y69787500D03*
X-9525000Y73087500D03*
D17*
X-124618750Y88743750D03*
X-124618750Y90643750D03*
D12*
X100012500Y126937500D03*
X100012500Y130237500D03*
X-33337500Y126937500D03*
X-33337500Y130237500D03*
X-64452500Y50737500D03*
X-64452500Y54037500D03*
X-23812500Y107887500D03*
X-23812500Y111187500D03*
X127000000Y50737500D03*
X127000000Y54037500D03*
X23812500Y126937500D03*
X23812500Y130237500D03*
D18*
X-116567500Y77297500D03*
X-114367500Y77297500D03*
X-114367500Y78997500D03*
X-116567500Y78997500D03*
D12*
X80962500Y126937500D03*
X80962500Y130237500D03*
X138112500Y126937500D03*
X138112500Y130237500D03*
X-71437500Y126937500D03*
X-71437500Y130237500D03*
X-38100000Y88837500D03*
X-38100000Y92137500D03*
X14287500Y107887500D03*
X14287500Y111187500D03*
X102393750Y50737500D03*
X102393750Y54037500D03*
X-14287500Y126937500D03*
X-14287500Y130237500D03*
X66675000Y69787500D03*
X66675000Y73087500D03*
X90487500Y107887500D03*
X90487500Y111187500D03*
X42862500Y126937500D03*
X42862500Y130237500D03*
X164306250Y88837500D03*
X164306250Y92137500D03*
D17*
X-121443750Y77631250D03*
X-121443750Y79531250D03*
D12*
X71437500Y107887500D03*
X71437500Y111187500D03*
X150018750Y50737500D03*
X150018750Y54037500D03*
X159543750Y69787500D03*
X159543750Y73087500D03*
X52387500Y107887500D03*
X52387500Y111187500D03*
D19*
X-138112500Y110331250D03*
X-138112500Y113131250D03*
D12*
X76200000Y88837500D03*
X76200000Y92137500D03*
X-88106250Y50737500D03*
X-88106250Y54037500D03*
X-47625000Y69787500D03*
X-47625000Y73087500D03*
X28575000Y69787500D03*
X28575000Y73087500D03*
X61912500Y126937500D03*
X61912500Y130237500D03*
X57150000Y88837500D03*
X57150000Y92137500D03*
X109537500Y107887500D03*
X109537500Y111187500D03*
X-85725000Y107887500D03*
X-85725000Y111187500D03*
D20*
X-123187500Y111125000D03*
X-121287500Y111125000D03*
D12*
X-40481250Y50737500D03*
X-40481250Y54037500D03*
X85725000Y69787500D03*
X85725000Y73087500D03*
X147637500Y107887500D03*
X147637500Y111187500D03*
X-83343750Y88837500D03*
X-83343750Y92137500D03*
X166687500Y126937500D03*
X166687500Y130237500D03*
X9525000Y69787500D03*
X9525000Y73087500D03*
X-57150000Y88837500D03*
X-57150000Y92137500D03*
D17*
X-130975000Y100825000D03*
X-130975000Y102725000D03*
D12*
X33337500Y107887500D03*
X33337500Y111187500D03*
X119062500Y126937500D03*
X119062500Y130237500D03*
X104775000Y69787500D03*
X104775000Y73087500D03*
X-42862500Y107887500D03*
X-42862500Y111187500D03*
X171450000Y107887500D03*
X171450000Y111187500D03*
D13*
X-128587500Y88781250D03*
X-128587500Y90606250D03*
D10*
X-126746000Y120546500D03*
X-126746000Y118721500D03*
D12*
X133350000Y88837500D03*
X133350000Y92137500D03*
X-28575000Y69787500D03*
X-28575000Y73087500D03*
D21*
X-106362500Y97787500D03*
X-106362500Y95887500D03*
D12*
X19050000Y88837500D03*
X19050000Y92137500D03*
X123825000Y69787500D03*
X123825000Y73087500D03*
X-4762500Y107950000D03*
X-4762500Y111250000D03*
X95250000Y88837500D03*
X95250000Y92137500D03*
M02*
