G04 #@! TF.GenerationSoftware,KiCad,Pcbnew,(6.0.9)*
G04 #@! TF.CreationDate,2023-03-10T16:35:17-06:00*
G04 #@! TF.ProjectId,BasePCB,42617365-5043-4422-9e6b-696361645f70,rev?*
G04 #@! TF.SameCoordinates,Original*
G04 #@! TF.FileFunction,Profile,NP*
%FSLAX46Y46*%
G04 Gerber Fmt 4.6, Leading zero omitted, Abs format (unit mm)*
G04 Created by KiCad (PCBNEW (6.0.9)) date 2023-03-10 16:35:17*
%MOMM*%
%LPD*%
G01*
G04 APERTURE LIST*
G04 #@! TA.AperFunction,Profile*
%ADD10C,0.150000*%
G04 #@! TD*
G04 #@! TA.AperFunction,Profile*
%ADD11C,0.100000*%
G04 #@! TD*
G04 APERTURE END LIST*
D10*
X-153987500Y45243750D02*
X-153987500Y145256250D01*
D11*
X-29368750Y53975000D02*
G75*
G03*
X-29368750Y53975000I-793750J0D01*
G01*
D10*
X183356250Y42862500D02*
G75*
G03*
X185737500Y45243750I-50J2381300D01*
G01*
X185737500Y145256250D02*
G75*
G03*
X183356250Y147637500I-2381300J-50D01*
G01*
D11*
X-148431250Y143668750D02*
G75*
G03*
X-148431250Y143668750I-793750J0D01*
G01*
D10*
X183356250Y42862500D02*
X-151606250Y42862500D01*
X-153987500Y45243750D02*
G75*
G03*
X-151606250Y42862500I2381250J0D01*
G01*
X183356250Y147637500D02*
X-151606250Y147637500D01*
D11*
X53975000Y53975000D02*
G75*
G03*
X53975000Y53975000I-793750J0D01*
G01*
X-40481250Y143668750D02*
G75*
G03*
X-40481250Y143668750I-793750J0D01*
G01*
X182562500Y46831250D02*
G75*
G03*
X182562500Y46831250I-793750J0D01*
G01*
X181768751Y46831250D02*
G75*
G03*
X181768751Y46831250I-1J0D01*
G01*
X-97631250Y143668750D02*
G75*
G03*
X-97631250Y143668750I-793750J0D01*
G01*
X145256250Y90487500D02*
G75*
G03*
X145256250Y90487500I-793750J0D01*
G01*
D10*
X-151606250Y147637500D02*
G75*
G03*
X-153987500Y145256250I0J-2381250D01*
G01*
X185737500Y45243750D02*
X185737500Y145256250D01*
D11*
X-2381250Y143668750D02*
G75*
G03*
X-2381250Y143668750I-793750J0D01*
G01*
X146050000Y128587500D02*
G75*
G03*
X146050000Y128587500I-793750J0D01*
G01*
X-148896218Y46831250D02*
G75*
G03*
X-148896218Y46831250I-1122532J0D01*
G01*
X182562500Y143668750D02*
G75*
G03*
X182562500Y143668750I-793750J0D01*
G01*
X-76993750Y90487500D02*
G75*
G03*
X-76993750Y90487500I-793750J0D01*
G01*
M02*
