%TF.GenerationSoftware,KiCad,Pcbnew,(6.0.9)*%
%TF.CreationDate,2023-03-10T16:35:44-06:00*%
%TF.ProjectId,BasePCB,42617365-5043-4422-9e6b-696361645f70,rev?*%
%TF.SameCoordinates,Original*%
%TF.FileFunction,Drillmap*%
%TF.FilePolarity,Positive*%
%FSLAX45Y45*%
G04 Gerber Fmt 4.5, Leading zero omitted, Abs format (unit mm)*
G04 Created by KiCad (PCBNEW (6.0.9)) date 2023-03-10 16:35:44*
%MOMM*%
%LPD*%
G01*
G04 APERTURE LIST*
%ADD10C,0.150000*%
%ADD11C,0.100000*%
%ADD12C,0.200000*%
%ADD13C,0.175000*%
%ADD14C,0.398780*%
G04 APERTURE END LIST*
D10*
X-15398750Y4524375D02*
X-15398750Y14525625D01*
D11*
X-2936875Y5397500D02*
G75*
G03*
X-2936875Y5397500I-79375J0D01*
G01*
D10*
X18335625Y4286250D02*
G75*
G03*
X18573750Y4524375I-5J238130D01*
G01*
X18573750Y14525625D02*
G75*
G03*
X18335625Y14763750I-238130J-5D01*
G01*
D11*
X-14843125Y14366875D02*
G75*
G03*
X-14843125Y14366875I-79375J0D01*
G01*
D10*
X18335625Y4286250D02*
X-15160625Y4286250D01*
X-15398750Y4524375D02*
G75*
G03*
X-15160625Y4286250I238125J0D01*
G01*
X18335625Y14763750D02*
X-15160625Y14763750D01*
D11*
X5397500Y5397500D02*
G75*
G03*
X5397500Y5397500I-79375J0D01*
G01*
X-4048125Y14366875D02*
G75*
G03*
X-4048125Y14366875I-79375J0D01*
G01*
X18256250Y4683125D02*
G75*
G03*
X18256250Y4683125I-79375J0D01*
G01*
X18176875Y4683125D02*
G75*
G03*
X18176875Y4683125I0J0D01*
G01*
X-9763125Y14366875D02*
G75*
G03*
X-9763125Y14366875I-79375J0D01*
G01*
X14525625Y9048750D02*
G75*
G03*
X14525625Y9048750I-79375J0D01*
G01*
D10*
X-15160625Y14763750D02*
G75*
G03*
X-15398750Y14525625I0J-238125D01*
G01*
X18573750Y4524375D02*
X18573750Y14525625D01*
D11*
X-238125Y14366875D02*
G75*
G03*
X-238125Y14366875I-79375J0D01*
G01*
X14605000Y12858750D02*
G75*
G03*
X14605000Y12858750I-79375J0D01*
G01*
X-14889622Y4683125D02*
G75*
G03*
X-14889622Y4683125I-112253J0D01*
G01*
X18256250Y14366875D02*
G75*
G03*
X18256250Y14366875I-79375J0D01*
G01*
X-7699375Y9048750D02*
G75*
G03*
X-7699375Y9048750I-79375J0D01*
G01*
D12*
D13*
X-10438000Y12946250D02*
X-10263000Y12771250D01*
X-10263000Y12946250D02*
X-10438000Y12771250D01*
X-10199875Y5326250D02*
X-10024875Y5151250D01*
X-10024875Y5326250D02*
X-10199875Y5151250D01*
X-9961750Y11041250D02*
X-9786750Y10866250D01*
X-9786750Y11041250D02*
X-9961750Y10866250D01*
X-9723625Y9136250D02*
X-9548625Y8961250D01*
X-9548625Y9136250D02*
X-9723625Y8961250D01*
X-9422000Y12946250D02*
X-9247000Y12771250D01*
X-9247000Y12946250D02*
X-9422000Y12771250D01*
X-9247375Y7231250D02*
X-9072375Y7056250D01*
X-9072375Y7231250D02*
X-9247375Y7056250D01*
X-9183875Y5326250D02*
X-9008875Y5151250D01*
X-9008875Y5326250D02*
X-9183875Y5151250D01*
X-8945750Y11041250D02*
X-8770750Y10866250D01*
X-8770750Y11041250D02*
X-8945750Y10866250D01*
X-8707625Y9136250D02*
X-8532625Y8961250D01*
X-8532625Y9136250D02*
X-8707625Y8961250D01*
X-8533000Y12946250D02*
X-8358000Y12771250D01*
X-8358000Y12946250D02*
X-8533000Y12771250D01*
X-8231375Y7231250D02*
X-8056375Y7056250D01*
X-8056375Y7231250D02*
X-8231375Y7056250D01*
X-7834500Y5326250D02*
X-7659500Y5151250D01*
X-7659500Y5326250D02*
X-7834500Y5151250D01*
X-7580500Y11041250D02*
X-7405500Y10866250D01*
X-7405500Y11041250D02*
X-7580500Y10866250D01*
X-7517000Y12946250D02*
X-7342000Y12771250D01*
X-7342000Y12946250D02*
X-7517000Y12771250D01*
X-7104250Y9136250D02*
X-6929250Y8961250D01*
X-6929250Y9136250D02*
X-7104250Y8961250D01*
X-6818500Y5326250D02*
X-6643500Y5151250D01*
X-6643500Y5326250D02*
X-6818500Y5151250D01*
X-6628000Y12946250D02*
X-6453000Y12771250D01*
X-6453000Y12946250D02*
X-6628000Y12771250D01*
X-6564500Y11041250D02*
X-6389500Y10866250D01*
X-6389500Y11041250D02*
X-6564500Y10866250D01*
X-6151750Y7231250D02*
X-5976750Y7056250D01*
X-5976750Y7231250D02*
X-6151750Y7056250D01*
X-6088250Y9136250D02*
X-5913250Y8961250D01*
X-5913250Y9136250D02*
X-6088250Y8961250D01*
X-5675500Y11041250D02*
X-5500500Y10866250D01*
X-5500500Y11041250D02*
X-5675500Y10866250D01*
X-5612000Y12946250D02*
X-5437000Y12771250D01*
X-5437000Y12946250D02*
X-5612000Y12771250D01*
X-5437375Y5326250D02*
X-5262375Y5151250D01*
X-5262375Y5326250D02*
X-5437375Y5151250D01*
X-5199250Y9136250D02*
X-5024250Y8961250D01*
X-5024250Y9136250D02*
X-5199250Y8961250D01*
X-5135750Y7231250D02*
X-4960750Y7056250D01*
X-4960750Y7231250D02*
X-5135750Y7056250D01*
X-4723000Y12946250D02*
X-4548000Y12771250D01*
X-4548000Y12946250D02*
X-4723000Y12771250D01*
X-4659500Y11041250D02*
X-4484500Y10866250D01*
X-4484500Y11041250D02*
X-4659500Y10866250D01*
X-4421375Y5326250D02*
X-4246375Y5151250D01*
X-4246375Y5326250D02*
X-4421375Y5151250D01*
X-4246750Y7231250D02*
X-4071750Y7056250D01*
X-4071750Y7231250D02*
X-4246750Y7056250D01*
X-4183250Y9136250D02*
X-4008250Y8961250D01*
X-4008250Y9136250D02*
X-4183250Y8961250D01*
X-3770500Y11041250D02*
X-3595500Y10866250D01*
X-3595500Y11041250D02*
X-3770500Y10866250D01*
X-3707000Y12946250D02*
X-3532000Y12771250D01*
X-3532000Y12946250D02*
X-3707000Y12771250D01*
X-3294250Y9136250D02*
X-3119250Y8961250D01*
X-3119250Y9136250D02*
X-3294250Y8961250D01*
X-3230750Y7231250D02*
X-3055750Y7056250D01*
X-3055750Y7231250D02*
X-3230750Y7056250D01*
X-2818000Y12946250D02*
X-2643000Y12771250D01*
X-2643000Y12946250D02*
X-2818000Y12771250D01*
X-2754500Y11041250D02*
X-2579500Y10866250D01*
X-2579500Y11041250D02*
X-2754500Y10866250D01*
X-2341750Y7231250D02*
X-2166750Y7056250D01*
X-2166750Y7231250D02*
X-2341750Y7056250D01*
X-2278250Y9136250D02*
X-2103250Y8961250D01*
X-2103250Y9136250D02*
X-2278250Y8961250D01*
X-1865500Y11041250D02*
X-1690500Y10866250D01*
X-1690500Y11041250D02*
X-1865500Y10866250D01*
X-1802000Y12946250D02*
X-1627000Y12771250D01*
X-1627000Y12946250D02*
X-1802000Y12771250D01*
X-1389250Y9136250D02*
X-1214250Y8961250D01*
X-1214250Y9136250D02*
X-1389250Y8961250D01*
X-1325750Y7231250D02*
X-1150750Y7056250D01*
X-1150750Y7231250D02*
X-1325750Y7056250D01*
X-913000Y12946250D02*
X-738000Y12771250D01*
X-738000Y12946250D02*
X-913000Y12771250D01*
X-849500Y11041250D02*
X-674500Y10866250D01*
X-674500Y11041250D02*
X-849500Y10866250D01*
X-436750Y7231250D02*
X-261750Y7056250D01*
X-261750Y7231250D02*
X-436750Y7056250D01*
X-373250Y9136250D02*
X-198250Y8961250D01*
X-198250Y9136250D02*
X-373250Y8961250D01*
X39500Y11041250D02*
X214500Y10866250D01*
X214500Y11041250D02*
X39500Y10866250D01*
X103000Y12946250D02*
X278000Y12771250D01*
X278000Y12946250D02*
X103000Y12771250D01*
X515750Y9136250D02*
X690750Y8961250D01*
X690750Y9136250D02*
X515750Y8961250D01*
X579250Y7231250D02*
X754250Y7056250D01*
X754250Y7231250D02*
X579250Y7056250D01*
X992000Y12946250D02*
X1167000Y12771250D01*
X1167000Y12946250D02*
X992000Y12771250D01*
X1055500Y11041250D02*
X1230500Y10866250D01*
X1230500Y11041250D02*
X1055500Y10866250D01*
X1468250Y7231250D02*
X1643250Y7056250D01*
X1643250Y7231250D02*
X1468250Y7056250D01*
X1531750Y9136250D02*
X1706750Y8961250D01*
X1706750Y9136250D02*
X1531750Y8961250D01*
X1706375Y5326250D02*
X1881375Y5151250D01*
X1881375Y5326250D02*
X1706375Y5151250D01*
X1944500Y11041250D02*
X2119500Y10866250D01*
X2119500Y11041250D02*
X1944500Y10866250D01*
X2008000Y12946250D02*
X2183000Y12771250D01*
X2183000Y12946250D02*
X2008000Y12771250D01*
X2420750Y9136250D02*
X2595750Y8961250D01*
X2595750Y9136250D02*
X2420750Y8961250D01*
X2484250Y7231250D02*
X2659250Y7056250D01*
X2659250Y7231250D02*
X2484250Y7056250D01*
X2722375Y5326250D02*
X2897375Y5151250D01*
X2897375Y5326250D02*
X2722375Y5151250D01*
X2897000Y12946250D02*
X3072000Y12771250D01*
X3072000Y12946250D02*
X2897000Y12771250D01*
X2960500Y11041250D02*
X3135500Y10866250D01*
X3135500Y11041250D02*
X2960500Y10866250D01*
X3373250Y7231250D02*
X3548250Y7056250D01*
X3548250Y7231250D02*
X3373250Y7056250D01*
X3436750Y9136250D02*
X3611750Y8961250D01*
X3611750Y9136250D02*
X3436750Y8961250D01*
X3849500Y11041250D02*
X4024500Y10866250D01*
X4024500Y11041250D02*
X3849500Y10866250D01*
X3913000Y12946250D02*
X4088000Y12771250D01*
X4088000Y12946250D02*
X3913000Y12771250D01*
X4325750Y9136250D02*
X4500750Y8961250D01*
X4500750Y9136250D02*
X4325750Y8961250D01*
X4389250Y7231250D02*
X4564250Y7056250D01*
X4564250Y7231250D02*
X4389250Y7056250D01*
X4802000Y12946250D02*
X4977000Y12771250D01*
X4977000Y12946250D02*
X4802000Y12771250D01*
X4865500Y11041250D02*
X5040500Y10866250D01*
X5040500Y11041250D02*
X4865500Y10866250D01*
X5278250Y7231250D02*
X5453250Y7056250D01*
X5453250Y7231250D02*
X5278250Y7056250D01*
X5341750Y9136250D02*
X5516750Y8961250D01*
X5516750Y9136250D02*
X5341750Y8961250D01*
X5754500Y11041250D02*
X5929500Y10866250D01*
X5929500Y11041250D02*
X5754500Y10866250D01*
X5818000Y12946250D02*
X5993000Y12771250D01*
X5993000Y12946250D02*
X5818000Y12771250D01*
X6230750Y9136250D02*
X6405750Y8961250D01*
X6405750Y9136250D02*
X6230750Y8961250D01*
X6294250Y7231250D02*
X6469250Y7056250D01*
X6469250Y7231250D02*
X6294250Y7056250D01*
X6707000Y12946250D02*
X6882000Y12771250D01*
X6882000Y12946250D02*
X6707000Y12771250D01*
X6770500Y11041250D02*
X6945500Y10866250D01*
X6945500Y11041250D02*
X6770500Y10866250D01*
X7183250Y7231250D02*
X7358250Y7056250D01*
X7358250Y7231250D02*
X7183250Y7056250D01*
X7246750Y9136250D02*
X7421750Y8961250D01*
X7421750Y9136250D02*
X7246750Y8961250D01*
X7659500Y11041250D02*
X7834500Y10866250D01*
X7834500Y11041250D02*
X7659500Y10866250D01*
X7723000Y12946250D02*
X7898000Y12771250D01*
X7898000Y12946250D02*
X7723000Y12771250D01*
X8135750Y9136250D02*
X8310750Y8961250D01*
X8310750Y9136250D02*
X8135750Y8961250D01*
X8199250Y7231250D02*
X8374250Y7056250D01*
X8374250Y7231250D02*
X8199250Y7056250D01*
X8612000Y12946250D02*
X8787000Y12771250D01*
X8787000Y12946250D02*
X8612000Y12771250D01*
X8675500Y11041250D02*
X8850500Y10866250D01*
X8850500Y11041250D02*
X8675500Y10866250D01*
X8850125Y5326250D02*
X9025125Y5151250D01*
X9025125Y5326250D02*
X8850125Y5151250D01*
X9088250Y7231250D02*
X9263250Y7056250D01*
X9263250Y7231250D02*
X9088250Y7056250D01*
X9151750Y9136250D02*
X9326750Y8961250D01*
X9326750Y9136250D02*
X9151750Y8961250D01*
X9564500Y11041250D02*
X9739500Y10866250D01*
X9739500Y11041250D02*
X9564500Y10866250D01*
X9628000Y12946250D02*
X9803000Y12771250D01*
X9803000Y12946250D02*
X9628000Y12771250D01*
X9866125Y5326250D02*
X10041125Y5151250D01*
X10041125Y5326250D02*
X9866125Y5151250D01*
X10040750Y9136250D02*
X10215750Y8961250D01*
X10215750Y9136250D02*
X10040750Y8961250D01*
X10104250Y7231250D02*
X10279250Y7056250D01*
X10279250Y7231250D02*
X10104250Y7056250D01*
X10517000Y12946250D02*
X10692000Y12771250D01*
X10692000Y12946250D02*
X10517000Y12771250D01*
X10580500Y11041250D02*
X10755500Y10866250D01*
X10755500Y11041250D02*
X10580500Y10866250D01*
X10993250Y7231250D02*
X11168250Y7056250D01*
X11168250Y7231250D02*
X10993250Y7056250D01*
X11056750Y9136250D02*
X11231750Y8961250D01*
X11231750Y9136250D02*
X11056750Y8961250D01*
X11310750Y5326250D02*
X11485750Y5151250D01*
X11485750Y5326250D02*
X11310750Y5151250D01*
X11469500Y11041250D02*
X11644500Y10866250D01*
X11644500Y11041250D02*
X11469500Y10866250D01*
X11533000Y12946250D02*
X11708000Y12771250D01*
X11708000Y12946250D02*
X11533000Y12771250D01*
X11945750Y9136250D02*
X12120750Y8961250D01*
X12120750Y9136250D02*
X11945750Y8961250D01*
X12009250Y7231250D02*
X12184250Y7056250D01*
X12184250Y7231250D02*
X12009250Y7056250D01*
X12326750Y5326250D02*
X12501750Y5151250D01*
X12501750Y5326250D02*
X12326750Y5151250D01*
X12422000Y12946250D02*
X12597000Y12771250D01*
X12597000Y12946250D02*
X12422000Y12771250D01*
X12485500Y11041250D02*
X12660500Y10866250D01*
X12660500Y11041250D02*
X12485500Y10866250D01*
X12961750Y9136250D02*
X13136750Y8961250D01*
X13136750Y9136250D02*
X12961750Y8961250D01*
X13374500Y11041250D02*
X13549500Y10866250D01*
X13549500Y11041250D02*
X13374500Y10866250D01*
X13438000Y12946250D02*
X13613000Y12771250D01*
X13613000Y12946250D02*
X13438000Y12771250D01*
X13612625Y5326250D02*
X13787625Y5151250D01*
X13787625Y5326250D02*
X13612625Y5151250D01*
X14390500Y11041250D02*
X14565500Y10866250D01*
X14565500Y11041250D02*
X14390500Y10866250D01*
X14565125Y7231250D02*
X14740125Y7056250D01*
X14740125Y7231250D02*
X14565125Y7056250D01*
X14628625Y5326250D02*
X14803625Y5151250D01*
X14803625Y5326250D02*
X14628625Y5151250D01*
X15041375Y9136250D02*
X15216375Y8961250D01*
X15216375Y9136250D02*
X15041375Y8961250D01*
X15279500Y12946250D02*
X15454500Y12771250D01*
X15454500Y12946250D02*
X15279500Y12771250D01*
X15581125Y7231250D02*
X15756125Y7056250D01*
X15756125Y7231250D02*
X15581125Y7056250D01*
X15755750Y11041250D02*
X15930750Y10866250D01*
X15930750Y11041250D02*
X15755750Y10866250D01*
X15993875Y5326250D02*
X16168875Y5151250D01*
X16168875Y5326250D02*
X15993875Y5151250D01*
X16057375Y9136250D02*
X16232375Y8961250D01*
X16232375Y9136250D02*
X16057375Y8961250D01*
X16295500Y12946250D02*
X16470500Y12771250D01*
X16470500Y12946250D02*
X16295500Y12771250D01*
X16771750Y11041250D02*
X16946750Y10866250D01*
X16946750Y11041250D02*
X16771750Y10866250D01*
X17009875Y5326250D02*
X17184875Y5151250D01*
X17184875Y5326250D02*
X17009875Y5151250D01*
D14*
X-9643110Y12858750D02*
G75*
G03*
X-9643110Y12858750I-199390J0D01*
G01*
X-9404985Y5238750D02*
G75*
G03*
X-9404985Y5238750I-199390J0D01*
G01*
X-9166860Y10953750D02*
G75*
G03*
X-9166860Y10953750I-199390J0D01*
G01*
X-8928735Y9048750D02*
G75*
G03*
X-8928735Y9048750I-199390J0D01*
G01*
X-8452485Y7143750D02*
G75*
G03*
X-8452485Y7143750I-199390J0D01*
G01*
X-7738110Y12858750D02*
G75*
G03*
X-7738110Y12858750I-199390J0D01*
G01*
X-7039610Y5238750D02*
G75*
G03*
X-7039610Y5238750I-199390J0D01*
G01*
X-6785610Y10953750D02*
G75*
G03*
X-6785610Y10953750I-199390J0D01*
G01*
X-6309360Y9048750D02*
G75*
G03*
X-6309360Y9048750I-199390J0D01*
G01*
X-5833110Y12858750D02*
G75*
G03*
X-5833110Y12858750I-199390J0D01*
G01*
X-5356860Y7143750D02*
G75*
G03*
X-5356860Y7143750I-199390J0D01*
G01*
X-4880610Y10953750D02*
G75*
G03*
X-4880610Y10953750I-199390J0D01*
G01*
X-4642485Y5238750D02*
G75*
G03*
X-4642485Y5238750I-199390J0D01*
G01*
X-4404360Y9048750D02*
G75*
G03*
X-4404360Y9048750I-199390J0D01*
G01*
X-3928110Y12858750D02*
G75*
G03*
X-3928110Y12858750I-199390J0D01*
G01*
X-3451860Y7143750D02*
G75*
G03*
X-3451860Y7143750I-199390J0D01*
G01*
X-2975610Y10953750D02*
G75*
G03*
X-2975610Y10953750I-199390J0D01*
G01*
X-2499360Y9048750D02*
G75*
G03*
X-2499360Y9048750I-199390J0D01*
G01*
X-2023110Y12858750D02*
G75*
G03*
X-2023110Y12858750I-199390J0D01*
G01*
X-1546860Y7143750D02*
G75*
G03*
X-1546860Y7143750I-199390J0D01*
G01*
X-1070610Y10953750D02*
G75*
G03*
X-1070610Y10953750I-199390J0D01*
G01*
X-594360Y9048750D02*
G75*
G03*
X-594360Y9048750I-199390J0D01*
G01*
X-118110Y12858750D02*
G75*
G03*
X-118110Y12858750I-199390J0D01*
G01*
X358140Y7143750D02*
G75*
G03*
X358140Y7143750I-199390J0D01*
G01*
X834390Y10953750D02*
G75*
G03*
X834390Y10953750I-199390J0D01*
G01*
X1310640Y9048750D02*
G75*
G03*
X1310640Y9048750I-199390J0D01*
G01*
X1786890Y12858750D02*
G75*
G03*
X1786890Y12858750I-199390J0D01*
G01*
X2263140Y7143750D02*
G75*
G03*
X2263140Y7143750I-199390J0D01*
G01*
X2501265Y5238750D02*
G75*
G03*
X2501265Y5238750I-199390J0D01*
G01*
X2739390Y10953750D02*
G75*
G03*
X2739390Y10953750I-199390J0D01*
G01*
X3215640Y9048750D02*
G75*
G03*
X3215640Y9048750I-199390J0D01*
G01*
X3691890Y12858750D02*
G75*
G03*
X3691890Y12858750I-199390J0D01*
G01*
X4168140Y7143750D02*
G75*
G03*
X4168140Y7143750I-199390J0D01*
G01*
X4644390Y10953750D02*
G75*
G03*
X4644390Y10953750I-199390J0D01*
G01*
X5120640Y9048750D02*
G75*
G03*
X5120640Y9048750I-199390J0D01*
G01*
X5596890Y12858750D02*
G75*
G03*
X5596890Y12858750I-199390J0D01*
G01*
X6073140Y7143750D02*
G75*
G03*
X6073140Y7143750I-199390J0D01*
G01*
X6549390Y10953750D02*
G75*
G03*
X6549390Y10953750I-199390J0D01*
G01*
X7025640Y9048750D02*
G75*
G03*
X7025640Y9048750I-199390J0D01*
G01*
X7501890Y12858750D02*
G75*
G03*
X7501890Y12858750I-199390J0D01*
G01*
X7978140Y7143750D02*
G75*
G03*
X7978140Y7143750I-199390J0D01*
G01*
X8454390Y10953750D02*
G75*
G03*
X8454390Y10953750I-199390J0D01*
G01*
X8930640Y9048750D02*
G75*
G03*
X8930640Y9048750I-199390J0D01*
G01*
X9406890Y12858750D02*
G75*
G03*
X9406890Y12858750I-199390J0D01*
G01*
X9645015Y5238750D02*
G75*
G03*
X9645015Y5238750I-199390J0D01*
G01*
X9883140Y7143750D02*
G75*
G03*
X9883140Y7143750I-199390J0D01*
G01*
X10359390Y10953750D02*
G75*
G03*
X10359390Y10953750I-199390J0D01*
G01*
X10835640Y9048750D02*
G75*
G03*
X10835640Y9048750I-199390J0D01*
G01*
X11311890Y12858750D02*
G75*
G03*
X11311890Y12858750I-199390J0D01*
G01*
X11788140Y7143750D02*
G75*
G03*
X11788140Y7143750I-199390J0D01*
G01*
X12105640Y5238750D02*
G75*
G03*
X12105640Y5238750I-199390J0D01*
G01*
X12264390Y10953750D02*
G75*
G03*
X12264390Y10953750I-199390J0D01*
G01*
X12740640Y9048750D02*
G75*
G03*
X12740640Y9048750I-199390J0D01*
G01*
X13216890Y12858750D02*
G75*
G03*
X13216890Y12858750I-199390J0D01*
G01*
X14169390Y10953750D02*
G75*
G03*
X14169390Y10953750I-199390J0D01*
G01*
X14407515Y5238750D02*
G75*
G03*
X14407515Y5238750I-199390J0D01*
G01*
X15360015Y7143750D02*
G75*
G03*
X15360015Y7143750I-199390J0D01*
G01*
X15836265Y9048750D02*
G75*
G03*
X15836265Y9048750I-199390J0D01*
G01*
X16074390Y12858750D02*
G75*
G03*
X16074390Y12858750I-199390J0D01*
G01*
X16550640Y10953750D02*
G75*
G03*
X16550640Y10953750I-199390J0D01*
G01*
X16788765Y5238750D02*
G75*
G03*
X16788765Y5238750I-199390J0D01*
G01*
D12*
X-15148631Y3968274D02*
X-15148631Y4168274D01*
X-15101012Y4168274D01*
X-15072440Y4158750D01*
X-15053393Y4139702D01*
X-15043869Y4120655D01*
X-15034345Y4082559D01*
X-15034345Y4053988D01*
X-15043869Y4015893D01*
X-15053393Y3996845D01*
X-15072440Y3977798D01*
X-15101012Y3968274D01*
X-15148631Y3968274D01*
X-14948631Y3968274D02*
X-14948631Y4101607D01*
X-14948631Y4063512D02*
X-14939107Y4082559D01*
X-14929583Y4092083D01*
X-14910536Y4101607D01*
X-14891488Y4101607D01*
X-14824821Y3968274D02*
X-14824821Y4101607D01*
X-14824821Y4168274D02*
X-14834345Y4158750D01*
X-14824821Y4149226D01*
X-14815298Y4158750D01*
X-14824821Y4168274D01*
X-14824821Y4149226D01*
X-14701012Y3968274D02*
X-14720059Y3977798D01*
X-14729583Y3996845D01*
X-14729583Y4168274D01*
X-14596250Y3968274D02*
X-14615298Y3977798D01*
X-14624821Y3996845D01*
X-14624821Y4168274D01*
X-14367678Y3968274D02*
X-14367678Y4168274D01*
X-14301012Y4025417D01*
X-14234345Y4168274D01*
X-14234345Y3968274D01*
X-14053393Y3968274D02*
X-14053393Y4073036D01*
X-14062917Y4092083D01*
X-14081964Y4101607D01*
X-14120059Y4101607D01*
X-14139107Y4092083D01*
X-14053393Y3977798D02*
X-14072440Y3968274D01*
X-14120059Y3968274D01*
X-14139107Y3977798D01*
X-14148631Y3996845D01*
X-14148631Y4015893D01*
X-14139107Y4034940D01*
X-14120059Y4044464D01*
X-14072440Y4044464D01*
X-14053393Y4053988D01*
X-13958155Y4101607D02*
X-13958155Y3901607D01*
X-13958155Y4092083D02*
X-13939107Y4101607D01*
X-13901012Y4101607D01*
X-13881964Y4092083D01*
X-13872440Y4082559D01*
X-13862917Y4063512D01*
X-13862917Y4006369D01*
X-13872440Y3987321D01*
X-13881964Y3977798D01*
X-13901012Y3968274D01*
X-13939107Y3968274D01*
X-13958155Y3977798D01*
X-13777202Y3987321D02*
X-13767678Y3977798D01*
X-13777202Y3968274D01*
X-13786726Y3977798D01*
X-13777202Y3987321D01*
X-13777202Y3968274D01*
X-13777202Y4092083D02*
X-13767678Y4082559D01*
X-13777202Y4073036D01*
X-13786726Y4082559D01*
X-13777202Y4092083D01*
X-13777202Y4073036D01*
D13*
X-15581250Y3726250D02*
X-15406250Y3551250D01*
X-15406250Y3726250D02*
X-15581250Y3551250D01*
D12*
X-15043869Y3548274D02*
X-15158155Y3548274D01*
X-15101012Y3548274D02*
X-15101012Y3748274D01*
X-15120059Y3719702D01*
X-15139107Y3700655D01*
X-15158155Y3691131D01*
X-14958155Y3567321D02*
X-14948631Y3557798D01*
X-14958155Y3548274D01*
X-14967678Y3557798D01*
X-14958155Y3567321D01*
X-14958155Y3548274D01*
X-14881964Y3748274D02*
X-14748631Y3748274D01*
X-14834345Y3548274D01*
X-14577202Y3748274D02*
X-14672440Y3748274D01*
X-14681964Y3653036D01*
X-14672440Y3662559D01*
X-14653393Y3672083D01*
X-14605774Y3672083D01*
X-14586726Y3662559D01*
X-14577202Y3653036D01*
X-14567678Y3633988D01*
X-14567678Y3586369D01*
X-14577202Y3567321D01*
X-14586726Y3557798D01*
X-14605774Y3548274D01*
X-14653393Y3548274D01*
X-14672440Y3557798D01*
X-14681964Y3567321D01*
X-14443869Y3748274D02*
X-14424821Y3748274D01*
X-14405774Y3738750D01*
X-14396250Y3729226D01*
X-14386726Y3710178D01*
X-14377202Y3672083D01*
X-14377202Y3624464D01*
X-14386726Y3586369D01*
X-14396250Y3567321D01*
X-14405774Y3557798D01*
X-14424821Y3548274D01*
X-14443869Y3548274D01*
X-14462917Y3557798D01*
X-14472440Y3567321D01*
X-14481964Y3586369D01*
X-14491488Y3624464D01*
X-14491488Y3672083D01*
X-14481964Y3710178D01*
X-14472440Y3729226D01*
X-14462917Y3738750D01*
X-14443869Y3748274D01*
X-14291488Y3548274D02*
X-14291488Y3681607D01*
X-14291488Y3662559D02*
X-14281964Y3672083D01*
X-14262917Y3681607D01*
X-14234345Y3681607D01*
X-14215298Y3672083D01*
X-14205774Y3653036D01*
X-14205774Y3548274D01*
X-14205774Y3653036D02*
X-14196250Y3672083D01*
X-14177202Y3681607D01*
X-14148631Y3681607D01*
X-14129583Y3672083D01*
X-14120059Y3653036D01*
X-14120059Y3548274D01*
X-14024821Y3548274D02*
X-14024821Y3681607D01*
X-14024821Y3662559D02*
X-14015298Y3672083D01*
X-13996250Y3681607D01*
X-13967678Y3681607D01*
X-13948631Y3672083D01*
X-13939107Y3653036D01*
X-13939107Y3548274D01*
X-13939107Y3653036D02*
X-13929583Y3672083D01*
X-13910536Y3681607D01*
X-13881964Y3681607D01*
X-13862917Y3672083D01*
X-13853393Y3653036D01*
X-13853393Y3548274D01*
X-13462917Y3757798D02*
X-13634345Y3500655D01*
X-13205774Y3748274D02*
X-13186726Y3748274D01*
X-13167678Y3738750D01*
X-13158155Y3729226D01*
X-13148631Y3710178D01*
X-13139107Y3672083D01*
X-13139107Y3624464D01*
X-13148631Y3586369D01*
X-13158155Y3567321D01*
X-13167678Y3557798D01*
X-13186726Y3548274D01*
X-13205774Y3548274D01*
X-13224821Y3557798D01*
X-13234345Y3567321D01*
X-13243869Y3586369D01*
X-13253393Y3624464D01*
X-13253393Y3672083D01*
X-13243869Y3710178D01*
X-13234345Y3729226D01*
X-13224821Y3738750D01*
X-13205774Y3748274D01*
X-13053393Y3567321D02*
X-13043869Y3557798D01*
X-13053393Y3548274D01*
X-13062917Y3557798D01*
X-13053393Y3567321D01*
X-13053393Y3548274D01*
X-12920059Y3748274D02*
X-12901012Y3748274D01*
X-12881964Y3738750D01*
X-12872440Y3729226D01*
X-12862917Y3710178D01*
X-12853393Y3672083D01*
X-12853393Y3624464D01*
X-12862917Y3586369D01*
X-12872440Y3567321D01*
X-12881964Y3557798D01*
X-12901012Y3548274D01*
X-12920059Y3548274D01*
X-12939107Y3557798D01*
X-12948631Y3567321D01*
X-12958155Y3586369D01*
X-12967678Y3624464D01*
X-12967678Y3672083D01*
X-12958155Y3710178D01*
X-12948631Y3729226D01*
X-12939107Y3738750D01*
X-12920059Y3748274D01*
X-12681964Y3748274D02*
X-12720059Y3748274D01*
X-12739107Y3738750D01*
X-12748631Y3729226D01*
X-12767678Y3700655D01*
X-12777202Y3662559D01*
X-12777202Y3586369D01*
X-12767678Y3567321D01*
X-12758155Y3557798D01*
X-12739107Y3548274D01*
X-12701012Y3548274D01*
X-12681964Y3557798D01*
X-12672440Y3567321D01*
X-12662917Y3586369D01*
X-12662917Y3633988D01*
X-12672440Y3653036D01*
X-12681964Y3662559D01*
X-12701012Y3672083D01*
X-12739107Y3672083D01*
X-12758155Y3662559D01*
X-12767678Y3653036D01*
X-12777202Y3633988D01*
X-12548631Y3662559D02*
X-12567678Y3672083D01*
X-12577202Y3681607D01*
X-12586726Y3700655D01*
X-12586726Y3710178D01*
X-12577202Y3729226D01*
X-12567678Y3738750D01*
X-12548631Y3748274D01*
X-12510536Y3748274D01*
X-12491488Y3738750D01*
X-12481964Y3729226D01*
X-12472440Y3710178D01*
X-12472440Y3700655D01*
X-12481964Y3681607D01*
X-12491488Y3672083D01*
X-12510536Y3662559D01*
X-12548631Y3662559D01*
X-12567678Y3653036D01*
X-12577202Y3643512D01*
X-12586726Y3624464D01*
X-12586726Y3586369D01*
X-12577202Y3567321D01*
X-12567678Y3557798D01*
X-12548631Y3548274D01*
X-12510536Y3548274D01*
X-12491488Y3557798D01*
X-12481964Y3567321D01*
X-12472440Y3586369D01*
X-12472440Y3624464D01*
X-12481964Y3643512D01*
X-12491488Y3653036D01*
X-12510536Y3662559D01*
X-12377202Y3548274D02*
X-12339107Y3548274D01*
X-12320059Y3557798D01*
X-12310536Y3567321D01*
X-12291488Y3595893D01*
X-12281964Y3633988D01*
X-12281964Y3710178D01*
X-12291488Y3729226D01*
X-12301012Y3738750D01*
X-12320059Y3748274D01*
X-12358155Y3748274D01*
X-12377202Y3738750D01*
X-12386726Y3729226D01*
X-12396250Y3710178D01*
X-12396250Y3662559D01*
X-12386726Y3643512D01*
X-12377202Y3633988D01*
X-12358155Y3624464D01*
X-12320059Y3624464D01*
X-12301012Y3633988D01*
X-12291488Y3643512D01*
X-12281964Y3662559D01*
X-12205774Y3748274D02*
X-12205774Y3710178D01*
X-12129583Y3748274D02*
X-12129583Y3710178D01*
X-11834345Y3472083D02*
X-11843869Y3481607D01*
X-11862917Y3510178D01*
X-11872440Y3529226D01*
X-11881964Y3557798D01*
X-11891488Y3605417D01*
X-11891488Y3643512D01*
X-11881964Y3691131D01*
X-11872440Y3719702D01*
X-11862917Y3738750D01*
X-11843869Y3767321D01*
X-11834345Y3776845D01*
X-11653393Y3548274D02*
X-11767678Y3548274D01*
X-11710536Y3548274D02*
X-11710536Y3748274D01*
X-11729583Y3719702D01*
X-11748631Y3700655D01*
X-11767678Y3691131D01*
X-11577202Y3729226D02*
X-11567678Y3738750D01*
X-11548631Y3748274D01*
X-11501012Y3748274D01*
X-11481964Y3738750D01*
X-11472440Y3729226D01*
X-11462917Y3710178D01*
X-11462917Y3691131D01*
X-11472440Y3662559D01*
X-11586726Y3548274D01*
X-11462917Y3548274D01*
X-11386726Y3729226D02*
X-11377202Y3738750D01*
X-11358155Y3748274D01*
X-11310536Y3748274D01*
X-11291488Y3738750D01*
X-11281964Y3729226D01*
X-11272440Y3710178D01*
X-11272440Y3691131D01*
X-11281964Y3662559D01*
X-11396250Y3548274D01*
X-11272440Y3548274D01*
X-11034345Y3548274D02*
X-11034345Y3748274D01*
X-10948631Y3548274D02*
X-10948631Y3653036D01*
X-10958155Y3672083D01*
X-10977202Y3681607D01*
X-11005774Y3681607D01*
X-11024821Y3672083D01*
X-11034345Y3662559D01*
X-10824821Y3548274D02*
X-10843869Y3557798D01*
X-10853393Y3567321D01*
X-10862917Y3586369D01*
X-10862917Y3643512D01*
X-10853393Y3662559D01*
X-10843869Y3672083D01*
X-10824821Y3681607D01*
X-10796250Y3681607D01*
X-10777202Y3672083D01*
X-10767679Y3662559D01*
X-10758155Y3643512D01*
X-10758155Y3586369D01*
X-10767679Y3567321D01*
X-10777202Y3557798D01*
X-10796250Y3548274D01*
X-10824821Y3548274D01*
X-10643869Y3548274D02*
X-10662917Y3557798D01*
X-10672440Y3576845D01*
X-10672440Y3748274D01*
X-10491488Y3557798D02*
X-10510536Y3548274D01*
X-10548631Y3548274D01*
X-10567679Y3557798D01*
X-10577202Y3576845D01*
X-10577202Y3653036D01*
X-10567679Y3672083D01*
X-10548631Y3681607D01*
X-10510536Y3681607D01*
X-10491488Y3672083D01*
X-10481964Y3653036D01*
X-10481964Y3633988D01*
X-10577202Y3614940D01*
X-10405774Y3557798D02*
X-10386726Y3548274D01*
X-10348631Y3548274D01*
X-10329583Y3557798D01*
X-10320060Y3576845D01*
X-10320060Y3586369D01*
X-10329583Y3605417D01*
X-10348631Y3614940D01*
X-10377202Y3614940D01*
X-10396250Y3624464D01*
X-10405774Y3643512D01*
X-10405774Y3653036D01*
X-10396250Y3672083D01*
X-10377202Y3681607D01*
X-10348631Y3681607D01*
X-10329583Y3672083D01*
X-10253393Y3472083D02*
X-10243869Y3481607D01*
X-10224821Y3510178D01*
X-10215298Y3529226D01*
X-10205774Y3557798D01*
X-10196250Y3605417D01*
X-10196250Y3643512D01*
X-10205774Y3691131D01*
X-10215298Y3719702D01*
X-10224821Y3738750D01*
X-10243869Y3767321D01*
X-10253393Y3776845D01*
X-9891488Y3472083D02*
X-9901012Y3481607D01*
X-9920060Y3510178D01*
X-9929583Y3529226D01*
X-9939107Y3557798D01*
X-9948631Y3605417D01*
X-9948631Y3643512D01*
X-9939107Y3691131D01*
X-9929583Y3719702D01*
X-9920060Y3738750D01*
X-9901012Y3767321D01*
X-9891488Y3776845D01*
X-9815298Y3681607D02*
X-9815298Y3548274D01*
X-9815298Y3662559D02*
X-9805774Y3672083D01*
X-9786726Y3681607D01*
X-9758155Y3681607D01*
X-9739107Y3672083D01*
X-9729583Y3653036D01*
X-9729583Y3548274D01*
X-9605774Y3548274D02*
X-9624821Y3557798D01*
X-9634345Y3567321D01*
X-9643869Y3586369D01*
X-9643869Y3643512D01*
X-9634345Y3662559D01*
X-9624821Y3672083D01*
X-9605774Y3681607D01*
X-9577202Y3681607D01*
X-9558155Y3672083D01*
X-9548631Y3662559D01*
X-9539107Y3643512D01*
X-9539107Y3586369D01*
X-9548631Y3567321D01*
X-9558155Y3557798D01*
X-9577202Y3548274D01*
X-9605774Y3548274D01*
X-9481964Y3681607D02*
X-9405774Y3681607D01*
X-9453393Y3748274D02*
X-9453393Y3576845D01*
X-9443869Y3557798D01*
X-9424821Y3548274D01*
X-9405774Y3548274D01*
X-9186726Y3681607D02*
X-9186726Y3481607D01*
X-9186726Y3672083D02*
X-9167679Y3681607D01*
X-9129583Y3681607D01*
X-9110536Y3672083D01*
X-9101012Y3662559D01*
X-9091488Y3643512D01*
X-9091488Y3586369D01*
X-9101012Y3567321D01*
X-9110536Y3557798D01*
X-9129583Y3548274D01*
X-9167679Y3548274D01*
X-9186726Y3557798D01*
X-8977202Y3548274D02*
X-8996250Y3557798D01*
X-9005774Y3576845D01*
X-9005774Y3748274D01*
X-8815298Y3548274D02*
X-8815298Y3653036D01*
X-8824821Y3672083D01*
X-8843869Y3681607D01*
X-8881964Y3681607D01*
X-8901012Y3672083D01*
X-8815298Y3557798D02*
X-8834345Y3548274D01*
X-8881964Y3548274D01*
X-8901012Y3557798D01*
X-8910536Y3576845D01*
X-8910536Y3595893D01*
X-8901012Y3614940D01*
X-8881964Y3624464D01*
X-8834345Y3624464D01*
X-8815298Y3633988D01*
X-8748631Y3681607D02*
X-8672440Y3681607D01*
X-8720060Y3748274D02*
X-8720060Y3576845D01*
X-8710536Y3557798D01*
X-8691488Y3548274D01*
X-8672440Y3548274D01*
X-8529583Y3557798D02*
X-8548631Y3548274D01*
X-8586726Y3548274D01*
X-8605774Y3557798D01*
X-8615298Y3576845D01*
X-8615298Y3653036D01*
X-8605774Y3672083D01*
X-8586726Y3681607D01*
X-8548631Y3681607D01*
X-8529583Y3672083D01*
X-8520060Y3653036D01*
X-8520060Y3633988D01*
X-8615298Y3614940D01*
X-8348631Y3548274D02*
X-8348631Y3748274D01*
X-8348631Y3557798D02*
X-8367678Y3548274D01*
X-8405774Y3548274D01*
X-8424821Y3557798D01*
X-8434345Y3567321D01*
X-8443869Y3586369D01*
X-8443869Y3643512D01*
X-8434345Y3662559D01*
X-8424821Y3672083D01*
X-8405774Y3681607D01*
X-8367678Y3681607D01*
X-8348631Y3672083D01*
X-8272440Y3472083D02*
X-8262917Y3481607D01*
X-8243869Y3510178D01*
X-8234345Y3529226D01*
X-8224821Y3557798D01*
X-8215298Y3605417D01*
X-8215298Y3643512D01*
X-8224821Y3691131D01*
X-8234345Y3719702D01*
X-8243869Y3738750D01*
X-8262917Y3767321D01*
X-8272440Y3776845D01*
X-15406250Y3343750D02*
G75*
G03*
X-15406250Y3343750I-100000J0D01*
G01*
X-15167678Y3453274D02*
X-15043869Y3453274D01*
X-15110536Y3377083D01*
X-15081964Y3377083D01*
X-15062917Y3367559D01*
X-15053393Y3358036D01*
X-15043869Y3338988D01*
X-15043869Y3291369D01*
X-15053393Y3272321D01*
X-15062917Y3262798D01*
X-15081964Y3253274D01*
X-15139107Y3253274D01*
X-15158155Y3262798D01*
X-15167678Y3272321D01*
X-14958155Y3272321D02*
X-14948631Y3262798D01*
X-14958155Y3253274D01*
X-14967678Y3262798D01*
X-14958155Y3272321D01*
X-14958155Y3253274D01*
X-14853393Y3253274D02*
X-14815298Y3253274D01*
X-14796250Y3262798D01*
X-14786726Y3272321D01*
X-14767678Y3300893D01*
X-14758155Y3338988D01*
X-14758155Y3415178D01*
X-14767678Y3434226D01*
X-14777202Y3443750D01*
X-14796250Y3453274D01*
X-14834345Y3453274D01*
X-14853393Y3443750D01*
X-14862917Y3434226D01*
X-14872440Y3415178D01*
X-14872440Y3367559D01*
X-14862917Y3348512D01*
X-14853393Y3338988D01*
X-14834345Y3329464D01*
X-14796250Y3329464D01*
X-14777202Y3338988D01*
X-14767678Y3348512D01*
X-14758155Y3367559D01*
X-14643869Y3367559D02*
X-14662917Y3377083D01*
X-14672440Y3386607D01*
X-14681964Y3405655D01*
X-14681964Y3415178D01*
X-14672440Y3434226D01*
X-14662917Y3443750D01*
X-14643869Y3453274D01*
X-14605774Y3453274D01*
X-14586726Y3443750D01*
X-14577202Y3434226D01*
X-14567678Y3415178D01*
X-14567678Y3405655D01*
X-14577202Y3386607D01*
X-14586726Y3377083D01*
X-14605774Y3367559D01*
X-14643869Y3367559D01*
X-14662917Y3358036D01*
X-14672440Y3348512D01*
X-14681964Y3329464D01*
X-14681964Y3291369D01*
X-14672440Y3272321D01*
X-14662917Y3262798D01*
X-14643869Y3253274D01*
X-14605774Y3253274D01*
X-14586726Y3262798D01*
X-14577202Y3272321D01*
X-14567678Y3291369D01*
X-14567678Y3329464D01*
X-14577202Y3348512D01*
X-14586726Y3358036D01*
X-14605774Y3367559D01*
X-14453393Y3367559D02*
X-14472440Y3377083D01*
X-14481964Y3386607D01*
X-14491488Y3405655D01*
X-14491488Y3415178D01*
X-14481964Y3434226D01*
X-14472440Y3443750D01*
X-14453393Y3453274D01*
X-14415298Y3453274D01*
X-14396250Y3443750D01*
X-14386726Y3434226D01*
X-14377202Y3415178D01*
X-14377202Y3405655D01*
X-14386726Y3386607D01*
X-14396250Y3377083D01*
X-14415298Y3367559D01*
X-14453393Y3367559D01*
X-14472440Y3358036D01*
X-14481964Y3348512D01*
X-14491488Y3329464D01*
X-14491488Y3291369D01*
X-14481964Y3272321D01*
X-14472440Y3262798D01*
X-14453393Y3253274D01*
X-14415298Y3253274D01*
X-14396250Y3262798D01*
X-14386726Y3272321D01*
X-14377202Y3291369D01*
X-14377202Y3329464D01*
X-14386726Y3348512D01*
X-14396250Y3358036D01*
X-14415298Y3367559D01*
X-14291488Y3253274D02*
X-14291488Y3386607D01*
X-14291488Y3367559D02*
X-14281964Y3377083D01*
X-14262917Y3386607D01*
X-14234345Y3386607D01*
X-14215298Y3377083D01*
X-14205774Y3358036D01*
X-14205774Y3253274D01*
X-14205774Y3358036D02*
X-14196250Y3377083D01*
X-14177202Y3386607D01*
X-14148631Y3386607D01*
X-14129583Y3377083D01*
X-14120059Y3358036D01*
X-14120059Y3253274D01*
X-14024821Y3253274D02*
X-14024821Y3386607D01*
X-14024821Y3367559D02*
X-14015298Y3377083D01*
X-13996250Y3386607D01*
X-13967678Y3386607D01*
X-13948631Y3377083D01*
X-13939107Y3358036D01*
X-13939107Y3253274D01*
X-13939107Y3358036D02*
X-13929583Y3377083D01*
X-13910536Y3386607D01*
X-13881964Y3386607D01*
X-13862917Y3377083D01*
X-13853393Y3358036D01*
X-13853393Y3253274D01*
X-13462917Y3462798D02*
X-13634345Y3205655D01*
X-13205774Y3453274D02*
X-13186726Y3453274D01*
X-13167678Y3443750D01*
X-13158155Y3434226D01*
X-13148631Y3415178D01*
X-13139107Y3377083D01*
X-13139107Y3329464D01*
X-13148631Y3291369D01*
X-13158155Y3272321D01*
X-13167678Y3262798D01*
X-13186726Y3253274D01*
X-13205774Y3253274D01*
X-13224821Y3262798D01*
X-13234345Y3272321D01*
X-13243869Y3291369D01*
X-13253393Y3329464D01*
X-13253393Y3377083D01*
X-13243869Y3415178D01*
X-13234345Y3434226D01*
X-13224821Y3443750D01*
X-13205774Y3453274D01*
X-13053393Y3272321D02*
X-13043869Y3262798D01*
X-13053393Y3253274D01*
X-13062917Y3262798D01*
X-13053393Y3272321D01*
X-13053393Y3253274D01*
X-12853393Y3253274D02*
X-12967678Y3253274D01*
X-12910536Y3253274D02*
X-12910536Y3453274D01*
X-12929583Y3424702D01*
X-12948631Y3405655D01*
X-12967678Y3396131D01*
X-12672440Y3453274D02*
X-12767678Y3453274D01*
X-12777202Y3358036D01*
X-12767678Y3367559D01*
X-12748631Y3377083D01*
X-12701012Y3377083D01*
X-12681964Y3367559D01*
X-12672440Y3358036D01*
X-12662917Y3338988D01*
X-12662917Y3291369D01*
X-12672440Y3272321D01*
X-12681964Y3262798D01*
X-12701012Y3253274D01*
X-12748631Y3253274D01*
X-12767678Y3262798D01*
X-12777202Y3272321D01*
X-12596250Y3453274D02*
X-12462917Y3453274D01*
X-12548631Y3253274D01*
X-12348631Y3453274D02*
X-12329583Y3453274D01*
X-12310536Y3443750D01*
X-12301012Y3434226D01*
X-12291488Y3415178D01*
X-12281964Y3377083D01*
X-12281964Y3329464D01*
X-12291488Y3291369D01*
X-12301012Y3272321D01*
X-12310536Y3262798D01*
X-12329583Y3253274D01*
X-12348631Y3253274D01*
X-12367678Y3262798D01*
X-12377202Y3272321D01*
X-12386726Y3291369D01*
X-12396250Y3329464D01*
X-12396250Y3377083D01*
X-12386726Y3415178D01*
X-12377202Y3434226D01*
X-12367678Y3443750D01*
X-12348631Y3453274D01*
X-12205774Y3453274D02*
X-12205774Y3415178D01*
X-12129583Y3453274D02*
X-12129583Y3415178D01*
X-11834345Y3177083D02*
X-11843869Y3186607D01*
X-11862917Y3215178D01*
X-11872440Y3234226D01*
X-11881964Y3262798D01*
X-11891488Y3310417D01*
X-11891488Y3348512D01*
X-11881964Y3396131D01*
X-11872440Y3424702D01*
X-11862917Y3443750D01*
X-11843869Y3472321D01*
X-11834345Y3481845D01*
X-11672440Y3453274D02*
X-11710536Y3453274D01*
X-11729583Y3443750D01*
X-11739107Y3434226D01*
X-11758155Y3405655D01*
X-11767678Y3367559D01*
X-11767678Y3291369D01*
X-11758155Y3272321D01*
X-11748631Y3262798D01*
X-11729583Y3253274D01*
X-11691488Y3253274D01*
X-11672440Y3262798D01*
X-11662917Y3272321D01*
X-11653393Y3291369D01*
X-11653393Y3338988D01*
X-11662917Y3358036D01*
X-11672440Y3367559D01*
X-11691488Y3377083D01*
X-11729583Y3377083D01*
X-11748631Y3367559D01*
X-11758155Y3358036D01*
X-11767678Y3338988D01*
X-11462917Y3253274D02*
X-11577202Y3253274D01*
X-11520059Y3253274D02*
X-11520059Y3453274D01*
X-11539107Y3424702D01*
X-11558155Y3405655D01*
X-11577202Y3396131D01*
X-11224821Y3253274D02*
X-11224821Y3453274D01*
X-11139107Y3253274D02*
X-11139107Y3358036D01*
X-11148631Y3377083D01*
X-11167679Y3386607D01*
X-11196250Y3386607D01*
X-11215298Y3377083D01*
X-11224821Y3367559D01*
X-11015298Y3253274D02*
X-11034345Y3262798D01*
X-11043869Y3272321D01*
X-11053393Y3291369D01*
X-11053393Y3348512D01*
X-11043869Y3367559D01*
X-11034345Y3377083D01*
X-11015298Y3386607D01*
X-10986726Y3386607D01*
X-10967679Y3377083D01*
X-10958155Y3367559D01*
X-10948631Y3348512D01*
X-10948631Y3291369D01*
X-10958155Y3272321D01*
X-10967679Y3262798D01*
X-10986726Y3253274D01*
X-11015298Y3253274D01*
X-10834345Y3253274D02*
X-10853393Y3262798D01*
X-10862917Y3281845D01*
X-10862917Y3453274D01*
X-10681964Y3262798D02*
X-10701012Y3253274D01*
X-10739107Y3253274D01*
X-10758155Y3262798D01*
X-10767679Y3281845D01*
X-10767679Y3358036D01*
X-10758155Y3377083D01*
X-10739107Y3386607D01*
X-10701012Y3386607D01*
X-10681964Y3377083D01*
X-10672440Y3358036D01*
X-10672440Y3338988D01*
X-10767679Y3319940D01*
X-10596250Y3262798D02*
X-10577202Y3253274D01*
X-10539107Y3253274D01*
X-10520060Y3262798D01*
X-10510536Y3281845D01*
X-10510536Y3291369D01*
X-10520060Y3310417D01*
X-10539107Y3319940D01*
X-10567679Y3319940D01*
X-10586726Y3329464D01*
X-10596250Y3348512D01*
X-10596250Y3358036D01*
X-10586726Y3377083D01*
X-10567679Y3386607D01*
X-10539107Y3386607D01*
X-10520060Y3377083D01*
X-10443869Y3177083D02*
X-10434345Y3186607D01*
X-10415298Y3215178D01*
X-10405774Y3234226D01*
X-10396250Y3262798D01*
X-10386726Y3310417D01*
X-10386726Y3348512D01*
X-10396250Y3396131D01*
X-10405774Y3424702D01*
X-10415298Y3443750D01*
X-10434345Y3472321D01*
X-10443869Y3481845D01*
X-10081964Y3177083D02*
X-10091488Y3186607D01*
X-10110536Y3215178D01*
X-10120060Y3234226D01*
X-10129583Y3262798D01*
X-10139107Y3310417D01*
X-10139107Y3348512D01*
X-10129583Y3396131D01*
X-10120060Y3424702D01*
X-10110536Y3443750D01*
X-10091488Y3472321D01*
X-10081964Y3481845D01*
X-10005774Y3386607D02*
X-10005774Y3253274D01*
X-10005774Y3367559D02*
X-9996250Y3377083D01*
X-9977202Y3386607D01*
X-9948631Y3386607D01*
X-9929583Y3377083D01*
X-9920060Y3358036D01*
X-9920060Y3253274D01*
X-9796250Y3253274D02*
X-9815298Y3262798D01*
X-9824821Y3272321D01*
X-9834345Y3291369D01*
X-9834345Y3348512D01*
X-9824821Y3367559D01*
X-9815298Y3377083D01*
X-9796250Y3386607D01*
X-9767679Y3386607D01*
X-9748631Y3377083D01*
X-9739107Y3367559D01*
X-9729583Y3348512D01*
X-9729583Y3291369D01*
X-9739107Y3272321D01*
X-9748631Y3262798D01*
X-9767679Y3253274D01*
X-9796250Y3253274D01*
X-9672440Y3386607D02*
X-9596250Y3386607D01*
X-9643869Y3453274D02*
X-9643869Y3281845D01*
X-9634345Y3262798D01*
X-9615298Y3253274D01*
X-9596250Y3253274D01*
X-9377202Y3386607D02*
X-9377202Y3186607D01*
X-9377202Y3377083D02*
X-9358155Y3386607D01*
X-9320060Y3386607D01*
X-9301012Y3377083D01*
X-9291488Y3367559D01*
X-9281964Y3348512D01*
X-9281964Y3291369D01*
X-9291488Y3272321D01*
X-9301012Y3262798D01*
X-9320060Y3253274D01*
X-9358155Y3253274D01*
X-9377202Y3262798D01*
X-9167679Y3253274D02*
X-9186726Y3262798D01*
X-9196250Y3281845D01*
X-9196250Y3453274D01*
X-9005774Y3253274D02*
X-9005774Y3358036D01*
X-9015298Y3377083D01*
X-9034345Y3386607D01*
X-9072440Y3386607D01*
X-9091488Y3377083D01*
X-9005774Y3262798D02*
X-9024821Y3253274D01*
X-9072440Y3253274D01*
X-9091488Y3262798D01*
X-9101012Y3281845D01*
X-9101012Y3300893D01*
X-9091488Y3319940D01*
X-9072440Y3329464D01*
X-9024821Y3329464D01*
X-9005774Y3338988D01*
X-8939107Y3386607D02*
X-8862917Y3386607D01*
X-8910536Y3453274D02*
X-8910536Y3281845D01*
X-8901012Y3262798D01*
X-8881964Y3253274D01*
X-8862917Y3253274D01*
X-8720060Y3262798D02*
X-8739107Y3253274D01*
X-8777202Y3253274D01*
X-8796250Y3262798D01*
X-8805774Y3281845D01*
X-8805774Y3358036D01*
X-8796250Y3377083D01*
X-8777202Y3386607D01*
X-8739107Y3386607D01*
X-8720060Y3377083D01*
X-8710536Y3358036D01*
X-8710536Y3338988D01*
X-8805774Y3319940D01*
X-8539107Y3253274D02*
X-8539107Y3453274D01*
X-8539107Y3262798D02*
X-8558155Y3253274D01*
X-8596250Y3253274D01*
X-8615298Y3262798D01*
X-8624821Y3272321D01*
X-8634345Y3291369D01*
X-8634345Y3348512D01*
X-8624821Y3367559D01*
X-8615298Y3377083D01*
X-8596250Y3386607D01*
X-8558155Y3386607D01*
X-8539107Y3377083D01*
X-8462917Y3177083D02*
X-8453393Y3186607D01*
X-8434345Y3215178D01*
X-8424821Y3234226D01*
X-8415298Y3262798D01*
X-8405774Y3310417D01*
X-8405774Y3348512D01*
X-8415298Y3396131D01*
X-8424821Y3424702D01*
X-8434345Y3443750D01*
X-8453393Y3472321D01*
X-8462917Y3481845D01*
M02*
