G04 #@! TF.GenerationSoftware,KiCad,Pcbnew,(6.0.9)*
G04 #@! TF.CreationDate,2023-03-10T16:35:17-06:00*
G04 #@! TF.ProjectId,BasePCB,42617365-5043-4422-9e6b-696361645f70,rev?*
G04 #@! TF.SameCoordinates,Original*
G04 #@! TF.FileFunction,Soldermask,Top*
G04 #@! TF.FilePolarity,Negative*
%FSLAX46Y46*%
G04 Gerber Fmt 4.6, Leading zero omitted, Abs format (unit mm)*
G04 Created by KiCad (PCBNEW (6.0.9)) date 2023-03-10 16:35:17*
%MOMM*%
%LPD*%
G01*
G04 APERTURE LIST*
G04 Aperture macros list*
%AMRoundRect*
0 Rectangle with rounded corners*
0 $1 Rounding radius*
0 $2 $3 $4 $5 $6 $7 $8 $9 X,Y pos of 4 corners*
0 Add a 4 corners polygon primitive as box body*
4,1,4,$2,$3,$4,$5,$6,$7,$8,$9,$2,$3,0*
0 Add four circle primitives for the rounded corners*
1,1,$1+$1,$2,$3*
1,1,$1+$1,$4,$5*
1,1,$1+$1,$6,$7*
1,1,$1+$1,$8,$9*
0 Add four rect primitives between the rounded corners*
20,1,$1+$1,$2,$3,$4,$5,0*
20,1,$1+$1,$4,$5,$6,$7,0*
20,1,$1+$1,$6,$7,$8,$9,0*
20,1,$1+$1,$8,$9,$2,$3,0*%
G04 Aperture macros list end*
%ADD10C,1.750000*%
%ADD11C,3.987800*%
%ADD12RoundRect,0.250000X-0.450000X0.262500X-0.450000X-0.262500X0.450000X-0.262500X0.450000X0.262500X0*%
%ADD13RoundRect,0.250000X0.250000X0.475000X-0.250000X0.475000X-0.250000X-0.475000X0.250000X-0.475000X0*%
%ADD14R,1.200000X0.900000*%
%ADD15RoundRect,0.250000X0.450000X-0.262500X0.450000X0.262500X-0.450000X0.262500X-0.450000X-0.262500X0*%
%ADD16R,1.800000X1.100000*%
%ADD17R,1.700000X1.700000*%
%ADD18O,1.700000X1.700000*%
%ADD19R,1.500000X0.550000*%
%ADD20R,0.550000X1.500000*%
%ADD21RoundRect,0.250000X0.475000X-0.250000X0.475000X0.250000X-0.475000X0.250000X-0.475000X-0.250000X0*%
%ADD22O,1.500000X2.000000*%
%ADD23C,3.500000*%
%ADD24R,1.400000X1.200000*%
%ADD25RoundRect,0.250000X0.625000X-0.375000X0.625000X0.375000X-0.625000X0.375000X-0.625000X-0.375000X0*%
%ADD26RoundRect,0.250000X-0.250000X-0.475000X0.250000X-0.475000X0.250000X0.475000X-0.250000X0.475000X0*%
%ADD27RoundRect,0.250000X-0.475000X0.250000X-0.475000X-0.250000X0.475000X-0.250000X0.475000X0.250000X0*%
G04 APERTURE END LIST*
D10*
X-70167500Y90487500D03*
D11*
X-65087500Y90487500D03*
D10*
X-60007500Y90487500D03*
D11*
X-41275000Y128587500D03*
D10*
X-36195000Y128587500D03*
X-46355000Y128587500D03*
D12*
X-128524000Y120546500D03*
X-128524000Y118721500D03*
D13*
X-114143750Y111125000D03*
X-116043750Y111125000D03*
D14*
X-19050000Y88837500D03*
X-19050000Y92137500D03*
D15*
X-107156250Y105450000D03*
X-107156250Y107275000D03*
D10*
X10795000Y128587500D03*
D11*
X15875000Y128587500D03*
D10*
X20955000Y128587500D03*
D14*
X128587500Y107887500D03*
X128587500Y111187500D03*
X-52387500Y126937500D03*
X-52387500Y130237500D03*
D10*
X59055000Y128587500D03*
D11*
X53975000Y128587500D03*
D10*
X48895000Y128587500D03*
D11*
X-36512500Y71437500D03*
D10*
X-31432500Y71437500D03*
X-41592500Y71437500D03*
X99536250Y52387500D03*
X89376250Y52387500D03*
D11*
X94456250Y52387500D03*
D16*
X-110819000Y66412500D03*
X-117019000Y70112500D03*
X-110819000Y70112500D03*
X-117019000Y66412500D03*
D14*
X0Y88837500D03*
X0Y92137500D03*
D10*
X-98742500Y109537500D03*
X-88582500Y109537500D03*
D11*
X-93662500Y109537500D03*
X165893750Y52387500D03*
D10*
X170973750Y52387500D03*
X160813750Y52387500D03*
D14*
X-90487500Y127000000D03*
X-90487500Y130300000D03*
D17*
X181675000Y101912500D03*
D18*
X184215000Y101912500D03*
X181675000Y99372500D03*
X184215000Y99372500D03*
X181675000Y96832500D03*
X184215000Y96832500D03*
X181675000Y94292500D03*
X184215000Y94292500D03*
X181675000Y91752500D03*
X184215000Y91752500D03*
X181675000Y89212500D03*
X184215000Y89212500D03*
X181675000Y86672500D03*
X184215000Y86672500D03*
X181675000Y84132500D03*
X184215000Y84132500D03*
X181675000Y81592500D03*
X184215000Y81592500D03*
X181675000Y79052500D03*
X184215000Y79052500D03*
D19*
X-124762500Y104806250D03*
X-124762500Y104006250D03*
X-124762500Y103206250D03*
X-124762500Y102406250D03*
X-124762500Y101606250D03*
X-124762500Y100806250D03*
X-124762500Y100006250D03*
X-124762500Y99206250D03*
X-124762500Y98406250D03*
X-124762500Y97606250D03*
X-124762500Y96806250D03*
D20*
X-123062500Y95106250D03*
X-122262500Y95106250D03*
X-121462500Y95106250D03*
X-120662500Y95106250D03*
X-119862500Y95106250D03*
X-119062500Y95106250D03*
X-118262500Y95106250D03*
X-117462500Y95106250D03*
X-116662500Y95106250D03*
X-115862500Y95106250D03*
X-115062500Y95106250D03*
D19*
X-113362500Y96806250D03*
X-113362500Y97606250D03*
X-113362500Y98406250D03*
X-113362500Y99206250D03*
X-113362500Y100006250D03*
X-113362500Y100806250D03*
X-113362500Y101606250D03*
X-113362500Y102406250D03*
X-113362500Y103206250D03*
X-113362500Y104006250D03*
X-113362500Y104806250D03*
D20*
X-115062500Y106506250D03*
X-115862500Y106506250D03*
X-116662500Y106506250D03*
X-117462500Y106506250D03*
X-118262500Y106506250D03*
X-119062500Y106506250D03*
X-119862500Y106506250D03*
X-120662500Y106506250D03*
X-121462500Y106506250D03*
X-122262500Y106506250D03*
X-123062500Y106506250D03*
D11*
X-55562500Y71437500D03*
D10*
X-50482500Y71437500D03*
X-60642500Y71437500D03*
D11*
X156368750Y90487500D03*
D10*
X151288750Y90487500D03*
X161448750Y90487500D03*
D14*
X-78581250Y69787500D03*
X-78581250Y73087500D03*
X38100000Y88837500D03*
X38100000Y92137500D03*
D10*
X144780000Y109537500D03*
X134620000Y109537500D03*
D11*
X139700000Y109537500D03*
D14*
X47625000Y69787500D03*
X47625000Y73087500D03*
X114300000Y88837500D03*
X114300000Y92137500D03*
D11*
X111125000Y128587500D03*
D10*
X106045000Y128587500D03*
X116205000Y128587500D03*
D14*
X173831250Y50737500D03*
X173831250Y54037500D03*
D21*
X-110744000Y77216000D03*
X-110744000Y79116000D03*
D14*
X-61912500Y107887500D03*
X-61912500Y111187500D03*
X4762500Y126937500D03*
X4762500Y130237500D03*
D10*
X-93345000Y128587500D03*
X-103505000Y128587500D03*
D11*
X-98425000Y128587500D03*
D14*
X30956250Y50737500D03*
X30956250Y54037500D03*
D11*
X44450000Y109537500D03*
D10*
X49530000Y109537500D03*
X39370000Y109537500D03*
X115570000Y109537500D03*
X125730000Y109537500D03*
D11*
X120650000Y109537500D03*
D14*
X-9525000Y69787500D03*
X-9525000Y73087500D03*
D21*
X-124618750Y88743750D03*
X-124618750Y90643750D03*
D14*
X100012500Y126937500D03*
X100012500Y130237500D03*
X-33337500Y126937500D03*
X-33337500Y130237500D03*
D10*
X-40957500Y90487500D03*
D11*
X-46037500Y90487500D03*
D10*
X-51117500Y90487500D03*
D11*
X87312500Y90487500D03*
D10*
X92392500Y90487500D03*
X82232500Y90487500D03*
D11*
X158750000Y128587500D03*
D10*
X153670000Y128587500D03*
X163830000Y128587500D03*
X137001250Y52387500D03*
X147161250Y52387500D03*
D11*
X142081250Y52387500D03*
X-26987500Y90487500D03*
D10*
X-32067500Y90487500D03*
X-21907500Y90487500D03*
D22*
X-124293750Y143115000D03*
X-126793750Y143115000D03*
X-128793750Y143115000D03*
X-131293750Y143115000D03*
D23*
X-134793750Y145825000D03*
X-120793750Y145825000D03*
D14*
X-64452500Y50737500D03*
X-64452500Y54037500D03*
X-23812500Y107887500D03*
X-23812500Y111187500D03*
D11*
X130175000Y128587500D03*
D10*
X135255000Y128587500D03*
X125095000Y128587500D03*
D11*
X106362500Y90487500D03*
D10*
X101282500Y90487500D03*
X111442500Y90487500D03*
D17*
X-149950000Y101937500D03*
D18*
X-152490000Y101937500D03*
X-149950000Y99397500D03*
X-152490000Y99397500D03*
X-149950000Y96857500D03*
X-152490000Y96857500D03*
X-149950000Y94317500D03*
X-152490000Y94317500D03*
X-149950000Y91777500D03*
X-152490000Y91777500D03*
X-149950000Y89237500D03*
X-152490000Y89237500D03*
X-149950000Y86697500D03*
X-152490000Y86697500D03*
X-149950000Y84157500D03*
X-152490000Y84157500D03*
X-149950000Y81617500D03*
X-152490000Y81617500D03*
X-149950000Y79077500D03*
X-152490000Y79077500D03*
D11*
X-48418750Y52387500D03*
D10*
X-53498750Y52387500D03*
X-43338750Y52387500D03*
D14*
X127000000Y50737500D03*
X127000000Y54037500D03*
X23812500Y126937500D03*
X23812500Y130237500D03*
D24*
X-116567500Y77297500D03*
X-114367500Y77297500D03*
X-114367500Y78997500D03*
X-116567500Y78997500D03*
D14*
X80962500Y126937500D03*
X80962500Y130237500D03*
X138112500Y126937500D03*
X138112500Y130237500D03*
D10*
X87630000Y109537500D03*
D11*
X82550000Y109537500D03*
D10*
X77470000Y109537500D03*
D14*
X-71437500Y126937500D03*
X-71437500Y130237500D03*
X-38100000Y88837500D03*
X-38100000Y92137500D03*
X14287500Y107887500D03*
X14287500Y111187500D03*
X102393750Y50737500D03*
X102393750Y54037500D03*
D10*
X53657500Y71437500D03*
D11*
X58737500Y71437500D03*
D10*
X63817500Y71437500D03*
D17*
X34448750Y143668750D03*
D18*
X34448750Y146208750D03*
X31908750Y143668750D03*
X31908750Y146208750D03*
X29368750Y143668750D03*
X29368750Y146208750D03*
X26828750Y143668750D03*
X26828750Y146208750D03*
X24288750Y143668750D03*
X24288750Y146208750D03*
X21748750Y143668750D03*
X21748750Y146208750D03*
X19208750Y143668750D03*
X19208750Y146208750D03*
X16668750Y143668750D03*
X16668750Y146208750D03*
X14128750Y143668750D03*
X14128750Y146208750D03*
X11588750Y143668750D03*
X11588750Y146208750D03*
D11*
X30162500Y90487500D03*
D10*
X25082500Y90487500D03*
X35242500Y90487500D03*
D14*
X-14287500Y126937500D03*
X-14287500Y130237500D03*
X66675000Y69787500D03*
X66675000Y73087500D03*
X90487500Y107887500D03*
X90487500Y111187500D03*
X42862500Y126937500D03*
X42862500Y130237500D03*
X164306250Y88837500D03*
X164306250Y92137500D03*
D21*
X-121443750Y77631250D03*
X-121443750Y79531250D03*
D14*
X71437500Y107887500D03*
X71437500Y111187500D03*
X150018750Y50737500D03*
X150018750Y54037500D03*
D10*
X-3492500Y71437500D03*
X6667500Y71437500D03*
D11*
X1587500Y71437500D03*
D14*
X159543750Y69787500D03*
X159543750Y73087500D03*
D11*
X151606250Y71437500D03*
D10*
X156686250Y71437500D03*
X146526250Y71437500D03*
D14*
X52387500Y107887500D03*
X52387500Y111187500D03*
D10*
X40005000Y128587500D03*
D11*
X34925000Y128587500D03*
D10*
X29845000Y128587500D03*
D25*
X-138112500Y110331250D03*
X-138112500Y113131250D03*
D11*
X23018750Y52387500D03*
D10*
X17938750Y52387500D03*
X28098750Y52387500D03*
X97155000Y128587500D03*
X86995000Y128587500D03*
D11*
X92075000Y128587500D03*
D14*
X76200000Y88837500D03*
X76200000Y92137500D03*
X-88106250Y50737500D03*
X-88106250Y54037500D03*
D11*
X-91281250Y90487500D03*
D10*
X-86201250Y90487500D03*
X-96361250Y90487500D03*
D14*
X-47625000Y69787500D03*
X-47625000Y73087500D03*
X28575000Y69787500D03*
X28575000Y73087500D03*
D10*
X6032500Y90487500D03*
D11*
X11112500Y90487500D03*
D10*
X16192500Y90487500D03*
X11430000Y109537500D03*
D11*
X6350000Y109537500D03*
D10*
X1270000Y109537500D03*
D11*
X-17462500Y71437500D03*
D10*
X-22542500Y71437500D03*
X-12382500Y71437500D03*
X-101123750Y52387500D03*
X-90963750Y52387500D03*
D11*
X-96043750Y52387500D03*
D14*
X61912500Y126937500D03*
X61912500Y130237500D03*
X57150000Y88837500D03*
X57150000Y92137500D03*
D10*
X25717500Y71437500D03*
D11*
X20637500Y71437500D03*
D10*
X15557500Y71437500D03*
X-36830000Y109537500D03*
X-26670000Y109537500D03*
D11*
X-31750000Y109537500D03*
D10*
X-17780000Y109537500D03*
D11*
X-12700000Y109537500D03*
D10*
X-7620000Y109537500D03*
X-17145000Y128587500D03*
D11*
X-22225000Y128587500D03*
D10*
X-27305000Y128587500D03*
D14*
X109537500Y107887500D03*
X109537500Y111187500D03*
D10*
X44767500Y71437500D03*
X34607500Y71437500D03*
D11*
X39687500Y71437500D03*
D14*
X-85725000Y107887500D03*
X-85725000Y111187500D03*
D10*
X-65405000Y128587500D03*
X-55245000Y128587500D03*
D11*
X-60325000Y128587500D03*
D26*
X-123187500Y111125000D03*
X-121287500Y111125000D03*
D10*
X20320000Y109537500D03*
D11*
X25400000Y109537500D03*
D10*
X30480000Y109537500D03*
D14*
X-40481250Y50737500D03*
X-40481250Y54037500D03*
D10*
X101917500Y71437500D03*
D11*
X96837500Y71437500D03*
D10*
X91757500Y71437500D03*
D14*
X85725000Y69787500D03*
X85725000Y73087500D03*
D10*
X73342500Y90487500D03*
D11*
X68262500Y90487500D03*
D10*
X63182500Y90487500D03*
D14*
X147637500Y107887500D03*
X147637500Y111187500D03*
D11*
X-3175000Y128587500D03*
D10*
X1905000Y128587500D03*
X-8255000Y128587500D03*
X-77470000Y52387500D03*
X-67310000Y52387500D03*
D11*
X-72390000Y52387500D03*
X77787500Y71437500D03*
D10*
X82867500Y71437500D03*
X72707500Y71437500D03*
D14*
X-83343750Y88837500D03*
X-83343750Y92137500D03*
X166687500Y126937500D03*
X166687500Y130237500D03*
X9525000Y69787500D03*
X9525000Y73087500D03*
D10*
X78105000Y128587500D03*
D11*
X73025000Y128587500D03*
D10*
X67945000Y128587500D03*
X-81438750Y71437500D03*
X-91598750Y71437500D03*
D11*
X-86518750Y71437500D03*
D10*
X-64770000Y109537500D03*
D11*
X-69850000Y109537500D03*
D10*
X-74930000Y109537500D03*
D14*
X-57150000Y88837500D03*
X-57150000Y92137500D03*
D21*
X-130975000Y100825000D03*
X-130975000Y102725000D03*
D14*
X33337500Y107887500D03*
X33337500Y111187500D03*
D11*
X-7937500Y90487500D03*
D10*
X-2857500Y90487500D03*
X-13017500Y90487500D03*
D11*
X115887500Y71437500D03*
D10*
X120967500Y71437500D03*
X110807500Y71437500D03*
X-55880000Y109537500D03*
D11*
X-50800000Y109537500D03*
D10*
X-45720000Y109537500D03*
D14*
X119062500Y126937500D03*
X119062500Y130237500D03*
D10*
X106680000Y109537500D03*
X96520000Y109537500D03*
D11*
X101600000Y109537500D03*
D10*
X124142500Y52387500D03*
D11*
X119062500Y52387500D03*
D10*
X113982500Y52387500D03*
D14*
X104775000Y69787500D03*
X104775000Y73087500D03*
D10*
X54292500Y90487500D03*
X44132500Y90487500D03*
D11*
X49212500Y90487500D03*
D14*
X-42862500Y107887500D03*
X-42862500Y111187500D03*
D11*
X125412500Y90487500D03*
D10*
X130492500Y90487500D03*
X120332500Y90487500D03*
D14*
X171450000Y107887500D03*
X171450000Y111187500D03*
D15*
X-128587500Y88781250D03*
X-128587500Y90606250D03*
D12*
X-126746000Y120546500D03*
X-126746000Y118721500D03*
D11*
X-79375000Y128587500D03*
D10*
X-84455000Y128587500D03*
X-74295000Y128587500D03*
D14*
X133350000Y88837500D03*
X133350000Y92137500D03*
D10*
X58420000Y109537500D03*
D11*
X63500000Y109537500D03*
D10*
X68580000Y109537500D03*
D14*
X-28575000Y69787500D03*
X-28575000Y73087500D03*
D27*
X-106362500Y97787500D03*
X-106362500Y95887500D03*
D14*
X19050000Y88837500D03*
X19050000Y92137500D03*
X123825000Y69787500D03*
X123825000Y73087500D03*
X-4762500Y107950000D03*
X-4762500Y111250000D03*
D10*
X158432500Y109537500D03*
D11*
X163512500Y109537500D03*
D10*
X168592500Y109537500D03*
D14*
X95250000Y88837500D03*
X95250000Y92137500D03*
M02*
