G04 #@! TF.GenerationSoftware,KiCad,Pcbnew,(6.0.9)*
G04 #@! TF.CreationDate,2023-03-10T16:35:17-06:00*
G04 #@! TF.ProjectId,BasePCB,42617365-5043-4422-9e6b-696361645f70,rev?*
G04 #@! TF.SameCoordinates,Original*
G04 #@! TF.FileFunction,Copper,L1,Top*
G04 #@! TF.FilePolarity,Positive*
%FSLAX46Y46*%
G04 Gerber Fmt 4.6, Leading zero omitted, Abs format (unit mm)*
G04 Created by KiCad (PCBNEW (6.0.9)) date 2023-03-10 16:35:17*
%MOMM*%
%LPD*%
G01*
G04 APERTURE LIST*
G04 Aperture macros list*
%AMRoundRect*
0 Rectangle with rounded corners*
0 $1 Rounding radius*
0 $2 $3 $4 $5 $6 $7 $8 $9 X,Y pos of 4 corners*
0 Add a 4 corners polygon primitive as box body*
4,1,4,$2,$3,$4,$5,$6,$7,$8,$9,$2,$3,0*
0 Add four circle primitives for the rounded corners*
1,1,$1+$1,$2,$3*
1,1,$1+$1,$4,$5*
1,1,$1+$1,$6,$7*
1,1,$1+$1,$8,$9*
0 Add four rect primitives between the rounded corners*
20,1,$1+$1,$2,$3,$4,$5,0*
20,1,$1+$1,$4,$5,$6,$7,0*
20,1,$1+$1,$6,$7,$8,$9,0*
20,1,$1+$1,$8,$9,$2,$3,0*%
%AMHorizOval*
0 Thick line with rounded ends*
0 $1 width*
0 $2 $3 position (X,Y) of the first rounded end (center of the circle)*
0 $4 $5 position (X,Y) of the second rounded end (center of the circle)*
0 Add line between two ends*
20,1,$1,$2,$3,$4,$5,0*
0 Add two circle primitives to create the rounded ends*
1,1,$1,$2,$3*
1,1,$1,$4,$5*%
G04 Aperture macros list end*
G04 #@! TA.AperFunction,ComponentPad*
%ADD10HorizOval,2.250000X0.655001X0.730000X-0.655001X-0.730000X0*%
G04 #@! TD*
G04 #@! TA.AperFunction,ComponentPad*
%ADD11C,2.250000*%
G04 #@! TD*
G04 #@! TA.AperFunction,ComponentPad*
%ADD12HorizOval,2.250000X0.020000X0.290000X-0.020000X-0.290000X0*%
G04 #@! TD*
G04 #@! TA.AperFunction,SMDPad,CuDef*
%ADD13RoundRect,0.250000X-0.450000X0.262500X-0.450000X-0.262500X0.450000X-0.262500X0.450000X0.262500X0*%
G04 #@! TD*
G04 #@! TA.AperFunction,SMDPad,CuDef*
%ADD14RoundRect,0.250000X0.250000X0.475000X-0.250000X0.475000X-0.250000X-0.475000X0.250000X-0.475000X0*%
G04 #@! TD*
G04 #@! TA.AperFunction,SMDPad,CuDef*
%ADD15R,1.200000X0.900000*%
G04 #@! TD*
G04 #@! TA.AperFunction,SMDPad,CuDef*
%ADD16RoundRect,0.250000X0.450000X-0.262500X0.450000X0.262500X-0.450000X0.262500X-0.450000X-0.262500X0*%
G04 #@! TD*
G04 #@! TA.AperFunction,SMDPad,CuDef*
%ADD17R,1.800000X1.100000*%
G04 #@! TD*
G04 #@! TA.AperFunction,ComponentPad*
%ADD18R,1.700000X1.700000*%
G04 #@! TD*
G04 #@! TA.AperFunction,ComponentPad*
%ADD19O,1.700000X1.700000*%
G04 #@! TD*
G04 #@! TA.AperFunction,SMDPad,CuDef*
%ADD20R,1.500000X0.550000*%
G04 #@! TD*
G04 #@! TA.AperFunction,SMDPad,CuDef*
%ADD21R,0.550000X1.500000*%
G04 #@! TD*
G04 #@! TA.AperFunction,SMDPad,CuDef*
%ADD22RoundRect,0.250000X0.475000X-0.250000X0.475000X0.250000X-0.475000X0.250000X-0.475000X-0.250000X0*%
G04 #@! TD*
G04 #@! TA.AperFunction,ComponentPad*
%ADD23O,1.500000X2.000000*%
G04 #@! TD*
G04 #@! TA.AperFunction,ComponentPad*
%ADD24C,3.500000*%
G04 #@! TD*
G04 #@! TA.AperFunction,SMDPad,CuDef*
%ADD25R,1.400000X1.200000*%
G04 #@! TD*
G04 #@! TA.AperFunction,SMDPad,CuDef*
%ADD26RoundRect,0.250000X0.625000X-0.375000X0.625000X0.375000X-0.625000X0.375000X-0.625000X-0.375000X0*%
G04 #@! TD*
G04 #@! TA.AperFunction,SMDPad,CuDef*
%ADD27RoundRect,0.250000X-0.250000X-0.475000X0.250000X-0.475000X0.250000X0.475000X-0.250000X0.475000X0*%
G04 #@! TD*
G04 #@! TA.AperFunction,SMDPad,CuDef*
%ADD28RoundRect,0.250000X-0.475000X0.250000X-0.475000X-0.250000X0.475000X-0.250000X0.475000X0.250000X0*%
G04 #@! TD*
G04 #@! TA.AperFunction,ViaPad*
%ADD29C,0.800000*%
G04 #@! TD*
G04 #@! TA.AperFunction,Conductor*
%ADD30C,0.381000*%
G04 #@! TD*
G04 #@! TA.AperFunction,Conductor*
%ADD31C,0.254000*%
G04 #@! TD*
G04 #@! TA.AperFunction,Conductor*
%ADD32C,0.200000*%
G04 #@! TD*
G04 APERTURE END LIST*
D10*
X-68242499Y93757500D03*
D11*
X-67587500Y94487500D03*
X-62547500Y95567500D03*
D12*
X-62567500Y95277500D03*
D10*
X-44429999Y131857500D03*
D11*
X-43775000Y132587500D03*
D12*
X-38755000Y133377500D03*
D11*
X-38735000Y133667500D03*
D13*
X-128524000Y120546500D03*
X-128524000Y118721500D03*
D14*
X-114143750Y111125000D03*
X-116043750Y111125000D03*
D15*
X-19050000Y88837500D03*
X-19050000Y92137500D03*
D16*
X-107156250Y105450000D03*
X-107156250Y107275000D03*
D10*
X12720001Y131857500D03*
D11*
X13375000Y132587500D03*
X18415000Y133667500D03*
D12*
X18395000Y133377500D03*
D15*
X128587500Y107887500D03*
X128587500Y111187500D03*
X-52387500Y126937500D03*
X-52387500Y130237500D03*
D10*
X50820001Y131857500D03*
D11*
X51475000Y132587500D03*
X56515000Y133667500D03*
D12*
X56495000Y133377500D03*
D11*
X-39012500Y75437500D03*
D10*
X-39667499Y74707500D03*
D12*
X-33992500Y76227500D03*
D11*
X-33972500Y76517500D03*
D10*
X91301251Y55657500D03*
D11*
X91956250Y56387500D03*
X96996250Y57467500D03*
D12*
X96976250Y57177500D03*
D17*
X-110819000Y66412500D03*
X-117019000Y70112500D03*
X-110819000Y70112500D03*
X-117019000Y66412500D03*
D15*
X0Y88837500D03*
X0Y92137500D03*
D10*
X-96817499Y112807500D03*
D11*
X-96162500Y113537500D03*
X-91122500Y114617500D03*
D12*
X-91142500Y114327500D03*
D11*
X163393750Y56387500D03*
D10*
X162738751Y55657500D03*
D11*
X168433750Y57467500D03*
D12*
X168413750Y57177500D03*
D15*
X-90487500Y127000000D03*
X-90487500Y130300000D03*
D18*
X181675000Y101912500D03*
D19*
X184215000Y101912500D03*
X181675000Y99372500D03*
X184215000Y99372500D03*
X181675000Y96832500D03*
X184215000Y96832500D03*
X181675000Y94292500D03*
X184215000Y94292500D03*
X181675000Y91752500D03*
X184215000Y91752500D03*
X181675000Y89212500D03*
X184215000Y89212500D03*
X181675000Y86672500D03*
X184215000Y86672500D03*
X181675000Y84132500D03*
X184215000Y84132500D03*
X181675000Y81592500D03*
X184215000Y81592500D03*
X181675000Y79052500D03*
X184215000Y79052500D03*
D20*
X-124762500Y104806250D03*
X-124762500Y104006250D03*
X-124762500Y103206250D03*
X-124762500Y102406250D03*
X-124762500Y101606250D03*
X-124762500Y100806250D03*
X-124762500Y100006250D03*
X-124762500Y99206250D03*
X-124762500Y98406250D03*
X-124762500Y97606250D03*
X-124762500Y96806250D03*
D21*
X-123062500Y95106250D03*
X-122262500Y95106250D03*
X-121462500Y95106250D03*
X-120662500Y95106250D03*
X-119862500Y95106250D03*
X-119062500Y95106250D03*
X-118262500Y95106250D03*
X-117462500Y95106250D03*
X-116662500Y95106250D03*
X-115862500Y95106250D03*
X-115062500Y95106250D03*
D20*
X-113362500Y96806250D03*
X-113362500Y97606250D03*
X-113362500Y98406250D03*
X-113362500Y99206250D03*
X-113362500Y100006250D03*
X-113362500Y100806250D03*
X-113362500Y101606250D03*
X-113362500Y102406250D03*
X-113362500Y103206250D03*
X-113362500Y104006250D03*
X-113362500Y104806250D03*
D21*
X-115062500Y106506250D03*
X-115862500Y106506250D03*
X-116662500Y106506250D03*
X-117462500Y106506250D03*
X-118262500Y106506250D03*
X-119062500Y106506250D03*
X-119862500Y106506250D03*
X-120662500Y106506250D03*
X-121462500Y106506250D03*
X-122262500Y106506250D03*
X-123062500Y106506250D03*
D11*
X-58062500Y75437500D03*
D10*
X-58717499Y74707500D03*
D12*
X-53042500Y76227500D03*
D11*
X-53022500Y76517500D03*
D10*
X153213751Y93757500D03*
D11*
X153868750Y94487500D03*
X158908750Y95567500D03*
D12*
X158888750Y95277500D03*
D15*
X-78581250Y69787500D03*
X-78581250Y73087500D03*
X38100000Y88837500D03*
X38100000Y92137500D03*
D11*
X137200000Y113537500D03*
D10*
X136545001Y112807500D03*
D12*
X142220000Y114327500D03*
D11*
X142240000Y114617500D03*
D15*
X47625000Y69787500D03*
X47625000Y73087500D03*
X114300000Y88837500D03*
X114300000Y92137500D03*
D10*
X107970001Y131857500D03*
D11*
X108625000Y132587500D03*
X113665000Y133667500D03*
D12*
X113645000Y133377500D03*
D15*
X173831250Y50737500D03*
X173831250Y54037500D03*
D22*
X-110744000Y77216000D03*
X-110744000Y79116000D03*
D15*
X-61912500Y107887500D03*
X-61912500Y111187500D03*
X4762500Y126937500D03*
X4762500Y130237500D03*
D11*
X-100925000Y132587500D03*
D10*
X-101579999Y131857500D03*
D12*
X-95905000Y133377500D03*
D11*
X-95885000Y133667500D03*
D15*
X30956250Y50737500D03*
X30956250Y54037500D03*
D11*
X41950000Y113537500D03*
D10*
X41295001Y112807500D03*
D12*
X46970000Y114327500D03*
D11*
X46990000Y114617500D03*
X118150000Y113537500D03*
D10*
X117495001Y112807500D03*
D12*
X123170000Y114327500D03*
D11*
X123190000Y114617500D03*
D15*
X-9525000Y69787500D03*
X-9525000Y73087500D03*
D22*
X-124618750Y88743750D03*
X-124618750Y90643750D03*
D15*
X100012500Y126937500D03*
X100012500Y130237500D03*
X-33337500Y126937500D03*
X-33337500Y130237500D03*
D11*
X-48537500Y94487500D03*
D10*
X-49192499Y93757500D03*
D12*
X-43517500Y95277500D03*
D11*
X-43497500Y95567500D03*
D10*
X84157501Y93757500D03*
D11*
X84812500Y94487500D03*
X89852500Y95567500D03*
D12*
X89832500Y95277500D03*
D11*
X156250000Y132587500D03*
D10*
X155595001Y131857500D03*
D12*
X161270000Y133377500D03*
D11*
X161290000Y133667500D03*
X139581250Y56387500D03*
D10*
X138926251Y55657500D03*
D11*
X144621250Y57467500D03*
D12*
X144601250Y57177500D03*
D11*
X-29487500Y94487500D03*
D10*
X-30142499Y93757500D03*
D11*
X-24447500Y95567500D03*
D12*
X-24467500Y95277500D03*
D23*
X-124293750Y143115000D03*
X-126793750Y143115000D03*
X-128793750Y143115000D03*
X-131293750Y143115000D03*
D24*
X-134793750Y145825000D03*
X-120793750Y145825000D03*
D15*
X-64452500Y50737500D03*
X-64452500Y54037500D03*
X-23812500Y107887500D03*
X-23812500Y111187500D03*
D11*
X127675000Y132587500D03*
D10*
X127020001Y131857500D03*
D11*
X132715000Y133667500D03*
D12*
X132695000Y133377500D03*
D11*
X103862500Y94487500D03*
D10*
X103207501Y93757500D03*
D12*
X108882500Y95277500D03*
D11*
X108902500Y95567500D03*
D18*
X-149950000Y101937500D03*
D19*
X-152490000Y101937500D03*
X-149950000Y99397500D03*
X-152490000Y99397500D03*
X-149950000Y96857500D03*
X-152490000Y96857500D03*
X-149950000Y94317500D03*
X-152490000Y94317500D03*
X-149950000Y91777500D03*
X-152490000Y91777500D03*
X-149950000Y89237500D03*
X-152490000Y89237500D03*
X-149950000Y86697500D03*
X-152490000Y86697500D03*
X-149950000Y84157500D03*
X-152490000Y84157500D03*
X-149950000Y81617500D03*
X-152490000Y81617500D03*
X-149950000Y79077500D03*
X-152490000Y79077500D03*
D11*
X-50918750Y56387500D03*
D10*
X-51573749Y55657500D03*
D12*
X-45898750Y57177500D03*
D11*
X-45878750Y57467500D03*
D15*
X127000000Y50737500D03*
X127000000Y54037500D03*
X23812500Y126937500D03*
X23812500Y130237500D03*
D25*
X-116567500Y77297500D03*
X-114367500Y77297500D03*
X-114367500Y78997500D03*
X-116567500Y78997500D03*
D15*
X80962500Y126937500D03*
X80962500Y130237500D03*
X138112500Y126937500D03*
X138112500Y130237500D03*
D10*
X79395001Y112807500D03*
D11*
X80050000Y113537500D03*
X85090000Y114617500D03*
D12*
X85070000Y114327500D03*
D15*
X-71437500Y126937500D03*
X-71437500Y130237500D03*
X-38100000Y88837500D03*
X-38100000Y92137500D03*
X14287500Y107887500D03*
X14287500Y111187500D03*
X102393750Y50737500D03*
X102393750Y54037500D03*
D11*
X56237500Y75437500D03*
D10*
X55582501Y74707500D03*
D11*
X61277500Y76517500D03*
D12*
X61257500Y76227500D03*
D18*
X34448750Y143668750D03*
D19*
X34448750Y146208750D03*
X31908750Y143668750D03*
X31908750Y146208750D03*
X29368750Y143668750D03*
X29368750Y146208750D03*
X26828750Y143668750D03*
X26828750Y146208750D03*
X24288750Y143668750D03*
X24288750Y146208750D03*
X21748750Y143668750D03*
X21748750Y146208750D03*
X19208750Y143668750D03*
X19208750Y146208750D03*
X16668750Y143668750D03*
X16668750Y146208750D03*
X14128750Y143668750D03*
X14128750Y146208750D03*
X11588750Y143668750D03*
X11588750Y146208750D03*
D11*
X27662500Y94487500D03*
D10*
X27007501Y93757500D03*
D11*
X32702500Y95567500D03*
D12*
X32682500Y95277500D03*
D15*
X-14287500Y126937500D03*
X-14287500Y130237500D03*
X66675000Y69787500D03*
X66675000Y73087500D03*
X90487500Y107887500D03*
X90487500Y111187500D03*
X42862500Y126937500D03*
X42862500Y130237500D03*
X164306250Y88837500D03*
X164306250Y92137500D03*
D22*
X-121443750Y77631250D03*
X-121443750Y79531250D03*
D15*
X71437500Y107887500D03*
X71437500Y111187500D03*
X150018750Y50737500D03*
X150018750Y54037500D03*
D10*
X-1567499Y74707500D03*
D11*
X-912500Y75437500D03*
D12*
X4107500Y76227500D03*
D11*
X4127500Y76517500D03*
D15*
X159543750Y69787500D03*
X159543750Y73087500D03*
D10*
X148451251Y74707500D03*
D11*
X149106250Y75437500D03*
X154146250Y76517500D03*
D12*
X154126250Y76227500D03*
D15*
X52387500Y107887500D03*
X52387500Y111187500D03*
D11*
X32425000Y132587500D03*
D10*
X31770001Y131857500D03*
D12*
X37445000Y133377500D03*
D11*
X37465000Y133667500D03*
D26*
X-138112500Y110331250D03*
X-138112500Y113131250D03*
D11*
X20518750Y56387500D03*
D10*
X19863751Y55657500D03*
D12*
X25538750Y57177500D03*
D11*
X25558750Y57467500D03*
X89575000Y132587500D03*
D10*
X88920001Y131857500D03*
D12*
X94595000Y133377500D03*
D11*
X94615000Y133667500D03*
D15*
X76200000Y88837500D03*
X76200000Y92137500D03*
X-88106250Y50737500D03*
X-88106250Y54037500D03*
D11*
X-93781250Y94487500D03*
D10*
X-94436249Y93757500D03*
D11*
X-88741250Y95567500D03*
D12*
X-88761250Y95277500D03*
D15*
X-47625000Y69787500D03*
X-47625000Y73087500D03*
X28575000Y69787500D03*
X28575000Y73087500D03*
D10*
X7957501Y93757500D03*
D11*
X8612500Y94487500D03*
D12*
X13632500Y95277500D03*
D11*
X13652500Y95567500D03*
X3850000Y113537500D03*
D10*
X3195001Y112807500D03*
D11*
X8890000Y114617500D03*
D12*
X8870000Y114327500D03*
D11*
X-19962500Y75437500D03*
D10*
X-20617499Y74707500D03*
D11*
X-14922500Y76517500D03*
D12*
X-14942500Y76227500D03*
D10*
X-99198749Y55657500D03*
D11*
X-98543750Y56387500D03*
X-93503750Y57467500D03*
D12*
X-93523750Y57177500D03*
D15*
X61912500Y126937500D03*
X61912500Y130237500D03*
X57150000Y88837500D03*
X57150000Y92137500D03*
D11*
X18137500Y75437500D03*
D10*
X17482501Y74707500D03*
D12*
X23157500Y76227500D03*
D11*
X23177500Y76517500D03*
D10*
X-34904999Y112807500D03*
D11*
X-34250000Y113537500D03*
X-29210000Y114617500D03*
D12*
X-29230000Y114327500D03*
D11*
X-15200000Y113537500D03*
D10*
X-15854999Y112807500D03*
D12*
X-10180000Y114327500D03*
D11*
X-10160000Y114617500D03*
D10*
X-25379999Y131857500D03*
D11*
X-24725000Y132587500D03*
X-19685000Y133667500D03*
D12*
X-19705000Y133377500D03*
D15*
X109537500Y107887500D03*
X109537500Y111187500D03*
D10*
X36532501Y74707500D03*
D11*
X37187500Y75437500D03*
D12*
X42207500Y76227500D03*
D11*
X42227500Y76517500D03*
D15*
X-85725000Y107887500D03*
X-85725000Y111187500D03*
D10*
X-63479999Y131857500D03*
D11*
X-62825000Y132587500D03*
X-57785000Y133667500D03*
D12*
X-57805000Y133377500D03*
D27*
X-123187500Y111125000D03*
X-121287500Y111125000D03*
D10*
X22245001Y112807500D03*
D11*
X22900000Y113537500D03*
D12*
X27920000Y114327500D03*
D11*
X27940000Y114617500D03*
D15*
X-40481250Y50737500D03*
X-40481250Y54037500D03*
D10*
X93682501Y74707500D03*
D11*
X94337500Y75437500D03*
D12*
X99357500Y76227500D03*
D11*
X99377500Y76517500D03*
D15*
X85725000Y69787500D03*
X85725000Y73087500D03*
D10*
X65107501Y93757500D03*
D11*
X65762500Y94487500D03*
X70802500Y95567500D03*
D12*
X70782500Y95277500D03*
D15*
X147637500Y107887500D03*
X147637500Y111187500D03*
D11*
X-5675000Y132587500D03*
D10*
X-6329999Y131857500D03*
D11*
X-635000Y133667500D03*
D12*
X-655000Y133377500D03*
D11*
X-74890000Y56387500D03*
D10*
X-75544999Y55657500D03*
D12*
X-69870000Y57177500D03*
D11*
X-69850000Y57467500D03*
D10*
X74632501Y74707500D03*
D11*
X75287500Y75437500D03*
D12*
X80307500Y76227500D03*
D11*
X80327500Y76517500D03*
D15*
X-83343750Y88837500D03*
X-83343750Y92137500D03*
X166687500Y126937500D03*
X166687500Y130237500D03*
X9525000Y69787500D03*
X9525000Y73087500D03*
D11*
X70525000Y132587500D03*
D10*
X69870001Y131857500D03*
D11*
X75565000Y133667500D03*
D12*
X75545000Y133377500D03*
D10*
X-89673749Y74707500D03*
D11*
X-89018750Y75437500D03*
D12*
X-83998750Y76227500D03*
D11*
X-83978750Y76517500D03*
D10*
X-73004999Y112807500D03*
D11*
X-72350000Y113537500D03*
X-67310000Y114617500D03*
D12*
X-67330000Y114327500D03*
D15*
X-57150000Y88837500D03*
X-57150000Y92137500D03*
D22*
X-130975000Y100825000D03*
X-130975000Y102725000D03*
D15*
X33337500Y107887500D03*
X33337500Y111187500D03*
D11*
X-10437500Y94487500D03*
D10*
X-11092499Y93757500D03*
D12*
X-5417500Y95277500D03*
D11*
X-5397500Y95567500D03*
D10*
X112732501Y74707500D03*
D11*
X113387500Y75437500D03*
X118427500Y76517500D03*
D12*
X118407500Y76227500D03*
D10*
X-53954999Y112807500D03*
D11*
X-53300000Y113537500D03*
D12*
X-48280000Y114327500D03*
D11*
X-48260000Y114617500D03*
D15*
X119062500Y126937500D03*
X119062500Y130237500D03*
D10*
X98445001Y112807500D03*
D11*
X99100000Y113537500D03*
D12*
X104120000Y114327500D03*
D11*
X104140000Y114617500D03*
D10*
X115907501Y55657500D03*
D11*
X116562500Y56387500D03*
D12*
X121582500Y57177500D03*
D11*
X121602500Y57467500D03*
D15*
X104775000Y69787500D03*
X104775000Y73087500D03*
D11*
X46712500Y94487500D03*
D10*
X46057501Y93757500D03*
D11*
X51752500Y95567500D03*
D12*
X51732500Y95277500D03*
D15*
X-42862500Y107887500D03*
X-42862500Y111187500D03*
D10*
X122257501Y93757500D03*
D11*
X122912500Y94487500D03*
X127952500Y95567500D03*
D12*
X127932500Y95277500D03*
D15*
X171450000Y107887500D03*
X171450000Y111187500D03*
D16*
X-128587500Y88781250D03*
X-128587500Y90606250D03*
D13*
X-126746000Y120546500D03*
X-126746000Y118721500D03*
D10*
X-82529999Y131857500D03*
D11*
X-81875000Y132587500D03*
D12*
X-76855000Y133377500D03*
D11*
X-76835000Y133667500D03*
D15*
X133350000Y88837500D03*
X133350000Y92137500D03*
D10*
X60345001Y112807500D03*
D11*
X61000000Y113537500D03*
X66040000Y114617500D03*
D12*
X66020000Y114327500D03*
D15*
X-28575000Y69787500D03*
X-28575000Y73087500D03*
D28*
X-106362500Y97787500D03*
X-106362500Y95887500D03*
D15*
X19050000Y88837500D03*
X19050000Y92137500D03*
X123825000Y69787500D03*
X123825000Y73087500D03*
X-4762500Y107950000D03*
X-4762500Y111250000D03*
D10*
X160357501Y112807500D03*
D11*
X161012500Y113537500D03*
D12*
X166032500Y114327500D03*
D11*
X166052500Y114617500D03*
D15*
X95250000Y88837500D03*
X95250000Y92137500D03*
D29*
X-123317000Y100816250D03*
X47625000Y99949000D03*
X-123323750Y102396250D03*
X45720000Y99949000D03*
X34925000Y95885000D03*
X-124587000Y68961000D03*
X139192000Y99949000D03*
X-113919000Y63500000D03*
X103378000Y99949000D03*
X122047000Y99949000D03*
X123825000Y99949000D03*
X-111150000Y97606250D03*
X65179000Y99949000D03*
X-108743750Y97631250D03*
X82550000Y99949000D03*
X63500000Y99949000D03*
X136007760Y99939760D03*
X101473000Y99949000D03*
X-124587000Y80518000D03*
X84229000Y99949000D03*
X-139650000Y71900000D03*
X-97790000Y62230000D03*
X-107696000Y62230000D03*
X-129921000Y134112000D03*
X92075000Y63373000D03*
X164592000Y66040000D03*
X-110109000Y62230000D03*
X-126111000Y89571250D03*
X-21999000Y62232258D03*
X-127758036Y71889464D03*
X-3556000Y62230000D03*
X16002000Y62230000D03*
X35306000Y62299250D03*
X-42672000Y62230000D03*
X-60099000Y62230000D03*
X17554000Y62299250D03*
X94361000Y63933750D03*
X-44382750Y62230000D03*
X-117475000Y97917000D03*
X-20449258Y62232258D03*
X-126111000Y87630000D03*
X-110835500Y96012000D03*
X-99270250Y62230000D03*
X169820000Y66802000D03*
X54102000Y63373000D03*
X-883286Y62235714D03*
X-58547000Y62230000D03*
X-109220000Y96012000D03*
X37057964Y62753250D03*
X-117475000Y99822000D03*
X12850000Y139862500D03*
X55753000Y63373000D03*
X-123444000Y78740000D03*
X-119062500Y86014500D03*
X-94869000Y123698000D03*
X23538334Y125111666D03*
X-81788000Y125095000D03*
X156718000Y125095000D03*
X19939000Y125095000D03*
X128270000Y125095000D03*
X40275666Y125111666D03*
X59817000Y125095000D03*
X57023000Y125095000D03*
X109728000Y125095000D03*
X124968000Y125095000D03*
X-15494000Y125095000D03*
X75438000Y125095000D03*
X762000Y125095000D03*
X-36576000Y125095000D03*
X-34036000Y125095000D03*
X97282000Y125095000D03*
X107823000Y125095000D03*
X3175000Y125095000D03*
X79375000Y125095000D03*
X-53594000Y125095000D03*
X-17653000Y125095000D03*
X-98171000Y123698000D03*
X94107000Y125095000D03*
X-84455000Y125095000D03*
X42572738Y125111666D03*
X-55880000Y125095000D03*
X153416000Y125095000D03*
X138049000Y105410000D03*
X-31242000Y105410000D03*
X100457000Y105410000D03*
X26289000Y105410000D03*
X-47371000Y105410000D03*
X-68834000Y105410000D03*
X122809000Y105410000D03*
X6985000Y105410000D03*
X63246000Y105410000D03*
X-50292000Y105410000D03*
X84963000Y105410000D03*
X28829000Y105410000D03*
X118999000Y105410000D03*
X81915000Y105410000D03*
X-9652000Y105410000D03*
X65532000Y105410000D03*
X-66548000Y105410000D03*
X-107188000Y102489000D03*
X103886000Y105410000D03*
X133731000Y105410000D03*
X47752000Y105410000D03*
X-12827000Y105410000D03*
X9906000Y105410000D03*
X-28448000Y105410000D03*
X44196000Y105410000D03*
X-92329000Y105410000D03*
X-124587000Y115316000D03*
X-124587000Y111887000D03*
X172974000Y100838000D03*
X-121539000Y125730000D03*
X-148431250Y110331250D03*
X-150812500Y110331250D03*
X157480000Y121539000D03*
X173155500Y98987500D03*
X65179000Y97663000D03*
X-68453000Y97663000D03*
X-28761000Y97663000D03*
X26543000Y97663000D03*
X103378000Y97663000D03*
X82550000Y97663000D03*
X151638000Y98044000D03*
X9398000Y97663000D03*
X-30734000Y97663000D03*
X-143256000Y115887500D03*
X-144462500Y109537500D03*
X137668000Y97663000D03*
X-110236000Y108966000D03*
X-110398500Y122682000D03*
X28448000Y97663000D03*
X148844000Y97825500D03*
X-139573000Y122682000D03*
X-9398000Y97663000D03*
X84328000Y97663000D03*
X38562000Y97663000D03*
X-66861000Y97663000D03*
X29500000Y130275000D03*
X7493000Y97663000D03*
X101600000Y97663000D03*
X37175000Y106136500D03*
X140493750Y97631250D03*
X47498000Y97663000D03*
X-49276000Y97663000D03*
X-110250000Y101679750D03*
X-11430000Y97663000D03*
X29301500Y125850000D03*
X122047000Y97663000D03*
X31900000Y138521500D03*
X45847000Y97663000D03*
X29325000Y124385166D03*
X-47811000Y97663000D03*
X34036000Y97663000D03*
X123698000Y97663000D03*
X63500000Y97663000D03*
X103279000Y98775000D03*
X-47800000Y98825000D03*
X32525000Y120500000D03*
X26525000Y98800000D03*
X101825000Y98775000D03*
X-9711000Y98825000D03*
X-99325000Y59625000D03*
X-140116500Y98225000D03*
X36250000Y98775000D03*
X28425000Y98775000D03*
X-28761000Y98825000D03*
X-30225000Y98825000D03*
X65179000Y98775000D03*
X33225000Y138521500D03*
X-119100000Y59625000D03*
X122100000Y98775000D03*
X-49475000Y98825000D03*
X-97725000Y59625000D03*
X63450000Y98775000D03*
X84250000Y98775000D03*
X-111125000Y100838000D03*
X-138625000Y81775000D03*
X-130464500Y59625000D03*
X-11375000Y98825000D03*
X161025000Y97000000D03*
X45800000Y98775000D03*
X-108300000Y59625000D03*
X-110100000Y59625000D03*
X47550000Y98775000D03*
X-111125000Y110490000D03*
X33911473Y98782702D03*
X7725000Y98825000D03*
X82525000Y98775000D03*
X9425000Y98825000D03*
X-137750000Y59625000D03*
X32525000Y124050000D03*
X-115875000Y59625000D03*
X-126619000Y109347000D03*
X-126619000Y115189000D03*
X-127762000Y109220000D03*
X-127762000Y115189000D03*
X-126873000Y91059000D03*
X-128524000Y85090000D03*
X-122252500Y93881000D03*
X-123190000Y91821000D03*
X-47811000Y103124000D03*
X81407000Y102489000D03*
X168783000Y100777500D03*
X-145275000Y106375000D03*
X-118237000Y109601000D03*
X85217000Y102489000D03*
X7874000Y103124000D03*
X134874000Y102489000D03*
X-128488500Y108331000D03*
X-106771500Y114554000D03*
X104140000Y102489000D03*
X-68834000Y103124000D03*
X9779000Y103124000D03*
X-94742000Y103124000D03*
X-145375000Y85475000D03*
X100711000Y102489000D03*
X-109509500Y114554000D03*
X-105283000Y113030000D03*
X65913000Y102489000D03*
X-9711000Y103124000D03*
X44323000Y102616000D03*
X136652000Y102489000D03*
X-92837000Y103124000D03*
X25908000Y103124000D03*
X28575000Y103124000D03*
X121285000Y102489000D03*
X62484000Y102489000D03*
X-118262500Y108102500D03*
X-112903000Y114554000D03*
X-49657000Y103124000D03*
X171069000Y87122000D03*
X-11176000Y103124000D03*
X-28761000Y103124000D03*
X-30226000Y103124000D03*
X-66802000Y103124000D03*
X124460000Y102489000D03*
X48260000Y102489000D03*
X-106680000Y86741000D03*
X37465000Y86741000D03*
X16129000Y86741000D03*
X110617000Y86741000D03*
X-44958000Y86741000D03*
X71374000Y86741000D03*
X18923000Y86741000D03*
X122809000Y86741000D03*
X34798000Y86741000D03*
X-87757000Y86741000D03*
X84455000Y86741000D03*
X56642000Y86741000D03*
X-61849000Y86741000D03*
X113157000Y86741000D03*
X125603000Y86741000D03*
X-2032000Y86741000D03*
X-32512000Y86741000D03*
X-58293000Y86741000D03*
X-4699000Y86741000D03*
X74168000Y86741000D03*
X53848000Y86741000D03*
X82677000Y86741000D03*
X-124587000Y93881000D03*
X-29591000Y86741000D03*
X-91059000Y86741000D03*
X-41656000Y86741000D03*
X-3556000Y68072000D03*
X-95885000Y68072000D03*
X-92329000Y68072000D03*
X15875000Y68072000D03*
X-22352000Y68072000D03*
X34671000Y68072000D03*
X-20447000Y68072000D03*
X-44577000Y68072000D03*
X-60452000Y68072000D03*
X53848000Y68072000D03*
X-42799000Y68072000D03*
X-1397000Y68072000D03*
X-58420000Y68072000D03*
X17907000Y68072000D03*
X56261000Y68072000D03*
X36830000Y68072000D03*
X-22987000Y49276000D03*
X-50419000Y49276000D03*
X-53340000Y49276000D03*
X-19685000Y49276000D03*
X114046000Y85725000D03*
X19685000Y85852000D03*
X-57531000Y85852000D03*
X126238000Y85725000D03*
X169820000Y85979000D03*
X-108966000Y94615000D03*
X-88292250Y85852000D03*
X35814000Y85852000D03*
X109728000Y85725000D03*
X-31623000Y85852000D03*
X-1480822Y85852000D03*
X122174000Y85725000D03*
X-118237000Y104394000D03*
X-41021000Y85852000D03*
X-137725000Y84675000D03*
X-30071000Y85852000D03*
X-3683000Y85852000D03*
X164338000Y85979000D03*
X72390000Y85852000D03*
X-43688000Y85852000D03*
X57150000Y85852000D03*
X88138000Y85852000D03*
X17018000Y85852000D03*
X54610000Y85852000D03*
X-90297000Y85852000D03*
X74803000Y85852000D03*
X-60579000Y85852000D03*
X81534000Y85852000D03*
X38100000Y85852000D03*
X73025000Y83058000D03*
X-2667000Y84455000D03*
X-31750000Y84455000D03*
X-137700000Y82800000D03*
X-42164000Y84455000D03*
X-106771500Y112141000D03*
X43434000Y83058000D03*
X-104521000Y100711000D03*
X169938338Y84986528D03*
X55245000Y83058000D03*
X-104521000Y110236000D03*
X-28702000Y84455000D03*
X-109474000Y113538000D03*
X123444000Y83058000D03*
X111252000Y83058000D03*
X74803000Y83058000D03*
X-58547000Y84455000D03*
X19177000Y84455000D03*
X-127000Y84455000D03*
X-88138000Y84455000D03*
X-112903000Y113538000D03*
X-90297000Y84455000D03*
X-60325000Y84455000D03*
X34671000Y83058000D03*
X-104521000Y104683500D03*
X93853000Y83058000D03*
X-39497000Y84455000D03*
X16891000Y84455000D03*
X-118963500Y103378000D03*
X158095012Y82996620D03*
X-130200000Y83775000D03*
X91948000Y83058000D03*
X113030000Y83058000D03*
X-130326500Y86073286D03*
X126303620Y82996620D03*
X57150000Y83058000D03*
X63500000Y101600000D03*
X158404500Y83947000D03*
X159893000Y83947000D03*
X-105318500Y101600000D03*
X122186000Y101600000D03*
X7143750Y101600000D03*
X-92837000Y101600000D03*
X65179000Y101600000D03*
X-141605000Y118872000D03*
X47625000Y101600000D03*
X28575000Y101600000D03*
X103279000Y101600000D03*
X10318750Y101600000D03*
X-30956250Y101600000D03*
X-108839000Y103251000D03*
X-94742000Y101600000D03*
X-142400000Y81600000D03*
X45243750Y101600000D03*
X-68707000Y101600000D03*
X-11906250Y101600000D03*
X101600000Y101600000D03*
X84229000Y101600000D03*
X-9525000Y101600000D03*
X-66675000Y101600000D03*
X-27781250Y101600000D03*
X-50006250Y101600000D03*
X139192000Y87630000D03*
X82550000Y101600000D03*
X123825000Y101600000D03*
X164627500Y83947000D03*
X-133223000Y119634000D03*
X170180000Y83947000D03*
X139192000Y84201000D03*
X-47625000Y101600000D03*
X26193750Y101600000D03*
X27075000Y136150000D03*
X-116967000Y132461000D03*
X20950000Y139825000D03*
X-120589000Y130302000D03*
X111351000Y79375000D03*
X-136906000Y54102000D03*
X73818750Y48418750D03*
X21750000Y138525000D03*
X164592000Y79121000D03*
X-23812500Y48418750D03*
X-116681250Y53117750D03*
X-116681250Y61912500D03*
X-53975000Y48418750D03*
X-49212500Y48418750D03*
X-119888000Y53086000D03*
X-19050000Y48418750D03*
X127386714Y79253714D03*
X166878000Y79375000D03*
X113030000Y79375000D03*
X125343286Y79242286D03*
X-130464500Y53153658D03*
X93754000Y79375000D03*
X-116642572Y81994658D03*
X58674000Y122428000D03*
X92075000Y79375000D03*
X-23018750Y47625000D03*
X13493750Y47625000D03*
X-19843750Y47625000D03*
X87376000Y64262000D03*
X93218000Y69596000D03*
X23000000Y138575000D03*
X87376000Y50002500D03*
X-1587500Y47625000D03*
X-136179500Y87875000D03*
X-130175000Y52197000D03*
X-117472083Y82552257D03*
X26193750Y47625000D03*
X-51343500Y47625000D03*
X-53181250Y47625000D03*
X166878000Y63246000D03*
X87376000Y60392250D03*
X-135128000Y53086000D03*
X163703000Y63207250D03*
X87376000Y48514000D03*
X-117510500Y52197000D03*
X-117472083Y61087000D03*
X-137632500Y87875000D03*
X-118999000Y52197000D03*
X93218000Y67310000D03*
X-3175000Y47625000D03*
X77470000Y122329000D03*
X-137725000Y86700000D03*
X21975000Y132350000D03*
X0Y46831250D03*
X-50006250Y46831250D03*
X-136179500Y86650000D03*
X112776000Y64135000D03*
X80645000Y122329000D03*
X-22225000Y46831250D03*
X-118237000Y62230000D03*
X-135001000Y50927000D03*
X-130175000Y50927000D03*
X111918750Y48418750D03*
X-118262500Y81940500D03*
X19208750Y138566250D03*
X12700000Y46831250D03*
X27650000Y123237000D03*
X-53975000Y46831250D03*
X111918750Y69056250D03*
X26987500Y46831250D03*
X111918750Y50800000D03*
X-20546000Y46831250D03*
X164465000Y64135000D03*
X111918750Y60325000D03*
X168366500Y65024000D03*
X-4762500Y46831250D03*
X151003000Y96139000D03*
X45847000Y96647000D03*
X84328000Y96647000D03*
X-20193000Y82169000D03*
X65179000Y96647000D03*
X43307000Y96647000D03*
X42291000Y87503000D03*
X63500000Y96647000D03*
X-135750000Y95400000D03*
X-131191000Y95309000D03*
X254000Y82169000D03*
X17145000Y82169000D03*
X138303000Y96139000D03*
X101473000Y96520000D03*
X-1778000Y82169000D03*
X-131176671Y88747786D03*
X37973000Y82169000D03*
X47498000Y96647000D03*
X42418000Y102326500D03*
X122174000Y96520000D03*
X26326500Y135375000D03*
X18864000Y82169000D03*
X139954000Y96139000D03*
X29580493Y138876478D03*
X123698000Y96520000D03*
X36195000Y82169000D03*
X-23241000Y82169000D03*
X42291000Y84836000D03*
X82423000Y96647000D03*
X153412810Y96150636D03*
X103378000Y96520000D03*
X153289000Y85344000D03*
X-132080000Y45720000D03*
X158242000Y92964000D03*
X153289000Y87467500D03*
X-129159000Y44160500D03*
X-132080000Y94295000D03*
X12573000Y134366000D03*
X21200000Y134450000D03*
X125222000Y84963000D03*
X-50800000Y44196000D03*
X112903000Y84963000D03*
X-132080000Y88320000D03*
X84963000Y60325000D03*
X110744000Y84963000D03*
X27448500Y134475000D03*
X123701750Y84963000D03*
X30550000Y138521500D03*
X164592000Y94996000D03*
X-53248500Y44160500D03*
X-134838500Y94600000D03*
X86995000Y85054500D03*
X-130429000Y46482000D03*
X159131000Y79847500D03*
X-49911000Y44958000D03*
X-54229000Y44958000D03*
X8255000Y135252500D03*
X159131000Y87630000D03*
X110871000Y59436000D03*
X112776000Y59436000D03*
X140335000Y59817000D03*
X162814000Y93980000D03*
X117348000Y59817000D03*
X169418000Y93980000D03*
X-133096000Y93500000D03*
X159131000Y84709000D03*
X115697000Y59817000D03*
X-133096000Y47244000D03*
X158242000Y59817000D03*
X-20320000Y44958000D03*
X-22352000Y44958000D03*
X-2407161Y48351500D03*
X-133096000Y89268750D03*
X-2413000Y55753000D03*
X-135444000Y93681000D03*
X26450000Y140650000D03*
X138430000Y59817000D03*
X-23241000Y46101000D03*
X169093000Y86868000D03*
X164592000Y60579000D03*
X162306000Y60579000D03*
X14732000Y48351500D03*
X-134112000Y49530000D03*
X169418000Y92837000D03*
X28200000Y138675000D03*
X140837286Y61208286D03*
X-130429000Y48006000D03*
X-53086000Y46101000D03*
X138424286Y61208286D03*
X-134112000Y92263000D03*
X24600000Y132025000D03*
X12446000Y124368500D03*
X15303500Y63309500D03*
X-1270000Y46101000D03*
X-3683000Y46101000D03*
X-134112000Y88762000D03*
X-51054000Y46101000D03*
X28175000Y136160500D03*
X-19177000Y46101000D03*
X166229238Y91710692D03*
X-112014000Y98479750D03*
X164465000Y61595000D03*
X166167464Y89829036D03*
X-112014000Y108966000D03*
X-112938500Y118618000D03*
X-132083750Y118618000D03*
X24563714Y136038714D03*
X24300000Y138800000D03*
X162433000Y61595000D03*
X-141390000Y91790000D03*
X-140843000Y117983000D03*
X-127281500Y85852000D03*
X-2381250Y80962500D03*
X26826500Y131150000D03*
X-90487500Y80962500D03*
X-123698000Y85852000D03*
X-57943750Y80962500D03*
X-40481250Y80962500D03*
X-37306250Y80962500D03*
X-115862500Y85509500D03*
X34925000Y80962500D03*
X-23018750Y80962500D03*
X19843750Y80962500D03*
X15875000Y80962500D03*
X25625000Y138521500D03*
X-61118750Y80962500D03*
X-120650000Y84490500D03*
X38893750Y80962500D03*
X-19843750Y80962500D03*
X-108743750Y84137500D03*
X793750Y80962500D03*
X-87312500Y80962500D03*
X-119761000Y132207000D03*
X-117856000Y133604000D03*
X15725000Y138200000D03*
X17325000Y138125000D03*
X136779000Y104521000D03*
X-27432000Y104521000D03*
X-143775000Y80325000D03*
X25146000Y104521000D03*
X-46609000Y104521000D03*
X66294000Y104521000D03*
X-109220000Y116332000D03*
X104775000Y104521000D03*
X80518000Y104521000D03*
X45212000Y104521000D03*
X-11811000Y104521000D03*
X-30480000Y104521000D03*
X48387000Y104521000D03*
X-65913000Y104521000D03*
X-49403000Y104521000D03*
X7747000Y104521000D03*
X-70358000Y104521000D03*
X134874000Y104521000D03*
X172212000Y83058000D03*
X-113665000Y115443000D03*
X-91567000Y104521000D03*
X10668000Y104521000D03*
X-142494000Y114300000D03*
X-118272500Y116586000D03*
X-104902000Y116332000D03*
X29591000Y104521000D03*
X101600000Y104521000D03*
X62103000Y104521000D03*
X-107061000Y116332000D03*
X-114695258Y104390558D03*
X-132207000Y116586000D03*
X-8890000Y104521000D03*
X-112740500Y116332000D03*
X120396000Y104521000D03*
X85852000Y104521000D03*
X123571000Y104521000D03*
X-95123000Y104521000D03*
X171196000Y104521000D03*
X-125095000Y109311500D03*
X14128750Y141728750D03*
X-125349000Y135184500D03*
X-125381074Y114709000D03*
D30*
X-129921000Y89408000D02*
X-129294250Y88781250D01*
X-129921000Y92710000D02*
X-129921000Y89408000D01*
X173637500Y99987500D02*
X139153500Y99987500D01*
X-123323750Y104006250D02*
X-123062500Y104267500D01*
X-121666000Y93091000D02*
X-129540000Y93091000D01*
X-138112500Y113131250D02*
X-123672250Y113131250D01*
X-123187500Y111125000D02*
X-123187500Y109852500D01*
X-123323750Y102368750D02*
X-123323750Y102396250D01*
X-124656250Y88781250D02*
X-124618750Y88743750D01*
X-123323750Y104006250D02*
X-123323750Y102368750D01*
X-123672250Y113131250D02*
X-123187500Y112646500D01*
X-121462500Y99110500D02*
X-122358250Y100006250D01*
X-115062500Y105141252D02*
X-115485758Y104717994D01*
X-124618750Y80549750D02*
X-124587000Y80518000D01*
X-128587500Y88781250D02*
X-124656250Y88781250D01*
X45720000Y99949000D02*
X36195000Y99949000D01*
X-123317000Y100816250D02*
X-123317000Y100076000D01*
X-123062500Y104267500D02*
X-123062500Y106506250D01*
X175312500Y101912500D02*
X175300000Y101900000D01*
X-124587000Y64643000D02*
X-123444000Y63500000D01*
X-115485758Y99102758D02*
X-115062500Y98679500D01*
X173950000Y100300000D02*
X173637500Y99987500D01*
X34925000Y98679000D02*
X34925000Y95885000D01*
X82550000Y99949000D02*
X65179000Y99949000D01*
X-149950000Y111987500D02*
X-149950000Y101937500D01*
X-124587000Y68961000D02*
X-124587000Y64643000D01*
X-123187500Y112646500D02*
X-123187500Y111125000D01*
X-106362500Y97787500D02*
X-108587500Y97787500D01*
X63500000Y99949000D02*
X47625000Y99949000D01*
X-122358250Y100006250D02*
X-123386750Y100006250D01*
X175787500Y101912500D02*
X181675000Y101912500D01*
X-121462500Y95106250D02*
X-121462500Y98755500D01*
X-114143750Y109376250D02*
X-114143750Y111125000D01*
X123834240Y99939760D02*
X123825000Y99949000D01*
X34448750Y143668750D02*
X174456250Y143668750D01*
X136007760Y99939760D02*
X123834240Y99939760D01*
X101473000Y99949000D02*
X84229000Y99949000D01*
X-121462500Y93294500D02*
X-121666000Y93091000D01*
X176050000Y102175000D02*
X175787500Y101912500D01*
X139153500Y99987500D02*
X139192000Y99949000D01*
X36195000Y99949000D02*
X34925000Y98679000D01*
X-115485758Y104717994D02*
X-115485758Y99102758D01*
X174100000Y101900000D02*
X173950000Y101750000D01*
X175787500Y101912500D02*
X175312500Y101912500D01*
X-123062500Y109727500D02*
X-123062500Y106506250D01*
X-115062500Y106506250D02*
X-115062500Y108457500D01*
X173950000Y101750000D02*
X173950000Y100300000D01*
X-148806250Y113131250D02*
X-149950000Y111987500D01*
X-115062500Y97790500D02*
X-114878250Y97606250D01*
X-123317000Y100076000D02*
X-123386750Y100006250D01*
X-115062500Y106506250D02*
X-115062500Y105141252D01*
X-113362500Y97606250D02*
X-111150000Y97606250D01*
X-129540000Y93091000D02*
X-129921000Y92710000D01*
X175300000Y101900000D02*
X174100000Y101900000D01*
X-113919000Y63500000D02*
X-123444000Y63500000D01*
X-115138500Y98755500D02*
X-115062500Y98679500D01*
X-129294250Y88781250D02*
X-128587500Y88781250D01*
X-115062500Y108457500D02*
X-114143750Y109376250D01*
X-115062500Y98679500D02*
X-115062500Y97790500D01*
X176050000Y142075000D02*
X176050000Y102175000D01*
X122047000Y99949000D02*
X103378000Y99949000D01*
X-124618750Y88743750D02*
X-124618750Y80549750D01*
X174456250Y143668750D02*
X176050000Y142075000D01*
X-108587500Y97787500D02*
X-108743750Y97631250D01*
X-121462500Y98755500D02*
X-121462500Y99110500D01*
X-124762500Y104006250D02*
X-123323750Y104006250D01*
X-121462500Y98755500D02*
X-115138500Y98755500D01*
X-113362500Y97606250D02*
X-114878250Y97606250D01*
X-123386750Y100006250D02*
X-124762500Y100006250D01*
X-121462500Y95106250D02*
X-121462500Y93294500D01*
X-123187500Y109852500D02*
X-123062500Y109727500D01*
X-138112500Y113131250D02*
X-148806250Y113131250D01*
X-116043750Y108854750D02*
X-115862500Y108673500D01*
X-126491500Y86487500D02*
X-126491500Y80009500D01*
X-116066758Y102119242D02*
X-116586000Y101600000D01*
X17554000Y62299250D02*
X35121250Y62299250D01*
X181675000Y79052500D02*
X170502500Y79052500D01*
X-122174000Y102489000D02*
X-117983000Y102489000D01*
X35121250Y62299250D02*
X35306000Y62299250D01*
X-127800000Y101606250D02*
X-128918750Y102725000D01*
X-122809000Y101600000D02*
X-122815250Y101606250D01*
X-107156250Y107275000D02*
X-107577250Y107696000D01*
X-122262500Y102146500D02*
X-122809000Y101600000D01*
X-42672000Y62230000D02*
X-21996742Y62230000D01*
X-113030000Y112141000D02*
X-113411000Y112522000D01*
X53228250Y62753250D02*
X53848000Y63373000D01*
X-120236750Y96806250D02*
X-117380250Y96806250D01*
X-120662500Y96380500D02*
X-120236750Y96806250D01*
X-117475000Y101981000D02*
X-117475000Y101600000D01*
X-121287500Y113032500D02*
X-121287500Y111125000D01*
X-117475000Y101600000D02*
X-117475000Y99822000D01*
X-120662500Y91046500D02*
X-120662500Y95106250D01*
X-106362500Y95887500D02*
X-109095500Y95887500D01*
X-97790000Y62230000D02*
X-60099000Y62230000D01*
X-116406500Y78997500D02*
X-116567500Y78997500D01*
X-58547000Y62230000D02*
X-44382750Y62230000D01*
X-107577250Y107696000D02*
X-112776000Y107696000D01*
X-122262500Y106506250D02*
X-122262500Y108496500D01*
X-110819000Y66412500D02*
X-110819000Y62686000D01*
X55753000Y63373000D02*
X92075000Y63373000D01*
X-114367500Y77297500D02*
X-110916500Y77297500D01*
X-117475000Y97917000D02*
X-117475000Y96901000D01*
X-131293750Y134136250D02*
X-131293750Y143115000D01*
X-115862500Y106506250D02*
X-115862500Y105162910D01*
X12850000Y146000000D02*
X12850000Y139862500D01*
X-126491500Y80009500D02*
X-126013250Y79531250D01*
X-116043750Y112302250D02*
X-116043750Y111125000D01*
X-112268000Y66802000D02*
X-111878500Y66412500D01*
X-122262500Y108496500D02*
X-121287500Y109471500D01*
X-131293750Y134136250D02*
X-129945250Y134136250D01*
X94361000Y63933750D02*
X110034750Y63933750D01*
X-21996742Y62230000D02*
X-21999000Y62232258D01*
X169820000Y78370000D02*
X169820000Y66802000D01*
X164338000Y65151000D02*
X164592000Y65405000D01*
X-112776000Y107696000D02*
X-113030000Y107950000D01*
X12875000Y146025000D02*
X12850000Y146000000D01*
X-111950000Y96806250D02*
X-113362500Y96806250D01*
X-127750572Y71882000D02*
X-112268000Y71882000D01*
X-110363000Y62230000D02*
X-110109000Y62230000D01*
X13058750Y146208750D02*
X12875000Y146025000D01*
X-883286Y62235714D02*
X15996286Y62235714D01*
X-128918750Y102725000D02*
X-130975000Y102725000D01*
X-131293750Y114402750D02*
X-130810000Y113919000D01*
X-139650000Y71900000D02*
X-149550000Y71900000D01*
X-119409250Y79531250D02*
X-118872000Y78994000D01*
X-121443750Y79531250D02*
X-119409250Y79531250D01*
X-126111000Y89571250D02*
X-126111000Y90424000D01*
X-122262500Y106506250D02*
X-122262500Y102577500D01*
X-126111000Y90424000D02*
X-125891250Y90643750D01*
X-3558258Y62232258D02*
X-3556000Y62230000D01*
X-115862500Y108673500D02*
X-115862500Y106506250D01*
X-113411000Y112522000D02*
X-115824000Y112522000D01*
X-117380250Y96806250D02*
X-113362500Y96806250D01*
X-126111000Y86868000D02*
X-126111000Y87630000D01*
X15996286Y62235714D02*
X16002000Y62230000D01*
X-116586000Y101600000D02*
X-117475000Y101600000D01*
X-124618750Y90643750D02*
X-121065250Y90643750D01*
X-120662500Y95106250D02*
X-120662500Y96380500D01*
X-114706500Y77297500D02*
X-116406500Y78997500D01*
X-111155750Y96012000D02*
X-111950000Y96806250D01*
X-129945250Y134136250D02*
X-129921000Y134112000D01*
X-127750572Y71882000D02*
X-127758036Y71889464D01*
X-122174000Y113919000D02*
X-121287500Y113032500D01*
X-118868500Y78997500D02*
X-116567500Y78997500D01*
X-109095500Y95887500D02*
X-109220000Y96012000D01*
X164592000Y65405000D02*
X164592000Y66040000D01*
X-121065250Y90643750D02*
X-120662500Y91046500D01*
X-131293750Y134136250D02*
X-131293750Y114402750D01*
X-125891250Y90643750D02*
X-124618750Y90643750D01*
X-115824000Y112522000D02*
X-116043750Y112302250D01*
X-122262500Y102577500D02*
X-122262500Y102146500D01*
X14128750Y146208750D02*
X13058750Y146208750D01*
X-111878500Y66412500D02*
X-110819000Y66412500D01*
X-118872000Y78994000D02*
X-118868500Y78997500D01*
X-149950000Y72300000D02*
X-149950000Y79077500D01*
X-122815250Y101606250D02*
X-124762500Y101606250D01*
X-149550000Y71900000D02*
X-149950000Y72300000D01*
X-115862500Y105162910D02*
X-116066758Y104958652D01*
X-114367500Y77297500D02*
X-114706500Y77297500D01*
X-110744000Y77216000D02*
X-110744000Y76327000D01*
X-117475000Y96901000D02*
X-117380250Y96806250D01*
X-110835500Y96012000D02*
X-111155750Y96012000D01*
X-117983000Y102489000D02*
X-117475000Y101981000D01*
X111252000Y65151000D02*
X164338000Y65151000D01*
X-121287500Y109471500D02*
X-121287500Y111125000D01*
X53848000Y63373000D02*
X54102000Y63373000D01*
X-112268000Y71882000D02*
X-112268000Y66802000D01*
X-126013250Y79531250D02*
X-121443750Y79531250D01*
X-112268000Y74803000D02*
X-112268000Y71882000D01*
X-130810000Y113919000D02*
X-122174000Y113919000D01*
X-107696000Y62230000D02*
X-99270250Y62230000D01*
X170502500Y79052500D02*
X169820000Y78370000D01*
X-116043750Y111125000D02*
X-116043750Y108854750D01*
X-124762500Y101606250D02*
X-127800000Y101606250D01*
X-110819000Y62686000D02*
X-110363000Y62230000D01*
X-20449258Y62232258D02*
X-3558258Y62232258D01*
X-126491500Y86487500D02*
X-126111000Y86868000D01*
X110034750Y63933750D02*
X111252000Y65151000D01*
X-113030000Y107950000D02*
X-113030000Y112141000D01*
X-122262500Y102577500D02*
X-122174000Y102489000D01*
X37057964Y62753250D02*
X53228250Y62753250D01*
X-110744000Y76327000D02*
X-112268000Y74803000D01*
X-116066758Y104958652D02*
X-116066758Y102119242D01*
D31*
X-122970250Y77631250D02*
X-123444000Y78105000D01*
X-119062500Y95106250D02*
X-119062500Y86014500D01*
X-123444000Y78105000D02*
X-123444000Y78740000D01*
X-121110000Y77297500D02*
X-116567500Y77297500D01*
X-121443750Y77631250D02*
X-121110000Y77297500D01*
X-121443750Y77631250D02*
X-122970250Y77631250D01*
X-114367500Y78997500D02*
X-110862500Y78997500D01*
X-114367500Y79950500D02*
X-114935000Y80518000D01*
X-110862500Y78997500D02*
X-110744000Y79116000D01*
X-114367500Y78997500D02*
X-114367500Y79950500D01*
X-119253000Y80518000D02*
X-119862500Y81127500D01*
X-119862500Y81127500D02*
X-119862500Y95106250D01*
X-114935000Y80518000D02*
X-119253000Y80518000D01*
X-130975000Y100825000D02*
X-130956250Y100806250D01*
X-130956250Y100806250D02*
X-124762500Y100806250D01*
X-94869000Y123698000D02*
X-90297000Y123698000D01*
X138938000Y125095000D02*
X138112500Y125920500D01*
X-89662000Y125095000D02*
X-90487500Y125920500D01*
X-106045000Y123063000D02*
X-105410000Y123698000D01*
X119062500Y125412500D02*
X119062500Y126937500D01*
X40275666Y125111666D02*
X24113334Y125111666D01*
X-17653000Y125095000D02*
X-33020000Y125095000D01*
X166687500Y125666500D02*
X166116000Y125095000D01*
X-89662000Y124333000D02*
X-89662000Y125095000D01*
X75438000Y125095000D02*
X62357000Y125095000D01*
X124968000Y125095000D02*
X119380000Y125095000D01*
X-52387500Y125539500D02*
X-52387500Y126937500D01*
X-105410000Y123698000D02*
X-98171000Y123698000D01*
X-106749750Y100006250D02*
X-106045000Y100711000D01*
X-106045000Y100711000D02*
X-106045000Y123063000D01*
X100711000Y125095000D02*
X97282000Y125095000D01*
X4762500Y125539500D02*
X4762500Y126937500D01*
X19939000Y125095000D02*
X5207000Y125095000D01*
X43561000Y125095000D02*
X42556072Y125095000D01*
X-33020000Y125095000D02*
X-34036000Y125095000D01*
X62357000Y125095000D02*
X59817000Y125095000D01*
X-14287500Y125793500D02*
X-14287500Y126937500D01*
X-33020000Y125095000D02*
X-33337500Y125412500D01*
X-55880000Y125095000D02*
X-71120000Y125095000D01*
X61912500Y125539500D02*
X61912500Y126937500D01*
X81534000Y125095000D02*
X80962500Y125666500D01*
X119380000Y125095000D02*
X109728000Y125095000D01*
X94107000Y125095000D02*
X81534000Y125095000D01*
X166116000Y125095000D02*
X156718000Y125095000D01*
X-13589000Y125095000D02*
X-15494000Y125095000D01*
X138112500Y125920500D02*
X138112500Y126937500D01*
X100012500Y125793500D02*
X100012500Y126937500D01*
X-71437500Y125412500D02*
X-71437500Y126937500D01*
X-113362500Y100006250D02*
X-106749750Y100006250D01*
X42556072Y125095000D02*
X42572738Y125111666D01*
X107823000Y125095000D02*
X100711000Y125095000D01*
X23812500Y125412500D02*
X23812500Y126937500D01*
X57023000Y125095000D02*
X43561000Y125095000D01*
X-90487500Y125920500D02*
X-90487500Y127000000D01*
X166687500Y126937500D02*
X166687500Y125666500D01*
X-71120000Y125095000D02*
X-81788000Y125095000D01*
X100711000Y125095000D02*
X100012500Y125793500D01*
X119380000Y125095000D02*
X119062500Y125412500D01*
X-36576000Y125095000D02*
X-51943000Y125095000D01*
X-84455000Y125095000D02*
X-89662000Y125095000D01*
X62357000Y125095000D02*
X61912500Y125539500D01*
X-13589000Y125095000D02*
X-14287500Y125793500D01*
X43561000Y125095000D02*
X42862500Y125793500D01*
X-51943000Y125095000D02*
X-53594000Y125095000D01*
X-33337500Y125412500D02*
X-33337500Y126937500D01*
X-71120000Y125095000D02*
X-71437500Y125412500D01*
X5207000Y125095000D02*
X4762500Y125539500D01*
X138938000Y125095000D02*
X128270000Y125095000D01*
X24113334Y125111666D02*
X23812500Y125412500D01*
X5207000Y125095000D02*
X3175000Y125095000D01*
X-51943000Y125095000D02*
X-52387500Y125539500D01*
X762000Y125095000D02*
X-13589000Y125095000D01*
X-90297000Y123698000D02*
X-89662000Y124333000D01*
X23538334Y125111666D02*
X24113334Y125111666D01*
X81534000Y125095000D02*
X79375000Y125095000D01*
X80962500Y125666500D02*
X80962500Y126937500D01*
X42862500Y125793500D02*
X42862500Y126937500D01*
X153416000Y125095000D02*
X138938000Y125095000D01*
X-90487500Y130300000D02*
X-90487500Y132556250D01*
X-91018750Y133087500D02*
X-95925000Y133087500D01*
X-90487500Y132556250D02*
X-91018750Y133087500D01*
X71437500Y106235500D02*
X71437500Y107887500D01*
X-50292000Y105410000D02*
X-60706000Y105410000D01*
X148590000Y105410000D02*
X147637500Y106362500D01*
X91186000Y105410000D02*
X84963000Y105410000D01*
X34036000Y105410000D02*
X28829000Y105410000D01*
X147637500Y106362500D02*
X147637500Y107887500D01*
X171450000Y106045000D02*
X170815000Y105410000D01*
X-85725000Y106172000D02*
X-85725000Y107887500D01*
X-84963000Y105410000D02*
X-92329000Y105410000D01*
X118999000Y105410000D02*
X110617000Y105410000D01*
X133731000Y105410000D02*
X129286000Y105410000D01*
X90487500Y106108500D02*
X90487500Y107887500D01*
X15113000Y105410000D02*
X14287500Y106235500D01*
X-61912500Y106489500D02*
X-61912500Y107887500D01*
X6985000Y105410000D02*
X-3937000Y105410000D01*
X34036000Y105410000D02*
X33337500Y106108500D01*
X129286000Y105410000D02*
X129159000Y105410000D01*
X72263000Y105410000D02*
X71437500Y106235500D01*
X148590000Y105410000D02*
X138049000Y105410000D01*
X129286000Y105410000D02*
X122809000Y105410000D01*
X170815000Y105410000D02*
X148590000Y105410000D01*
X33337500Y106108500D02*
X33337500Y107887500D01*
X-4762500Y106235500D02*
X-4762500Y107950000D01*
X-68834000Y105410000D02*
X-84963000Y105410000D01*
X63246000Y105410000D02*
X53213000Y105410000D01*
X44196000Y105410000D02*
X34036000Y105410000D01*
X-23114000Y105410000D02*
X-28448000Y105410000D01*
X-23812500Y106108500D02*
X-23812500Y107887500D01*
X72263000Y105410000D02*
X65532000Y105410000D01*
X-42037000Y105410000D02*
X-47371000Y105410000D01*
X-42862500Y106235500D02*
X-42862500Y107887500D01*
X128587500Y105981500D02*
X128587500Y107887500D01*
X-23114000Y105410000D02*
X-23812500Y106108500D01*
X171450000Y107887500D02*
X171450000Y106045000D01*
X53213000Y105410000D02*
X47752000Y105410000D01*
X110617000Y105410000D02*
X103886000Y105410000D01*
X-113362500Y102406250D02*
X-107105250Y102406250D01*
X14287500Y106235500D02*
X14287500Y107887500D01*
X52387500Y106235500D02*
X52387500Y107887500D01*
X109537500Y106489500D02*
X109537500Y107887500D01*
X129159000Y105410000D02*
X128587500Y105981500D01*
X15113000Y105410000D02*
X9906000Y105410000D01*
X-60833000Y105410000D02*
X-61912500Y106489500D01*
X-84963000Y105410000D02*
X-85725000Y106172000D01*
X100457000Y105410000D02*
X91186000Y105410000D01*
X110617000Y105410000D02*
X109537500Y106489500D01*
X91186000Y105410000D02*
X90487500Y106108500D01*
X-107105250Y102406250D02*
X-107188000Y102489000D01*
X-60706000Y105410000D02*
X-60833000Y105410000D01*
X-3937000Y105410000D02*
X-4762500Y106235500D01*
X-42037000Y105410000D02*
X-42862500Y106235500D01*
X26289000Y105410000D02*
X15113000Y105410000D01*
X-12827000Y105410000D02*
X-23114000Y105410000D01*
X53213000Y105410000D02*
X52387500Y106235500D01*
X-60706000Y105410000D02*
X-66548000Y105410000D01*
X-31242000Y105410000D02*
X-42037000Y105410000D01*
X81915000Y105410000D02*
X72263000Y105410000D01*
X-3937000Y105410000D02*
X-9652000Y105410000D01*
X-85725000Y111187500D02*
X-85725000Y112712500D01*
X-85725000Y112712500D02*
X-87050000Y114037500D01*
X-87050000Y114037500D02*
X-91162500Y114037500D01*
X-71437500Y131762500D02*
X-72762500Y133087500D01*
X-72762500Y133087500D02*
X-76875000Y133087500D01*
X-71437500Y130237500D02*
X-71437500Y131762500D01*
X-61912500Y112712500D02*
X-63237500Y114037500D01*
X-61912500Y111187500D02*
X-61912500Y112712500D01*
X-63237500Y114037500D02*
X-67350000Y114037500D01*
D30*
X-138112500Y110331250D02*
X-125126750Y110331250D01*
X183863000Y100613000D02*
X176113000Y100613000D01*
X-121578250Y125769250D02*
X-121539000Y125730000D01*
X172974000Y101346000D02*
X172974000Y100838000D01*
X174950000Y100600000D02*
X174600000Y100250000D01*
X184215000Y101912500D02*
X184215000Y100965000D01*
X177175000Y103800000D02*
X177675000Y103300000D01*
X172974000Y118364000D02*
X172974000Y101346000D01*
X34448750Y146208750D02*
X176116250Y146208750D01*
X-152490000Y108653750D02*
X-152490000Y101937500D01*
X-124587000Y125476000D02*
X-124293750Y125769250D01*
X-124293750Y125769250D02*
X-121626750Y125769250D01*
X174600000Y99400000D02*
X174187500Y98987500D01*
X-124293750Y125769250D02*
X-124293750Y143115000D01*
X-121626750Y125769250D02*
X-121578250Y125769250D01*
X-150812500Y110331250D02*
X-152490000Y108653750D01*
X177675000Y103300000D02*
X183975000Y103300000D01*
X-124587000Y110871000D02*
X-124587000Y111887000D01*
X157480000Y121539000D02*
X169799000Y121539000D01*
X177175000Y145150000D02*
X177175000Y103800000D01*
X-125126750Y110331250D02*
X-124587000Y110871000D01*
X176116250Y146208750D02*
X177175000Y145150000D01*
X183975000Y103300000D02*
X184215000Y103060000D01*
X184215000Y100965000D02*
X183863000Y100613000D01*
X184215000Y103060000D02*
X184215000Y101912500D01*
X176100000Y100600000D02*
X174950000Y100600000D01*
X176113000Y100613000D02*
X176100000Y100600000D01*
X-124587000Y115316000D02*
X-124587000Y125476000D01*
X174187500Y98987500D02*
X173155500Y98987500D01*
X174600000Y100250000D02*
X174600000Y99400000D01*
X169799000Y121539000D02*
X172974000Y118364000D01*
X-138112500Y110331250D02*
X-148431250Y110331250D01*
D31*
X-134793750Y145825000D02*
X-120793750Y145825000D01*
D32*
X-126793750Y143115000D02*
X-126793750Y124031250D01*
X-126793750Y124031250D02*
X-126746000Y123983500D01*
X-126746000Y123983500D02*
X-126746000Y120546500D01*
X-128524000Y123698000D02*
X-128793750Y123967750D01*
X-128524000Y120546500D02*
X-128524000Y123698000D01*
X-128793750Y123967750D02*
X-128793750Y143115000D01*
D31*
X-143256000Y115887500D02*
X-143256000Y121666000D01*
X148844000Y97825500D02*
X141481750Y97825500D01*
X-97631250Y125412500D02*
X-96162500Y123943750D01*
X-89018750Y86637500D02*
X-89018750Y75437500D01*
X137636250Y97631250D02*
X123729750Y97631250D01*
X-11430000Y97663000D02*
X-28761000Y97663000D01*
X-110236000Y133604000D02*
X-110236000Y122682000D01*
X-148431250Y108743750D02*
X-147637500Y109537500D01*
X175150000Y99250000D02*
X175150000Y98200000D01*
X-110236000Y122682000D02*
X-110236000Y108966000D01*
X28575000Y129350000D02*
X28575000Y127650000D01*
X175272500Y99372500D02*
X175150000Y99250000D01*
X-95091250Y93027500D02*
X-95091250Y90944539D01*
X-108315000Y135525000D02*
X-110236000Y133604000D01*
X31908750Y143668750D02*
X31908750Y138530250D01*
X-30734000Y97663000D02*
X-47811000Y97663000D01*
X122047000Y97663000D02*
X103378000Y97663000D01*
X175150000Y98200000D02*
X174937500Y97987500D01*
X-93781250Y105687500D02*
X-93781250Y97337250D01*
X-143256000Y121666000D02*
X-142240000Y122682000D01*
X29325000Y115675000D02*
X30325000Y114675000D01*
X-142240000Y122682000D02*
X-139573000Y122682000D01*
X82550000Y97663000D02*
X65179000Y97663000D01*
X-90328750Y73977500D02*
X-90328750Y69215000D01*
X34036000Y97663000D02*
X28448000Y97663000D01*
X-100925000Y132587500D02*
X-100925000Y134850000D01*
X174937500Y97987500D02*
X151694500Y97987500D01*
X29500000Y130275000D02*
X28575000Y129350000D01*
X-93781250Y97337250D02*
X-93781250Y94487500D01*
X-149950000Y99397500D02*
X-148610000Y99397500D01*
X-95091250Y90944539D02*
X-92252961Y88106250D01*
X29301500Y126923500D02*
X29301500Y125850000D01*
X-94456250Y106362500D02*
X-93781250Y105687500D01*
X-98543750Y63381250D02*
X-98543750Y56387500D01*
X-90328750Y69215000D02*
X-90487500Y69056250D01*
X31908750Y138530250D02*
X31900000Y138521500D01*
X-102235000Y131127500D02*
X-102235000Y126841250D01*
X28575000Y127650000D02*
X29301500Y126923500D01*
X-100806250Y125412500D02*
X-97631250Y125412500D01*
X-110236000Y122682000D02*
X-110398500Y122682000D01*
X-147637500Y109537500D02*
X-144462500Y109537500D01*
X30325000Y114675000D02*
X32975000Y114675000D01*
X-100925000Y134850000D02*
X-101600000Y135525000D01*
X9398000Y97663000D02*
X26543000Y97663000D01*
X181675000Y99372500D02*
X175272500Y99372500D01*
X137668000Y97663000D02*
X137636250Y97631250D01*
X32975000Y114675000D02*
X37175000Y110475000D01*
X37175000Y110475000D02*
X37175000Y106136500D01*
X141481750Y97825500D02*
X141287500Y97631250D01*
X-92868750Y69056250D02*
X-98543750Y63381250D01*
X-97472500Y108585000D02*
X-95250000Y106362500D01*
X-96162500Y123943750D02*
X-96162500Y113537500D01*
X141287500Y97631250D02*
X140493750Y97631250D01*
X-93455500Y97663000D02*
X-93781250Y97337250D01*
X45847000Y97663000D02*
X38562000Y97663000D01*
X-148610000Y99397500D02*
X-148431250Y99576250D01*
X-90487500Y69056250D02*
X-92868750Y69056250D01*
X-148431250Y99576250D02*
X-148431250Y108743750D01*
X7493000Y97663000D02*
X-9398000Y97663000D01*
X-113362500Y101606250D02*
X-110323500Y101606250D01*
X-92252961Y88106250D02*
X-90487500Y88106250D01*
X-102235000Y126841250D02*
X-100806250Y125412500D01*
X29325000Y124385166D02*
X29325000Y115675000D01*
X-90487500Y88106250D02*
X-89018750Y86637500D01*
X-97472500Y112077500D02*
X-97472500Y108585000D01*
X63500000Y97663000D02*
X47498000Y97663000D01*
X123729750Y97631250D02*
X123698000Y97663000D01*
X-110323500Y101606250D02*
X-110250000Y101679750D01*
X-49276000Y97663000D02*
X-66861000Y97663000D01*
X-68453000Y97663000D02*
X-93455500Y97663000D01*
X-101600000Y135525000D02*
X-108315000Y135525000D01*
X151694500Y97987500D02*
X151638000Y98044000D01*
X101600000Y97663000D02*
X84328000Y97663000D01*
X-95250000Y106362500D02*
X-94456250Y106362500D01*
X-81875000Y132587500D02*
X-81875000Y135431000D01*
X31908750Y146208750D02*
X33041250Y146208750D01*
X7725000Y98825000D02*
X-9711000Y98825000D01*
X-67587500Y98662500D02*
X-67587500Y94487500D01*
X-59531250Y87312500D02*
X-60325000Y88106250D01*
X-152490000Y99397500D02*
X-152490000Y98590000D01*
X-137750000Y59625000D02*
X-138625000Y60500000D01*
X-74400000Y122950000D02*
X-82225000Y122950000D01*
X-75275000Y59625000D02*
X-97725000Y59625000D01*
X184215000Y98440000D02*
X183800000Y98025000D01*
X63450000Y98775000D02*
X47550000Y98775000D01*
X-74890000Y59253750D02*
X-74890000Y56387500D01*
X-11375000Y98825000D02*
X-28761000Y98825000D01*
X-119100000Y59625000D02*
X-130464500Y59625000D01*
X-75200000Y59550000D02*
X-75275000Y59625000D01*
X-73660000Y122210000D02*
X-74400000Y122950000D01*
X-59531250Y74136250D02*
X-59531250Y87312500D01*
X32525000Y124050000D02*
X32525000Y120500000D01*
X-67425000Y98825000D02*
X-67587500Y98662500D01*
X-60325000Y59531250D02*
X-74612500Y59531250D01*
X9435000Y98815000D02*
X9425000Y98825000D01*
X19700000Y98800000D02*
X19685000Y98815000D01*
X-111125000Y133858000D02*
X-111125000Y110490000D01*
X-138625000Y60500000D02*
X-138625000Y81775000D01*
X175950000Y97000000D02*
X176975000Y98025000D01*
X-74890000Y59253750D02*
X-74903750Y59253750D01*
X101825000Y98775000D02*
X84250000Y98775000D01*
X-99325000Y59625000D02*
X-108300000Y59625000D01*
X-113362500Y100806250D02*
X-111156750Y100806250D01*
X-111125000Y133858000D02*
X-109004000Y135979000D01*
X-81875000Y135431000D02*
X-82423000Y135979000D01*
X-140304500Y98220500D02*
X-140300000Y98225000D01*
X-73660000Y112077500D02*
X-73660000Y122210000D01*
X33041250Y146208750D02*
X33225000Y146025000D01*
X-111156750Y100806250D02*
X-111125000Y100838000D01*
X-59372500Y60483750D02*
X-60325000Y59531250D01*
X-67587500Y98662500D02*
X-67587500Y105887500D01*
X-30225000Y98825000D02*
X-47800000Y98825000D01*
X-152490000Y98590000D02*
X-152120500Y98220500D01*
X19685000Y98815000D02*
X9435000Y98815000D01*
X-83185000Y123910000D02*
X-83185000Y131127500D01*
X161025000Y97000000D02*
X175950000Y97000000D01*
X-67975000Y106275000D02*
X-72825000Y106275000D01*
X-74903750Y59253750D02*
X-75200000Y59550000D01*
X-74612500Y59531250D02*
X-74890000Y59253750D01*
X33225000Y146025000D02*
X33225000Y138521500D01*
X-82423000Y135979000D02*
X-109004000Y135979000D01*
X-73660000Y107110000D02*
X-73660000Y111623500D01*
X-82225000Y122950000D02*
X-83185000Y123910000D01*
X45800000Y98775000D02*
X36250000Y98775000D01*
X-59372500Y73977500D02*
X-59372500Y60483750D01*
X-59372500Y73977500D02*
X-59531250Y74136250D01*
X-67587500Y105887500D02*
X-67975000Y106275000D01*
X-140300000Y98225000D02*
X-140116500Y98225000D01*
X-152120500Y98220500D02*
X-140304500Y98220500D01*
X-68897500Y88741250D02*
X-68262500Y88106250D01*
X28432702Y98782702D02*
X28425000Y98775000D01*
X28432702Y98782702D02*
X33911473Y98782702D01*
X26525000Y98800000D02*
X19700000Y98800000D01*
X184215000Y99372500D02*
X184215000Y98440000D01*
X-68897500Y93027500D02*
X-68897500Y88741250D01*
X103279000Y98775000D02*
X122100000Y98775000D01*
X-49475000Y98825000D02*
X-67425000Y98825000D01*
X82525000Y98775000D02*
X65179000Y98775000D01*
X-72825000Y106275000D02*
X-73660000Y107110000D01*
X-110100000Y59625000D02*
X-115875000Y59625000D01*
X-60325000Y88106250D02*
X-68262500Y88106250D01*
X176975000Y98025000D02*
X183800000Y98025000D01*
X-126619000Y118594500D02*
X-126746000Y118721500D01*
X-126619000Y115189000D02*
X-126619000Y118594500D01*
X-126619000Y103632000D02*
X-126619000Y109347000D01*
X-124762500Y103206250D02*
X-126193250Y103206250D01*
X-126193250Y103206250D02*
X-126619000Y103632000D01*
X-127762000Y102616000D02*
X-127762000Y109220000D01*
X-127762000Y115189000D02*
X-127762000Y116078000D01*
X-128524000Y116840000D02*
X-128524000Y118721500D01*
X-124762500Y102406250D02*
X-127552250Y102406250D01*
X-127762000Y116078000D02*
X-128524000Y116840000D01*
X-127552250Y102406250D02*
X-127762000Y102616000D01*
X-126873000Y91567000D02*
X-127127000Y91821000D01*
X-128397000Y91821000D02*
X-128587500Y91630500D01*
X-126873000Y91059000D02*
X-126873000Y91567000D01*
X-127127000Y91821000D02*
X-128397000Y91821000D01*
X-117019000Y70112500D02*
X-127008500Y70112500D01*
X-128524000Y71628000D02*
X-128524000Y85090000D01*
X-128587500Y91630500D02*
X-128587500Y90606250D01*
X-123190000Y91821000D02*
X-127127000Y91821000D01*
X-127008500Y70112500D02*
X-128524000Y71628000D01*
X-122252500Y95096250D02*
X-122262500Y95106250D01*
X-122252500Y93881000D02*
X-122252500Y95096250D01*
X-107156250Y105450000D02*
X-111339000Y105450000D01*
X-111339000Y105450000D02*
X-111982750Y104806250D01*
X-111982750Y104806250D02*
X-113362500Y104806250D01*
X-11176000Y103124000D02*
X-28761000Y103124000D01*
X43156634Y102616000D02*
X44323000Y102616000D01*
X134874000Y102489000D02*
X124460000Y102489000D01*
X-145275000Y107675000D02*
X-144619000Y108331000D01*
X137287000Y102489000D02*
X136779000Y102489000D01*
X136779000Y102489000D02*
X136652000Y102489000D01*
X42648634Y103124000D02*
X28575000Y103124000D01*
X-30226000Y103124000D02*
X-47811000Y103124000D01*
X173762500Y86987500D02*
X171457500Y86987500D01*
X7874000Y103124000D02*
X-9711000Y103124000D01*
X42648634Y103124000D02*
X43156634Y102616000D01*
X62484000Y102489000D02*
X48260000Y102489000D01*
X-49657000Y103124000D02*
X-66802000Y103124000D01*
X184050000Y85350000D02*
X174650000Y85350000D01*
X171457500Y86987500D02*
X171203500Y86987500D01*
X171203500Y86987500D02*
X171069000Y87122000D01*
X174650000Y85350000D02*
X174450000Y85550000D01*
X-94742000Y103124000D02*
X-104140000Y103124000D01*
X-117348000Y114554000D02*
X-118237000Y113665000D01*
X184215000Y85515000D02*
X184050000Y85350000D01*
X168783000Y100777500D02*
X138998500Y100777500D01*
X174450000Y86300000D02*
X173762500Y86987500D01*
X-68834000Y103124000D02*
X-92837000Y103124000D01*
X81407000Y102489000D02*
X65913000Y102489000D01*
X184215000Y86672500D02*
X184215000Y85515000D01*
X-112903000Y114554000D02*
X-117348000Y114554000D01*
X100711000Y102489000D02*
X85217000Y102489000D01*
X121285000Y102489000D02*
X104140000Y102489000D01*
X-105283000Y104267000D02*
X-104140000Y103124000D01*
X-144619000Y108331000D02*
X-128488500Y108331000D01*
X-118262500Y108102500D02*
X-118262500Y106506250D01*
X-118237000Y113665000D02*
X-118237000Y109601000D01*
X-152490000Y86165000D02*
X-152490000Y86697500D01*
X-145375000Y85475000D02*
X-151800000Y85475000D01*
X25908000Y103124000D02*
X9779000Y103124000D01*
X-106771500Y114554000D02*
X-109509500Y114554000D01*
X-151800000Y85475000D02*
X-152490000Y86165000D01*
X-105283000Y104267000D02*
X-105283000Y113030000D01*
X138998500Y100777500D02*
X137287000Y102489000D01*
X-145275000Y106375000D02*
X-145275000Y107675000D01*
X174450000Y85550000D02*
X174450000Y86300000D01*
X508000Y86741000D02*
X-2032000Y86741000D01*
X38481000Y86741000D02*
X37465000Y86741000D01*
X110617000Y86741000D02*
X96139000Y86741000D01*
X38481000Y86741000D02*
X38100000Y87122000D01*
X57150000Y87122000D02*
X57150000Y88837500D01*
X-19050000Y87249000D02*
X-19050000Y88837500D01*
X16129000Y86741000D02*
X508000Y86741000D01*
X-37719000Y86741000D02*
X-41656000Y86741000D01*
X-91059000Y86741000D02*
X-106680000Y86741000D01*
X76581000Y86741000D02*
X76200000Y87122000D01*
X0Y87249000D02*
X0Y88837500D01*
X163957000Y86741000D02*
X133731000Y86741000D01*
X122809000Y86741000D02*
X115062000Y86741000D01*
X-124587000Y93881000D02*
X-124587000Y94615000D01*
X-4699000Y86741000D02*
X-18542000Y86741000D01*
X-18542000Y86741000D02*
X-19050000Y87249000D01*
X-82677000Y86741000D02*
X-83343750Y87407750D01*
X-83343750Y87407750D02*
X-83343750Y88837500D01*
X-37719000Y86741000D02*
X-38100000Y87122000D01*
X76200000Y87122000D02*
X76200000Y88837500D01*
X19050000Y87630000D02*
X19050000Y88837500D01*
X-32512000Y86741000D02*
X-37719000Y86741000D01*
X-38100000Y87122000D02*
X-38100000Y88837500D01*
X-56769000Y86741000D02*
X-57150000Y87122000D01*
X115062000Y86741000D02*
X114300000Y87503000D01*
X53848000Y86741000D02*
X38481000Y86741000D01*
X115062000Y86741000D02*
X113157000Y86741000D01*
X164306250Y88837500D02*
X164306250Y87090250D01*
X82677000Y86741000D02*
X76581000Y86741000D01*
X57531000Y86741000D02*
X57150000Y87122000D01*
X-44958000Y86741000D02*
X-56769000Y86741000D01*
X-124587000Y94615000D02*
X-124095750Y95106250D01*
X133731000Y86741000D02*
X133350000Y87122000D01*
X96012000Y86741000D02*
X84455000Y86741000D01*
X114300000Y87503000D02*
X114300000Y88837500D01*
X34798000Y86741000D02*
X19939000Y86741000D01*
X19939000Y86741000D02*
X18923000Y86741000D01*
X-61849000Y86741000D02*
X-82677000Y86741000D01*
X133731000Y86741000D02*
X125603000Y86741000D01*
X71374000Y86741000D02*
X57531000Y86741000D01*
X-123062500Y95106250D02*
X-124095750Y95106250D01*
X-82677000Y86741000D02*
X-87757000Y86741000D01*
X508000Y86741000D02*
X0Y87249000D01*
X164306250Y87090250D02*
X163957000Y86741000D01*
X95250000Y87503000D02*
X95250000Y88837500D01*
X-56769000Y86741000D02*
X-58293000Y86741000D01*
X57531000Y86741000D02*
X56642000Y86741000D01*
X19939000Y86741000D02*
X19050000Y87630000D01*
X96012000Y86741000D02*
X95250000Y87503000D01*
X96139000Y86741000D02*
X96012000Y86741000D01*
X76581000Y86741000D02*
X74168000Y86741000D01*
X133350000Y87122000D02*
X133350000Y88837500D01*
X-57150000Y87122000D02*
X-57150000Y88837500D01*
X-18542000Y86741000D02*
X-29591000Y86741000D01*
X38100000Y87122000D02*
X38100000Y88837500D01*
X-83343750Y92137500D02*
X-83343750Y93662500D01*
X-84668750Y94987500D02*
X-88781250Y94987500D01*
X-83343750Y93662500D02*
X-84668750Y94987500D01*
X-60452000Y68072000D02*
X-78232000Y68072000D01*
X-78232000Y68072000D02*
X-92329000Y68072000D01*
X-47244000Y68072000D02*
X-58420000Y68072000D01*
X47625000Y68453000D02*
X47625000Y69787500D01*
X-22352000Y68072000D02*
X-28321000Y68072000D01*
X-110109000Y98552000D02*
X-110763250Y99206250D01*
X29083000Y68072000D02*
X17907000Y68072000D01*
X86233000Y68072000D02*
X85725000Y68580000D01*
X-108458000Y68072000D02*
X-108639000Y68253000D01*
X-78581250Y68421250D02*
X-78581250Y69787500D01*
X104775000Y68707000D02*
X104775000Y69787500D01*
X-28575000Y68326000D02*
X-28575000Y69787500D01*
X105410000Y68072000D02*
X86233000Y68072000D01*
X15875000Y68072000D02*
X9779000Y68072000D01*
X-110109000Y82423000D02*
X-110109000Y98552000D01*
X48006000Y68072000D02*
X36830000Y68072000D01*
X9779000Y68072000D02*
X9525000Y68326000D01*
X-28321000Y68072000D02*
X-42799000Y68072000D01*
X-108639000Y80953000D02*
X-110109000Y82423000D01*
X9525000Y68326000D02*
X9525000Y69787500D01*
X-78232000Y68072000D02*
X-78581250Y68421250D01*
X124333000Y68072000D02*
X105410000Y68072000D01*
X66675000Y68834000D02*
X66675000Y69787500D01*
X-3556000Y68072000D02*
X-9144000Y68072000D01*
X-95885000Y68072000D02*
X-108458000Y68072000D01*
X28575000Y68580000D02*
X28575000Y69787500D01*
X159543750Y69787500D02*
X159543750Y68738750D01*
X105410000Y68072000D02*
X104775000Y68707000D01*
X-28321000Y68072000D02*
X-28575000Y68326000D01*
X29083000Y68072000D02*
X28575000Y68580000D01*
X124333000Y68072000D02*
X123825000Y68580000D01*
X-44577000Y68072000D02*
X-47244000Y68072000D01*
X85725000Y68580000D02*
X85725000Y69787500D01*
X123825000Y68580000D02*
X123825000Y69787500D01*
X48006000Y68072000D02*
X47625000Y68453000D01*
X67437000Y68072000D02*
X66675000Y68834000D01*
X34671000Y68072000D02*
X29083000Y68072000D01*
X-110763250Y99206250D02*
X-113362500Y99206250D01*
X53848000Y68072000D02*
X48006000Y68072000D01*
X-47244000Y68072000D02*
X-47625000Y68453000D01*
X86233000Y68072000D02*
X67437000Y68072000D01*
X158877000Y68072000D02*
X124333000Y68072000D01*
X9779000Y68072000D02*
X-1397000Y68072000D01*
X67437000Y68072000D02*
X56261000Y68072000D01*
X159543750Y68738750D02*
X158877000Y68072000D01*
X-9525000Y68453000D02*
X-9525000Y69787500D01*
X-108639000Y68253000D02*
X-108639000Y80953000D01*
X-9144000Y68072000D02*
X-9525000Y68453000D01*
X-9144000Y68072000D02*
X-20447000Y68072000D01*
X-47625000Y68453000D02*
X-47625000Y69787500D01*
X-78581250Y73087500D02*
X-78581250Y74612500D01*
X-79906250Y75937500D02*
X-84018750Y75937500D01*
X-78581250Y74612500D02*
X-79906250Y75937500D01*
X-113665000Y81153000D02*
X-115062500Y82550500D01*
X173482000Y49276000D02*
X150368000Y49276000D01*
X-40481250Y49625250D02*
X-40481250Y50737500D01*
X150018750Y49625250D02*
X150018750Y50737500D01*
X13716000Y50038000D02*
X16510000Y50038000D01*
X-64452500Y49720500D02*
X-64452500Y50737500D01*
X-53340000Y49276000D02*
X-64008000Y49276000D01*
X-5492750Y49276000D02*
X-4762500Y50006250D01*
X-109093000Y58293000D02*
X-109093000Y80391000D01*
X102743000Y49276000D02*
X102393750Y49625250D01*
X-87757000Y49276000D02*
X-100076000Y49276000D01*
X-115062500Y82550500D02*
X-115062500Y95106250D01*
X127000000Y49657000D02*
X127000000Y50737500D01*
X-109855000Y81153000D02*
X-113665000Y81153000D01*
X31369000Y49276000D02*
X30956250Y49688750D01*
X127381000Y49276000D02*
X102743000Y49276000D01*
X173831250Y49625250D02*
X173482000Y49276000D01*
X12954000Y49276000D02*
X13716000Y50038000D01*
X150368000Y49276000D02*
X127381000Y49276000D01*
X-4762500Y50006250D02*
X0Y50006250D01*
X-100076000Y49276000D02*
X-109093000Y58293000D01*
X-64008000Y49276000D02*
X-87757000Y49276000D01*
X150368000Y49276000D02*
X150018750Y49625250D01*
X-64008000Y49276000D02*
X-64452500Y49720500D01*
X102393750Y49625250D02*
X102393750Y50737500D01*
X127381000Y49276000D02*
X127000000Y49657000D01*
X17272000Y49276000D02*
X31369000Y49276000D01*
X-40132000Y49276000D02*
X-50419000Y49276000D01*
X-87757000Y49276000D02*
X-88106250Y49625250D01*
X-109093000Y80391000D02*
X-109855000Y81153000D01*
X16510000Y50038000D02*
X17272000Y49276000D01*
X173831250Y50737500D02*
X173831250Y49625250D01*
X-19685000Y49276000D02*
X-5492750Y49276000D01*
X0Y50006250D02*
X730250Y49276000D01*
X30956250Y49688750D02*
X30956250Y50737500D01*
X730250Y49276000D02*
X12954000Y49276000D01*
X-40132000Y49276000D02*
X-40481250Y49625250D01*
X102743000Y49276000D02*
X31369000Y49276000D01*
X-88106250Y49625250D02*
X-88106250Y50737500D01*
X-22987000Y49276000D02*
X-40132000Y49276000D01*
X-88106250Y55562500D02*
X-89431250Y56887500D01*
X-88106250Y54037500D02*
X-88106250Y55562500D01*
X-89431250Y56887500D02*
X-93543750Y56887500D01*
X-57150000Y92137500D02*
X-57150000Y93662500D01*
X-57150000Y93662500D02*
X-58475000Y94987500D01*
X-58475000Y94987500D02*
X-62587500Y94987500D01*
X-48950000Y75937500D02*
X-53062500Y75937500D01*
X-47625000Y74612500D02*
X-48950000Y75937500D01*
X-47625000Y73087500D02*
X-47625000Y74612500D01*
X-64293750Y55562500D02*
X-65618750Y56887500D01*
X-64452500Y54037500D02*
X-64452500Y55403750D01*
X-65618750Y56887500D02*
X-69890000Y56887500D01*
X-64452500Y55403750D02*
X-64293750Y55562500D01*
X-53712500Y133087500D02*
X-57825000Y133087500D01*
X-52387500Y130237500D02*
X-52387500Y131762500D01*
X-52387500Y131762500D02*
X-53712500Y133087500D01*
X-42862500Y111187500D02*
X-42862500Y112712500D01*
X-42862500Y112712500D02*
X-44187500Y114037500D01*
X-44187500Y114037500D02*
X-48300000Y114037500D01*
X-38100000Y93662500D02*
X-39425000Y94987500D01*
X-38100000Y92137500D02*
X-38100000Y93662500D01*
X-39425000Y94987500D02*
X-43537500Y94987500D01*
X-29900000Y75937500D02*
X-34012500Y75937500D01*
X-28575000Y74612500D02*
X-29900000Y75937500D01*
X-28575000Y73087500D02*
X-28575000Y74612500D01*
X-40481250Y54037500D02*
X-40481250Y55562500D01*
X-41806250Y56887500D02*
X-45918750Y56887500D01*
X-40481250Y55562500D02*
X-41806250Y56887500D01*
X181675000Y84132500D02*
X174167500Y84132500D01*
X171831000Y85979000D02*
X169820000Y85979000D01*
X153924000Y86233000D02*
X129921000Y86233000D01*
X54610000Y85852000D02*
X38100000Y85852000D01*
X-43688000Y85852000D02*
X-57531000Y85852000D01*
X-3683000Y85852000D02*
X-30071000Y85852000D01*
X154178000Y85979000D02*
X164338000Y85979000D01*
X171839500Y85987500D02*
X171831000Y85979000D01*
X154178000Y85979000D02*
X153924000Y86233000D01*
X88265000Y85725000D02*
X88138000Y85852000D01*
X-31623000Y85852000D02*
X-41021000Y85852000D01*
X81534000Y85852000D02*
X74803000Y85852000D01*
X173950000Y84350000D02*
X173950000Y85675000D01*
X173950000Y85675000D02*
X173637500Y85987500D01*
X-139050000Y84675000D02*
X-137725000Y84675000D01*
X72390000Y85852000D02*
X57150000Y85852000D01*
X122174000Y85725000D02*
X114046000Y85725000D01*
X-60579000Y85852000D02*
X-88292250Y85852000D01*
X129921000Y86233000D02*
X129413000Y85725000D01*
X-149950000Y84157500D02*
X-139567500Y84157500D01*
X-118237000Y104394000D02*
X-117462500Y105168500D01*
X129413000Y85725000D02*
X126238000Y85725000D01*
X-117462500Y105168500D02*
X-117462500Y106506250D01*
X17018000Y85852000D02*
X-1480822Y85852000D01*
X-139567500Y84157500D02*
X-139050000Y84675000D01*
X-108966000Y85852000D02*
X-108966000Y94615000D01*
X109728000Y85725000D02*
X88265000Y85725000D01*
X174167500Y84132500D02*
X173950000Y84350000D01*
X-90297000Y85852000D02*
X-108966000Y85852000D01*
X173637500Y85987500D02*
X171839500Y85987500D01*
X35814000Y85852000D02*
X19685000Y85852000D01*
X16891000Y84455000D02*
X-127000Y84455000D01*
X-130200000Y83775000D02*
X-130200000Y85946786D01*
X-2667000Y84455000D02*
X-28702000Y84455000D01*
X-116713000Y105410000D02*
X-116713000Y103759000D01*
X-117221000Y109220000D02*
X-116662500Y108661500D01*
X-117221000Y112903000D02*
X-116586000Y113538000D01*
X-117221000Y109220000D02*
X-117221000Y112903000D01*
X-118745000Y103378000D02*
X-118963500Y103378000D01*
X-90297000Y84455000D02*
X-89570000Y85182000D01*
X34671000Y83058000D02*
X33274000Y83058000D01*
X31877000Y84455000D02*
X19177000Y84455000D01*
X-116662500Y105460500D02*
X-116713000Y105410000D01*
X-104521000Y104683500D02*
X-104521000Y110236000D01*
X184050000Y82800000D02*
X173900000Y82800000D01*
X73025000Y83058000D02*
X57150000Y83058000D01*
X-106771500Y112141000D02*
X-106771500Y113248500D01*
X-89570000Y85182000D02*
X-89570000Y86280134D01*
X111252000Y83058000D02*
X93853000Y83058000D01*
X-104521000Y88138000D02*
X-104521000Y100711000D01*
X-117094000Y103378000D02*
X-116713000Y103759000D01*
X-106771500Y113248500D02*
X-107061000Y113538000D01*
X-31750000Y84455000D02*
X-39497000Y84455000D01*
X171601500Y84987500D02*
X173062500Y84987500D01*
X123444000Y83058000D02*
X113030000Y83058000D01*
X-90757866Y87468000D02*
X-103851000Y87468000D01*
X-130200000Y85946786D02*
X-130326500Y86073286D01*
X-42164000Y84455000D02*
X-58547000Y84455000D01*
X91948000Y83058000D02*
X74803000Y83058000D01*
X-113030000Y113538000D02*
X-112903000Y113538000D01*
X-107061000Y113538000D02*
X-109474000Y113538000D01*
X33274000Y83058000D02*
X31877000Y84455000D01*
X171601500Y84987500D02*
X171600528Y84986528D01*
X-151132500Y82800000D02*
X-137700000Y82800000D01*
X-116662500Y106506250D02*
X-116662500Y108661500D01*
X184215000Y84132500D02*
X184215000Y82965000D01*
X158095012Y82996620D02*
X126303620Y82996620D01*
X173450000Y84600000D02*
X173062500Y84987500D01*
X-103851000Y87468000D02*
X-104521000Y88138000D01*
X-60325000Y84455000D02*
X-88138000Y84455000D01*
X-152490000Y84157500D02*
X-151132500Y82800000D01*
X184215000Y82965000D02*
X184050000Y82800000D01*
X-118745000Y103378000D02*
X-117094000Y103378000D01*
X-89570000Y86280134D02*
X-90757866Y87468000D01*
X-116662500Y106506250D02*
X-116662500Y105460500D01*
X55245000Y83058000D02*
X43434000Y83058000D01*
X-116586000Y113538000D02*
X-113030000Y113538000D01*
X173900000Y82800000D02*
X173450000Y83250000D01*
X171600528Y84986528D02*
X169938338Y84986528D01*
X173450000Y83250000D02*
X173450000Y84600000D01*
X-27781250Y101600000D02*
X-11906250Y101600000D01*
X-113362500Y103206250D02*
X-108794250Y103206250D01*
X65179000Y101600000D02*
X82550000Y101600000D01*
X-105318500Y101600000D02*
X-94742000Y101600000D01*
X103279000Y101600000D02*
X122186000Y101600000D01*
X-47625000Y101600000D02*
X-30956250Y101600000D01*
X-141605000Y119253000D02*
X-141605000Y118872000D01*
X172950000Y82150000D02*
X172950000Y83700000D01*
X10318750Y101600000D02*
X26193750Y101600000D01*
X-66675000Y101600000D02*
X-50006250Y101600000D01*
X-142417500Y81617500D02*
X-149950000Y81617500D01*
X172650000Y84000000D02*
X170233000Y84000000D01*
X173507500Y81592500D02*
X172950000Y82150000D01*
X139446000Y83947000D02*
X139192000Y84201000D01*
X28575000Y101600000D02*
X45243750Y101600000D01*
X172950000Y83700000D02*
X172650000Y84000000D01*
X47625000Y101600000D02*
X63500000Y101600000D01*
X164627500Y83947000D02*
X159893000Y83947000D01*
X-108794250Y103206250D02*
X-108839000Y103251000D01*
X-9525000Y101600000D02*
X7143750Y101600000D01*
X139192000Y97782948D02*
X139192000Y87630000D01*
X84229000Y101600000D02*
X101600000Y101600000D01*
X-141224000Y119634000D02*
X-141605000Y119253000D01*
X181675000Y81592500D02*
X173507500Y81592500D01*
X-92837000Y101600000D02*
X-68707000Y101600000D01*
X135374947Y101600000D02*
X139192000Y97782948D01*
X-142400000Y81600000D02*
X-142417500Y81617500D01*
X158404500Y83947000D02*
X139446000Y83947000D01*
X-133223000Y119634000D02*
X-141224000Y119634000D01*
X170233000Y84000000D02*
X170180000Y83947000D01*
X123825000Y101600000D02*
X135374947Y101600000D01*
X-33337500Y131762500D02*
X-34662500Y133087500D01*
X-33337500Y130237500D02*
X-33337500Y131762500D01*
X-34662500Y133087500D02*
X-38775000Y133087500D01*
X-23812500Y112712500D02*
X-25137500Y114037500D01*
X-23812500Y111187500D02*
X-23812500Y112712500D01*
X-25137500Y114037500D02*
X-29250000Y114037500D01*
X-19050000Y93662500D02*
X-20375000Y94987500D01*
X-20375000Y94987500D02*
X-24487500Y94987500D01*
X-19050000Y92137500D02*
X-19050000Y93662500D01*
X-9525000Y74612500D02*
X-10850000Y75937500D01*
X-9525000Y73087500D02*
X-9525000Y74612500D01*
X-10850000Y75937500D02*
X-14962500Y75937500D01*
X29631250Y56887500D02*
X25518750Y56887500D01*
X30956250Y55562500D02*
X29631250Y56887500D01*
X30956250Y54037500D02*
X30956250Y55562500D01*
X-14287500Y131762500D02*
X-15612500Y133087500D01*
X-14287500Y130237500D02*
X-14287500Y131762500D01*
X-15612500Y133087500D02*
X-19725000Y133087500D01*
X-4762500Y112712500D02*
X-6087500Y114037500D01*
X-6087500Y114037500D02*
X-10200000Y114037500D01*
X-4762500Y111250000D02*
X-4762500Y112712500D01*
X-1325000Y94987500D02*
X-5437500Y94987500D01*
X0Y93662500D02*
X-1325000Y94987500D01*
X0Y92137500D02*
X0Y93662500D01*
X9525000Y74612500D02*
X8200000Y75937500D01*
X8200000Y75937500D02*
X4087500Y75937500D01*
X9525000Y73087500D02*
X9525000Y74612500D01*
X102393750Y55562500D02*
X101068750Y56887500D01*
X101068750Y56887500D02*
X96956250Y56887500D01*
X102393750Y54037500D02*
X102393750Y55562500D01*
X4762500Y130237500D02*
X4762500Y131762500D01*
X4762500Y131762500D02*
X3437500Y133087500D01*
X3437500Y133087500D02*
X-675000Y133087500D01*
X14287500Y112712500D02*
X12962500Y114037500D01*
X12962500Y114037500D02*
X8850000Y114037500D01*
X14287500Y111187500D02*
X14287500Y112712500D01*
X19050000Y93662500D02*
X17725000Y94987500D01*
X19050000Y92137500D02*
X19050000Y93662500D01*
X17725000Y94987500D02*
X13612500Y94987500D01*
X28575000Y74612500D02*
X27250000Y75937500D01*
X28575000Y73087500D02*
X28575000Y74612500D01*
X27250000Y75937500D02*
X23137500Y75937500D01*
X127000000Y55562500D02*
X125675000Y56887500D01*
X125675000Y56887500D02*
X121562500Y56887500D01*
X127000000Y54037500D02*
X127000000Y55562500D01*
X22487500Y133087500D02*
X18375000Y133087500D01*
X23812500Y131762500D02*
X22487500Y133087500D01*
X23812500Y130237500D02*
X23812500Y131762500D01*
X32012500Y114037500D02*
X27900000Y114037500D01*
X33337500Y112712500D02*
X32012500Y114037500D01*
X33337500Y111187500D02*
X33337500Y112712500D01*
X36775000Y94987500D02*
X32662500Y94987500D01*
X38100000Y92137500D02*
X38100000Y93662500D01*
X38100000Y93662500D02*
X36775000Y94987500D01*
X47625000Y73087500D02*
X47625000Y74612500D01*
X47625000Y74612500D02*
X46300000Y75937500D01*
X46300000Y75937500D02*
X42187500Y75937500D01*
X150018750Y54037500D02*
X150018750Y55562500D01*
X148693750Y56887500D02*
X144581250Y56887500D01*
X150018750Y55562500D02*
X148693750Y56887500D01*
X42862500Y131762500D02*
X41537500Y133087500D01*
X42862500Y130237500D02*
X42862500Y131762500D01*
X41537500Y133087500D02*
X37425000Y133087500D01*
X51062500Y114037500D02*
X46950000Y114037500D01*
X52387500Y112712500D02*
X51062500Y114037500D01*
X52387500Y111187500D02*
X52387500Y112712500D01*
X57150000Y93662500D02*
X55825000Y94987500D01*
X57150000Y92137500D02*
X57150000Y93662500D01*
X55825000Y94987500D02*
X51712500Y94987500D01*
X66675000Y73087500D02*
X66675000Y74612500D01*
X65350000Y75937500D02*
X61237500Y75937500D01*
X66675000Y74612500D02*
X65350000Y75937500D01*
X173831250Y55562500D02*
X172506250Y56887500D01*
X173831250Y54037500D02*
X173831250Y55562500D01*
X172506250Y56887500D02*
X168393750Y56887500D01*
X61912500Y131762500D02*
X60587500Y133087500D01*
X61912500Y130237500D02*
X61912500Y131762500D01*
X60587500Y133087500D02*
X56475000Y133087500D01*
X71437500Y112712500D02*
X70112500Y114037500D01*
X70112500Y114037500D02*
X66000000Y114037500D01*
X71437500Y111187500D02*
X71437500Y112712500D01*
X76200000Y92137500D02*
X76200000Y93662500D01*
X76200000Y93662500D02*
X74875000Y94987500D01*
X74875000Y94987500D02*
X70762500Y94987500D01*
X85725000Y73087500D02*
X85725000Y74612500D01*
X84400000Y75937500D02*
X80287500Y75937500D01*
X85725000Y74612500D02*
X84400000Y75937500D01*
X79637500Y133087500D02*
X75525000Y133087500D01*
X80962500Y131762500D02*
X79637500Y133087500D01*
X80962500Y130237500D02*
X80962500Y131762500D01*
X90487500Y111187500D02*
X90487500Y112712500D01*
X90487500Y112712500D02*
X89162500Y114037500D01*
X89162500Y114037500D02*
X85050000Y114037500D01*
X95250000Y93662500D02*
X93925000Y94987500D01*
X95250000Y92137500D02*
X95250000Y93662500D01*
X93925000Y94987500D02*
X89812500Y94987500D01*
X104775000Y73087500D02*
X104775000Y74612500D01*
X104775000Y74612500D02*
X103450000Y75937500D01*
X103450000Y75937500D02*
X99337500Y75937500D01*
X100012500Y131762500D02*
X98687500Y133087500D01*
X100012500Y130237500D02*
X100012500Y131762500D01*
X98687500Y133087500D02*
X94575000Y133087500D01*
X109537500Y112712500D02*
X108212500Y114037500D01*
X109537500Y111187500D02*
X109537500Y112712500D01*
X108212500Y114037500D02*
X104100000Y114037500D01*
X114300000Y92137500D02*
X114300000Y93662500D01*
X114300000Y93662500D02*
X112975000Y94987500D01*
X112975000Y94987500D02*
X108862500Y94987500D01*
X123825000Y74612500D02*
X122500000Y75937500D01*
X123825000Y73087500D02*
X123825000Y74612500D01*
X122500000Y75937500D02*
X118387500Y75937500D01*
X119062500Y131762500D02*
X117737500Y133087500D01*
X119062500Y130237500D02*
X119062500Y131762500D01*
X117737500Y133087500D02*
X113625000Y133087500D01*
X128587500Y111187500D02*
X128587500Y112712500D01*
X127262500Y114037500D02*
X123150000Y114037500D01*
X128587500Y112712500D02*
X127262500Y114037500D01*
X133350000Y92137500D02*
X133350000Y93662500D01*
X133350000Y93662500D02*
X132025000Y94987500D01*
X132025000Y94987500D02*
X127912500Y94987500D01*
X158218750Y75937500D02*
X154106250Y75937500D01*
X159543750Y73087500D02*
X159543750Y74612500D01*
X159543750Y74612500D02*
X158218750Y75937500D01*
X136787500Y133087500D02*
X132675000Y133087500D01*
X138112500Y131762500D02*
X136787500Y133087500D01*
X138112500Y130237500D02*
X138112500Y131762500D01*
X147637500Y112712500D02*
X146312500Y114037500D01*
X146312500Y114037500D02*
X142200000Y114037500D01*
X147637500Y111187500D02*
X147637500Y112712500D01*
X164306250Y93662500D02*
X162981250Y94987500D01*
X162981250Y94987500D02*
X158868750Y94987500D01*
X164306250Y92137500D02*
X164306250Y93662500D01*
X165362500Y133087500D02*
X161250000Y133087500D01*
X166687500Y130237500D02*
X166687500Y131762500D01*
X166687500Y131762500D02*
X165362500Y133087500D01*
X171450000Y111187500D02*
X171450000Y112712500D01*
X170125000Y114037500D02*
X166012500Y114037500D01*
X171450000Y112712500D02*
X170125000Y114037500D01*
X20850000Y139825000D02*
X20950000Y139825000D01*
X20500000Y145975000D02*
X20500000Y140175000D01*
X121602500Y89535000D02*
X124428250Y86709250D01*
X116840000Y112077500D02*
X116840000Y109378750D01*
X20825000Y139850000D02*
X20850000Y139825000D01*
X124428250Y81184750D02*
X124428250Y86709250D01*
X109474000Y123444000D02*
X116681250Y123444000D01*
X27462000Y136887000D02*
X-116351000Y136887000D01*
X118150000Y121975250D02*
X118150000Y113537500D01*
X127381000Y78232000D02*
X124428250Y81184750D01*
X-120589000Y130302000D02*
X-120316500Y130029500D01*
X27462000Y136887000D02*
X108204000Y136887000D01*
X-120316500Y109172500D02*
X-120662500Y108826500D01*
X121602500Y93027500D02*
X121602500Y89535000D01*
X27462000Y136887000D02*
X27462000Y136537000D01*
X27462000Y136537000D02*
X27075000Y136150000D01*
X108625000Y136466000D02*
X108204000Y136887000D01*
X20500000Y140175000D02*
X20825000Y139850000D01*
X116840000Y109378750D02*
X122912500Y103306250D01*
X147796250Y73977500D02*
X147796250Y77120750D01*
X116681250Y123444000D02*
X118150000Y121975250D01*
X107315000Y131127500D02*
X108743750Y129698750D01*
X-116967000Y136271000D02*
X-116967000Y132461000D01*
X19208750Y146208750D02*
X20266250Y146208750D01*
X108743750Y129698750D02*
X108743750Y124174250D01*
X146685000Y78232000D02*
X127381000Y78232000D01*
X-120316500Y130029500D02*
X-120316500Y109172500D01*
X20266250Y146208750D02*
X20500000Y145975000D01*
X108743750Y124174250D02*
X109474000Y123444000D01*
X-120662500Y108826500D02*
X-120662500Y106506250D01*
X122912500Y103306250D02*
X122912500Y94487500D01*
X-116967000Y136271000D02*
X-116351000Y136887000D01*
X147796250Y77120750D02*
X146685000Y78232000D01*
X108625000Y132587500D02*
X108625000Y136466000D01*
X166878000Y89535000D02*
X166878000Y79375000D01*
X59690000Y48768000D02*
X60325000Y48133000D01*
X58674000Y122428000D02*
X59309000Y123063000D01*
X-889000Y48514000D02*
X12573000Y48514000D01*
X59690000Y112077500D02*
X59690000Y108585000D01*
X59309000Y123063000D02*
X59690000Y123063000D01*
X13208000Y48514000D02*
X13970000Y49276000D01*
X-137656250Y89237500D02*
X-149950000Y89237500D01*
X167330500Y89987500D02*
X166878000Y89535000D01*
X-116681250Y61912500D02*
X-116681250Y49212500D01*
X181675000Y89212500D02*
X175431250Y89212500D01*
X-116662500Y81991500D02*
X-116645730Y81991500D01*
X-116681250Y49212500D02*
X-115887500Y48418750D01*
X63500000Y107156250D02*
X64452500Y106203750D01*
X-3651250Y48418750D02*
X-2794000Y49276000D01*
X50800000Y126206250D02*
X57150000Y126206250D01*
X-136906000Y54102000D02*
X-136906000Y88487250D01*
X174656250Y89987500D02*
X167330500Y89987500D01*
X-116662500Y95106250D02*
X-116662500Y81991500D01*
X12700000Y48514000D02*
X13208000Y48514000D01*
X71437500Y88106250D02*
X73977500Y85566250D01*
X64452500Y89535000D02*
X65881250Y88106250D01*
X59690000Y108585000D02*
X61118750Y107156250D01*
X64452500Y106203750D02*
X64452500Y93027500D01*
X-19050000Y48418750D02*
X-3651250Y48418750D01*
X74168000Y79375000D02*
X73977500Y79184500D01*
X-119888000Y53086000D02*
X-130532158Y53086000D01*
X175431250Y89212500D02*
X174656250Y89987500D01*
X73533000Y48133000D02*
X73818750Y48418750D01*
X13970000Y49276000D02*
X16129000Y49276000D01*
X73977500Y79184500D02*
X73977500Y73977500D01*
X50165000Y131127500D02*
X50165000Y126841250D01*
X-116645730Y81991500D02*
X-116642572Y81994658D01*
X16129000Y49276000D02*
X16637000Y48768000D01*
X57150000Y126206250D02*
X59690000Y123666250D01*
X164592000Y79121000D02*
X127254000Y79121000D01*
X59690000Y123666250D02*
X59690000Y123063000D01*
X-136906000Y88487250D02*
X-137656250Y89237500D01*
X-1651000Y49276000D02*
X-889000Y48514000D01*
X127254000Y79121000D02*
X127386714Y79253714D01*
X-2794000Y49276000D02*
X-1651000Y49276000D01*
X-115887500Y48418750D02*
X-53975000Y48418750D01*
X64452500Y93027500D02*
X64452500Y89535000D01*
X-49212500Y48418750D02*
X-23812500Y48418750D01*
X12573000Y48514000D02*
X12700000Y48514000D01*
X-130532158Y53086000D02*
X-130464500Y53153658D01*
X92075000Y79375000D02*
X74168000Y79375000D01*
X125210572Y79375000D02*
X113030000Y79375000D01*
X21748750Y143668750D02*
X21748750Y138526250D01*
X111351000Y79375000D02*
X93754000Y79375000D01*
X59690000Y123063000D02*
X59690000Y112077500D01*
X16637000Y48768000D02*
X59690000Y48768000D01*
X21748750Y138526250D02*
X21750000Y138525000D01*
X65881250Y88106250D02*
X71437500Y88106250D01*
X73977500Y85566250D02*
X73977500Y79184500D01*
X60325000Y48133000D02*
X73533000Y48133000D01*
X61118750Y107156250D02*
X63500000Y107156250D01*
X125343286Y79242286D02*
X125210572Y79375000D01*
X50165000Y126841250D02*
X50800000Y126206250D01*
X93218000Y71374000D02*
X93218000Y69596000D01*
X69215000Y127635000D02*
X70643750Y126206250D01*
X-135525000Y87875000D02*
X-135128000Y87478000D01*
X93027500Y73977500D02*
X93027500Y71564500D01*
X167727500Y88987500D02*
X167640000Y88900000D01*
X-135128000Y87478000D02*
X-135128000Y53086000D01*
X-117475000Y52197000D02*
X-117475000Y48418750D01*
X163703000Y63207250D02*
X93256750Y63207250D01*
X22991250Y146208750D02*
X23000000Y146200000D01*
X-117475000Y52197000D02*
X-117510500Y52197000D01*
X87376000Y50002500D02*
X87376000Y60392250D01*
X87376000Y64262000D02*
X87376000Y65405000D01*
X-152490000Y89237500D02*
X-152490000Y88196250D01*
X-117462500Y82943500D02*
X-117462500Y82561840D01*
X184215000Y89212500D02*
X184215000Y88015000D01*
X184215000Y88015000D02*
X184100000Y87900000D01*
X-137633000Y87874500D02*
X-137632500Y87875000D01*
X81756250Y107156250D02*
X83502500Y105410000D01*
X78712000Y122329000D02*
X78740000Y122301000D01*
X-117462500Y95106250D02*
X-117462500Y82943500D01*
X26193750Y47625000D02*
X86995000Y47625000D01*
X87376000Y48006000D02*
X87376000Y48514000D01*
X-152490000Y88196250D02*
X-152168250Y87874500D01*
X174762500Y88987500D02*
X167727500Y88987500D01*
X-1587500Y47625000D02*
X13493750Y47625000D01*
X23000000Y146200000D02*
X23000000Y138575000D01*
X-118999000Y52197000D02*
X-130175000Y52197000D01*
X86995000Y47625000D02*
X87376000Y48006000D01*
X-117475000Y48418750D02*
X-116681250Y47625000D01*
X167386000Y63246000D02*
X166878000Y63246000D01*
X93027500Y71564500D02*
X93218000Y71374000D01*
X84455000Y84328000D02*
X83502500Y85280500D01*
X93218000Y66040000D02*
X93218000Y67310000D01*
X76200000Y126206250D02*
X78740000Y123666250D01*
X175150000Y87900000D02*
X175050000Y88000000D01*
X184100000Y87900000D02*
X175150000Y87900000D01*
X-117462500Y82561840D02*
X-117472083Y82552257D01*
X93256750Y63207250D02*
X93091000Y63373000D01*
X-51343500Y47625000D02*
X-23018750Y47625000D01*
X70643750Y126206250D02*
X76200000Y126206250D01*
X167640000Y63500000D02*
X167386000Y63246000D01*
X83502500Y105410000D02*
X83502500Y93027500D01*
X21748750Y146208750D02*
X22991250Y146208750D01*
X93091000Y65913000D02*
X93218000Y66040000D01*
X87757000Y65786000D02*
X92964000Y65786000D01*
X93091000Y63373000D02*
X93091000Y65913000D01*
X-116681250Y47625000D02*
X-53181250Y47625000D01*
X-117475000Y61087000D02*
X-117472083Y61087000D01*
X175050000Y88000000D02*
X175050000Y88700000D01*
X78740000Y112077500D02*
X78740000Y108108750D01*
X78740000Y122301000D02*
X78740000Y112077500D01*
X78740000Y108108750D02*
X79692500Y107156250D01*
X87376000Y65405000D02*
X87757000Y65786000D01*
X77470000Y122329000D02*
X78712000Y122329000D01*
X78740000Y123666250D02*
X78740000Y122301000D01*
X92678250Y84328000D02*
X84455000Y84328000D01*
X-117475000Y61087000D02*
X-117475000Y52197000D01*
X69215000Y131127500D02*
X69215000Y127635000D01*
X175050000Y88700000D02*
X174762500Y88987500D01*
X92964000Y65786000D02*
X93218000Y66040000D01*
X-152168250Y87874500D02*
X-137633000Y87874500D01*
X79692500Y107156250D02*
X81756250Y107156250D01*
X93027500Y73977500D02*
X93027500Y83978750D01*
X-19843750Y47625000D02*
X-3175000Y47625000D01*
X83502500Y85280500D02*
X83502500Y93027500D01*
X-136179500Y87875000D02*
X-135525000Y87875000D01*
X167640000Y88900000D02*
X167640000Y63500000D01*
X93027500Y83978750D02*
X92678250Y84328000D01*
X22275000Y125450000D02*
X22275000Y132050000D01*
X97691000Y122329000D02*
X97790000Y122428000D01*
X26987500Y46831250D02*
X111125000Y46831250D01*
X19208750Y143668750D02*
X19208750Y138566250D01*
X-118237000Y47593250D02*
X-118237000Y50927000D01*
X-50006250Y46831250D02*
X-22225000Y46831250D01*
X111125000Y88106250D02*
X112077500Y87153750D01*
X174650000Y87700000D02*
X174362500Y87987500D01*
X102711250Y88106250D02*
X111125000Y88106250D01*
X-117475000Y46831250D02*
X-118237000Y47593250D01*
X181675000Y86672500D02*
X175027500Y86672500D01*
X112077500Y87153750D02*
X112077500Y73977500D01*
X174362500Y87987500D02*
X168759500Y87987500D01*
X102552500Y93027500D02*
X102552500Y88265000D01*
X112077500Y73977500D02*
X112077500Y69215000D01*
X22825000Y124900000D02*
X22275000Y125450000D01*
X-53975000Y46831250D02*
X-117475000Y46831250D01*
X112077500Y69215000D02*
X111918750Y69056250D01*
X27650000Y123237000D02*
X27563000Y123150000D01*
X99218750Y107156250D02*
X100806250Y107156250D01*
X-118262500Y95106250D02*
X-118262500Y81940500D01*
X-136144000Y51308000D02*
X-136144000Y86614500D01*
X97790000Y108585000D02*
X99218750Y107156250D01*
X-118237000Y50927000D02*
X-118237000Y62230000D01*
X102552500Y88265000D02*
X102711250Y88106250D01*
X102552500Y105410000D02*
X102552500Y93027500D01*
X88265000Y126841250D02*
X88900000Y126206250D01*
X-20546000Y46831250D02*
X-4762500Y46831250D01*
X168366500Y87594500D02*
X168366500Y65024000D01*
X97790000Y122428000D02*
X97790000Y112077500D01*
X174650000Y87050000D02*
X174650000Y87700000D01*
X0Y46831250D02*
X12700000Y46831250D01*
X-135001000Y50927000D02*
X-135763000Y50927000D01*
X111918750Y50800000D02*
X111918750Y60325000D01*
X111918750Y47625000D02*
X111918750Y48418750D01*
X88900000Y126206250D02*
X94456250Y126206250D01*
X-137727500Y86697500D02*
X-137725000Y86700000D01*
X-118237000Y50927000D02*
X-130175000Y50927000D01*
X-136144000Y86614500D02*
X-136179500Y86650000D01*
X94456250Y126206250D02*
X97790000Y122872500D01*
X-149950000Y86697500D02*
X-137727500Y86697500D01*
X22275000Y132050000D02*
X21975000Y132350000D01*
X175027500Y86672500D02*
X174650000Y87050000D01*
X-135763000Y50927000D02*
X-136144000Y51308000D01*
X88265000Y131127500D02*
X88265000Y126841250D01*
X97790000Y112077500D02*
X97790000Y108585000D01*
X164465000Y64135000D02*
X112776000Y64135000D01*
X23200000Y123150000D02*
X22825000Y123525000D01*
X97790000Y122872500D02*
X97790000Y122428000D01*
X22825000Y123525000D02*
X22825000Y124900000D01*
X27563000Y123150000D02*
X23200000Y123150000D01*
X111125000Y46831250D02*
X111918750Y47625000D01*
X100806250Y107156250D02*
X102552500Y105410000D01*
X80645000Y122329000D02*
X97691000Y122329000D01*
X168759500Y87987500D02*
X168366500Y87594500D01*
X159609561Y97057439D02*
X158271439Y97057439D01*
X-39012500Y82668750D02*
X-39012500Y82145500D01*
X-52070000Y48641000D02*
X-52228750Y48799750D01*
X22479000Y115316000D02*
X23174939Y115316000D01*
X107950000Y97028000D02*
X107823000Y97028000D01*
X43307000Y96647000D02*
X42545000Y96647000D01*
X22098000Y115697000D02*
X22479000Y115316000D01*
X109855000Y97028000D02*
X107950000Y97028000D01*
X-54610000Y125730000D02*
X-55118000Y126238000D01*
X-49847500Y89535000D02*
X-48418750Y88106250D01*
X90678000Y97028000D02*
X91186000Y96520000D01*
X-131191000Y88733457D02*
X-131191000Y44069000D01*
X19504000Y129667000D02*
X19504000Y128267903D01*
X19812000Y127959903D02*
X19812000Y127197552D01*
X-42862500Y73818750D02*
X-43656250Y73025000D01*
X-48537500Y104893750D02*
X-48537500Y94487500D01*
X42545000Y96647000D02*
X42291000Y96393000D01*
X-20193000Y82169000D02*
X-1778000Y82169000D01*
X52832000Y96647000D02*
X52451000Y97028000D01*
X71755000Y97028000D02*
X69723000Y97028000D01*
X122174000Y96520000D02*
X110363000Y96520000D01*
X-148982500Y96857500D02*
X-147525000Y95400000D01*
X130810000Y96139000D02*
X129921000Y97028000D01*
X-49212500Y59531250D02*
X-50918750Y57825000D01*
X-54610000Y107791250D02*
X-53181250Y106362500D01*
X27940000Y102362000D02*
X42037000Y102362000D01*
X29548522Y138876478D02*
X29580493Y138876478D01*
X26263214Y135311714D02*
X16961714Y135311714D01*
X-131191000Y95309000D02*
X-131191000Y96266000D01*
X-52070000Y43815000D02*
X-52070000Y48641000D01*
X177532500Y96832500D02*
X176687500Y95987500D01*
X-149950000Y96857500D02*
X-148982500Y96857500D01*
X42291000Y84836000D02*
X42291000Y82423000D01*
X69723000Y97028000D02*
X69342000Y96647000D01*
X-130650750Y96806250D02*
X-124762500Y96806250D01*
X107315000Y96520000D02*
X103378000Y96520000D01*
X-43656250Y73025000D02*
X-43656250Y61118750D01*
X26543000Y112014000D02*
X27770901Y110786099D01*
X16275000Y134625000D02*
X16275000Y132896000D01*
X84328000Y96647000D02*
X88138000Y96647000D01*
X42291000Y82423000D02*
X42037000Y82169000D01*
X-44450000Y88106250D02*
X-39012500Y82668750D01*
X-43656250Y61118750D02*
X-45243750Y59531250D01*
X254000Y82169000D02*
X17145000Y82169000D01*
X-39012500Y82145500D02*
X-39012500Y75437500D01*
X-147525000Y95400000D02*
X-135750000Y95400000D01*
X50927000Y97028000D02*
X50546000Y96647000D01*
X27770901Y110786099D02*
X27770901Y102531099D01*
X52451000Y97028000D02*
X50927000Y97028000D01*
X22098000Y124911552D02*
X22098000Y115697000D01*
X181675000Y96832500D02*
X177532500Y96832500D01*
X129921000Y97028000D02*
X126873000Y97028000D01*
X107823000Y97028000D02*
X107315000Y96520000D01*
X-39012500Y82145500D02*
X-23217500Y82145500D01*
X69342000Y96647000D02*
X65179000Y96647000D01*
X153416000Y96147446D02*
X153412810Y96150636D01*
X-130556000Y43434000D02*
X-52451000Y43434000D01*
X88519000Y97028000D02*
X88138000Y96647000D01*
X19812000Y127197552D02*
X22098000Y124911552D01*
X-52228750Y48799750D02*
X-52228750Y54927500D01*
X29368750Y143668750D02*
X29368750Y139056250D01*
X-54610000Y112077500D02*
X-54610000Y125730000D01*
X-50918750Y57825000D02*
X-50918750Y56387500D01*
X72136000Y96647000D02*
X71755000Y97028000D01*
X23174939Y115316000D02*
X24511000Y113979939D01*
X-55118000Y126238000D02*
X-55139401Y126216599D01*
X126873000Y97028000D02*
X126365000Y96520000D01*
X158271439Y97057439D02*
X157353000Y96139000D01*
X18864000Y82169000D02*
X36195000Y82169000D01*
X-23217500Y82145500D02*
X-23241000Y82169000D01*
X27770901Y102531099D02*
X27940000Y102362000D01*
X29368750Y139056250D02*
X29548522Y138876478D01*
X-64135000Y131127500D02*
X-64135000Y126841250D01*
X138303000Y96139000D02*
X130810000Y96139000D01*
X24511000Y113979939D02*
X24511000Y112268000D01*
X42037000Y82169000D02*
X37973000Y82169000D01*
X-55139401Y126216599D02*
X-63510349Y126216599D01*
X110363000Y96520000D02*
X109855000Y97028000D01*
X-45243750Y59531250D02*
X-49212500Y59531250D01*
X160679500Y95987500D02*
X159609561Y97057439D01*
X-131191000Y96266000D02*
X-130650750Y96806250D01*
X-52451000Y43434000D02*
X-52070000Y43815000D01*
X42382500Y102362000D02*
X42418000Y102326500D01*
X24511000Y112268000D02*
X24765000Y112014000D01*
X-54610000Y112077500D02*
X-54610000Y107791250D01*
X16961714Y135311714D02*
X16275000Y134625000D01*
X50546000Y96647000D02*
X47498000Y96647000D01*
X157353000Y96139000D02*
X153416000Y96139000D01*
X176687500Y95987500D02*
X160679500Y95987500D01*
X151003000Y96139000D02*
X139954000Y96139000D01*
X-48418750Y88106250D02*
X-44450000Y88106250D01*
X101473000Y96520000D02*
X91186000Y96520000D01*
X63500000Y96647000D02*
X52832000Y96647000D01*
X-63510349Y126216599D02*
X-64135000Y126841250D01*
X45847000Y96647000D02*
X43307000Y96647000D01*
X-131191000Y44069000D02*
X-130556000Y43434000D01*
X-53181250Y106362500D02*
X-50006250Y106362500D01*
X-50006250Y106362500D02*
X-48537500Y104893750D01*
X24765000Y112014000D02*
X26543000Y112014000D01*
X82423000Y96647000D02*
X72136000Y96647000D01*
X-49847500Y93027500D02*
X-49847500Y89535000D01*
X42291000Y96393000D02*
X42291000Y87503000D01*
X19504000Y128267903D02*
X19812000Y127959903D01*
X-131176671Y88747786D02*
X-131191000Y88733457D01*
X16275000Y132896000D02*
X19504000Y129667000D01*
X42037000Y102362000D02*
X42382500Y102362000D01*
X153416000Y96139000D02*
X153416000Y96147446D01*
X90678000Y97028000D02*
X88519000Y97028000D01*
X-40481250Y73818750D02*
X-42862500Y73818750D01*
X-40322500Y73977500D02*
X-40481250Y73818750D01*
X126365000Y96520000D02*
X123698000Y96520000D01*
X26326500Y135375000D02*
X26263214Y135311714D01*
X-129159000Y44160500D02*
X-53248500Y44160500D01*
X30545750Y145031750D02*
X30545750Y141979250D01*
X-132080000Y94295000D02*
X-132080000Y96393000D01*
X110744000Y84963000D02*
X86995000Y84963000D01*
X184215000Y96832500D02*
X184215000Y95715000D01*
X-132080000Y88320000D02*
X-132080000Y45720000D01*
X86995000Y84963000D02*
X86995000Y85054500D01*
X20518750Y60355500D02*
X20828000Y60664750D01*
X123701750Y84963000D02*
X112903000Y84963000D01*
X175800000Y95500000D02*
X175287500Y94987500D01*
X30545750Y141979250D02*
X30550000Y141975000D01*
X175287500Y94987500D02*
X171822500Y94987500D01*
X-45085000Y131127500D02*
X-45085000Y135433000D01*
X152908000Y84963000D02*
X125222000Y84963000D01*
X153289000Y91186000D02*
X153289000Y87467500D01*
X21200000Y134450000D02*
X27350000Y134450000D01*
X-45085000Y131127500D02*
X-45085000Y126841250D01*
X158242000Y92964000D02*
X155067000Y92964000D01*
X164592000Y94996000D02*
X171814000Y94996000D01*
X-34925000Y107156250D02*
X-30956250Y107156250D01*
X153289000Y85344000D02*
X152908000Y84963000D01*
X-30956250Y107156250D02*
X-29487500Y105687500D01*
X-44539000Y135979000D02*
X9817000Y135979000D01*
X-21272500Y56197500D02*
X-21272500Y73977500D01*
X83439000Y60325000D02*
X84963000Y60325000D01*
X9906000Y135255000D02*
X10795000Y134366000D01*
X-138950000Y94900000D02*
X-148125000Y94900000D01*
X-130866750Y97606250D02*
X-124762500Y97606250D01*
X184215000Y95715000D02*
X184000000Y95500000D01*
X9906000Y135255000D02*
X9906000Y135890000D01*
X-148900000Y95675000D02*
X-152100000Y95675000D01*
X29368750Y146208750D02*
X30545750Y145031750D01*
X20828000Y60664750D02*
X83099250Y60664750D01*
X-50800000Y44196000D02*
X-21590000Y44196000D01*
X-23241000Y83566000D02*
X-29464000Y83566000D01*
X184000000Y95500000D02*
X175800000Y95500000D01*
X-30797500Y93027500D02*
X-30797500Y84899500D01*
X-152490000Y96065000D02*
X-152490000Y96857500D01*
X-35560000Y107791250D02*
X-34925000Y107156250D01*
X155067000Y92964000D02*
X153289000Y91186000D01*
X-35560000Y112077500D02*
X-35560000Y107791250D01*
X-45085000Y126841250D02*
X-44450000Y126206250D01*
X-21272500Y81597500D02*
X-23241000Y83566000D01*
X27350000Y134450000D02*
X27423500Y134450000D01*
X12573000Y134366000D02*
X10795000Y134366000D01*
X-138650000Y94600000D02*
X-138950000Y94900000D01*
X30550000Y141975000D02*
X30550000Y138521500D01*
X-148125000Y94900000D02*
X-148900000Y95675000D01*
X-29487500Y105687500D02*
X-29487500Y94487500D01*
X-21272500Y44513500D02*
X-21272500Y56197500D01*
X27423500Y134450000D02*
X27448500Y134475000D01*
X-34250000Y123943750D02*
X-34250000Y113537500D01*
X-45085000Y135433000D02*
X-44539000Y135979000D01*
X171822500Y94987500D02*
X171814000Y94996000D01*
X83099250Y60664750D02*
X83439000Y60325000D01*
X-20002500Y54927500D02*
X-21272500Y56197500D01*
X-152100000Y95675000D02*
X-152490000Y96065000D01*
X-36512500Y126206250D02*
X-34250000Y123943750D01*
X-132080000Y96393000D02*
X-130866750Y97606250D01*
X-29464000Y83566000D02*
X-30797500Y84899500D01*
X-21590000Y44196000D02*
X-21272500Y44513500D01*
X19208750Y54927500D02*
X-20002500Y54927500D01*
X20518750Y56387500D02*
X20518750Y60355500D01*
X-21272500Y73977500D02*
X-21272500Y81597500D01*
X-44450000Y126206250D02*
X-36512500Y126206250D01*
X-134838500Y94600000D02*
X-138650000Y94600000D01*
X9906000Y135890000D02*
X9817000Y135979000D01*
X-2407161Y45217839D02*
X-2667000Y44958000D01*
X-129286000Y45339000D02*
X-128905000Y44958000D01*
X110871000Y59436000D02*
X92170250Y59436000D01*
X-2413000Y62357000D02*
X-2413000Y55753000D01*
X-135444000Y93681000D02*
X-139202250Y93681000D01*
X-15081250Y106362500D02*
X-11906250Y106362500D01*
X8255000Y135252500D02*
X-25275500Y135252500D01*
X159131000Y93091000D02*
X159131000Y87630000D01*
X-16510000Y107791250D02*
X-15081250Y106362500D01*
X-912500Y84256250D02*
X-912500Y75437500D01*
X162814000Y93980000D02*
X160020000Y93980000D01*
X92170250Y59436000D02*
X91956250Y59650000D01*
X-132098750Y98406250D02*
X-124762500Y98406250D01*
X26828750Y141028750D02*
X26450000Y140650000D01*
X-2222500Y62547500D02*
X-2413000Y62357000D01*
X158242000Y59817000D02*
X140335000Y59817000D01*
X181675000Y94292500D02*
X175492500Y94292500D01*
X-26035000Y126365000D02*
X-25876250Y126206250D01*
X-26035000Y131127500D02*
X-26035000Y126365000D01*
X-139202250Y93681000D02*
X-139838750Y94317500D01*
X-4762500Y88106250D02*
X-912500Y84256250D01*
X113792000Y59436000D02*
X112776000Y59436000D01*
X-130429000Y46482000D02*
X-129921000Y46482000D01*
X-133096000Y93500000D02*
X-133096000Y97409000D01*
X-26035000Y134493000D02*
X-25275500Y135252500D01*
X175492500Y94292500D02*
X175187500Y93987500D01*
X-25876250Y126206250D02*
X-17494250Y126206250D01*
X-16510000Y112077500D02*
X-16510000Y107791250D01*
X-11906250Y106362500D02*
X-10437500Y104893750D01*
X-133096000Y97409000D02*
X-132098750Y98406250D01*
X-10437500Y104893750D02*
X-10437500Y94487500D01*
X138430000Y59817000D02*
X117348000Y59817000D01*
X-793750Y61118750D02*
X90487500Y61118750D01*
X-139838750Y94317500D02*
X-149950000Y94317500D01*
X-129921000Y46482000D02*
X-129286000Y45847000D01*
X114173000Y59817000D02*
X113792000Y59436000D01*
X-26035000Y131127500D02*
X-26035000Y134493000D01*
X-2407161Y48351500D02*
X-2407161Y45217839D01*
X159131000Y84709000D02*
X159131000Y79847500D01*
X-16510000Y125222000D02*
X-17494250Y126206250D01*
X-11747500Y88741250D02*
X-11112500Y88106250D01*
X90487500Y61118750D02*
X91956250Y59650000D01*
X-2222500Y73977500D02*
X-2222500Y62547500D01*
X-133096000Y89268750D02*
X-133096000Y47244000D01*
X115697000Y59817000D02*
X114173000Y59817000D01*
X26828750Y143668750D02*
X26828750Y141028750D01*
X175187500Y93987500D02*
X169425500Y93987500D01*
X-2667000Y44958000D02*
X-20320000Y44958000D01*
X-49911000Y44958000D02*
X-22352000Y44958000D01*
X169425500Y93987500D02*
X169418000Y93980000D01*
X-11747500Y93027500D02*
X-11747500Y88741250D01*
X160020000Y93980000D02*
X159131000Y93091000D01*
X-11112500Y88106250D02*
X-4762500Y88106250D01*
X91956250Y59650000D02*
X91956250Y56387500D01*
X-16510000Y112077500D02*
X-16510000Y125222000D01*
X-129286000Y45847000D02*
X-129286000Y45339000D01*
X-128905000Y44958000D02*
X-54229000Y44958000D01*
X-2222500Y62547500D02*
X-793750Y61118750D01*
X184215000Y94292500D02*
X184215000Y93365000D01*
X-6985000Y126841250D02*
X-6350000Y126206250D01*
X14732000Y46609000D02*
X14732000Y48133000D01*
X18137500Y86637500D02*
X18137500Y75437500D01*
X-152490000Y93044500D02*
X-152400000Y92954500D01*
X2698750Y107156250D02*
X7143750Y107156250D01*
X116562500Y61237500D02*
X138406500Y61237500D01*
X-6350000Y126206250D02*
X793750Y126206250D01*
X16668750Y88106250D02*
X18137500Y86637500D01*
X-129413000Y48006000D02*
X-128524000Y47117000D01*
X15303500Y63309500D02*
X16827500Y63309500D01*
X793750Y126206250D02*
X3850000Y123150000D01*
X169093500Y86868000D02*
X169093000Y86868000D01*
X27566250Y146208750D02*
X28191750Y145583250D01*
X-132949750Y99206250D02*
X-124762500Y99206250D01*
X-134112000Y92263000D02*
X-134112000Y92638000D01*
X169568500Y92987500D02*
X169418000Y92837000D01*
X16827500Y61753750D02*
X17008500Y61572750D01*
X26828750Y146208750D02*
X27566250Y146208750D01*
X28191750Y138683250D02*
X28200000Y138675000D01*
X7302500Y88741250D02*
X7937500Y88106250D01*
X12446000Y123825000D02*
X11771000Y123150000D01*
X-134112000Y92638000D02*
X-134112000Y98044000D01*
X116227250Y61572750D02*
X116562500Y61237500D01*
X-152400000Y92954500D02*
X-134428500Y92954500D01*
X17008500Y61572750D02*
X116227250Y61572750D01*
X16827500Y63309500D02*
X16827500Y61753750D01*
X7937500Y88106250D02*
X16668750Y88106250D01*
X-51054000Y46101000D02*
X-23241000Y46101000D01*
X-6985000Y131127500D02*
X-6985000Y126841250D01*
X184215000Y93365000D02*
X183837500Y92987500D01*
X7143750Y107156250D02*
X8612500Y105687500D01*
X-19177000Y46101000D02*
X-3683000Y46101000D01*
X168148000Y60579000D02*
X169093500Y61524500D01*
X161671000Y60579000D02*
X162306000Y60579000D01*
X2540000Y107315000D02*
X2698750Y107156250D01*
X28175000Y136160500D02*
X28175000Y132475000D01*
X11771000Y123150000D02*
X3850000Y123150000D01*
X12446000Y124368500D02*
X12446000Y123825000D01*
X140837286Y61208286D02*
X161041714Y61208286D01*
X-152490000Y94317500D02*
X-152490000Y93044500D01*
X14732000Y48133000D02*
X14732000Y48351500D01*
X28175000Y132475000D02*
X27725000Y132025000D01*
X28191750Y145583250D02*
X28191750Y138683250D01*
X-1270000Y46101000D02*
X14224000Y46101000D01*
X169093500Y61524500D02*
X169093500Y86868000D01*
X14224000Y46101000D02*
X14732000Y46609000D01*
X2540000Y112077500D02*
X2540000Y107315000D01*
X-134112000Y88762000D02*
X-134112000Y49530000D01*
X3850000Y123150000D02*
X3850000Y113537500D01*
X164592000Y60579000D02*
X168148000Y60579000D01*
X-130429000Y48006000D02*
X-129413000Y48006000D01*
X-134112000Y98044000D02*
X-132949750Y99206250D01*
X7302500Y93027500D02*
X7302500Y88741250D01*
X8612500Y105687500D02*
X8612500Y94487500D01*
X-128143000Y46101000D02*
X-53086000Y46101000D01*
X24750000Y132025000D02*
X24600000Y132025000D01*
X-134428500Y92954500D02*
X-134112000Y92638000D01*
X16827500Y73977500D02*
X16827500Y63309500D01*
X116562500Y61237500D02*
X116562500Y56387500D01*
X27725000Y132025000D02*
X24750000Y132025000D01*
X183837500Y92987500D02*
X169568500Y92987500D01*
X-128524000Y47117000D02*
X-128524000Y46482000D01*
X161041714Y61208286D02*
X161671000Y60579000D01*
X-128524000Y46482000D02*
X-128143000Y46101000D01*
X165989000Y89916000D02*
X166080500Y89916000D01*
X181675000Y91752500D02*
X173022500Y91752500D01*
X12954000Y136433000D02*
X-109728000Y136433000D01*
X18898000Y136302000D02*
X19225000Y135975000D01*
X166080500Y89916000D02*
X166167464Y89829036D01*
X162001250Y62026750D02*
X162179000Y61849000D01*
X27178000Y106172000D02*
X27178000Y99326134D01*
X-112014000Y134147000D02*
X-112014000Y118618000D01*
X139581250Y61078750D02*
X138633250Y62026750D01*
X27178000Y99326134D02*
X27662500Y98841634D01*
X-112014000Y118618000D02*
X-112776000Y118618000D01*
X166506046Y91987500D02*
X166229238Y91710692D01*
X12065000Y126841250D02*
X12700000Y126206250D01*
X-113362500Y98406250D02*
X-112087500Y98406250D01*
X-140843000Y118491000D02*
X-140843000Y117983000D01*
X138633250Y62026750D02*
X162001250Y62026750D01*
X164465000Y61595000D02*
X164719000Y61595000D01*
X172787500Y91987500D02*
X166506046Y91987500D01*
X173022500Y91752500D02*
X172787500Y91987500D01*
X26352500Y88741250D02*
X26987500Y88106250D01*
X12700000Y126206250D02*
X20161250Y126206250D01*
X138633250Y62026750D02*
X36715750Y62026750D01*
X36715750Y62026750D02*
X35877500Y62865000D01*
X27662500Y98841634D02*
X27662500Y94487500D01*
X-109728000Y136433000D02*
X-112014000Y134147000D01*
X35877500Y62865000D02*
X35877500Y73977500D01*
X-140716000Y118618000D02*
X-140843000Y118491000D01*
X-132083750Y118618000D02*
X-140716000Y118618000D01*
X164719000Y61595000D02*
X165989000Y62865000D01*
X-112776000Y118618000D02*
X-112938500Y118618000D01*
X24288750Y143668750D02*
X24288750Y138811250D01*
X139581250Y56387500D02*
X139581250Y61078750D01*
X-112087500Y98406250D02*
X-112014000Y98479750D01*
X13665000Y136302000D02*
X18898000Y136302000D01*
X26987500Y88106250D02*
X34925000Y88106250D01*
X21590000Y124777500D02*
X20161250Y126206250D01*
X13375000Y132587500D02*
X13375000Y136012000D01*
X19225000Y135975000D02*
X24500000Y135975000D01*
X-112014000Y118618000D02*
X-112014000Y108966000D01*
X37187500Y85843750D02*
X37187500Y75437500D01*
X21590000Y112077500D02*
X21590000Y107791250D01*
X165989000Y62865000D02*
X165989000Y89916000D01*
X162179000Y61849000D02*
X162433000Y61595000D01*
X12065000Y131127500D02*
X12065000Y126841250D01*
X34925000Y88106250D02*
X37187500Y85843750D01*
X26193750Y107156250D02*
X27178000Y106172000D01*
X13375000Y136012000D02*
X13665000Y136302000D01*
X24500000Y135975000D02*
X24563714Y136038714D01*
X26352500Y93027500D02*
X26352500Y88741250D01*
X-149950000Y91777500D02*
X-141402500Y91777500D01*
X21590000Y107791250D02*
X22225000Y107156250D01*
X-141402500Y91777500D02*
X-141390000Y91790000D01*
X22225000Y107156250D02*
X26193750Y107156250D01*
X24288750Y138811250D02*
X24300000Y138800000D01*
X13375000Y136012000D02*
X12954000Y136433000D01*
X21590000Y112077500D02*
X21590000Y124777500D01*
X165354000Y90043000D02*
X165354000Y62992000D01*
X166298500Y90987500D02*
X174362500Y90987500D01*
X-128778000Y85852000D02*
X-127281500Y85852000D01*
X-152490000Y90577500D02*
X-152400000Y90487500D01*
X54927500Y62865000D02*
X54927500Y73977500D01*
X-121412000Y84582000D02*
X-120650000Y84582000D01*
X26849000Y131127500D02*
X26826500Y131150000D01*
X15875000Y80962500D02*
X793750Y80962500D01*
X31115000Y127635000D02*
X32543750Y126206250D01*
X166298500Y90987500D02*
X165354000Y90043000D01*
X53975000Y88106250D02*
X56237500Y85843750D01*
X-107156250Y84137500D02*
X-108743750Y84137500D01*
X184215000Y91752500D02*
X184215000Y90815000D01*
X25216250Y146208750D02*
X25625000Y145800000D01*
X56237500Y81637500D02*
X56237500Y75437500D01*
X-105568750Y80962500D02*
X-106362500Y81756250D01*
X-106362500Y83343750D02*
X-107156250Y84137500D01*
X-106362500Y81756250D02*
X-106362500Y83343750D01*
X-148431250Y90487500D02*
X-147939000Y89995250D01*
X165354000Y62992000D02*
X164842750Y62480750D01*
X32543750Y126206250D02*
X40481250Y126206250D01*
X40640000Y112077500D02*
X40640000Y108585000D01*
X163393750Y56387500D02*
X163393750Y62031250D01*
X-23018750Y80962500D02*
X-37306250Y80962500D01*
X31115000Y131127500D02*
X26849000Y131127500D01*
X46831250Y88106250D02*
X53975000Y88106250D01*
X31115000Y131127500D02*
X31115000Y127635000D01*
X45402500Y93027500D02*
X45402500Y89535000D01*
X174900000Y90450000D02*
X174362500Y90987500D01*
X-90487500Y80962500D02*
X-105568750Y80962500D01*
X24288750Y146208750D02*
X25216250Y146208750D01*
X163393750Y62031250D02*
X162944250Y62480750D01*
X42068750Y107156250D02*
X44450000Y107156250D01*
X-120650000Y84582000D02*
X-120650000Y84490500D01*
X-152400000Y90487500D02*
X-148431250Y90487500D01*
X-122682000Y85852000D02*
X-121412000Y84582000D01*
X-152490000Y91777500D02*
X-152490000Y90577500D01*
X44450000Y107156250D02*
X46712500Y104893750D01*
X55311750Y62480750D02*
X54927500Y62865000D01*
X184215000Y90815000D02*
X183850000Y90450000D01*
X46712500Y104893750D02*
X46712500Y94487500D01*
X25625000Y145800000D02*
X25625000Y138521500D01*
X162944250Y62480750D02*
X164842750Y62480750D01*
X40640000Y108585000D02*
X42068750Y107156250D01*
X-123698000Y85852000D02*
X-122682000Y85852000D01*
X56237500Y81637500D02*
X55562500Y80962500D01*
X40481250Y126206250D02*
X41950000Y124737500D01*
X55562500Y80962500D02*
X38893750Y80962500D01*
X-61118750Y80962500D02*
X-87312500Y80962500D01*
X-147939000Y89995250D02*
X-130762250Y89995250D01*
X-130438500Y89671500D02*
X-130438500Y87512500D01*
X162944250Y62480750D02*
X55311750Y62480750D01*
X-130438500Y87512500D02*
X-128778000Y85852000D01*
X-40481250Y80962500D02*
X-57943750Y80962500D01*
X-130762250Y89995250D02*
X-130438500Y89671500D01*
X45402500Y89535000D02*
X46831250Y88106250D01*
X41950000Y124737500D02*
X41950000Y113537500D01*
X-2381250Y80962500D02*
X-19843750Y80962500D01*
X56237500Y85843750D02*
X56237500Y81637500D01*
X-115862500Y95106250D02*
X-115862500Y86017500D01*
X-115862500Y86017500D02*
X-115862500Y85509500D01*
X183850000Y90450000D02*
X174900000Y90450000D01*
X34925000Y80962500D02*
X19843750Y80962500D01*
X126365000Y131127500D02*
X126365000Y125253750D01*
X16668750Y143668750D02*
X16668750Y138868750D01*
X127675000Y132587500D02*
X127675000Y137047000D01*
X137200000Y120768750D02*
X137200000Y113537500D01*
X-117413948Y137341000D02*
X-117852474Y136902474D01*
X-119761000Y132207000D02*
X-119862500Y132105500D01*
X16541000Y138741000D02*
X16668750Y138868750D01*
X135890000Y112077500D02*
X135890000Y101727000D01*
X149733000Y98552000D02*
X152558750Y95726250D01*
X16541000Y137341000D02*
X16541000Y138741000D01*
X128587500Y123031250D02*
X134937500Y123031250D01*
X-117852474Y134362474D02*
X-117856000Y134358948D01*
X-117852474Y136902474D02*
X-117852474Y134362474D01*
X135890000Y101727000D02*
X139065000Y98552000D01*
X134937500Y123031250D02*
X137200000Y120768750D01*
X139065000Y98552000D02*
X149733000Y98552000D01*
X16541000Y137341000D02*
X-117413948Y137341000D01*
X152558750Y95726250D02*
X152558750Y93027500D01*
X127675000Y137047000D02*
X127381000Y137341000D01*
X-117856000Y134358948D02*
X-117856000Y133604000D01*
X16541000Y137341000D02*
X127381000Y137341000D01*
X126365000Y125253750D02*
X128587500Y123031250D01*
X-119862500Y132105500D02*
X-119862500Y106506250D01*
X-118999000Y133604000D02*
X-118999000Y113030000D01*
X161012500Y116800000D02*
X154940000Y122872500D01*
X15345000Y137795000D02*
X-117602000Y137795000D01*
X156250000Y137501000D02*
X156250000Y132587500D01*
X18000000Y145900000D02*
X18000000Y138025000D01*
X154940000Y122872500D02*
X154940000Y131127500D01*
X-118364000Y137033000D02*
X-118364000Y134239000D01*
X17695000Y137795000D02*
X18230000Y137795000D01*
X15725000Y138200000D02*
X15725000Y138175000D01*
X-118364000Y134239000D02*
X-118999000Y133604000D01*
X161012500Y113537500D02*
X161012500Y116800000D01*
X18000000Y138025000D02*
X18230000Y137795000D01*
X15725000Y138175000D02*
X15345000Y137795000D01*
X17691250Y146208750D02*
X18000000Y145900000D01*
X155956000Y137795000D02*
X156250000Y137501000D01*
X17655000Y137795000D02*
X17325000Y138125000D01*
X18230000Y137795000D02*
X155956000Y137795000D01*
X16668750Y146208750D02*
X17691250Y146208750D01*
X-117602000Y137795000D02*
X-118364000Y137033000D01*
X17695000Y137795000D02*
X17655000Y137795000D01*
X-119062500Y106506250D02*
X-119062500Y112966500D01*
X-152225000Y80325000D02*
X-152490000Y80590000D01*
X25146000Y104521000D02*
X10668000Y104521000D01*
X-143775000Y80325000D02*
X-152225000Y80325000D01*
X-113919000Y116586000D02*
X-118272500Y116586000D01*
X-114293250Y104006250D02*
X-114681000Y104394000D01*
X-107061000Y116332000D02*
X-109220000Y116332000D01*
X-104267000Y116332000D02*
X-104902000Y116332000D01*
X172620500Y80229500D02*
X172212000Y80638000D01*
X171196000Y104521000D02*
X136779000Y104521000D01*
X-113411000Y116332000D02*
X-113665000Y116078000D01*
X-113362500Y104006250D02*
X-114293250Y104006250D01*
X-152490000Y80590000D02*
X-152490000Y81617500D01*
X-113665000Y116332000D02*
X-113919000Y116586000D01*
X184215000Y80315000D02*
X184129500Y80229500D01*
X-103505000Y105410000D02*
X-102616000Y104521000D01*
X-142494000Y115189000D02*
X-141097000Y116586000D01*
X-113665000Y115443000D02*
X-113665000Y116078000D01*
X-112740500Y116332000D02*
X-113411000Y116332000D01*
X-70358000Y104521000D02*
X-91567000Y104521000D01*
X62103000Y104521000D02*
X48387000Y104521000D01*
X-95123000Y104521000D02*
X-102616000Y104521000D01*
X-11811000Y104521000D02*
X-27432000Y104521000D01*
X80518000Y104521000D02*
X66294000Y104521000D01*
X101600000Y104521000D02*
X85852000Y104521000D01*
X-103505000Y105410000D02*
X-103505000Y115570000D01*
X-49403000Y104521000D02*
X-65913000Y104521000D01*
X134874000Y104521000D02*
X123571000Y104521000D01*
X-114681000Y104394000D02*
X-114684442Y104390558D01*
X7747000Y104521000D02*
X-8890000Y104521000D01*
X-113665000Y116078000D02*
X-113665000Y116332000D01*
X-141097000Y116586000D02*
X-132207000Y116586000D01*
X120396000Y104521000D02*
X104775000Y104521000D01*
X-30480000Y104521000D02*
X-46609000Y104521000D01*
X-142494000Y114300000D02*
X-142494000Y115189000D01*
X-103505000Y115570000D02*
X-104267000Y116332000D01*
X172212000Y80638000D02*
X172212000Y83058000D01*
X184215000Y81592500D02*
X184215000Y80315000D01*
X184129500Y80229500D02*
X172620500Y80229500D01*
X-114684442Y104390558D02*
X-114695258Y104390558D01*
X45212000Y104521000D02*
X29591000Y104521000D01*
X-125349000Y114741074D02*
X-125381074Y114709000D01*
X14128750Y143668750D02*
X14128750Y141728750D01*
X-124762500Y108979000D02*
X-125095000Y109311500D01*
X-124762500Y104806250D02*
X-124762500Y108979000D01*
X-125349000Y114935000D02*
X-125349000Y114741074D01*
X-125349000Y135184500D02*
X-125349000Y114935000D01*
M02*
