M48
; DRILL file {KiCad (6.0.9)} date Fri Mar 10 16:35:37 2023
; FORMAT={-:-/ absolute / metric / decimal}
; #@! TF.CreationDate,2023-03-10T16:35:37-06:00
; #@! TF.GenerationSoftware,Kicad,Pcbnew,(6.0.9)
; #@! TF.FileFunction,NonPlated,1,2,NPTH
FMAT,2
METRIC
; #@! TA.AperFunction,NonPlated,NPTH,ComponentDrill
T1C1.750
; #@! TA.AperFunction,NonPlated,NPTH,ComponentDrill
T2C3.988
%
G90
G05
T1
X-103.505Y128.588
X-101.124Y52.387
X-98.742Y109.537
X-96.361Y90.487
X-93.345Y128.588
X-91.599Y71.438
X-90.964Y52.387
X-88.582Y109.537
X-86.201Y90.487
X-84.455Y128.588
X-81.439Y71.438
X-77.47Y52.387
X-74.93Y109.537
X-74.295Y128.588
X-70.167Y90.487
X-67.31Y52.387
X-65.405Y128.588
X-64.77Y109.537
X-60.642Y71.438
X-60.008Y90.487
X-55.88Y109.537
X-55.245Y128.588
X-53.499Y52.387
X-51.117Y90.487
X-50.482Y71.438
X-46.355Y128.588
X-45.72Y109.537
X-43.339Y52.387
X-41.593Y71.438
X-40.957Y90.487
X-36.83Y109.537
X-36.195Y128.588
X-32.067Y90.487
X-31.432Y71.438
X-27.305Y128.588
X-26.67Y109.537
X-22.543Y71.438
X-21.907Y90.487
X-17.78Y109.537
X-17.145Y128.588
X-13.018Y90.487
X-12.383Y71.438
X-8.255Y128.588
X-7.62Y109.537
X-3.492Y71.438
X-2.857Y90.487
X1.27Y109.537
X1.905Y128.588
X6.032Y90.487
X6.667Y71.438
X10.795Y128.588
X11.43Y109.537
X15.557Y71.438
X16.192Y90.487
X17.939Y52.387
X20.32Y109.537
X20.955Y128.588
X25.082Y90.487
X25.717Y71.438
X28.099Y52.387
X29.845Y128.588
X30.48Y109.537
X34.608Y71.438
X35.242Y90.487
X39.37Y109.537
X40.005Y128.588
X44.133Y90.487
X44.767Y71.438
X48.895Y128.588
X49.53Y109.537
X53.657Y71.438
X54.292Y90.487
X58.42Y109.537
X59.055Y128.588
X63.182Y90.487
X63.817Y71.438
X67.945Y128.588
X68.58Y109.537
X72.707Y71.438
X73.343Y90.487
X77.47Y109.537
X78.105Y128.588
X82.233Y90.487
X82.867Y71.438
X86.995Y128.588
X87.63Y109.537
X89.376Y52.387
X91.757Y71.438
X92.392Y90.487
X96.52Y109.537
X97.155Y128.588
X99.536Y52.387
X101.282Y90.487
X101.917Y71.438
X106.045Y128.588
X106.68Y109.537
X110.807Y71.438
X111.442Y90.487
X113.983Y52.387
X115.57Y109.537
X116.205Y128.588
X120.332Y90.487
X120.968Y71.438
X124.142Y52.387
X125.095Y128.588
X125.73Y109.537
X130.493Y90.487
X134.62Y109.537
X135.255Y128.588
X137.001Y52.387
X144.78Y109.537
X146.526Y71.438
X147.161Y52.387
X151.289Y90.487
X153.67Y128.588
X156.686Y71.438
X158.433Y109.537
X160.814Y52.387
X161.449Y90.487
X163.83Y128.588
X168.593Y109.537
X170.974Y52.387
T2
X-98.425Y128.588
X-96.044Y52.387
X-93.662Y109.537
X-91.281Y90.487
X-86.519Y71.438
X-79.375Y128.588
X-72.39Y52.387
X-69.85Y109.537
X-65.087Y90.487
X-60.325Y128.588
X-55.562Y71.438
X-50.8Y109.537
X-48.419Y52.387
X-46.038Y90.487
X-41.275Y128.588
X-36.512Y71.438
X-31.75Y109.537
X-26.987Y90.487
X-22.225Y128.588
X-17.462Y71.438
X-12.7Y109.537
X-7.938Y90.487
X-3.175Y128.588
X1.587Y71.438
X6.35Y109.537
X11.112Y90.487
X15.875Y128.588
X20.637Y71.438
X23.019Y52.387
X25.4Y109.537
X30.162Y90.487
X34.925Y128.588
X39.688Y71.438
X44.45Y109.537
X49.212Y90.487
X53.975Y128.588
X58.737Y71.438
X63.5Y109.537
X68.263Y90.487
X73.025Y128.588
X77.787Y71.438
X82.55Y109.537
X87.312Y90.487
X92.075Y128.588
X94.456Y52.387
X96.837Y71.438
X101.6Y109.537
X106.362Y90.487
X111.125Y128.588
X115.887Y71.438
X119.062Y52.387
X120.65Y109.537
X125.412Y90.487
X130.175Y128.588
X139.7Y109.537
X142.081Y52.387
X151.606Y71.438
X156.369Y90.487
X158.75Y128.588
X163.512Y109.537
X165.894Y52.387
T0
M30
